{
  "header": {
    "PPQ": 240,
    "timeSignature": [
      4,
      4
    ],
    "bpm": 162.000162000162,
    "name": ""
  },
  "startTime": 0,
  "duration": 112.57396150000001,
  "tracks": [
    {
      "startTime": 0,
      "duration": 0,
      "length": 0,
      "notes": [],
      "controlChanges": {},
      "id": 0
    },
    {
      "startTime": 0,
      "duration": 112.55544300000007,
      "length": 852,
      "notes": [
        {
          "name": "B1",
          "midi": 35,
          "time": 0,
          "velocity": 0.6299212598425197,
          "duration": 0.16666650000000002
        },
        {
          "name": "B2",
          "midi": 47,
          "time": 0,
          "velocity": 0.6299212598425197,
          "duration": 0.16666650000000002
        },
        {
          "name": "B1",
          "midi": 35,
          "time": 0.18518500000000002,
          "velocity": 0.6299212598425197,
          "duration": 0.16666650000000002
        },
        {
          "name": "B2",
          "midi": 47,
          "time": 0.18518500000000002,
          "velocity": 0.6299212598425197,
          "duration": 0.16666650000000002
        },
        {
          "name": "A3",
          "midi": 57,
          "time": 0.37037000000000003,
          "velocity": 0.6299212598425197,
          "duration": 0.1666665
        },
        {
          "name": "A2",
          "midi": 45,
          "time": 0.37037000000000003,
          "velocity": 0.6299212598425197,
          "duration": 0.1666665
        },
        {
          "name": "B1",
          "midi": 35,
          "time": 0.555555,
          "velocity": 0.6299212598425197,
          "duration": 0.16666650000000005
        },
        {
          "name": "B2",
          "midi": 47,
          "time": 0.555555,
          "velocity": 0.6299212598425197,
          "duration": 0.16666650000000005
        },
        {
          "name": "B2",
          "midi": 47,
          "time": 0.7407400000000001,
          "velocity": 0.6299212598425197,
          "duration": 0.16666650000000005
        },
        {
          "name": "B3",
          "midi": 59,
          "time": 0.7407400000000001,
          "velocity": 0.6299212598425197,
          "duration": 0.16666650000000005
        },
        {
          "name": "B1",
          "midi": 35,
          "time": 0.9259250000000001,
          "velocity": 0.6299212598425197,
          "duration": 0.16666650000000005
        },
        {
          "name": "B2",
          "midi": 47,
          "time": 0.9259250000000001,
          "velocity": 0.6299212598425197,
          "duration": 0.16666650000000005
        },
        {
          "name": "B2",
          "midi": 47,
          "time": 1.1111100000000003,
          "velocity": 0.6299212598425197,
          "duration": 0.16666650000000005
        },
        {
          "name": "B1",
          "midi": 35,
          "time": 1.1111100000000003,
          "velocity": 0.6299212598425197,
          "duration": 0.16666650000000005
        },
        {
          "name": "A3",
          "midi": 57,
          "time": 1.2962950000000004,
          "velocity": 0.6299212598425197,
          "duration": 0.16666650000000005
        },
        {
          "name": "A2",
          "midi": 45,
          "time": 1.2962950000000004,
          "velocity": 0.6299212598425197,
          "duration": 0.16666650000000005
        },
        {
          "name": "B2",
          "midi": 47,
          "time": 1.4814800000000006,
          "velocity": 0.6299212598425197,
          "duration": 0.16666650000000005
        },
        {
          "name": "B1",
          "midi": 35,
          "time": 1.4814800000000006,
          "velocity": 0.6299212598425197,
          "duration": 0.16666650000000005
        },
        {
          "name": "B3",
          "midi": 59,
          "time": 1.6666650000000007,
          "velocity": 0.6299212598425197,
          "duration": 0.16666650000000005
        },
        {
          "name": "B2",
          "midi": 47,
          "time": 1.6666650000000007,
          "velocity": 0.6299212598425197,
          "duration": 0.16666650000000005
        },
        {
          "name": "B2",
          "midi": 47,
          "time": 1.8518500000000009,
          "velocity": 0.6299212598425197,
          "duration": 0.16666650000000005
        },
        {
          "name": "B1",
          "midi": 35,
          "time": 1.8518500000000009,
          "velocity": 0.6299212598425197,
          "duration": 0.16666650000000005
        },
        {
          "name": "B1",
          "midi": 35,
          "time": 2.037035000000001,
          "velocity": 0.6299212598425197,
          "duration": 0.16666649999999983
        },
        {
          "name": "B2",
          "midi": 47,
          "time": 2.037035000000001,
          "velocity": 0.6299212598425197,
          "duration": 0.16666649999999983
        },
        {
          "name": "B2",
          "midi": 47,
          "time": 2.2222200000000005,
          "velocity": 0.6299212598425197,
          "duration": 0.3333330000000001
        },
        {
          "name": "B1",
          "midi": 35,
          "time": 2.2222200000000005,
          "velocity": 0.6299212598425197,
          "duration": 0.3333330000000001
        },
        {
          "name": "A2",
          "midi": 45,
          "time": 2.592590000000001,
          "velocity": 0.6299212598425197,
          "duration": 0.16666649999999983
        },
        {
          "name": "A1",
          "midi": 33,
          "time": 2.592590000000001,
          "velocity": 0.6299212598425197,
          "duration": 0.16666649999999983
        },
        {
          "name": "G1",
          "midi": 31,
          "time": 2.7777750000000005,
          "velocity": 0.6299212598425197,
          "duration": 0.3518515
        },
        {
          "name": "G2",
          "midi": 43,
          "time": 2.7777750000000005,
          "velocity": 0.6299212598425197,
          "duration": 0.3518515
        },
        {
          "name": "G1",
          "midi": 31,
          "time": 3.1481450000000004,
          "velocity": 0.6299212598425197,
          "duration": 0.16666649999999983
        },
        {
          "name": "G2",
          "midi": 43,
          "time": 3.1481450000000004,
          "velocity": 0.6299212598425197,
          "duration": 0.16666649999999983
        },
        {
          "name": "F#3",
          "midi": 54,
          "time": 3.33333,
          "velocity": 0.6299212598425197,
          "duration": 0.16666649999999983
        },
        {
          "name": "F#2",
          "midi": 42,
          "time": 3.33333,
          "velocity": 0.6299212598425197,
          "duration": 0.16666649999999983
        },
        {
          "name": "G1",
          "midi": 31,
          "time": 3.518515,
          "velocity": 0.6299212598425197,
          "duration": 0.16666649999999983
        },
        {
          "name": "G2",
          "midi": 43,
          "time": 3.518515,
          "velocity": 0.6299212598425197,
          "duration": 0.16666649999999983
        },
        {
          "name": "G3",
          "midi": 55,
          "time": 3.7036999999999995,
          "velocity": 0.6299212598425197,
          "duration": 0.16666649999999983
        },
        {
          "name": "G2",
          "midi": 43,
          "time": 3.7036999999999995,
          "velocity": 0.6299212598425197,
          "duration": 0.16666649999999983
        },
        {
          "name": "G1",
          "midi": 31,
          "time": 3.8888849999999993,
          "velocity": 0.6299212598425197,
          "duration": 0.16666649999999983
        },
        {
          "name": "G2",
          "midi": 43,
          "time": 3.8888849999999993,
          "velocity": 0.6299212598425197,
          "duration": 0.16666649999999983
        },
        {
          "name": "G1",
          "midi": 31,
          "time": 4.074069999999999,
          "velocity": 0.6299212598425197,
          "duration": 0.16666649999999983
        },
        {
          "name": "G2",
          "midi": 43,
          "time": 4.074069999999999,
          "velocity": 0.6299212598425197,
          "duration": 0.16666649999999983
        },
        {
          "name": "A3",
          "midi": 57,
          "time": 4.259254999999999,
          "velocity": 0.6299212598425197,
          "duration": 0.16666649999999983
        },
        {
          "name": "A2",
          "midi": 45,
          "time": 4.259254999999999,
          "velocity": 0.6299212598425197,
          "duration": 0.16666649999999983
        },
        {
          "name": "G1",
          "midi": 31,
          "time": 4.444439999999998,
          "velocity": 0.6299212598425197,
          "duration": 0.16666649999999983
        },
        {
          "name": "G2",
          "midi": 43,
          "time": 4.444439999999998,
          "velocity": 0.6299212598425197,
          "duration": 0.16666649999999983
        },
        {
          "name": "G3",
          "midi": 55,
          "time": 4.629624999999998,
          "velocity": 0.6299212598425197,
          "duration": 0.16666649999999983
        },
        {
          "name": "G2",
          "midi": 43,
          "time": 4.629624999999998,
          "velocity": 0.6299212598425197,
          "duration": 0.16666649999999983
        },
        {
          "name": "G1",
          "midi": 31,
          "time": 4.814809999999998,
          "velocity": 0.6299212598425197,
          "duration": 0.16666649999999983
        },
        {
          "name": "G2",
          "midi": 43,
          "time": 4.814809999999998,
          "velocity": 0.6299212598425197,
          "duration": 0.16666649999999983
        },
        {
          "name": "G2",
          "midi": 43,
          "time": 4.9999949999999975,
          "velocity": 0.6299212598425197,
          "duration": 0.16666649999999983
        },
        {
          "name": "G1",
          "midi": 31,
          "time": 4.9999949999999975,
          "velocity": 0.6299212598425197,
          "duration": 0.16666649999999983
        },
        {
          "name": "G1",
          "midi": 31,
          "time": 5.185179999999997,
          "velocity": 0.6299212598425197,
          "duration": 0.33333299999999966
        },
        {
          "name": "G2",
          "midi": 43,
          "time": 5.185179999999997,
          "velocity": 0.6299212598425197,
          "duration": 0.33333299999999966
        },
        {
          "name": "A1",
          "midi": 33,
          "time": 5.555549999999997,
          "velocity": 0.6299212598425197,
          "duration": 0.33333299999999966
        },
        {
          "name": "A2",
          "midi": 45,
          "time": 5.555549999999997,
          "velocity": 0.6299212598425197,
          "duration": 0.33333299999999966
        },
        {
          "name": "B2",
          "midi": 47,
          "time": 5.925919999999996,
          "velocity": 0.6299212598425197,
          "duration": 0.16666649999999983
        },
        {
          "name": "B1",
          "midi": 35,
          "time": 5.925919999999996,
          "velocity": 0.6299212598425197,
          "duration": 0.16666649999999983
        },
        {
          "name": "B1",
          "midi": 35,
          "time": 6.111104999999996,
          "velocity": 0.6299212598425197,
          "duration": 0.16666649999999983
        },
        {
          "name": "B2",
          "midi": 47,
          "time": 6.111104999999996,
          "velocity": 0.6299212598425197,
          "duration": 0.16666649999999983
        },
        {
          "name": "A3",
          "midi": 57,
          "time": 6.2962899999999955,
          "velocity": 0.6299212598425197,
          "duration": 0.16666649999999983
        },
        {
          "name": "A2",
          "midi": 45,
          "time": 6.2962899999999955,
          "velocity": 0.6299212598425197,
          "duration": 0.16666649999999983
        },
        {
          "name": "B2",
          "midi": 47,
          "time": 6.481474999999995,
          "velocity": 0.6299212598425197,
          "duration": 0.16666649999999983
        },
        {
          "name": "B1",
          "midi": 35,
          "time": 6.481474999999995,
          "velocity": 0.6299212598425197,
          "duration": 0.16666649999999983
        },
        {
          "name": "B3",
          "midi": 59,
          "time": 6.666659999999995,
          "velocity": 0.6299212598425197,
          "duration": 0.16666649999999983
        },
        {
          "name": "B2",
          "midi": 47,
          "time": 6.666659999999995,
          "velocity": 0.6299212598425197,
          "duration": 0.16666649999999983
        },
        {
          "name": "B2",
          "midi": 47,
          "time": 6.851844999999995,
          "velocity": 0.6299212598425197,
          "duration": 0.16666649999999983
        },
        {
          "name": "B1",
          "midi": 35,
          "time": 6.851844999999995,
          "velocity": 0.6299212598425197,
          "duration": 0.16666649999999983
        },
        {
          "name": "B1",
          "midi": 35,
          "time": 7.037029999999994,
          "velocity": 0.6299212598425197,
          "duration": 0.16666649999999983
        },
        {
          "name": "B2",
          "midi": 47,
          "time": 7.037029999999994,
          "velocity": 0.6299212598425197,
          "duration": 0.16666649999999983
        },
        {
          "name": "A2",
          "midi": 45,
          "time": 7.222214999999994,
          "velocity": 0.6299212598425197,
          "duration": 0.16666649999999983
        },
        {
          "name": "A3",
          "midi": 57,
          "time": 7.222214999999994,
          "velocity": 0.6299212598425197,
          "duration": 0.16666649999999983
        },
        {
          "name": "B2",
          "midi": 47,
          "time": 7.407399999999994,
          "velocity": 0.6299212598425197,
          "duration": 0.16666649999999983
        },
        {
          "name": "B1",
          "midi": 35,
          "time": 7.407399999999994,
          "velocity": 0.6299212598425197,
          "duration": 0.16666649999999983
        },
        {
          "name": "B3",
          "midi": 59,
          "time": 7.5925849999999935,
          "velocity": 0.6299212598425197,
          "duration": 0.16666649999999983
        },
        {
          "name": "B2",
          "midi": 47,
          "time": 7.5925849999999935,
          "velocity": 0.6299212598425197,
          "duration": 0.16666649999999983
        },
        {
          "name": "B1",
          "midi": 35,
          "time": 7.777769999999993,
          "velocity": 0.6299212598425197,
          "duration": 0.16666649999999983
        },
        {
          "name": "B2",
          "midi": 47,
          "time": 7.777769999999993,
          "velocity": 0.6299212598425197,
          "duration": 0.16666649999999983
        },
        {
          "name": "B1",
          "midi": 35,
          "time": 7.962954999999993,
          "velocity": 0.6299212598425197,
          "duration": 0.16666650000000072
        },
        {
          "name": "B2",
          "midi": 47,
          "time": 7.962954999999993,
          "velocity": 0.6299212598425197,
          "duration": 0.16666650000000072
        },
        {
          "name": "B1",
          "midi": 35,
          "time": 8.148139999999994,
          "velocity": 0.6299212598425197,
          "duration": 0.33333299999999966
        },
        {
          "name": "B2",
          "midi": 47,
          "time": 8.148139999999994,
          "velocity": 0.6299212598425197,
          "duration": 0.33333299999999966
        },
        {
          "name": "A2",
          "midi": 45,
          "time": 8.518509999999994,
          "velocity": 0.6299212598425197,
          "duration": 0.16666649999999983
        },
        {
          "name": "A1",
          "midi": 33,
          "time": 8.518509999999994,
          "velocity": 0.6299212598425197,
          "duration": 0.16666649999999983
        },
        {
          "name": "G1",
          "midi": 31,
          "time": 8.703694999999994,
          "velocity": 0.6299212598425197,
          "duration": 0.35185150000000043
        },
        {
          "name": "G2",
          "midi": 43,
          "time": 8.703694999999994,
          "velocity": 0.6299212598425197,
          "duration": 0.35185150000000043
        },
        {
          "name": "G1",
          "midi": 31,
          "time": 9.074064999999996,
          "velocity": 0.6299212598425197,
          "duration": 0.16666649999999983
        },
        {
          "name": "G2",
          "midi": 43,
          "time": 9.074064999999996,
          "velocity": 0.6299212598425197,
          "duration": 0.16666649999999983
        },
        {
          "name": "F#3",
          "midi": 54,
          "time": 9.259249999999996,
          "velocity": 0.6299212598425197,
          "duration": 0.16666649999999983
        },
        {
          "name": "F#2",
          "midi": 42,
          "time": 9.259249999999996,
          "velocity": 0.6299212598425197,
          "duration": 0.16666649999999983
        },
        {
          "name": "G2",
          "midi": 43,
          "time": 9.444434999999997,
          "velocity": 0.6299212598425197,
          "duration": 0.16666649999999983
        },
        {
          "name": "G1",
          "midi": 31,
          "time": 9.444434999999997,
          "velocity": 0.6299212598425197,
          "duration": 0.16666649999999983
        },
        {
          "name": "G3",
          "midi": 55,
          "time": 9.629619999999997,
          "velocity": 0.6299212598425197,
          "duration": 0.16666649999999983
        },
        {
          "name": "G2",
          "midi": 43,
          "time": 9.629619999999997,
          "velocity": 0.6299212598425197,
          "duration": 0.16666649999999983
        },
        {
          "name": "G1",
          "midi": 31,
          "time": 9.814804999999998,
          "velocity": 0.6299212598425197,
          "duration": 0.16666649999999983
        },
        {
          "name": "G2",
          "midi": 43,
          "time": 9.814804999999998,
          "velocity": 0.6299212598425197,
          "duration": 0.16666649999999983
        },
        {
          "name": "G1",
          "midi": 31,
          "time": 9.999989999999999,
          "velocity": 0.6299212598425197,
          "duration": 0.16666649999999983
        },
        {
          "name": "G2",
          "midi": 43,
          "time": 9.999989999999999,
          "velocity": 0.6299212598425197,
          "duration": 0.16666649999999983
        },
        {
          "name": "A2",
          "midi": 45,
          "time": 10.185175,
          "velocity": 0.6299212598425197,
          "duration": 0.16666649999999983
        },
        {
          "name": "A3",
          "midi": 57,
          "time": 10.185175,
          "velocity": 0.6299212598425197,
          "duration": 0.16666649999999983
        },
        {
          "name": "G2",
          "midi": 43,
          "time": 10.37036,
          "velocity": 0.6299212598425197,
          "duration": 0.16666649999999983
        },
        {
          "name": "G1",
          "midi": 31,
          "time": 10.37036,
          "velocity": 0.6299212598425197,
          "duration": 0.16666649999999983
        },
        {
          "name": "G2",
          "midi": 43,
          "time": 10.555545,
          "velocity": 0.6299212598425197,
          "duration": 0.16666649999999983
        },
        {
          "name": "G3",
          "midi": 55,
          "time": 10.555545,
          "velocity": 0.6299212598425197,
          "duration": 0.16666649999999983
        },
        {
          "name": "G2",
          "midi": 43,
          "time": 10.740730000000001,
          "velocity": 0.6299212598425197,
          "duration": 0.16666649999999983
        },
        {
          "name": "G1",
          "midi": 31,
          "time": 10.740730000000001,
          "velocity": 0.6299212598425197,
          "duration": 0.16666649999999983
        },
        {
          "name": "G2",
          "midi": 43,
          "time": 10.925915000000002,
          "velocity": 0.6299212598425197,
          "duration": 0.16666649999999983
        },
        {
          "name": "G1",
          "midi": 31,
          "time": 10.925915000000002,
          "velocity": 0.6299212598425197,
          "duration": 0.16666649999999983
        },
        {
          "name": "G1",
          "midi": 31,
          "time": 11.111100000000002,
          "velocity": 0.6299212598425197,
          "duration": 0.33333299999999966
        },
        {
          "name": "G2",
          "midi": 43,
          "time": 11.111100000000002,
          "velocity": 0.6299212598425197,
          "duration": 0.33333299999999966
        },
        {
          "name": "A2",
          "midi": 45,
          "time": 11.481470000000002,
          "velocity": 0.6299212598425197,
          "duration": 0.33333299999999966
        },
        {
          "name": "A1",
          "midi": 33,
          "time": 11.481470000000002,
          "velocity": 0.6299212598425197,
          "duration": 0.33333299999999966
        },
        {
          "name": "B2",
          "midi": 47,
          "time": 11.851840000000001,
          "velocity": 0.6299212598425197,
          "duration": 0.6944437499999996
        },
        {
          "name": "B1",
          "midi": 35,
          "time": 11.851840000000001,
          "velocity": 0.6299212598425197,
          "duration": 0.6944437499999996
        },
        {
          "name": "B1",
          "midi": 35,
          "time": 12.59258,
          "velocity": 0.6299212598425197,
          "duration": 0.14814800000000083
        },
        {
          "name": "B2",
          "midi": 47,
          "time": 12.59258,
          "velocity": 0.6299212598425197,
          "duration": 0.14814800000000083
        },
        {
          "name": "B2",
          "midi": 47,
          "time": 12.777765,
          "velocity": 0.6299212598425197,
          "duration": 0.14814800000000083
        },
        {
          "name": "B1",
          "midi": 35,
          "time": 12.777765,
          "velocity": 0.6299212598425197,
          "duration": 0.14814800000000083
        },
        {
          "name": "B2",
          "midi": 47,
          "time": 12.962950000000001,
          "velocity": 0.6299212598425197,
          "duration": 0.14814800000000083
        },
        {
          "name": "B1",
          "midi": 35,
          "time": 12.962950000000001,
          "velocity": 0.6299212598425197,
          "duration": 0.14814800000000083
        },
        {
          "name": "B1",
          "midi": 35,
          "time": 13.148135000000002,
          "velocity": 0.6299212598425197,
          "duration": 0.7037030000000009
        },
        {
          "name": "B2",
          "midi": 47,
          "time": 13.148135000000002,
          "velocity": 0.6299212598425197,
          "duration": 0.7037030000000009
        },
        {
          "name": "E3",
          "midi": 52,
          "time": 13.888875000000002,
          "velocity": 0.6299212598425197,
          "duration": 0.2962959999999999
        },
        {
          "name": "E2",
          "midi": 40,
          "time": 13.888875000000002,
          "velocity": 0.6299212598425197,
          "duration": 0.2962959999999999
        },
        {
          "name": "D2",
          "midi": 38,
          "time": 14.259245000000002,
          "velocity": 0.6299212598425197,
          "duration": 0.14814800000000083
        },
        {
          "name": "D3",
          "midi": 50,
          "time": 14.259245000000002,
          "velocity": 0.6299212598425197,
          "duration": 0.14814800000000083
        },
        {
          "name": "C#2",
          "midi": 37,
          "time": 14.444430000000002,
          "velocity": 0.6299212598425197,
          "duration": 0.14814800000000083
        },
        {
          "name": "C#3",
          "midi": 49,
          "time": 14.444430000000002,
          "velocity": 0.6299212598425197,
          "duration": 0.14814800000000083
        },
        {
          "name": "B2",
          "midi": 47,
          "time": 14.629615000000003,
          "velocity": 0.6299212598425197,
          "duration": 0.35956754166666727
        },
        {
          "name": "B1",
          "midi": 35,
          "time": 14.629615000000003,
          "velocity": 0.6299212598425197,
          "duration": 0.35956754166666727
        },
        {
          "name": "B1",
          "midi": 35,
          "time": 14.999985000000004,
          "velocity": 0.6299212598425197,
          "duration": 0.14814800000000083
        },
        {
          "name": "B2",
          "midi": 47,
          "time": 14.999985000000004,
          "velocity": 0.6299212598425197,
          "duration": 0.14814800000000083
        },
        {
          "name": "A2",
          "midi": 45,
          "time": 15.185170000000005,
          "velocity": 0.6299212598425197,
          "duration": 0.14814800000000083
        },
        {
          "name": "B1",
          "midi": 35,
          "time": 15.185170000000005,
          "velocity": 0.6299212598425197,
          "duration": 0.14814800000000083
        },
        {
          "name": "B2",
          "midi": 47,
          "time": 15.370355000000005,
          "velocity": 0.6299212598425197,
          "duration": 0.5185180000000003
        },
        {
          "name": "B1",
          "midi": 35,
          "time": 15.370355000000005,
          "velocity": 0.6299212598425197,
          "duration": 0.5185180000000003
        },
        {
          "name": "D2",
          "midi": 38,
          "time": 15.925910000000005,
          "velocity": 0.6299212598425197,
          "duration": 0.14814799999999906
        },
        {
          "name": "D3",
          "midi": 50,
          "time": 15.925910000000005,
          "velocity": 0.6299212598425197,
          "duration": 0.14814799999999906
        },
        {
          "name": "C#3",
          "midi": 49,
          "time": 16.111095000000006,
          "velocity": 0.6299212598425197,
          "duration": 0.5324068749999995
        },
        {
          "name": "C#2",
          "midi": 37,
          "time": 16.111095000000006,
          "velocity": 0.6299212598425197,
          "duration": 0.5324068749999995
        },
        {
          "name": "E3",
          "midi": 52,
          "time": 16.666650000000004,
          "velocity": 0.6299212598425197,
          "duration": 0.14814799999999906
        },
        {
          "name": "E2",
          "midi": 40,
          "time": 16.666650000000004,
          "velocity": 0.6299212598425197,
          "duration": 0.14814799999999906
        },
        {
          "name": "D3",
          "midi": 50,
          "time": 16.851835000000005,
          "velocity": 0.6299212598425197,
          "duration": 0.3472218749999989
        },
        {
          "name": "D2",
          "midi": 38,
          "time": 16.851835000000005,
          "velocity": 0.6299212598425197,
          "duration": 0.3472218749999989
        },
        {
          "name": "C#2",
          "midi": 37,
          "time": 17.222205000000002,
          "velocity": 0.6299212598425197,
          "duration": 0.14814799999999906
        },
        {
          "name": "C#3",
          "midi": 49,
          "time": 17.222205000000002,
          "velocity": 0.6299212598425197,
          "duration": 0.14814799999999906
        },
        {
          "name": "D2",
          "midi": 38,
          "time": 17.407390000000003,
          "velocity": 0.6299212598425197,
          "duration": 0.14814799999999906
        },
        {
          "name": "D3",
          "midi": 50,
          "time": 17.407390000000003,
          "velocity": 0.6299212598425197,
          "duration": 0.14814799999999906
        },
        {
          "name": "G1",
          "midi": 31,
          "time": 17.592575000000004,
          "velocity": 0.6299212598425197,
          "duration": 1.0740729999999985
        },
        {
          "name": "G2",
          "midi": 43,
          "time": 17.592575000000004,
          "velocity": 0.6299212598425197,
          "duration": 1.0740729999999985
        },
        {
          "name": "D3",
          "midi": 50,
          "time": 18.88887,
          "velocity": 0.6299212598425197,
          "duration": 0.14814799999999906
        },
        {
          "name": "D2",
          "midi": 38,
          "time": 18.88887,
          "velocity": 0.6299212598425197,
          "duration": 0.14814799999999906
        },
        {
          "name": "C#3",
          "midi": 49,
          "time": 19.074055,
          "velocity": 0.6299212598425197,
          "duration": 0.5324068749999995
        },
        {
          "name": "C#2",
          "midi": 37,
          "time": 19.074055,
          "velocity": 0.6299212598425197,
          "duration": 0.5324068749999995
        },
        {
          "name": "D3",
          "midi": 50,
          "time": 19.62961,
          "velocity": 0.6299212598425197,
          "duration": 0.14814799999999906
        },
        {
          "name": "D2",
          "midi": 38,
          "time": 19.62961,
          "velocity": 0.6299212598425197,
          "duration": 0.14814799999999906
        },
        {
          "name": "C#3",
          "midi": 49,
          "time": 19.814795,
          "velocity": 0.6299212598425197,
          "duration": 0.4444440000000007
        },
        {
          "name": "C#2",
          "midi": 37,
          "time": 19.814795,
          "velocity": 0.6299212598425197,
          "duration": 0.4444440000000007
        },
        {
          "name": "A2",
          "midi": 45,
          "time": 20.370350000000002,
          "velocity": 0.6299212598425197,
          "duration": 0.29629600000000167
        },
        {
          "name": "A1",
          "midi": 33,
          "time": 20.370350000000002,
          "velocity": 0.6299212598425197,
          "duration": 0.29629600000000167
        },
        {
          "name": "B2",
          "midi": 47,
          "time": 20.740720000000003,
          "velocity": 0.6299212598425197,
          "duration": 0.14814799999999906
        },
        {
          "name": "B1",
          "midi": 35,
          "time": 20.740720000000003,
          "velocity": 0.6299212598425197,
          "duration": 0.14814799999999906
        },
        {
          "name": "B1",
          "midi": 35,
          "time": 20.925905000000004,
          "velocity": 0.6299212598425197,
          "duration": 0.14814799999999906
        },
        {
          "name": "B2",
          "midi": 47,
          "time": 20.925905000000004,
          "velocity": 0.6299212598425197,
          "duration": 0.14814799999999906
        },
        {
          "name": "A2",
          "midi": 45,
          "time": 21.111090000000004,
          "velocity": 0.6299212598425197,
          "duration": 0.14814799999999906
        },
        {
          "name": "A1",
          "midi": 33,
          "time": 21.111090000000004,
          "velocity": 0.6299212598425197,
          "duration": 0.14814799999999906
        },
        {
          "name": "B1",
          "midi": 35,
          "time": 21.296275000000005,
          "velocity": 0.6299212598425197,
          "duration": 0.4444440000000007
        },
        {
          "name": "B2",
          "midi": 47,
          "time": 21.296275000000005,
          "velocity": 0.6299212598425197,
          "duration": 0.4444440000000007
        },
        {
          "name": "D3",
          "midi": 50,
          "time": 21.851830000000007,
          "velocity": 0.6299212598425197,
          "duration": 0.14814799999999906
        },
        {
          "name": "D2",
          "midi": 38,
          "time": 21.851830000000007,
          "velocity": 0.6299212598425197,
          "duration": 0.14814799999999906
        },
        {
          "name": "C#3",
          "midi": 49,
          "time": 22.037015000000007,
          "velocity": 0.6299212598425197,
          "duration": 0.4814809999999987
        },
        {
          "name": "C#2",
          "midi": 37,
          "time": 22.037015000000007,
          "velocity": 0.6299212598425197,
          "duration": 0.4814809999999987
        },
        {
          "name": "E3",
          "midi": 52,
          "time": 22.592570000000006,
          "velocity": 0.6299212598425197,
          "duration": 0.14814799999999906
        },
        {
          "name": "E2",
          "midi": 40,
          "time": 22.592570000000006,
          "velocity": 0.6299212598425197,
          "duration": 0.14814799999999906
        },
        {
          "name": "D3",
          "midi": 50,
          "time": 22.777755000000006,
          "velocity": 0.6299212598425197,
          "duration": 0.4444440000000007
        },
        {
          "name": "D2",
          "midi": 38,
          "time": 22.777755000000006,
          "velocity": 0.6299212598425197,
          "duration": 0.4444440000000007
        },
        {
          "name": "D2",
          "midi": 38,
          "time": 23.333310000000008,
          "velocity": 0.6299212598425197,
          "duration": 0.14814799999999906
        },
        {
          "name": "D3",
          "midi": 50,
          "time": 23.333310000000008,
          "velocity": 0.6299212598425197,
          "duration": 0.14814799999999906
        },
        {
          "name": "G2",
          "midi": 43,
          "time": 23.51849500000001,
          "velocity": 0.6299212598425197,
          "duration": 1.2222210000000011
        },
        {
          "name": "G1",
          "midi": 31,
          "time": 23.51849500000001,
          "velocity": 0.6299212598425197,
          "duration": 1.2222210000000011
        },
        {
          "name": "D3",
          "midi": 50,
          "time": 24.81479000000001,
          "velocity": 0.6299212598425197,
          "duration": 0.14814799999999906
        },
        {
          "name": "D2",
          "midi": 38,
          "time": 24.81479000000001,
          "velocity": 0.6299212598425197,
          "duration": 0.14814799999999906
        },
        {
          "name": "C#3",
          "midi": 49,
          "time": 24.99997500000001,
          "velocity": 0.6299212598425197,
          "duration": 0.4814809999999987
        },
        {
          "name": "C#2",
          "midi": 37,
          "time": 24.99997500000001,
          "velocity": 0.6299212598425197,
          "duration": 0.4814809999999987
        },
        {
          "name": "D3",
          "midi": 50,
          "time": 25.555530000000008,
          "velocity": 0.6299212598425197,
          "duration": 0.14814799999999906
        },
        {
          "name": "D2",
          "midi": 38,
          "time": 25.555530000000008,
          "velocity": 0.6299212598425197,
          "duration": 0.14814799999999906
        },
        {
          "name": "C#2",
          "midi": 37,
          "time": 25.74071500000001,
          "velocity": 0.6299212598425197,
          "duration": 0.4444440000000007
        },
        {
          "name": "C#3",
          "midi": 49,
          "time": 25.74071500000001,
          "velocity": 0.6299212598425197,
          "duration": 0.4444440000000007
        },
        {
          "name": "A1",
          "midi": 33,
          "time": 26.29627000000001,
          "velocity": 0.6299212598425197,
          "duration": 0.29629600000000167
        },
        {
          "name": "A2",
          "midi": 45,
          "time": 26.29627000000001,
          "velocity": 0.6299212598425197,
          "duration": 0.29629600000000167
        },
        {
          "name": "D2",
          "midi": 38,
          "time": 31.759227500000012,
          "velocity": 0.6299212598425197,
          "duration": 0.07407399999999953
        },
        {
          "name": "D3",
          "midi": 50,
          "time": 31.759227500000012,
          "velocity": 0.6299212598425197,
          "duration": 0.07407399999999953
        },
        {
          "name": "E3",
          "midi": 52,
          "time": 31.944412500000013,
          "velocity": 0.6299212598425197,
          "duration": 0.07407400000000308
        },
        {
          "name": "E2",
          "midi": 40,
          "time": 31.944412500000013,
          "velocity": 0.6299212598425197,
          "duration": 0.07407400000000308
        },
        {
          "name": "D3",
          "midi": 50,
          "time": 32.12959750000002,
          "velocity": 0.6299212598425197,
          "duration": 0.07407400000000308
        },
        {
          "name": "D2",
          "midi": 38,
          "time": 32.12959750000002,
          "velocity": 0.6299212598425197,
          "duration": 0.07407400000000308
        },
        {
          "name": "D2",
          "midi": 38,
          "time": 32.31478250000002,
          "velocity": 0.6299212598425197,
          "duration": 0.07407400000000308
        },
        {
          "name": "D3",
          "midi": 50,
          "time": 32.31478250000002,
          "velocity": 0.6299212598425197,
          "duration": 0.07407400000000308
        },
        {
          "name": "C#3",
          "midi": 49,
          "time": 32.40737500000002,
          "velocity": 0.6299212598425197,
          "duration": 0.07407400000000308
        },
        {
          "name": "C#2",
          "midi": 37,
          "time": 32.40737500000002,
          "velocity": 0.6299212598425197,
          "duration": 0.07407400000000308
        },
        {
          "name": "A1",
          "midi": 33,
          "time": 32.499967500000025,
          "velocity": 0.6299212598425197,
          "duration": 0.07407400000000308
        },
        {
          "name": "A2",
          "midi": 45,
          "time": 32.499967500000025,
          "velocity": 0.6299212598425197,
          "duration": 0.07407400000000308
        },
        {
          "name": "B2",
          "midi": 47,
          "time": 32.59256000000003,
          "velocity": 0.6299212598425197,
          "duration": 0.16666649999999805
        },
        {
          "name": "B1",
          "midi": 35,
          "time": 32.59256000000003,
          "velocity": 0.6299212598425197,
          "duration": 0.16666649999999805
        },
        {
          "name": "B1",
          "midi": 35,
          "time": 32.777745000000024,
          "velocity": 0.6299212598425197,
          "duration": 0.16666649999999805
        },
        {
          "name": "B2",
          "midi": 47,
          "time": 32.777745000000024,
          "velocity": 0.6299212598425197,
          "duration": 0.16666649999999805
        },
        {
          "name": "A3",
          "midi": 57,
          "time": 32.96293000000002,
          "velocity": 0.6299212598425197,
          "duration": 0.16666649999999805
        },
        {
          "name": "A2",
          "midi": 45,
          "time": 32.96293000000002,
          "velocity": 0.6299212598425197,
          "duration": 0.16666649999999805
        },
        {
          "name": "B1",
          "midi": 35,
          "time": 33.14811500000002,
          "velocity": 0.6299212598425197,
          "duration": 0.16666649999999805
        },
        {
          "name": "B2",
          "midi": 47,
          "time": 33.14811500000002,
          "velocity": 0.6299212598425197,
          "duration": 0.16666649999999805
        },
        {
          "name": "B2",
          "midi": 47,
          "time": 33.333300000000015,
          "velocity": 0.6299212598425197,
          "duration": 0.16666649999999805
        },
        {
          "name": "B3",
          "midi": 59,
          "time": 33.333300000000015,
          "velocity": 0.6299212598425197,
          "duration": 0.16666649999999805
        },
        {
          "name": "B2",
          "midi": 47,
          "time": 33.51848500000001,
          "velocity": 0.6299212598425197,
          "duration": 0.16666649999999805
        },
        {
          "name": "B1",
          "midi": 35,
          "time": 33.51848500000001,
          "velocity": 0.6299212598425197,
          "duration": 0.16666649999999805
        },
        {
          "name": "B1",
          "midi": 35,
          "time": 33.70367000000001,
          "velocity": 0.6299212598425197,
          "duration": 0.16666649999999805
        },
        {
          "name": "B2",
          "midi": 47,
          "time": 33.70367000000001,
          "velocity": 0.6299212598425197,
          "duration": 0.16666649999999805
        },
        {
          "name": "A2",
          "midi": 45,
          "time": 33.88885500000001,
          "velocity": 0.6299212598425197,
          "duration": 0.16666649999999805
        },
        {
          "name": "A3",
          "midi": 57,
          "time": 33.88885500000001,
          "velocity": 0.6299212598425197,
          "duration": 0.16666649999999805
        },
        {
          "name": "B2",
          "midi": 47,
          "time": 34.074040000000004,
          "velocity": 0.6299212598425197,
          "duration": 0.16666649999999805
        },
        {
          "name": "B1",
          "midi": 35,
          "time": 34.074040000000004,
          "velocity": 0.6299212598425197,
          "duration": 0.16666649999999805
        },
        {
          "name": "B3",
          "midi": 59,
          "time": 34.259225,
          "velocity": 0.6299212598425197,
          "duration": 0.16666649999999805
        },
        {
          "name": "B2",
          "midi": 47,
          "time": 34.259225,
          "velocity": 0.6299212598425197,
          "duration": 0.16666649999999805
        },
        {
          "name": "B1",
          "midi": 35,
          "time": 34.44441,
          "velocity": 0.6299212598425197,
          "duration": 0.16666649999999805
        },
        {
          "name": "B2",
          "midi": 47,
          "time": 34.44441,
          "velocity": 0.6299212598425197,
          "duration": 0.16666649999999805
        },
        {
          "name": "B1",
          "midi": 35,
          "time": 34.629594999999995,
          "velocity": 0.6299212598425197,
          "duration": 0.16666649999999805
        },
        {
          "name": "B2",
          "midi": 47,
          "time": 34.629594999999995,
          "velocity": 0.6299212598425197,
          "duration": 0.16666649999999805
        },
        {
          "name": "B1",
          "midi": 35,
          "time": 34.81477999999999,
          "velocity": 0.6299212598425197,
          "duration": 0.3333330000000032
        },
        {
          "name": "B2",
          "midi": 47,
          "time": 34.81477999999999,
          "velocity": 0.6299212598425197,
          "duration": 0.3333330000000032
        },
        {
          "name": "A2",
          "midi": 45,
          "time": 35.18514999999999,
          "velocity": 0.6299212598425197,
          "duration": 0.16666649999999805
        },
        {
          "name": "A1",
          "midi": 33,
          "time": 35.18514999999999,
          "velocity": 0.6299212598425197,
          "duration": 0.16666649999999805
        },
        {
          "name": "G2",
          "midi": 43,
          "time": 35.37033499999999,
          "velocity": 0.6299212598425197,
          "duration": 0.3518515000000022
        },
        {
          "name": "G1",
          "midi": 31,
          "time": 35.37033499999999,
          "velocity": 0.6299212598425197,
          "duration": 0.3518515000000022
        },
        {
          "name": "G2",
          "midi": 43,
          "time": 35.74070499999999,
          "velocity": 0.6299212598425197,
          "duration": 0.16666649999999805
        },
        {
          "name": "G1",
          "midi": 31,
          "time": 35.74070499999999,
          "velocity": 0.6299212598425197,
          "duration": 0.16666649999999805
        },
        {
          "name": "F#3",
          "midi": 54,
          "time": 35.92588999999999,
          "velocity": 0.6299212598425197,
          "duration": 0.16666649999999805
        },
        {
          "name": "F#2",
          "midi": 42,
          "time": 35.92588999999999,
          "velocity": 0.6299212598425197,
          "duration": 0.16666649999999805
        },
        {
          "name": "G2",
          "midi": 43,
          "time": 36.111074999999985,
          "velocity": 0.6299212598425197,
          "duration": 0.16666649999999805
        },
        {
          "name": "G1",
          "midi": 31,
          "time": 36.111074999999985,
          "velocity": 0.6299212598425197,
          "duration": 0.16666649999999805
        },
        {
          "name": "G2",
          "midi": 43,
          "time": 36.29625999999998,
          "velocity": 0.6299212598425197,
          "duration": 0.16666649999999805
        },
        {
          "name": "G3",
          "midi": 55,
          "time": 36.29625999999998,
          "velocity": 0.6299212598425197,
          "duration": 0.16666649999999805
        },
        {
          "name": "G2",
          "midi": 43,
          "time": 36.48144499999998,
          "velocity": 0.6299212598425197,
          "duration": 0.16666649999999805
        },
        {
          "name": "G1",
          "midi": 31,
          "time": 36.48144499999998,
          "velocity": 0.6299212598425197,
          "duration": 0.16666649999999805
        },
        {
          "name": "G2",
          "midi": 43,
          "time": 36.66662999999998,
          "velocity": 0.6299212598425197,
          "duration": 0.16666649999999805
        },
        {
          "name": "G1",
          "midi": 31,
          "time": 36.66662999999998,
          "velocity": 0.6299212598425197,
          "duration": 0.16666649999999805
        },
        {
          "name": "A3",
          "midi": 57,
          "time": 36.851814999999974,
          "velocity": 0.6299212598425197,
          "duration": 0.16666649999999805
        },
        {
          "name": "A2",
          "midi": 45,
          "time": 36.851814999999974,
          "velocity": 0.6299212598425197,
          "duration": 0.16666649999999805
        },
        {
          "name": "G2",
          "midi": 43,
          "time": 37.03699999999997,
          "velocity": 0.6299212598425197,
          "duration": 0.16666649999999805
        },
        {
          "name": "G1",
          "midi": 31,
          "time": 37.03699999999997,
          "velocity": 0.6299212598425197,
          "duration": 0.16666649999999805
        },
        {
          "name": "G2",
          "midi": 43,
          "time": 37.22218499999997,
          "velocity": 0.6299212598425197,
          "duration": 0.16666649999999805
        },
        {
          "name": "G3",
          "midi": 55,
          "time": 37.22218499999997,
          "velocity": 0.6299212598425197,
          "duration": 0.16666649999999805
        },
        {
          "name": "G1",
          "midi": 31,
          "time": 37.407369999999965,
          "velocity": 0.6299212598425197,
          "duration": 0.16666649999999805
        },
        {
          "name": "G2",
          "midi": 43,
          "time": 37.407369999999965,
          "velocity": 0.6299212598425197,
          "duration": 0.16666649999999805
        },
        {
          "name": "G1",
          "midi": 31,
          "time": 37.59255499999996,
          "velocity": 0.6299212598425197,
          "duration": 0.16666649999999805
        },
        {
          "name": "G2",
          "midi": 43,
          "time": 37.59255499999996,
          "velocity": 0.6299212598425197,
          "duration": 0.16666649999999805
        },
        {
          "name": "G2",
          "midi": 43,
          "time": 37.77773999999996,
          "velocity": 0.6299212598425197,
          "duration": 0.3333330000000032
        },
        {
          "name": "G1",
          "midi": 31,
          "time": 37.77773999999996,
          "velocity": 0.6299212598425197,
          "duration": 0.3333330000000032
        },
        {
          "name": "A2",
          "midi": 45,
          "time": 38.14810999999996,
          "velocity": 0.6299212598425197,
          "duration": 0.3333330000000032
        },
        {
          "name": "A1",
          "midi": 33,
          "time": 38.14810999999996,
          "velocity": 0.6299212598425197,
          "duration": 0.3333330000000032
        },
        {
          "name": "B2",
          "midi": 47,
          "time": 38.51847999999996,
          "velocity": 0.6299212598425197,
          "duration": 0.16666649999999805
        },
        {
          "name": "B1",
          "midi": 35,
          "time": 38.51847999999996,
          "velocity": 0.6299212598425197,
          "duration": 0.16666649999999805
        },
        {
          "name": "B1",
          "midi": 35,
          "time": 38.70366499999996,
          "velocity": 0.6299212598425197,
          "duration": 0.16666649999999805
        },
        {
          "name": "B2",
          "midi": 47,
          "time": 38.70366499999996,
          "velocity": 0.6299212598425197,
          "duration": 0.16666649999999805
        },
        {
          "name": "A2",
          "midi": 45,
          "time": 38.888849999999955,
          "velocity": 0.6299212598425197,
          "duration": 0.16666649999999805
        },
        {
          "name": "A3",
          "midi": 57,
          "time": 38.888849999999955,
          "velocity": 0.6299212598425197,
          "duration": 0.16666649999999805
        },
        {
          "name": "B2",
          "midi": 47,
          "time": 39.07403499999995,
          "velocity": 0.6299212598425197,
          "duration": 0.16666649999999805
        },
        {
          "name": "B1",
          "midi": 35,
          "time": 39.07403499999995,
          "velocity": 0.6299212598425197,
          "duration": 0.16666649999999805
        },
        {
          "name": "B2",
          "midi": 47,
          "time": 39.25921999999995,
          "velocity": 0.6299212598425197,
          "duration": 0.16666649999999805
        },
        {
          "name": "B3",
          "midi": 59,
          "time": 39.25921999999995,
          "velocity": 0.6299212598425197,
          "duration": 0.16666649999999805
        },
        {
          "name": "B2",
          "midi": 47,
          "time": 39.444404999999946,
          "velocity": 0.6299212598425197,
          "duration": 0.16666649999999805
        },
        {
          "name": "B1",
          "midi": 35,
          "time": 39.444404999999946,
          "velocity": 0.6299212598425197,
          "duration": 0.16666649999999805
        },
        {
          "name": "B1",
          "midi": 35,
          "time": 39.62958999999994,
          "velocity": 0.6299212598425197,
          "duration": 0.16666649999999805
        },
        {
          "name": "B2",
          "midi": 47,
          "time": 39.62958999999994,
          "velocity": 0.6299212598425197,
          "duration": 0.16666649999999805
        },
        {
          "name": "A2",
          "midi": 45,
          "time": 39.81477499999994,
          "velocity": 0.6299212598425197,
          "duration": 0.16666649999999805
        },
        {
          "name": "A3",
          "midi": 57,
          "time": 39.81477499999994,
          "velocity": 0.6299212598425197,
          "duration": 0.16666649999999805
        },
        {
          "name": "B2",
          "midi": 47,
          "time": 39.99995999999994,
          "velocity": 0.6299212598425197,
          "duration": 0.16666649999999805
        },
        {
          "name": "B1",
          "midi": 35,
          "time": 39.99995999999994,
          "velocity": 0.6299212598425197,
          "duration": 0.16666649999999805
        },
        {
          "name": "B3",
          "midi": 59,
          "time": 40.185144999999935,
          "velocity": 0.6299212598425197,
          "duration": 0.16666649999999805
        },
        {
          "name": "B2",
          "midi": 47,
          "time": 40.185144999999935,
          "velocity": 0.6299212598425197,
          "duration": 0.16666649999999805
        },
        {
          "name": "B2",
          "midi": 47,
          "time": 40.37032999999993,
          "velocity": 0.6299212598425197,
          "duration": 0.16666649999999805
        },
        {
          "name": "B1",
          "midi": 35,
          "time": 40.37032999999993,
          "velocity": 0.6299212598425197,
          "duration": 0.16666649999999805
        },
        {
          "name": "B2",
          "midi": 47,
          "time": 40.55551499999993,
          "velocity": 0.6299212598425197,
          "duration": 0.16666649999999805
        },
        {
          "name": "B1",
          "midi": 35,
          "time": 40.55551499999993,
          "velocity": 0.6299212598425197,
          "duration": 0.16666649999999805
        },
        {
          "name": "B2",
          "midi": 47,
          "time": 40.740699999999926,
          "velocity": 0.6299212598425197,
          "duration": 0.3333330000000032
        },
        {
          "name": "B1",
          "midi": 35,
          "time": 40.740699999999926,
          "velocity": 0.6299212598425197,
          "duration": 0.3333330000000032
        },
        {
          "name": "A1",
          "midi": 33,
          "time": 41.11106999999993,
          "velocity": 0.6299212598425197,
          "duration": 0.16666649999999805
        },
        {
          "name": "A2",
          "midi": 45,
          "time": 41.11106999999993,
          "velocity": 0.6299212598425197,
          "duration": 0.16666649999999805
        },
        {
          "name": "G1",
          "midi": 31,
          "time": 41.296254999999924,
          "velocity": 0.6299212598425197,
          "duration": 0.3518515000000022
        },
        {
          "name": "G2",
          "midi": 43,
          "time": 41.296254999999924,
          "velocity": 0.6299212598425197,
          "duration": 0.3518515000000022
        },
        {
          "name": "G2",
          "midi": 43,
          "time": 41.666624999999925,
          "velocity": 0.6299212598425197,
          "duration": 0.16666649999999805
        },
        {
          "name": "G1",
          "midi": 31,
          "time": 41.666624999999925,
          "velocity": 0.6299212598425197,
          "duration": 0.16666649999999805
        },
        {
          "name": "F#3",
          "midi": 54,
          "time": 41.85180999999992,
          "velocity": 0.6299212598425197,
          "duration": 0.16666649999999805
        },
        {
          "name": "F#2",
          "midi": 42,
          "time": 41.85180999999992,
          "velocity": 0.6299212598425197,
          "duration": 0.16666649999999805
        },
        {
          "name": "G1",
          "midi": 31,
          "time": 42.03699499999992,
          "velocity": 0.6299212598425197,
          "duration": 0.16666649999999805
        },
        {
          "name": "G2",
          "midi": 43,
          "time": 42.03699499999992,
          "velocity": 0.6299212598425197,
          "duration": 0.16666649999999805
        },
        {
          "name": "G3",
          "midi": 55,
          "time": 42.222179999999916,
          "velocity": 0.6299212598425197,
          "duration": 0.16666649999999805
        },
        {
          "name": "G2",
          "midi": 43,
          "time": 42.222179999999916,
          "velocity": 0.6299212598425197,
          "duration": 0.16666649999999805
        },
        {
          "name": "G2",
          "midi": 43,
          "time": 42.40736499999991,
          "velocity": 0.6299212598425197,
          "duration": 0.16666649999999805
        },
        {
          "name": "G1",
          "midi": 31,
          "time": 42.40736499999991,
          "velocity": 0.6299212598425197,
          "duration": 0.16666649999999805
        },
        {
          "name": "G1",
          "midi": 31,
          "time": 42.59254999999991,
          "velocity": 0.6299212598425197,
          "duration": 0.16666649999999805
        },
        {
          "name": "G2",
          "midi": 43,
          "time": 42.59254999999991,
          "velocity": 0.6299212598425197,
          "duration": 0.16666649999999805
        },
        {
          "name": "A3",
          "midi": 57,
          "time": 42.77773499999991,
          "velocity": 0.6299212598425197,
          "duration": 0.16666649999999805
        },
        {
          "name": "A2",
          "midi": 45,
          "time": 42.77773499999991,
          "velocity": 0.6299212598425197,
          "duration": 0.16666649999999805
        },
        {
          "name": "G2",
          "midi": 43,
          "time": 42.962919999999905,
          "velocity": 0.6299212598425197,
          "duration": 0.16666649999999805
        },
        {
          "name": "G1",
          "midi": 31,
          "time": 42.962919999999905,
          "velocity": 0.6299212598425197,
          "duration": 0.16666649999999805
        },
        {
          "name": "G3",
          "midi": 55,
          "time": 43.1481049999999,
          "velocity": 0.6299212598425197,
          "duration": 0.16666649999999805
        },
        {
          "name": "G2",
          "midi": 43,
          "time": 43.1481049999999,
          "velocity": 0.6299212598425197,
          "duration": 0.16666649999999805
        },
        {
          "name": "G1",
          "midi": 31,
          "time": 43.3332899999999,
          "velocity": 0.6299212598425197,
          "duration": 0.16666649999999805
        },
        {
          "name": "G2",
          "midi": 43,
          "time": 43.3332899999999,
          "velocity": 0.6299212598425197,
          "duration": 0.16666649999999805
        },
        {
          "name": "G1",
          "midi": 31,
          "time": 43.518474999999896,
          "velocity": 0.6299212598425197,
          "duration": 0.16666649999999805
        },
        {
          "name": "G2",
          "midi": 43,
          "time": 43.518474999999896,
          "velocity": 0.6299212598425197,
          "duration": 0.16666649999999805
        },
        {
          "name": "G1",
          "midi": 31,
          "time": 43.70365999999989,
          "velocity": 0.6299212598425197,
          "duration": 0.3333330000000032
        },
        {
          "name": "G2",
          "midi": 43,
          "time": 43.70365999999989,
          "velocity": 0.6299212598425197,
          "duration": 0.3333330000000032
        },
        {
          "name": "A1",
          "midi": 33,
          "time": 44.074029999999894,
          "velocity": 0.6299212598425197,
          "duration": 0.3333330000000032
        },
        {
          "name": "A2",
          "midi": 45,
          "time": 44.074029999999894,
          "velocity": 0.6299212598425197,
          "duration": 0.3333330000000032
        },
        {
          "name": "B1",
          "midi": 35,
          "time": 44.444399999999895,
          "velocity": 0.6299212598425197,
          "duration": 0.16666649999999805
        },
        {
          "name": "B2",
          "midi": 47,
          "time": 44.444399999999895,
          "velocity": 0.6299212598425197,
          "duration": 0.16666649999999805
        },
        {
          "name": "B2",
          "midi": 47,
          "time": 44.62958499999989,
          "velocity": 0.6299212598425197,
          "duration": 0.16666649999999805
        },
        {
          "name": "B1",
          "midi": 35,
          "time": 44.62958499999989,
          "velocity": 0.6299212598425197,
          "duration": 0.16666649999999805
        },
        {
          "name": "A3",
          "midi": 57,
          "time": 44.81476999999989,
          "velocity": 0.6299212598425197,
          "duration": 0.16666649999999805
        },
        {
          "name": "A2",
          "midi": 45,
          "time": 44.81476999999989,
          "velocity": 0.6299212598425197,
          "duration": 0.16666649999999805
        },
        {
          "name": "B2",
          "midi": 47,
          "time": 44.999954999999886,
          "velocity": 0.6299212598425197,
          "duration": 0.16666649999999805
        },
        {
          "name": "B1",
          "midi": 35,
          "time": 44.999954999999886,
          "velocity": 0.6299212598425197,
          "duration": 0.16666649999999805
        },
        {
          "name": "B3",
          "midi": 59,
          "time": 45.18513999999988,
          "velocity": 0.6299212598425197,
          "duration": 0.16666649999999805
        },
        {
          "name": "B2",
          "midi": 47,
          "time": 45.18513999999988,
          "velocity": 0.6299212598425197,
          "duration": 0.16666649999999805
        },
        {
          "name": "B2",
          "midi": 47,
          "time": 45.37032499999988,
          "velocity": 0.6299212598425197,
          "duration": 0.16666649999999805
        },
        {
          "name": "B1",
          "midi": 35,
          "time": 45.37032499999988,
          "velocity": 0.6299212598425197,
          "duration": 0.16666649999999805
        },
        {
          "name": "B1",
          "midi": 35,
          "time": 45.55550999999988,
          "velocity": 0.6299212598425197,
          "duration": 0.16666649999999805
        },
        {
          "name": "B2",
          "midi": 47,
          "time": 45.55550999999988,
          "velocity": 0.6299212598425197,
          "duration": 0.16666649999999805
        },
        {
          "name": "A2",
          "midi": 45,
          "time": 45.740694999999874,
          "velocity": 0.6299212598425197,
          "duration": 0.16666649999999805
        },
        {
          "name": "A3",
          "midi": 57,
          "time": 45.740694999999874,
          "velocity": 0.6299212598425197,
          "duration": 0.16666649999999805
        },
        {
          "name": "B1",
          "midi": 35,
          "time": 45.92587999999987,
          "velocity": 0.6299212598425197,
          "duration": 0.16666649999999805
        },
        {
          "name": "B2",
          "midi": 47,
          "time": 45.92587999999987,
          "velocity": 0.6299212598425197,
          "duration": 0.16666649999999805
        },
        {
          "name": "B3",
          "midi": 59,
          "time": 46.11106499999987,
          "velocity": 0.6299212598425197,
          "duration": 0.16666649999999805
        },
        {
          "name": "B2",
          "midi": 47,
          "time": 46.11106499999987,
          "velocity": 0.6299212598425197,
          "duration": 0.16666649999999805
        },
        {
          "name": "B1",
          "midi": 35,
          "time": 46.296249999999866,
          "velocity": 0.6299212598425197,
          "duration": 0.16666649999999805
        },
        {
          "name": "B2",
          "midi": 47,
          "time": 46.296249999999866,
          "velocity": 0.6299212598425197,
          "duration": 0.16666649999999805
        },
        {
          "name": "B2",
          "midi": 47,
          "time": 46.48143499999986,
          "velocity": 0.6299212598425197,
          "duration": 0.16666649999999805
        },
        {
          "name": "B1",
          "midi": 35,
          "time": 46.48143499999986,
          "velocity": 0.6299212598425197,
          "duration": 0.16666649999999805
        },
        {
          "name": "B1",
          "midi": 35,
          "time": 46.66661999999986,
          "velocity": 0.6299212598425197,
          "duration": 0.3333330000000032
        },
        {
          "name": "B2",
          "midi": 47,
          "time": 46.66661999999986,
          "velocity": 0.6299212598425197,
          "duration": 0.3333330000000032
        },
        {
          "name": "A2",
          "midi": 45,
          "time": 47.03698999999986,
          "velocity": 0.6299212598425197,
          "duration": 0.16666649999999805
        },
        {
          "name": "A1",
          "midi": 33,
          "time": 47.03698999999986,
          "velocity": 0.6299212598425197,
          "duration": 0.16666649999999805
        },
        {
          "name": "G2",
          "midi": 43,
          "time": 47.22217499999986,
          "velocity": 0.6299212598425197,
          "duration": 0.3518515000000022
        },
        {
          "name": "G1",
          "midi": 31,
          "time": 47.22217499999986,
          "velocity": 0.6299212598425197,
          "duration": 0.3518515000000022
        },
        {
          "name": "G2",
          "midi": 43,
          "time": 47.59254499999986,
          "velocity": 0.6299212598425197,
          "duration": 0.16666649999999805
        },
        {
          "name": "G1",
          "midi": 31,
          "time": 47.59254499999986,
          "velocity": 0.6299212598425197,
          "duration": 0.16666649999999805
        },
        {
          "name": "F#3",
          "midi": 54,
          "time": 47.777729999999856,
          "velocity": 0.6299212598425197,
          "duration": 0.16666649999999805
        },
        {
          "name": "F#2",
          "midi": 42,
          "time": 47.777729999999856,
          "velocity": 0.6299212598425197,
          "duration": 0.16666649999999805
        },
        {
          "name": "G1",
          "midi": 31,
          "time": 47.96291499999985,
          "velocity": 0.6299212598425197,
          "duration": 0.16666649999999805
        },
        {
          "name": "G2",
          "midi": 43,
          "time": 47.96291499999985,
          "velocity": 0.6299212598425197,
          "duration": 0.16666649999999805
        },
        {
          "name": "G2",
          "midi": 43,
          "time": 48.14809999999985,
          "velocity": 0.6299212598425197,
          "duration": 0.16666649999999805
        },
        {
          "name": "G3",
          "midi": 55,
          "time": 48.14809999999985,
          "velocity": 0.6299212598425197,
          "duration": 0.16666649999999805
        },
        {
          "name": "G2",
          "midi": 43,
          "time": 48.33328499999985,
          "velocity": 0.6299212598425197,
          "duration": 0.16666649999999805
        },
        {
          "name": "G1",
          "midi": 31,
          "time": 48.33328499999985,
          "velocity": 0.6299212598425197,
          "duration": 0.16666649999999805
        },
        {
          "name": "G2",
          "midi": 43,
          "time": 48.518469999999844,
          "velocity": 0.6299212598425197,
          "duration": 0.16666649999999805
        },
        {
          "name": "G1",
          "midi": 31,
          "time": 48.518469999999844,
          "velocity": 0.6299212598425197,
          "duration": 0.16666649999999805
        },
        {
          "name": "A2",
          "midi": 45,
          "time": 48.70365499999984,
          "velocity": 0.6299212598425197,
          "duration": 0.16666649999999805
        },
        {
          "name": "A3",
          "midi": 57,
          "time": 48.70365499999984,
          "velocity": 0.6299212598425197,
          "duration": 0.16666649999999805
        },
        {
          "name": "G2",
          "midi": 43,
          "time": 48.88883999999984,
          "velocity": 0.6299212598425197,
          "duration": 0.16666649999999805
        },
        {
          "name": "G1",
          "midi": 31,
          "time": 48.88883999999984,
          "velocity": 0.6299212598425197,
          "duration": 0.16666649999999805
        },
        {
          "name": "G3",
          "midi": 55,
          "time": 49.074024999999835,
          "velocity": 0.6299212598425197,
          "duration": 0.16666649999999805
        },
        {
          "name": "G2",
          "midi": 43,
          "time": 49.074024999999835,
          "velocity": 0.6299212598425197,
          "duration": 0.16666649999999805
        },
        {
          "name": "G2",
          "midi": 43,
          "time": 49.25920999999983,
          "velocity": 0.6299212598425197,
          "duration": 0.16666649999999805
        },
        {
          "name": "G1",
          "midi": 31,
          "time": 49.25920999999983,
          "velocity": 0.6299212598425197,
          "duration": 0.16666649999999805
        },
        {
          "name": "G2",
          "midi": 43,
          "time": 49.44439499999983,
          "velocity": 0.6299212598425197,
          "duration": 0.16666649999999805
        },
        {
          "name": "G1",
          "midi": 31,
          "time": 49.44439499999983,
          "velocity": 0.6299212598425197,
          "duration": 0.16666649999999805
        },
        {
          "name": "G1",
          "midi": 31,
          "time": 49.62957999999983,
          "velocity": 0.6299212598425197,
          "duration": 0.3333330000000032
        },
        {
          "name": "G2",
          "midi": 43,
          "time": 49.62957999999983,
          "velocity": 0.6299212598425197,
          "duration": 0.3333330000000032
        },
        {
          "name": "A2",
          "midi": 45,
          "time": 49.99994999999983,
          "velocity": 0.6299212598425197,
          "duration": 0.3333330000000032
        },
        {
          "name": "A1",
          "midi": 33,
          "time": 49.99994999999983,
          "velocity": 0.6299212598425197,
          "duration": 0.3333330000000032
        },
        {
          "name": "B1",
          "midi": 35,
          "time": 50.37031999999983,
          "velocity": 0.6299212598425197,
          "duration": 0.16666649999999805
        },
        {
          "name": "B2",
          "midi": 47,
          "time": 50.37031999999983,
          "velocity": 0.6299212598425197,
          "duration": 0.16666649999999805
        },
        {
          "name": "B1",
          "midi": 35,
          "time": 50.555504999999826,
          "velocity": 0.6299212598425197,
          "duration": 0.16666649999999805
        },
        {
          "name": "B2",
          "midi": 47,
          "time": 50.555504999999826,
          "velocity": 0.6299212598425197,
          "duration": 0.16666649999999805
        },
        {
          "name": "A3",
          "midi": 57,
          "time": 50.74068999999982,
          "velocity": 0.6299212598425197,
          "duration": 0.16666649999999805
        },
        {
          "name": "A2",
          "midi": 45,
          "time": 50.74068999999982,
          "velocity": 0.6299212598425197,
          "duration": 0.16666649999999805
        },
        {
          "name": "B2",
          "midi": 47,
          "time": 50.92587499999982,
          "velocity": 0.6299212598425197,
          "duration": 0.16666649999999805
        },
        {
          "name": "B1",
          "midi": 35,
          "time": 50.92587499999982,
          "velocity": 0.6299212598425197,
          "duration": 0.16666649999999805
        },
        {
          "name": "B2",
          "midi": 47,
          "time": 51.11105999999982,
          "velocity": 0.6299212598425197,
          "duration": 0.16666649999999805
        },
        {
          "name": "B3",
          "midi": 59,
          "time": 51.11105999999982,
          "velocity": 0.6299212598425197,
          "duration": 0.16666649999999805
        },
        {
          "name": "B2",
          "midi": 47,
          "time": 51.296244999999814,
          "velocity": 0.6299212598425197,
          "duration": 0.16666649999999805
        },
        {
          "name": "B1",
          "midi": 35,
          "time": 51.296244999999814,
          "velocity": 0.6299212598425197,
          "duration": 0.16666649999999805
        },
        {
          "name": "B2",
          "midi": 47,
          "time": 51.48142999999981,
          "velocity": 0.6299212598425197,
          "duration": 0.16666649999999805
        },
        {
          "name": "B1",
          "midi": 35,
          "time": 51.48142999999981,
          "velocity": 0.6299212598425197,
          "duration": 0.16666649999999805
        },
        {
          "name": "A3",
          "midi": 57,
          "time": 51.66661499999981,
          "velocity": 0.6299212598425197,
          "duration": 0.16666649999999805
        },
        {
          "name": "A2",
          "midi": 45,
          "time": 51.66661499999981,
          "velocity": 0.6299212598425197,
          "duration": 0.16666649999999805
        },
        {
          "name": "B1",
          "midi": 35,
          "time": 51.851799999999805,
          "velocity": 0.6299212598425197,
          "duration": 0.16666649999999805
        },
        {
          "name": "B2",
          "midi": 47,
          "time": 51.851799999999805,
          "velocity": 0.6299212598425197,
          "duration": 0.16666649999999805
        },
        {
          "name": "B3",
          "midi": 59,
          "time": 52.0369849999998,
          "velocity": 0.6299212598425197,
          "duration": 0.16666649999999805
        },
        {
          "name": "B2",
          "midi": 47,
          "time": 52.0369849999998,
          "velocity": 0.6299212598425197,
          "duration": 0.16666649999999805
        },
        {
          "name": "B1",
          "midi": 35,
          "time": 52.2221699999998,
          "velocity": 0.6299212598425197,
          "duration": 0.16666649999999805
        },
        {
          "name": "B2",
          "midi": 47,
          "time": 52.2221699999998,
          "velocity": 0.6299212598425197,
          "duration": 0.16666649999999805
        },
        {
          "name": "B2",
          "midi": 47,
          "time": 52.4073549999998,
          "velocity": 0.6299212598425197,
          "duration": 0.16666649999999805
        },
        {
          "name": "B1",
          "midi": 35,
          "time": 52.4073549999998,
          "velocity": 0.6299212598425197,
          "duration": 0.16666649999999805
        },
        {
          "name": "B1",
          "midi": 35,
          "time": 52.592539999999794,
          "velocity": 0.6299212598425197,
          "duration": 0.3333330000000032
        },
        {
          "name": "B2",
          "midi": 47,
          "time": 52.592539999999794,
          "velocity": 0.6299212598425197,
          "duration": 0.3333330000000032
        },
        {
          "name": "A2",
          "midi": 45,
          "time": 52.962909999999795,
          "velocity": 0.6299212598425197,
          "duration": 0.16666649999999805
        },
        {
          "name": "A1",
          "midi": 33,
          "time": 52.962909999999795,
          "velocity": 0.6299212598425197,
          "duration": 0.16666649999999805
        },
        {
          "name": "G2",
          "midi": 43,
          "time": 53.14809499999979,
          "velocity": 0.6299212598425197,
          "duration": 0.3518515000000022
        },
        {
          "name": "G1",
          "midi": 31,
          "time": 53.14809499999979,
          "velocity": 0.6299212598425197,
          "duration": 0.3518515000000022
        },
        {
          "name": "G1",
          "midi": 31,
          "time": 53.51846499999979,
          "velocity": 0.6299212598425197,
          "duration": 0.16666649999999805
        },
        {
          "name": "G2",
          "midi": 43,
          "time": 53.51846499999979,
          "velocity": 0.6299212598425197,
          "duration": 0.16666649999999805
        },
        {
          "name": "F#2",
          "midi": 42,
          "time": 53.70364999999979,
          "velocity": 0.6299212598425197,
          "duration": 0.16666649999999805
        },
        {
          "name": "F#3",
          "midi": 54,
          "time": 53.70364999999979,
          "velocity": 0.6299212598425197,
          "duration": 0.16666649999999805
        },
        {
          "name": "G2",
          "midi": 43,
          "time": 53.88883499999979,
          "velocity": 0.6299212598425197,
          "duration": 0.16666649999999805
        },
        {
          "name": "G1",
          "midi": 31,
          "time": 53.88883499999979,
          "velocity": 0.6299212598425197,
          "duration": 0.16666649999999805
        },
        {
          "name": "G3",
          "midi": 55,
          "time": 54.074019999999784,
          "velocity": 0.6299212598425197,
          "duration": 0.16666649999999805
        },
        {
          "name": "G2",
          "midi": 43,
          "time": 54.074019999999784,
          "velocity": 0.6299212598425197,
          "duration": 0.16666649999999805
        },
        {
          "name": "G2",
          "midi": 43,
          "time": 54.25920499999978,
          "velocity": 0.6299212598425197,
          "duration": 0.16666649999999805
        },
        {
          "name": "G1",
          "midi": 31,
          "time": 54.25920499999978,
          "velocity": 0.6299212598425197,
          "duration": 0.16666649999999805
        },
        {
          "name": "G2",
          "midi": 43,
          "time": 54.44438999999978,
          "velocity": 0.6299212598425197,
          "duration": 0.16666649999999805
        },
        {
          "name": "G1",
          "midi": 31,
          "time": 54.44438999999978,
          "velocity": 0.6299212598425197,
          "duration": 0.16666649999999805
        },
        {
          "name": "A2",
          "midi": 45,
          "time": 54.629574999999775,
          "velocity": 0.6299212598425197,
          "duration": 0.16666649999999805
        },
        {
          "name": "A3",
          "midi": 57,
          "time": 54.629574999999775,
          "velocity": 0.6299212598425197,
          "duration": 0.16666649999999805
        },
        {
          "name": "G2",
          "midi": 43,
          "time": 54.81475999999977,
          "velocity": 0.6299212598425197,
          "duration": 0.16666649999999805
        },
        {
          "name": "G1",
          "midi": 31,
          "time": 54.81475999999977,
          "velocity": 0.6299212598425197,
          "duration": 0.16666649999999805
        },
        {
          "name": "G2",
          "midi": 43,
          "time": 54.99994499999977,
          "velocity": 0.6299212598425197,
          "duration": 0.16666649999999805
        },
        {
          "name": "G3",
          "midi": 55,
          "time": 54.99994499999977,
          "velocity": 0.6299212598425197,
          "duration": 0.16666649999999805
        },
        {
          "name": "G2",
          "midi": 43,
          "time": 55.185129999999766,
          "velocity": 0.6299212598425197,
          "duration": 0.16666649999999805
        },
        {
          "name": "G1",
          "midi": 31,
          "time": 55.185129999999766,
          "velocity": 0.6299212598425197,
          "duration": 0.16666649999999805
        },
        {
          "name": "G1",
          "midi": 31,
          "time": 55.37031499999976,
          "velocity": 0.6299212598425197,
          "duration": 0.16666649999999805
        },
        {
          "name": "G2",
          "midi": 43,
          "time": 55.37031499999976,
          "velocity": 0.6299212598425197,
          "duration": 0.16666649999999805
        },
        {
          "name": "G1",
          "midi": 31,
          "time": 55.55549999999976,
          "velocity": 0.6299212598425197,
          "duration": 0.3333330000000032
        },
        {
          "name": "G2",
          "midi": 43,
          "time": 55.55549999999976,
          "velocity": 0.6299212598425197,
          "duration": 0.3333330000000032
        },
        {
          "name": "A1",
          "midi": 33,
          "time": 55.92586999999976,
          "velocity": 0.6299212598425197,
          "duration": 0.3333330000000032
        },
        {
          "name": "A2",
          "midi": 45,
          "time": 55.92586999999976,
          "velocity": 0.6299212598425197,
          "duration": 0.3333330000000032
        },
        {
          "name": "B1",
          "midi": 35,
          "time": 56.29623999999976,
          "velocity": 0.6299212598425197,
          "duration": 0.16666649999999805
        },
        {
          "name": "B2",
          "midi": 47,
          "time": 56.29623999999976,
          "velocity": 0.6299212598425197,
          "duration": 0.16666649999999805
        },
        {
          "name": "B1",
          "midi": 35,
          "time": 56.48142499999976,
          "velocity": 0.6299212598425197,
          "duration": 0.16666649999999805
        },
        {
          "name": "B2",
          "midi": 47,
          "time": 56.48142499999976,
          "velocity": 0.6299212598425197,
          "duration": 0.16666649999999805
        },
        {
          "name": "A2",
          "midi": 45,
          "time": 56.66660999999976,
          "velocity": 0.6299212598425197,
          "duration": 0.16666649999999805
        },
        {
          "name": "A3",
          "midi": 57,
          "time": 56.66660999999976,
          "velocity": 0.6299212598425197,
          "duration": 0.16666649999999805
        },
        {
          "name": "B1",
          "midi": 35,
          "time": 56.851794999999754,
          "velocity": 0.6299212598425197,
          "duration": 0.16666649999999805
        },
        {
          "name": "B2",
          "midi": 47,
          "time": 56.851794999999754,
          "velocity": 0.6299212598425197,
          "duration": 0.16666649999999805
        },
        {
          "name": "B2",
          "midi": 47,
          "time": 57.03697999999975,
          "velocity": 0.6299212598425197,
          "duration": 0.16666649999999805
        },
        {
          "name": "B3",
          "midi": 59,
          "time": 57.03697999999975,
          "velocity": 0.6299212598425197,
          "duration": 0.16666649999999805
        },
        {
          "name": "B2",
          "midi": 47,
          "time": 57.22216499999975,
          "velocity": 0.6299212598425197,
          "duration": 0.16666649999999805
        },
        {
          "name": "B1",
          "midi": 35,
          "time": 57.22216499999975,
          "velocity": 0.6299212598425197,
          "duration": 0.16666649999999805
        },
        {
          "name": "B2",
          "midi": 47,
          "time": 57.407349999999745,
          "velocity": 0.6299212598425197,
          "duration": 0.16666649999999805
        },
        {
          "name": "B1",
          "midi": 35,
          "time": 57.407349999999745,
          "velocity": 0.6299212598425197,
          "duration": 0.16666649999999805
        },
        {
          "name": "A2",
          "midi": 45,
          "time": 57.59253499999974,
          "velocity": 0.6299212598425197,
          "duration": 0.16666649999999805
        },
        {
          "name": "A3",
          "midi": 57,
          "time": 57.59253499999974,
          "velocity": 0.6299212598425197,
          "duration": 0.16666649999999805
        },
        {
          "name": "B1",
          "midi": 35,
          "time": 57.77771999999974,
          "velocity": 0.6299212598425197,
          "duration": 0.16666649999999805
        },
        {
          "name": "B2",
          "midi": 47,
          "time": 57.77771999999974,
          "velocity": 0.6299212598425197,
          "duration": 0.16666649999999805
        },
        {
          "name": "B2",
          "midi": 47,
          "time": 57.962904999999736,
          "velocity": 0.6299212598425197,
          "duration": 0.16666649999999805
        },
        {
          "name": "B3",
          "midi": 59,
          "time": 57.962904999999736,
          "velocity": 0.6299212598425197,
          "duration": 0.16666649999999805
        },
        {
          "name": "B1",
          "midi": 35,
          "time": 58.14808999999973,
          "velocity": 0.6299212598425197,
          "duration": 0.16666649999999805
        },
        {
          "name": "B2",
          "midi": 47,
          "time": 58.14808999999973,
          "velocity": 0.6299212598425197,
          "duration": 0.16666649999999805
        },
        {
          "name": "B1",
          "midi": 35,
          "time": 58.33327499999973,
          "velocity": 0.6299212598425197,
          "duration": 0.16666649999999805
        },
        {
          "name": "B2",
          "midi": 47,
          "time": 58.33327499999973,
          "velocity": 0.6299212598425197,
          "duration": 0.16666649999999805
        },
        {
          "name": "B1",
          "midi": 35,
          "time": 58.51845999999973,
          "velocity": 0.6299212598425197,
          "duration": 0.3333330000000032
        },
        {
          "name": "B2",
          "midi": 47,
          "time": 58.51845999999973,
          "velocity": 0.6299212598425197,
          "duration": 0.3333330000000032
        },
        {
          "name": "A2",
          "midi": 45,
          "time": 58.88882999999973,
          "velocity": 0.6299212598425197,
          "duration": 0.16666649999999805
        },
        {
          "name": "A1",
          "midi": 33,
          "time": 58.88882999999973,
          "velocity": 0.6299212598425197,
          "duration": 0.16666649999999805
        },
        {
          "name": "G2",
          "midi": 43,
          "time": 59.074014999999726,
          "velocity": 0.6299212598425197,
          "duration": 0.3518515000000022
        },
        {
          "name": "G1",
          "midi": 31,
          "time": 59.074014999999726,
          "velocity": 0.6299212598425197,
          "duration": 0.3518515000000022
        },
        {
          "name": "G1",
          "midi": 31,
          "time": 59.44438499999973,
          "velocity": 0.6299212598425197,
          "duration": 0.16666649999999805
        },
        {
          "name": "G2",
          "midi": 43,
          "time": 59.44438499999973,
          "velocity": 0.6299212598425197,
          "duration": 0.16666649999999805
        },
        {
          "name": "F#2",
          "midi": 42,
          "time": 59.629569999999724,
          "velocity": 0.6299212598425197,
          "duration": 0.16666649999999805
        },
        {
          "name": "F#3",
          "midi": 54,
          "time": 59.629569999999724,
          "velocity": 0.6299212598425197,
          "duration": 0.16666649999999805
        },
        {
          "name": "G1",
          "midi": 31,
          "time": 59.81475499999972,
          "velocity": 0.6299212598425197,
          "duration": 0.16666649999999805
        },
        {
          "name": "G2",
          "midi": 43,
          "time": 59.81475499999972,
          "velocity": 0.6299212598425197,
          "duration": 0.16666649999999805
        },
        {
          "name": "G3",
          "midi": 55,
          "time": 59.99993999999972,
          "velocity": 0.6299212598425197,
          "duration": 0.16666649999999805
        },
        {
          "name": "G2",
          "midi": 43,
          "time": 59.99993999999972,
          "velocity": 0.6299212598425197,
          "duration": 0.16666649999999805
        },
        {
          "name": "G2",
          "midi": 43,
          "time": 60.185124999999715,
          "velocity": 0.6299212598425197,
          "duration": 0.16666649999999805
        },
        {
          "name": "G1",
          "midi": 31,
          "time": 60.185124999999715,
          "velocity": 0.6299212598425197,
          "duration": 0.16666649999999805
        },
        {
          "name": "G1",
          "midi": 31,
          "time": 60.37030999999971,
          "velocity": 0.6299212598425197,
          "duration": 0.16666649999999805
        },
        {
          "name": "G2",
          "midi": 43,
          "time": 60.37030999999971,
          "velocity": 0.6299212598425197,
          "duration": 0.16666649999999805
        },
        {
          "name": "A2",
          "midi": 45,
          "time": 60.55549499999971,
          "velocity": 0.6299212598425197,
          "duration": 0.16666649999999805
        },
        {
          "name": "A3",
          "midi": 57,
          "time": 60.55549499999971,
          "velocity": 0.6299212598425197,
          "duration": 0.16666649999999805
        },
        {
          "name": "G1",
          "midi": 31,
          "time": 60.740679999999706,
          "velocity": 0.6299212598425197,
          "duration": 0.16666649999999805
        },
        {
          "name": "G2",
          "midi": 43,
          "time": 60.740679999999706,
          "velocity": 0.6299212598425197,
          "duration": 0.16666649999999805
        },
        {
          "name": "G2",
          "midi": 43,
          "time": 60.9258649999997,
          "velocity": 0.6299212598425197,
          "duration": 0.16666649999999805
        },
        {
          "name": "G3",
          "midi": 55,
          "time": 60.9258649999997,
          "velocity": 0.6299212598425197,
          "duration": 0.16666649999999805
        },
        {
          "name": "G2",
          "midi": 43,
          "time": 61.1110499999997,
          "velocity": 0.6299212598425197,
          "duration": 0.16666649999999805
        },
        {
          "name": "G1",
          "midi": 31,
          "time": 61.1110499999997,
          "velocity": 0.6299212598425197,
          "duration": 0.16666649999999805
        },
        {
          "name": "G1",
          "midi": 31,
          "time": 61.2962349999997,
          "velocity": 0.6299212598425197,
          "duration": 0.16666649999999805
        },
        {
          "name": "G2",
          "midi": 43,
          "time": 61.2962349999997,
          "velocity": 0.6299212598425197,
          "duration": 0.16666649999999805
        },
        {
          "name": "G1",
          "midi": 31,
          "time": 61.481419999999694,
          "velocity": 0.6299212598425197,
          "duration": 0.3333330000000032
        },
        {
          "name": "G2",
          "midi": 43,
          "time": 61.481419999999694,
          "velocity": 0.6299212598425197,
          "duration": 0.3333330000000032
        },
        {
          "name": "A1",
          "midi": 33,
          "time": 61.851789999999696,
          "velocity": 0.6299212598425197,
          "duration": 0.3333330000000032
        },
        {
          "name": "A2",
          "midi": 45,
          "time": 61.851789999999696,
          "velocity": 0.6299212598425197,
          "duration": 0.3333330000000032
        },
        {
          "name": "B2",
          "midi": 47,
          "time": 62.2221599999997,
          "velocity": 0.6299212598425197,
          "duration": 0.16666649999999805
        },
        {
          "name": "B1",
          "midi": 35,
          "time": 62.2221599999997,
          "velocity": 0.6299212598425197,
          "duration": 0.16666649999999805
        },
        {
          "name": "B1",
          "midi": 35,
          "time": 62.407344999999694,
          "velocity": 0.6299212598425197,
          "duration": 0.16666649999999805
        },
        {
          "name": "B2",
          "midi": 47,
          "time": 62.407344999999694,
          "velocity": 0.6299212598425197,
          "duration": 0.16666649999999805
        },
        {
          "name": "A2",
          "midi": 45,
          "time": 62.59252999999969,
          "velocity": 0.6299212598425197,
          "duration": 0.16666649999999805
        },
        {
          "name": "A3",
          "midi": 57,
          "time": 62.59252999999969,
          "velocity": 0.6299212598425197,
          "duration": 0.16666649999999805
        },
        {
          "name": "B2",
          "midi": 47,
          "time": 62.77771499999969,
          "velocity": 0.6299212598425197,
          "duration": 0.16666649999999805
        },
        {
          "name": "B1",
          "midi": 35,
          "time": 62.77771499999969,
          "velocity": 0.6299212598425197,
          "duration": 0.16666649999999805
        },
        {
          "name": "B2",
          "midi": 47,
          "time": 62.962899999999685,
          "velocity": 0.6299212598425197,
          "duration": 0.16666649999999805
        },
        {
          "name": "B3",
          "midi": 59,
          "time": 62.962899999999685,
          "velocity": 0.6299212598425197,
          "duration": 0.16666649999999805
        },
        {
          "name": "B1",
          "midi": 35,
          "time": 63.14808499999968,
          "velocity": 0.6299212598425197,
          "duration": 0.16666649999999805
        },
        {
          "name": "B2",
          "midi": 47,
          "time": 63.14808499999968,
          "velocity": 0.6299212598425197,
          "duration": 0.16666649999999805
        },
        {
          "name": "B2",
          "midi": 47,
          "time": 63.33326999999968,
          "velocity": 0.6299212598425197,
          "duration": 0.16666649999999805
        },
        {
          "name": "B1",
          "midi": 35,
          "time": 63.33326999999968,
          "velocity": 0.6299212598425197,
          "duration": 0.16666649999999805
        },
        {
          "name": "A3",
          "midi": 57,
          "time": 63.518454999999676,
          "velocity": 0.6299212598425197,
          "duration": 0.16666649999999805
        },
        {
          "name": "A2",
          "midi": 45,
          "time": 63.518454999999676,
          "velocity": 0.6299212598425197,
          "duration": 0.16666649999999805
        },
        {
          "name": "B1",
          "midi": 35,
          "time": 63.70363999999967,
          "velocity": 0.6299212598425197,
          "duration": 0.16666649999999805
        },
        {
          "name": "B2",
          "midi": 47,
          "time": 63.70363999999967,
          "velocity": 0.6299212598425197,
          "duration": 0.16666649999999805
        },
        {
          "name": "B2",
          "midi": 47,
          "time": 63.88882499999967,
          "velocity": 0.6299212598425197,
          "duration": 0.16666650000000516
        },
        {
          "name": "B3",
          "midi": 59,
          "time": 63.88882499999967,
          "velocity": 0.6299212598425197,
          "duration": 0.16666650000000516
        },
        {
          "name": "B2",
          "midi": 47,
          "time": 64.07400999999967,
          "velocity": 0.6299212598425197,
          "duration": 0.16666650000000516
        },
        {
          "name": "B1",
          "midi": 35,
          "time": 64.07400999999967,
          "velocity": 0.6299212598425197,
          "duration": 0.16666650000000516
        },
        {
          "name": "B1",
          "midi": 35,
          "time": 64.25919499999968,
          "velocity": 0.6299212598425197,
          "duration": 0.16666650000000516
        },
        {
          "name": "B2",
          "midi": 47,
          "time": 64.25919499999968,
          "velocity": 0.6299212598425197,
          "duration": 0.16666650000000516
        },
        {
          "name": "B2",
          "midi": 47,
          "time": 64.44437999999968,
          "velocity": 0.6299212598425197,
          "duration": 0.3333329999999961
        },
        {
          "name": "B1",
          "midi": 35,
          "time": 64.44437999999968,
          "velocity": 0.6299212598425197,
          "duration": 0.3333329999999961
        },
        {
          "name": "A1",
          "midi": 33,
          "time": 64.81474999999968,
          "velocity": 0.6299212598425197,
          "duration": 0.16666650000000516
        },
        {
          "name": "A2",
          "midi": 45,
          "time": 64.81474999999968,
          "velocity": 0.6299212598425197,
          "duration": 0.16666650000000516
        },
        {
          "name": "G2",
          "midi": 43,
          "time": 64.99993499999968,
          "velocity": 0.6299212598425197,
          "duration": 0.3518514999999951
        },
        {
          "name": "G1",
          "midi": 31,
          "time": 64.99993499999968,
          "velocity": 0.6299212598425197,
          "duration": 0.3518514999999951
        },
        {
          "name": "G1",
          "midi": 31,
          "time": 65.37030499999968,
          "velocity": 0.6299212598425197,
          "duration": 0.16666650000000516
        },
        {
          "name": "G2",
          "midi": 43,
          "time": 65.37030499999968,
          "velocity": 0.6299212598425197,
          "duration": 0.16666650000000516
        },
        {
          "name": "F#2",
          "midi": 42,
          "time": 65.55548999999968,
          "velocity": 0.6299212598425197,
          "duration": 0.16666650000000516
        },
        {
          "name": "F#3",
          "midi": 54,
          "time": 65.55548999999968,
          "velocity": 0.6299212598425197,
          "duration": 0.16666650000000516
        },
        {
          "name": "G2",
          "midi": 43,
          "time": 65.74067499999968,
          "velocity": 0.6299212598425197,
          "duration": 0.16666650000000516
        },
        {
          "name": "G1",
          "midi": 31,
          "time": 65.74067499999968,
          "velocity": 0.6299212598425197,
          "duration": 0.16666650000000516
        },
        {
          "name": "G3",
          "midi": 55,
          "time": 65.92585999999969,
          "velocity": 0.6299212598425197,
          "duration": 0.16666650000000516
        },
        {
          "name": "G2",
          "midi": 43,
          "time": 65.92585999999969,
          "velocity": 0.6299212598425197,
          "duration": 0.16666650000000516
        },
        {
          "name": "G2",
          "midi": 43,
          "time": 66.11104499999969,
          "velocity": 0.6299212598425197,
          "duration": 0.16666650000000516
        },
        {
          "name": "G1",
          "midi": 31,
          "time": 66.11104499999969,
          "velocity": 0.6299212598425197,
          "duration": 0.16666650000000516
        },
        {
          "name": "G1",
          "midi": 31,
          "time": 66.2962299999997,
          "velocity": 0.6299212598425197,
          "duration": 0.16666650000000516
        },
        {
          "name": "G2",
          "midi": 43,
          "time": 66.2962299999997,
          "velocity": 0.6299212598425197,
          "duration": 0.16666650000000516
        },
        {
          "name": "A3",
          "midi": 57,
          "time": 66.4814149999997,
          "velocity": 0.6299212598425197,
          "duration": 0.16666650000000516
        },
        {
          "name": "A2",
          "midi": 45,
          "time": 66.4814149999997,
          "velocity": 0.6299212598425197,
          "duration": 0.16666650000000516
        },
        {
          "name": "G2",
          "midi": 43,
          "time": 66.6665999999997,
          "velocity": 0.6299212598425197,
          "duration": 0.16666650000000516
        },
        {
          "name": "G1",
          "midi": 31,
          "time": 66.6665999999997,
          "velocity": 0.6299212598425197,
          "duration": 0.16666650000000516
        },
        {
          "name": "G3",
          "midi": 55,
          "time": 66.85178499999971,
          "velocity": 0.6299212598425197,
          "duration": 0.16666650000000516
        },
        {
          "name": "G2",
          "midi": 43,
          "time": 66.85178499999971,
          "velocity": 0.6299212598425197,
          "duration": 0.16666650000000516
        },
        {
          "name": "G2",
          "midi": 43,
          "time": 67.03696999999971,
          "velocity": 0.6299212598425197,
          "duration": 0.16666650000000516
        },
        {
          "name": "G1",
          "midi": 31,
          "time": 67.03696999999971,
          "velocity": 0.6299212598425197,
          "duration": 0.16666650000000516
        },
        {
          "name": "G1",
          "midi": 31,
          "time": 67.22215499999972,
          "velocity": 0.6299212598425197,
          "duration": 0.16666650000000516
        },
        {
          "name": "G2",
          "midi": 43,
          "time": 67.22215499999972,
          "velocity": 0.6299212598425197,
          "duration": 0.16666650000000516
        },
        {
          "name": "G1",
          "midi": 31,
          "time": 67.40733999999972,
          "velocity": 0.6299212598425197,
          "duration": 0.3333329999999961
        },
        {
          "name": "G2",
          "midi": 43,
          "time": 67.40733999999972,
          "velocity": 0.6299212598425197,
          "duration": 0.3333329999999961
        },
        {
          "name": "A1",
          "midi": 33,
          "time": 67.77770999999971,
          "velocity": 0.6299212598425197,
          "duration": 0.3333329999999961
        },
        {
          "name": "A2",
          "midi": 45,
          "time": 67.77770999999971,
          "velocity": 0.6299212598425197,
          "duration": 0.3333329999999961
        },
        {
          "name": "B2",
          "midi": 47,
          "time": 68.14807999999971,
          "velocity": 0.6299212598425197,
          "duration": 0.6944437500000049
        },
        {
          "name": "B1",
          "midi": 35,
          "time": 68.14807999999971,
          "velocity": 0.6299212598425197,
          "duration": 0.6944437500000049
        },
        {
          "name": "B1",
          "midi": 35,
          "time": 68.88881999999971,
          "velocity": 0.6299212598425197,
          "duration": 0.14814800000000616
        },
        {
          "name": "B2",
          "midi": 47,
          "time": 68.88881999999971,
          "velocity": 0.6299212598425197,
          "duration": 0.14814800000000616
        },
        {
          "name": "B1",
          "midi": 35,
          "time": 69.07400499999972,
          "velocity": 0.6299212598425197,
          "duration": 0.14814800000000616
        },
        {
          "name": "B2",
          "midi": 47,
          "time": 69.07400499999972,
          "velocity": 0.6299212598425197,
          "duration": 0.14814800000000616
        },
        {
          "name": "B1",
          "midi": 35,
          "time": 69.25918999999972,
          "velocity": 0.6299212598425197,
          "duration": 0.14814800000000616
        },
        {
          "name": "B2",
          "midi": 47,
          "time": 69.25918999999972,
          "velocity": 0.6299212598425197,
          "duration": 0.14814800000000616
        },
        {
          "name": "B2",
          "midi": 47,
          "time": 69.44437499999972,
          "velocity": 0.6299212598425197,
          "duration": 0.7037030000000044
        },
        {
          "name": "B1",
          "midi": 35,
          "time": 69.44437499999972,
          "velocity": 0.6299212598425197,
          "duration": 0.7037030000000044
        },
        {
          "name": "E3",
          "midi": 52,
          "time": 70.18511499999973,
          "velocity": 0.6299212598425197,
          "duration": 0.2962959999999981
        },
        {
          "name": "E2",
          "midi": 40,
          "time": 70.18511499999973,
          "velocity": 0.6299212598425197,
          "duration": 0.2962959999999981
        },
        {
          "name": "D2",
          "midi": 38,
          "time": 70.55548499999972,
          "velocity": 0.6299212598425197,
          "duration": 0.14814800000000616
        },
        {
          "name": "D3",
          "midi": 50,
          "time": 70.55548499999972,
          "velocity": 0.6299212598425197,
          "duration": 0.14814800000000616
        },
        {
          "name": "C#2",
          "midi": 37,
          "time": 70.74066999999972,
          "velocity": 0.6299212598425197,
          "duration": 0.14814800000000616
        },
        {
          "name": "C#3",
          "midi": 49,
          "time": 70.74066999999972,
          "velocity": 0.6299212598425197,
          "duration": 0.14814800000000616
        },
        {
          "name": "B1",
          "midi": 35,
          "time": 70.92585499999973,
          "velocity": 0.6299212598425197,
          "duration": 0.3595675416666637
        },
        {
          "name": "B2",
          "midi": 47,
          "time": 70.92585499999973,
          "velocity": 0.6299212598425197,
          "duration": 0.3595675416666637
        },
        {
          "name": "B2",
          "midi": 47,
          "time": 71.29622499999972,
          "velocity": 0.6299212598425197,
          "duration": 0.14814800000000616
        },
        {
          "name": "B1",
          "midi": 35,
          "time": 71.29622499999972,
          "velocity": 0.6299212598425197,
          "duration": 0.14814800000000616
        },
        {
          "name": "A2",
          "midi": 45,
          "time": 71.48140999999973,
          "velocity": 0.6299212598425197,
          "duration": 0.14814800000000616
        },
        {
          "name": "B1",
          "midi": 35,
          "time": 71.48140999999973,
          "velocity": 0.6299212598425197,
          "duration": 0.14814800000000616
        },
        {
          "name": "B1",
          "midi": 35,
          "time": 71.66659499999973,
          "velocity": 0.6299212598425197,
          "duration": 0.5185180000000003
        },
        {
          "name": "B2",
          "midi": 47,
          "time": 71.66659499999973,
          "velocity": 0.6299212598425197,
          "duration": 0.5185180000000003
        },
        {
          "name": "D2",
          "midi": 38,
          "time": 72.22214999999973,
          "velocity": 0.6299212598425197,
          "duration": 0.14814800000000616
        },
        {
          "name": "D3",
          "midi": 50,
          "time": 72.22214999999973,
          "velocity": 0.6299212598425197,
          "duration": 0.14814800000000616
        },
        {
          "name": "C#3",
          "midi": 49,
          "time": 72.40733499999973,
          "velocity": 0.6299212598425197,
          "duration": 0.5324068750000066
        },
        {
          "name": "C#2",
          "midi": 37,
          "time": 72.40733499999973,
          "velocity": 0.6299212598425197,
          "duration": 0.5324068750000066
        },
        {
          "name": "E2",
          "midi": 40,
          "time": 72.96288999999975,
          "velocity": 0.6299212598425197,
          "duration": 0.14814800000000616
        },
        {
          "name": "E3",
          "midi": 52,
          "time": 72.96288999999975,
          "velocity": 0.6299212598425197,
          "duration": 0.14814800000000616
        },
        {
          "name": "D2",
          "midi": 38,
          "time": 73.14807499999975,
          "velocity": 0.6299212598425197,
          "duration": 0.34722187500000246
        },
        {
          "name": "D3",
          "midi": 50,
          "time": 73.14807499999975,
          "velocity": 0.6299212598425197,
          "duration": 0.34722187500000246
        },
        {
          "name": "C#2",
          "midi": 37,
          "time": 73.51844499999976,
          "velocity": 0.6299212598425197,
          "duration": 0.14814800000000616
        },
        {
          "name": "C#3",
          "midi": 49,
          "time": 73.51844499999976,
          "velocity": 0.6299212598425197,
          "duration": 0.14814800000000616
        },
        {
          "name": "D2",
          "midi": 38,
          "time": 73.70362999999976,
          "velocity": 0.6299212598425197,
          "duration": 0.14814800000000616
        },
        {
          "name": "D3",
          "midi": 50,
          "time": 73.70362999999976,
          "velocity": 0.6299212598425197,
          "duration": 0.14814800000000616
        },
        {
          "name": "G1",
          "midi": 31,
          "time": 73.88881499999977,
          "velocity": 0.6299212598425197,
          "duration": 1.0740729999999985
        },
        {
          "name": "G2",
          "midi": 43,
          "time": 73.88881499999977,
          "velocity": 0.6299212598425197,
          "duration": 1.0740729999999985
        },
        {
          "name": "D3",
          "midi": 50,
          "time": 75.18510999999977,
          "velocity": 0.6299212598425197,
          "duration": 0.14814800000000616
        },
        {
          "name": "D2",
          "midi": 38,
          "time": 75.18510999999977,
          "velocity": 0.6299212598425197,
          "duration": 0.14814800000000616
        },
        {
          "name": "C#3",
          "midi": 49,
          "time": 75.37029499999977,
          "velocity": 0.6299212598425197,
          "duration": 0.5324068750000066
        },
        {
          "name": "C#2",
          "midi": 37,
          "time": 75.37029499999977,
          "velocity": 0.6299212598425197,
          "duration": 0.5324068750000066
        },
        {
          "name": "D2",
          "midi": 38,
          "time": 75.92584999999978,
          "velocity": 0.6299212598425197,
          "duration": 0.14814800000000616
        },
        {
          "name": "D3",
          "midi": 50,
          "time": 75.92584999999978,
          "velocity": 0.6299212598425197,
          "duration": 0.14814800000000616
        },
        {
          "name": "C#3",
          "midi": 49,
          "time": 76.11103499999979,
          "velocity": 0.6299212598425197,
          "duration": 0.4444440000000043
        },
        {
          "name": "C#2",
          "midi": 37,
          "time": 76.11103499999979,
          "velocity": 0.6299212598425197,
          "duration": 0.4444440000000043
        },
        {
          "name": "A2",
          "midi": 45,
          "time": 76.66658999999979,
          "velocity": 0.6299212598425197,
          "duration": 0.2962959999999981
        },
        {
          "name": "A1",
          "midi": 33,
          "time": 76.66658999999979,
          "velocity": 0.6299212598425197,
          "duration": 0.2962959999999981
        },
        {
          "name": "B2",
          "midi": 47,
          "time": 77.03695999999978,
          "velocity": 0.6299212598425197,
          "duration": 0.14814800000000616
        },
        {
          "name": "B1",
          "midi": 35,
          "time": 77.03695999999978,
          "velocity": 0.6299212598425197,
          "duration": 0.14814800000000616
        },
        {
          "name": "B2",
          "midi": 47,
          "time": 77.22214499999978,
          "velocity": 0.6299212598425197,
          "duration": 0.14814800000000616
        },
        {
          "name": "B1",
          "midi": 35,
          "time": 77.22214499999978,
          "velocity": 0.6299212598425197,
          "duration": 0.14814800000000616
        },
        {
          "name": "A1",
          "midi": 33,
          "time": 77.40732999999979,
          "velocity": 0.6299212598425197,
          "duration": 0.14814800000000616
        },
        {
          "name": "A2",
          "midi": 45,
          "time": 77.40732999999979,
          "velocity": 0.6299212598425197,
          "duration": 0.14814800000000616
        },
        {
          "name": "B1",
          "midi": 35,
          "time": 77.59251499999979,
          "velocity": 0.6299212598425197,
          "duration": 0.4444440000000043
        },
        {
          "name": "B2",
          "midi": 47,
          "time": 77.59251499999979,
          "velocity": 0.6299212598425197,
          "duration": 0.4444440000000043
        },
        {
          "name": "D2",
          "midi": 38,
          "time": 78.14806999999979,
          "velocity": 0.6299212598425197,
          "duration": 0.14814800000000616
        },
        {
          "name": "D3",
          "midi": 50,
          "time": 78.14806999999979,
          "velocity": 0.6299212598425197,
          "duration": 0.14814800000000616
        },
        {
          "name": "C#3",
          "midi": 49,
          "time": 78.3332549999998,
          "velocity": 0.6299212598425197,
          "duration": 0.48148100000000227
        },
        {
          "name": "C#2",
          "midi": 37,
          "time": 78.3332549999998,
          "velocity": 0.6299212598425197,
          "duration": 0.48148100000000227
        },
        {
          "name": "E2",
          "midi": 40,
          "time": 78.8888099999998,
          "velocity": 0.6299212598425197,
          "duration": 0.14814800000000616
        },
        {
          "name": "E3",
          "midi": 52,
          "time": 78.8888099999998,
          "velocity": 0.6299212598425197,
          "duration": 0.14814800000000616
        },
        {
          "name": "D3",
          "midi": 50,
          "time": 79.0739949999998,
          "velocity": 0.6299212598425197,
          "duration": 0.4444440000000043
        },
        {
          "name": "D2",
          "midi": 38,
          "time": 79.0739949999998,
          "velocity": 0.6299212598425197,
          "duration": 0.4444440000000043
        },
        {
          "name": "D2",
          "midi": 38,
          "time": 79.6295499999998,
          "velocity": 0.6299212598425197,
          "duration": 0.14814800000000616
        },
        {
          "name": "D3",
          "midi": 50,
          "time": 79.6295499999998,
          "velocity": 0.6299212598425197,
          "duration": 0.14814800000000616
        },
        {
          "name": "G2",
          "midi": 43,
          "time": 79.8147349999998,
          "velocity": 0.6299212598425197,
          "duration": 1.2222210000000047
        },
        {
          "name": "G1",
          "midi": 31,
          "time": 79.8147349999998,
          "velocity": 0.6299212598425197,
          "duration": 1.2222210000000047
        },
        {
          "name": "D2",
          "midi": 38,
          "time": 81.1110299999998,
          "velocity": 0.6299212598425197,
          "duration": 0.14814800000000616
        },
        {
          "name": "D3",
          "midi": 50,
          "time": 81.1110299999998,
          "velocity": 0.6299212598425197,
          "duration": 0.14814800000000616
        },
        {
          "name": "C#3",
          "midi": 49,
          "time": 81.2962149999998,
          "velocity": 0.6299212598425197,
          "duration": 0.48148100000000227
        },
        {
          "name": "C#2",
          "midi": 37,
          "time": 81.2962149999998,
          "velocity": 0.6299212598425197,
          "duration": 0.48148100000000227
        },
        {
          "name": "D3",
          "midi": 50,
          "time": 81.8517699999998,
          "velocity": 0.6299212598425197,
          "duration": 0.14814800000000616
        },
        {
          "name": "D2",
          "midi": 38,
          "time": 81.8517699999998,
          "velocity": 0.6299212598425197,
          "duration": 0.14814800000000616
        },
        {
          "name": "C#2",
          "midi": 37,
          "time": 82.03695499999981,
          "velocity": 0.6299212598425197,
          "duration": 0.4444440000000043
        },
        {
          "name": "C#3",
          "midi": 49,
          "time": 82.03695499999981,
          "velocity": 0.6299212598425197,
          "duration": 0.4444440000000043
        },
        {
          "name": "A2",
          "midi": 45,
          "time": 82.5925099999998,
          "velocity": 0.6299212598425197,
          "duration": 0.2962959999999981
        },
        {
          "name": "A1",
          "midi": 33,
          "time": 82.5925099999998,
          "velocity": 0.6299212598425197,
          "duration": 0.2962959999999981
        },
        {
          "name": "D2",
          "midi": 38,
          "time": 88.0554674999998,
          "velocity": 0.6299212598425197,
          "duration": 0.07407399999999598
        },
        {
          "name": "D3",
          "midi": 50,
          "time": 88.0554674999998,
          "velocity": 0.6299212598425197,
          "duration": 0.07407399999999598
        },
        {
          "name": "E3",
          "midi": 52,
          "time": 88.2406524999998,
          "velocity": 0.6299212598425197,
          "duration": 0.07407399999999598
        },
        {
          "name": "E2",
          "midi": 40,
          "time": 88.2406524999998,
          "velocity": 0.6299212598425197,
          "duration": 0.07407399999999598
        },
        {
          "name": "D2",
          "midi": 38,
          "time": 88.42583749999979,
          "velocity": 0.6299212598425197,
          "duration": 0.07407399999999598
        },
        {
          "name": "D3",
          "midi": 50,
          "time": 88.42583749999979,
          "velocity": 0.6299212598425197,
          "duration": 0.07407399999999598
        },
        {
          "name": "D2",
          "midi": 38,
          "time": 88.61102249999978,
          "velocity": 0.6299212598425197,
          "duration": 0.07407399999999598
        },
        {
          "name": "D3",
          "midi": 50,
          "time": 88.61102249999978,
          "velocity": 0.6299212598425197,
          "duration": 0.07407399999999598
        },
        {
          "name": "C#2",
          "midi": 37,
          "time": 88.70361499999977,
          "velocity": 0.6299212598425197,
          "duration": 0.07407399999999598
        },
        {
          "name": "C#3",
          "midi": 49,
          "time": 88.70361499999977,
          "velocity": 0.6299212598425197,
          "duration": 0.07407399999999598
        },
        {
          "name": "A2",
          "midi": 45,
          "time": 88.79620749999977,
          "velocity": 0.6299212598425197,
          "duration": 0.07407399999999598
        },
        {
          "name": "A1",
          "midi": 33,
          "time": 88.79620749999977,
          "velocity": 0.6299212598425197,
          "duration": 0.07407399999999598
        },
        {
          "name": "B1",
          "midi": 35,
          "time": 88.88879999999976,
          "velocity": 0.6299212598425197,
          "duration": 0.16666650000000516
        },
        {
          "name": "B2",
          "midi": 47,
          "time": 88.88879999999976,
          "velocity": 0.6299212598425197,
          "duration": 0.16666650000000516
        },
        {
          "name": "B2",
          "midi": 47,
          "time": 89.07398499999977,
          "velocity": 0.6299212598425197,
          "duration": 0.16666650000000516
        },
        {
          "name": "B1",
          "midi": 35,
          "time": 89.07398499999977,
          "velocity": 0.6299212598425197,
          "duration": 0.16666650000000516
        },
        {
          "name": "A3",
          "midi": 57,
          "time": 89.25916999999977,
          "velocity": 0.6299212598425197,
          "duration": 0.16666650000000516
        },
        {
          "name": "A2",
          "midi": 45,
          "time": 89.25916999999977,
          "velocity": 0.6299212598425197,
          "duration": 0.16666650000000516
        },
        {
          "name": "B1",
          "midi": 35,
          "time": 89.44435499999977,
          "velocity": 0.6299212598425197,
          "duration": 0.16666650000000516
        },
        {
          "name": "B2",
          "midi": 47,
          "time": 89.44435499999977,
          "velocity": 0.6299212598425197,
          "duration": 0.16666650000000516
        },
        {
          "name": "B2",
          "midi": 47,
          "time": 89.62953999999978,
          "velocity": 0.6299212598425197,
          "duration": 0.16666650000000516
        },
        {
          "name": "B3",
          "midi": 59,
          "time": 89.62953999999978,
          "velocity": 0.6299212598425197,
          "duration": 0.16666650000000516
        },
        {
          "name": "B2",
          "midi": 47,
          "time": 89.81472499999978,
          "velocity": 0.6299212598425197,
          "duration": 0.16666650000000516
        },
        {
          "name": "B1",
          "midi": 35,
          "time": 89.81472499999978,
          "velocity": 0.6299212598425197,
          "duration": 0.16666650000000516
        },
        {
          "name": "B2",
          "midi": 47,
          "time": 89.99990999999979,
          "velocity": 0.6299212598425197,
          "duration": 0.16666650000000516
        },
        {
          "name": "B1",
          "midi": 35,
          "time": 89.99990999999979,
          "velocity": 0.6299212598425197,
          "duration": 0.16666650000000516
        },
        {
          "name": "A3",
          "midi": 57,
          "time": 90.18509499999979,
          "velocity": 0.6299212598425197,
          "duration": 0.16666650000000516
        },
        {
          "name": "A2",
          "midi": 45,
          "time": 90.18509499999979,
          "velocity": 0.6299212598425197,
          "duration": 0.16666650000000516
        },
        {
          "name": "B1",
          "midi": 35,
          "time": 90.3702799999998,
          "velocity": 0.6299212598425197,
          "duration": 0.16666650000000516
        },
        {
          "name": "B2",
          "midi": 47,
          "time": 90.3702799999998,
          "velocity": 0.6299212598425197,
          "duration": 0.16666650000000516
        },
        {
          "name": "B3",
          "midi": 59,
          "time": 90.5554649999998,
          "velocity": 0.6299212598425197,
          "duration": 0.16666650000000516
        },
        {
          "name": "B2",
          "midi": 47,
          "time": 90.5554649999998,
          "velocity": 0.6299212598425197,
          "duration": 0.16666650000000516
        },
        {
          "name": "B1",
          "midi": 35,
          "time": 90.7406499999998,
          "velocity": 0.6299212598425197,
          "duration": 0.16666650000000516
        },
        {
          "name": "B2",
          "midi": 47,
          "time": 90.7406499999998,
          "velocity": 0.6299212598425197,
          "duration": 0.16666650000000516
        },
        {
          "name": "B2",
          "midi": 47,
          "time": 90.92583499999981,
          "velocity": 0.6299212598425197,
          "duration": 0.16666650000000516
        },
        {
          "name": "B1",
          "midi": 35,
          "time": 90.92583499999981,
          "velocity": 0.6299212598425197,
          "duration": 0.16666650000000516
        },
        {
          "name": "B1",
          "midi": 35,
          "time": 91.11101999999981,
          "velocity": 0.6299212598425197,
          "duration": 0.3333329999999961
        },
        {
          "name": "B2",
          "midi": 47,
          "time": 91.11101999999981,
          "velocity": 0.6299212598425197,
          "duration": 0.3333329999999961
        },
        {
          "name": "A1",
          "midi": 33,
          "time": 91.4813899999998,
          "velocity": 0.6299212598425197,
          "duration": 0.16666650000000516
        },
        {
          "name": "A2",
          "midi": 45,
          "time": 91.4813899999998,
          "velocity": 0.6299212598425197,
          "duration": 0.16666650000000516
        },
        {
          "name": "G2",
          "midi": 43,
          "time": 91.66657499999981,
          "velocity": 0.6299212598425197,
          "duration": 0.3518514999999951
        },
        {
          "name": "G1",
          "midi": 31,
          "time": 91.66657499999981,
          "velocity": 0.6299212598425197,
          "duration": 0.3518514999999951
        },
        {
          "name": "G1",
          "midi": 31,
          "time": 92.0369449999998,
          "velocity": 0.6299212598425197,
          "duration": 0.16666650000000516
        },
        {
          "name": "G2",
          "midi": 43,
          "time": 92.0369449999998,
          "velocity": 0.6299212598425197,
          "duration": 0.16666650000000516
        },
        {
          "name": "F#3",
          "midi": 54,
          "time": 92.22212999999981,
          "velocity": 0.6299212598425197,
          "duration": 0.16666650000000516
        },
        {
          "name": "F#2",
          "midi": 42,
          "time": 92.22212999999981,
          "velocity": 0.6299212598425197,
          "duration": 0.16666650000000516
        },
        {
          "name": "G2",
          "midi": 43,
          "time": 92.40731499999981,
          "velocity": 0.6299212598425197,
          "duration": 0.16666650000000516
        },
        {
          "name": "G1",
          "midi": 31,
          "time": 92.40731499999981,
          "velocity": 0.6299212598425197,
          "duration": 0.16666650000000516
        },
        {
          "name": "G2",
          "midi": 43,
          "time": 92.59249999999982,
          "velocity": 0.6299212598425197,
          "duration": 0.16666650000000516
        },
        {
          "name": "G3",
          "midi": 55,
          "time": 92.59249999999982,
          "velocity": 0.6299212598425197,
          "duration": 0.16666650000000516
        },
        {
          "name": "G2",
          "midi": 43,
          "time": 92.77768499999982,
          "velocity": 0.6299212598425197,
          "duration": 0.16666650000000516
        },
        {
          "name": "G1",
          "midi": 31,
          "time": 92.77768499999982,
          "velocity": 0.6299212598425197,
          "duration": 0.16666650000000516
        },
        {
          "name": "G2",
          "midi": 43,
          "time": 92.96286999999982,
          "velocity": 0.6299212598425197,
          "duration": 0.16666650000000516
        },
        {
          "name": "G1",
          "midi": 31,
          "time": 92.96286999999982,
          "velocity": 0.6299212598425197,
          "duration": 0.16666650000000516
        },
        {
          "name": "A2",
          "midi": 45,
          "time": 93.14805499999983,
          "velocity": 0.6299212598425197,
          "duration": 0.16666650000000516
        },
        {
          "name": "A3",
          "midi": 57,
          "time": 93.14805499999983,
          "velocity": 0.6299212598425197,
          "duration": 0.16666650000000516
        },
        {
          "name": "G2",
          "midi": 43,
          "time": 93.33323999999983,
          "velocity": 0.6299212598425197,
          "duration": 0.16666650000000516
        },
        {
          "name": "G1",
          "midi": 31,
          "time": 93.33323999999983,
          "velocity": 0.6299212598425197,
          "duration": 0.16666650000000516
        },
        {
          "name": "G2",
          "midi": 43,
          "time": 93.51842499999984,
          "velocity": 0.6299212598425197,
          "duration": 0.16666650000000516
        },
        {
          "name": "G3",
          "midi": 55,
          "time": 93.51842499999984,
          "velocity": 0.6299212598425197,
          "duration": 0.16666650000000516
        },
        {
          "name": "G2",
          "midi": 43,
          "time": 93.70360999999984,
          "velocity": 0.6299212598425197,
          "duration": 0.16666650000000516
        },
        {
          "name": "G1",
          "midi": 31,
          "time": 93.70360999999984,
          "velocity": 0.6299212598425197,
          "duration": 0.16666650000000516
        },
        {
          "name": "G1",
          "midi": 31,
          "time": 93.88879499999985,
          "velocity": 0.6299212598425197,
          "duration": 0.16666650000000516
        },
        {
          "name": "G2",
          "midi": 43,
          "time": 93.88879499999985,
          "velocity": 0.6299212598425197,
          "duration": 0.16666650000000516
        },
        {
          "name": "G1",
          "midi": 31,
          "time": 94.07397999999985,
          "velocity": 0.6299212598425197,
          "duration": 0.3333329999999961
        },
        {
          "name": "G2",
          "midi": 43,
          "time": 94.07397999999985,
          "velocity": 0.6299212598425197,
          "duration": 0.3333329999999961
        },
        {
          "name": "A1",
          "midi": 33,
          "time": 94.44434999999984,
          "velocity": 0.6299212598425197,
          "duration": 0.3333329999999961
        },
        {
          "name": "A2",
          "midi": 45,
          "time": 94.44434999999984,
          "velocity": 0.6299212598425197,
          "duration": 0.3333329999999961
        },
        {
          "name": "B1",
          "midi": 35,
          "time": 94.81471999999984,
          "velocity": 0.6299212598425197,
          "duration": 0.16666650000000516
        },
        {
          "name": "B2",
          "midi": 47,
          "time": 94.81471999999984,
          "velocity": 0.6299212598425197,
          "duration": 0.16666650000000516
        },
        {
          "name": "B2",
          "midi": 47,
          "time": 94.99990499999984,
          "velocity": 0.6299212598425197,
          "duration": 0.16666650000000516
        },
        {
          "name": "B1",
          "midi": 35,
          "time": 94.99990499999984,
          "velocity": 0.6299212598425197,
          "duration": 0.16666650000000516
        },
        {
          "name": "A2",
          "midi": 45,
          "time": 95.18508999999985,
          "velocity": 0.6299212598425197,
          "duration": 0.16666650000000516
        },
        {
          "name": "A3",
          "midi": 57,
          "time": 95.18508999999985,
          "velocity": 0.6299212598425197,
          "duration": 0.16666650000000516
        },
        {
          "name": "B1",
          "midi": 35,
          "time": 95.37027499999985,
          "velocity": 0.6299212598425197,
          "duration": 0.16666650000000516
        },
        {
          "name": "B2",
          "midi": 47,
          "time": 95.37027499999985,
          "velocity": 0.6299212598425197,
          "duration": 0.16666650000000516
        },
        {
          "name": "B3",
          "midi": 59,
          "time": 95.55545999999985,
          "velocity": 0.6299212598425197,
          "duration": 0.16666650000000516
        },
        {
          "name": "B2",
          "midi": 47,
          "time": 95.55545999999985,
          "velocity": 0.6299212598425197,
          "duration": 0.16666650000000516
        },
        {
          "name": "B2",
          "midi": 47,
          "time": 95.74064499999986,
          "velocity": 0.6299212598425197,
          "duration": 0.16666650000000516
        },
        {
          "name": "B1",
          "midi": 35,
          "time": 95.74064499999986,
          "velocity": 0.6299212598425197,
          "duration": 0.16666650000000516
        },
        {
          "name": "B1",
          "midi": 35,
          "time": 95.92582999999986,
          "velocity": 0.6299212598425197,
          "duration": 0.16666650000000516
        },
        {
          "name": "B2",
          "midi": 47,
          "time": 95.92582999999986,
          "velocity": 0.6299212598425197,
          "duration": 0.16666650000000516
        },
        {
          "name": "A3",
          "midi": 57,
          "time": 96.11101499999987,
          "velocity": 0.6299212598425197,
          "duration": 0.16666650000000516
        },
        {
          "name": "A2",
          "midi": 45,
          "time": 96.11101499999987,
          "velocity": 0.6299212598425197,
          "duration": 0.16666650000000516
        },
        {
          "name": "B1",
          "midi": 35,
          "time": 96.29619999999987,
          "velocity": 0.6299212598425197,
          "duration": 0.16666650000000516
        },
        {
          "name": "B2",
          "midi": 47,
          "time": 96.29619999999987,
          "velocity": 0.6299212598425197,
          "duration": 0.16666650000000516
        },
        {
          "name": "B2",
          "midi": 47,
          "time": 96.48138499999988,
          "velocity": 0.6299212598425197,
          "duration": 0.16666650000000516
        },
        {
          "name": "B3",
          "midi": 59,
          "time": 96.48138499999988,
          "velocity": 0.6299212598425197,
          "duration": 0.16666650000000516
        },
        {
          "name": "B2",
          "midi": 47,
          "time": 96.66656999999988,
          "velocity": 0.6299212598425197,
          "duration": 0.16666650000000516
        },
        {
          "name": "B1",
          "midi": 35,
          "time": 96.66656999999988,
          "velocity": 0.6299212598425197,
          "duration": 0.16666650000000516
        },
        {
          "name": "B1",
          "midi": 35,
          "time": 96.85175499999988,
          "velocity": 0.6299212598425197,
          "duration": 0.16666650000000516
        },
        {
          "name": "B2",
          "midi": 47,
          "time": 96.85175499999988,
          "velocity": 0.6299212598425197,
          "duration": 0.16666650000000516
        },
        {
          "name": "B2",
          "midi": 47,
          "time": 97.03693999999989,
          "velocity": 0.6299212598425197,
          "duration": 0.3333329999999961
        },
        {
          "name": "B1",
          "midi": 35,
          "time": 97.03693999999989,
          "velocity": 0.6299212598425197,
          "duration": 0.3333329999999961
        },
        {
          "name": "A1",
          "midi": 33,
          "time": 97.40730999999988,
          "velocity": 0.6299212598425197,
          "duration": 0.16666650000000516
        },
        {
          "name": "A2",
          "midi": 45,
          "time": 97.40730999999988,
          "velocity": 0.6299212598425197,
          "duration": 0.16666650000000516
        },
        {
          "name": "G1",
          "midi": 31,
          "time": 97.59249499999989,
          "velocity": 0.6299212598425197,
          "duration": 0.3518514999999951
        },
        {
          "name": "G2",
          "midi": 43,
          "time": 97.59249499999989,
          "velocity": 0.6299212598425197,
          "duration": 0.3518514999999951
        },
        {
          "name": "G2",
          "midi": 43,
          "time": 97.96286499999988,
          "velocity": 0.6299212598425197,
          "duration": 0.16666650000000516
        },
        {
          "name": "G1",
          "midi": 31,
          "time": 97.96286499999988,
          "velocity": 0.6299212598425197,
          "duration": 0.16666650000000516
        },
        {
          "name": "F#3",
          "midi": 54,
          "time": 98.14804999999988,
          "velocity": 0.6299212598425197,
          "duration": 0.16666650000000516
        },
        {
          "name": "F#2",
          "midi": 42,
          "time": 98.14804999999988,
          "velocity": 0.6299212598425197,
          "duration": 0.16666650000000516
        },
        {
          "name": "G1",
          "midi": 31,
          "time": 98.33323499999989,
          "velocity": 0.6299212598425197,
          "duration": 0.16666650000000516
        },
        {
          "name": "G2",
          "midi": 43,
          "time": 98.33323499999989,
          "velocity": 0.6299212598425197,
          "duration": 0.16666650000000516
        },
        {
          "name": "G2",
          "midi": 43,
          "time": 98.51841999999989,
          "velocity": 0.6299212598425197,
          "duration": 0.16666650000000516
        },
        {
          "name": "G3",
          "midi": 55,
          "time": 98.51841999999989,
          "velocity": 0.6299212598425197,
          "duration": 0.16666650000000516
        },
        {
          "name": "G2",
          "midi": 43,
          "time": 98.7036049999999,
          "velocity": 0.6299212598425197,
          "duration": 0.16666650000000516
        },
        {
          "name": "G1",
          "midi": 31,
          "time": 98.7036049999999,
          "velocity": 0.6299212598425197,
          "duration": 0.16666650000000516
        },
        {
          "name": "G1",
          "midi": 31,
          "time": 98.8887899999999,
          "velocity": 0.6299212598425197,
          "duration": 0.16666650000000516
        },
        {
          "name": "G2",
          "midi": 43,
          "time": 98.8887899999999,
          "velocity": 0.6299212598425197,
          "duration": 0.16666650000000516
        },
        {
          "name": "A3",
          "midi": 57,
          "time": 99.0739749999999,
          "velocity": 0.6299212598425197,
          "duration": 0.16666650000000516
        },
        {
          "name": "A2",
          "midi": 45,
          "time": 99.0739749999999,
          "velocity": 0.6299212598425197,
          "duration": 0.16666650000000516
        },
        {
          "name": "G2",
          "midi": 43,
          "time": 99.25915999999991,
          "velocity": 0.6299212598425197,
          "duration": 0.16666650000000516
        },
        {
          "name": "G1",
          "midi": 31,
          "time": 99.25915999999991,
          "velocity": 0.6299212598425197,
          "duration": 0.16666650000000516
        },
        {
          "name": "G3",
          "midi": 55,
          "time": 99.44434499999991,
          "velocity": 0.6299212598425197,
          "duration": 0.16666650000000516
        },
        {
          "name": "G2",
          "midi": 43,
          "time": 99.44434499999991,
          "velocity": 0.6299212598425197,
          "duration": 0.16666650000000516
        },
        {
          "name": "G2",
          "midi": 43,
          "time": 99.62952999999992,
          "velocity": 0.6299212598425197,
          "duration": 0.16666650000000516
        },
        {
          "name": "G1",
          "midi": 31,
          "time": 99.62952999999992,
          "velocity": 0.6299212598425197,
          "duration": 0.16666650000000516
        },
        {
          "name": "G1",
          "midi": 31,
          "time": 99.81471499999992,
          "velocity": 0.6299212598425197,
          "duration": 0.16666650000000516
        },
        {
          "name": "G2",
          "midi": 43,
          "time": 99.81471499999992,
          "velocity": 0.6299212598425197,
          "duration": 0.16666650000000516
        },
        {
          "name": "G2",
          "midi": 43,
          "time": 99.99989999999993,
          "velocity": 0.6299212598425197,
          "duration": 0.3333329999999961
        },
        {
          "name": "G1",
          "midi": 31,
          "time": 99.99989999999993,
          "velocity": 0.6299212598425197,
          "duration": 0.3333329999999961
        },
        {
          "name": "A2",
          "midi": 45,
          "time": 100.37026999999992,
          "velocity": 0.6299212598425197,
          "duration": 0.3333329999999961
        },
        {
          "name": "A1",
          "midi": 33,
          "time": 100.37026999999992,
          "velocity": 0.6299212598425197,
          "duration": 0.3333329999999961
        },
        {
          "name": "B2",
          "midi": 47,
          "time": 100.74063999999991,
          "velocity": 0.6299212598425197,
          "duration": 0.16666650000000516
        },
        {
          "name": "B1",
          "midi": 35,
          "time": 100.74063999999991,
          "velocity": 0.6299212598425197,
          "duration": 0.16666650000000516
        },
        {
          "name": "B2",
          "midi": 47,
          "time": 100.92582499999992,
          "velocity": 0.6299212598425197,
          "duration": 0.16666650000000516
        },
        {
          "name": "B1",
          "midi": 35,
          "time": 100.92582499999992,
          "velocity": 0.6299212598425197,
          "duration": 0.16666650000000516
        },
        {
          "name": "A3",
          "midi": 57,
          "time": 101.11100999999992,
          "velocity": 0.6299212598425197,
          "duration": 0.16666650000000516
        },
        {
          "name": "A2",
          "midi": 45,
          "time": 101.11100999999992,
          "velocity": 0.6299212598425197,
          "duration": 0.16666650000000516
        },
        {
          "name": "B1",
          "midi": 35,
          "time": 101.29619499999993,
          "velocity": 0.6299212598425197,
          "duration": 0.16666650000000516
        },
        {
          "name": "B2",
          "midi": 47,
          "time": 101.29619499999993,
          "velocity": 0.6299212598425197,
          "duration": 0.16666650000000516
        },
        {
          "name": "B3",
          "midi": 59,
          "time": 101.48137999999993,
          "velocity": 0.6299212598425197,
          "duration": 0.16666650000000516
        },
        {
          "name": "B2",
          "midi": 47,
          "time": 101.48137999999993,
          "velocity": 0.6299212598425197,
          "duration": 0.16666650000000516
        },
        {
          "name": "B1",
          "midi": 35,
          "time": 101.66656499999993,
          "velocity": 0.6299212598425197,
          "duration": 0.16666650000000516
        },
        {
          "name": "B2",
          "midi": 47,
          "time": 101.66656499999993,
          "velocity": 0.6299212598425197,
          "duration": 0.16666650000000516
        },
        {
          "name": "B2",
          "midi": 47,
          "time": 101.85174999999994,
          "velocity": 0.6299212598425197,
          "duration": 0.16666650000000516
        },
        {
          "name": "B1",
          "midi": 35,
          "time": 101.85174999999994,
          "velocity": 0.6299212598425197,
          "duration": 0.16666650000000516
        },
        {
          "name": "A3",
          "midi": 57,
          "time": 102.03693499999994,
          "velocity": 0.6299212598425197,
          "duration": 0.16666650000000516
        },
        {
          "name": "A2",
          "midi": 45,
          "time": 102.03693499999994,
          "velocity": 0.6299212598425197,
          "duration": 0.16666650000000516
        },
        {
          "name": "B1",
          "midi": 35,
          "time": 102.22211999999995,
          "velocity": 0.6299212598425197,
          "duration": 0.16666650000000516
        },
        {
          "name": "B2",
          "midi": 47,
          "time": 102.22211999999995,
          "velocity": 0.6299212598425197,
          "duration": 0.16666650000000516
        },
        {
          "name": "B3",
          "midi": 59,
          "time": 102.40730499999995,
          "velocity": 0.6299212598425197,
          "duration": 0.16666650000000516
        },
        {
          "name": "B2",
          "midi": 47,
          "time": 102.40730499999995,
          "velocity": 0.6299212598425197,
          "duration": 0.16666650000000516
        },
        {
          "name": "B1",
          "midi": 35,
          "time": 102.59248999999996,
          "velocity": 0.6299212598425197,
          "duration": 0.16666650000000516
        },
        {
          "name": "B2",
          "midi": 47,
          "time": 102.59248999999996,
          "velocity": 0.6299212598425197,
          "duration": 0.16666650000000516
        },
        {
          "name": "B1",
          "midi": 35,
          "time": 102.77767499999996,
          "velocity": 0.6299212598425197,
          "duration": 0.16666650000000516
        },
        {
          "name": "B2",
          "midi": 47,
          "time": 102.77767499999996,
          "velocity": 0.6299212598425197,
          "duration": 0.16666650000000516
        },
        {
          "name": "B1",
          "midi": 35,
          "time": 102.96285999999996,
          "velocity": 0.6299212598425197,
          "duration": 0.3333329999999961
        },
        {
          "name": "B2",
          "midi": 47,
          "time": 102.96285999999996,
          "velocity": 0.6299212598425197,
          "duration": 0.3333329999999961
        },
        {
          "name": "A2",
          "midi": 45,
          "time": 103.33322999999996,
          "velocity": 0.6299212598425197,
          "duration": 0.16666650000000516
        },
        {
          "name": "A1",
          "midi": 33,
          "time": 103.33322999999996,
          "velocity": 0.6299212598425197,
          "duration": 0.16666650000000516
        },
        {
          "name": "G1",
          "midi": 31,
          "time": 103.51841499999996,
          "velocity": 0.6299212598425197,
          "duration": 0.3518514999999951
        },
        {
          "name": "G2",
          "midi": 43,
          "time": 103.51841499999996,
          "velocity": 0.6299212598425197,
          "duration": 0.3518514999999951
        },
        {
          "name": "G2",
          "midi": 43,
          "time": 103.88878499999996,
          "velocity": 0.6299212598425197,
          "duration": 0.16666650000000516
        },
        {
          "name": "G1",
          "midi": 31,
          "time": 103.88878499999996,
          "velocity": 0.6299212598425197,
          "duration": 0.16666650000000516
        },
        {
          "name": "F#2",
          "midi": 42,
          "time": 104.07396999999996,
          "velocity": 0.6299212598425197,
          "duration": 0.16666650000000516
        },
        {
          "name": "F#3",
          "midi": 54,
          "time": 104.07396999999996,
          "velocity": 0.6299212598425197,
          "duration": 0.16666650000000516
        },
        {
          "name": "G1",
          "midi": 31,
          "time": 104.25915499999996,
          "velocity": 0.6299212598425197,
          "duration": 0.16666650000000516
        },
        {
          "name": "G2",
          "midi": 43,
          "time": 104.25915499999996,
          "velocity": 0.6299212598425197,
          "duration": 0.16666650000000516
        },
        {
          "name": "G2",
          "midi": 43,
          "time": 104.44433999999997,
          "velocity": 0.6299212598425197,
          "duration": 0.16666650000000516
        },
        {
          "name": "G3",
          "midi": 55,
          "time": 104.44433999999997,
          "velocity": 0.6299212598425197,
          "duration": 0.16666650000000516
        },
        {
          "name": "G1",
          "midi": 31,
          "time": 104.62952499999997,
          "velocity": 0.6299212598425197,
          "duration": 0.16666650000000516
        },
        {
          "name": "G2",
          "midi": 43,
          "time": 104.62952499999997,
          "velocity": 0.6299212598425197,
          "duration": 0.16666650000000516
        },
        {
          "name": "G1",
          "midi": 31,
          "time": 104.81470999999998,
          "velocity": 0.6299212598425197,
          "duration": 0.16666650000000516
        },
        {
          "name": "G2",
          "midi": 43,
          "time": 104.81470999999998,
          "velocity": 0.6299212598425197,
          "duration": 0.16666650000000516
        },
        {
          "name": "A3",
          "midi": 57,
          "time": 104.99989499999998,
          "velocity": 0.6299212598425197,
          "duration": 0.16666650000000516
        },
        {
          "name": "A2",
          "midi": 45,
          "time": 104.99989499999998,
          "velocity": 0.6299212598425197,
          "duration": 0.16666650000000516
        },
        {
          "name": "G1",
          "midi": 31,
          "time": 105.18507999999999,
          "velocity": 0.6299212598425197,
          "duration": 0.16666650000000516
        },
        {
          "name": "G2",
          "midi": 43,
          "time": 105.18507999999999,
          "velocity": 0.6299212598425197,
          "duration": 0.16666650000000516
        },
        {
          "name": "G2",
          "midi": 43,
          "time": 105.37026499999999,
          "velocity": 0.6299212598425197,
          "duration": 0.16666650000000516
        },
        {
          "name": "G3",
          "midi": 55,
          "time": 105.37026499999999,
          "velocity": 0.6299212598425197,
          "duration": 0.16666650000000516
        },
        {
          "name": "G2",
          "midi": 43,
          "time": 105.55545,
          "velocity": 0.6299212598425197,
          "duration": 0.16666650000000516
        },
        {
          "name": "G1",
          "midi": 31,
          "time": 105.55545,
          "velocity": 0.6299212598425197,
          "duration": 0.16666650000000516
        },
        {
          "name": "G1",
          "midi": 31,
          "time": 105.740635,
          "velocity": 0.6299212598425197,
          "duration": 0.16666650000000516
        },
        {
          "name": "G2",
          "midi": 43,
          "time": 105.740635,
          "velocity": 0.6299212598425197,
          "duration": 0.16666650000000516
        },
        {
          "name": "G1",
          "midi": 31,
          "time": 105.92582,
          "velocity": 0.6299212598425197,
          "duration": 0.3333329999999961
        },
        {
          "name": "G2",
          "midi": 43,
          "time": 105.92582,
          "velocity": 0.6299212598425197,
          "duration": 0.3333329999999961
        },
        {
          "name": "A2",
          "midi": 45,
          "time": 106.29619,
          "velocity": 0.6299212598425197,
          "duration": 0.3333329999999961
        },
        {
          "name": "A1",
          "midi": 33,
          "time": 106.29619,
          "velocity": 0.6299212598425197,
          "duration": 0.3333329999999961
        },
        {
          "name": "B2",
          "midi": 47,
          "time": 106.66655999999999,
          "velocity": 0.6299212598425197,
          "duration": 0.16666650000000516
        },
        {
          "name": "B1",
          "midi": 35,
          "time": 106.66655999999999,
          "velocity": 0.6299212598425197,
          "duration": 0.16666650000000516
        },
        {
          "name": "B1",
          "midi": 35,
          "time": 106.851745,
          "velocity": 0.6299212598425197,
          "duration": 0.16666650000000516
        },
        {
          "name": "B2",
          "midi": 47,
          "time": 106.851745,
          "velocity": 0.6299212598425197,
          "duration": 0.16666650000000516
        },
        {
          "name": "A3",
          "midi": 57,
          "time": 107.03693,
          "velocity": 0.6299212598425197,
          "duration": 0.16666650000000516
        },
        {
          "name": "A2",
          "midi": 45,
          "time": 107.03693,
          "velocity": 0.6299212598425197,
          "duration": 0.16666650000000516
        },
        {
          "name": "B2",
          "midi": 47,
          "time": 107.222115,
          "velocity": 0.6299212598425197,
          "duration": 0.16666650000000516
        },
        {
          "name": "B1",
          "midi": 35,
          "time": 107.222115,
          "velocity": 0.6299212598425197,
          "duration": 0.16666650000000516
        },
        {
          "name": "B3",
          "midi": 59,
          "time": 107.4073,
          "velocity": 0.6299212598425197,
          "duration": 0.16666650000000516
        },
        {
          "name": "B2",
          "midi": 47,
          "time": 107.4073,
          "velocity": 0.6299212598425197,
          "duration": 0.16666650000000516
        },
        {
          "name": "B1",
          "midi": 35,
          "time": 107.59248500000001,
          "velocity": 0.6299212598425197,
          "duration": 0.16666650000000516
        },
        {
          "name": "B2",
          "midi": 47,
          "time": 107.59248500000001,
          "velocity": 0.6299212598425197,
          "duration": 0.16666650000000516
        },
        {
          "name": "B2",
          "midi": 47,
          "time": 107.77767000000001,
          "velocity": 0.6299212598425197,
          "duration": 0.16666650000000516
        },
        {
          "name": "B1",
          "midi": 35,
          "time": 107.77767000000001,
          "velocity": 0.6299212598425197,
          "duration": 0.16666650000000516
        },
        {
          "name": "A2",
          "midi": 45,
          "time": 107.96285500000002,
          "velocity": 0.6299212598425197,
          "duration": 0.16666650000000516
        },
        {
          "name": "A3",
          "midi": 57,
          "time": 107.96285500000002,
          "velocity": 0.6299212598425197,
          "duration": 0.16666650000000516
        },
        {
          "name": "B1",
          "midi": 35,
          "time": 108.14804000000002,
          "velocity": 0.6299212598425197,
          "duration": 0.16666650000000516
        },
        {
          "name": "B2",
          "midi": 47,
          "time": 108.14804000000002,
          "velocity": 0.6299212598425197,
          "duration": 0.16666650000000516
        },
        {
          "name": "B3",
          "midi": 59,
          "time": 108.33322500000003,
          "velocity": 0.6299212598425197,
          "duration": 0.16666650000000516
        },
        {
          "name": "B2",
          "midi": 47,
          "time": 108.33322500000003,
          "velocity": 0.6299212598425197,
          "duration": 0.16666650000000516
        },
        {
          "name": "B2",
          "midi": 47,
          "time": 108.51841000000003,
          "velocity": 0.6299212598425197,
          "duration": 0.16666650000000516
        },
        {
          "name": "B1",
          "midi": 35,
          "time": 108.51841000000003,
          "velocity": 0.6299212598425197,
          "duration": 0.16666650000000516
        },
        {
          "name": "B2",
          "midi": 47,
          "time": 108.70359500000004,
          "velocity": 0.6299212598425197,
          "duration": 0.16666650000000516
        },
        {
          "name": "B1",
          "midi": 35,
          "time": 108.70359500000004,
          "velocity": 0.6299212598425197,
          "duration": 0.16666650000000516
        },
        {
          "name": "B2",
          "midi": 47,
          "time": 108.88878000000004,
          "velocity": 0.6299212598425197,
          "duration": 0.3333329999999961
        },
        {
          "name": "B1",
          "midi": 35,
          "time": 108.88878000000004,
          "velocity": 0.6299212598425197,
          "duration": 0.3333329999999961
        },
        {
          "name": "A2",
          "midi": 45,
          "time": 109.25915000000003,
          "velocity": 0.6299212598425197,
          "duration": 0.16666650000000516
        },
        {
          "name": "A1",
          "midi": 33,
          "time": 109.25915000000003,
          "velocity": 0.6299212598425197,
          "duration": 0.16666650000000516
        },
        {
          "name": "G2",
          "midi": 43,
          "time": 109.44433500000004,
          "velocity": 0.6299212598425197,
          "duration": 0.3518514999999951
        },
        {
          "name": "G1",
          "midi": 31,
          "time": 109.44433500000004,
          "velocity": 0.6299212598425197,
          "duration": 0.3518514999999951
        },
        {
          "name": "G2",
          "midi": 43,
          "time": 109.81470500000003,
          "velocity": 0.6299212598425197,
          "duration": 0.16666650000000516
        },
        {
          "name": "G1",
          "midi": 31,
          "time": 109.81470500000003,
          "velocity": 0.6299212598425197,
          "duration": 0.16666650000000516
        },
        {
          "name": "F#3",
          "midi": 54,
          "time": 109.99989000000004,
          "velocity": 0.6299212598425197,
          "duration": 0.16666650000000516
        },
        {
          "name": "F#2",
          "midi": 42,
          "time": 109.99989000000004,
          "velocity": 0.6299212598425197,
          "duration": 0.16666650000000516
        },
        {
          "name": "G1",
          "midi": 31,
          "time": 110.18507500000004,
          "velocity": 0.6299212598425197,
          "duration": 0.16666650000000516
        },
        {
          "name": "G2",
          "midi": 43,
          "time": 110.18507500000004,
          "velocity": 0.6299212598425197,
          "duration": 0.16666650000000516
        },
        {
          "name": "G3",
          "midi": 55,
          "time": 110.37026000000004,
          "velocity": 0.6299212598425197,
          "duration": 0.16666650000000516
        },
        {
          "name": "G2",
          "midi": 43,
          "time": 110.37026000000004,
          "velocity": 0.6299212598425197,
          "duration": 0.16666650000000516
        },
        {
          "name": "G1",
          "midi": 31,
          "time": 110.55544500000005,
          "velocity": 0.6299212598425197,
          "duration": 0.16666650000000516
        },
        {
          "name": "G2",
          "midi": 43,
          "time": 110.55544500000005,
          "velocity": 0.6299212598425197,
          "duration": 0.16666650000000516
        },
        {
          "name": "G1",
          "midi": 31,
          "time": 110.74063000000005,
          "velocity": 0.6299212598425197,
          "duration": 0.16666650000000516
        },
        {
          "name": "G2",
          "midi": 43,
          "time": 110.74063000000005,
          "velocity": 0.6299212598425197,
          "duration": 0.16666650000000516
        },
        {
          "name": "A3",
          "midi": 57,
          "time": 110.92581500000006,
          "velocity": 0.6299212598425197,
          "duration": 0.16666650000000516
        },
        {
          "name": "A2",
          "midi": 45,
          "time": 110.92581500000006,
          "velocity": 0.6299212598425197,
          "duration": 0.16666650000000516
        },
        {
          "name": "G1",
          "midi": 31,
          "time": 111.11100000000006,
          "velocity": 0.6299212598425197,
          "duration": 0.16666650000000516
        },
        {
          "name": "G2",
          "midi": 43,
          "time": 111.11100000000006,
          "velocity": 0.6299212598425197,
          "duration": 0.16666650000000516
        },
        {
          "name": "G3",
          "midi": 55,
          "time": 111.29618500000007,
          "velocity": 0.6299212598425197,
          "duration": 0.16666650000000516
        },
        {
          "name": "G2",
          "midi": 43,
          "time": 111.29618500000007,
          "velocity": 0.6299212598425197,
          "duration": 0.16666650000000516
        },
        {
          "name": "G1",
          "midi": 31,
          "time": 111.48137000000007,
          "velocity": 0.6299212598425197,
          "duration": 0.16666650000000516
        },
        {
          "name": "G2",
          "midi": 43,
          "time": 111.48137000000007,
          "velocity": 0.6299212598425197,
          "duration": 0.16666650000000516
        },
        {
          "name": "G2",
          "midi": 43,
          "time": 111.66655500000007,
          "velocity": 0.6299212598425197,
          "duration": 0.16666650000000516
        },
        {
          "name": "G1",
          "midi": 31,
          "time": 111.66655500000007,
          "velocity": 0.6299212598425197,
          "duration": 0.16666650000000516
        },
        {
          "name": "G1",
          "midi": 31,
          "time": 111.85174000000008,
          "velocity": 0.6299212598425197,
          "duration": 0.3333329999999961
        },
        {
          "name": "G2",
          "midi": 43,
          "time": 111.85174000000008,
          "velocity": 0.6299212598425197,
          "duration": 0.3333329999999961
        },
        {
          "name": "A2",
          "midi": 45,
          "time": 112.22211000000007,
          "velocity": 0.6299212598425197,
          "duration": 0.3333329999999961
        },
        {
          "name": "A1",
          "midi": 33,
          "time": 112.22211000000007,
          "velocity": 0.6299212598425197,
          "duration": 0.3333329999999961
        }
      ],
      "controlChanges": {
        "7": [
          {
            "number": 7,
            "time": 0,
            "value": 1
          }
        ]
      },
      "id": 1,
      "name": "Final Fantasy",
      "instrumentNumber": 30,
      "instrument": "distortion guitar",
      "instrumentFamily": "guitar",
      "channelNumber": 0,
      "isPercussion": false
    },
    {
      "startTime": 0,
      "duration": 112.55544300000003,
      "length": 932,
      "notes": [
        {
          "name": "B1",
          "midi": 35,
          "time": 0,
          "velocity": 0.6299212598425197,
          "duration": 0.16666650000000002
        },
        {
          "name": "B2",
          "midi": 47,
          "time": 0,
          "velocity": 0.6299212598425197,
          "duration": 0.16666650000000002
        },
        {
          "name": "B2",
          "midi": 47,
          "time": 0.18518500000000002,
          "velocity": 0.6299212598425197,
          "duration": 0.16666650000000002
        },
        {
          "name": "B1",
          "midi": 35,
          "time": 0.18518500000000002,
          "velocity": 0.6299212598425197,
          "duration": 0.16666650000000002
        },
        {
          "name": "A3",
          "midi": 57,
          "time": 0.37037000000000003,
          "velocity": 0.6299212598425197,
          "duration": 0.1666665
        },
        {
          "name": "A2",
          "midi": 45,
          "time": 0.37037000000000003,
          "velocity": 0.6299212598425197,
          "duration": 0.1666665
        },
        {
          "name": "B2",
          "midi": 47,
          "time": 0.555555,
          "velocity": 0.6299212598425197,
          "duration": 0.16666650000000005
        },
        {
          "name": "B1",
          "midi": 35,
          "time": 0.555555,
          "velocity": 0.6299212598425197,
          "duration": 0.16666650000000005
        },
        {
          "name": "B2",
          "midi": 47,
          "time": 0.7407400000000001,
          "velocity": 0.6299212598425197,
          "duration": 0.16666650000000005
        },
        {
          "name": "B3",
          "midi": 59,
          "time": 0.7407400000000001,
          "velocity": 0.6299212598425197,
          "duration": 0.16666650000000005
        },
        {
          "name": "B2",
          "midi": 47,
          "time": 0.9259250000000001,
          "velocity": 0.6299212598425197,
          "duration": 0.16666650000000005
        },
        {
          "name": "B1",
          "midi": 35,
          "time": 0.9259250000000001,
          "velocity": 0.6299212598425197,
          "duration": 0.16666650000000005
        },
        {
          "name": "B1",
          "midi": 35,
          "time": 1.1111100000000003,
          "velocity": 0.6299212598425197,
          "duration": 0.16666650000000005
        },
        {
          "name": "B2",
          "midi": 47,
          "time": 1.1111100000000003,
          "velocity": 0.6299212598425197,
          "duration": 0.16666650000000005
        },
        {
          "name": "A3",
          "midi": 57,
          "time": 1.2962950000000004,
          "velocity": 0.6299212598425197,
          "duration": 0.16666650000000005
        },
        {
          "name": "A2",
          "midi": 45,
          "time": 1.2962950000000004,
          "velocity": 0.6299212598425197,
          "duration": 0.16666650000000005
        },
        {
          "name": "B2",
          "midi": 47,
          "time": 1.4814800000000006,
          "velocity": 0.6299212598425197,
          "duration": 0.16666650000000005
        },
        {
          "name": "B1",
          "midi": 35,
          "time": 1.4814800000000006,
          "velocity": 0.6299212598425197,
          "duration": 0.16666650000000005
        },
        {
          "name": "B3",
          "midi": 59,
          "time": 1.6666650000000007,
          "velocity": 0.6299212598425197,
          "duration": 0.16666650000000005
        },
        {
          "name": "B2",
          "midi": 47,
          "time": 1.6666650000000007,
          "velocity": 0.6299212598425197,
          "duration": 0.16666650000000005
        },
        {
          "name": "B1",
          "midi": 35,
          "time": 1.8518500000000009,
          "velocity": 0.6299212598425197,
          "duration": 0.16666650000000005
        },
        {
          "name": "B2",
          "midi": 47,
          "time": 1.8518500000000009,
          "velocity": 0.6299212598425197,
          "duration": 0.16666650000000005
        },
        {
          "name": "B2",
          "midi": 47,
          "time": 2.037035000000001,
          "velocity": 0.6299212598425197,
          "duration": 0.16666649999999983
        },
        {
          "name": "B1",
          "midi": 35,
          "time": 2.037035000000001,
          "velocity": 0.6299212598425197,
          "duration": 0.16666649999999983
        },
        {
          "name": "B2",
          "midi": 47,
          "time": 2.2222200000000005,
          "velocity": 0.6299212598425197,
          "duration": 0.3333330000000001
        },
        {
          "name": "B1",
          "midi": 35,
          "time": 2.2222200000000005,
          "velocity": 0.6299212598425197,
          "duration": 0.3333330000000001
        },
        {
          "name": "A1",
          "midi": 33,
          "time": 2.592590000000001,
          "velocity": 0.6299212598425197,
          "duration": 0.16666649999999983
        },
        {
          "name": "A2",
          "midi": 45,
          "time": 2.592590000000001,
          "velocity": 0.6299212598425197,
          "duration": 0.16666649999999983
        },
        {
          "name": "G1",
          "midi": 31,
          "time": 2.7777750000000005,
          "velocity": 0.6299212598425197,
          "duration": 0.3518515
        },
        {
          "name": "G2",
          "midi": 43,
          "time": 2.7777750000000005,
          "velocity": 0.6299212598425197,
          "duration": 0.3518515
        },
        {
          "name": "G1",
          "midi": 31,
          "time": 3.1481450000000004,
          "velocity": 0.6299212598425197,
          "duration": 0.16666649999999983
        },
        {
          "name": "G2",
          "midi": 43,
          "time": 3.1481450000000004,
          "velocity": 0.6299212598425197,
          "duration": 0.16666649999999983
        },
        {
          "name": "F#2",
          "midi": 42,
          "time": 3.33333,
          "velocity": 0.6299212598425197,
          "duration": 0.16666649999999983
        },
        {
          "name": "F#3",
          "midi": 54,
          "time": 3.33333,
          "velocity": 0.6299212598425197,
          "duration": 0.16666649999999983
        },
        {
          "name": "G2",
          "midi": 43,
          "time": 3.518515,
          "velocity": 0.6299212598425197,
          "duration": 0.16666649999999983
        },
        {
          "name": "G1",
          "midi": 31,
          "time": 3.518515,
          "velocity": 0.6299212598425197,
          "duration": 0.16666649999999983
        },
        {
          "name": "G2",
          "midi": 43,
          "time": 3.7036999999999995,
          "velocity": 0.6299212598425197,
          "duration": 0.16666649999999983
        },
        {
          "name": "G3",
          "midi": 55,
          "time": 3.7036999999999995,
          "velocity": 0.6299212598425197,
          "duration": 0.16666649999999983
        },
        {
          "name": "G1",
          "midi": 31,
          "time": 3.8888849999999993,
          "velocity": 0.6299212598425197,
          "duration": 0.16666649999999983
        },
        {
          "name": "G2",
          "midi": 43,
          "time": 3.8888849999999993,
          "velocity": 0.6299212598425197,
          "duration": 0.16666649999999983
        },
        {
          "name": "G1",
          "midi": 31,
          "time": 4.074069999999999,
          "velocity": 0.6299212598425197,
          "duration": 0.16666649999999983
        },
        {
          "name": "G2",
          "midi": 43,
          "time": 4.074069999999999,
          "velocity": 0.6299212598425197,
          "duration": 0.16666649999999983
        },
        {
          "name": "A2",
          "midi": 45,
          "time": 4.259254999999999,
          "velocity": 0.6299212598425197,
          "duration": 0.16666649999999983
        },
        {
          "name": "A3",
          "midi": 57,
          "time": 4.259254999999999,
          "velocity": 0.6299212598425197,
          "duration": 0.16666649999999983
        },
        {
          "name": "G1",
          "midi": 31,
          "time": 4.444439999999998,
          "velocity": 0.6299212598425197,
          "duration": 0.16666649999999983
        },
        {
          "name": "G2",
          "midi": 43,
          "time": 4.444439999999998,
          "velocity": 0.6299212598425197,
          "duration": 0.16666649999999983
        },
        {
          "name": "G3",
          "midi": 55,
          "time": 4.629624999999998,
          "velocity": 0.6299212598425197,
          "duration": 0.16666649999999983
        },
        {
          "name": "G2",
          "midi": 43,
          "time": 4.629624999999998,
          "velocity": 0.6299212598425197,
          "duration": 0.16666649999999983
        },
        {
          "name": "G1",
          "midi": 31,
          "time": 4.814809999999998,
          "velocity": 0.6299212598425197,
          "duration": 0.16666649999999983
        },
        {
          "name": "G2",
          "midi": 43,
          "time": 4.814809999999998,
          "velocity": 0.6299212598425197,
          "duration": 0.16666649999999983
        },
        {
          "name": "G1",
          "midi": 31,
          "time": 4.9999949999999975,
          "velocity": 0.6299212598425197,
          "duration": 0.16666649999999983
        },
        {
          "name": "G2",
          "midi": 43,
          "time": 4.9999949999999975,
          "velocity": 0.6299212598425197,
          "duration": 0.16666649999999983
        },
        {
          "name": "G2",
          "midi": 43,
          "time": 5.185179999999997,
          "velocity": 0.6299212598425197,
          "duration": 0.33333299999999966
        },
        {
          "name": "G1",
          "midi": 31,
          "time": 5.185179999999997,
          "velocity": 0.6299212598425197,
          "duration": 0.33333299999999966
        },
        {
          "name": "A1",
          "midi": 33,
          "time": 5.555549999999997,
          "velocity": 0.6299212598425197,
          "duration": 0.33333299999999966
        },
        {
          "name": "A2",
          "midi": 45,
          "time": 5.555549999999997,
          "velocity": 0.6299212598425197,
          "duration": 0.33333299999999966
        },
        {
          "name": "B2",
          "midi": 47,
          "time": 5.925919999999996,
          "velocity": 0.6299212598425197,
          "duration": 0.16666649999999983
        },
        {
          "name": "B1",
          "midi": 35,
          "time": 5.925919999999996,
          "velocity": 0.6299212598425197,
          "duration": 0.16666649999999983
        },
        {
          "name": "B2",
          "midi": 47,
          "time": 6.111104999999996,
          "velocity": 0.6299212598425197,
          "duration": 0.16666649999999983
        },
        {
          "name": "B1",
          "midi": 35,
          "time": 6.111104999999996,
          "velocity": 0.6299212598425197,
          "duration": 0.16666649999999983
        },
        {
          "name": "A3",
          "midi": 57,
          "time": 6.2962899999999955,
          "velocity": 0.6299212598425197,
          "duration": 0.16666649999999983
        },
        {
          "name": "A2",
          "midi": 45,
          "time": 6.2962899999999955,
          "velocity": 0.6299212598425197,
          "duration": 0.16666649999999983
        },
        {
          "name": "B1",
          "midi": 35,
          "time": 6.481474999999995,
          "velocity": 0.6299212598425197,
          "duration": 0.16666649999999983
        },
        {
          "name": "B2",
          "midi": 47,
          "time": 6.481474999999995,
          "velocity": 0.6299212598425197,
          "duration": 0.16666649999999983
        },
        {
          "name": "B2",
          "midi": 47,
          "time": 6.666659999999995,
          "velocity": 0.6299212598425197,
          "duration": 0.16666649999999983
        },
        {
          "name": "B3",
          "midi": 59,
          "time": 6.666659999999995,
          "velocity": 0.6299212598425197,
          "duration": 0.16666649999999983
        },
        {
          "name": "B1",
          "midi": 35,
          "time": 6.851844999999995,
          "velocity": 0.6299212598425197,
          "duration": 0.16666649999999983
        },
        {
          "name": "B2",
          "midi": 47,
          "time": 6.851844999999995,
          "velocity": 0.6299212598425197,
          "duration": 0.16666649999999983
        },
        {
          "name": "B1",
          "midi": 35,
          "time": 7.037029999999994,
          "velocity": 0.6299212598425197,
          "duration": 0.16666649999999983
        },
        {
          "name": "B2",
          "midi": 47,
          "time": 7.037029999999994,
          "velocity": 0.6299212598425197,
          "duration": 0.16666649999999983
        },
        {
          "name": "A2",
          "midi": 45,
          "time": 7.222214999999994,
          "velocity": 0.6299212598425197,
          "duration": 0.16666649999999983
        },
        {
          "name": "A3",
          "midi": 57,
          "time": 7.222214999999994,
          "velocity": 0.6299212598425197,
          "duration": 0.16666649999999983
        },
        {
          "name": "B2",
          "midi": 47,
          "time": 7.407399999999994,
          "velocity": 0.6299212598425197,
          "duration": 0.16666649999999983
        },
        {
          "name": "B1",
          "midi": 35,
          "time": 7.407399999999994,
          "velocity": 0.6299212598425197,
          "duration": 0.16666649999999983
        },
        {
          "name": "B3",
          "midi": 59,
          "time": 7.5925849999999935,
          "velocity": 0.6299212598425197,
          "duration": 0.16666649999999983
        },
        {
          "name": "B2",
          "midi": 47,
          "time": 7.5925849999999935,
          "velocity": 0.6299212598425197,
          "duration": 0.16666649999999983
        },
        {
          "name": "B2",
          "midi": 47,
          "time": 7.777769999999993,
          "velocity": 0.6299212598425197,
          "duration": 0.16666649999999983
        },
        {
          "name": "B1",
          "midi": 35,
          "time": 7.777769999999993,
          "velocity": 0.6299212598425197,
          "duration": 0.16666649999999983
        },
        {
          "name": "B2",
          "midi": 47,
          "time": 7.962954999999993,
          "velocity": 0.6299212598425197,
          "duration": 0.16666650000000072
        },
        {
          "name": "B1",
          "midi": 35,
          "time": 7.962954999999993,
          "velocity": 0.6299212598425197,
          "duration": 0.16666650000000072
        },
        {
          "name": "B1",
          "midi": 35,
          "time": 8.148139999999994,
          "velocity": 0.6299212598425197,
          "duration": 0.33333299999999966
        },
        {
          "name": "B2",
          "midi": 47,
          "time": 8.148139999999994,
          "velocity": 0.6299212598425197,
          "duration": 0.33333299999999966
        },
        {
          "name": "A1",
          "midi": 33,
          "time": 8.518509999999994,
          "velocity": 0.6299212598425197,
          "duration": 0.16666649999999983
        },
        {
          "name": "A2",
          "midi": 45,
          "time": 8.518509999999994,
          "velocity": 0.6299212598425197,
          "duration": 0.16666649999999983
        },
        {
          "name": "G1",
          "midi": 31,
          "time": 8.703694999999994,
          "velocity": 0.6299212598425197,
          "duration": 0.35185150000000043
        },
        {
          "name": "G2",
          "midi": 43,
          "time": 8.703694999999994,
          "velocity": 0.6299212598425197,
          "duration": 0.35185150000000043
        },
        {
          "name": "G1",
          "midi": 31,
          "time": 9.074064999999996,
          "velocity": 0.6299212598425197,
          "duration": 0.16666649999999983
        },
        {
          "name": "G2",
          "midi": 43,
          "time": 9.074064999999996,
          "velocity": 0.6299212598425197,
          "duration": 0.16666649999999983
        },
        {
          "name": "F#2",
          "midi": 42,
          "time": 9.259249999999996,
          "velocity": 0.6299212598425197,
          "duration": 0.16666649999999983
        },
        {
          "name": "F#3",
          "midi": 54,
          "time": 9.259249999999996,
          "velocity": 0.6299212598425197,
          "duration": 0.16666649999999983
        },
        {
          "name": "G1",
          "midi": 31,
          "time": 9.444434999999997,
          "velocity": 0.6299212598425197,
          "duration": 0.16666649999999983
        },
        {
          "name": "G2",
          "midi": 43,
          "time": 9.444434999999997,
          "velocity": 0.6299212598425197,
          "duration": 0.16666649999999983
        },
        {
          "name": "G2",
          "midi": 43,
          "time": 9.629619999999997,
          "velocity": 0.6299212598425197,
          "duration": 0.16666649999999983
        },
        {
          "name": "G3",
          "midi": 55,
          "time": 9.629619999999997,
          "velocity": 0.6299212598425197,
          "duration": 0.16666649999999983
        },
        {
          "name": "G1",
          "midi": 31,
          "time": 9.814804999999998,
          "velocity": 0.6299212598425197,
          "duration": 0.16666649999999983
        },
        {
          "name": "G2",
          "midi": 43,
          "time": 9.814804999999998,
          "velocity": 0.6299212598425197,
          "duration": 0.16666649999999983
        },
        {
          "name": "G1",
          "midi": 31,
          "time": 9.999989999999999,
          "velocity": 0.6299212598425197,
          "duration": 0.16666649999999983
        },
        {
          "name": "G2",
          "midi": 43,
          "time": 9.999989999999999,
          "velocity": 0.6299212598425197,
          "duration": 0.16666649999999983
        },
        {
          "name": "A3",
          "midi": 57,
          "time": 10.185175,
          "velocity": 0.6299212598425197,
          "duration": 0.16666649999999983
        },
        {
          "name": "A2",
          "midi": 45,
          "time": 10.185175,
          "velocity": 0.6299212598425197,
          "duration": 0.16666649999999983
        },
        {
          "name": "G2",
          "midi": 43,
          "time": 10.37036,
          "velocity": 0.6299212598425197,
          "duration": 0.16666649999999983
        },
        {
          "name": "G1",
          "midi": 31,
          "time": 10.37036,
          "velocity": 0.6299212598425197,
          "duration": 0.16666649999999983
        },
        {
          "name": "G2",
          "midi": 43,
          "time": 10.555545,
          "velocity": 0.6299212598425197,
          "duration": 0.16666649999999983
        },
        {
          "name": "G3",
          "midi": 55,
          "time": 10.555545,
          "velocity": 0.6299212598425197,
          "duration": 0.16666649999999983
        },
        {
          "name": "G2",
          "midi": 43,
          "time": 10.740730000000001,
          "velocity": 0.6299212598425197,
          "duration": 0.16666649999999983
        },
        {
          "name": "G1",
          "midi": 31,
          "time": 10.740730000000001,
          "velocity": 0.6299212598425197,
          "duration": 0.16666649999999983
        },
        {
          "name": "G1",
          "midi": 31,
          "time": 10.925915000000002,
          "velocity": 0.6299212598425197,
          "duration": 0.16666649999999983
        },
        {
          "name": "G2",
          "midi": 43,
          "time": 10.925915000000002,
          "velocity": 0.6299212598425197,
          "duration": 0.16666649999999983
        },
        {
          "name": "G1",
          "midi": 31,
          "time": 11.111100000000002,
          "velocity": 0.6299212598425197,
          "duration": 0.33333299999999966
        },
        {
          "name": "G2",
          "midi": 43,
          "time": 11.111100000000002,
          "velocity": 0.6299212598425197,
          "duration": 0.33333299999999966
        },
        {
          "name": "A2",
          "midi": 45,
          "time": 11.481470000000002,
          "velocity": 0.6299212598425197,
          "duration": 0.33333299999999966
        },
        {
          "name": "A1",
          "midi": 33,
          "time": 11.481470000000002,
          "velocity": 0.6299212598425197,
          "duration": 0.33333299999999966
        },
        {
          "name": "B2",
          "midi": 47,
          "time": 11.851840000000001,
          "velocity": 0.6299212598425197,
          "duration": 0.6944437499999996
        },
        {
          "name": "B1",
          "midi": 35,
          "time": 11.851840000000001,
          "velocity": 0.6299212598425197,
          "duration": 0.6944437499999996
        },
        {
          "name": "B2",
          "midi": 47,
          "time": 12.59258,
          "velocity": 0.6299212598425197,
          "duration": 0.14814800000000083
        },
        {
          "name": "B1",
          "midi": 35,
          "time": 12.59258,
          "velocity": 0.6299212598425197,
          "duration": 0.14814800000000083
        },
        {
          "name": "B1",
          "midi": 35,
          "time": 12.777765,
          "velocity": 0.6299212598425197,
          "duration": 0.14814800000000083
        },
        {
          "name": "B2",
          "midi": 47,
          "time": 12.777765,
          "velocity": 0.6299212598425197,
          "duration": 0.14814800000000083
        },
        {
          "name": "B2",
          "midi": 47,
          "time": 12.962950000000001,
          "velocity": 0.6299212598425197,
          "duration": 0.14814800000000083
        },
        {
          "name": "B1",
          "midi": 35,
          "time": 12.962950000000001,
          "velocity": 0.6299212598425197,
          "duration": 0.14814800000000083
        },
        {
          "name": "B1",
          "midi": 35,
          "time": 13.148135000000002,
          "velocity": 0.6299212598425197,
          "duration": 0.7037030000000009
        },
        {
          "name": "B2",
          "midi": 47,
          "time": 13.148135000000002,
          "velocity": 0.6299212598425197,
          "duration": 0.7037030000000009
        },
        {
          "name": "E2",
          "midi": 40,
          "time": 13.888875000000002,
          "velocity": 0.6299212598425197,
          "duration": 0.2962959999999999
        },
        {
          "name": "E3",
          "midi": 52,
          "time": 13.888875000000002,
          "velocity": 0.6299212598425197,
          "duration": 0.2962959999999999
        },
        {
          "name": "D2",
          "midi": 38,
          "time": 14.259245000000002,
          "velocity": 0.6299212598425197,
          "duration": 0.14814800000000083
        },
        {
          "name": "D3",
          "midi": 50,
          "time": 14.259245000000002,
          "velocity": 0.6299212598425197,
          "duration": 0.14814800000000083
        },
        {
          "name": "C#2",
          "midi": 37,
          "time": 14.444430000000002,
          "velocity": 0.6299212598425197,
          "duration": 0.14814800000000083
        },
        {
          "name": "C#3",
          "midi": 49,
          "time": 14.444430000000002,
          "velocity": 0.6299212598425197,
          "duration": 0.14814800000000083
        },
        {
          "name": "B2",
          "midi": 47,
          "time": 14.629615000000003,
          "velocity": 0.6299212598425197,
          "duration": 0.35956754166666727
        },
        {
          "name": "B1",
          "midi": 35,
          "time": 14.629615000000003,
          "velocity": 0.6299212598425197,
          "duration": 0.35956754166666727
        },
        {
          "name": "B2",
          "midi": 47,
          "time": 14.999985000000004,
          "velocity": 0.6299212598425197,
          "duration": 0.14814800000000083
        },
        {
          "name": "B1",
          "midi": 35,
          "time": 14.999985000000004,
          "velocity": 0.6299212598425197,
          "duration": 0.14814800000000083
        },
        {
          "name": "A2",
          "midi": 45,
          "time": 15.185170000000005,
          "velocity": 0.6299212598425197,
          "duration": 0.14814800000000083
        },
        {
          "name": "B1",
          "midi": 35,
          "time": 15.185170000000005,
          "velocity": 0.6299212598425197,
          "duration": 0.14814800000000083
        },
        {
          "name": "B1",
          "midi": 35,
          "time": 15.370355000000005,
          "velocity": 0.6299212598425197,
          "duration": 0.5185180000000003
        },
        {
          "name": "B2",
          "midi": 47,
          "time": 15.370355000000005,
          "velocity": 0.6299212598425197,
          "duration": 0.5185180000000003
        },
        {
          "name": "D3",
          "midi": 50,
          "time": 15.925910000000005,
          "velocity": 0.6299212598425197,
          "duration": 0.14814799999999906
        },
        {
          "name": "D2",
          "midi": 38,
          "time": 15.925910000000005,
          "velocity": 0.6299212598425197,
          "duration": 0.14814799999999906
        },
        {
          "name": "C#2",
          "midi": 37,
          "time": 16.111095000000006,
          "velocity": 0.6299212598425197,
          "duration": 0.5324068749999995
        },
        {
          "name": "C#3",
          "midi": 49,
          "time": 16.111095000000006,
          "velocity": 0.6299212598425197,
          "duration": 0.5324068749999995
        },
        {
          "name": "E3",
          "midi": 52,
          "time": 16.666650000000004,
          "velocity": 0.6299212598425197,
          "duration": 0.14814799999999906
        },
        {
          "name": "E2",
          "midi": 40,
          "time": 16.666650000000004,
          "velocity": 0.6299212598425197,
          "duration": 0.14814799999999906
        },
        {
          "name": "D2",
          "midi": 38,
          "time": 16.851835000000005,
          "velocity": 0.6299212598425197,
          "duration": 0.3472218749999989
        },
        {
          "name": "D3",
          "midi": 50,
          "time": 16.851835000000005,
          "velocity": 0.6299212598425197,
          "duration": 0.3472218749999989
        },
        {
          "name": "C#3",
          "midi": 49,
          "time": 17.222205000000002,
          "velocity": 0.6299212598425197,
          "duration": 0.14814799999999906
        },
        {
          "name": "C#2",
          "midi": 37,
          "time": 17.222205000000002,
          "velocity": 0.6299212598425197,
          "duration": 0.14814799999999906
        },
        {
          "name": "D2",
          "midi": 38,
          "time": 17.407390000000003,
          "velocity": 0.6299212598425197,
          "duration": 0.14814799999999906
        },
        {
          "name": "D3",
          "midi": 50,
          "time": 17.407390000000003,
          "velocity": 0.6299212598425197,
          "duration": 0.14814799999999906
        },
        {
          "name": "G1",
          "midi": 31,
          "time": 17.592575000000004,
          "velocity": 0.6299212598425197,
          "duration": 1.0740729999999985
        },
        {
          "name": "G2",
          "midi": 43,
          "time": 17.592575000000004,
          "velocity": 0.6299212598425197,
          "duration": 1.0740729999999985
        },
        {
          "name": "D2",
          "midi": 38,
          "time": 18.88887,
          "velocity": 0.6299212598425197,
          "duration": 0.14814799999999906
        },
        {
          "name": "D3",
          "midi": 50,
          "time": 18.88887,
          "velocity": 0.6299212598425197,
          "duration": 0.14814799999999906
        },
        {
          "name": "C#2",
          "midi": 37,
          "time": 19.074055,
          "velocity": 0.6299212598425197,
          "duration": 0.5324068749999995
        },
        {
          "name": "C#3",
          "midi": 49,
          "time": 19.074055,
          "velocity": 0.6299212598425197,
          "duration": 0.5324068749999995
        },
        {
          "name": "D2",
          "midi": 38,
          "time": 19.62961,
          "velocity": 0.6299212598425197,
          "duration": 0.14814799999999906
        },
        {
          "name": "D3",
          "midi": 50,
          "time": 19.62961,
          "velocity": 0.6299212598425197,
          "duration": 0.14814799999999906
        },
        {
          "name": "C#3",
          "midi": 49,
          "time": 19.814795,
          "velocity": 0.6299212598425197,
          "duration": 0.4444440000000007
        },
        {
          "name": "C#2",
          "midi": 37,
          "time": 19.814795,
          "velocity": 0.6299212598425197,
          "duration": 0.4444440000000007
        },
        {
          "name": "A1",
          "midi": 33,
          "time": 20.370350000000002,
          "velocity": 0.6299212598425197,
          "duration": 0.29629600000000167
        },
        {
          "name": "A2",
          "midi": 45,
          "time": 20.370350000000002,
          "velocity": 0.6299212598425197,
          "duration": 0.29629600000000167
        },
        {
          "name": "B2",
          "midi": 47,
          "time": 20.740720000000003,
          "velocity": 0.6299212598425197,
          "duration": 0.14814799999999906
        },
        {
          "name": "B1",
          "midi": 35,
          "time": 20.740720000000003,
          "velocity": 0.6299212598425197,
          "duration": 0.14814799999999906
        },
        {
          "name": "B2",
          "midi": 47,
          "time": 20.925905000000004,
          "velocity": 0.6299212598425197,
          "duration": 0.14814799999999906
        },
        {
          "name": "B1",
          "midi": 35,
          "time": 20.925905000000004,
          "velocity": 0.6299212598425197,
          "duration": 0.14814799999999906
        },
        {
          "name": "A1",
          "midi": 33,
          "time": 21.111090000000004,
          "velocity": 0.6299212598425197,
          "duration": 0.14814799999999906
        },
        {
          "name": "A2",
          "midi": 45,
          "time": 21.111090000000004,
          "velocity": 0.6299212598425197,
          "duration": 0.14814799999999906
        },
        {
          "name": "B2",
          "midi": 47,
          "time": 21.296275000000005,
          "velocity": 0.6299212598425197,
          "duration": 0.4444440000000007
        },
        {
          "name": "B1",
          "midi": 35,
          "time": 21.296275000000005,
          "velocity": 0.6299212598425197,
          "duration": 0.4444440000000007
        },
        {
          "name": "D2",
          "midi": 38,
          "time": 21.851830000000007,
          "velocity": 0.6299212598425197,
          "duration": 0.14814799999999906
        },
        {
          "name": "D3",
          "midi": 50,
          "time": 21.851830000000007,
          "velocity": 0.6299212598425197,
          "duration": 0.14814799999999906
        },
        {
          "name": "C#2",
          "midi": 37,
          "time": 22.037015000000007,
          "velocity": 0.6299212598425197,
          "duration": 0.4814809999999987
        },
        {
          "name": "C#3",
          "midi": 49,
          "time": 22.037015000000007,
          "velocity": 0.6299212598425197,
          "duration": 0.4814809999999987
        },
        {
          "name": "E3",
          "midi": 52,
          "time": 22.592570000000006,
          "velocity": 0.6299212598425197,
          "duration": 0.14814799999999906
        },
        {
          "name": "E2",
          "midi": 40,
          "time": 22.592570000000006,
          "velocity": 0.6299212598425197,
          "duration": 0.14814799999999906
        },
        {
          "name": "D3",
          "midi": 50,
          "time": 22.777755000000006,
          "velocity": 0.6299212598425197,
          "duration": 0.4444440000000007
        },
        {
          "name": "D2",
          "midi": 38,
          "time": 22.777755000000006,
          "velocity": 0.6299212598425197,
          "duration": 0.4444440000000007
        },
        {
          "name": "D2",
          "midi": 38,
          "time": 23.333310000000008,
          "velocity": 0.6299212598425197,
          "duration": 0.14814799999999906
        },
        {
          "name": "D3",
          "midi": 50,
          "time": 23.333310000000008,
          "velocity": 0.6299212598425197,
          "duration": 0.14814799999999906
        },
        {
          "name": "G2",
          "midi": 43,
          "time": 23.51849500000001,
          "velocity": 0.6299212598425197,
          "duration": 1.2222210000000011
        },
        {
          "name": "G1",
          "midi": 31,
          "time": 23.51849500000001,
          "velocity": 0.6299212598425197,
          "duration": 1.2222210000000011
        },
        {
          "name": "D3",
          "midi": 50,
          "time": 24.81479000000001,
          "velocity": 0.6299212598425197,
          "duration": 0.14814799999999906
        },
        {
          "name": "D2",
          "midi": 38,
          "time": 24.81479000000001,
          "velocity": 0.6299212598425197,
          "duration": 0.14814799999999906
        },
        {
          "name": "C#2",
          "midi": 37,
          "time": 24.99997500000001,
          "velocity": 0.6299212598425197,
          "duration": 0.4814809999999987
        },
        {
          "name": "C#3",
          "midi": 49,
          "time": 24.99997500000001,
          "velocity": 0.6299212598425197,
          "duration": 0.4814809999999987
        },
        {
          "name": "D2",
          "midi": 38,
          "time": 25.555530000000008,
          "velocity": 0.6299212598425197,
          "duration": 0.14814799999999906
        },
        {
          "name": "D3",
          "midi": 50,
          "time": 25.555530000000008,
          "velocity": 0.6299212598425197,
          "duration": 0.14814799999999906
        },
        {
          "name": "C#2",
          "midi": 37,
          "time": 25.74071500000001,
          "velocity": 0.6299212598425197,
          "duration": 0.4444440000000007
        },
        {
          "name": "C#3",
          "midi": 49,
          "time": 25.74071500000001,
          "velocity": 0.6299212598425197,
          "duration": 0.4444440000000007
        },
        {
          "name": "A1",
          "midi": 33,
          "time": 26.29627000000001,
          "velocity": 0.6299212598425197,
          "duration": 0.29629600000000167
        },
        {
          "name": "A2",
          "midi": 45,
          "time": 26.29627000000001,
          "velocity": 0.6299212598425197,
          "duration": 0.29629600000000167
        },
        {
          "name": "B2",
          "midi": 47,
          "time": 26.66664000000001,
          "velocity": 0.6299212598425197,
          "duration": 0.4444440000000007
        },
        {
          "name": "B1",
          "midi": 35,
          "time": 26.66664000000001,
          "velocity": 0.6299212598425197,
          "duration": 0.4444440000000007
        },
        {
          "name": "F#2",
          "midi": 42,
          "time": 27.12960250000001,
          "velocity": 0.6299212598425197,
          "duration": 0.07407399999999953
        },
        {
          "name": "F#3",
          "midi": 54,
          "time": 27.12960250000001,
          "velocity": 0.6299212598425197,
          "duration": 0.07407399999999953
        },
        {
          "name": "E3",
          "midi": 52,
          "time": 27.22219500000001,
          "velocity": 0.6299212598425197,
          "duration": 0.07407399999999953
        },
        {
          "name": "E2",
          "midi": 40,
          "time": 27.22219500000001,
          "velocity": 0.6299212598425197,
          "duration": 0.07407399999999953
        },
        {
          "name": "F#2",
          "midi": 42,
          "time": 27.31478750000001,
          "velocity": 0.6299212598425197,
          "duration": 0.07407399999999953
        },
        {
          "name": "F#3",
          "midi": 54,
          "time": 27.31478750000001,
          "velocity": 0.6299212598425197,
          "duration": 0.07407399999999953
        },
        {
          "name": "A1",
          "midi": 33,
          "time": 27.407380000000007,
          "velocity": 0.6299212598425197,
          "duration": 0.4444440000000007
        },
        {
          "name": "A2",
          "midi": 45,
          "time": 27.407380000000007,
          "velocity": 0.6299212598425197,
          "duration": 0.4444440000000007
        },
        {
          "name": "E3",
          "midi": 52,
          "time": 27.870342500000007,
          "velocity": 0.6299212598425197,
          "duration": 0.07407399999999953
        },
        {
          "name": "E2",
          "midi": 40,
          "time": 27.870342500000007,
          "velocity": 0.6299212598425197,
          "duration": 0.07407399999999953
        },
        {
          "name": "D2",
          "midi": 38,
          "time": 27.962935000000005,
          "velocity": 0.6299212598425197,
          "duration": 0.07407399999999953
        },
        {
          "name": "D3",
          "midi": 50,
          "time": 27.962935000000005,
          "velocity": 0.6299212598425197,
          "duration": 0.07407399999999953
        },
        {
          "name": "E3",
          "midi": 52,
          "time": 28.055527500000004,
          "velocity": 0.6299212598425197,
          "duration": 0.07407399999999953
        },
        {
          "name": "E2",
          "midi": 40,
          "time": 28.055527500000004,
          "velocity": 0.6299212598425197,
          "duration": 0.07407399999999953
        },
        {
          "name": "G1",
          "midi": 31,
          "time": 28.148120000000002,
          "velocity": 0.6299212598425197,
          "duration": 0.4444440000000007
        },
        {
          "name": "G2",
          "midi": 43,
          "time": 28.148120000000002,
          "velocity": 0.6299212598425197,
          "duration": 0.4444440000000007
        },
        {
          "name": "B1",
          "midi": 35,
          "time": 28.611082500000002,
          "velocity": 0.6299212598425197,
          "duration": 0.08796287499999877
        },
        {
          "name": "B2",
          "midi": 47,
          "time": 28.611082500000002,
          "velocity": 0.6299212598425197,
          "duration": 0.08796287499999877
        },
        {
          "name": "D2",
          "midi": 38,
          "time": 28.703675,
          "velocity": 0.6299212598425197,
          "duration": 0.08796287499999877
        },
        {
          "name": "D3",
          "midi": 50,
          "time": 28.703675,
          "velocity": 0.6299212598425197,
          "duration": 0.08796287499999877
        },
        {
          "name": "F#3",
          "midi": 54,
          "time": 28.7962675,
          "velocity": 0.6299212598425197,
          "duration": 0.08796287499999877
        },
        {
          "name": "F#2",
          "midi": 42,
          "time": 28.7962675,
          "velocity": 0.6299212598425197,
          "duration": 0.08796287499999877
        },
        {
          "name": "E3",
          "midi": 52,
          "time": 28.888859999999998,
          "velocity": 0.6299212598425197,
          "duration": 0.29629600000000167
        },
        {
          "name": "E2",
          "midi": 40,
          "time": 28.888859999999998,
          "velocity": 0.6299212598425197,
          "duration": 0.29629600000000167
        },
        {
          "name": "A2",
          "midi": 45,
          "time": 29.25923,
          "velocity": 0.6299212598425197,
          "duration": 0.29629600000000167
        },
        {
          "name": "A1",
          "midi": 33,
          "time": 29.25923,
          "velocity": 0.6299212598425197,
          "duration": 0.29629600000000167
        },
        {
          "name": "B1",
          "midi": 35,
          "time": 29.6296,
          "velocity": 0.6299212598425197,
          "duration": 0.4444440000000007
        },
        {
          "name": "B2",
          "midi": 47,
          "time": 29.6296,
          "velocity": 0.6299212598425197,
          "duration": 0.4444440000000007
        },
        {
          "name": "F#3",
          "midi": 54,
          "time": 30.0925625,
          "velocity": 0.6299212598425197,
          "duration": 0.07407399999999953
        },
        {
          "name": "F#2",
          "midi": 42,
          "time": 30.0925625,
          "velocity": 0.6299212598425197,
          "duration": 0.07407399999999953
        },
        {
          "name": "E2",
          "midi": 40,
          "time": 30.185154999999998,
          "velocity": 0.6299212598425197,
          "duration": 0.07407399999999953
        },
        {
          "name": "E3",
          "midi": 52,
          "time": 30.185154999999998,
          "velocity": 0.6299212598425197,
          "duration": 0.07407399999999953
        },
        {
          "name": "F#2",
          "midi": 42,
          "time": 30.277747499999997,
          "velocity": 0.6299212598425197,
          "duration": 0.07407399999999953
        },
        {
          "name": "F#3",
          "midi": 54,
          "time": 30.277747499999997,
          "velocity": 0.6299212598425197,
          "duration": 0.07407399999999953
        },
        {
          "name": "A1",
          "midi": 33,
          "time": 30.370339999999995,
          "velocity": 0.6299212598425197,
          "duration": 0.4444440000000007
        },
        {
          "name": "A2",
          "midi": 45,
          "time": 30.370339999999995,
          "velocity": 0.6299212598425197,
          "duration": 0.4444440000000007
        },
        {
          "name": "E3",
          "midi": 52,
          "time": 30.833302499999995,
          "velocity": 0.6299212598425197,
          "duration": 0.07407399999999953
        },
        {
          "name": "E2",
          "midi": 40,
          "time": 30.833302499999995,
          "velocity": 0.6299212598425197,
          "duration": 0.07407399999999953
        },
        {
          "name": "D2",
          "midi": 38,
          "time": 30.925894999999993,
          "velocity": 0.6299212598425197,
          "duration": 0.07407399999999953
        },
        {
          "name": "D3",
          "midi": 50,
          "time": 30.925894999999993,
          "velocity": 0.6299212598425197,
          "duration": 0.07407399999999953
        },
        {
          "name": "E2",
          "midi": 40,
          "time": 31.018487499999992,
          "velocity": 0.6299212598425197,
          "duration": 0.07407399999999953
        },
        {
          "name": "E3",
          "midi": 52,
          "time": 31.018487499999992,
          "velocity": 0.6299212598425197,
          "duration": 0.07407399999999953
        },
        {
          "name": "G2",
          "midi": 43,
          "time": 31.11107999999999,
          "velocity": 0.6299212598425197,
          "duration": 0.4444440000000007
        },
        {
          "name": "G1",
          "midi": 31,
          "time": 31.11107999999999,
          "velocity": 0.6299212598425197,
          "duration": 0.4444440000000007
        },
        {
          "name": "F#3",
          "midi": 54,
          "time": 31.57404249999999,
          "velocity": 0.6299212598425197,
          "duration": 0.07407399999999953
        },
        {
          "name": "F#2",
          "midi": 42,
          "time": 31.57404249999999,
          "velocity": 0.6299212598425197,
          "duration": 0.07407399999999953
        },
        {
          "name": "E2",
          "midi": 40,
          "time": 31.66663499999999,
          "velocity": 0.6299212598425197,
          "duration": 0.07407399999999953
        },
        {
          "name": "E3",
          "midi": 52,
          "time": 31.66663499999999,
          "velocity": 0.6299212598425197,
          "duration": 0.07407399999999953
        },
        {
          "name": "D2",
          "midi": 38,
          "time": 31.759227499999987,
          "velocity": 0.6299212598425197,
          "duration": 0.07407399999999953
        },
        {
          "name": "D3",
          "midi": 50,
          "time": 31.759227499999987,
          "velocity": 0.6299212598425197,
          "duration": 0.07407399999999953
        },
        {
          "name": "B1",
          "midi": 35,
          "time": 32.592559999999985,
          "velocity": 0.6299212598425197,
          "duration": 0.16666649999999805
        },
        {
          "name": "B2",
          "midi": 47,
          "time": 32.592559999999985,
          "velocity": 0.6299212598425197,
          "duration": 0.16666649999999805
        },
        {
          "name": "B2",
          "midi": 47,
          "time": 32.77774499999998,
          "velocity": 0.6299212598425197,
          "duration": 0.16666649999999805
        },
        {
          "name": "B1",
          "midi": 35,
          "time": 32.77774499999998,
          "velocity": 0.6299212598425197,
          "duration": 0.16666649999999805
        },
        {
          "name": "A3",
          "midi": 57,
          "time": 32.96292999999998,
          "velocity": 0.6299212598425197,
          "duration": 0.16666649999999805
        },
        {
          "name": "A2",
          "midi": 45,
          "time": 32.96292999999998,
          "velocity": 0.6299212598425197,
          "duration": 0.16666649999999805
        },
        {
          "name": "B2",
          "midi": 47,
          "time": 33.148114999999976,
          "velocity": 0.6299212598425197,
          "duration": 0.16666649999999805
        },
        {
          "name": "B1",
          "midi": 35,
          "time": 33.148114999999976,
          "velocity": 0.6299212598425197,
          "duration": 0.16666649999999805
        },
        {
          "name": "B2",
          "midi": 47,
          "time": 33.33329999999997,
          "velocity": 0.6299212598425197,
          "duration": 0.16666649999999805
        },
        {
          "name": "B3",
          "midi": 59,
          "time": 33.33329999999997,
          "velocity": 0.6299212598425197,
          "duration": 0.16666649999999805
        },
        {
          "name": "B1",
          "midi": 35,
          "time": 33.51848499999997,
          "velocity": 0.6299212598425197,
          "duration": 0.16666649999999805
        },
        {
          "name": "B2",
          "midi": 47,
          "time": 33.51848499999997,
          "velocity": 0.6299212598425197,
          "duration": 0.16666649999999805
        },
        {
          "name": "B1",
          "midi": 35,
          "time": 33.70366999999997,
          "velocity": 0.6299212598425197,
          "duration": 0.16666649999999805
        },
        {
          "name": "B2",
          "midi": 47,
          "time": 33.70366999999997,
          "velocity": 0.6299212598425197,
          "duration": 0.16666649999999805
        },
        {
          "name": "A3",
          "midi": 57,
          "time": 33.888854999999964,
          "velocity": 0.6299212598425197,
          "duration": 0.16666649999999805
        },
        {
          "name": "A2",
          "midi": 45,
          "time": 33.888854999999964,
          "velocity": 0.6299212598425197,
          "duration": 0.16666649999999805
        },
        {
          "name": "B2",
          "midi": 47,
          "time": 34.07403999999996,
          "velocity": 0.6299212598425197,
          "duration": 0.16666649999999805
        },
        {
          "name": "B1",
          "midi": 35,
          "time": 34.07403999999996,
          "velocity": 0.6299212598425197,
          "duration": 0.16666649999999805
        },
        {
          "name": "B3",
          "midi": 59,
          "time": 34.25922499999996,
          "velocity": 0.6299212598425197,
          "duration": 0.16666649999999805
        },
        {
          "name": "B2",
          "midi": 47,
          "time": 34.25922499999996,
          "velocity": 0.6299212598425197,
          "duration": 0.16666649999999805
        },
        {
          "name": "B1",
          "midi": 35,
          "time": 34.444409999999955,
          "velocity": 0.6299212598425197,
          "duration": 0.16666649999999805
        },
        {
          "name": "B2",
          "midi": 47,
          "time": 34.444409999999955,
          "velocity": 0.6299212598425197,
          "duration": 0.16666649999999805
        },
        {
          "name": "B1",
          "midi": 35,
          "time": 34.62959499999995,
          "velocity": 0.6299212598425197,
          "duration": 0.16666649999999805
        },
        {
          "name": "B2",
          "midi": 47,
          "time": 34.62959499999995,
          "velocity": 0.6299212598425197,
          "duration": 0.16666649999999805
        },
        {
          "name": "B2",
          "midi": 47,
          "time": 34.81477999999995,
          "velocity": 0.6299212598425197,
          "duration": 0.3333330000000032
        },
        {
          "name": "B1",
          "midi": 35,
          "time": 34.81477999999995,
          "velocity": 0.6299212598425197,
          "duration": 0.3333330000000032
        },
        {
          "name": "A2",
          "midi": 45,
          "time": 35.18514999999995,
          "velocity": 0.6299212598425197,
          "duration": 0.16666649999999805
        },
        {
          "name": "A1",
          "midi": 33,
          "time": 35.18514999999995,
          "velocity": 0.6299212598425197,
          "duration": 0.16666649999999805
        },
        {
          "name": "G2",
          "midi": 43,
          "time": 35.37033499999995,
          "velocity": 0.6299212598425197,
          "duration": 0.3518515000000022
        },
        {
          "name": "G1",
          "midi": 31,
          "time": 35.37033499999995,
          "velocity": 0.6299212598425197,
          "duration": 0.3518515000000022
        },
        {
          "name": "G1",
          "midi": 31,
          "time": 35.74070499999995,
          "velocity": 0.6299212598425197,
          "duration": 0.16666649999999805
        },
        {
          "name": "G2",
          "midi": 43,
          "time": 35.74070499999995,
          "velocity": 0.6299212598425197,
          "duration": 0.16666649999999805
        },
        {
          "name": "F#3",
          "midi": 54,
          "time": 35.925889999999946,
          "velocity": 0.6299212598425197,
          "duration": 0.16666649999999805
        },
        {
          "name": "F#2",
          "midi": 42,
          "time": 35.925889999999946,
          "velocity": 0.6299212598425197,
          "duration": 0.16666649999999805
        },
        {
          "name": "G1",
          "midi": 31,
          "time": 36.11107499999994,
          "velocity": 0.6299212598425197,
          "duration": 0.16666649999999805
        },
        {
          "name": "G2",
          "midi": 43,
          "time": 36.11107499999994,
          "velocity": 0.6299212598425197,
          "duration": 0.16666649999999805
        },
        {
          "name": "G2",
          "midi": 43,
          "time": 36.29625999999994,
          "velocity": 0.6299212598425197,
          "duration": 0.16666649999999805
        },
        {
          "name": "G3",
          "midi": 55,
          "time": 36.29625999999994,
          "velocity": 0.6299212598425197,
          "duration": 0.16666649999999805
        },
        {
          "name": "G1",
          "midi": 31,
          "time": 36.48144499999994,
          "velocity": 0.6299212598425197,
          "duration": 0.16666649999999805
        },
        {
          "name": "G2",
          "midi": 43,
          "time": 36.48144499999994,
          "velocity": 0.6299212598425197,
          "duration": 0.16666649999999805
        },
        {
          "name": "G1",
          "midi": 31,
          "time": 36.666629999999934,
          "velocity": 0.6299212598425197,
          "duration": 0.16666649999999805
        },
        {
          "name": "G2",
          "midi": 43,
          "time": 36.666629999999934,
          "velocity": 0.6299212598425197,
          "duration": 0.16666649999999805
        },
        {
          "name": "A3",
          "midi": 57,
          "time": 36.85181499999993,
          "velocity": 0.6299212598425197,
          "duration": 0.16666649999999805
        },
        {
          "name": "A2",
          "midi": 45,
          "time": 36.85181499999993,
          "velocity": 0.6299212598425197,
          "duration": 0.16666649999999805
        },
        {
          "name": "G2",
          "midi": 43,
          "time": 37.03699999999993,
          "velocity": 0.6299212598425197,
          "duration": 0.16666649999999805
        },
        {
          "name": "G1",
          "midi": 31,
          "time": 37.03699999999993,
          "velocity": 0.6299212598425197,
          "duration": 0.16666649999999805
        },
        {
          "name": "G3",
          "midi": 55,
          "time": 37.222184999999925,
          "velocity": 0.6299212598425197,
          "duration": 0.16666649999999805
        },
        {
          "name": "G2",
          "midi": 43,
          "time": 37.222184999999925,
          "velocity": 0.6299212598425197,
          "duration": 0.16666649999999805
        },
        {
          "name": "G1",
          "midi": 31,
          "time": 37.40736999999992,
          "velocity": 0.6299212598425197,
          "duration": 0.16666649999999805
        },
        {
          "name": "G2",
          "midi": 43,
          "time": 37.40736999999992,
          "velocity": 0.6299212598425197,
          "duration": 0.16666649999999805
        },
        {
          "name": "G2",
          "midi": 43,
          "time": 37.59255499999992,
          "velocity": 0.6299212598425197,
          "duration": 0.16666649999999805
        },
        {
          "name": "G1",
          "midi": 31,
          "time": 37.59255499999992,
          "velocity": 0.6299212598425197,
          "duration": 0.16666649999999805
        },
        {
          "name": "G1",
          "midi": 31,
          "time": 37.777739999999916,
          "velocity": 0.6299212598425197,
          "duration": 0.3333330000000032
        },
        {
          "name": "G2",
          "midi": 43,
          "time": 37.777739999999916,
          "velocity": 0.6299212598425197,
          "duration": 0.3333330000000032
        },
        {
          "name": "A1",
          "midi": 33,
          "time": 38.14810999999992,
          "velocity": 0.6299212598425197,
          "duration": 0.3333330000000032
        },
        {
          "name": "A2",
          "midi": 45,
          "time": 38.14810999999992,
          "velocity": 0.6299212598425197,
          "duration": 0.3333330000000032
        },
        {
          "name": "B1",
          "midi": 35,
          "time": 38.51847999999992,
          "velocity": 0.6299212598425197,
          "duration": 0.16666649999999805
        },
        {
          "name": "B2",
          "midi": 47,
          "time": 38.51847999999992,
          "velocity": 0.6299212598425197,
          "duration": 0.16666649999999805
        },
        {
          "name": "B1",
          "midi": 35,
          "time": 38.703664999999916,
          "velocity": 0.6299212598425197,
          "duration": 0.16666649999999805
        },
        {
          "name": "B2",
          "midi": 47,
          "time": 38.703664999999916,
          "velocity": 0.6299212598425197,
          "duration": 0.16666649999999805
        },
        {
          "name": "A2",
          "midi": 45,
          "time": 38.88884999999991,
          "velocity": 0.6299212598425197,
          "duration": 0.16666649999999805
        },
        {
          "name": "A3",
          "midi": 57,
          "time": 38.88884999999991,
          "velocity": 0.6299212598425197,
          "duration": 0.16666649999999805
        },
        {
          "name": "B1",
          "midi": 35,
          "time": 39.07403499999991,
          "velocity": 0.6299212598425197,
          "duration": 0.16666649999999805
        },
        {
          "name": "B2",
          "midi": 47,
          "time": 39.07403499999991,
          "velocity": 0.6299212598425197,
          "duration": 0.16666649999999805
        },
        {
          "name": "B2",
          "midi": 47,
          "time": 39.25921999999991,
          "velocity": 0.6299212598425197,
          "duration": 0.16666649999999805
        },
        {
          "name": "B3",
          "midi": 59,
          "time": 39.25921999999991,
          "velocity": 0.6299212598425197,
          "duration": 0.16666649999999805
        },
        {
          "name": "B1",
          "midi": 35,
          "time": 39.444404999999904,
          "velocity": 0.6299212598425197,
          "duration": 0.16666649999999805
        },
        {
          "name": "B2",
          "midi": 47,
          "time": 39.444404999999904,
          "velocity": 0.6299212598425197,
          "duration": 0.16666649999999805
        },
        {
          "name": "B2",
          "midi": 47,
          "time": 39.6295899999999,
          "velocity": 0.6299212598425197,
          "duration": 0.16666649999999805
        },
        {
          "name": "B1",
          "midi": 35,
          "time": 39.6295899999999,
          "velocity": 0.6299212598425197,
          "duration": 0.16666649999999805
        },
        {
          "name": "A2",
          "midi": 45,
          "time": 39.8147749999999,
          "velocity": 0.6299212598425197,
          "duration": 0.16666649999999805
        },
        {
          "name": "A3",
          "midi": 57,
          "time": 39.8147749999999,
          "velocity": 0.6299212598425197,
          "duration": 0.16666649999999805
        },
        {
          "name": "B2",
          "midi": 47,
          "time": 39.999959999999895,
          "velocity": 0.6299212598425197,
          "duration": 0.16666649999999805
        },
        {
          "name": "B1",
          "midi": 35,
          "time": 39.999959999999895,
          "velocity": 0.6299212598425197,
          "duration": 0.16666649999999805
        },
        {
          "name": "B3",
          "midi": 59,
          "time": 40.18514499999989,
          "velocity": 0.6299212598425197,
          "duration": 0.16666649999999805
        },
        {
          "name": "B2",
          "midi": 47,
          "time": 40.18514499999989,
          "velocity": 0.6299212598425197,
          "duration": 0.16666649999999805
        },
        {
          "name": "B2",
          "midi": 47,
          "time": 40.37032999999989,
          "velocity": 0.6299212598425197,
          "duration": 0.16666649999999805
        },
        {
          "name": "B1",
          "midi": 35,
          "time": 40.37032999999989,
          "velocity": 0.6299212598425197,
          "duration": 0.16666649999999805
        },
        {
          "name": "B1",
          "midi": 35,
          "time": 40.555514999999886,
          "velocity": 0.6299212598425197,
          "duration": 0.16666649999999805
        },
        {
          "name": "B2",
          "midi": 47,
          "time": 40.555514999999886,
          "velocity": 0.6299212598425197,
          "duration": 0.16666649999999805
        },
        {
          "name": "B1",
          "midi": 35,
          "time": 40.74069999999988,
          "velocity": 0.6299212598425197,
          "duration": 0.3333330000000032
        },
        {
          "name": "B2",
          "midi": 47,
          "time": 40.74069999999988,
          "velocity": 0.6299212598425197,
          "duration": 0.3333330000000032
        },
        {
          "name": "A2",
          "midi": 45,
          "time": 41.111069999999884,
          "velocity": 0.6299212598425197,
          "duration": 0.16666649999999805
        },
        {
          "name": "A1",
          "midi": 33,
          "time": 41.111069999999884,
          "velocity": 0.6299212598425197,
          "duration": 0.16666649999999805
        },
        {
          "name": "G1",
          "midi": 31,
          "time": 41.29625499999988,
          "velocity": 0.6299212598425197,
          "duration": 0.3518515000000022
        },
        {
          "name": "G2",
          "midi": 43,
          "time": 41.29625499999988,
          "velocity": 0.6299212598425197,
          "duration": 0.3518515000000022
        },
        {
          "name": "G1",
          "midi": 31,
          "time": 41.66662499999988,
          "velocity": 0.6299212598425197,
          "duration": 0.16666649999999805
        },
        {
          "name": "G2",
          "midi": 43,
          "time": 41.66662499999988,
          "velocity": 0.6299212598425197,
          "duration": 0.16666649999999805
        },
        {
          "name": "F#3",
          "midi": 54,
          "time": 41.85180999999988,
          "velocity": 0.6299212598425197,
          "duration": 0.16666649999999805
        },
        {
          "name": "F#2",
          "midi": 42,
          "time": 41.85180999999988,
          "velocity": 0.6299212598425197,
          "duration": 0.16666649999999805
        },
        {
          "name": "G1",
          "midi": 31,
          "time": 42.03699499999988,
          "velocity": 0.6299212598425197,
          "duration": 0.16666649999999805
        },
        {
          "name": "G2",
          "midi": 43,
          "time": 42.03699499999988,
          "velocity": 0.6299212598425197,
          "duration": 0.16666649999999805
        },
        {
          "name": "G2",
          "midi": 43,
          "time": 42.222179999999874,
          "velocity": 0.6299212598425197,
          "duration": 0.16666649999999805
        },
        {
          "name": "G3",
          "midi": 55,
          "time": 42.222179999999874,
          "velocity": 0.6299212598425197,
          "duration": 0.16666649999999805
        },
        {
          "name": "G1",
          "midi": 31,
          "time": 42.40736499999987,
          "velocity": 0.6299212598425197,
          "duration": 0.16666649999999805
        },
        {
          "name": "G2",
          "midi": 43,
          "time": 42.40736499999987,
          "velocity": 0.6299212598425197,
          "duration": 0.16666649999999805
        },
        {
          "name": "G2",
          "midi": 43,
          "time": 42.59254999999987,
          "velocity": 0.6299212598425197,
          "duration": 0.16666649999999805
        },
        {
          "name": "G1",
          "midi": 31,
          "time": 42.59254999999987,
          "velocity": 0.6299212598425197,
          "duration": 0.16666649999999805
        },
        {
          "name": "A3",
          "midi": 57,
          "time": 42.777734999999865,
          "velocity": 0.6299212598425197,
          "duration": 0.16666649999999805
        },
        {
          "name": "A2",
          "midi": 45,
          "time": 42.777734999999865,
          "velocity": 0.6299212598425197,
          "duration": 0.16666649999999805
        },
        {
          "name": "G2",
          "midi": 43,
          "time": 42.96291999999986,
          "velocity": 0.6299212598425197,
          "duration": 0.16666649999999805
        },
        {
          "name": "G1",
          "midi": 31,
          "time": 42.96291999999986,
          "velocity": 0.6299212598425197,
          "duration": 0.16666649999999805
        },
        {
          "name": "G3",
          "midi": 55,
          "time": 43.14810499999986,
          "velocity": 0.6299212598425197,
          "duration": 0.16666649999999805
        },
        {
          "name": "G2",
          "midi": 43,
          "time": 43.14810499999986,
          "velocity": 0.6299212598425197,
          "duration": 0.16666649999999805
        },
        {
          "name": "G2",
          "midi": 43,
          "time": 43.333289999999856,
          "velocity": 0.6299212598425197,
          "duration": 0.16666649999999805
        },
        {
          "name": "G1",
          "midi": 31,
          "time": 43.333289999999856,
          "velocity": 0.6299212598425197,
          "duration": 0.16666649999999805
        },
        {
          "name": "G1",
          "midi": 31,
          "time": 43.51847499999985,
          "velocity": 0.6299212598425197,
          "duration": 0.16666649999999805
        },
        {
          "name": "G2",
          "midi": 43,
          "time": 43.51847499999985,
          "velocity": 0.6299212598425197,
          "duration": 0.16666649999999805
        },
        {
          "name": "G2",
          "midi": 43,
          "time": 43.70365999999985,
          "velocity": 0.6299212598425197,
          "duration": 0.3333330000000032
        },
        {
          "name": "G1",
          "midi": 31,
          "time": 43.70365999999985,
          "velocity": 0.6299212598425197,
          "duration": 0.3333330000000032
        },
        {
          "name": "A1",
          "midi": 33,
          "time": 44.07402999999985,
          "velocity": 0.6299212598425197,
          "duration": 0.3333330000000032
        },
        {
          "name": "A2",
          "midi": 45,
          "time": 44.07402999999985,
          "velocity": 0.6299212598425197,
          "duration": 0.3333330000000032
        },
        {
          "name": "B2",
          "midi": 47,
          "time": 44.44439999999985,
          "velocity": 0.6299212598425197,
          "duration": 0.16666649999999805
        },
        {
          "name": "B1",
          "midi": 35,
          "time": 44.44439999999985,
          "velocity": 0.6299212598425197,
          "duration": 0.16666649999999805
        },
        {
          "name": "B1",
          "midi": 35,
          "time": 44.62958499999985,
          "velocity": 0.6299212598425197,
          "duration": 0.16666649999999805
        },
        {
          "name": "B2",
          "midi": 47,
          "time": 44.62958499999985,
          "velocity": 0.6299212598425197,
          "duration": 0.16666649999999805
        },
        {
          "name": "A3",
          "midi": 57,
          "time": 44.81476999999985,
          "velocity": 0.6299212598425197,
          "duration": 0.16666649999999805
        },
        {
          "name": "A2",
          "midi": 45,
          "time": 44.81476999999985,
          "velocity": 0.6299212598425197,
          "duration": 0.16666649999999805
        },
        {
          "name": "B2",
          "midi": 47,
          "time": 44.999954999999844,
          "velocity": 0.6299212598425197,
          "duration": 0.16666649999999805
        },
        {
          "name": "B1",
          "midi": 35,
          "time": 44.999954999999844,
          "velocity": 0.6299212598425197,
          "duration": 0.16666649999999805
        },
        {
          "name": "B3",
          "midi": 59,
          "time": 45.18513999999984,
          "velocity": 0.6299212598425197,
          "duration": 0.16666649999999805
        },
        {
          "name": "B2",
          "midi": 47,
          "time": 45.18513999999984,
          "velocity": 0.6299212598425197,
          "duration": 0.16666649999999805
        },
        {
          "name": "B1",
          "midi": 35,
          "time": 45.37032499999984,
          "velocity": 0.6299212598425197,
          "duration": 0.16666649999999805
        },
        {
          "name": "B2",
          "midi": 47,
          "time": 45.37032499999984,
          "velocity": 0.6299212598425197,
          "duration": 0.16666649999999805
        },
        {
          "name": "B2",
          "midi": 47,
          "time": 45.555509999999835,
          "velocity": 0.6299212598425197,
          "duration": 0.16666649999999805
        },
        {
          "name": "B1",
          "midi": 35,
          "time": 45.555509999999835,
          "velocity": 0.6299212598425197,
          "duration": 0.16666649999999805
        },
        {
          "name": "A2",
          "midi": 45,
          "time": 45.74069499999983,
          "velocity": 0.6299212598425197,
          "duration": 0.16666649999999805
        },
        {
          "name": "A3",
          "midi": 57,
          "time": 45.74069499999983,
          "velocity": 0.6299212598425197,
          "duration": 0.16666649999999805
        },
        {
          "name": "B1",
          "midi": 35,
          "time": 45.92587999999983,
          "velocity": 0.6299212598425197,
          "duration": 0.16666649999999805
        },
        {
          "name": "B2",
          "midi": 47,
          "time": 45.92587999999983,
          "velocity": 0.6299212598425197,
          "duration": 0.16666649999999805
        },
        {
          "name": "B2",
          "midi": 47,
          "time": 46.111064999999826,
          "velocity": 0.6299212598425197,
          "duration": 0.16666649999999805
        },
        {
          "name": "B3",
          "midi": 59,
          "time": 46.111064999999826,
          "velocity": 0.6299212598425197,
          "duration": 0.16666649999999805
        },
        {
          "name": "B1",
          "midi": 35,
          "time": 46.29624999999982,
          "velocity": 0.6299212598425197,
          "duration": 0.16666649999999805
        },
        {
          "name": "B2",
          "midi": 47,
          "time": 46.29624999999982,
          "velocity": 0.6299212598425197,
          "duration": 0.16666649999999805
        },
        {
          "name": "B2",
          "midi": 47,
          "time": 46.48143499999982,
          "velocity": 0.6299212598425197,
          "duration": 0.16666649999999805
        },
        {
          "name": "B1",
          "midi": 35,
          "time": 46.48143499999982,
          "velocity": 0.6299212598425197,
          "duration": 0.16666649999999805
        },
        {
          "name": "B2",
          "midi": 47,
          "time": 46.66661999999982,
          "velocity": 0.6299212598425197,
          "duration": 0.3333330000000032
        },
        {
          "name": "B1",
          "midi": 35,
          "time": 46.66661999999982,
          "velocity": 0.6299212598425197,
          "duration": 0.3333330000000032
        },
        {
          "name": "A2",
          "midi": 45,
          "time": 47.03698999999982,
          "velocity": 0.6299212598425197,
          "duration": 0.16666649999999805
        },
        {
          "name": "A1",
          "midi": 33,
          "time": 47.03698999999982,
          "velocity": 0.6299212598425197,
          "duration": 0.16666649999999805
        },
        {
          "name": "G2",
          "midi": 43,
          "time": 47.222174999999815,
          "velocity": 0.6299212598425197,
          "duration": 0.3518515000000022
        },
        {
          "name": "G1",
          "midi": 31,
          "time": 47.222174999999815,
          "velocity": 0.6299212598425197,
          "duration": 0.3518515000000022
        },
        {
          "name": "G1",
          "midi": 31,
          "time": 47.59254499999982,
          "velocity": 0.6299212598425197,
          "duration": 0.16666649999999805
        },
        {
          "name": "G2",
          "midi": 43,
          "time": 47.59254499999982,
          "velocity": 0.6299212598425197,
          "duration": 0.16666649999999805
        },
        {
          "name": "F#3",
          "midi": 54,
          "time": 47.77772999999981,
          "velocity": 0.6299212598425197,
          "duration": 0.16666649999999805
        },
        {
          "name": "F#2",
          "midi": 42,
          "time": 47.77772999999981,
          "velocity": 0.6299212598425197,
          "duration": 0.16666649999999805
        },
        {
          "name": "G2",
          "midi": 43,
          "time": 47.96291499999981,
          "velocity": 0.6299212598425197,
          "duration": 0.16666649999999805
        },
        {
          "name": "G1",
          "midi": 31,
          "time": 47.96291499999981,
          "velocity": 0.6299212598425197,
          "duration": 0.16666649999999805
        },
        {
          "name": "G3",
          "midi": 55,
          "time": 48.14809999999981,
          "velocity": 0.6299212598425197,
          "duration": 0.16666649999999805
        },
        {
          "name": "G2",
          "midi": 43,
          "time": 48.14809999999981,
          "velocity": 0.6299212598425197,
          "duration": 0.16666649999999805
        },
        {
          "name": "G1",
          "midi": 31,
          "time": 48.333284999999805,
          "velocity": 0.6299212598425197,
          "duration": 0.16666649999999805
        },
        {
          "name": "G2",
          "midi": 43,
          "time": 48.333284999999805,
          "velocity": 0.6299212598425197,
          "duration": 0.16666649999999805
        },
        {
          "name": "G2",
          "midi": 43,
          "time": 48.5184699999998,
          "velocity": 0.6299212598425197,
          "duration": 0.16666649999999805
        },
        {
          "name": "G1",
          "midi": 31,
          "time": 48.5184699999998,
          "velocity": 0.6299212598425197,
          "duration": 0.16666649999999805
        },
        {
          "name": "A2",
          "midi": 45,
          "time": 48.7036549999998,
          "velocity": 0.6299212598425197,
          "duration": 0.16666649999999805
        },
        {
          "name": "A3",
          "midi": 57,
          "time": 48.7036549999998,
          "velocity": 0.6299212598425197,
          "duration": 0.16666649999999805
        },
        {
          "name": "G1",
          "midi": 31,
          "time": 48.888839999999796,
          "velocity": 0.6299212598425197,
          "duration": 0.16666649999999805
        },
        {
          "name": "G2",
          "midi": 43,
          "time": 48.888839999999796,
          "velocity": 0.6299212598425197,
          "duration": 0.16666649999999805
        },
        {
          "name": "G2",
          "midi": 43,
          "time": 49.07402499999979,
          "velocity": 0.6299212598425197,
          "duration": 0.16666649999999805
        },
        {
          "name": "G3",
          "midi": 55,
          "time": 49.07402499999979,
          "velocity": 0.6299212598425197,
          "duration": 0.16666649999999805
        },
        {
          "name": "G1",
          "midi": 31,
          "time": 49.25920999999979,
          "velocity": 0.6299212598425197,
          "duration": 0.16666649999999805
        },
        {
          "name": "G2",
          "midi": 43,
          "time": 49.25920999999979,
          "velocity": 0.6299212598425197,
          "duration": 0.16666649999999805
        },
        {
          "name": "G1",
          "midi": 31,
          "time": 49.44439499999979,
          "velocity": 0.6299212598425197,
          "duration": 0.16666649999999805
        },
        {
          "name": "G2",
          "midi": 43,
          "time": 49.44439499999979,
          "velocity": 0.6299212598425197,
          "duration": 0.16666649999999805
        },
        {
          "name": "G1",
          "midi": 31,
          "time": 49.629579999999784,
          "velocity": 0.6299212598425197,
          "duration": 0.3333330000000032
        },
        {
          "name": "G2",
          "midi": 43,
          "time": 49.629579999999784,
          "velocity": 0.6299212598425197,
          "duration": 0.3333330000000032
        },
        {
          "name": "A1",
          "midi": 33,
          "time": 49.999949999999785,
          "velocity": 0.6299212598425197,
          "duration": 0.3333330000000032
        },
        {
          "name": "A2",
          "midi": 45,
          "time": 49.999949999999785,
          "velocity": 0.6299212598425197,
          "duration": 0.3333330000000032
        },
        {
          "name": "B2",
          "midi": 47,
          "time": 50.370319999999786,
          "velocity": 0.6299212598425197,
          "duration": 0.16666649999999805
        },
        {
          "name": "B1",
          "midi": 35,
          "time": 50.370319999999786,
          "velocity": 0.6299212598425197,
          "duration": 0.16666649999999805
        },
        {
          "name": "B2",
          "midi": 47,
          "time": 50.55550499999978,
          "velocity": 0.6299212598425197,
          "duration": 0.16666649999999805
        },
        {
          "name": "B1",
          "midi": 35,
          "time": 50.55550499999978,
          "velocity": 0.6299212598425197,
          "duration": 0.16666649999999805
        },
        {
          "name": "A2",
          "midi": 45,
          "time": 50.74068999999978,
          "velocity": 0.6299212598425197,
          "duration": 0.16666649999999805
        },
        {
          "name": "A3",
          "midi": 57,
          "time": 50.74068999999978,
          "velocity": 0.6299212598425197,
          "duration": 0.16666649999999805
        },
        {
          "name": "B2",
          "midi": 47,
          "time": 50.92587499999978,
          "velocity": 0.6299212598425197,
          "duration": 0.16666649999999805
        },
        {
          "name": "B1",
          "midi": 35,
          "time": 50.92587499999978,
          "velocity": 0.6299212598425197,
          "duration": 0.16666649999999805
        },
        {
          "name": "B3",
          "midi": 59,
          "time": 51.111059999999775,
          "velocity": 0.6299212598425197,
          "duration": 0.16666649999999805
        },
        {
          "name": "B2",
          "midi": 47,
          "time": 51.111059999999775,
          "velocity": 0.6299212598425197,
          "duration": 0.16666649999999805
        },
        {
          "name": "B2",
          "midi": 47,
          "time": 51.29624499999977,
          "velocity": 0.6299212598425197,
          "duration": 0.16666649999999805
        },
        {
          "name": "B1",
          "midi": 35,
          "time": 51.29624499999977,
          "velocity": 0.6299212598425197,
          "duration": 0.16666649999999805
        },
        {
          "name": "B2",
          "midi": 47,
          "time": 51.48142999999977,
          "velocity": 0.6299212598425197,
          "duration": 0.16666649999999805
        },
        {
          "name": "B1",
          "midi": 35,
          "time": 51.48142999999977,
          "velocity": 0.6299212598425197,
          "duration": 0.16666649999999805
        },
        {
          "name": "A3",
          "midi": 57,
          "time": 51.666614999999766,
          "velocity": 0.6299212598425197,
          "duration": 0.16666649999999805
        },
        {
          "name": "A2",
          "midi": 45,
          "time": 51.666614999999766,
          "velocity": 0.6299212598425197,
          "duration": 0.16666649999999805
        },
        {
          "name": "B1",
          "midi": 35,
          "time": 51.85179999999976,
          "velocity": 0.6299212598425197,
          "duration": 0.16666649999999805
        },
        {
          "name": "B2",
          "midi": 47,
          "time": 51.85179999999976,
          "velocity": 0.6299212598425197,
          "duration": 0.16666649999999805
        },
        {
          "name": "B3",
          "midi": 59,
          "time": 52.03698499999976,
          "velocity": 0.6299212598425197,
          "duration": 0.16666649999999805
        },
        {
          "name": "B2",
          "midi": 47,
          "time": 52.03698499999976,
          "velocity": 0.6299212598425197,
          "duration": 0.16666649999999805
        },
        {
          "name": "B2",
          "midi": 47,
          "time": 52.22216999999976,
          "velocity": 0.6299212598425197,
          "duration": 0.16666649999999805
        },
        {
          "name": "B1",
          "midi": 35,
          "time": 52.22216999999976,
          "velocity": 0.6299212598425197,
          "duration": 0.16666649999999805
        },
        {
          "name": "B1",
          "midi": 35,
          "time": 52.407354999999754,
          "velocity": 0.6299212598425197,
          "duration": 0.16666649999999805
        },
        {
          "name": "B2",
          "midi": 47,
          "time": 52.407354999999754,
          "velocity": 0.6299212598425197,
          "duration": 0.16666649999999805
        },
        {
          "name": "B1",
          "midi": 35,
          "time": 52.59253999999975,
          "velocity": 0.6299212598425197,
          "duration": 0.3333330000000032
        },
        {
          "name": "B2",
          "midi": 47,
          "time": 52.59253999999975,
          "velocity": 0.6299212598425197,
          "duration": 0.3333330000000032
        },
        {
          "name": "A2",
          "midi": 45,
          "time": 52.96290999999975,
          "velocity": 0.6299212598425197,
          "duration": 0.16666649999999805
        },
        {
          "name": "A1",
          "midi": 33,
          "time": 52.96290999999975,
          "velocity": 0.6299212598425197,
          "duration": 0.16666649999999805
        },
        {
          "name": "G2",
          "midi": 43,
          "time": 53.14809499999975,
          "velocity": 0.6299212598425197,
          "duration": 0.3518515000000022
        },
        {
          "name": "G1",
          "midi": 31,
          "time": 53.14809499999975,
          "velocity": 0.6299212598425197,
          "duration": 0.3518515000000022
        },
        {
          "name": "G1",
          "midi": 31,
          "time": 53.51846499999975,
          "velocity": 0.6299212598425197,
          "duration": 0.16666649999999805
        },
        {
          "name": "G2",
          "midi": 43,
          "time": 53.51846499999975,
          "velocity": 0.6299212598425197,
          "duration": 0.16666649999999805
        },
        {
          "name": "F#3",
          "midi": 54,
          "time": 53.70364999999975,
          "velocity": 0.6299212598425197,
          "duration": 0.16666649999999805
        },
        {
          "name": "F#2",
          "midi": 42,
          "time": 53.70364999999975,
          "velocity": 0.6299212598425197,
          "duration": 0.16666649999999805
        },
        {
          "name": "G1",
          "midi": 31,
          "time": 53.888834999999744,
          "velocity": 0.6299212598425197,
          "duration": 0.16666649999999805
        },
        {
          "name": "G2",
          "midi": 43,
          "time": 53.888834999999744,
          "velocity": 0.6299212598425197,
          "duration": 0.16666649999999805
        },
        {
          "name": "G2",
          "midi": 43,
          "time": 54.07401999999974,
          "velocity": 0.6299212598425197,
          "duration": 0.16666649999999805
        },
        {
          "name": "G3",
          "midi": 55,
          "time": 54.07401999999974,
          "velocity": 0.6299212598425197,
          "duration": 0.16666649999999805
        },
        {
          "name": "G2",
          "midi": 43,
          "time": 54.25920499999974,
          "velocity": 0.6299212598425197,
          "duration": 0.16666649999999805
        },
        {
          "name": "G1",
          "midi": 31,
          "time": 54.25920499999974,
          "velocity": 0.6299212598425197,
          "duration": 0.16666649999999805
        },
        {
          "name": "G2",
          "midi": 43,
          "time": 54.444389999999736,
          "velocity": 0.6299212598425197,
          "duration": 0.16666649999999805
        },
        {
          "name": "G1",
          "midi": 31,
          "time": 54.444389999999736,
          "velocity": 0.6299212598425197,
          "duration": 0.16666649999999805
        },
        {
          "name": "A3",
          "midi": 57,
          "time": 54.62957499999973,
          "velocity": 0.6299212598425197,
          "duration": 0.16666649999999805
        },
        {
          "name": "A2",
          "midi": 45,
          "time": 54.62957499999973,
          "velocity": 0.6299212598425197,
          "duration": 0.16666649999999805
        },
        {
          "name": "G1",
          "midi": 31,
          "time": 54.81475999999973,
          "velocity": 0.6299212598425197,
          "duration": 0.16666649999999805
        },
        {
          "name": "G2",
          "midi": 43,
          "time": 54.81475999999973,
          "velocity": 0.6299212598425197,
          "duration": 0.16666649999999805
        },
        {
          "name": "G3",
          "midi": 55,
          "time": 54.99994499999973,
          "velocity": 0.6299212598425197,
          "duration": 0.16666649999999805
        },
        {
          "name": "G2",
          "midi": 43,
          "time": 54.99994499999973,
          "velocity": 0.6299212598425197,
          "duration": 0.16666649999999805
        },
        {
          "name": "G2",
          "midi": 43,
          "time": 55.185129999999724,
          "velocity": 0.6299212598425197,
          "duration": 0.16666649999999805
        },
        {
          "name": "G1",
          "midi": 31,
          "time": 55.185129999999724,
          "velocity": 0.6299212598425197,
          "duration": 0.16666649999999805
        },
        {
          "name": "G1",
          "midi": 31,
          "time": 55.37031499999972,
          "velocity": 0.6299212598425197,
          "duration": 0.16666649999999805
        },
        {
          "name": "G2",
          "midi": 43,
          "time": 55.37031499999972,
          "velocity": 0.6299212598425197,
          "duration": 0.16666649999999805
        },
        {
          "name": "G1",
          "midi": 31,
          "time": 55.55549999999972,
          "velocity": 0.6299212598425197,
          "duration": 0.3333330000000032
        },
        {
          "name": "G2",
          "midi": 43,
          "time": 55.55549999999972,
          "velocity": 0.6299212598425197,
          "duration": 0.3333330000000032
        },
        {
          "name": "A1",
          "midi": 33,
          "time": 55.92586999999972,
          "velocity": 0.6299212598425197,
          "duration": 0.3333330000000032
        },
        {
          "name": "A2",
          "midi": 45,
          "time": 55.92586999999972,
          "velocity": 0.6299212598425197,
          "duration": 0.3333330000000032
        },
        {
          "name": "B2",
          "midi": 47,
          "time": 56.29623999999972,
          "velocity": 0.6299212598425197,
          "duration": 0.16666649999999805
        },
        {
          "name": "B1",
          "midi": 35,
          "time": 56.29623999999972,
          "velocity": 0.6299212598425197,
          "duration": 0.16666649999999805
        },
        {
          "name": "B2",
          "midi": 47,
          "time": 56.48142499999972,
          "velocity": 0.6299212598425197,
          "duration": 0.16666649999999805
        },
        {
          "name": "B1",
          "midi": 35,
          "time": 56.48142499999972,
          "velocity": 0.6299212598425197,
          "duration": 0.16666649999999805
        },
        {
          "name": "A2",
          "midi": 45,
          "time": 56.666609999999714,
          "velocity": 0.6299212598425197,
          "duration": 0.16666649999999805
        },
        {
          "name": "A3",
          "midi": 57,
          "time": 56.666609999999714,
          "velocity": 0.6299212598425197,
          "duration": 0.16666649999999805
        },
        {
          "name": "B1",
          "midi": 35,
          "time": 56.85179499999971,
          "velocity": 0.6299212598425197,
          "duration": 0.16666649999999805
        },
        {
          "name": "B2",
          "midi": 47,
          "time": 56.85179499999971,
          "velocity": 0.6299212598425197,
          "duration": 0.16666649999999805
        },
        {
          "name": "B3",
          "midi": 59,
          "time": 57.03697999999971,
          "velocity": 0.6299212598425197,
          "duration": 0.16666649999999805
        },
        {
          "name": "B2",
          "midi": 47,
          "time": 57.03697999999971,
          "velocity": 0.6299212598425197,
          "duration": 0.16666649999999805
        },
        {
          "name": "B2",
          "midi": 47,
          "time": 57.222164999999706,
          "velocity": 0.6299212598425197,
          "duration": 0.16666649999999805
        },
        {
          "name": "B1",
          "midi": 35,
          "time": 57.222164999999706,
          "velocity": 0.6299212598425197,
          "duration": 0.16666649999999805
        },
        {
          "name": "B2",
          "midi": 47,
          "time": 57.4073499999997,
          "velocity": 0.6299212598425197,
          "duration": 0.16666649999999805
        },
        {
          "name": "B1",
          "midi": 35,
          "time": 57.4073499999997,
          "velocity": 0.6299212598425197,
          "duration": 0.16666649999999805
        },
        {
          "name": "A2",
          "midi": 45,
          "time": 57.5925349999997,
          "velocity": 0.6299212598425197,
          "duration": 0.16666649999999805
        },
        {
          "name": "A3",
          "midi": 57,
          "time": 57.5925349999997,
          "velocity": 0.6299212598425197,
          "duration": 0.16666649999999805
        },
        {
          "name": "B1",
          "midi": 35,
          "time": 57.7777199999997,
          "velocity": 0.6299212598425197,
          "duration": 0.16666649999999805
        },
        {
          "name": "B2",
          "midi": 47,
          "time": 57.7777199999997,
          "velocity": 0.6299212598425197,
          "duration": 0.16666649999999805
        },
        {
          "name": "B2",
          "midi": 47,
          "time": 57.962904999999694,
          "velocity": 0.6299212598425197,
          "duration": 0.16666649999999805
        },
        {
          "name": "B3",
          "midi": 59,
          "time": 57.962904999999694,
          "velocity": 0.6299212598425197,
          "duration": 0.16666649999999805
        },
        {
          "name": "B1",
          "midi": 35,
          "time": 58.14808999999969,
          "velocity": 0.6299212598425197,
          "duration": 0.16666649999999805
        },
        {
          "name": "B2",
          "midi": 47,
          "time": 58.14808999999969,
          "velocity": 0.6299212598425197,
          "duration": 0.16666649999999805
        },
        {
          "name": "B1",
          "midi": 35,
          "time": 58.33327499999969,
          "velocity": 0.6299212598425197,
          "duration": 0.16666649999999805
        },
        {
          "name": "B2",
          "midi": 47,
          "time": 58.33327499999969,
          "velocity": 0.6299212598425197,
          "duration": 0.16666649999999805
        },
        {
          "name": "B1",
          "midi": 35,
          "time": 58.518459999999685,
          "velocity": 0.6299212598425197,
          "duration": 0.3333330000000032
        },
        {
          "name": "B2",
          "midi": 47,
          "time": 58.518459999999685,
          "velocity": 0.6299212598425197,
          "duration": 0.3333330000000032
        },
        {
          "name": "A2",
          "midi": 45,
          "time": 58.888829999999686,
          "velocity": 0.6299212598425197,
          "duration": 0.16666649999999805
        },
        {
          "name": "A1",
          "midi": 33,
          "time": 58.888829999999686,
          "velocity": 0.6299212598425197,
          "duration": 0.16666649999999805
        },
        {
          "name": "G2",
          "midi": 43,
          "time": 59.07401499999968,
          "velocity": 0.6299212598425197,
          "duration": 0.3518515000000022
        },
        {
          "name": "G1",
          "midi": 31,
          "time": 59.07401499999968,
          "velocity": 0.6299212598425197,
          "duration": 0.3518515000000022
        },
        {
          "name": "G1",
          "midi": 31,
          "time": 59.444384999999684,
          "velocity": 0.6299212598425197,
          "duration": 0.16666649999999805
        },
        {
          "name": "G2",
          "midi": 43,
          "time": 59.444384999999684,
          "velocity": 0.6299212598425197,
          "duration": 0.16666649999999805
        },
        {
          "name": "F#2",
          "midi": 42,
          "time": 59.62956999999968,
          "velocity": 0.6299212598425197,
          "duration": 0.16666649999999805
        },
        {
          "name": "F#3",
          "midi": 54,
          "time": 59.62956999999968,
          "velocity": 0.6299212598425197,
          "duration": 0.16666649999999805
        },
        {
          "name": "G1",
          "midi": 31,
          "time": 59.81475499999968,
          "velocity": 0.6299212598425197,
          "duration": 0.16666649999999805
        },
        {
          "name": "G2",
          "midi": 43,
          "time": 59.81475499999968,
          "velocity": 0.6299212598425197,
          "duration": 0.16666649999999805
        },
        {
          "name": "G3",
          "midi": 55,
          "time": 59.999939999999675,
          "velocity": 0.6299212598425197,
          "duration": 0.16666649999999805
        },
        {
          "name": "G2",
          "midi": 43,
          "time": 59.999939999999675,
          "velocity": 0.6299212598425197,
          "duration": 0.16666649999999805
        },
        {
          "name": "G1",
          "midi": 31,
          "time": 60.18512499999967,
          "velocity": 0.6299212598425197,
          "duration": 0.16666649999999805
        },
        {
          "name": "G2",
          "midi": 43,
          "time": 60.18512499999967,
          "velocity": 0.6299212598425197,
          "duration": 0.16666649999999805
        },
        {
          "name": "G1",
          "midi": 31,
          "time": 60.37030999999967,
          "velocity": 0.6299212598425197,
          "duration": 0.16666649999999805
        },
        {
          "name": "G2",
          "midi": 43,
          "time": 60.37030999999967,
          "velocity": 0.6299212598425197,
          "duration": 0.16666649999999805
        },
        {
          "name": "A2",
          "midi": 45,
          "time": 60.55549499999967,
          "velocity": 0.6299212598425197,
          "duration": 0.16666649999999805
        },
        {
          "name": "A3",
          "midi": 57,
          "time": 60.55549499999967,
          "velocity": 0.6299212598425197,
          "duration": 0.16666649999999805
        },
        {
          "name": "G1",
          "midi": 31,
          "time": 60.740679999999664,
          "velocity": 0.6299212598425197,
          "duration": 0.16666649999999805
        },
        {
          "name": "G2",
          "midi": 43,
          "time": 60.740679999999664,
          "velocity": 0.6299212598425197,
          "duration": 0.16666649999999805
        },
        {
          "name": "G2",
          "midi": 43,
          "time": 60.92586499999966,
          "velocity": 0.6299212598425197,
          "duration": 0.16666649999999805
        },
        {
          "name": "G3",
          "midi": 55,
          "time": 60.92586499999966,
          "velocity": 0.6299212598425197,
          "duration": 0.16666649999999805
        },
        {
          "name": "G1",
          "midi": 31,
          "time": 61.11104999999966,
          "velocity": 0.6299212598425197,
          "duration": 0.16666649999999805
        },
        {
          "name": "G2",
          "midi": 43,
          "time": 61.11104999999966,
          "velocity": 0.6299212598425197,
          "duration": 0.16666649999999805
        },
        {
          "name": "G1",
          "midi": 31,
          "time": 61.296234999999655,
          "velocity": 0.6299212598425197,
          "duration": 0.16666649999999805
        },
        {
          "name": "G2",
          "midi": 43,
          "time": 61.296234999999655,
          "velocity": 0.6299212598425197,
          "duration": 0.16666649999999805
        },
        {
          "name": "G2",
          "midi": 43,
          "time": 61.48141999999965,
          "velocity": 0.6299212598425197,
          "duration": 0.3333330000000032
        },
        {
          "name": "G1",
          "midi": 31,
          "time": 61.48141999999965,
          "velocity": 0.6299212598425197,
          "duration": 0.3333330000000032
        },
        {
          "name": "A1",
          "midi": 33,
          "time": 61.85178999999965,
          "velocity": 0.6299212598425197,
          "duration": 0.3333330000000032
        },
        {
          "name": "A2",
          "midi": 45,
          "time": 61.85178999999965,
          "velocity": 0.6299212598425197,
          "duration": 0.3333330000000032
        },
        {
          "name": "B1",
          "midi": 35,
          "time": 62.222159999999654,
          "velocity": 0.6299212598425197,
          "duration": 0.16666649999999805
        },
        {
          "name": "B2",
          "midi": 47,
          "time": 62.222159999999654,
          "velocity": 0.6299212598425197,
          "duration": 0.16666649999999805
        },
        {
          "name": "B2",
          "midi": 47,
          "time": 62.40734499999965,
          "velocity": 0.6299212598425197,
          "duration": 0.16666649999999805
        },
        {
          "name": "B1",
          "midi": 35,
          "time": 62.40734499999965,
          "velocity": 0.6299212598425197,
          "duration": 0.16666649999999805
        },
        {
          "name": "A2",
          "midi": 45,
          "time": 62.59252999999965,
          "velocity": 0.6299212598425197,
          "duration": 0.16666649999999805
        },
        {
          "name": "A3",
          "midi": 57,
          "time": 62.59252999999965,
          "velocity": 0.6299212598425197,
          "duration": 0.16666649999999805
        },
        {
          "name": "B2",
          "midi": 47,
          "time": 62.777714999999645,
          "velocity": 0.6299212598425197,
          "duration": 0.16666649999999805
        },
        {
          "name": "B1",
          "midi": 35,
          "time": 62.777714999999645,
          "velocity": 0.6299212598425197,
          "duration": 0.16666649999999805
        },
        {
          "name": "B2",
          "midi": 47,
          "time": 62.96289999999964,
          "velocity": 0.6299212598425197,
          "duration": 0.16666649999999805
        },
        {
          "name": "B3",
          "midi": 59,
          "time": 62.96289999999964,
          "velocity": 0.6299212598425197,
          "duration": 0.16666649999999805
        },
        {
          "name": "B1",
          "midi": 35,
          "time": 63.14808499999964,
          "velocity": 0.6299212598425197,
          "duration": 0.16666649999999805
        },
        {
          "name": "B2",
          "midi": 47,
          "time": 63.14808499999964,
          "velocity": 0.6299212598425197,
          "duration": 0.16666649999999805
        },
        {
          "name": "B2",
          "midi": 47,
          "time": 63.33326999999964,
          "velocity": 0.6299212598425197,
          "duration": 0.16666649999999805
        },
        {
          "name": "B1",
          "midi": 35,
          "time": 63.33326999999964,
          "velocity": 0.6299212598425197,
          "duration": 0.16666649999999805
        },
        {
          "name": "A3",
          "midi": 57,
          "time": 63.51845499999963,
          "velocity": 0.6299212598425197,
          "duration": 0.16666649999999805
        },
        {
          "name": "A2",
          "midi": 45,
          "time": 63.51845499999963,
          "velocity": 0.6299212598425197,
          "duration": 0.16666649999999805
        },
        {
          "name": "B1",
          "midi": 35,
          "time": 63.70363999999963,
          "velocity": 0.6299212598425197,
          "duration": 0.16666649999999805
        },
        {
          "name": "B2",
          "midi": 47,
          "time": 63.70363999999963,
          "velocity": 0.6299212598425197,
          "duration": 0.16666649999999805
        },
        {
          "name": "B2",
          "midi": 47,
          "time": 63.88882499999963,
          "velocity": 0.6299212598425197,
          "duration": 0.16666650000000516
        },
        {
          "name": "B3",
          "midi": 59,
          "time": 63.88882499999963,
          "velocity": 0.6299212598425197,
          "duration": 0.16666650000000516
        },
        {
          "name": "B2",
          "midi": 47,
          "time": 64.07400999999963,
          "velocity": 0.6299212598425197,
          "duration": 0.16666650000000516
        },
        {
          "name": "B1",
          "midi": 35,
          "time": 64.07400999999963,
          "velocity": 0.6299212598425197,
          "duration": 0.16666650000000516
        },
        {
          "name": "B1",
          "midi": 35,
          "time": 64.25919499999964,
          "velocity": 0.6299212598425197,
          "duration": 0.16666650000000516
        },
        {
          "name": "B2",
          "midi": 47,
          "time": 64.25919499999964,
          "velocity": 0.6299212598425197,
          "duration": 0.16666650000000516
        },
        {
          "name": "B2",
          "midi": 47,
          "time": 64.44437999999964,
          "velocity": 0.6299212598425197,
          "duration": 0.3333329999999961
        },
        {
          "name": "B1",
          "midi": 35,
          "time": 64.44437999999964,
          "velocity": 0.6299212598425197,
          "duration": 0.3333329999999961
        },
        {
          "name": "A2",
          "midi": 45,
          "time": 64.81474999999963,
          "velocity": 0.6299212598425197,
          "duration": 0.16666650000000516
        },
        {
          "name": "A1",
          "midi": 33,
          "time": 64.81474999999963,
          "velocity": 0.6299212598425197,
          "duration": 0.16666650000000516
        },
        {
          "name": "G2",
          "midi": 43,
          "time": 64.99993499999964,
          "velocity": 0.6299212598425197,
          "duration": 0.3518514999999951
        },
        {
          "name": "G1",
          "midi": 31,
          "time": 64.99993499999964,
          "velocity": 0.6299212598425197,
          "duration": 0.3518514999999951
        },
        {
          "name": "G1",
          "midi": 31,
          "time": 65.37030499999963,
          "velocity": 0.6299212598425197,
          "duration": 0.16666650000000516
        },
        {
          "name": "G2",
          "midi": 43,
          "time": 65.37030499999963,
          "velocity": 0.6299212598425197,
          "duration": 0.16666650000000516
        },
        {
          "name": "F#2",
          "midi": 42,
          "time": 65.55548999999964,
          "velocity": 0.6299212598425197,
          "duration": 0.16666650000000516
        },
        {
          "name": "F#3",
          "midi": 54,
          "time": 65.55548999999964,
          "velocity": 0.6299212598425197,
          "duration": 0.16666650000000516
        },
        {
          "name": "G2",
          "midi": 43,
          "time": 65.74067499999964,
          "velocity": 0.6299212598425197,
          "duration": 0.16666650000000516
        },
        {
          "name": "G1",
          "midi": 31,
          "time": 65.74067499999964,
          "velocity": 0.6299212598425197,
          "duration": 0.16666650000000516
        },
        {
          "name": "G3",
          "midi": 55,
          "time": 65.92585999999964,
          "velocity": 0.6299212598425197,
          "duration": 0.16666650000000516
        },
        {
          "name": "G2",
          "midi": 43,
          "time": 65.92585999999964,
          "velocity": 0.6299212598425197,
          "duration": 0.16666650000000516
        },
        {
          "name": "G1",
          "midi": 31,
          "time": 66.11104499999965,
          "velocity": 0.6299212598425197,
          "duration": 0.16666650000000516
        },
        {
          "name": "G2",
          "midi": 43,
          "time": 66.11104499999965,
          "velocity": 0.6299212598425197,
          "duration": 0.16666650000000516
        },
        {
          "name": "G1",
          "midi": 31,
          "time": 66.29622999999965,
          "velocity": 0.6299212598425197,
          "duration": 0.16666650000000516
        },
        {
          "name": "G2",
          "midi": 43,
          "time": 66.29622999999965,
          "velocity": 0.6299212598425197,
          "duration": 0.16666650000000516
        },
        {
          "name": "A3",
          "midi": 57,
          "time": 66.48141499999966,
          "velocity": 0.6299212598425197,
          "duration": 0.16666650000000516
        },
        {
          "name": "A2",
          "midi": 45,
          "time": 66.48141499999966,
          "velocity": 0.6299212598425197,
          "duration": 0.16666650000000516
        },
        {
          "name": "G2",
          "midi": 43,
          "time": 66.66659999999966,
          "velocity": 0.6299212598425197,
          "duration": 0.16666650000000516
        },
        {
          "name": "G1",
          "midi": 31,
          "time": 66.66659999999966,
          "velocity": 0.6299212598425197,
          "duration": 0.16666650000000516
        },
        {
          "name": "G3",
          "midi": 55,
          "time": 66.85178499999967,
          "velocity": 0.6299212598425197,
          "duration": 0.16666650000000516
        },
        {
          "name": "G2",
          "midi": 43,
          "time": 66.85178499999967,
          "velocity": 0.6299212598425197,
          "duration": 0.16666650000000516
        },
        {
          "name": "G2",
          "midi": 43,
          "time": 67.03696999999967,
          "velocity": 0.6299212598425197,
          "duration": 0.16666650000000516
        },
        {
          "name": "G1",
          "midi": 31,
          "time": 67.03696999999967,
          "velocity": 0.6299212598425197,
          "duration": 0.16666650000000516
        },
        {
          "name": "G1",
          "midi": 31,
          "time": 67.22215499999967,
          "velocity": 0.6299212598425197,
          "duration": 0.16666650000000516
        },
        {
          "name": "G2",
          "midi": 43,
          "time": 67.22215499999967,
          "velocity": 0.6299212598425197,
          "duration": 0.16666650000000516
        },
        {
          "name": "G1",
          "midi": 31,
          "time": 67.40733999999968,
          "velocity": 0.6299212598425197,
          "duration": 0.3333329999999961
        },
        {
          "name": "G2",
          "midi": 43,
          "time": 67.40733999999968,
          "velocity": 0.6299212598425197,
          "duration": 0.3333329999999961
        },
        {
          "name": "A2",
          "midi": 45,
          "time": 67.77770999999967,
          "velocity": 0.6299212598425197,
          "duration": 0.3333329999999961
        },
        {
          "name": "A1",
          "midi": 33,
          "time": 67.77770999999967,
          "velocity": 0.6299212598425197,
          "duration": 0.3333329999999961
        },
        {
          "name": "B2",
          "midi": 47,
          "time": 68.14807999999967,
          "velocity": 0.6299212598425197,
          "duration": 0.6944437500000049
        },
        {
          "name": "B1",
          "midi": 35,
          "time": 68.14807999999967,
          "velocity": 0.6299212598425197,
          "duration": 0.6944437500000049
        },
        {
          "name": "B2",
          "midi": 47,
          "time": 68.88881999999967,
          "velocity": 0.6299212598425197,
          "duration": 0.14814800000000616
        },
        {
          "name": "B1",
          "midi": 35,
          "time": 68.88881999999967,
          "velocity": 0.6299212598425197,
          "duration": 0.14814800000000616
        },
        {
          "name": "B1",
          "midi": 35,
          "time": 69.07400499999967,
          "velocity": 0.6299212598425197,
          "duration": 0.14814800000000616
        },
        {
          "name": "B2",
          "midi": 47,
          "time": 69.07400499999967,
          "velocity": 0.6299212598425197,
          "duration": 0.14814800000000616
        },
        {
          "name": "B1",
          "midi": 35,
          "time": 69.25918999999968,
          "velocity": 0.6299212598425197,
          "duration": 0.14814800000000616
        },
        {
          "name": "B2",
          "midi": 47,
          "time": 69.25918999999968,
          "velocity": 0.6299212598425197,
          "duration": 0.14814800000000616
        },
        {
          "name": "B1",
          "midi": 35,
          "time": 69.44437499999968,
          "velocity": 0.6299212598425197,
          "duration": 0.7037030000000044
        },
        {
          "name": "B2",
          "midi": 47,
          "time": 69.44437499999968,
          "velocity": 0.6299212598425197,
          "duration": 0.7037030000000044
        },
        {
          "name": "E2",
          "midi": 40,
          "time": 70.18511499999968,
          "velocity": 0.6299212598425197,
          "duration": 0.2962959999999981
        },
        {
          "name": "E3",
          "midi": 52,
          "time": 70.18511499999968,
          "velocity": 0.6299212598425197,
          "duration": 0.2962959999999981
        },
        {
          "name": "D3",
          "midi": 50,
          "time": 70.55548499999968,
          "velocity": 0.6299212598425197,
          "duration": 0.14814800000000616
        },
        {
          "name": "D2",
          "midi": 38,
          "time": 70.55548499999968,
          "velocity": 0.6299212598425197,
          "duration": 0.14814800000000616
        },
        {
          "name": "C#2",
          "midi": 37,
          "time": 70.74066999999968,
          "velocity": 0.6299212598425197,
          "duration": 0.14814800000000616
        },
        {
          "name": "C#3",
          "midi": 49,
          "time": 70.74066999999968,
          "velocity": 0.6299212598425197,
          "duration": 0.14814800000000616
        },
        {
          "name": "B2",
          "midi": 47,
          "time": 70.92585499999969,
          "velocity": 0.6299212598425197,
          "duration": 0.3595675416666637
        },
        {
          "name": "B1",
          "midi": 35,
          "time": 70.92585499999969,
          "velocity": 0.6299212598425197,
          "duration": 0.3595675416666637
        },
        {
          "name": "B1",
          "midi": 35,
          "time": 71.29622499999968,
          "velocity": 0.6299212598425197,
          "duration": 0.14814800000000616
        },
        {
          "name": "B2",
          "midi": 47,
          "time": 71.29622499999968,
          "velocity": 0.6299212598425197,
          "duration": 0.14814800000000616
        },
        {
          "name": "B1",
          "midi": 35,
          "time": 71.48140999999968,
          "velocity": 0.6299212598425197,
          "duration": 0.14814800000000616
        },
        {
          "name": "A2",
          "midi": 45,
          "time": 71.48140999999968,
          "velocity": 0.6299212598425197,
          "duration": 0.14814800000000616
        },
        {
          "name": "B1",
          "midi": 35,
          "time": 71.66659499999969,
          "velocity": 0.6299212598425197,
          "duration": 0.5185180000000003
        },
        {
          "name": "B2",
          "midi": 47,
          "time": 71.66659499999969,
          "velocity": 0.6299212598425197,
          "duration": 0.5185180000000003
        },
        {
          "name": "D2",
          "midi": 38,
          "time": 72.22214999999969,
          "velocity": 0.6299212598425197,
          "duration": 0.14814800000000616
        },
        {
          "name": "D3",
          "midi": 50,
          "time": 72.22214999999969,
          "velocity": 0.6299212598425197,
          "duration": 0.14814800000000616
        },
        {
          "name": "C#2",
          "midi": 37,
          "time": 72.40733499999969,
          "velocity": 0.6299212598425197,
          "duration": 0.5324068750000066
        },
        {
          "name": "C#3",
          "midi": 49,
          "time": 72.40733499999969,
          "velocity": 0.6299212598425197,
          "duration": 0.5324068750000066
        },
        {
          "name": "E3",
          "midi": 52,
          "time": 72.9628899999997,
          "velocity": 0.6299212598425197,
          "duration": 0.14814800000000616
        },
        {
          "name": "E2",
          "midi": 40,
          "time": 72.9628899999997,
          "velocity": 0.6299212598425197,
          "duration": 0.14814800000000616
        },
        {
          "name": "D2",
          "midi": 38,
          "time": 73.14807499999971,
          "velocity": 0.6299212598425197,
          "duration": 0.34722187500000246
        },
        {
          "name": "D3",
          "midi": 50,
          "time": 73.14807499999971,
          "velocity": 0.6299212598425197,
          "duration": 0.34722187500000246
        },
        {
          "name": "C#2",
          "midi": 37,
          "time": 73.51844499999972,
          "velocity": 0.6299212598425197,
          "duration": 0.14814800000000616
        },
        {
          "name": "C#3",
          "midi": 49,
          "time": 73.51844499999972,
          "velocity": 0.6299212598425197,
          "duration": 0.14814800000000616
        },
        {
          "name": "D3",
          "midi": 50,
          "time": 73.70362999999972,
          "velocity": 0.6299212598425197,
          "duration": 0.14814800000000616
        },
        {
          "name": "D2",
          "midi": 38,
          "time": 73.70362999999972,
          "velocity": 0.6299212598425197,
          "duration": 0.14814800000000616
        },
        {
          "name": "G2",
          "midi": 43,
          "time": 73.88881499999972,
          "velocity": 0.6299212598425197,
          "duration": 1.0740729999999985
        },
        {
          "name": "G1",
          "midi": 31,
          "time": 73.88881499999972,
          "velocity": 0.6299212598425197,
          "duration": 1.0740729999999985
        },
        {
          "name": "D3",
          "midi": 50,
          "time": 75.18510999999972,
          "velocity": 0.6299212598425197,
          "duration": 0.14814800000000616
        },
        {
          "name": "D2",
          "midi": 38,
          "time": 75.18510999999972,
          "velocity": 0.6299212598425197,
          "duration": 0.14814800000000616
        },
        {
          "name": "C#3",
          "midi": 49,
          "time": 75.37029499999973,
          "velocity": 0.6299212598425197,
          "duration": 0.5324068750000066
        },
        {
          "name": "C#2",
          "midi": 37,
          "time": 75.37029499999973,
          "velocity": 0.6299212598425197,
          "duration": 0.5324068750000066
        },
        {
          "name": "D2",
          "midi": 38,
          "time": 75.92584999999974,
          "velocity": 0.6299212598425197,
          "duration": 0.14814800000000616
        },
        {
          "name": "D3",
          "midi": 50,
          "time": 75.92584999999974,
          "velocity": 0.6299212598425197,
          "duration": 0.14814800000000616
        },
        {
          "name": "C#3",
          "midi": 49,
          "time": 76.11103499999975,
          "velocity": 0.6299212598425197,
          "duration": 0.4444440000000043
        },
        {
          "name": "C#2",
          "midi": 37,
          "time": 76.11103499999975,
          "velocity": 0.6299212598425197,
          "duration": 0.4444440000000043
        },
        {
          "name": "A1",
          "midi": 33,
          "time": 76.66658999999974,
          "velocity": 0.6299212598425197,
          "duration": 0.2962959999999981
        },
        {
          "name": "A2",
          "midi": 45,
          "time": 76.66658999999974,
          "velocity": 0.6299212598425197,
          "duration": 0.2962959999999981
        },
        {
          "name": "B2",
          "midi": 47,
          "time": 77.03695999999974,
          "velocity": 0.6299212598425197,
          "duration": 0.14814800000000616
        },
        {
          "name": "B1",
          "midi": 35,
          "time": 77.03695999999974,
          "velocity": 0.6299212598425197,
          "duration": 0.14814800000000616
        },
        {
          "name": "B1",
          "midi": 35,
          "time": 77.22214499999974,
          "velocity": 0.6299212598425197,
          "duration": 0.14814800000000616
        },
        {
          "name": "B2",
          "midi": 47,
          "time": 77.22214499999974,
          "velocity": 0.6299212598425197,
          "duration": 0.14814800000000616
        },
        {
          "name": "A1",
          "midi": 33,
          "time": 77.40732999999975,
          "velocity": 0.6299212598425197,
          "duration": 0.14814800000000616
        },
        {
          "name": "A2",
          "midi": 45,
          "time": 77.40732999999975,
          "velocity": 0.6299212598425197,
          "duration": 0.14814800000000616
        },
        {
          "name": "B1",
          "midi": 35,
          "time": 77.59251499999975,
          "velocity": 0.6299212598425197,
          "duration": 0.4444440000000043
        },
        {
          "name": "B2",
          "midi": 47,
          "time": 77.59251499999975,
          "velocity": 0.6299212598425197,
          "duration": 0.4444440000000043
        },
        {
          "name": "D3",
          "midi": 50,
          "time": 78.14806999999975,
          "velocity": 0.6299212598425197,
          "duration": 0.14814800000000616
        },
        {
          "name": "D2",
          "midi": 38,
          "time": 78.14806999999975,
          "velocity": 0.6299212598425197,
          "duration": 0.14814800000000616
        },
        {
          "name": "C#2",
          "midi": 37,
          "time": 78.33325499999975,
          "velocity": 0.6299212598425197,
          "duration": 0.48148100000000227
        },
        {
          "name": "C#3",
          "midi": 49,
          "time": 78.33325499999975,
          "velocity": 0.6299212598425197,
          "duration": 0.48148100000000227
        },
        {
          "name": "E3",
          "midi": 52,
          "time": 78.88880999999975,
          "velocity": 0.6299212598425197,
          "duration": 0.14814800000000616
        },
        {
          "name": "E2",
          "midi": 40,
          "time": 78.88880999999975,
          "velocity": 0.6299212598425197,
          "duration": 0.14814800000000616
        },
        {
          "name": "D3",
          "midi": 50,
          "time": 79.07399499999975,
          "velocity": 0.6299212598425197,
          "duration": 0.4444440000000043
        },
        {
          "name": "D2",
          "midi": 38,
          "time": 79.07399499999975,
          "velocity": 0.6299212598425197,
          "duration": 0.4444440000000043
        },
        {
          "name": "D3",
          "midi": 50,
          "time": 79.62954999999975,
          "velocity": 0.6299212598425197,
          "duration": 0.14814800000000616
        },
        {
          "name": "D2",
          "midi": 38,
          "time": 79.62954999999975,
          "velocity": 0.6299212598425197,
          "duration": 0.14814800000000616
        },
        {
          "name": "G2",
          "midi": 43,
          "time": 79.81473499999976,
          "velocity": 0.6299212598425197,
          "duration": 1.2222210000000047
        },
        {
          "name": "G1",
          "midi": 31,
          "time": 79.81473499999976,
          "velocity": 0.6299212598425197,
          "duration": 1.2222210000000047
        },
        {
          "name": "D2",
          "midi": 38,
          "time": 81.11102999999976,
          "velocity": 0.6299212598425197,
          "duration": 0.14814800000000616
        },
        {
          "name": "D3",
          "midi": 50,
          "time": 81.11102999999976,
          "velocity": 0.6299212598425197,
          "duration": 0.14814800000000616
        },
        {
          "name": "C#2",
          "midi": 37,
          "time": 81.29621499999976,
          "velocity": 0.6299212598425197,
          "duration": 0.48148100000000227
        },
        {
          "name": "C#3",
          "midi": 49,
          "time": 81.29621499999976,
          "velocity": 0.6299212598425197,
          "duration": 0.48148100000000227
        },
        {
          "name": "D3",
          "midi": 50,
          "time": 81.85176999999976,
          "velocity": 0.6299212598425197,
          "duration": 0.14814800000000616
        },
        {
          "name": "D2",
          "midi": 38,
          "time": 81.85176999999976,
          "velocity": 0.6299212598425197,
          "duration": 0.14814800000000616
        },
        {
          "name": "C#3",
          "midi": 49,
          "time": 82.03695499999976,
          "velocity": 0.6299212598425197,
          "duration": 0.4444440000000043
        },
        {
          "name": "C#2",
          "midi": 37,
          "time": 82.03695499999976,
          "velocity": 0.6299212598425197,
          "duration": 0.4444440000000043
        },
        {
          "name": "A1",
          "midi": 33,
          "time": 82.59250999999976,
          "velocity": 0.6299212598425197,
          "duration": 0.2962959999999981
        },
        {
          "name": "A2",
          "midi": 45,
          "time": 82.59250999999976,
          "velocity": 0.6299212598425197,
          "duration": 0.2962959999999981
        },
        {
          "name": "B2",
          "midi": 47,
          "time": 82.96287999999976,
          "velocity": 0.6299212598425197,
          "duration": 0.4444440000000043
        },
        {
          "name": "B1",
          "midi": 35,
          "time": 82.96287999999976,
          "velocity": 0.6299212598425197,
          "duration": 0.4444440000000043
        },
        {
          "name": "F#2",
          "midi": 42,
          "time": 83.42584249999976,
          "velocity": 0.6299212598425197,
          "duration": 0.07407399999999598
        },
        {
          "name": "F#3",
          "midi": 54,
          "time": 83.42584249999976,
          "velocity": 0.6299212598425197,
          "duration": 0.07407399999999598
        },
        {
          "name": "E3",
          "midi": 52,
          "time": 83.51843499999976,
          "velocity": 0.6299212598425197,
          "duration": 0.07407399999999598
        },
        {
          "name": "E2",
          "midi": 40,
          "time": 83.51843499999976,
          "velocity": 0.6299212598425197,
          "duration": 0.07407399999999598
        },
        {
          "name": "F#3",
          "midi": 54,
          "time": 83.61102749999975,
          "velocity": 0.6299212598425197,
          "duration": 0.07407399999999598
        },
        {
          "name": "F#2",
          "midi": 42,
          "time": 83.61102749999975,
          "velocity": 0.6299212598425197,
          "duration": 0.07407399999999598
        },
        {
          "name": "A1",
          "midi": 33,
          "time": 83.70361999999975,
          "velocity": 0.6299212598425197,
          "duration": 0.4444440000000043
        },
        {
          "name": "A2",
          "midi": 45,
          "time": 83.70361999999975,
          "velocity": 0.6299212598425197,
          "duration": 0.4444440000000043
        },
        {
          "name": "E3",
          "midi": 52,
          "time": 84.16658249999975,
          "velocity": 0.6299212598425197,
          "duration": 0.07407399999999598
        },
        {
          "name": "E2",
          "midi": 40,
          "time": 84.16658249999975,
          "velocity": 0.6299212598425197,
          "duration": 0.07407399999999598
        },
        {
          "name": "D3",
          "midi": 50,
          "time": 84.25917499999974,
          "velocity": 0.6299212598425197,
          "duration": 0.07407399999999598
        },
        {
          "name": "D2",
          "midi": 38,
          "time": 84.25917499999974,
          "velocity": 0.6299212598425197,
          "duration": 0.07407399999999598
        },
        {
          "name": "E3",
          "midi": 52,
          "time": 84.35176749999974,
          "velocity": 0.6299212598425197,
          "duration": 0.07407399999999598
        },
        {
          "name": "E2",
          "midi": 40,
          "time": 84.35176749999974,
          "velocity": 0.6299212598425197,
          "duration": 0.07407399999999598
        },
        {
          "name": "G2",
          "midi": 43,
          "time": 84.44435999999973,
          "velocity": 0.6299212598425197,
          "duration": 0.4444440000000043
        },
        {
          "name": "G1",
          "midi": 31,
          "time": 84.44435999999973,
          "velocity": 0.6299212598425197,
          "duration": 0.4444440000000043
        },
        {
          "name": "B1",
          "midi": 35,
          "time": 84.90732249999974,
          "velocity": 0.6299212598425197,
          "duration": 0.08796287500000233
        },
        {
          "name": "B2",
          "midi": 47,
          "time": 84.90732249999974,
          "velocity": 0.6299212598425197,
          "duration": 0.08796287500000233
        },
        {
          "name": "D3",
          "midi": 50,
          "time": 84.99991499999975,
          "velocity": 0.6299212598425197,
          "duration": 0.08796287500000233
        },
        {
          "name": "D2",
          "midi": 38,
          "time": 84.99991499999975,
          "velocity": 0.6299212598425197,
          "duration": 0.08796287500000233
        },
        {
          "name": "F#3",
          "midi": 54,
          "time": 85.09250749999975,
          "velocity": 0.6299212598425197,
          "duration": 0.08796287500000233
        },
        {
          "name": "F#2",
          "midi": 42,
          "time": 85.09250749999975,
          "velocity": 0.6299212598425197,
          "duration": 0.08796287500000233
        },
        {
          "name": "E2",
          "midi": 40,
          "time": 85.18509999999976,
          "velocity": 0.6299212598425197,
          "duration": 0.2962959999999981
        },
        {
          "name": "E3",
          "midi": 52,
          "time": 85.18509999999976,
          "velocity": 0.6299212598425197,
          "duration": 0.2962959999999981
        },
        {
          "name": "A1",
          "midi": 33,
          "time": 85.55546999999976,
          "velocity": 0.6299212598425197,
          "duration": 0.2962959999999981
        },
        {
          "name": "A2",
          "midi": 45,
          "time": 85.55546999999976,
          "velocity": 0.6299212598425197,
          "duration": 0.2962959999999981
        },
        {
          "name": "B2",
          "midi": 47,
          "time": 85.92583999999975,
          "velocity": 0.6299212598425197,
          "duration": 0.4444440000000043
        },
        {
          "name": "B1",
          "midi": 35,
          "time": 85.92583999999975,
          "velocity": 0.6299212598425197,
          "duration": 0.4444440000000043
        },
        {
          "name": "F#3",
          "midi": 54,
          "time": 86.38880249999976,
          "velocity": 0.6299212598425197,
          "duration": 0.07407399999999598
        },
        {
          "name": "F#2",
          "midi": 42,
          "time": 86.38880249999976,
          "velocity": 0.6299212598425197,
          "duration": 0.07407399999999598
        },
        {
          "name": "E2",
          "midi": 40,
          "time": 86.48139499999975,
          "velocity": 0.6299212598425197,
          "duration": 0.07407399999999598
        },
        {
          "name": "E3",
          "midi": 52,
          "time": 86.48139499999975,
          "velocity": 0.6299212598425197,
          "duration": 0.07407399999999598
        },
        {
          "name": "F#2",
          "midi": 42,
          "time": 86.57398749999975,
          "velocity": 0.6299212598425197,
          "duration": 0.07407399999999598
        },
        {
          "name": "F#3",
          "midi": 54,
          "time": 86.57398749999975,
          "velocity": 0.6299212598425197,
          "duration": 0.07407399999999598
        },
        {
          "name": "A2",
          "midi": 45,
          "time": 86.66657999999974,
          "velocity": 0.6299212598425197,
          "duration": 0.4444440000000043
        },
        {
          "name": "A1",
          "midi": 33,
          "time": 86.66657999999974,
          "velocity": 0.6299212598425197,
          "duration": 0.4444440000000043
        },
        {
          "name": "E2",
          "midi": 40,
          "time": 87.12954249999974,
          "velocity": 0.6299212598425197,
          "duration": 0.07407399999999598
        },
        {
          "name": "E3",
          "midi": 52,
          "time": 87.12954249999974,
          "velocity": 0.6299212598425197,
          "duration": 0.07407399999999598
        },
        {
          "name": "D2",
          "midi": 38,
          "time": 87.22213499999974,
          "velocity": 0.6299212598425197,
          "duration": 0.07407399999999598
        },
        {
          "name": "D3",
          "midi": 50,
          "time": 87.22213499999974,
          "velocity": 0.6299212598425197,
          "duration": 0.07407399999999598
        },
        {
          "name": "E2",
          "midi": 40,
          "time": 87.31472749999973,
          "velocity": 0.6299212598425197,
          "duration": 0.07407399999999598
        },
        {
          "name": "E3",
          "midi": 52,
          "time": 87.31472749999973,
          "velocity": 0.6299212598425197,
          "duration": 0.07407399999999598
        },
        {
          "name": "G2",
          "midi": 43,
          "time": 87.40731999999973,
          "velocity": 0.6299212598425197,
          "duration": 0.4444440000000043
        },
        {
          "name": "G1",
          "midi": 31,
          "time": 87.40731999999973,
          "velocity": 0.6299212598425197,
          "duration": 0.4444440000000043
        },
        {
          "name": "F#3",
          "midi": 54,
          "time": 87.87028249999973,
          "velocity": 0.6299212598425197,
          "duration": 0.07407399999999598
        },
        {
          "name": "F#2",
          "midi": 42,
          "time": 87.87028249999973,
          "velocity": 0.6299212598425197,
          "duration": 0.07407399999999598
        },
        {
          "name": "E2",
          "midi": 40,
          "time": 87.96287499999973,
          "velocity": 0.6299212598425197,
          "duration": 0.07407399999999598
        },
        {
          "name": "E3",
          "midi": 52,
          "time": 87.96287499999973,
          "velocity": 0.6299212598425197,
          "duration": 0.07407399999999598
        },
        {
          "name": "D3",
          "midi": 50,
          "time": 88.05546749999972,
          "velocity": 0.6299212598425197,
          "duration": 0.07407399999999598
        },
        {
          "name": "D2",
          "midi": 38,
          "time": 88.05546749999972,
          "velocity": 0.6299212598425197,
          "duration": 0.07407399999999598
        },
        {
          "name": "B1",
          "midi": 35,
          "time": 88.88879999999972,
          "velocity": 0.6299212598425197,
          "duration": 0.16666650000000516
        },
        {
          "name": "B2",
          "midi": 47,
          "time": 88.88879999999972,
          "velocity": 0.6299212598425197,
          "duration": 0.16666650000000516
        },
        {
          "name": "B2",
          "midi": 47,
          "time": 89.07398499999972,
          "velocity": 0.6299212598425197,
          "duration": 0.16666650000000516
        },
        {
          "name": "B1",
          "midi": 35,
          "time": 89.07398499999972,
          "velocity": 0.6299212598425197,
          "duration": 0.16666650000000516
        },
        {
          "name": "A3",
          "midi": 57,
          "time": 89.25916999999973,
          "velocity": 0.6299212598425197,
          "duration": 0.16666650000000516
        },
        {
          "name": "A2",
          "midi": 45,
          "time": 89.25916999999973,
          "velocity": 0.6299212598425197,
          "duration": 0.16666650000000516
        },
        {
          "name": "B2",
          "midi": 47,
          "time": 89.44435499999973,
          "velocity": 0.6299212598425197,
          "duration": 0.16666650000000516
        },
        {
          "name": "B1",
          "midi": 35,
          "time": 89.44435499999973,
          "velocity": 0.6299212598425197,
          "duration": 0.16666650000000516
        },
        {
          "name": "B3",
          "midi": 59,
          "time": 89.62953999999974,
          "velocity": 0.6299212598425197,
          "duration": 0.16666650000000516
        },
        {
          "name": "B2",
          "midi": 47,
          "time": 89.62953999999974,
          "velocity": 0.6299212598425197,
          "duration": 0.16666650000000516
        },
        {
          "name": "B1",
          "midi": 35,
          "time": 89.81472499999974,
          "velocity": 0.6299212598425197,
          "duration": 0.16666650000000516
        },
        {
          "name": "B2",
          "midi": 47,
          "time": 89.81472499999974,
          "velocity": 0.6299212598425197,
          "duration": 0.16666650000000516
        },
        {
          "name": "B1",
          "midi": 35,
          "time": 89.99990999999974,
          "velocity": 0.6299212598425197,
          "duration": 0.16666650000000516
        },
        {
          "name": "B2",
          "midi": 47,
          "time": 89.99990999999974,
          "velocity": 0.6299212598425197,
          "duration": 0.16666650000000516
        },
        {
          "name": "A2",
          "midi": 45,
          "time": 90.18509499999975,
          "velocity": 0.6299212598425197,
          "duration": 0.16666650000000516
        },
        {
          "name": "A3",
          "midi": 57,
          "time": 90.18509499999975,
          "velocity": 0.6299212598425197,
          "duration": 0.16666650000000516
        },
        {
          "name": "B2",
          "midi": 47,
          "time": 90.37027999999975,
          "velocity": 0.6299212598425197,
          "duration": 0.16666650000000516
        },
        {
          "name": "B1",
          "midi": 35,
          "time": 90.37027999999975,
          "velocity": 0.6299212598425197,
          "duration": 0.16666650000000516
        },
        {
          "name": "B3",
          "midi": 59,
          "time": 90.55546499999976,
          "velocity": 0.6299212598425197,
          "duration": 0.16666650000000516
        },
        {
          "name": "B2",
          "midi": 47,
          "time": 90.55546499999976,
          "velocity": 0.6299212598425197,
          "duration": 0.16666650000000516
        },
        {
          "name": "B2",
          "midi": 47,
          "time": 90.74064999999976,
          "velocity": 0.6299212598425197,
          "duration": 0.16666650000000516
        },
        {
          "name": "B1",
          "midi": 35,
          "time": 90.74064999999976,
          "velocity": 0.6299212598425197,
          "duration": 0.16666650000000516
        },
        {
          "name": "B1",
          "midi": 35,
          "time": 90.92583499999976,
          "velocity": 0.6299212598425197,
          "duration": 0.16666650000000516
        },
        {
          "name": "B2",
          "midi": 47,
          "time": 90.92583499999976,
          "velocity": 0.6299212598425197,
          "duration": 0.16666650000000516
        },
        {
          "name": "B1",
          "midi": 35,
          "time": 91.11101999999977,
          "velocity": 0.6299212598425197,
          "duration": 0.3333329999999961
        },
        {
          "name": "B2",
          "midi": 47,
          "time": 91.11101999999977,
          "velocity": 0.6299212598425197,
          "duration": 0.3333329999999961
        },
        {
          "name": "A1",
          "midi": 33,
          "time": 91.48138999999976,
          "velocity": 0.6299212598425197,
          "duration": 0.16666650000000516
        },
        {
          "name": "A2",
          "midi": 45,
          "time": 91.48138999999976,
          "velocity": 0.6299212598425197,
          "duration": 0.16666650000000516
        },
        {
          "name": "G2",
          "midi": 43,
          "time": 91.66657499999977,
          "velocity": 0.6299212598425197,
          "duration": 0.3518514999999951
        },
        {
          "name": "G1",
          "midi": 31,
          "time": 91.66657499999977,
          "velocity": 0.6299212598425197,
          "duration": 0.3518514999999951
        },
        {
          "name": "G1",
          "midi": 31,
          "time": 92.03694499999976,
          "velocity": 0.6299212598425197,
          "duration": 0.16666650000000516
        },
        {
          "name": "G2",
          "midi": 43,
          "time": 92.03694499999976,
          "velocity": 0.6299212598425197,
          "duration": 0.16666650000000516
        },
        {
          "name": "F#3",
          "midi": 54,
          "time": 92.22212999999977,
          "velocity": 0.6299212598425197,
          "duration": 0.16666650000000516
        },
        {
          "name": "F#2",
          "midi": 42,
          "time": 92.22212999999977,
          "velocity": 0.6299212598425197,
          "duration": 0.16666650000000516
        },
        {
          "name": "G2",
          "midi": 43,
          "time": 92.40731499999977,
          "velocity": 0.6299212598425197,
          "duration": 0.16666650000000516
        },
        {
          "name": "G1",
          "midi": 31,
          "time": 92.40731499999977,
          "velocity": 0.6299212598425197,
          "duration": 0.16666650000000516
        },
        {
          "name": "G2",
          "midi": 43,
          "time": 92.59249999999977,
          "velocity": 0.6299212598425197,
          "duration": 0.16666650000000516
        },
        {
          "name": "G3",
          "midi": 55,
          "time": 92.59249999999977,
          "velocity": 0.6299212598425197,
          "duration": 0.16666650000000516
        },
        {
          "name": "G2",
          "midi": 43,
          "time": 92.77768499999978,
          "velocity": 0.6299212598425197,
          "duration": 0.16666650000000516
        },
        {
          "name": "G1",
          "midi": 31,
          "time": 92.77768499999978,
          "velocity": 0.6299212598425197,
          "duration": 0.16666650000000516
        },
        {
          "name": "G1",
          "midi": 31,
          "time": 92.96286999999978,
          "velocity": 0.6299212598425197,
          "duration": 0.16666650000000516
        },
        {
          "name": "G2",
          "midi": 43,
          "time": 92.96286999999978,
          "velocity": 0.6299212598425197,
          "duration": 0.16666650000000516
        },
        {
          "name": "A3",
          "midi": 57,
          "time": 93.14805499999979,
          "velocity": 0.6299212598425197,
          "duration": 0.16666650000000516
        },
        {
          "name": "A2",
          "midi": 45,
          "time": 93.14805499999979,
          "velocity": 0.6299212598425197,
          "duration": 0.16666650000000516
        },
        {
          "name": "G2",
          "midi": 43,
          "time": 93.33323999999979,
          "velocity": 0.6299212598425197,
          "duration": 0.16666650000000516
        },
        {
          "name": "G1",
          "midi": 31,
          "time": 93.33323999999979,
          "velocity": 0.6299212598425197,
          "duration": 0.16666650000000516
        },
        {
          "name": "G2",
          "midi": 43,
          "time": 93.5184249999998,
          "velocity": 0.6299212598425197,
          "duration": 0.16666650000000516
        },
        {
          "name": "G3",
          "midi": 55,
          "time": 93.5184249999998,
          "velocity": 0.6299212598425197,
          "duration": 0.16666650000000516
        },
        {
          "name": "G1",
          "midi": 31,
          "time": 93.7036099999998,
          "velocity": 0.6299212598425197,
          "duration": 0.16666650000000516
        },
        {
          "name": "G2",
          "midi": 43,
          "time": 93.7036099999998,
          "velocity": 0.6299212598425197,
          "duration": 0.16666650000000516
        },
        {
          "name": "G1",
          "midi": 31,
          "time": 93.8887949999998,
          "velocity": 0.6299212598425197,
          "duration": 0.16666650000000516
        },
        {
          "name": "G2",
          "midi": 43,
          "time": 93.8887949999998,
          "velocity": 0.6299212598425197,
          "duration": 0.16666650000000516
        },
        {
          "name": "G1",
          "midi": 31,
          "time": 94.0739799999998,
          "velocity": 0.6299212598425197,
          "duration": 0.3333329999999961
        },
        {
          "name": "G2",
          "midi": 43,
          "time": 94.0739799999998,
          "velocity": 0.6299212598425197,
          "duration": 0.3333329999999961
        },
        {
          "name": "A2",
          "midi": 45,
          "time": 94.4443499999998,
          "velocity": 0.6299212598425197,
          "duration": 0.3333329999999961
        },
        {
          "name": "A1",
          "midi": 33,
          "time": 94.4443499999998,
          "velocity": 0.6299212598425197,
          "duration": 0.3333329999999961
        },
        {
          "name": "B1",
          "midi": 35,
          "time": 94.8147199999998,
          "velocity": 0.6299212598425197,
          "duration": 0.16666650000000516
        },
        {
          "name": "B2",
          "midi": 47,
          "time": 94.8147199999998,
          "velocity": 0.6299212598425197,
          "duration": 0.16666650000000516
        },
        {
          "name": "B1",
          "midi": 35,
          "time": 94.9999049999998,
          "velocity": 0.6299212598425197,
          "duration": 0.16666650000000516
        },
        {
          "name": "B2",
          "midi": 47,
          "time": 94.9999049999998,
          "velocity": 0.6299212598425197,
          "duration": 0.16666650000000516
        },
        {
          "name": "A3",
          "midi": 57,
          "time": 95.1850899999998,
          "velocity": 0.6299212598425197,
          "duration": 0.16666650000000516
        },
        {
          "name": "A2",
          "midi": 45,
          "time": 95.1850899999998,
          "velocity": 0.6299212598425197,
          "duration": 0.16666650000000516
        },
        {
          "name": "B1",
          "midi": 35,
          "time": 95.37027499999981,
          "velocity": 0.6299212598425197,
          "duration": 0.16666650000000516
        },
        {
          "name": "B2",
          "midi": 47,
          "time": 95.37027499999981,
          "velocity": 0.6299212598425197,
          "duration": 0.16666650000000516
        },
        {
          "name": "B3",
          "midi": 59,
          "time": 95.55545999999981,
          "velocity": 0.6299212598425197,
          "duration": 0.16666650000000516
        },
        {
          "name": "B2",
          "midi": 47,
          "time": 95.55545999999981,
          "velocity": 0.6299212598425197,
          "duration": 0.16666650000000516
        },
        {
          "name": "B1",
          "midi": 35,
          "time": 95.74064499999982,
          "velocity": 0.6299212598425197,
          "duration": 0.16666650000000516
        },
        {
          "name": "B2",
          "midi": 47,
          "time": 95.74064499999982,
          "velocity": 0.6299212598425197,
          "duration": 0.16666650000000516
        },
        {
          "name": "B1",
          "midi": 35,
          "time": 95.92582999999982,
          "velocity": 0.6299212598425197,
          "duration": 0.16666650000000516
        },
        {
          "name": "B2",
          "midi": 47,
          "time": 95.92582999999982,
          "velocity": 0.6299212598425197,
          "duration": 0.16666650000000516
        },
        {
          "name": "A3",
          "midi": 57,
          "time": 96.11101499999982,
          "velocity": 0.6299212598425197,
          "duration": 0.16666650000000516
        },
        {
          "name": "A2",
          "midi": 45,
          "time": 96.11101499999982,
          "velocity": 0.6299212598425197,
          "duration": 0.16666650000000516
        },
        {
          "name": "B2",
          "midi": 47,
          "time": 96.29619999999983,
          "velocity": 0.6299212598425197,
          "duration": 0.16666650000000516
        },
        {
          "name": "B1",
          "midi": 35,
          "time": 96.29619999999983,
          "velocity": 0.6299212598425197,
          "duration": 0.16666650000000516
        },
        {
          "name": "B2",
          "midi": 47,
          "time": 96.48138499999983,
          "velocity": 0.6299212598425197,
          "duration": 0.16666650000000516
        },
        {
          "name": "B3",
          "midi": 59,
          "time": 96.48138499999983,
          "velocity": 0.6299212598425197,
          "duration": 0.16666650000000516
        },
        {
          "name": "B1",
          "midi": 35,
          "time": 96.66656999999984,
          "velocity": 0.6299212598425197,
          "duration": 0.16666650000000516
        },
        {
          "name": "B2",
          "midi": 47,
          "time": 96.66656999999984,
          "velocity": 0.6299212598425197,
          "duration": 0.16666650000000516
        },
        {
          "name": "B2",
          "midi": 47,
          "time": 96.85175499999984,
          "velocity": 0.6299212598425197,
          "duration": 0.16666650000000516
        },
        {
          "name": "B1",
          "midi": 35,
          "time": 96.85175499999984,
          "velocity": 0.6299212598425197,
          "duration": 0.16666650000000516
        },
        {
          "name": "B2",
          "midi": 47,
          "time": 97.03693999999984,
          "velocity": 0.6299212598425197,
          "duration": 0.3333329999999961
        },
        {
          "name": "B1",
          "midi": 35,
          "time": 97.03693999999984,
          "velocity": 0.6299212598425197,
          "duration": 0.3333329999999961
        },
        {
          "name": "A1",
          "midi": 33,
          "time": 97.40730999999984,
          "velocity": 0.6299212598425197,
          "duration": 0.16666650000000516
        },
        {
          "name": "A2",
          "midi": 45,
          "time": 97.40730999999984,
          "velocity": 0.6299212598425197,
          "duration": 0.16666650000000516
        },
        {
          "name": "G2",
          "midi": 43,
          "time": 97.59249499999984,
          "velocity": 0.6299212598425197,
          "duration": 0.3518514999999951
        },
        {
          "name": "G1",
          "midi": 31,
          "time": 97.59249499999984,
          "velocity": 0.6299212598425197,
          "duration": 0.3518514999999951
        },
        {
          "name": "G1",
          "midi": 31,
          "time": 97.96286499999984,
          "velocity": 0.6299212598425197,
          "duration": 0.16666650000000516
        },
        {
          "name": "G2",
          "midi": 43,
          "time": 97.96286499999984,
          "velocity": 0.6299212598425197,
          "duration": 0.16666650000000516
        },
        {
          "name": "F#3",
          "midi": 54,
          "time": 98.14804999999984,
          "velocity": 0.6299212598425197,
          "duration": 0.16666650000000516
        },
        {
          "name": "F#2",
          "midi": 42,
          "time": 98.14804999999984,
          "velocity": 0.6299212598425197,
          "duration": 0.16666650000000516
        },
        {
          "name": "G2",
          "midi": 43,
          "time": 98.33323499999985,
          "velocity": 0.6299212598425197,
          "duration": 0.16666650000000516
        },
        {
          "name": "G1",
          "midi": 31,
          "time": 98.33323499999985,
          "velocity": 0.6299212598425197,
          "duration": 0.16666650000000516
        },
        {
          "name": "G2",
          "midi": 43,
          "time": 98.51841999999985,
          "velocity": 0.6299212598425197,
          "duration": 0.16666650000000516
        },
        {
          "name": "G3",
          "midi": 55,
          "time": 98.51841999999985,
          "velocity": 0.6299212598425197,
          "duration": 0.16666650000000516
        },
        {
          "name": "G2",
          "midi": 43,
          "time": 98.70360499999985,
          "velocity": 0.6299212598425197,
          "duration": 0.16666650000000516
        },
        {
          "name": "G1",
          "midi": 31,
          "time": 98.70360499999985,
          "velocity": 0.6299212598425197,
          "duration": 0.16666650000000516
        },
        {
          "name": "G2",
          "midi": 43,
          "time": 98.88878999999986,
          "velocity": 0.6299212598425197,
          "duration": 0.16666650000000516
        },
        {
          "name": "G1",
          "midi": 31,
          "time": 98.88878999999986,
          "velocity": 0.6299212598425197,
          "duration": 0.16666650000000516
        },
        {
          "name": "A2",
          "midi": 45,
          "time": 99.07397499999986,
          "velocity": 0.6299212598425197,
          "duration": 0.16666650000000516
        },
        {
          "name": "A3",
          "midi": 57,
          "time": 99.07397499999986,
          "velocity": 0.6299212598425197,
          "duration": 0.16666650000000516
        },
        {
          "name": "G2",
          "midi": 43,
          "time": 99.25915999999987,
          "velocity": 0.6299212598425197,
          "duration": 0.16666650000000516
        },
        {
          "name": "G1",
          "midi": 31,
          "time": 99.25915999999987,
          "velocity": 0.6299212598425197,
          "duration": 0.16666650000000516
        },
        {
          "name": "G2",
          "midi": 43,
          "time": 99.44434499999987,
          "velocity": 0.6299212598425197,
          "duration": 0.16666650000000516
        },
        {
          "name": "G3",
          "midi": 55,
          "time": 99.44434499999987,
          "velocity": 0.6299212598425197,
          "duration": 0.16666650000000516
        },
        {
          "name": "G2",
          "midi": 43,
          "time": 99.62952999999987,
          "velocity": 0.6299212598425197,
          "duration": 0.16666650000000516
        },
        {
          "name": "G1",
          "midi": 31,
          "time": 99.62952999999987,
          "velocity": 0.6299212598425197,
          "duration": 0.16666650000000516
        },
        {
          "name": "G2",
          "midi": 43,
          "time": 99.81471499999988,
          "velocity": 0.6299212598425197,
          "duration": 0.16666650000000516
        },
        {
          "name": "G1",
          "midi": 31,
          "time": 99.81471499999988,
          "velocity": 0.6299212598425197,
          "duration": 0.16666650000000516
        },
        {
          "name": "G1",
          "midi": 31,
          "time": 99.99989999999988,
          "velocity": 0.6299212598425197,
          "duration": 0.3333329999999961
        },
        {
          "name": "G2",
          "midi": 43,
          "time": 99.99989999999988,
          "velocity": 0.6299212598425197,
          "duration": 0.3333329999999961
        },
        {
          "name": "A2",
          "midi": 45,
          "time": 100.37026999999988,
          "velocity": 0.6299212598425197,
          "duration": 0.3333329999999961
        },
        {
          "name": "A1",
          "midi": 33,
          "time": 100.37026999999988,
          "velocity": 0.6299212598425197,
          "duration": 0.3333329999999961
        },
        {
          "name": "B2",
          "midi": 47,
          "time": 100.74063999999987,
          "velocity": 0.6299212598425197,
          "duration": 0.16666650000000516
        },
        {
          "name": "B1",
          "midi": 35,
          "time": 100.74063999999987,
          "velocity": 0.6299212598425197,
          "duration": 0.16666650000000516
        },
        {
          "name": "B1",
          "midi": 35,
          "time": 100.92582499999988,
          "velocity": 0.6299212598425197,
          "duration": 0.16666650000000516
        },
        {
          "name": "B2",
          "midi": 47,
          "time": 100.92582499999988,
          "velocity": 0.6299212598425197,
          "duration": 0.16666650000000516
        },
        {
          "name": "A3",
          "midi": 57,
          "time": 101.11100999999988,
          "velocity": 0.6299212598425197,
          "duration": 0.16666650000000516
        },
        {
          "name": "A2",
          "midi": 45,
          "time": 101.11100999999988,
          "velocity": 0.6299212598425197,
          "duration": 0.16666650000000516
        },
        {
          "name": "B1",
          "midi": 35,
          "time": 101.29619499999988,
          "velocity": 0.6299212598425197,
          "duration": 0.16666650000000516
        },
        {
          "name": "B2",
          "midi": 47,
          "time": 101.29619499999988,
          "velocity": 0.6299212598425197,
          "duration": 0.16666650000000516
        },
        {
          "name": "B3",
          "midi": 59,
          "time": 101.48137999999989,
          "velocity": 0.6299212598425197,
          "duration": 0.16666650000000516
        },
        {
          "name": "B2",
          "midi": 47,
          "time": 101.48137999999989,
          "velocity": 0.6299212598425197,
          "duration": 0.16666650000000516
        },
        {
          "name": "B2",
          "midi": 47,
          "time": 101.66656499999989,
          "velocity": 0.6299212598425197,
          "duration": 0.16666650000000516
        },
        {
          "name": "B1",
          "midi": 35,
          "time": 101.66656499999989,
          "velocity": 0.6299212598425197,
          "duration": 0.16666650000000516
        },
        {
          "name": "B1",
          "midi": 35,
          "time": 101.8517499999999,
          "velocity": 0.6299212598425197,
          "duration": 0.16666650000000516
        },
        {
          "name": "B2",
          "midi": 47,
          "time": 101.8517499999999,
          "velocity": 0.6299212598425197,
          "duration": 0.16666650000000516
        },
        {
          "name": "A3",
          "midi": 57,
          "time": 102.0369349999999,
          "velocity": 0.6299212598425197,
          "duration": 0.16666650000000516
        },
        {
          "name": "A2",
          "midi": 45,
          "time": 102.0369349999999,
          "velocity": 0.6299212598425197,
          "duration": 0.16666650000000516
        },
        {
          "name": "B1",
          "midi": 35,
          "time": 102.2221199999999,
          "velocity": 0.6299212598425197,
          "duration": 0.16666650000000516
        },
        {
          "name": "B2",
          "midi": 47,
          "time": 102.2221199999999,
          "velocity": 0.6299212598425197,
          "duration": 0.16666650000000516
        },
        {
          "name": "B3",
          "midi": 59,
          "time": 102.40730499999991,
          "velocity": 0.6299212598425197,
          "duration": 0.16666650000000516
        },
        {
          "name": "B2",
          "midi": 47,
          "time": 102.40730499999991,
          "velocity": 0.6299212598425197,
          "duration": 0.16666650000000516
        },
        {
          "name": "B1",
          "midi": 35,
          "time": 102.59248999999991,
          "velocity": 0.6299212598425197,
          "duration": 0.16666650000000516
        },
        {
          "name": "B2",
          "midi": 47,
          "time": 102.59248999999991,
          "velocity": 0.6299212598425197,
          "duration": 0.16666650000000516
        },
        {
          "name": "B2",
          "midi": 47,
          "time": 102.77767499999992,
          "velocity": 0.6299212598425197,
          "duration": 0.16666650000000516
        },
        {
          "name": "B1",
          "midi": 35,
          "time": 102.77767499999992,
          "velocity": 0.6299212598425197,
          "duration": 0.16666650000000516
        },
        {
          "name": "B1",
          "midi": 35,
          "time": 102.96285999999992,
          "velocity": 0.6299212598425197,
          "duration": 0.3333329999999961
        },
        {
          "name": "B2",
          "midi": 47,
          "time": 102.96285999999992,
          "velocity": 0.6299212598425197,
          "duration": 0.3333329999999961
        },
        {
          "name": "A1",
          "midi": 33,
          "time": 103.33322999999992,
          "velocity": 0.6299212598425197,
          "duration": 0.16666650000000516
        },
        {
          "name": "A2",
          "midi": 45,
          "time": 103.33322999999992,
          "velocity": 0.6299212598425197,
          "duration": 0.16666650000000516
        },
        {
          "name": "G2",
          "midi": 43,
          "time": 103.51841499999992,
          "velocity": 0.6299212598425197,
          "duration": 0.3518514999999951
        },
        {
          "name": "G1",
          "midi": 31,
          "time": 103.51841499999992,
          "velocity": 0.6299212598425197,
          "duration": 0.3518514999999951
        },
        {
          "name": "G1",
          "midi": 31,
          "time": 103.88878499999991,
          "velocity": 0.6299212598425197,
          "duration": 0.16666650000000516
        },
        {
          "name": "G2",
          "midi": 43,
          "time": 103.88878499999991,
          "velocity": 0.6299212598425197,
          "duration": 0.16666650000000516
        },
        {
          "name": "F#2",
          "midi": 42,
          "time": 104.07396999999992,
          "velocity": 0.6299212598425197,
          "duration": 0.16666650000000516
        },
        {
          "name": "F#3",
          "midi": 54,
          "time": 104.07396999999992,
          "velocity": 0.6299212598425197,
          "duration": 0.16666650000000516
        },
        {
          "name": "G2",
          "midi": 43,
          "time": 104.25915499999992,
          "velocity": 0.6299212598425197,
          "duration": 0.16666650000000516
        },
        {
          "name": "G1",
          "midi": 31,
          "time": 104.25915499999992,
          "velocity": 0.6299212598425197,
          "duration": 0.16666650000000516
        },
        {
          "name": "G2",
          "midi": 43,
          "time": 104.44433999999993,
          "velocity": 0.6299212598425197,
          "duration": 0.16666650000000516
        },
        {
          "name": "G3",
          "midi": 55,
          "time": 104.44433999999993,
          "velocity": 0.6299212598425197,
          "duration": 0.16666650000000516
        },
        {
          "name": "G1",
          "midi": 31,
          "time": 104.62952499999993,
          "velocity": 0.6299212598425197,
          "duration": 0.16666650000000516
        },
        {
          "name": "G2",
          "midi": 43,
          "time": 104.62952499999993,
          "velocity": 0.6299212598425197,
          "duration": 0.16666650000000516
        },
        {
          "name": "G1",
          "midi": 31,
          "time": 104.81470999999993,
          "velocity": 0.6299212598425197,
          "duration": 0.16666650000000516
        },
        {
          "name": "G2",
          "midi": 43,
          "time": 104.81470999999993,
          "velocity": 0.6299212598425197,
          "duration": 0.16666650000000516
        },
        {
          "name": "A3",
          "midi": 57,
          "time": 104.99989499999994,
          "velocity": 0.6299212598425197,
          "duration": 0.16666650000000516
        },
        {
          "name": "A2",
          "midi": 45,
          "time": 104.99989499999994,
          "velocity": 0.6299212598425197,
          "duration": 0.16666650000000516
        },
        {
          "name": "G1",
          "midi": 31,
          "time": 105.18507999999994,
          "velocity": 0.6299212598425197,
          "duration": 0.16666650000000516
        },
        {
          "name": "G2",
          "midi": 43,
          "time": 105.18507999999994,
          "velocity": 0.6299212598425197,
          "duration": 0.16666650000000516
        },
        {
          "name": "G3",
          "midi": 55,
          "time": 105.37026499999995,
          "velocity": 0.6299212598425197,
          "duration": 0.16666650000000516
        },
        {
          "name": "G2",
          "midi": 43,
          "time": 105.37026499999995,
          "velocity": 0.6299212598425197,
          "duration": 0.16666650000000516
        },
        {
          "name": "G2",
          "midi": 43,
          "time": 105.55544999999995,
          "velocity": 0.6299212598425197,
          "duration": 0.16666650000000516
        },
        {
          "name": "G1",
          "midi": 31,
          "time": 105.55544999999995,
          "velocity": 0.6299212598425197,
          "duration": 0.16666650000000516
        },
        {
          "name": "G2",
          "midi": 43,
          "time": 105.74063499999995,
          "velocity": 0.6299212598425197,
          "duration": 0.16666650000000516
        },
        {
          "name": "G1",
          "midi": 31,
          "time": 105.74063499999995,
          "velocity": 0.6299212598425197,
          "duration": 0.16666650000000516
        },
        {
          "name": "G1",
          "midi": 31,
          "time": 105.92581999999996,
          "velocity": 0.6299212598425197,
          "duration": 0.3333329999999961
        },
        {
          "name": "G2",
          "midi": 43,
          "time": 105.92581999999996,
          "velocity": 0.6299212598425197,
          "duration": 0.3333329999999961
        },
        {
          "name": "A2",
          "midi": 45,
          "time": 106.29618999999995,
          "velocity": 0.6299212598425197,
          "duration": 0.3333329999999961
        },
        {
          "name": "A1",
          "midi": 33,
          "time": 106.29618999999995,
          "velocity": 0.6299212598425197,
          "duration": 0.3333329999999961
        },
        {
          "name": "B2",
          "midi": 47,
          "time": 106.66655999999995,
          "velocity": 0.6299212598425197,
          "duration": 0.16666650000000516
        },
        {
          "name": "B1",
          "midi": 35,
          "time": 106.66655999999995,
          "velocity": 0.6299212598425197,
          "duration": 0.16666650000000516
        },
        {
          "name": "B2",
          "midi": 47,
          "time": 106.85174499999995,
          "velocity": 0.6299212598425197,
          "duration": 0.16666650000000516
        },
        {
          "name": "B1",
          "midi": 35,
          "time": 106.85174499999995,
          "velocity": 0.6299212598425197,
          "duration": 0.16666650000000516
        },
        {
          "name": "A2",
          "midi": 45,
          "time": 107.03692999999996,
          "velocity": 0.6299212598425197,
          "duration": 0.16666650000000516
        },
        {
          "name": "A3",
          "midi": 57,
          "time": 107.03692999999996,
          "velocity": 0.6299212598425197,
          "duration": 0.16666650000000516
        },
        {
          "name": "B2",
          "midi": 47,
          "time": 107.22211499999996,
          "velocity": 0.6299212598425197,
          "duration": 0.16666650000000516
        },
        {
          "name": "B1",
          "midi": 35,
          "time": 107.22211499999996,
          "velocity": 0.6299212598425197,
          "duration": 0.16666650000000516
        },
        {
          "name": "B2",
          "midi": 47,
          "time": 107.40729999999996,
          "velocity": 0.6299212598425197,
          "duration": 0.16666650000000516
        },
        {
          "name": "B3",
          "midi": 59,
          "time": 107.40729999999996,
          "velocity": 0.6299212598425197,
          "duration": 0.16666650000000516
        },
        {
          "name": "B2",
          "midi": 47,
          "time": 107.59248499999997,
          "velocity": 0.6299212598425197,
          "duration": 0.16666650000000516
        },
        {
          "name": "B1",
          "midi": 35,
          "time": 107.59248499999997,
          "velocity": 0.6299212598425197,
          "duration": 0.16666650000000516
        },
        {
          "name": "B1",
          "midi": 35,
          "time": 107.77766999999997,
          "velocity": 0.6299212598425197,
          "duration": 0.16666650000000516
        },
        {
          "name": "B2",
          "midi": 47,
          "time": 107.77766999999997,
          "velocity": 0.6299212598425197,
          "duration": 0.16666650000000516
        },
        {
          "name": "A2",
          "midi": 45,
          "time": 107.96285499999998,
          "velocity": 0.6299212598425197,
          "duration": 0.16666650000000516
        },
        {
          "name": "A3",
          "midi": 57,
          "time": 107.96285499999998,
          "velocity": 0.6299212598425197,
          "duration": 0.16666650000000516
        },
        {
          "name": "B1",
          "midi": 35,
          "time": 108.14803999999998,
          "velocity": 0.6299212598425197,
          "duration": 0.16666650000000516
        },
        {
          "name": "B2",
          "midi": 47,
          "time": 108.14803999999998,
          "velocity": 0.6299212598425197,
          "duration": 0.16666650000000516
        },
        {
          "name": "B3",
          "midi": 59,
          "time": 108.33322499999998,
          "velocity": 0.6299212598425197,
          "duration": 0.16666650000000516
        },
        {
          "name": "B2",
          "midi": 47,
          "time": 108.33322499999998,
          "velocity": 0.6299212598425197,
          "duration": 0.16666650000000516
        },
        {
          "name": "B2",
          "midi": 47,
          "time": 108.51840999999999,
          "velocity": 0.6299212598425197,
          "duration": 0.16666650000000516
        },
        {
          "name": "B1",
          "midi": 35,
          "time": 108.51840999999999,
          "velocity": 0.6299212598425197,
          "duration": 0.16666650000000516
        },
        {
          "name": "B1",
          "midi": 35,
          "time": 108.70359499999999,
          "velocity": 0.6299212598425197,
          "duration": 0.16666650000000516
        },
        {
          "name": "B2",
          "midi": 47,
          "time": 108.70359499999999,
          "velocity": 0.6299212598425197,
          "duration": 0.16666650000000516
        },
        {
          "name": "B1",
          "midi": 35,
          "time": 108.88878,
          "velocity": 0.6299212598425197,
          "duration": 0.3333329999999961
        },
        {
          "name": "B2",
          "midi": 47,
          "time": 108.88878,
          "velocity": 0.6299212598425197,
          "duration": 0.3333329999999961
        },
        {
          "name": "A2",
          "midi": 45,
          "time": 109.25914999999999,
          "velocity": 0.6299212598425197,
          "duration": 0.16666650000000516
        },
        {
          "name": "A1",
          "midi": 33,
          "time": 109.25914999999999,
          "velocity": 0.6299212598425197,
          "duration": 0.16666650000000516
        },
        {
          "name": "G2",
          "midi": 43,
          "time": 109.444335,
          "velocity": 0.6299212598425197,
          "duration": 0.3518514999999951
        },
        {
          "name": "G1",
          "midi": 31,
          "time": 109.444335,
          "velocity": 0.6299212598425197,
          "duration": 0.3518514999999951
        },
        {
          "name": "G1",
          "midi": 31,
          "time": 109.81470499999999,
          "velocity": 0.6299212598425197,
          "duration": 0.16666650000000516
        },
        {
          "name": "G2",
          "midi": 43,
          "time": 109.81470499999999,
          "velocity": 0.6299212598425197,
          "duration": 0.16666650000000516
        },
        {
          "name": "F#2",
          "midi": 42,
          "time": 109.99989,
          "velocity": 0.6299212598425197,
          "duration": 0.16666650000000516
        },
        {
          "name": "F#3",
          "midi": 54,
          "time": 109.99989,
          "velocity": 0.6299212598425197,
          "duration": 0.16666650000000516
        },
        {
          "name": "G1",
          "midi": 31,
          "time": 110.185075,
          "velocity": 0.6299212598425197,
          "duration": 0.16666650000000516
        },
        {
          "name": "G2",
          "midi": 43,
          "time": 110.185075,
          "velocity": 0.6299212598425197,
          "duration": 0.16666650000000516
        },
        {
          "name": "G2",
          "midi": 43,
          "time": 110.37026,
          "velocity": 0.6299212598425197,
          "duration": 0.16666650000000516
        },
        {
          "name": "G3",
          "midi": 55,
          "time": 110.37026,
          "velocity": 0.6299212598425197,
          "duration": 0.16666650000000516
        },
        {
          "name": "G2",
          "midi": 43,
          "time": 110.555445,
          "velocity": 0.6299212598425197,
          "duration": 0.16666650000000516
        },
        {
          "name": "G1",
          "midi": 31,
          "time": 110.555445,
          "velocity": 0.6299212598425197,
          "duration": 0.16666650000000516
        },
        {
          "name": "G2",
          "midi": 43,
          "time": 110.74063000000001,
          "velocity": 0.6299212598425197,
          "duration": 0.16666650000000516
        },
        {
          "name": "G1",
          "midi": 31,
          "time": 110.74063000000001,
          "velocity": 0.6299212598425197,
          "duration": 0.16666650000000516
        },
        {
          "name": "A2",
          "midi": 45,
          "time": 110.92581500000001,
          "velocity": 0.6299212598425197,
          "duration": 0.16666650000000516
        },
        {
          "name": "A3",
          "midi": 57,
          "time": 110.92581500000001,
          "velocity": 0.6299212598425197,
          "duration": 0.16666650000000516
        },
        {
          "name": "G1",
          "midi": 31,
          "time": 111.11100000000002,
          "velocity": 0.6299212598425197,
          "duration": 0.16666650000000516
        },
        {
          "name": "G2",
          "midi": 43,
          "time": 111.11100000000002,
          "velocity": 0.6299212598425197,
          "duration": 0.16666650000000516
        },
        {
          "name": "G2",
          "midi": 43,
          "time": 111.29618500000002,
          "velocity": 0.6299212598425197,
          "duration": 0.16666650000000516
        },
        {
          "name": "G3",
          "midi": 55,
          "time": 111.29618500000002,
          "velocity": 0.6299212598425197,
          "duration": 0.16666650000000516
        },
        {
          "name": "G1",
          "midi": 31,
          "time": 111.48137000000003,
          "velocity": 0.6299212598425197,
          "duration": 0.16666650000000516
        },
        {
          "name": "G2",
          "midi": 43,
          "time": 111.48137000000003,
          "velocity": 0.6299212598425197,
          "duration": 0.16666650000000516
        },
        {
          "name": "G1",
          "midi": 31,
          "time": 111.66655500000003,
          "velocity": 0.6299212598425197,
          "duration": 0.16666650000000516
        },
        {
          "name": "G2",
          "midi": 43,
          "time": 111.66655500000003,
          "velocity": 0.6299212598425197,
          "duration": 0.16666650000000516
        },
        {
          "name": "G2",
          "midi": 43,
          "time": 111.85174000000004,
          "velocity": 0.6299212598425197,
          "duration": 0.3333329999999961
        },
        {
          "name": "G1",
          "midi": 31,
          "time": 111.85174000000004,
          "velocity": 0.6299212598425197,
          "duration": 0.3333329999999961
        },
        {
          "name": "A2",
          "midi": 45,
          "time": 112.22211000000003,
          "velocity": 0.6299212598425197,
          "duration": 0.3333329999999961
        },
        {
          "name": "A1",
          "midi": 33,
          "time": 112.22211000000003,
          "velocity": 0.6299212598425197,
          "duration": 0.3333329999999961
        }
      ],
      "controlChanges": {
        "7": [
          {
            "number": 7,
            "time": 0,
            "value": 0.9212598425196851
          }
        ]
      },
      "id": 2,
      "name": "Mystic Quest",
      "instrumentNumber": 99,
      "instrument": "fx 4 (atmosphere)",
      "instrumentFamily": "synth effects",
      "channelNumber": 1,
      "isPercussion": false
    },
    {
      "startTime": 26.66664,
      "duration": 88.12954149999995,
      "length": 104,
      "notes": [
        {
          "name": "B2",
          "midi": 47,
          "time": 26.66664,
          "velocity": 0.6299212598425197,
          "duration": 0.4444440000000007
        },
        {
          "name": "B1",
          "midi": 35,
          "time": 26.66664,
          "velocity": 0.6299212598425197,
          "duration": 0.4444440000000007
        },
        {
          "name": "F#3",
          "midi": 54,
          "time": 27.1296025,
          "velocity": 0.6299212598425197,
          "duration": 0.07407399999999953
        },
        {
          "name": "F#2",
          "midi": 42,
          "time": 27.1296025,
          "velocity": 0.6299212598425197,
          "duration": 0.07407399999999953
        },
        {
          "name": "E3",
          "midi": 52,
          "time": 27.222195,
          "velocity": 0.6299212598425197,
          "duration": 0.07407399999999953
        },
        {
          "name": "E2",
          "midi": 40,
          "time": 27.222195,
          "velocity": 0.6299212598425197,
          "duration": 0.07407399999999953
        },
        {
          "name": "F#3",
          "midi": 54,
          "time": 27.314787499999998,
          "velocity": 0.6299212598425197,
          "duration": 0.07407399999999953
        },
        {
          "name": "F#2",
          "midi": 42,
          "time": 27.314787499999998,
          "velocity": 0.6299212598425197,
          "duration": 0.07407399999999953
        },
        {
          "name": "A2",
          "midi": 45,
          "time": 27.407379999999996,
          "velocity": 0.6299212598425197,
          "duration": 0.4444440000000007
        },
        {
          "name": "A1",
          "midi": 33,
          "time": 27.407379999999996,
          "velocity": 0.6299212598425197,
          "duration": 0.4444440000000007
        },
        {
          "name": "E2",
          "midi": 40,
          "time": 27.870342499999996,
          "velocity": 0.6299212598425197,
          "duration": 0.07407399999999953
        },
        {
          "name": "E3",
          "midi": 52,
          "time": 27.870342499999996,
          "velocity": 0.6299212598425197,
          "duration": 0.07407399999999953
        },
        {
          "name": "D2",
          "midi": 38,
          "time": 27.962934999999995,
          "velocity": 0.6299212598425197,
          "duration": 0.07407399999999953
        },
        {
          "name": "D3",
          "midi": 50,
          "time": 27.962934999999995,
          "velocity": 0.6299212598425197,
          "duration": 0.07407399999999953
        },
        {
          "name": "E2",
          "midi": 40,
          "time": 28.055527499999993,
          "velocity": 0.6299212598425197,
          "duration": 0.07407399999999953
        },
        {
          "name": "E3",
          "midi": 52,
          "time": 28.055527499999993,
          "velocity": 0.6299212598425197,
          "duration": 0.07407399999999953
        },
        {
          "name": "G2",
          "midi": 43,
          "time": 28.14811999999999,
          "velocity": 0.6299212598425197,
          "duration": 0.4444440000000007
        },
        {
          "name": "G1",
          "midi": 31,
          "time": 28.14811999999999,
          "velocity": 0.6299212598425197,
          "duration": 0.4444440000000007
        },
        {
          "name": "B1",
          "midi": 35,
          "time": 28.61108249999999,
          "velocity": 0.6299212598425197,
          "duration": 0.08796287499999877
        },
        {
          "name": "B2",
          "midi": 47,
          "time": 28.61108249999999,
          "velocity": 0.6299212598425197,
          "duration": 0.08796287499999877
        },
        {
          "name": "D2",
          "midi": 38,
          "time": 28.70367499999999,
          "velocity": 0.6299212598425197,
          "duration": 0.08796287499999877
        },
        {
          "name": "D3",
          "midi": 50,
          "time": 28.70367499999999,
          "velocity": 0.6299212598425197,
          "duration": 0.08796287499999877
        },
        {
          "name": "F#3",
          "midi": 54,
          "time": 28.79626749999999,
          "velocity": 0.6299212598425197,
          "duration": 0.08796287499999877
        },
        {
          "name": "F#2",
          "midi": 42,
          "time": 28.79626749999999,
          "velocity": 0.6299212598425197,
          "duration": 0.08796287499999877
        },
        {
          "name": "E3",
          "midi": 52,
          "time": 28.888859999999987,
          "velocity": 0.6299212598425197,
          "duration": 0.29629600000000167
        },
        {
          "name": "E2",
          "midi": 40,
          "time": 28.888859999999987,
          "velocity": 0.6299212598425197,
          "duration": 0.29629600000000167
        },
        {
          "name": "A1",
          "midi": 33,
          "time": 29.259229999999988,
          "velocity": 0.6299212598425197,
          "duration": 0.29629600000000167
        },
        {
          "name": "A2",
          "midi": 45,
          "time": 29.259229999999988,
          "velocity": 0.6299212598425197,
          "duration": 0.29629600000000167
        },
        {
          "name": "B1",
          "midi": 35,
          "time": 29.62959999999999,
          "velocity": 0.6299212598425197,
          "duration": 0.4444440000000007
        },
        {
          "name": "B2",
          "midi": 47,
          "time": 29.62959999999999,
          "velocity": 0.6299212598425197,
          "duration": 0.4444440000000007
        },
        {
          "name": "F#3",
          "midi": 54,
          "time": 30.09256249999999,
          "velocity": 0.6299212598425197,
          "duration": 0.07407399999999953
        },
        {
          "name": "F#2",
          "midi": 42,
          "time": 30.09256249999999,
          "velocity": 0.6299212598425197,
          "duration": 0.07407399999999953
        },
        {
          "name": "E2",
          "midi": 40,
          "time": 30.185154999999988,
          "velocity": 0.6299212598425197,
          "duration": 0.07407399999999953
        },
        {
          "name": "E3",
          "midi": 52,
          "time": 30.185154999999988,
          "velocity": 0.6299212598425197,
          "duration": 0.07407399999999953
        },
        {
          "name": "F#2",
          "midi": 42,
          "time": 30.277747499999986,
          "velocity": 0.6299212598425197,
          "duration": 0.07407399999999953
        },
        {
          "name": "F#3",
          "midi": 54,
          "time": 30.277747499999986,
          "velocity": 0.6299212598425197,
          "duration": 0.07407399999999953
        },
        {
          "name": "A1",
          "midi": 33,
          "time": 30.370339999999985,
          "velocity": 0.6299212598425197,
          "duration": 0.4444440000000007
        },
        {
          "name": "A2",
          "midi": 45,
          "time": 30.370339999999985,
          "velocity": 0.6299212598425197,
          "duration": 0.4444440000000007
        },
        {
          "name": "E2",
          "midi": 40,
          "time": 30.833302499999984,
          "velocity": 0.6299212598425197,
          "duration": 0.07407399999999953
        },
        {
          "name": "E3",
          "midi": 52,
          "time": 30.833302499999984,
          "velocity": 0.6299212598425197,
          "duration": 0.07407399999999953
        },
        {
          "name": "D2",
          "midi": 38,
          "time": 30.925894999999983,
          "velocity": 0.6299212598425197,
          "duration": 0.07407399999999953
        },
        {
          "name": "D3",
          "midi": 50,
          "time": 30.925894999999983,
          "velocity": 0.6299212598425197,
          "duration": 0.07407399999999953
        },
        {
          "name": "E3",
          "midi": 52,
          "time": 31.01848749999998,
          "velocity": 0.6299212598425197,
          "duration": 0.07407399999999953
        },
        {
          "name": "E2",
          "midi": 40,
          "time": 31.01848749999998,
          "velocity": 0.6299212598425197,
          "duration": 0.07407399999999953
        },
        {
          "name": "G2",
          "midi": 43,
          "time": 31.11107999999998,
          "velocity": 0.6299212598425197,
          "duration": 0.4444440000000007
        },
        {
          "name": "G1",
          "midi": 31,
          "time": 31.11107999999998,
          "velocity": 0.6299212598425197,
          "duration": 0.4444440000000007
        },
        {
          "name": "F#2",
          "midi": 42,
          "time": 31.57404249999998,
          "velocity": 0.6299212598425197,
          "duration": 0.07407399999999953
        },
        {
          "name": "F#3",
          "midi": 54,
          "time": 31.57404249999998,
          "velocity": 0.6299212598425197,
          "duration": 0.07407399999999953
        },
        {
          "name": "E3",
          "midi": 52,
          "time": 31.666634999999978,
          "velocity": 0.6299212598425197,
          "duration": 0.07407399999999953
        },
        {
          "name": "E2",
          "midi": 40,
          "time": 31.666634999999978,
          "velocity": 0.6299212598425197,
          "duration": 0.07407399999999953
        },
        {
          "name": "D2",
          "midi": 38,
          "time": 31.759227499999977,
          "velocity": 0.6299212598425197,
          "duration": 0.07407399999999953
        },
        {
          "name": "D3",
          "midi": 50,
          "time": 31.759227499999977,
          "velocity": 0.6299212598425197,
          "duration": 0.07407399999999953
        },
        {
          "name": "B1",
          "midi": 35,
          "time": 82.96287999999998,
          "velocity": 0.6299212598425197,
          "duration": 0.4444440000000043
        },
        {
          "name": "B2",
          "midi": 47,
          "time": 82.96287999999998,
          "velocity": 0.6299212598425197,
          "duration": 0.4444440000000043
        },
        {
          "name": "F#3",
          "midi": 54,
          "time": 83.42584249999999,
          "velocity": 0.6299212598425197,
          "duration": 0.07407399999999598
        },
        {
          "name": "F#2",
          "midi": 42,
          "time": 83.42584249999999,
          "velocity": 0.6299212598425197,
          "duration": 0.07407399999999598
        },
        {
          "name": "E2",
          "midi": 40,
          "time": 83.51843499999998,
          "velocity": 0.6299212598425197,
          "duration": 0.07407399999999598
        },
        {
          "name": "E3",
          "midi": 52,
          "time": 83.51843499999998,
          "velocity": 0.6299212598425197,
          "duration": 0.07407399999999598
        },
        {
          "name": "F#3",
          "midi": 54,
          "time": 83.61102749999998,
          "velocity": 0.6299212598425197,
          "duration": 0.07407399999999598
        },
        {
          "name": "F#2",
          "midi": 42,
          "time": 83.61102749999998,
          "velocity": 0.6299212598425197,
          "duration": 0.07407399999999598
        },
        {
          "name": "A1",
          "midi": 33,
          "time": 83.70361999999997,
          "velocity": 0.6299212598425197,
          "duration": 0.4444440000000043
        },
        {
          "name": "A2",
          "midi": 45,
          "time": 83.70361999999997,
          "velocity": 0.6299212598425197,
          "duration": 0.4444440000000043
        },
        {
          "name": "E3",
          "midi": 52,
          "time": 84.16658249999998,
          "velocity": 0.6299212598425197,
          "duration": 0.07407399999999598
        },
        {
          "name": "E2",
          "midi": 40,
          "time": 84.16658249999998,
          "velocity": 0.6299212598425197,
          "duration": 0.07407399999999598
        },
        {
          "name": "D3",
          "midi": 50,
          "time": 84.25917499999997,
          "velocity": 0.6299212598425197,
          "duration": 0.07407399999999598
        },
        {
          "name": "D2",
          "midi": 38,
          "time": 84.25917499999997,
          "velocity": 0.6299212598425197,
          "duration": 0.07407399999999598
        },
        {
          "name": "E2",
          "midi": 40,
          "time": 84.35176749999997,
          "velocity": 0.6299212598425197,
          "duration": 0.07407399999999598
        },
        {
          "name": "E3",
          "midi": 52,
          "time": 84.35176749999997,
          "velocity": 0.6299212598425197,
          "duration": 0.07407399999999598
        },
        {
          "name": "G1",
          "midi": 31,
          "time": 84.44435999999996,
          "velocity": 0.6299212598425197,
          "duration": 0.4444440000000043
        },
        {
          "name": "G2",
          "midi": 43,
          "time": 84.44435999999996,
          "velocity": 0.6299212598425197,
          "duration": 0.4444440000000043
        },
        {
          "name": "B1",
          "midi": 35,
          "time": 84.90732249999996,
          "velocity": 0.6299212598425197,
          "duration": 0.08796287500000233
        },
        {
          "name": "B2",
          "midi": 47,
          "time": 84.90732249999996,
          "velocity": 0.6299212598425197,
          "duration": 0.08796287500000233
        },
        {
          "name": "D3",
          "midi": 50,
          "time": 84.99991499999997,
          "velocity": 0.6299212598425197,
          "duration": 0.08796287500000233
        },
        {
          "name": "D2",
          "midi": 38,
          "time": 84.99991499999997,
          "velocity": 0.6299212598425197,
          "duration": 0.08796287500000233
        },
        {
          "name": "F#2",
          "midi": 42,
          "time": 85.09250749999998,
          "velocity": 0.6299212598425197,
          "duration": 0.08796287500000233
        },
        {
          "name": "F#3",
          "midi": 54,
          "time": 85.09250749999998,
          "velocity": 0.6299212598425197,
          "duration": 0.08796287500000233
        },
        {
          "name": "E3",
          "midi": 52,
          "time": 85.18509999999999,
          "velocity": 0.6299212598425197,
          "duration": 0.2962959999999981
        },
        {
          "name": "E2",
          "midi": 40,
          "time": 85.18509999999999,
          "velocity": 0.6299212598425197,
          "duration": 0.2962959999999981
        },
        {
          "name": "A2",
          "midi": 45,
          "time": 85.55546999999999,
          "velocity": 0.6299212598425197,
          "duration": 0.2962959999999981
        },
        {
          "name": "A1",
          "midi": 33,
          "time": 85.55546999999999,
          "velocity": 0.6299212598425197,
          "duration": 0.2962959999999981
        },
        {
          "name": "B1",
          "midi": 35,
          "time": 85.92583999999998,
          "velocity": 0.6299212598425197,
          "duration": 0.4444440000000043
        },
        {
          "name": "B2",
          "midi": 47,
          "time": 85.92583999999998,
          "velocity": 0.6299212598425197,
          "duration": 0.4444440000000043
        },
        {
          "name": "F#2",
          "midi": 42,
          "time": 86.38880249999998,
          "velocity": 0.6299212598425197,
          "duration": 0.07407399999999598
        },
        {
          "name": "F#3",
          "midi": 54,
          "time": 86.38880249999998,
          "velocity": 0.6299212598425197,
          "duration": 0.07407399999999598
        },
        {
          "name": "E3",
          "midi": 52,
          "time": 86.48139499999998,
          "velocity": 0.6299212598425197,
          "duration": 0.07407399999999598
        },
        {
          "name": "E2",
          "midi": 40,
          "time": 86.48139499999998,
          "velocity": 0.6299212598425197,
          "duration": 0.07407399999999598
        },
        {
          "name": "F#2",
          "midi": 42,
          "time": 86.57398749999997,
          "velocity": 0.6299212598425197,
          "duration": 0.07407399999999598
        },
        {
          "name": "F#3",
          "midi": 54,
          "time": 86.57398749999997,
          "velocity": 0.6299212598425197,
          "duration": 0.07407399999999598
        },
        {
          "name": "A2",
          "midi": 45,
          "time": 86.66657999999997,
          "velocity": 0.6299212598425197,
          "duration": 0.4444440000000043
        },
        {
          "name": "A1",
          "midi": 33,
          "time": 86.66657999999997,
          "velocity": 0.6299212598425197,
          "duration": 0.4444440000000043
        },
        {
          "name": "E2",
          "midi": 40,
          "time": 87.12954249999997,
          "velocity": 0.6299212598425197,
          "duration": 0.07407399999999598
        },
        {
          "name": "E3",
          "midi": 52,
          "time": 87.12954249999997,
          "velocity": 0.6299212598425197,
          "duration": 0.07407399999999598
        },
        {
          "name": "D3",
          "midi": 50,
          "time": 87.22213499999997,
          "velocity": 0.6299212598425197,
          "duration": 0.07407399999999598
        },
        {
          "name": "D2",
          "midi": 38,
          "time": 87.22213499999997,
          "velocity": 0.6299212598425197,
          "duration": 0.07407399999999598
        },
        {
          "name": "E2",
          "midi": 40,
          "time": 87.31472749999996,
          "velocity": 0.6299212598425197,
          "duration": 0.07407399999999598
        },
        {
          "name": "E3",
          "midi": 52,
          "time": 87.31472749999996,
          "velocity": 0.6299212598425197,
          "duration": 0.07407399999999598
        },
        {
          "name": "G2",
          "midi": 43,
          "time": 87.40731999999996,
          "velocity": 0.6299212598425197,
          "duration": 0.4444440000000043
        },
        {
          "name": "G1",
          "midi": 31,
          "time": 87.40731999999996,
          "velocity": 0.6299212598425197,
          "duration": 0.4444440000000043
        },
        {
          "name": "F#3",
          "midi": 54,
          "time": 87.87028249999996,
          "velocity": 0.6299212598425197,
          "duration": 0.07407399999999598
        },
        {
          "name": "F#2",
          "midi": 42,
          "time": 87.87028249999996,
          "velocity": 0.6299212598425197,
          "duration": 0.07407399999999598
        },
        {
          "name": "E2",
          "midi": 40,
          "time": 87.96287499999995,
          "velocity": 0.6299212598425197,
          "duration": 0.07407399999999598
        },
        {
          "name": "E3",
          "midi": 52,
          "time": 87.96287499999995,
          "velocity": 0.6299212598425197,
          "duration": 0.07407399999999598
        },
        {
          "name": "D2",
          "midi": 38,
          "time": 88.05546749999995,
          "velocity": 0.6299212598425197,
          "duration": 0.07407399999999598
        },
        {
          "name": "D3",
          "midi": 50,
          "time": 88.05546749999995,
          "velocity": 0.6299212598425197,
          "duration": 0.07407399999999598
        }
      ],
      "controlChanges": {
        "7": [
          {
            "number": 7,
            "time": 0,
            "value": 1
          }
        ]
      },
      "id": 3,
      "name": "Arranged by:",
      "instrumentNumber": 38,
      "instrument": "synth bass 1",
      "instrumentFamily": "bass",
      "channelNumber": 2,
      "isPercussion": false
    },
    {
      "startTime": 0,
      "duration": 87.38880149999976,
      "length": 262,
      "notes": [
        {
          "name": "B4",
          "midi": 71,
          "time": 0,
          "velocity": 0.6299212598425197,
          "duration": 0.14814800000000003
        },
        {
          "name": "F#4",
          "midi": 66,
          "time": 0.18518500000000004,
          "velocity": 0.6299212598425197,
          "duration": 0.14814800000000006
        },
        {
          "name": "D5",
          "midi": 74,
          "time": 0.3703700000000001,
          "velocity": 0.6299212598425197,
          "duration": 0.14814800000000006
        },
        {
          "name": "F#4",
          "midi": 66,
          "time": 0.5555550000000001,
          "velocity": 0.6299212598425197,
          "duration": 0.14814800000000006
        },
        {
          "name": "B4",
          "midi": 71,
          "time": 0.7407400000000002,
          "velocity": 0.6299212598425197,
          "duration": 0.14814800000000006
        },
        {
          "name": "F#5",
          "midi": 78,
          "time": 0.9259250000000002,
          "velocity": 0.6299212598425197,
          "duration": 0.14814800000000006
        },
        {
          "name": "B4",
          "midi": 71,
          "time": 1.1111100000000003,
          "velocity": 0.6299212598425197,
          "duration": 0.14814799999999995
        },
        {
          "name": "E5",
          "midi": 76,
          "time": 1.2962950000000002,
          "velocity": 0.6299212598425197,
          "duration": 0.14814799999999995
        },
        {
          "name": "B4",
          "midi": 71,
          "time": 1.4814800000000001,
          "velocity": 0.6299212598425197,
          "duration": 0.14814799999999995
        },
        {
          "name": "D5",
          "midi": 74,
          "time": 1.666665,
          "velocity": 0.6299212598425197,
          "duration": 0.14814799999999995
        },
        {
          "name": "C#5",
          "midi": 73,
          "time": 1.85185,
          "velocity": 0.6299212598425197,
          "duration": 0.14814799999999995
        },
        {
          "name": "A4",
          "midi": 69,
          "time": 2.037035,
          "velocity": 0.6299212598425197,
          "duration": 0.14814799999999995
        },
        {
          "name": "C#5",
          "midi": 73,
          "time": 2.22222,
          "velocity": 0.6299212598425197,
          "duration": 0.14814799999999995
        },
        {
          "name": "D5",
          "midi": 74,
          "time": 2.4074050000000002,
          "velocity": 0.6299212598425197,
          "duration": 0.14814799999999995
        },
        {
          "name": "C#5",
          "midi": 73,
          "time": 2.5925900000000004,
          "velocity": 0.6299212598425197,
          "duration": 0.14814799999999995
        },
        {
          "name": "A4",
          "midi": 69,
          "time": 2.7777750000000005,
          "velocity": 0.6299212598425197,
          "duration": 0.14814799999999995
        },
        {
          "name": "B4",
          "midi": 71,
          "time": 2.9629600000000007,
          "velocity": 0.6299212598425197,
          "duration": 0.14814799999999995
        },
        {
          "name": "G4",
          "midi": 67,
          "time": 3.148145000000001,
          "velocity": 0.6299212598425197,
          "duration": 0.14814799999999995
        },
        {
          "name": "C#5",
          "midi": 73,
          "time": 3.333330000000001,
          "velocity": 0.6299212598425197,
          "duration": 0.14814799999999995
        },
        {
          "name": "G4",
          "midi": 67,
          "time": 3.518515000000001,
          "velocity": 0.6299212598425197,
          "duration": 0.14814799999999995
        },
        {
          "name": "D5",
          "midi": 74,
          "time": 3.7037000000000013,
          "velocity": 0.6299212598425197,
          "duration": 0.14814799999999995
        },
        {
          "name": "C#5",
          "midi": 73,
          "time": 3.8888850000000015,
          "velocity": 0.6299212598425197,
          "duration": 0.1481480000000004
        },
        {
          "name": "D5",
          "midi": 74,
          "time": 4.074070000000002,
          "velocity": 0.6299212598425197,
          "duration": 0.14814799999999995
        },
        {
          "name": "E5",
          "midi": 76,
          "time": 4.259255000000001,
          "velocity": 0.6299212598425197,
          "duration": 0.14814799999999995
        },
        {
          "name": "B4",
          "midi": 71,
          "time": 4.444440000000001,
          "velocity": 0.6299212598425197,
          "duration": 0.14814799999999995
        },
        {
          "name": "F#4",
          "midi": 66,
          "time": 4.629625000000001,
          "velocity": 0.6299212598425197,
          "duration": 0.14814799999999995
        },
        {
          "name": "F#5",
          "midi": 78,
          "time": 4.8148100000000005,
          "velocity": 0.6299212598425197,
          "duration": 0.14814799999999995
        },
        {
          "name": "E5",
          "midi": 76,
          "time": 4.999995,
          "velocity": 0.6299212598425197,
          "duration": 0.14814799999999995
        },
        {
          "name": "D5",
          "midi": 74,
          "time": 5.18518,
          "velocity": 0.6299212598425197,
          "duration": 0.14814799999999995
        },
        {
          "name": "E5",
          "midi": 76,
          "time": 5.370365,
          "velocity": 0.6299212598425197,
          "duration": 0.14814799999999995
        },
        {
          "name": "C#5",
          "midi": 73,
          "time": 5.555549999999999,
          "velocity": 0.6299212598425197,
          "duration": 0.14814799999999995
        },
        {
          "name": "A4",
          "midi": 69,
          "time": 5.740734999999999,
          "velocity": 0.6299212598425197,
          "duration": 0.14814799999999995
        },
        {
          "name": "B4",
          "midi": 71,
          "time": 5.925919999999999,
          "velocity": 0.6299212598425197,
          "duration": 0.14814799999999995
        },
        {
          "name": "F#4",
          "midi": 66,
          "time": 6.1111049999999985,
          "velocity": 0.6299212598425197,
          "duration": 0.14814799999999995
        },
        {
          "name": "D5",
          "midi": 74,
          "time": 6.296289999999998,
          "velocity": 0.6299212598425197,
          "duration": 0.14814799999999995
        },
        {
          "name": "F#4",
          "midi": 66,
          "time": 6.481474999999998,
          "velocity": 0.6299212598425197,
          "duration": 0.14814799999999995
        },
        {
          "name": "B4",
          "midi": 71,
          "time": 6.666659999999998,
          "velocity": 0.6299212598425197,
          "duration": 0.14814799999999995
        },
        {
          "name": "F#5",
          "midi": 78,
          "time": 6.851844999999997,
          "velocity": 0.6299212598425197,
          "duration": 0.14814799999999995
        },
        {
          "name": "B4",
          "midi": 71,
          "time": 7.037029999999997,
          "velocity": 0.6299212598425197,
          "duration": 0.14814799999999995
        },
        {
          "name": "E5",
          "midi": 76,
          "time": 7.222214999999997,
          "velocity": 0.6299212598425197,
          "duration": 0.14814799999999995
        },
        {
          "name": "B4",
          "midi": 71,
          "time": 7.407399999999996,
          "velocity": 0.6299212598425197,
          "duration": 0.14814799999999995
        },
        {
          "name": "D5",
          "midi": 74,
          "time": 7.592584999999996,
          "velocity": 0.6299212598425197,
          "duration": 0.14814799999999995
        },
        {
          "name": "C#5",
          "midi": 73,
          "time": 7.777769999999996,
          "velocity": 0.6299212598425197,
          "duration": 0.14814799999999995
        },
        {
          "name": "A4",
          "midi": 69,
          "time": 7.962954999999996,
          "velocity": 0.6299212598425197,
          "duration": 0.14814800000000083
        },
        {
          "name": "C#5",
          "midi": 73,
          "time": 8.148139999999996,
          "velocity": 0.6299212598425197,
          "duration": 0.14814800000000083
        },
        {
          "name": "D5",
          "midi": 74,
          "time": 8.333324999999997,
          "velocity": 0.6299212598425197,
          "duration": 0.14814800000000083
        },
        {
          "name": "C#5",
          "midi": 73,
          "time": 8.518509999999997,
          "velocity": 0.6299212598425197,
          "duration": 0.14814800000000083
        },
        {
          "name": "A4",
          "midi": 69,
          "time": 8.703694999999998,
          "velocity": 0.6299212598425197,
          "duration": 0.14814800000000083
        },
        {
          "name": "B4",
          "midi": 71,
          "time": 8.888879999999999,
          "velocity": 0.6299212598425197,
          "duration": 0.14814800000000083
        },
        {
          "name": "G4",
          "midi": 67,
          "time": 9.074065,
          "velocity": 0.6299212598425197,
          "duration": 0.14814800000000083
        },
        {
          "name": "C#5",
          "midi": 73,
          "time": 9.25925,
          "velocity": 0.6299212598425197,
          "duration": 0.14814800000000083
        },
        {
          "name": "G4",
          "midi": 67,
          "time": 9.444435,
          "velocity": 0.6299212598425197,
          "duration": 0.14814800000000083
        },
        {
          "name": "D5",
          "midi": 74,
          "time": 9.629620000000001,
          "velocity": 0.6299212598425197,
          "duration": 0.14814800000000083
        },
        {
          "name": "C#5",
          "midi": 73,
          "time": 9.814805000000002,
          "velocity": 0.6299212598425197,
          "duration": 0.14814800000000083
        },
        {
          "name": "D5",
          "midi": 74,
          "time": 9.999990000000002,
          "velocity": 0.6299212598425197,
          "duration": 0.14814800000000083
        },
        {
          "name": "E5",
          "midi": 76,
          "time": 10.185175000000003,
          "velocity": 0.6299212598425197,
          "duration": 0.14814800000000083
        },
        {
          "name": "B4",
          "midi": 71,
          "time": 10.370360000000003,
          "velocity": 0.6299212598425197,
          "duration": 0.14814800000000083
        },
        {
          "name": "F#4",
          "midi": 66,
          "time": 10.555545000000004,
          "velocity": 0.6299212598425197,
          "duration": 0.14814800000000083
        },
        {
          "name": "F#5",
          "midi": 78,
          "time": 10.740730000000005,
          "velocity": 0.6299212598425197,
          "duration": 0.14814800000000083
        },
        {
          "name": "E5",
          "midi": 76,
          "time": 10.925915000000005,
          "velocity": 0.6299212598425197,
          "duration": 0.14814800000000083
        },
        {
          "name": "D5",
          "midi": 74,
          "time": 11.111100000000006,
          "velocity": 0.6299212598425197,
          "duration": 0.14814800000000083
        },
        {
          "name": "E5",
          "midi": 76,
          "time": 11.296285000000006,
          "velocity": 0.6299212598425197,
          "duration": 0.14814800000000083
        },
        {
          "name": "C#5",
          "midi": 73,
          "time": 11.481470000000007,
          "velocity": 0.6299212598425197,
          "duration": 0.14814800000000083
        },
        {
          "name": "A4",
          "midi": 69,
          "time": 11.666655000000008,
          "velocity": 0.6299212598425197,
          "duration": 0.14814800000000083
        },
        {
          "name": "B4",
          "midi": 71,
          "time": 11.851840000000008,
          "velocity": 0.6299212598425197,
          "duration": 0.14814800000000083
        },
        {
          "name": "F#4",
          "midi": 66,
          "time": 12.037025000000009,
          "velocity": 0.6299212598425197,
          "duration": 0.14814800000000083
        },
        {
          "name": "D5",
          "midi": 74,
          "time": 12.22221000000001,
          "velocity": 0.6299212598425197,
          "duration": 0.14814800000000083
        },
        {
          "name": "F#4",
          "midi": 66,
          "time": 12.40739500000001,
          "velocity": 0.6299212598425197,
          "duration": 0.14814800000000083
        },
        {
          "name": "B4",
          "midi": 71,
          "time": 12.59258000000001,
          "velocity": 0.6299212598425197,
          "duration": 0.14814800000000083
        },
        {
          "name": "F#5",
          "midi": 78,
          "time": 12.777765000000011,
          "velocity": 0.6299212598425197,
          "duration": 0.14814800000000083
        },
        {
          "name": "B4",
          "midi": 71,
          "time": 12.962950000000012,
          "velocity": 0.6299212598425197,
          "duration": 0.14814800000000083
        },
        {
          "name": "E5",
          "midi": 76,
          "time": 13.148135000000012,
          "velocity": 0.6299212598425197,
          "duration": 0.14814800000000083
        },
        {
          "name": "F#4",
          "midi": 66,
          "time": 13.333320000000013,
          "velocity": 0.6299212598425197,
          "duration": 0.14814800000000083
        },
        {
          "name": "B4",
          "midi": 71,
          "time": 13.518505000000014,
          "velocity": 0.6299212598425197,
          "duration": 0.14814800000000083
        },
        {
          "name": "F#5",
          "midi": 78,
          "time": 13.703690000000014,
          "velocity": 0.6299212598425197,
          "duration": 0.14814800000000083
        },
        {
          "name": "E5",
          "midi": 76,
          "time": 13.888875000000015,
          "velocity": 0.6299212598425197,
          "duration": 0.2962959999999999
        },
        {
          "name": "D5",
          "midi": 74,
          "time": 14.259245000000014,
          "velocity": 0.6299212598425197,
          "duration": 0.14814800000000083
        },
        {
          "name": "C#5",
          "midi": 73,
          "time": 14.444430000000015,
          "velocity": 0.6299212598425197,
          "duration": 0.2962959999999999
        },
        {
          "name": "G4",
          "midi": 67,
          "time": 17.962945000000015,
          "velocity": 0.6299212598425197,
          "duration": 0.14814799999999906
        },
        {
          "name": "D5",
          "midi": 74,
          "time": 18.148130000000016,
          "velocity": 0.6299212598425197,
          "duration": 0.14814799999999906
        },
        {
          "name": "G5",
          "midi": 79,
          "time": 18.333315000000017,
          "velocity": 0.6299212598425197,
          "duration": 0.6944437500000014
        },
        {
          "name": "G4",
          "midi": 67,
          "time": 23.888865000000017,
          "velocity": 0.6299212598425197,
          "duration": 0.14814799999999906
        },
        {
          "name": "D5",
          "midi": 74,
          "time": 24.074050000000017,
          "velocity": 0.6299212598425197,
          "duration": 0.14814799999999906
        },
        {
          "name": "G5",
          "midi": 79,
          "time": 24.259235000000018,
          "velocity": 0.6299212598425197,
          "duration": 0.6944437500000014
        },
        {
          "name": "B4",
          "midi": 71,
          "time": 26.66664000000002,
          "velocity": 0.6299212598425197,
          "duration": 0.07407399999999953
        },
        {
          "name": "F#4",
          "midi": 66,
          "time": 26.759232500000017,
          "velocity": 0.6299212598425197,
          "duration": 0.07407399999999953
        },
        {
          "name": "D5",
          "midi": 74,
          "time": 26.851825000000016,
          "velocity": 0.6299212598425197,
          "duration": 0.07407399999999953
        },
        {
          "name": "F#4",
          "midi": 66,
          "time": 26.944417500000014,
          "velocity": 0.6299212598425197,
          "duration": 0.07407399999999953
        },
        {
          "name": "B4",
          "midi": 71,
          "time": 27.037010000000013,
          "velocity": 0.6299212598425197,
          "duration": 0.07407399999999953
        },
        {
          "name": "D5",
          "midi": 74,
          "time": 27.12960250000001,
          "velocity": 0.6299212598425197,
          "duration": 0.07407399999999953
        },
        {
          "name": "C#5",
          "midi": 73,
          "time": 27.22219500000001,
          "velocity": 0.6299212598425197,
          "duration": 0.07407399999999953
        },
        {
          "name": "D5",
          "midi": 74,
          "time": 27.31478750000001,
          "velocity": 0.6299212598425197,
          "duration": 0.07407399999999953
        },
        {
          "name": "C#5",
          "midi": 73,
          "time": 27.407380000000007,
          "velocity": 0.6299212598425197,
          "duration": 0.07407399999999953
        },
        {
          "name": "A4",
          "midi": 69,
          "time": 27.499972500000005,
          "velocity": 0.6299212598425197,
          "duration": 0.07407399999999953
        },
        {
          "name": "E5",
          "midi": 76,
          "time": 27.592565000000004,
          "velocity": 0.6299212598425197,
          "duration": 0.07407399999999953
        },
        {
          "name": "A4",
          "midi": 69,
          "time": 27.685157500000003,
          "velocity": 0.6299212598425197,
          "duration": 0.07407399999999953
        },
        {
          "name": "C#5",
          "midi": 73,
          "time": 27.77775,
          "velocity": 0.6299212598425197,
          "duration": 0.07407399999999953
        },
        {
          "name": "D5",
          "midi": 74,
          "time": 27.8703425,
          "velocity": 0.6299212598425197,
          "duration": 0.07407399999999953
        },
        {
          "name": "C#5",
          "midi": 73,
          "time": 27.962934999999998,
          "velocity": 0.6299212598425197,
          "duration": 0.07407399999999953
        },
        {
          "name": "D5",
          "midi": 74,
          "time": 28.055527499999997,
          "velocity": 0.6299212598425197,
          "duration": 0.07407399999999953
        },
        {
          "name": "D5",
          "midi": 74,
          "time": 28.148119999999995,
          "velocity": 0.6299212598425197,
          "duration": 0.07407399999999953
        },
        {
          "name": "B4",
          "midi": 71,
          "time": 28.240712499999994,
          "velocity": 0.6299212598425197,
          "duration": 0.07407399999999953
        },
        {
          "name": "F#5",
          "midi": 78,
          "time": 28.333304999999992,
          "velocity": 0.6299212598425197,
          "duration": 0.07407399999999953
        },
        {
          "name": "B4",
          "midi": 71,
          "time": 28.42589749999999,
          "velocity": 0.6299212598425197,
          "duration": 0.07407399999999953
        },
        {
          "name": "E5",
          "midi": 76,
          "time": 28.51848999999999,
          "velocity": 0.6299212598425197,
          "duration": 0.07407399999999953
        },
        {
          "name": "B4",
          "midi": 71,
          "time": 28.611082499999988,
          "velocity": 0.6299212598425197,
          "duration": 0.07407399999999953
        },
        {
          "name": "D5",
          "midi": 74,
          "time": 28.703674999999986,
          "velocity": 0.6299212598425197,
          "duration": 0.07407399999999953
        },
        {
          "name": "B4",
          "midi": 71,
          "time": 28.796267499999985,
          "velocity": 0.6299212598425197,
          "duration": 0.07407399999999953
        },
        {
          "name": "A4",
          "midi": 69,
          "time": 28.981452499999985,
          "velocity": 0.6299212598425197,
          "duration": 0.07407399999999953
        },
        {
          "name": "C#5",
          "midi": 73,
          "time": 29.074044999999984,
          "velocity": 0.6299212598425197,
          "duration": 0.07407399999999953
        },
        {
          "name": "E5",
          "midi": 76,
          "time": 29.166637499999982,
          "velocity": 0.6299212598425197,
          "duration": 0.07407399999999953
        },
        {
          "name": "A5",
          "midi": 81,
          "time": 29.25922999999998,
          "velocity": 0.6299212598425197,
          "duration": 0.07407399999999953
        },
        {
          "name": "E5",
          "midi": 76,
          "time": 29.35182249999998,
          "velocity": 0.6299212598425197,
          "duration": 0.07407399999999953
        },
        {
          "name": "C#5",
          "midi": 73,
          "time": 29.444414999999978,
          "velocity": 0.6299212598425197,
          "duration": 0.07407399999999953
        },
        {
          "name": "E5",
          "midi": 76,
          "time": 29.537007499999977,
          "velocity": 0.6299212598425197,
          "duration": 0.07407399999999953
        },
        {
          "name": "B4",
          "midi": 71,
          "time": 29.629599999999975,
          "velocity": 0.6299212598425197,
          "duration": 0.07407399999999953
        },
        {
          "name": "F#4",
          "midi": 66,
          "time": 29.722192499999974,
          "velocity": 0.6299212598425197,
          "duration": 0.07407399999999953
        },
        {
          "name": "D5",
          "midi": 74,
          "time": 29.814784999999972,
          "velocity": 0.6299212598425197,
          "duration": 0.07407399999999953
        },
        {
          "name": "F#4",
          "midi": 66,
          "time": 29.90737749999997,
          "velocity": 0.6299212598425197,
          "duration": 0.07407399999999953
        },
        {
          "name": "B4",
          "midi": 71,
          "time": 29.99996999999997,
          "velocity": 0.6299212598425197,
          "duration": 0.07407399999999953
        },
        {
          "name": "D5",
          "midi": 74,
          "time": 30.092562499999968,
          "velocity": 0.6299212598425197,
          "duration": 0.07407399999999953
        },
        {
          "name": "C#5",
          "midi": 73,
          "time": 30.185154999999966,
          "velocity": 0.6299212598425197,
          "duration": 0.07407399999999953
        },
        {
          "name": "D5",
          "midi": 74,
          "time": 30.277747499999965,
          "velocity": 0.6299212598425197,
          "duration": 0.07407399999999953
        },
        {
          "name": "C#5",
          "midi": 73,
          "time": 30.370339999999963,
          "velocity": 0.6299212598425197,
          "duration": 0.07407399999999953
        },
        {
          "name": "A4",
          "midi": 69,
          "time": 30.462932499999962,
          "velocity": 0.6299212598425197,
          "duration": 0.07407399999999953
        },
        {
          "name": "E5",
          "midi": 76,
          "time": 30.55552499999996,
          "velocity": 0.6299212598425197,
          "duration": 0.07407399999999953
        },
        {
          "name": "A4",
          "midi": 69,
          "time": 30.64811749999996,
          "velocity": 0.6299212598425197,
          "duration": 0.07407399999999953
        },
        {
          "name": "C#5",
          "midi": 73,
          "time": 30.740709999999957,
          "velocity": 0.6299212598425197,
          "duration": 0.07407399999999953
        },
        {
          "name": "E5",
          "midi": 76,
          "time": 30.833302499999956,
          "velocity": 0.6299212598425197,
          "duration": 0.07407399999999953
        },
        {
          "name": "A5",
          "midi": 81,
          "time": 30.925894999999954,
          "velocity": 0.6299212598425197,
          "duration": 0.07407399999999953
        },
        {
          "name": "E5",
          "midi": 76,
          "time": 31.018487499999953,
          "velocity": 0.6299212598425197,
          "duration": 0.07407399999999953
        },
        {
          "name": "B4",
          "midi": 71,
          "time": 56.296239999999955,
          "velocity": 0.6299212598425197,
          "duration": 0.14814799999999906
        },
        {
          "name": "F#4",
          "midi": 66,
          "time": 56.48142499999995,
          "velocity": 0.6299212598425197,
          "duration": 0.14814799999999906
        },
        {
          "name": "D5",
          "midi": 74,
          "time": 56.66660999999995,
          "velocity": 0.6299212598425197,
          "duration": 0.14814799999999906
        },
        {
          "name": "F#4",
          "midi": 66,
          "time": 56.851794999999946,
          "velocity": 0.6299212598425197,
          "duration": 0.14814799999999906
        },
        {
          "name": "B4",
          "midi": 71,
          "time": 57.03697999999994,
          "velocity": 0.6299212598425197,
          "duration": 0.14814799999999906
        },
        {
          "name": "F#5",
          "midi": 78,
          "time": 57.22216499999994,
          "velocity": 0.6299212598425197,
          "duration": 0.14814799999999906
        },
        {
          "name": "B4",
          "midi": 71,
          "time": 57.40734999999994,
          "velocity": 0.6299212598425197,
          "duration": 0.14814799999999906
        },
        {
          "name": "E5",
          "midi": 76,
          "time": 57.592534999999934,
          "velocity": 0.6299212598425197,
          "duration": 0.14814799999999906
        },
        {
          "name": "B4",
          "midi": 71,
          "time": 57.77771999999993,
          "velocity": 0.6299212598425197,
          "duration": 0.14814799999999906
        },
        {
          "name": "D5",
          "midi": 74,
          "time": 57.96290499999993,
          "velocity": 0.6299212598425197,
          "duration": 0.14814799999999906
        },
        {
          "name": "C#5",
          "midi": 73,
          "time": 58.148089999999925,
          "velocity": 0.6299212598425197,
          "duration": 0.14814799999999906
        },
        {
          "name": "A4",
          "midi": 69,
          "time": 58.33327499999992,
          "velocity": 0.6299212598425197,
          "duration": 0.14814799999999906
        },
        {
          "name": "C#5",
          "midi": 73,
          "time": 58.51845999999992,
          "velocity": 0.6299212598425197,
          "duration": 0.14814799999999906
        },
        {
          "name": "D5",
          "midi": 74,
          "time": 58.703644999999916,
          "velocity": 0.6299212598425197,
          "duration": 0.14814799999999906
        },
        {
          "name": "C#5",
          "midi": 73,
          "time": 58.88882999999991,
          "velocity": 0.6299212598425197,
          "duration": 0.14814799999999906
        },
        {
          "name": "A4",
          "midi": 69,
          "time": 59.07401499999991,
          "velocity": 0.6299212598425197,
          "duration": 0.14814799999999906
        },
        {
          "name": "B4",
          "midi": 71,
          "time": 59.25919999999991,
          "velocity": 0.6299212598425197,
          "duration": 0.14814799999999906
        },
        {
          "name": "G4",
          "midi": 67,
          "time": 59.444384999999905,
          "velocity": 0.6299212598425197,
          "duration": 0.14814799999999906
        },
        {
          "name": "C#5",
          "midi": 73,
          "time": 59.6295699999999,
          "velocity": 0.6299212598425197,
          "duration": 0.14814799999999906
        },
        {
          "name": "G4",
          "midi": 67,
          "time": 59.8147549999999,
          "velocity": 0.6299212598425197,
          "duration": 0.14814799999999906
        },
        {
          "name": "D5",
          "midi": 74,
          "time": 59.999939999999896,
          "velocity": 0.6299212598425197,
          "duration": 0.14814799999999906
        },
        {
          "name": "C#5",
          "midi": 73,
          "time": 60.18512499999989,
          "velocity": 0.6299212598425197,
          "duration": 0.14814799999999906
        },
        {
          "name": "D5",
          "midi": 74,
          "time": 60.37030999999989,
          "velocity": 0.6299212598425197,
          "duration": 0.14814799999999906
        },
        {
          "name": "E5",
          "midi": 76,
          "time": 60.55549499999989,
          "velocity": 0.6299212598425197,
          "duration": 0.14814799999999906
        },
        {
          "name": "B4",
          "midi": 71,
          "time": 60.740679999999884,
          "velocity": 0.6299212598425197,
          "duration": 0.14814799999999906
        },
        {
          "name": "F#4",
          "midi": 66,
          "time": 60.92586499999988,
          "velocity": 0.6299212598425197,
          "duration": 0.14814799999999906
        },
        {
          "name": "F#5",
          "midi": 78,
          "time": 61.11104999999988,
          "velocity": 0.6299212598425197,
          "duration": 0.14814799999999906
        },
        {
          "name": "E5",
          "midi": 76,
          "time": 61.296234999999875,
          "velocity": 0.6299212598425197,
          "duration": 0.14814799999999906
        },
        {
          "name": "D5",
          "midi": 74,
          "time": 61.48141999999987,
          "velocity": 0.6299212598425197,
          "duration": 0.14814799999999906
        },
        {
          "name": "E5",
          "midi": 76,
          "time": 61.66660499999987,
          "velocity": 0.6299212598425197,
          "duration": 0.14814799999999906
        },
        {
          "name": "C#5",
          "midi": 73,
          "time": 61.851789999999866,
          "velocity": 0.6299212598425197,
          "duration": 0.14814799999999906
        },
        {
          "name": "A4",
          "midi": 69,
          "time": 62.03697499999986,
          "velocity": 0.6299212598425197,
          "duration": 0.14814799999999906
        },
        {
          "name": "B4",
          "midi": 71,
          "time": 62.22215999999986,
          "velocity": 0.6299212598425197,
          "duration": 0.14814799999999906
        },
        {
          "name": "F#4",
          "midi": 66,
          "time": 62.40734499999986,
          "velocity": 0.6299212598425197,
          "duration": 0.14814799999999906
        },
        {
          "name": "D5",
          "midi": 74,
          "time": 62.592529999999854,
          "velocity": 0.6299212598425197,
          "duration": 0.14814799999999906
        },
        {
          "name": "F#4",
          "midi": 66,
          "time": 62.77771499999985,
          "velocity": 0.6299212598425197,
          "duration": 0.14814799999999906
        },
        {
          "name": "B4",
          "midi": 71,
          "time": 62.96289999999985,
          "velocity": 0.6299212598425197,
          "duration": 0.14814799999999906
        },
        {
          "name": "F#5",
          "midi": 78,
          "time": 63.148084999999845,
          "velocity": 0.6299212598425197,
          "duration": 0.14814799999999906
        },
        {
          "name": "B4",
          "midi": 71,
          "time": 63.33326999999984,
          "velocity": 0.6299212598425197,
          "duration": 0.14814799999999906
        },
        {
          "name": "E5",
          "midi": 76,
          "time": 63.51845499999984,
          "velocity": 0.6299212598425197,
          "duration": 0.14814799999999906
        },
        {
          "name": "B4",
          "midi": 71,
          "time": 63.70363999999984,
          "velocity": 0.6299212598425197,
          "duration": 0.14814799999999906
        },
        {
          "name": "D5",
          "midi": 74,
          "time": 63.888824999999834,
          "velocity": 0.6299212598425197,
          "duration": 0.14814799999999906
        },
        {
          "name": "C#5",
          "midi": 73,
          "time": 64.07400999999983,
          "velocity": 0.6299212598425197,
          "duration": 0.14814800000000616
        },
        {
          "name": "A4",
          "midi": 69,
          "time": 64.25919499999983,
          "velocity": 0.6299212598425197,
          "duration": 0.14814800000000616
        },
        {
          "name": "C#5",
          "midi": 73,
          "time": 64.44437999999984,
          "velocity": 0.6299212598425197,
          "duration": 0.14814800000000616
        },
        {
          "name": "D5",
          "midi": 74,
          "time": 64.62956499999984,
          "velocity": 0.6299212598425197,
          "duration": 0.14814800000000616
        },
        {
          "name": "C#5",
          "midi": 73,
          "time": 64.81474999999985,
          "velocity": 0.6299212598425197,
          "duration": 0.14814800000000616
        },
        {
          "name": "A4",
          "midi": 69,
          "time": 64.99993499999985,
          "velocity": 0.6299212598425197,
          "duration": 0.14814800000000616
        },
        {
          "name": "B4",
          "midi": 71,
          "time": 65.18511999999986,
          "velocity": 0.6299212598425197,
          "duration": 0.14814800000000616
        },
        {
          "name": "G4",
          "midi": 67,
          "time": 65.37030499999986,
          "velocity": 0.6299212598425197,
          "duration": 0.14814800000000616
        },
        {
          "name": "C#5",
          "midi": 73,
          "time": 65.55548999999986,
          "velocity": 0.6299212598425197,
          "duration": 0.14814800000000616
        },
        {
          "name": "G4",
          "midi": 67,
          "time": 65.74067499999987,
          "velocity": 0.6299212598425197,
          "duration": 0.14814800000000616
        },
        {
          "name": "D5",
          "midi": 74,
          "time": 65.92585999999987,
          "velocity": 0.6299212598425197,
          "duration": 0.14814800000000616
        },
        {
          "name": "C#5",
          "midi": 73,
          "time": 66.11104499999988,
          "velocity": 0.6299212598425197,
          "duration": 0.14814800000000616
        },
        {
          "name": "D5",
          "midi": 74,
          "time": 66.29622999999988,
          "velocity": 0.6299212598425197,
          "duration": 0.14814800000000616
        },
        {
          "name": "E5",
          "midi": 76,
          "time": 66.48141499999988,
          "velocity": 0.6299212598425197,
          "duration": 0.14814800000000616
        },
        {
          "name": "B4",
          "midi": 71,
          "time": 66.66659999999989,
          "velocity": 0.6299212598425197,
          "duration": 0.14814800000000616
        },
        {
          "name": "F#4",
          "midi": 66,
          "time": 66.8517849999999,
          "velocity": 0.6299212598425197,
          "duration": 0.14814800000000616
        },
        {
          "name": "F#5",
          "midi": 78,
          "time": 67.0369699999999,
          "velocity": 0.6299212598425197,
          "duration": 0.14814800000000616
        },
        {
          "name": "E5",
          "midi": 76,
          "time": 67.2221549999999,
          "velocity": 0.6299212598425197,
          "duration": 0.14814800000000616
        },
        {
          "name": "D5",
          "midi": 74,
          "time": 67.4073399999999,
          "velocity": 0.6299212598425197,
          "duration": 0.14814800000000616
        },
        {
          "name": "E5",
          "midi": 76,
          "time": 67.59252499999991,
          "velocity": 0.6299212598425197,
          "duration": 0.14814800000000616
        },
        {
          "name": "C#5",
          "midi": 73,
          "time": 67.77770999999991,
          "velocity": 0.6299212598425197,
          "duration": 0.14814800000000616
        },
        {
          "name": "A4",
          "midi": 69,
          "time": 67.96289499999992,
          "velocity": 0.6299212598425197,
          "duration": 0.14814800000000616
        },
        {
          "name": "B4",
          "midi": 71,
          "time": 68.14807999999992,
          "velocity": 0.6299212598425197,
          "duration": 0.14814800000000616
        },
        {
          "name": "F#4",
          "midi": 66,
          "time": 68.33326499999993,
          "velocity": 0.6299212598425197,
          "duration": 0.14814800000000616
        },
        {
          "name": "D5",
          "midi": 74,
          "time": 68.51844999999993,
          "velocity": 0.6299212598425197,
          "duration": 0.14814800000000616
        },
        {
          "name": "F#4",
          "midi": 66,
          "time": 68.70363499999993,
          "velocity": 0.6299212598425197,
          "duration": 0.14814800000000616
        },
        {
          "name": "B4",
          "midi": 71,
          "time": 68.88881999999994,
          "velocity": 0.6299212598425197,
          "duration": 0.14814800000000616
        },
        {
          "name": "F#5",
          "midi": 78,
          "time": 69.07400499999994,
          "velocity": 0.6299212598425197,
          "duration": 0.14814800000000616
        },
        {
          "name": "B4",
          "midi": 71,
          "time": 69.25918999999995,
          "velocity": 0.6299212598425197,
          "duration": 0.14814800000000616
        },
        {
          "name": "E5",
          "midi": 76,
          "time": 69.44437499999995,
          "velocity": 0.6299212598425197,
          "duration": 0.14814800000000616
        },
        {
          "name": "F#4",
          "midi": 66,
          "time": 69.62955999999996,
          "velocity": 0.6299212598425197,
          "duration": 0.14814800000000616
        },
        {
          "name": "B4",
          "midi": 71,
          "time": 69.81474499999996,
          "velocity": 0.6299212598425197,
          "duration": 0.14814800000000616
        },
        {
          "name": "F#5",
          "midi": 78,
          "time": 69.99992999999996,
          "velocity": 0.6299212598425197,
          "duration": 0.14814800000000616
        },
        {
          "name": "E5",
          "midi": 76,
          "time": 70.18511499999997,
          "velocity": 0.6299212598425197,
          "duration": 0.2962959999999981
        },
        {
          "name": "D5",
          "midi": 74,
          "time": 70.55548499999996,
          "velocity": 0.6299212598425197,
          "duration": 0.14814800000000616
        },
        {
          "name": "C#5",
          "midi": 73,
          "time": 70.74066999999997,
          "velocity": 0.6299212598425197,
          "duration": 0.2962959999999981
        },
        {
          "name": "G4",
          "midi": 67,
          "time": 74.25918499999996,
          "velocity": 0.6299212598425197,
          "duration": 0.14814800000000616
        },
        {
          "name": "D5",
          "midi": 74,
          "time": 74.44436999999996,
          "velocity": 0.6299212598425197,
          "duration": 0.14814800000000616
        },
        {
          "name": "G5",
          "midi": 79,
          "time": 74.62955499999997,
          "velocity": 0.6299212598425197,
          "duration": 0.6944437500000049
        },
        {
          "name": "G4",
          "midi": 67,
          "time": 80.18510499999998,
          "velocity": 0.6299212598425197,
          "duration": 0.14814800000000616
        },
        {
          "name": "D5",
          "midi": 74,
          "time": 80.37028999999998,
          "velocity": 0.6299212598425197,
          "duration": 0.14814800000000616
        },
        {
          "name": "G5",
          "midi": 79,
          "time": 80.55547499999999,
          "velocity": 0.6299212598425197,
          "duration": 0.6944437500000049
        },
        {
          "name": "B4",
          "midi": 71,
          "time": 82.96288,
          "velocity": 0.6299212598425197,
          "duration": 0.07407399999999598
        },
        {
          "name": "F#4",
          "midi": 66,
          "time": 83.0554725,
          "velocity": 0.6299212598425197,
          "duration": 0.07407399999999598
        },
        {
          "name": "D5",
          "midi": 74,
          "time": 83.14806499999999,
          "velocity": 0.6299212598425197,
          "duration": 0.07407399999999598
        },
        {
          "name": "F#4",
          "midi": 66,
          "time": 83.24065749999998,
          "velocity": 0.6299212598425197,
          "duration": 0.07407399999999598
        },
        {
          "name": "B4",
          "midi": 71,
          "time": 83.33324999999998,
          "velocity": 0.6299212598425197,
          "duration": 0.07407399999999598
        },
        {
          "name": "D5",
          "midi": 74,
          "time": 83.42584249999997,
          "velocity": 0.6299212598425197,
          "duration": 0.07407399999999598
        },
        {
          "name": "C#5",
          "midi": 73,
          "time": 83.51843499999997,
          "velocity": 0.6299212598425197,
          "duration": 0.07407399999999598
        },
        {
          "name": "D5",
          "midi": 74,
          "time": 83.61102749999996,
          "velocity": 0.6299212598425197,
          "duration": 0.07407399999999598
        },
        {
          "name": "C#5",
          "midi": 73,
          "time": 83.70361999999996,
          "velocity": 0.6299212598425197,
          "duration": 0.07407399999999598
        },
        {
          "name": "A4",
          "midi": 69,
          "time": 83.79621249999995,
          "velocity": 0.6299212598425197,
          "duration": 0.07407399999999598
        },
        {
          "name": "E5",
          "midi": 76,
          "time": 83.88880499999995,
          "velocity": 0.6299212598425197,
          "duration": 0.07407399999999598
        },
        {
          "name": "A4",
          "midi": 69,
          "time": 83.98139749999994,
          "velocity": 0.6299212598425197,
          "duration": 0.07407399999999598
        },
        {
          "name": "C#5",
          "midi": 73,
          "time": 84.07398999999994,
          "velocity": 0.6299212598425197,
          "duration": 0.07407399999999598
        },
        {
          "name": "D5",
          "midi": 74,
          "time": 84.16658249999993,
          "velocity": 0.6299212598425197,
          "duration": 0.07407399999999598
        },
        {
          "name": "C#5",
          "midi": 73,
          "time": 84.25917499999993,
          "velocity": 0.6299212598425197,
          "duration": 0.07407399999999598
        },
        {
          "name": "D5",
          "midi": 74,
          "time": 84.35176749999992,
          "velocity": 0.6299212598425197,
          "duration": 0.07407399999999598
        },
        {
          "name": "D5",
          "midi": 74,
          "time": 84.44435999999992,
          "velocity": 0.6299212598425197,
          "duration": 0.07407399999999598
        },
        {
          "name": "B4",
          "midi": 71,
          "time": 84.53695249999991,
          "velocity": 0.6299212598425197,
          "duration": 0.07407399999999598
        },
        {
          "name": "F#5",
          "midi": 78,
          "time": 84.62954499999991,
          "velocity": 0.6299212598425197,
          "duration": 0.07407399999999598
        },
        {
          "name": "B4",
          "midi": 71,
          "time": 84.7221374999999,
          "velocity": 0.6299212598425197,
          "duration": 0.07407399999999598
        },
        {
          "name": "E5",
          "midi": 76,
          "time": 84.8147299999999,
          "velocity": 0.6299212598425197,
          "duration": 0.07407399999999598
        },
        {
          "name": "B4",
          "midi": 71,
          "time": 84.90732249999989,
          "velocity": 0.6299212598425197,
          "duration": 0.07407399999999598
        },
        {
          "name": "D5",
          "midi": 74,
          "time": 84.99991499999989,
          "velocity": 0.6299212598425197,
          "duration": 0.07407399999999598
        },
        {
          "name": "B4",
          "midi": 71,
          "time": 85.09250749999988,
          "velocity": 0.6299212598425197,
          "duration": 0.07407399999999598
        },
        {
          "name": "A4",
          "midi": 69,
          "time": 85.27769249999987,
          "velocity": 0.6299212598425197,
          "duration": 0.07407399999999598
        },
        {
          "name": "C#5",
          "midi": 73,
          "time": 85.37028499999987,
          "velocity": 0.6299212598425197,
          "duration": 0.07407399999999598
        },
        {
          "name": "E5",
          "midi": 76,
          "time": 85.46287749999986,
          "velocity": 0.6299212598425197,
          "duration": 0.07407399999999598
        },
        {
          "name": "A5",
          "midi": 81,
          "time": 85.55546999999986,
          "velocity": 0.6299212598425197,
          "duration": 0.07407399999999598
        },
        {
          "name": "E5",
          "midi": 76,
          "time": 85.64806249999985,
          "velocity": 0.6299212598425197,
          "duration": 0.07407399999999598
        },
        {
          "name": "C#5",
          "midi": 73,
          "time": 85.74065499999985,
          "velocity": 0.6299212598425197,
          "duration": 0.07407399999999598
        },
        {
          "name": "E5",
          "midi": 76,
          "time": 85.83324749999984,
          "velocity": 0.6299212598425197,
          "duration": 0.07407399999999598
        },
        {
          "name": "B4",
          "midi": 71,
          "time": 85.92583999999984,
          "velocity": 0.6299212598425197,
          "duration": 0.07407399999999598
        },
        {
          "name": "F#4",
          "midi": 66,
          "time": 86.01843249999983,
          "velocity": 0.6299212598425197,
          "duration": 0.07407399999999598
        },
        {
          "name": "D5",
          "midi": 74,
          "time": 86.11102499999983,
          "velocity": 0.6299212598425197,
          "duration": 0.07407399999999598
        },
        {
          "name": "F#4",
          "midi": 66,
          "time": 86.20361749999982,
          "velocity": 0.6299212598425197,
          "duration": 0.07407399999999598
        },
        {
          "name": "B4",
          "midi": 71,
          "time": 86.29620999999982,
          "velocity": 0.6299212598425197,
          "duration": 0.07407399999999598
        },
        {
          "name": "D5",
          "midi": 74,
          "time": 86.38880249999981,
          "velocity": 0.6299212598425197,
          "duration": 0.07407399999999598
        },
        {
          "name": "C#5",
          "midi": 73,
          "time": 86.48139499999981,
          "velocity": 0.6299212598425197,
          "duration": 0.07407399999999598
        },
        {
          "name": "D5",
          "midi": 74,
          "time": 86.5739874999998,
          "velocity": 0.6299212598425197,
          "duration": 0.07407399999999598
        },
        {
          "name": "C#5",
          "midi": 73,
          "time": 86.6665799999998,
          "velocity": 0.6299212598425197,
          "duration": 0.07407399999999598
        },
        {
          "name": "A4",
          "midi": 69,
          "time": 86.75917249999979,
          "velocity": 0.6299212598425197,
          "duration": 0.07407399999999598
        },
        {
          "name": "E5",
          "midi": 76,
          "time": 86.85176499999979,
          "velocity": 0.6299212598425197,
          "duration": 0.07407399999999598
        },
        {
          "name": "A4",
          "midi": 69,
          "time": 86.94435749999978,
          "velocity": 0.6299212598425197,
          "duration": 0.07407399999999598
        },
        {
          "name": "C#5",
          "midi": 73,
          "time": 87.03694999999978,
          "velocity": 0.6299212598425197,
          "duration": 0.07407399999999598
        },
        {
          "name": "E5",
          "midi": 76,
          "time": 87.12954249999977,
          "velocity": 0.6299212598425197,
          "duration": 0.07407399999999598
        },
        {
          "name": "A5",
          "midi": 81,
          "time": 87.22213499999977,
          "velocity": 0.6299212598425197,
          "duration": 0.07407399999999598
        },
        {
          "name": "E5",
          "midi": 76,
          "time": 87.31472749999976,
          "velocity": 0.6299212598425197,
          "duration": 0.07407399999999598
        }
      ],
      "controlChanges": {
        "7": [
          {
            "number": 7,
            "time": 0,
            "value": 1
          }
        ]
      },
      "id": 4,
      "name": "lphA TraK",
      "instrumentNumber": 11,
      "instrument": "vibraphone",
      "instrumentFamily": "chromatic percussion",
      "channelNumber": 3,
      "isPercussion": false
    },
    {
      "startTime": 31.7592275,
      "duration": 88.87028149999998,
      "length": 24,
      "notes": [
        {
          "name": "D3",
          "midi": 50,
          "time": 31.7592275,
          "velocity": 0.6299212598425197,
          "duration": 0.07407399999999953
        },
        {
          "name": "D2",
          "midi": 38,
          "time": 31.7592275,
          "velocity": 0.6299212598425197,
          "duration": 0.07407399999999953
        },
        {
          "name": "E3",
          "midi": 52,
          "time": 31.944412500000002,
          "velocity": 0.6299212598425197,
          "duration": 0.07407399999999953
        },
        {
          "name": "E2",
          "midi": 40,
          "time": 31.944412500000002,
          "velocity": 0.6299212598425197,
          "duration": 0.07407399999999953
        },
        {
          "name": "D2",
          "midi": 38,
          "time": 32.1295975,
          "velocity": 0.6299212598425197,
          "duration": 0.07407400000000308
        },
        {
          "name": "D3",
          "midi": 50,
          "time": 32.1295975,
          "velocity": 0.6299212598425197,
          "duration": 0.07407400000000308
        },
        {
          "name": "D3",
          "midi": 50,
          "time": 32.31478250000001,
          "velocity": 0.6299212598425197,
          "duration": 0.07407400000000308
        },
        {
          "name": "D2",
          "midi": 38,
          "time": 32.31478250000001,
          "velocity": 0.6299212598425197,
          "duration": 0.07407400000000308
        },
        {
          "name": "C#3",
          "midi": 49,
          "time": 32.40737500000001,
          "velocity": 0.6299212598425197,
          "duration": 0.07407400000000308
        },
        {
          "name": "C#2",
          "midi": 37,
          "time": 32.40737500000001,
          "velocity": 0.6299212598425197,
          "duration": 0.07407400000000308
        },
        {
          "name": "A2",
          "midi": 45,
          "time": 32.49996750000001,
          "velocity": 0.6299212598425197,
          "duration": 0.07407400000000308
        },
        {
          "name": "A1",
          "midi": 33,
          "time": 32.49996750000001,
          "velocity": 0.6299212598425197,
          "duration": 0.07407400000000308
        },
        {
          "name": "D2",
          "midi": 38,
          "time": 88.05546750000002,
          "velocity": 0.6299212598425197,
          "duration": 0.07407399999999598
        },
        {
          "name": "D3",
          "midi": 50,
          "time": 88.05546750000002,
          "velocity": 0.6299212598425197,
          "duration": 0.07407399999999598
        },
        {
          "name": "E2",
          "midi": 40,
          "time": 88.24065250000001,
          "velocity": 0.6299212598425197,
          "duration": 0.07407399999999598
        },
        {
          "name": "E3",
          "midi": 52,
          "time": 88.24065250000001,
          "velocity": 0.6299212598425197,
          "duration": 0.07407399999999598
        },
        {
          "name": "D2",
          "midi": 38,
          "time": 88.4258375,
          "velocity": 0.6299212598425197,
          "duration": 0.07407399999999598
        },
        {
          "name": "D3",
          "midi": 50,
          "time": 88.4258375,
          "velocity": 0.6299212598425197,
          "duration": 0.07407399999999598
        },
        {
          "name": "D2",
          "midi": 38,
          "time": 88.61102249999999,
          "velocity": 0.6299212598425197,
          "duration": 0.07407399999999598
        },
        {
          "name": "D3",
          "midi": 50,
          "time": 88.61102249999999,
          "velocity": 0.6299212598425197,
          "duration": 0.07407399999999598
        },
        {
          "name": "C#3",
          "midi": 49,
          "time": 88.70361499999999,
          "velocity": 0.6299212598425197,
          "duration": 0.07407399999999598
        },
        {
          "name": "C#2",
          "midi": 37,
          "time": 88.70361499999999,
          "velocity": 0.6299212598425197,
          "duration": 0.07407399999999598
        },
        {
          "name": "A1",
          "midi": 33,
          "time": 88.79620749999998,
          "velocity": 0.6299212598425197,
          "duration": 0.07407399999999598
        },
        {
          "name": "A2",
          "midi": 45,
          "time": 88.79620749999998,
          "velocity": 0.6299212598425197,
          "duration": 0.07407399999999598
        }
      ],
      "controlChanges": {
        "7": [
          {
            "number": 7,
            "time": 0,
            "value": 1
          }
        ]
      },
      "id": 5,
      "name": "nova4@earthlink.net",
      "instrumentNumber": 29,
      "instrument": "overdriven guitar",
      "instrumentFamily": "guitar",
      "channelNumber": 4,
      "isPercussion": false
    },
    {
      "startTime": 26.66664,
      "duration": 87.24065350000001,
      "length": 30,
      "notes": [
        {
          "name": "B4",
          "midi": 71,
          "time": 26.66664,
          "velocity": 0.6299212598425197,
          "duration": 0.4444440000000007
        },
        {
          "name": "F#5",
          "midi": 78,
          "time": 27.1296025,
          "velocity": 0.6299212598425197,
          "duration": 0.08796287499999877
        },
        {
          "name": "D5",
          "midi": 74,
          "time": 27.1296025,
          "velocity": 0.6299212598425197,
          "duration": 0.08796287499999877
        },
        {
          "name": "E5",
          "midi": 76,
          "time": 27.222195,
          "velocity": 0.6299212598425197,
          "duration": 0.08796287499999877
        },
        {
          "name": "F#5",
          "midi": 78,
          "time": 27.314787499999998,
          "velocity": 0.6299212598425197,
          "duration": 0.08796287499999877
        },
        {
          "name": "E5",
          "midi": 76,
          "time": 27.407379999999996,
          "velocity": 0.6299212598425197,
          "duration": 0.5925919999999998
        },
        {
          "name": "D5",
          "midi": 74,
          "time": 28.148119999999995,
          "velocity": 0.6299212598425197,
          "duration": 0.29629600000000167
        },
        {
          "name": "F#4",
          "midi": 66,
          "time": 28.518489999999996,
          "velocity": 0.6299212598425197,
          "duration": 0.29629600000000167
        },
        {
          "name": "E4",
          "midi": 64,
          "time": 28.888859999999998,
          "velocity": 0.6299212598425197,
          "duration": 0.5925919999999998
        },
        {
          "name": "D5",
          "midi": 74,
          "time": 29.629599999999996,
          "velocity": 0.6299212598425197,
          "duration": 0.4444440000000007
        },
        {
          "name": "B4",
          "midi": 71,
          "time": 30.092562499999996,
          "velocity": 0.6299212598425197,
          "duration": 0.07407399999999953
        },
        {
          "name": "C#5",
          "midi": 73,
          "time": 30.185154999999995,
          "velocity": 0.6299212598425197,
          "duration": 0.07407399999999953
        },
        {
          "name": "D5",
          "midi": 74,
          "time": 30.277747499999993,
          "velocity": 0.6299212598425197,
          "duration": 0.07407399999999953
        },
        {
          "name": "C#5",
          "midi": 73,
          "time": 30.37033999999999,
          "velocity": 0.6299212598425197,
          "duration": 0.25925900000000013
        },
        {
          "name": "A4",
          "midi": 69,
          "time": 30.64811749999999,
          "velocity": 0.6299212598425197,
          "duration": 0.29629600000000167
        },
        {
          "name": "B4",
          "midi": 71,
          "time": 82.96288,
          "velocity": 0.6299212598425197,
          "duration": 0.4444440000000043
        },
        {
          "name": "D5",
          "midi": 74,
          "time": 83.4258425,
          "velocity": 0.6299212598425197,
          "duration": 0.08796287500000233
        },
        {
          "name": "F#5",
          "midi": 78,
          "time": 83.4258425,
          "velocity": 0.6299212598425197,
          "duration": 0.08796287500000233
        },
        {
          "name": "E5",
          "midi": 76,
          "time": 83.51843500000001,
          "velocity": 0.6299212598425197,
          "duration": 0.08796287500000233
        },
        {
          "name": "F#5",
          "midi": 78,
          "time": 83.61102750000002,
          "velocity": 0.6299212598425197,
          "duration": 0.08796287500000233
        },
        {
          "name": "E5",
          "midi": 76,
          "time": 83.70362000000003,
          "velocity": 0.6299212598425197,
          "duration": 0.5925919999999962
        },
        {
          "name": "D5",
          "midi": 74,
          "time": 84.44436000000003,
          "velocity": 0.6299212598425197,
          "duration": 0.2962959999999981
        },
        {
          "name": "F#4",
          "midi": 66,
          "time": 84.81473000000003,
          "velocity": 0.6299212598425197,
          "duration": 0.2962959999999981
        },
        {
          "name": "E4",
          "midi": 64,
          "time": 85.18510000000002,
          "velocity": 0.6299212598425197,
          "duration": 0.5925919999999962
        },
        {
          "name": "D5",
          "midi": 74,
          "time": 85.92584000000002,
          "velocity": 0.6299212598425197,
          "duration": 0.4444440000000043
        },
        {
          "name": "B4",
          "midi": 71,
          "time": 86.38880250000003,
          "velocity": 0.6299212598425197,
          "duration": 0.07407399999999598
        },
        {
          "name": "C#5",
          "midi": 73,
          "time": 86.48139500000002,
          "velocity": 0.6299212598425197,
          "duration": 0.07407399999999598
        },
        {
          "name": "D5",
          "midi": 74,
          "time": 86.57398750000002,
          "velocity": 0.6299212598425197,
          "duration": 0.07407399999999598
        },
        {
          "name": "C#5",
          "midi": 73,
          "time": 86.66658000000001,
          "velocity": 0.6299212598425197,
          "duration": 0.25925900000000013
        },
        {
          "name": "A4",
          "midi": 69,
          "time": 86.94435750000001,
          "velocity": 0.6299212598425197,
          "duration": 0.2962959999999981
        }
      ],
      "controlChanges": {
        "7": [
          {
            "number": 7,
            "time": 0,
            "value": 1
          }
        ]
      },
      "id": 6,
      "name": "5.22.97",
      "instrumentNumber": 73,
      "instrument": "flute",
      "instrumentFamily": "pipe",
      "channelNumber": 5,
      "isPercussion": false
    },
    {
      "startTime": 14.629615000000001,
      "duration": 112.57396149999998,
      "length": 414,
      "notes": [
        {
          "name": "B4",
          "midi": 71,
          "time": 14.629615000000001,
          "velocity": 0.6299212598425197,
          "duration": 1.0740730000000003
        },
        {
          "name": "C#5",
          "midi": 73,
          "time": 15.740725000000001,
          "velocity": 0.6299212598425197,
          "duration": 0.14814800000000083
        },
        {
          "name": "D5",
          "midi": 74,
          "time": 15.925910000000002,
          "velocity": 0.6299212598425197,
          "duration": 0.14814799999999906
        },
        {
          "name": "C#5",
          "midi": 73,
          "time": 16.111095000000002,
          "velocity": 0.6299212598425197,
          "duration": 0.5185180000000003
        },
        {
          "name": "E5",
          "midi": 76,
          "time": 16.666650000000004,
          "velocity": 0.6299212598425197,
          "duration": 0.14814799999999906
        },
        {
          "name": "D5",
          "midi": 74,
          "time": 16.851835000000005,
          "velocity": 0.6299212598425197,
          "duration": 0.3472218749999989
        },
        {
          "name": "C#5",
          "midi": 73,
          "time": 17.222205000000002,
          "velocity": 0.6299212598425197,
          "duration": 0.14814799999999906
        },
        {
          "name": "D5",
          "midi": 74,
          "time": 17.407390000000003,
          "velocity": 0.6299212598425197,
          "duration": 0.14814799999999906
        },
        {
          "name": "B4",
          "midi": 71,
          "time": 17.592575000000004,
          "velocity": 0.6299212598425197,
          "duration": 1.2222210000000011
        },
        {
          "name": "F#5",
          "midi": 78,
          "time": 18.888870000000004,
          "velocity": 0.6299212598425197,
          "duration": 0.14814799999999906
        },
        {
          "name": "E5",
          "midi": 76,
          "time": 19.074055000000005,
          "velocity": 0.6299212598425197,
          "duration": 0.5185180000000003
        },
        {
          "name": "D5",
          "midi": 74,
          "time": 19.629610000000007,
          "velocity": 0.6299212598425197,
          "duration": 0.14814799999999906
        },
        {
          "name": "C#5",
          "midi": 73,
          "time": 19.814795000000007,
          "velocity": 0.6299212598425197,
          "duration": 0.29629600000000167
        },
        {
          "name": "B4",
          "midi": 71,
          "time": 20.18516500000001,
          "velocity": 0.6299212598425197,
          "duration": 0.14814799999999906
        },
        {
          "name": "A4",
          "midi": 69,
          "time": 20.37035000000001,
          "velocity": 0.6299212598425197,
          "duration": 0.14814799999999906
        },
        {
          "name": "C#5",
          "midi": 73,
          "time": 20.55553500000001,
          "velocity": 0.6299212598425197,
          "duration": 0.14814799999999906
        },
        {
          "name": "B4",
          "midi": 71,
          "time": 20.74072000000001,
          "velocity": 0.6299212598425197,
          "duration": 0.9151225416666655
        },
        {
          "name": "C#5",
          "midi": 73,
          "time": 21.66664500000001,
          "velocity": 0.6299212598425197,
          "duration": 0.14814799999999906
        },
        {
          "name": "D5",
          "midi": 74,
          "time": 21.85183000000001,
          "velocity": 0.6299212598425197,
          "duration": 0.14814799999999906
        },
        {
          "name": "C#5",
          "midi": 73,
          "time": 22.03701500000001,
          "velocity": 0.6299212598425197,
          "duration": 0.5185180000000003
        },
        {
          "name": "E5",
          "midi": 76,
          "time": 22.592570000000013,
          "velocity": 0.6299212598425197,
          "duration": 0.14814799999999906
        },
        {
          "name": "D5",
          "midi": 74,
          "time": 22.777755000000013,
          "velocity": 0.6299212598425197,
          "duration": 0.4444440000000007
        },
        {
          "name": "F#5",
          "midi": 78,
          "time": 23.333310000000015,
          "velocity": 0.6299212598425197,
          "duration": 0.14814799999999906
        },
        {
          "name": "G5",
          "midi": 79,
          "time": 23.518495000000016,
          "velocity": 0.6299212598425197,
          "duration": 1.2222210000000011
        },
        {
          "name": "D5",
          "midi": 74,
          "time": 24.814790000000016,
          "velocity": 0.6299212598425197,
          "duration": 0.14814799999999906
        },
        {
          "name": "E5",
          "midi": 76,
          "time": 24.999975000000017,
          "velocity": 0.6299212598425197,
          "duration": 0.4814809999999987
        },
        {
          "name": "D5",
          "midi": 74,
          "time": 25.555530000000015,
          "velocity": 0.6299212598425197,
          "duration": 0.14814799999999906
        },
        {
          "name": "C#5",
          "midi": 73,
          "time": 25.740715000000016,
          "velocity": 0.6299212598425197,
          "duration": 0.3472218749999989
        },
        {
          "name": "D5",
          "midi": 74,
          "time": 26.111085000000013,
          "velocity": 0.6299212598425197,
          "duration": 0.14814799999999906
        },
        {
          "name": "C#5",
          "midi": 73,
          "time": 26.296270000000014,
          "velocity": 0.6299212598425197,
          "duration": 0.29629600000000167
        },
        {
          "name": "B4",
          "midi": 71,
          "time": 26.666640000000015,
          "velocity": 0.6299212598425197,
          "duration": 0.4444440000000007
        },
        {
          "name": "F#5",
          "midi": 78,
          "time": 27.129602500000015,
          "velocity": 0.6299212598425197,
          "duration": 0.08796287499999877
        },
        {
          "name": "D5",
          "midi": 74,
          "time": 27.129602500000015,
          "velocity": 0.6299212598425197,
          "duration": 0.08796287499999877
        },
        {
          "name": "E5",
          "midi": 76,
          "time": 27.222195000000013,
          "velocity": 0.6299212598425197,
          "duration": 0.08796287499999877
        },
        {
          "name": "F#5",
          "midi": 78,
          "time": 27.314787500000012,
          "velocity": 0.6299212598425197,
          "duration": 0.08796287499999877
        },
        {
          "name": "E5",
          "midi": 76,
          "time": 27.40738000000001,
          "velocity": 0.6299212598425197,
          "duration": 0.5925919999999998
        },
        {
          "name": "D5",
          "midi": 74,
          "time": 28.14812000000001,
          "velocity": 0.6299212598425197,
          "duration": 0.29629600000000167
        },
        {
          "name": "F#4",
          "midi": 66,
          "time": 28.51849000000001,
          "velocity": 0.6299212598425197,
          "duration": 0.29629600000000167
        },
        {
          "name": "E4",
          "midi": 64,
          "time": 28.88886000000001,
          "velocity": 0.6299212598425197,
          "duration": 0.5925919999999998
        },
        {
          "name": "D5",
          "midi": 74,
          "time": 29.62960000000001,
          "velocity": 0.6299212598425197,
          "duration": 0.4444440000000007
        },
        {
          "name": "B4",
          "midi": 71,
          "time": 30.09256250000001,
          "velocity": 0.6299212598425197,
          "duration": 0.07407399999999953
        },
        {
          "name": "C#5",
          "midi": 73,
          "time": 30.18515500000001,
          "velocity": 0.6299212598425197,
          "duration": 0.07407399999999953
        },
        {
          "name": "D5",
          "midi": 74,
          "time": 30.277747500000007,
          "velocity": 0.6299212598425197,
          "duration": 0.07407399999999953
        },
        {
          "name": "C#5",
          "midi": 73,
          "time": 30.370340000000006,
          "velocity": 0.6299212598425197,
          "duration": 0.25925900000000013
        },
        {
          "name": "A4",
          "midi": 69,
          "time": 30.648117500000005,
          "velocity": 0.6299212598425197,
          "duration": 0.29629600000000167
        },
        {
          "name": "B4",
          "midi": 71,
          "time": 31.11108000000001,
          "velocity": 0.6299212598425197,
          "duration": 0.07407399999999953
        },
        {
          "name": "B3",
          "midi": 59,
          "time": 31.11108000000001,
          "velocity": 0.6299212598425197,
          "duration": 0.07407399999999953
        },
        {
          "name": "D4",
          "midi": 62,
          "time": 31.203672500000007,
          "velocity": 0.6299212598425197,
          "duration": 0.07407399999999953
        },
        {
          "name": "D5",
          "midi": 74,
          "time": 31.203672500000007,
          "velocity": 0.6299212598425197,
          "duration": 0.07407399999999953
        },
        {
          "name": "C#4",
          "midi": 61,
          "time": 31.296265000000005,
          "velocity": 0.6299212598425197,
          "duration": 0.07407399999999953
        },
        {
          "name": "C#5",
          "midi": 73,
          "time": 31.296265000000005,
          "velocity": 0.6299212598425197,
          "duration": 0.07407399999999953
        },
        {
          "name": "A4",
          "midi": 69,
          "time": 31.388857500000004,
          "velocity": 0.6299212598425197,
          "duration": 0.07407399999999953
        },
        {
          "name": "A3",
          "midi": 57,
          "time": 31.388857500000004,
          "velocity": 0.6299212598425197,
          "duration": 0.07407399999999953
        },
        {
          "name": "D5",
          "midi": 74,
          "time": 31.481450000000002,
          "velocity": 0.6299212598425197,
          "duration": 0.07407399999999953
        },
        {
          "name": "D4",
          "midi": 62,
          "time": 31.481450000000002,
          "velocity": 0.6299212598425197,
          "duration": 0.07407399999999953
        },
        {
          "name": "A3",
          "midi": 57,
          "time": 31.5740425,
          "velocity": 0.6299212598425197,
          "duration": 0.07407399999999953
        },
        {
          "name": "A4",
          "midi": 69,
          "time": 31.5740425,
          "velocity": 0.6299212598425197,
          "duration": 0.07407399999999953
        },
        {
          "name": "B4",
          "midi": 71,
          "time": 31.666635,
          "velocity": 0.6299212598425197,
          "duration": 0.07407399999999953
        },
        {
          "name": "B3",
          "midi": 59,
          "time": 31.666635,
          "velocity": 0.6299212598425197,
          "duration": 0.07407399999999953
        },
        {
          "name": "C#5",
          "midi": 73,
          "time": 32.59256,
          "velocity": 0.6299212598425197,
          "duration": 0.4444439999999972
        },
        {
          "name": "A4",
          "midi": 69,
          "time": 33.148115,
          "velocity": 0.6299212598425197,
          "duration": 0.14814799999999906
        },
        {
          "name": "B4",
          "midi": 71,
          "time": 33.333299999999994,
          "velocity": 0.6299212598425197,
          "duration": 1.2592580000000027
        },
        {
          "name": "F#4",
          "midi": 66,
          "time": 34.629594999999995,
          "velocity": 0.6299212598425197,
          "duration": 0.07407400000000308
        },
        {
          "name": "B4",
          "midi": 71,
          "time": 34.7221875,
          "velocity": 0.6299212598425197,
          "duration": 0.07407400000000308
        },
        {
          "name": "C#5",
          "midi": 73,
          "time": 34.81478,
          "velocity": 0.6299212598425197,
          "duration": 0.17438254166666667
        },
        {
          "name": "D5",
          "midi": 74,
          "time": 34.999964999999996,
          "velocity": 0.6299212598425197,
          "duration": 0.17438254166666667
        },
        {
          "name": "E5",
          "midi": 76,
          "time": 35.18514999999999,
          "velocity": 0.6299212598425197,
          "duration": 0.17438254166666667
        },
        {
          "name": "C#5",
          "midi": 73,
          "time": 35.37033499999999,
          "velocity": 0.6299212598425197,
          "duration": 0.6296290000000013
        },
        {
          "name": "A4",
          "midi": 69,
          "time": 36.11107499999999,
          "velocity": 0.6299212598425197,
          "duration": 0.14814799999999906
        },
        {
          "name": "B4",
          "midi": 71,
          "time": 36.29625999999999,
          "velocity": 0.6299212598425197,
          "duration": 1.925924000000002
        },
        {
          "name": "D5",
          "midi": 74,
          "time": 38.51847999999999,
          "velocity": 0.6299212598425197,
          "duration": 0.14814799999999906
        },
        {
          "name": "C#5",
          "midi": 73,
          "time": 38.70366499999999,
          "velocity": 0.6299212598425197,
          "duration": 0.14814799999999906
        },
        {
          "name": "D5",
          "midi": 74,
          "time": 38.888849999999984,
          "velocity": 0.6299212598425197,
          "duration": 0.14814799999999906
        },
        {
          "name": "E5",
          "midi": 76,
          "time": 39.07403499999998,
          "velocity": 0.6299212598425197,
          "duration": 0.14814799999999906
        },
        {
          "name": "F#5",
          "midi": 78,
          "time": 39.25921999999998,
          "velocity": 0.6299212598425197,
          "duration": 0.14814799999999906
        },
        {
          "name": "B4",
          "midi": 71,
          "time": 39.444404999999975,
          "velocity": 0.6299212598425197,
          "duration": 0.14814799999999906
        },
        {
          "name": "F#5",
          "midi": 78,
          "time": 39.62958999999997,
          "velocity": 0.6299212598425197,
          "duration": 0.14814799999999906
        },
        {
          "name": "F#5",
          "midi": 78,
          "time": 39.81477499999997,
          "velocity": 0.6299212598425197,
          "duration": 0.2962959999999981
        },
        {
          "name": "E5",
          "midi": 76,
          "time": 40.123416666666635,
          "velocity": 0.6299212598425197,
          "duration": 0.0987653333333327
        },
        {
          "name": "D5",
          "midi": 74,
          "time": 40.246873333333305,
          "velocity": 0.6299212598425197,
          "duration": 0.0987653333333327
        },
        {
          "name": "E5",
          "midi": 76,
          "time": 40.370329999999974,
          "velocity": 0.6299212598425197,
          "duration": 0.0987653333333327
        },
        {
          "name": "D5",
          "midi": 74,
          "time": 40.493786666666644,
          "velocity": 0.6299212598425197,
          "duration": 0.0987653333333327
        },
        {
          "name": "C#5",
          "midi": 73,
          "time": 40.61724333333331,
          "velocity": 0.6299212598425197,
          "duration": 0.0987653333333327
        },
        {
          "name": "D5",
          "midi": 74,
          "time": 40.74069999999998,
          "velocity": 0.6299212598425197,
          "duration": 0.0987653333333327
        },
        {
          "name": "C#5",
          "midi": 73,
          "time": 40.86415666666665,
          "velocity": 0.6299212598425197,
          "duration": 0.0987653333333327
        },
        {
          "name": "B4",
          "midi": 71,
          "time": 40.98761333333332,
          "velocity": 0.6299212598425197,
          "duration": 0.0987653333333327
        },
        {
          "name": "C#5",
          "midi": 73,
          "time": 41.11106999999999,
          "velocity": 0.6299212598425197,
          "duration": 0.0987653333333327
        },
        {
          "name": "B4",
          "midi": 71,
          "time": 41.23452666666666,
          "velocity": 0.6299212598425197,
          "duration": 0.0987653333333327
        },
        {
          "name": "A4",
          "midi": 69,
          "time": 41.35798333333333,
          "velocity": 0.6299212598425197,
          "duration": 0.0987653333333327
        },
        {
          "name": "B4",
          "midi": 71,
          "time": 41.48144,
          "velocity": 0.6299212598425197,
          "duration": 0.2962959999999981
        },
        {
          "name": "C#5",
          "midi": 73,
          "time": 41.85181,
          "velocity": 0.6299212598425197,
          "duration": 0.2962959999999981
        },
        {
          "name": "D5",
          "midi": 74,
          "time": 42.22218,
          "velocity": 0.6299212598425197,
          "duration": 0.14814799999999906
        },
        {
          "name": "C#5",
          "midi": 73,
          "time": 42.407365,
          "velocity": 0.6299212598425197,
          "duration": 0.14814799999999906
        },
        {
          "name": "D5",
          "midi": 74,
          "time": 42.592549999999996,
          "velocity": 0.6299212598425197,
          "duration": 0.14814799999999906
        },
        {
          "name": "F#5",
          "midi": 78,
          "time": 42.77773499999999,
          "velocity": 0.6299212598425197,
          "duration": 0.07407400000000308
        },
        {
          "name": "E5",
          "midi": 76,
          "time": 42.870327499999995,
          "velocity": 0.6299212598425197,
          "duration": 0.07407400000000308
        },
        {
          "name": "F#5",
          "midi": 78,
          "time": 42.96292,
          "velocity": 0.6299212598425197,
          "duration": 0.17438254166666667
        },
        {
          "name": "B4",
          "midi": 71,
          "time": 43.148104999999994,
          "velocity": 0.6299212598425197,
          "duration": 0.14814799999999906
        },
        {
          "name": "E5",
          "midi": 76,
          "time": 43.33328999999999,
          "velocity": 0.6299212598425197,
          "duration": 0.14814799999999906
        },
        {
          "name": "B4",
          "midi": 71,
          "time": 43.51847499999999,
          "velocity": 0.6299212598425197,
          "duration": 0.14814799999999906
        },
        {
          "name": "D5",
          "midi": 74,
          "time": 43.703659999999985,
          "velocity": 0.6299212598425197,
          "duration": 0.14814799999999906
        },
        {
          "name": "E5",
          "midi": 76,
          "time": 43.88884499999998,
          "velocity": 0.6299212598425197,
          "duration": 0.14814799999999906
        },
        {
          "name": "C#5",
          "midi": 73,
          "time": 44.07402999999998,
          "velocity": 0.6299212598425197,
          "duration": 0.2962959999999981
        },
        {
          "name": "B4",
          "midi": 71,
          "time": 44.44439999999998,
          "velocity": 0.6299212598425197,
          "duration": 0.14814799999999906
        },
        {
          "name": "D5",
          "midi": 74,
          "time": 44.44439999999998,
          "velocity": 0.6299212598425197,
          "duration": 0.14814799999999906
        },
        {
          "name": "E5",
          "midi": 76,
          "time": 44.62958499999998,
          "velocity": 0.6299212598425197,
          "duration": 0.14814799999999906
        },
        {
          "name": "C#5",
          "midi": 73,
          "time": 44.62958499999998,
          "velocity": 0.6299212598425197,
          "duration": 0.14814799999999906
        },
        {
          "name": "C#5",
          "midi": 73,
          "time": 44.814769999999974,
          "velocity": 0.6299212598425197,
          "duration": 0.14814799999999906
        },
        {
          "name": "A4",
          "midi": 69,
          "time": 44.814769999999974,
          "velocity": 0.6299212598425197,
          "duration": 0.14814799999999906
        },
        {
          "name": "D5",
          "midi": 74,
          "time": 44.99995499999997,
          "velocity": 0.6299212598425197,
          "duration": 0.14814799999999906
        },
        {
          "name": "B4",
          "midi": 71,
          "time": 44.99995499999997,
          "velocity": 0.6299212598425197,
          "duration": 0.14814799999999906
        },
        {
          "name": "F#4",
          "midi": 66,
          "time": 45.18513999999997,
          "velocity": 0.6299212598425197,
          "duration": 0.14814799999999906
        },
        {
          "name": "B4",
          "midi": 71,
          "time": 45.18513999999997,
          "velocity": 0.6299212598425197,
          "duration": 0.14814799999999906
        },
        {
          "name": "C#5",
          "midi": 73,
          "time": 45.370324999999966,
          "velocity": 0.6299212598425197,
          "duration": 0.14814799999999906
        },
        {
          "name": "A4",
          "midi": 69,
          "time": 45.370324999999966,
          "velocity": 0.6299212598425197,
          "duration": 0.14814799999999906
        },
        {
          "name": "A4",
          "midi": 69,
          "time": 45.55550999999996,
          "velocity": 0.6299212598425197,
          "duration": 0.14814799999999906
        },
        {
          "name": "E4",
          "midi": 64,
          "time": 45.55550999999996,
          "velocity": 0.6299212598425197,
          "duration": 0.14814799999999906
        },
        {
          "name": "B4",
          "midi": 71,
          "time": 45.74069499999996,
          "velocity": 0.6299212598425197,
          "duration": 0.3333330000000032
        },
        {
          "name": "F#4",
          "midi": 66,
          "time": 45.74069499999996,
          "velocity": 0.6299212598425197,
          "duration": 0.3333330000000032
        },
        {
          "name": "F#4",
          "midi": 66,
          "time": 46.11106499999996,
          "velocity": 0.6299212598425197,
          "duration": 0.07407400000000308
        },
        {
          "name": "D4",
          "midi": 62,
          "time": 46.11106499999996,
          "velocity": 0.6299212598425197,
          "duration": 0.07407400000000308
        },
        {
          "name": "B4",
          "midi": 71,
          "time": 46.20365749999996,
          "velocity": 0.6299212598425197,
          "duration": 0.07407400000000308
        },
        {
          "name": "F#4",
          "midi": 66,
          "time": 46.20365749999996,
          "velocity": 0.6299212598425197,
          "duration": 0.07407400000000308
        },
        {
          "name": "B4",
          "midi": 71,
          "time": 46.296249999999965,
          "velocity": 0.6299212598425197,
          "duration": 0.14814799999999906
        },
        {
          "name": "D5",
          "midi": 74,
          "time": 46.296249999999965,
          "velocity": 0.6299212598425197,
          "duration": 0.14814799999999906
        },
        {
          "name": "D4",
          "midi": 62,
          "time": 46.48143499999996,
          "velocity": 0.6299212598425197,
          "duration": 0.07407400000000308
        },
        {
          "name": "F#4",
          "midi": 66,
          "time": 46.48143499999996,
          "velocity": 0.6299212598425197,
          "duration": 0.07407400000000308
        },
        {
          "name": "F#4",
          "midi": 66,
          "time": 46.574027499999964,
          "velocity": 0.6299212598425197,
          "duration": 0.07407400000000308
        },
        {
          "name": "B4",
          "midi": 71,
          "time": 46.574027499999964,
          "velocity": 0.6299212598425197,
          "duration": 0.07407400000000308
        },
        {
          "name": "C#5",
          "midi": 73,
          "time": 46.666619999999966,
          "velocity": 0.6299212598425197,
          "duration": 0.14814799999999906
        },
        {
          "name": "E5",
          "midi": 76,
          "time": 46.666619999999966,
          "velocity": 0.6299212598425197,
          "duration": 0.14814799999999906
        },
        {
          "name": "D5",
          "midi": 74,
          "time": 46.85180499999996,
          "velocity": 0.6299212598425197,
          "duration": 0.14814799999999906
        },
        {
          "name": "B4",
          "midi": 71,
          "time": 46.85180499999996,
          "velocity": 0.6299212598425197,
          "duration": 0.14814799999999906
        },
        {
          "name": "C#5",
          "midi": 73,
          "time": 47.03698999999996,
          "velocity": 0.6299212598425197,
          "duration": 0.14814799999999906
        },
        {
          "name": "E5",
          "midi": 76,
          "time": 47.03698999999996,
          "velocity": 0.6299212598425197,
          "duration": 0.14814799999999906
        },
        {
          "name": "F#5",
          "midi": 78,
          "time": 47.22217499999996,
          "velocity": 0.6299212598425197,
          "duration": 0.5447525416666679
        },
        {
          "name": "D5",
          "midi": 74,
          "time": 47.22217499999996,
          "velocity": 0.6299212598425197,
          "duration": 0.5447525416666679
        },
        {
          "name": "G5",
          "midi": 79,
          "time": 47.777729999999956,
          "velocity": 0.6299212598425197,
          "duration": 0.14814799999999906
        },
        {
          "name": "E5",
          "midi": 76,
          "time": 47.777729999999956,
          "velocity": 0.6299212598425197,
          "duration": 0.14814799999999906
        },
        {
          "name": "D5",
          "midi": 74,
          "time": 47.96291499999995,
          "velocity": 0.6299212598425197,
          "duration": 2.111108999999999
        },
        {
          "name": "F#5",
          "midi": 78,
          "time": 47.96291499999995,
          "velocity": 0.6299212598425197,
          "duration": 2.111108999999999
        },
        {
          "name": "B4",
          "midi": 71,
          "time": 50.37031999999995,
          "velocity": 0.6299212598425197,
          "duration": 0.14814799999999906
        },
        {
          "name": "D5",
          "midi": 74,
          "time": 50.37031999999995,
          "velocity": 0.6299212598425197,
          "duration": 0.14814799999999906
        },
        {
          "name": "F#4",
          "midi": 66,
          "time": 50.55550499999995,
          "velocity": 0.6299212598425197,
          "duration": 0.14814799999999906
        },
        {
          "name": "B4",
          "midi": 71,
          "time": 50.55550499999995,
          "velocity": 0.6299212598425197,
          "duration": 0.14814799999999906
        },
        {
          "name": "B4",
          "midi": 71,
          "time": 50.92587499999995,
          "velocity": 0.6299212598425197,
          "duration": 0.07407400000000308
        },
        {
          "name": "F#4",
          "midi": 66,
          "time": 50.92587499999995,
          "velocity": 0.6299212598425197,
          "duration": 0.07407400000000308
        },
        {
          "name": "A4",
          "midi": 69,
          "time": 51.01846749999995,
          "velocity": 0.6299212598425197,
          "duration": 0.07407400000000308
        },
        {
          "name": "C#5",
          "midi": 73,
          "time": 51.01846749999995,
          "velocity": 0.6299212598425197,
          "duration": 0.07407400000000308
        },
        {
          "name": "B4",
          "midi": 71,
          "time": 51.11105999999995,
          "velocity": 0.6299212598425197,
          "duration": 0.17438254166666667
        },
        {
          "name": "D5",
          "midi": 74,
          "time": 51.11105999999995,
          "velocity": 0.6299212598425197,
          "duration": 0.17438254166666667
        },
        {
          "name": "B4",
          "midi": 71,
          "time": 51.29624499999995,
          "velocity": 0.6299212598425197,
          "duration": 0.07407400000000308
        },
        {
          "name": "F#4",
          "midi": 66,
          "time": 51.29624499999995,
          "velocity": 0.6299212598425197,
          "duration": 0.07407400000000308
        },
        {
          "name": "A4",
          "midi": 69,
          "time": 51.38883749999995,
          "velocity": 0.6299212598425197,
          "duration": 0.07407400000000308
        },
        {
          "name": "C#5",
          "midi": 73,
          "time": 51.38883749999995,
          "velocity": 0.6299212598425197,
          "duration": 0.07407400000000308
        },
        {
          "name": "D5",
          "midi": 74,
          "time": 51.48142999999995,
          "velocity": 0.6299212598425197,
          "duration": 0.14814799999999906
        },
        {
          "name": "B4",
          "midi": 71,
          "time": 51.48142999999995,
          "velocity": 0.6299212598425197,
          "duration": 0.14814799999999906
        },
        {
          "name": "C#5",
          "midi": 73,
          "time": 51.66661499999995,
          "velocity": 0.6299212598425197,
          "duration": 0.14814799999999906
        },
        {
          "name": "E5",
          "midi": 76,
          "time": 51.66661499999995,
          "velocity": 0.6299212598425197,
          "duration": 0.14814799999999906
        },
        {
          "name": "D5",
          "midi": 74,
          "time": 51.85179999999995,
          "velocity": 0.6299212598425197,
          "duration": 0.14814799999999906
        },
        {
          "name": "F#5",
          "midi": 78,
          "time": 51.85179999999995,
          "velocity": 0.6299212598425197,
          "duration": 0.14814799999999906
        },
        {
          "name": "E5",
          "midi": 76,
          "time": 52.036984999999945,
          "velocity": 0.6299212598425197,
          "duration": 0.14814799999999906
        },
        {
          "name": "G5",
          "midi": 79,
          "time": 52.036984999999945,
          "velocity": 0.6299212598425197,
          "duration": 0.14814799999999906
        },
        {
          "name": "D5",
          "midi": 74,
          "time": 52.22216999999994,
          "velocity": 0.6299212598425197,
          "duration": 0.14814799999999906
        },
        {
          "name": "F#5",
          "midi": 78,
          "time": 52.22216999999994,
          "velocity": 0.6299212598425197,
          "duration": 0.14814799999999906
        },
        {
          "name": "C#5",
          "midi": 73,
          "time": 52.40735499999994,
          "velocity": 0.6299212598425197,
          "duration": 0.2962959999999981
        },
        {
          "name": "E5",
          "midi": 76,
          "time": 52.40735499999994,
          "velocity": 0.6299212598425197,
          "duration": 0.2962959999999981
        },
        {
          "name": "B4",
          "midi": 71,
          "time": 52.77772499999994,
          "velocity": 0.6299212598425197,
          "duration": 0.2962959999999981
        },
        {
          "name": "D5",
          "midi": 74,
          "time": 52.77772499999994,
          "velocity": 0.6299212598425197,
          "duration": 0.2962959999999981
        },
        {
          "name": "C#5",
          "midi": 73,
          "time": 53.14809499999994,
          "velocity": 0.6299212598425197,
          "duration": 0.6296290000000013
        },
        {
          "name": "A4",
          "midi": 69,
          "time": 53.14809499999994,
          "velocity": 0.6299212598425197,
          "duration": 0.6296290000000013
        },
        {
          "name": "D5",
          "midi": 74,
          "time": 53.88883499999994,
          "velocity": 0.6299212598425197,
          "duration": 0.14814799999999906
        },
        {
          "name": "B4",
          "midi": 71,
          "time": 53.88883499999994,
          "velocity": 0.6299212598425197,
          "duration": 0.14814799999999906
        },
        {
          "name": "B4",
          "midi": 71,
          "time": 54.07401999999994,
          "velocity": 0.6299212598425197,
          "duration": 0.5925920000000033
        },
        {
          "name": "G4",
          "midi": 67,
          "time": 54.07401999999994,
          "velocity": 0.6299212598425197,
          "duration": 0.5925920000000033
        },
        {
          "name": "B4",
          "midi": 71,
          "time": 54.81475999999994,
          "velocity": 0.6299212598425197,
          "duration": 0.07407400000000308
        },
        {
          "name": "G4",
          "midi": 67,
          "time": 54.81475999999994,
          "velocity": 0.6299212598425197,
          "duration": 0.07407400000000308
        },
        {
          "name": "F#4",
          "midi": 66,
          "time": 54.907352499999945,
          "velocity": 0.6299212598425197,
          "duration": 0.07407400000000308
        },
        {
          "name": "A4",
          "midi": 69,
          "time": 54.907352499999945,
          "velocity": 0.6299212598425197,
          "duration": 0.07407400000000308
        },
        {
          "name": "G4",
          "midi": 67,
          "time": 54.99994499999995,
          "velocity": 0.6299212598425197,
          "duration": 0.07407400000000308
        },
        {
          "name": "B4",
          "midi": 71,
          "time": 54.99994499999995,
          "velocity": 0.6299212598425197,
          "duration": 0.07407400000000308
        },
        {
          "name": "C#5",
          "midi": 73,
          "time": 55.09253749999995,
          "velocity": 0.6299212598425197,
          "duration": 0.07407400000000308
        },
        {
          "name": "A4",
          "midi": 69,
          "time": 55.09253749999995,
          "velocity": 0.6299212598425197,
          "duration": 0.07407400000000308
        },
        {
          "name": "B4",
          "midi": 71,
          "time": 55.18512999999995,
          "velocity": 0.6299212598425197,
          "duration": 0.07407400000000308
        },
        {
          "name": "D5",
          "midi": 74,
          "time": 55.18512999999995,
          "velocity": 0.6299212598425197,
          "duration": 0.07407400000000308
        },
        {
          "name": "C#5",
          "midi": 73,
          "time": 55.27772249999995,
          "velocity": 0.6299212598425197,
          "duration": 0.07407400000000308
        },
        {
          "name": "A4",
          "midi": 69,
          "time": 55.27772249999995,
          "velocity": 0.6299212598425197,
          "duration": 0.07407400000000308
        },
        {
          "name": "B4",
          "midi": 71,
          "time": 55.370314999999955,
          "velocity": 0.6299212598425197,
          "duration": 0.07407400000000308
        },
        {
          "name": "D5",
          "midi": 74,
          "time": 55.370314999999955,
          "velocity": 0.6299212598425197,
          "duration": 0.07407400000000308
        },
        {
          "name": "E5",
          "midi": 76,
          "time": 55.46290749999996,
          "velocity": 0.6299212598425197,
          "duration": 0.07407400000000308
        },
        {
          "name": "C#5",
          "midi": 73,
          "time": 55.46290749999996,
          "velocity": 0.6299212598425197,
          "duration": 0.07407400000000308
        },
        {
          "name": "F#5",
          "midi": 78,
          "time": 55.55549999999996,
          "velocity": 0.6299212598425197,
          "duration": 0.07407400000000308
        },
        {
          "name": "D5",
          "midi": 74,
          "time": 55.55549999999996,
          "velocity": 0.6299212598425197,
          "duration": 0.07407400000000308
        },
        {
          "name": "E5",
          "midi": 76,
          "time": 55.64809249999996,
          "velocity": 0.6299212598425197,
          "duration": 0.07407400000000308
        },
        {
          "name": "C#5",
          "midi": 73,
          "time": 55.64809249999996,
          "velocity": 0.6299212598425197,
          "duration": 0.07407400000000308
        },
        {
          "name": "D5",
          "midi": 74,
          "time": 55.740684999999964,
          "velocity": 0.6299212598425197,
          "duration": 0.07407400000000308
        },
        {
          "name": "F#5",
          "midi": 78,
          "time": 55.740684999999964,
          "velocity": 0.6299212598425197,
          "duration": 0.07407400000000308
        },
        {
          "name": "G5",
          "midi": 79,
          "time": 55.833277499999966,
          "velocity": 0.6299212598425197,
          "duration": 0.07407400000000308
        },
        {
          "name": "E5",
          "midi": 76,
          "time": 55.833277499999966,
          "velocity": 0.6299212598425197,
          "duration": 0.07407400000000308
        },
        {
          "name": "F#5",
          "midi": 78,
          "time": 55.92586999999997,
          "velocity": 0.6299212598425197,
          "duration": 0.07407400000000308
        },
        {
          "name": "A5",
          "midi": 81,
          "time": 55.92586999999997,
          "velocity": 0.6299212598425197,
          "duration": 0.07407400000000308
        },
        {
          "name": "G5",
          "midi": 79,
          "time": 56.01846249999997,
          "velocity": 0.6299212598425197,
          "duration": 0.07407400000000308
        },
        {
          "name": "E5",
          "midi": 76,
          "time": 56.01846249999997,
          "velocity": 0.6299212598425197,
          "duration": 0.07407400000000308
        },
        {
          "name": "F#5",
          "midi": 78,
          "time": 56.11105499999997,
          "velocity": 0.6299212598425197,
          "duration": 0.07407400000000308
        },
        {
          "name": "D5",
          "midi": 74,
          "time": 56.11105499999997,
          "velocity": 0.6299212598425197,
          "duration": 0.07407400000000308
        },
        {
          "name": "E5",
          "midi": 76,
          "time": 56.203647499999974,
          "velocity": 0.6299212598425197,
          "duration": 0.07407400000000308
        },
        {
          "name": "C#5",
          "midi": 73,
          "time": 56.203647499999974,
          "velocity": 0.6299212598425197,
          "duration": 0.07407400000000308
        },
        {
          "name": "B4",
          "midi": 71,
          "time": 70.92585499999998,
          "velocity": 0.6299212598425197,
          "duration": 1.0740729999999985
        },
        {
          "name": "C#5",
          "midi": 73,
          "time": 72.03696499999998,
          "velocity": 0.6299212598425197,
          "duration": 0.14814800000000616
        },
        {
          "name": "D5",
          "midi": 74,
          "time": 72.22214999999998,
          "velocity": 0.6299212598425197,
          "duration": 0.14814800000000616
        },
        {
          "name": "C#5",
          "midi": 73,
          "time": 72.40733499999999,
          "velocity": 0.6299212598425197,
          "duration": 0.5185180000000003
        },
        {
          "name": "E5",
          "midi": 76,
          "time": 72.96288999999999,
          "velocity": 0.6299212598425197,
          "duration": 0.14814800000000616
        },
        {
          "name": "D5",
          "midi": 74,
          "time": 73.14807499999999,
          "velocity": 0.6299212598425197,
          "duration": 0.34722187500000246
        },
        {
          "name": "C#5",
          "midi": 73,
          "time": 73.518445,
          "velocity": 0.6299212598425197,
          "duration": 0.14814800000000616
        },
        {
          "name": "D5",
          "midi": 74,
          "time": 73.70363,
          "velocity": 0.6299212598425197,
          "duration": 0.14814800000000616
        },
        {
          "name": "B4",
          "midi": 71,
          "time": 73.88881500000001,
          "velocity": 0.6299212598425197,
          "duration": 1.2222210000000047
        },
        {
          "name": "F#5",
          "midi": 78,
          "time": 75.18511000000001,
          "velocity": 0.6299212598425197,
          "duration": 0.14814800000000616
        },
        {
          "name": "E5",
          "midi": 76,
          "time": 75.37029500000001,
          "velocity": 0.6299212598425197,
          "duration": 0.5185180000000003
        },
        {
          "name": "D5",
          "midi": 74,
          "time": 75.92585000000001,
          "velocity": 0.6299212598425197,
          "duration": 0.14814800000000616
        },
        {
          "name": "C#5",
          "midi": 73,
          "time": 76.11103500000002,
          "velocity": 0.6299212598425197,
          "duration": 0.2962959999999981
        },
        {
          "name": "B4",
          "midi": 71,
          "time": 76.48140500000001,
          "velocity": 0.6299212598425197,
          "duration": 0.14814800000000616
        },
        {
          "name": "A4",
          "midi": 69,
          "time": 76.66659000000001,
          "velocity": 0.6299212598425197,
          "duration": 0.14814800000000616
        },
        {
          "name": "C#5",
          "midi": 73,
          "time": 76.85177500000002,
          "velocity": 0.6299212598425197,
          "duration": 0.14814800000000616
        },
        {
          "name": "B4",
          "midi": 71,
          "time": 77.03696000000002,
          "velocity": 0.6299212598425197,
          "duration": 0.915122541666662
        },
        {
          "name": "C#5",
          "midi": 73,
          "time": 77.96288500000001,
          "velocity": 0.6299212598425197,
          "duration": 0.14814800000000616
        },
        {
          "name": "D5",
          "midi": 74,
          "time": 78.14807000000002,
          "velocity": 0.6299212598425197,
          "duration": 0.14814800000000616
        },
        {
          "name": "C#5",
          "midi": 73,
          "time": 78.33325500000002,
          "velocity": 0.6299212598425197,
          "duration": 0.5185180000000003
        },
        {
          "name": "E5",
          "midi": 76,
          "time": 78.88881000000002,
          "velocity": 0.6299212598425197,
          "duration": 0.14814800000000616
        },
        {
          "name": "D5",
          "midi": 74,
          "time": 79.07399500000002,
          "velocity": 0.6299212598425197,
          "duration": 0.4444440000000043
        },
        {
          "name": "F#5",
          "midi": 78,
          "time": 79.62955000000002,
          "velocity": 0.6299212598425197,
          "duration": 0.14814800000000616
        },
        {
          "name": "G5",
          "midi": 79,
          "time": 79.81473500000003,
          "velocity": 0.6299212598425197,
          "duration": 1.2222210000000047
        },
        {
          "name": "D5",
          "midi": 74,
          "time": 81.11103000000003,
          "velocity": 0.6299212598425197,
          "duration": 0.14814800000000616
        },
        {
          "name": "E5",
          "midi": 76,
          "time": 81.29621500000003,
          "velocity": 0.6299212598425197,
          "duration": 0.48148100000000227
        },
        {
          "name": "D5",
          "midi": 74,
          "time": 81.85177000000003,
          "velocity": 0.6299212598425197,
          "duration": 0.14814800000000616
        },
        {
          "name": "C#5",
          "midi": 73,
          "time": 82.03695500000003,
          "velocity": 0.6299212598425197,
          "duration": 0.34722187500000246
        },
        {
          "name": "D5",
          "midi": 74,
          "time": 82.40732500000004,
          "velocity": 0.6299212598425197,
          "duration": 0.14814800000000616
        },
        {
          "name": "C#5",
          "midi": 73,
          "time": 82.59251000000005,
          "velocity": 0.6299212598425197,
          "duration": 0.2962959999999981
        },
        {
          "name": "B4",
          "midi": 71,
          "time": 82.96288000000004,
          "velocity": 0.6299212598425197,
          "duration": 0.4444440000000043
        },
        {
          "name": "F#5",
          "midi": 78,
          "time": 83.42584250000004,
          "velocity": 0.6299212598425197,
          "duration": 0.08796287500000233
        },
        {
          "name": "D5",
          "midi": 74,
          "time": 83.42584250000004,
          "velocity": 0.6299212598425197,
          "duration": 0.08796287500000233
        },
        {
          "name": "E5",
          "midi": 76,
          "time": 83.51843500000005,
          "velocity": 0.6299212598425197,
          "duration": 0.08796287500000233
        },
        {
          "name": "F#5",
          "midi": 78,
          "time": 83.61102750000006,
          "velocity": 0.6299212598425197,
          "duration": 0.08796287500000233
        },
        {
          "name": "E5",
          "midi": 76,
          "time": 83.70362000000007,
          "velocity": 0.6299212598425197,
          "duration": 0.5925919999999962
        },
        {
          "name": "D5",
          "midi": 74,
          "time": 84.44436000000007,
          "velocity": 0.6299212598425197,
          "duration": 0.2962959999999981
        },
        {
          "name": "F#4",
          "midi": 66,
          "time": 84.81473000000007,
          "velocity": 0.6299212598425197,
          "duration": 0.2962959999999981
        },
        {
          "name": "E4",
          "midi": 64,
          "time": 85.18510000000006,
          "velocity": 0.6299212598425197,
          "duration": 0.5925919999999962
        },
        {
          "name": "D5",
          "midi": 74,
          "time": 85.92584000000006,
          "velocity": 0.6299212598425197,
          "duration": 0.4444440000000043
        },
        {
          "name": "B4",
          "midi": 71,
          "time": 86.38880250000007,
          "velocity": 0.6299212598425197,
          "duration": 0.07407399999999598
        },
        {
          "name": "C#5",
          "midi": 73,
          "time": 86.48139500000006,
          "velocity": 0.6299212598425197,
          "duration": 0.07407399999999598
        },
        {
          "name": "D5",
          "midi": 74,
          "time": 86.57398750000006,
          "velocity": 0.6299212598425197,
          "duration": 0.07407399999999598
        },
        {
          "name": "C#5",
          "midi": 73,
          "time": 86.66658000000005,
          "velocity": 0.6299212598425197,
          "duration": 0.25925900000000013
        },
        {
          "name": "A4",
          "midi": 69,
          "time": 86.94435750000005,
          "velocity": 0.6299212598425197,
          "duration": 0.2962959999999981
        },
        {
          "name": "B3",
          "midi": 59,
          "time": 87.40732000000006,
          "velocity": 0.6299212598425197,
          "duration": 0.07407399999999598
        },
        {
          "name": "B4",
          "midi": 71,
          "time": 87.40732000000006,
          "velocity": 0.6299212598425197,
          "duration": 0.07407399999999598
        },
        {
          "name": "D4",
          "midi": 62,
          "time": 87.49991250000005,
          "velocity": 0.6299212598425197,
          "duration": 0.07407399999999598
        },
        {
          "name": "D5",
          "midi": 74,
          "time": 87.49991250000005,
          "velocity": 0.6299212598425197,
          "duration": 0.07407399999999598
        },
        {
          "name": "C#5",
          "midi": 73,
          "time": 87.59250500000005,
          "velocity": 0.6299212598425197,
          "duration": 0.07407399999999598
        },
        {
          "name": "C#4",
          "midi": 61,
          "time": 87.59250500000005,
          "velocity": 0.6299212598425197,
          "duration": 0.07407399999999598
        },
        {
          "name": "A4",
          "midi": 69,
          "time": 87.68509750000004,
          "velocity": 0.6299212598425197,
          "duration": 0.07407399999999598
        },
        {
          "name": "A3",
          "midi": 57,
          "time": 87.68509750000004,
          "velocity": 0.6299212598425197,
          "duration": 0.07407399999999598
        },
        {
          "name": "D5",
          "midi": 74,
          "time": 87.77769000000004,
          "velocity": 0.6299212598425197,
          "duration": 0.07407399999999598
        },
        {
          "name": "D4",
          "midi": 62,
          "time": 87.77769000000004,
          "velocity": 0.6299212598425197,
          "duration": 0.07407399999999598
        },
        {
          "name": "A3",
          "midi": 57,
          "time": 87.87028250000003,
          "velocity": 0.6299212598425197,
          "duration": 0.07407399999999598
        },
        {
          "name": "A4",
          "midi": 69,
          "time": 87.87028250000003,
          "velocity": 0.6299212598425197,
          "duration": 0.07407399999999598
        },
        {
          "name": "B4",
          "midi": 71,
          "time": 87.96287500000003,
          "velocity": 0.6299212598425197,
          "duration": 0.07407399999999598
        },
        {
          "name": "B3",
          "midi": 59,
          "time": 87.96287500000003,
          "velocity": 0.6299212598425197,
          "duration": 0.07407399999999598
        },
        {
          "name": "C#5",
          "midi": 73,
          "time": 88.88880000000002,
          "velocity": 0.6299212598425197,
          "duration": 0.4444440000000043
        },
        {
          "name": "A4",
          "midi": 69,
          "time": 89.44435500000002,
          "velocity": 0.6299212598425197,
          "duration": 0.14814800000000616
        },
        {
          "name": "B4",
          "midi": 71,
          "time": 89.62954000000002,
          "velocity": 0.6299212598425197,
          "duration": 1.2592580000000027
        },
        {
          "name": "F#4",
          "midi": 66,
          "time": 90.92583500000002,
          "velocity": 0.6299212598425197,
          "duration": 0.07407399999999598
        },
        {
          "name": "B4",
          "midi": 71,
          "time": 91.01842750000002,
          "velocity": 0.6299212598425197,
          "duration": 0.07407399999999598
        },
        {
          "name": "C#5",
          "midi": 73,
          "time": 91.11102000000001,
          "velocity": 0.6299212598425197,
          "duration": 0.17438254166667377
        },
        {
          "name": "D5",
          "midi": 74,
          "time": 91.29620500000001,
          "velocity": 0.6299212598425197,
          "duration": 0.17438254166665956
        },
        {
          "name": "E5",
          "midi": 76,
          "time": 91.48139,
          "velocity": 0.6299212598425197,
          "duration": 0.17438254166665956
        },
        {
          "name": "C#5",
          "midi": 73,
          "time": 91.666575,
          "velocity": 0.6299212598425197,
          "duration": 0.6296289999999942
        },
        {
          "name": "A4",
          "midi": 69,
          "time": 92.40731499999998,
          "velocity": 0.6299212598425197,
          "duration": 0.14814800000000616
        },
        {
          "name": "B4",
          "midi": 71,
          "time": 92.59249999999999,
          "velocity": 0.6299212598425197,
          "duration": 1.9259239999999949
        },
        {
          "name": "D5",
          "midi": 74,
          "time": 94.81471999999998,
          "velocity": 0.6299212598425197,
          "duration": 0.14814800000000616
        },
        {
          "name": "C#5",
          "midi": 73,
          "time": 94.99990499999998,
          "velocity": 0.6299212598425197,
          "duration": 0.14814800000000616
        },
        {
          "name": "D5",
          "midi": 74,
          "time": 95.18508999999999,
          "velocity": 0.6299212598425197,
          "duration": 0.14814800000000616
        },
        {
          "name": "E5",
          "midi": 76,
          "time": 95.37027499999999,
          "velocity": 0.6299212598425197,
          "duration": 0.14814800000000616
        },
        {
          "name": "F#5",
          "midi": 78,
          "time": 95.55546,
          "velocity": 0.6299212598425197,
          "duration": 0.14814800000000616
        },
        {
          "name": "B4",
          "midi": 71,
          "time": 95.740645,
          "velocity": 0.6299212598425197,
          "duration": 0.14814800000000616
        },
        {
          "name": "F#5",
          "midi": 78,
          "time": 95.92583,
          "velocity": 0.6299212598425197,
          "duration": 0.14814800000000616
        },
        {
          "name": "F#5",
          "midi": 78,
          "time": 96.11101500000001,
          "velocity": 0.6299212598425197,
          "duration": 0.2962959999999981
        },
        {
          "name": "E5",
          "midi": 76,
          "time": 96.41965666666667,
          "velocity": 0.6299212598425197,
          "duration": 0.0987653333333327
        },
        {
          "name": "D5",
          "midi": 74,
          "time": 96.54311333333334,
          "velocity": 0.6299212598425197,
          "duration": 0.0987653333333327
        },
        {
          "name": "E5",
          "midi": 76,
          "time": 96.66657000000001,
          "velocity": 0.6299212598425197,
          "duration": 0.0987653333333327
        },
        {
          "name": "D5",
          "midi": 74,
          "time": 96.79002666666668,
          "velocity": 0.6299212598425197,
          "duration": 0.0987653333333327
        },
        {
          "name": "C#5",
          "midi": 73,
          "time": 96.91348333333335,
          "velocity": 0.6299212598425197,
          "duration": 0.0987653333333327
        },
        {
          "name": "D5",
          "midi": 74,
          "time": 97.03694000000002,
          "velocity": 0.6299212598425197,
          "duration": 0.0987653333333327
        },
        {
          "name": "C#5",
          "midi": 73,
          "time": 97.16039666666668,
          "velocity": 0.6299212598425197,
          "duration": 0.0987653333333327
        },
        {
          "name": "B4",
          "midi": 71,
          "time": 97.28385333333335,
          "velocity": 0.6299212598425197,
          "duration": 0.0987653333333327
        },
        {
          "name": "C#5",
          "midi": 73,
          "time": 97.40731000000002,
          "velocity": 0.6299212598425197,
          "duration": 0.0987653333333327
        },
        {
          "name": "B4",
          "midi": 71,
          "time": 97.5307666666667,
          "velocity": 0.6299212598425197,
          "duration": 0.0987653333333327
        },
        {
          "name": "A4",
          "midi": 69,
          "time": 97.65422333333336,
          "velocity": 0.6299212598425197,
          "duration": 0.0987653333333327
        },
        {
          "name": "B4",
          "midi": 71,
          "time": 97.77768000000003,
          "velocity": 0.6299212598425197,
          "duration": 0.2962959999999981
        },
        {
          "name": "C#5",
          "midi": 73,
          "time": 98.14805000000003,
          "velocity": 0.6299212598425197,
          "duration": 0.2962959999999981
        },
        {
          "name": "D5",
          "midi": 74,
          "time": 98.51842000000002,
          "velocity": 0.6299212598425197,
          "duration": 0.14814800000000616
        },
        {
          "name": "C#5",
          "midi": 73,
          "time": 98.70360500000002,
          "velocity": 0.6299212598425197,
          "duration": 0.14814800000000616
        },
        {
          "name": "D5",
          "midi": 74,
          "time": 98.88879000000003,
          "velocity": 0.6299212598425197,
          "duration": 0.14814800000000616
        },
        {
          "name": "F#5",
          "midi": 78,
          "time": 99.07397500000003,
          "velocity": 0.6299212598425197,
          "duration": 0.07407399999999598
        },
        {
          "name": "E5",
          "midi": 76,
          "time": 99.16656750000003,
          "velocity": 0.6299212598425197,
          "duration": 0.07407399999999598
        },
        {
          "name": "F#5",
          "midi": 78,
          "time": 99.25916000000002,
          "velocity": 0.6299212598425197,
          "duration": 0.17438254166667377
        },
        {
          "name": "B4",
          "midi": 71,
          "time": 99.44434500000003,
          "velocity": 0.6299212598425197,
          "duration": 0.14814800000000616
        },
        {
          "name": "E5",
          "midi": 76,
          "time": 99.62953000000003,
          "velocity": 0.6299212598425197,
          "duration": 0.14814800000000616
        },
        {
          "name": "B4",
          "midi": 71,
          "time": 99.81471500000004,
          "velocity": 0.6299212598425197,
          "duration": 0.14814800000000616
        },
        {
          "name": "D5",
          "midi": 74,
          "time": 99.99990000000004,
          "velocity": 0.6299212598425197,
          "duration": 0.14814800000000616
        },
        {
          "name": "E5",
          "midi": 76,
          "time": 100.18508500000004,
          "velocity": 0.6299212598425197,
          "duration": 0.14814800000000616
        },
        {
          "name": "C#5",
          "midi": 73,
          "time": 100.37027000000005,
          "velocity": 0.6299212598425197,
          "duration": 0.2962959999999981
        },
        {
          "name": "B4",
          "midi": 71,
          "time": 100.74064000000004,
          "velocity": 0.6299212598425197,
          "duration": 0.14814800000000616
        },
        {
          "name": "D5",
          "midi": 74,
          "time": 100.74064000000004,
          "velocity": 0.6299212598425197,
          "duration": 0.14814800000000616
        },
        {
          "name": "E5",
          "midi": 76,
          "time": 100.92582500000005,
          "velocity": 0.6299212598425197,
          "duration": 0.14814800000000616
        },
        {
          "name": "C#5",
          "midi": 73,
          "time": 100.92582500000005,
          "velocity": 0.6299212598425197,
          "duration": 0.14814800000000616
        },
        {
          "name": "C#5",
          "midi": 73,
          "time": 101.11101000000005,
          "velocity": 0.6299212598425197,
          "duration": 0.14814800000000616
        },
        {
          "name": "A4",
          "midi": 69,
          "time": 101.11101000000005,
          "velocity": 0.6299212598425197,
          "duration": 0.14814800000000616
        },
        {
          "name": "B4",
          "midi": 71,
          "time": 101.29619500000005,
          "velocity": 0.6299212598425197,
          "duration": 0.14814800000000616
        },
        {
          "name": "D5",
          "midi": 74,
          "time": 101.29619500000005,
          "velocity": 0.6299212598425197,
          "duration": 0.14814800000000616
        },
        {
          "name": "B4",
          "midi": 71,
          "time": 101.48138000000006,
          "velocity": 0.6299212598425197,
          "duration": 0.14814800000000616
        },
        {
          "name": "F#4",
          "midi": 66,
          "time": 101.48138000000006,
          "velocity": 0.6299212598425197,
          "duration": 0.14814800000000616
        },
        {
          "name": "C#5",
          "midi": 73,
          "time": 101.66656500000006,
          "velocity": 0.6299212598425197,
          "duration": 0.14814800000000616
        },
        {
          "name": "A4",
          "midi": 69,
          "time": 101.66656500000006,
          "velocity": 0.6299212598425197,
          "duration": 0.14814800000000616
        },
        {
          "name": "E4",
          "midi": 64,
          "time": 101.85175000000007,
          "velocity": 0.6299212598425197,
          "duration": 0.14814800000000616
        },
        {
          "name": "A4",
          "midi": 69,
          "time": 101.85175000000007,
          "velocity": 0.6299212598425197,
          "duration": 0.14814800000000616
        },
        {
          "name": "B4",
          "midi": 71,
          "time": 102.03693500000007,
          "velocity": 0.6299212598425197,
          "duration": 0.3333329999999961
        },
        {
          "name": "F#4",
          "midi": 66,
          "time": 102.03693500000007,
          "velocity": 0.6299212598425197,
          "duration": 0.3333329999999961
        },
        {
          "name": "D4",
          "midi": 62,
          "time": 102.40730500000006,
          "velocity": 0.6299212598425197,
          "duration": 0.07407399999999598
        },
        {
          "name": "F#4",
          "midi": 66,
          "time": 102.40730500000006,
          "velocity": 0.6299212598425197,
          "duration": 0.07407399999999598
        },
        {
          "name": "F#4",
          "midi": 66,
          "time": 102.49989750000006,
          "velocity": 0.6299212598425197,
          "duration": 0.07407399999999598
        },
        {
          "name": "B4",
          "midi": 71,
          "time": 102.49989750000006,
          "velocity": 0.6299212598425197,
          "duration": 0.07407399999999598
        },
        {
          "name": "D5",
          "midi": 74,
          "time": 102.59249000000005,
          "velocity": 0.6299212598425197,
          "duration": 0.14814800000000616
        },
        {
          "name": "B4",
          "midi": 71,
          "time": 102.59249000000005,
          "velocity": 0.6299212598425197,
          "duration": 0.14814800000000616
        },
        {
          "name": "F#4",
          "midi": 66,
          "time": 102.77767500000006,
          "velocity": 0.6299212598425197,
          "duration": 0.07407399999999598
        },
        {
          "name": "D4",
          "midi": 62,
          "time": 102.77767500000006,
          "velocity": 0.6299212598425197,
          "duration": 0.07407399999999598
        },
        {
          "name": "B4",
          "midi": 71,
          "time": 102.87026750000005,
          "velocity": 0.6299212598425197,
          "duration": 0.07407399999999598
        },
        {
          "name": "F#4",
          "midi": 66,
          "time": 102.87026750000005,
          "velocity": 0.6299212598425197,
          "duration": 0.07407399999999598
        },
        {
          "name": "C#5",
          "midi": 73,
          "time": 102.96286000000005,
          "velocity": 0.6299212598425197,
          "duration": 0.14814800000000616
        },
        {
          "name": "E5",
          "midi": 76,
          "time": 102.96286000000005,
          "velocity": 0.6299212598425197,
          "duration": 0.14814800000000616
        },
        {
          "name": "B4",
          "midi": 71,
          "time": 103.14804500000005,
          "velocity": 0.6299212598425197,
          "duration": 0.14814800000000616
        },
        {
          "name": "D5",
          "midi": 74,
          "time": 103.14804500000005,
          "velocity": 0.6299212598425197,
          "duration": 0.14814800000000616
        },
        {
          "name": "E5",
          "midi": 76,
          "time": 103.33323000000006,
          "velocity": 0.6299212598425197,
          "duration": 0.14814800000000616
        },
        {
          "name": "C#5",
          "midi": 73,
          "time": 103.33323000000006,
          "velocity": 0.6299212598425197,
          "duration": 0.14814800000000616
        },
        {
          "name": "F#5",
          "midi": 78,
          "time": 103.51841500000006,
          "velocity": 0.6299212598425197,
          "duration": 0.5447525416666679
        },
        {
          "name": "D5",
          "midi": 74,
          "time": 103.51841500000006,
          "velocity": 0.6299212598425197,
          "duration": 0.5447525416666679
        },
        {
          "name": "E5",
          "midi": 76,
          "time": 104.07397000000006,
          "velocity": 0.6299212598425197,
          "duration": 0.14814800000000616
        },
        {
          "name": "G5",
          "midi": 79,
          "time": 104.07397000000006,
          "velocity": 0.6299212598425197,
          "duration": 0.14814800000000616
        },
        {
          "name": "D5",
          "midi": 74,
          "time": 104.25915500000006,
          "velocity": 0.6299212598425197,
          "duration": 2.111108999999999
        },
        {
          "name": "F#5",
          "midi": 78,
          "time": 104.25915500000006,
          "velocity": 0.6299212598425197,
          "duration": 2.111108999999999
        },
        {
          "name": "B4",
          "midi": 71,
          "time": 106.66656000000006,
          "velocity": 0.6299212598425197,
          "duration": 0.14814800000000616
        },
        {
          "name": "D5",
          "midi": 74,
          "time": 106.66656000000006,
          "velocity": 0.6299212598425197,
          "duration": 0.14814800000000616
        },
        {
          "name": "B4",
          "midi": 71,
          "time": 106.85174500000007,
          "velocity": 0.6299212598425197,
          "duration": 0.14814800000000616
        },
        {
          "name": "F#4",
          "midi": 66,
          "time": 106.85174500000007,
          "velocity": 0.6299212598425197,
          "duration": 0.14814800000000616
        },
        {
          "name": "F#4",
          "midi": 66,
          "time": 107.22211500000007,
          "velocity": 0.6299212598425197,
          "duration": 0.07407399999999598
        },
        {
          "name": "B4",
          "midi": 71,
          "time": 107.22211500000007,
          "velocity": 0.6299212598425197,
          "duration": 0.07407399999999598
        },
        {
          "name": "A4",
          "midi": 69,
          "time": 107.31470750000007,
          "velocity": 0.6299212598425197,
          "duration": 0.07407399999999598
        },
        {
          "name": "C#5",
          "midi": 73,
          "time": 107.31470750000007,
          "velocity": 0.6299212598425197,
          "duration": 0.07407399999999598
        },
        {
          "name": "D5",
          "midi": 74,
          "time": 107.40730000000006,
          "velocity": 0.6299212598425197,
          "duration": 0.17438254166667377
        },
        {
          "name": "B4",
          "midi": 71,
          "time": 107.40730000000006,
          "velocity": 0.6299212598425197,
          "duration": 0.17438254166667377
        },
        {
          "name": "B4",
          "midi": 71,
          "time": 107.59248500000007,
          "velocity": 0.6299212598425197,
          "duration": 0.07407399999999598
        },
        {
          "name": "F#4",
          "midi": 66,
          "time": 107.59248500000007,
          "velocity": 0.6299212598425197,
          "duration": 0.07407399999999598
        },
        {
          "name": "C#5",
          "midi": 73,
          "time": 107.68507750000006,
          "velocity": 0.6299212598425197,
          "duration": 0.07407399999999598
        },
        {
          "name": "A4",
          "midi": 69,
          "time": 107.68507750000006,
          "velocity": 0.6299212598425197,
          "duration": 0.07407399999999598
        },
        {
          "name": "B4",
          "midi": 71,
          "time": 107.77767000000006,
          "velocity": 0.6299212598425197,
          "duration": 0.14814800000000616
        },
        {
          "name": "D5",
          "midi": 74,
          "time": 107.77767000000006,
          "velocity": 0.6299212598425197,
          "duration": 0.14814800000000616
        },
        {
          "name": "C#5",
          "midi": 73,
          "time": 107.96285500000006,
          "velocity": 0.6299212598425197,
          "duration": 0.14814800000000616
        },
        {
          "name": "E5",
          "midi": 76,
          "time": 107.96285500000006,
          "velocity": 0.6299212598425197,
          "duration": 0.14814800000000616
        },
        {
          "name": "F#5",
          "midi": 78,
          "time": 108.14804000000007,
          "velocity": 0.6299212598425197,
          "duration": 0.14814800000000616
        },
        {
          "name": "D5",
          "midi": 74,
          "time": 108.14804000000007,
          "velocity": 0.6299212598425197,
          "duration": 0.14814800000000616
        },
        {
          "name": "G5",
          "midi": 79,
          "time": 108.33322500000007,
          "velocity": 0.6299212598425197,
          "duration": 0.14814800000000616
        },
        {
          "name": "E5",
          "midi": 76,
          "time": 108.33322500000007,
          "velocity": 0.6299212598425197,
          "duration": 0.14814800000000616
        },
        {
          "name": "F#5",
          "midi": 78,
          "time": 108.51841000000007,
          "velocity": 0.6299212598425197,
          "duration": 0.14814800000000616
        },
        {
          "name": "D5",
          "midi": 74,
          "time": 108.51841000000007,
          "velocity": 0.6299212598425197,
          "duration": 0.14814800000000616
        },
        {
          "name": "C#5",
          "midi": 73,
          "time": 108.70359500000008,
          "velocity": 0.6299212598425197,
          "duration": 0.2962959999999981
        },
        {
          "name": "E5",
          "midi": 76,
          "time": 108.70359500000008,
          "velocity": 0.6299212598425197,
          "duration": 0.2962959999999981
        },
        {
          "name": "D5",
          "midi": 74,
          "time": 109.07396500000007,
          "velocity": 0.6299212598425197,
          "duration": 0.2962959999999981
        },
        {
          "name": "B4",
          "midi": 71,
          "time": 109.07396500000007,
          "velocity": 0.6299212598425197,
          "duration": 0.2962959999999981
        },
        {
          "name": "C#5",
          "midi": 73,
          "time": 109.44433500000007,
          "velocity": 0.6299212598425197,
          "duration": 0.6296289999999942
        },
        {
          "name": "A4",
          "midi": 69,
          "time": 109.44433500000007,
          "velocity": 0.6299212598425197,
          "duration": 0.6296289999999942
        },
        {
          "name": "B4",
          "midi": 71,
          "time": 110.18507500000005,
          "velocity": 0.6299212598425197,
          "duration": 0.14814800000000616
        },
        {
          "name": "D5",
          "midi": 74,
          "time": 110.18507500000005,
          "velocity": 0.6299212598425197,
          "duration": 0.14814800000000616
        },
        {
          "name": "B4",
          "midi": 71,
          "time": 110.37026000000006,
          "velocity": 0.6299212598425197,
          "duration": 0.5925919999999962
        },
        {
          "name": "G4",
          "midi": 67,
          "time": 110.37026000000006,
          "velocity": 0.6299212598425197,
          "duration": 0.5925919999999962
        },
        {
          "name": "B4",
          "midi": 71,
          "time": 111.11100000000006,
          "velocity": 0.6299212598425197,
          "duration": 0.07407399999999598
        },
        {
          "name": "G4",
          "midi": 67,
          "time": 111.11100000000006,
          "velocity": 0.6299212598425197,
          "duration": 0.07407399999999598
        },
        {
          "name": "F#4",
          "midi": 66,
          "time": 111.20359250000006,
          "velocity": 0.6299212598425197,
          "duration": 0.07407399999999598
        },
        {
          "name": "A4",
          "midi": 69,
          "time": 111.20359250000006,
          "velocity": 0.6299212598425197,
          "duration": 0.07407399999999598
        },
        {
          "name": "G4",
          "midi": 67,
          "time": 111.29618500000005,
          "velocity": 0.6299212598425197,
          "duration": 0.07407399999999598
        },
        {
          "name": "B4",
          "midi": 71,
          "time": 111.29618500000005,
          "velocity": 0.6299212598425197,
          "duration": 0.07407399999999598
        },
        {
          "name": "C#5",
          "midi": 73,
          "time": 111.38877750000005,
          "velocity": 0.6299212598425197,
          "duration": 0.07407399999999598
        },
        {
          "name": "A4",
          "midi": 69,
          "time": 111.38877750000005,
          "velocity": 0.6299212598425197,
          "duration": 0.07407399999999598
        },
        {
          "name": "D5",
          "midi": 74,
          "time": 111.48137000000004,
          "velocity": 0.6299212598425197,
          "duration": 0.07407399999999598
        },
        {
          "name": "B4",
          "midi": 71,
          "time": 111.48137000000004,
          "velocity": 0.6299212598425197,
          "duration": 0.07407399999999598
        },
        {
          "name": "C#5",
          "midi": 73,
          "time": 111.57396250000004,
          "velocity": 0.6299212598425197,
          "duration": 0.07407399999999598
        },
        {
          "name": "A4",
          "midi": 69,
          "time": 111.57396250000004,
          "velocity": 0.6299212598425197,
          "duration": 0.07407399999999598
        },
        {
          "name": "D5",
          "midi": 74,
          "time": 111.66655500000003,
          "velocity": 0.6299212598425197,
          "duration": 0.07407399999999598
        },
        {
          "name": "B4",
          "midi": 71,
          "time": 111.66655500000003,
          "velocity": 0.6299212598425197,
          "duration": 0.07407399999999598
        },
        {
          "name": "C#5",
          "midi": 73,
          "time": 111.75914750000003,
          "velocity": 0.6299212598425197,
          "duration": 0.07407399999999598
        },
        {
          "name": "E5",
          "midi": 76,
          "time": 111.75914750000003,
          "velocity": 0.6299212598425197,
          "duration": 0.07407399999999598
        },
        {
          "name": "F#5",
          "midi": 78,
          "time": 111.85174000000002,
          "velocity": 0.6299212598425197,
          "duration": 0.07407399999999598
        },
        {
          "name": "D5",
          "midi": 74,
          "time": 111.85174000000002,
          "velocity": 0.6299212598425197,
          "duration": 0.07407399999999598
        },
        {
          "name": "C#5",
          "midi": 73,
          "time": 111.94433250000002,
          "velocity": 0.6299212598425197,
          "duration": 0.07407399999999598
        },
        {
          "name": "E5",
          "midi": 76,
          "time": 111.94433250000002,
          "velocity": 0.6299212598425197,
          "duration": 0.07407399999999598
        },
        {
          "name": "D5",
          "midi": 74,
          "time": 112.03692500000001,
          "velocity": 0.6299212598425197,
          "duration": 0.07407399999999598
        },
        {
          "name": "F#5",
          "midi": 78,
          "time": 112.03692500000001,
          "velocity": 0.6299212598425197,
          "duration": 0.07407399999999598
        },
        {
          "name": "G5",
          "midi": 79,
          "time": 112.1295175,
          "velocity": 0.6299212598425197,
          "duration": 0.07407399999999598
        },
        {
          "name": "E5",
          "midi": 76,
          "time": 112.1295175,
          "velocity": 0.6299212598425197,
          "duration": 0.07407399999999598
        },
        {
          "name": "A5",
          "midi": 81,
          "time": 112.22211,
          "velocity": 0.6299212598425197,
          "duration": 0.07407399999999598
        },
        {
          "name": "F#5",
          "midi": 78,
          "time": 112.22211,
          "velocity": 0.6299212598425197,
          "duration": 0.07407399999999598
        },
        {
          "name": "G5",
          "midi": 79,
          "time": 112.3147025,
          "velocity": 0.6299212598425197,
          "duration": 0.07407399999999598
        },
        {
          "name": "E5",
          "midi": 76,
          "time": 112.3147025,
          "velocity": 0.6299212598425197,
          "duration": 0.07407399999999598
        },
        {
          "name": "D5",
          "midi": 74,
          "time": 112.40729499999999,
          "velocity": 0.6299212598425197,
          "duration": 0.07407399999999598
        },
        {
          "name": "F#5",
          "midi": 78,
          "time": 112.40729499999999,
          "velocity": 0.6299212598425197,
          "duration": 0.07407399999999598
        },
        {
          "name": "C#5",
          "midi": 73,
          "time": 112.49988749999999,
          "velocity": 0.6299212598425197,
          "duration": 0.07407399999999598
        },
        {
          "name": "E5",
          "midi": 76,
          "time": 112.49988749999999,
          "velocity": 0.6299212598425197,
          "duration": 0.07407399999999598
        }
      ],
      "controlChanges": {
        "7": [
          {
            "number": 7,
            "time": 0,
            "value": 1
          }
        ]
      },
      "id": 7,
      "instrumentNumber": 58,
      "instrument": "tuba",
      "instrumentFamily": "brass",
      "channelNumber": 6,
      "isPercussion": false
    },
    {
      "startTime": 14.629615000000001,
      "duration": 112.57396150000001,
      "length": 386,
      "notes": [
        {
          "name": "B4",
          "midi": 71,
          "time": 14.629615000000001,
          "velocity": 0.6299212598425197,
          "duration": 1.0740730000000003
        },
        {
          "name": "C#5",
          "midi": 73,
          "time": 15.740725000000001,
          "velocity": 0.6299212598425197,
          "duration": 0.14814800000000083
        },
        {
          "name": "D5",
          "midi": 74,
          "time": 15.925910000000002,
          "velocity": 0.6299212598425197,
          "duration": 0.14814799999999906
        },
        {
          "name": "C#5",
          "midi": 73,
          "time": 16.111095000000002,
          "velocity": 0.6299212598425197,
          "duration": 0.5185180000000003
        },
        {
          "name": "E5",
          "midi": 76,
          "time": 16.666650000000004,
          "velocity": 0.6299212598425197,
          "duration": 0.14814799999999906
        },
        {
          "name": "D5",
          "midi": 74,
          "time": 16.851835000000005,
          "velocity": 0.6299212598425197,
          "duration": 0.3472218749999989
        },
        {
          "name": "C#5",
          "midi": 73,
          "time": 17.222205000000002,
          "velocity": 0.6299212598425197,
          "duration": 0.14814799999999906
        },
        {
          "name": "D5",
          "midi": 74,
          "time": 17.407390000000003,
          "velocity": 0.6299212598425197,
          "duration": 0.14814799999999906
        },
        {
          "name": "B4",
          "midi": 71,
          "time": 17.592575000000004,
          "velocity": 0.6299212598425197,
          "duration": 1.2222210000000011
        },
        {
          "name": "F#5",
          "midi": 78,
          "time": 18.888870000000004,
          "velocity": 0.6299212598425197,
          "duration": 0.14814799999999906
        },
        {
          "name": "E5",
          "midi": 76,
          "time": 19.074055000000005,
          "velocity": 0.6299212598425197,
          "duration": 0.5185180000000003
        },
        {
          "name": "D5",
          "midi": 74,
          "time": 19.629610000000007,
          "velocity": 0.6299212598425197,
          "duration": 0.14814799999999906
        },
        {
          "name": "C#5",
          "midi": 73,
          "time": 19.814795000000007,
          "velocity": 0.6299212598425197,
          "duration": 0.29629600000000167
        },
        {
          "name": "B4",
          "midi": 71,
          "time": 20.18516500000001,
          "velocity": 0.6299212598425197,
          "duration": 0.14814799999999906
        },
        {
          "name": "A4",
          "midi": 69,
          "time": 20.37035000000001,
          "velocity": 0.6299212598425197,
          "duration": 0.14814799999999906
        },
        {
          "name": "C#5",
          "midi": 73,
          "time": 20.55553500000001,
          "velocity": 0.6299212598425197,
          "duration": 0.14814799999999906
        },
        {
          "name": "B4",
          "midi": 71,
          "time": 20.74072000000001,
          "velocity": 0.6299212598425197,
          "duration": 0.9151225416666655
        },
        {
          "name": "C#5",
          "midi": 73,
          "time": 21.66664500000001,
          "velocity": 0.6299212598425197,
          "duration": 0.14814799999999906
        },
        {
          "name": "D5",
          "midi": 74,
          "time": 21.85183000000001,
          "velocity": 0.6299212598425197,
          "duration": 0.14814799999999906
        },
        {
          "name": "C#5",
          "midi": 73,
          "time": 22.03701500000001,
          "velocity": 0.6299212598425197,
          "duration": 0.5185180000000003
        },
        {
          "name": "E5",
          "midi": 76,
          "time": 22.592570000000013,
          "velocity": 0.6299212598425197,
          "duration": 0.14814799999999906
        },
        {
          "name": "D5",
          "midi": 74,
          "time": 22.777755000000013,
          "velocity": 0.6299212598425197,
          "duration": 0.4444440000000007
        },
        {
          "name": "F#5",
          "midi": 78,
          "time": 23.333310000000015,
          "velocity": 0.6299212598425197,
          "duration": 0.14814799999999906
        },
        {
          "name": "G5",
          "midi": 79,
          "time": 23.518495000000016,
          "velocity": 0.6299212598425197,
          "duration": 1.2222210000000011
        },
        {
          "name": "D5",
          "midi": 74,
          "time": 24.814790000000016,
          "velocity": 0.6299212598425197,
          "duration": 0.14814799999999906
        },
        {
          "name": "E5",
          "midi": 76,
          "time": 24.999975000000017,
          "velocity": 0.6299212598425197,
          "duration": 0.4814809999999987
        },
        {
          "name": "D5",
          "midi": 74,
          "time": 25.555530000000015,
          "velocity": 0.6299212598425197,
          "duration": 0.14814799999999906
        },
        {
          "name": "C#5",
          "midi": 73,
          "time": 25.740715000000016,
          "velocity": 0.6299212598425197,
          "duration": 0.3472218749999989
        },
        {
          "name": "D5",
          "midi": 74,
          "time": 26.111085000000013,
          "velocity": 0.6299212598425197,
          "duration": 0.14814799999999906
        },
        {
          "name": "C#5",
          "midi": 73,
          "time": 26.296270000000014,
          "velocity": 0.6299212598425197,
          "duration": 0.29629600000000167
        },
        {
          "name": "B4",
          "midi": 71,
          "time": 26.666640000000015,
          "velocity": 0.6299212598425197,
          "duration": 0.4444440000000007
        },
        {
          "name": "F#5",
          "midi": 78,
          "time": 27.129602500000015,
          "velocity": 0.6299212598425197,
          "duration": 0.08796287499999877
        },
        {
          "name": "D5",
          "midi": 74,
          "time": 27.129602500000015,
          "velocity": 0.6299212598425197,
          "duration": 0.08796287499999877
        },
        {
          "name": "E5",
          "midi": 76,
          "time": 27.222195000000013,
          "velocity": 0.6299212598425197,
          "duration": 0.08796287499999877
        },
        {
          "name": "F#5",
          "midi": 78,
          "time": 27.314787500000012,
          "velocity": 0.6299212598425197,
          "duration": 0.08796287499999877
        },
        {
          "name": "E5",
          "midi": 76,
          "time": 27.40738000000001,
          "velocity": 0.6299212598425197,
          "duration": 0.5925919999999998
        },
        {
          "name": "D5",
          "midi": 74,
          "time": 28.14812000000001,
          "velocity": 0.6299212598425197,
          "duration": 0.29629600000000167
        },
        {
          "name": "F#4",
          "midi": 66,
          "time": 28.51849000000001,
          "velocity": 0.6299212598425197,
          "duration": 0.29629600000000167
        },
        {
          "name": "E4",
          "midi": 64,
          "time": 28.88886000000001,
          "velocity": 0.6299212598425197,
          "duration": 0.5925919999999998
        },
        {
          "name": "D5",
          "midi": 74,
          "time": 29.62960000000001,
          "velocity": 0.6299212598425197,
          "duration": 0.4444440000000007
        },
        {
          "name": "B4",
          "midi": 71,
          "time": 30.09256250000001,
          "velocity": 0.6299212598425197,
          "duration": 0.07407399999999953
        },
        {
          "name": "C#5",
          "midi": 73,
          "time": 30.18515500000001,
          "velocity": 0.6299212598425197,
          "duration": 0.07407399999999953
        },
        {
          "name": "D5",
          "midi": 74,
          "time": 30.277747500000007,
          "velocity": 0.6299212598425197,
          "duration": 0.07407399999999953
        },
        {
          "name": "C#5",
          "midi": 73,
          "time": 30.370340000000006,
          "velocity": 0.6299212598425197,
          "duration": 0.25925900000000013
        },
        {
          "name": "A4",
          "midi": 69,
          "time": 30.648117500000005,
          "velocity": 0.6299212598425197,
          "duration": 0.29629600000000167
        },
        {
          "name": "C#5",
          "midi": 73,
          "time": 32.592560000000006,
          "velocity": 0.6299212598425197,
          "duration": 0.4444439999999972
        },
        {
          "name": "A4",
          "midi": 69,
          "time": 33.148115000000004,
          "velocity": 0.6299212598425197,
          "duration": 0.14814799999999906
        },
        {
          "name": "B4",
          "midi": 71,
          "time": 33.3333,
          "velocity": 0.6299212598425197,
          "duration": 1.2592580000000027
        },
        {
          "name": "F#4",
          "midi": 66,
          "time": 34.629595,
          "velocity": 0.6299212598425197,
          "duration": 0.07407400000000308
        },
        {
          "name": "B4",
          "midi": 71,
          "time": 34.722187500000004,
          "velocity": 0.6299212598425197,
          "duration": 0.07407400000000308
        },
        {
          "name": "C#5",
          "midi": 73,
          "time": 34.814780000000006,
          "velocity": 0.6299212598425197,
          "duration": 0.17438254166666667
        },
        {
          "name": "D5",
          "midi": 74,
          "time": 34.999965,
          "velocity": 0.6299212598425197,
          "duration": 0.17438254166666667
        },
        {
          "name": "E5",
          "midi": 76,
          "time": 35.18515,
          "velocity": 0.6299212598425197,
          "duration": 0.17438254166666667
        },
        {
          "name": "C#5",
          "midi": 73,
          "time": 35.370335,
          "velocity": 0.6299212598425197,
          "duration": 0.6296290000000013
        },
        {
          "name": "A4",
          "midi": 69,
          "time": 36.111075,
          "velocity": 0.6299212598425197,
          "duration": 0.14814799999999906
        },
        {
          "name": "B4",
          "midi": 71,
          "time": 36.29626,
          "velocity": 0.6299212598425197,
          "duration": 1.925924000000002
        },
        {
          "name": "D5",
          "midi": 74,
          "time": 38.51848,
          "velocity": 0.6299212598425197,
          "duration": 0.14814799999999906
        },
        {
          "name": "C#5",
          "midi": 73,
          "time": 38.703664999999994,
          "velocity": 0.6299212598425197,
          "duration": 0.14814799999999906
        },
        {
          "name": "D5",
          "midi": 74,
          "time": 38.88884999999999,
          "velocity": 0.6299212598425197,
          "duration": 0.14814799999999906
        },
        {
          "name": "E5",
          "midi": 76,
          "time": 39.07403499999999,
          "velocity": 0.6299212598425197,
          "duration": 0.14814799999999906
        },
        {
          "name": "F#5",
          "midi": 78,
          "time": 39.259219999999985,
          "velocity": 0.6299212598425197,
          "duration": 0.14814799999999906
        },
        {
          "name": "B4",
          "midi": 71,
          "time": 39.44440499999998,
          "velocity": 0.6299212598425197,
          "duration": 0.14814799999999906
        },
        {
          "name": "F#5",
          "midi": 78,
          "time": 39.62958999999998,
          "velocity": 0.6299212598425197,
          "duration": 0.14814799999999906
        },
        {
          "name": "F#5",
          "midi": 78,
          "time": 39.814774999999976,
          "velocity": 0.6299212598425197,
          "duration": 0.2962959999999981
        },
        {
          "name": "E5",
          "midi": 76,
          "time": 40.12341666666664,
          "velocity": 0.6299212598425197,
          "duration": 0.0987653333333327
        },
        {
          "name": "D5",
          "midi": 74,
          "time": 40.24687333333331,
          "velocity": 0.6299212598425197,
          "duration": 0.0987653333333327
        },
        {
          "name": "E5",
          "midi": 76,
          "time": 40.37032999999998,
          "velocity": 0.6299212598425197,
          "duration": 0.0987653333333327
        },
        {
          "name": "D5",
          "midi": 74,
          "time": 40.49378666666665,
          "velocity": 0.6299212598425197,
          "duration": 0.0987653333333327
        },
        {
          "name": "C#5",
          "midi": 73,
          "time": 40.61724333333332,
          "velocity": 0.6299212598425197,
          "duration": 0.0987653333333327
        },
        {
          "name": "D5",
          "midi": 74,
          "time": 40.74069999999999,
          "velocity": 0.6299212598425197,
          "duration": 0.0987653333333327
        },
        {
          "name": "C#5",
          "midi": 73,
          "time": 40.86415666666666,
          "velocity": 0.6299212598425197,
          "duration": 0.0987653333333327
        },
        {
          "name": "B4",
          "midi": 71,
          "time": 40.98761333333333,
          "velocity": 0.6299212598425197,
          "duration": 0.0987653333333327
        },
        {
          "name": "C#5",
          "midi": 73,
          "time": 41.11107,
          "velocity": 0.6299212598425197,
          "duration": 0.0987653333333327
        },
        {
          "name": "B4",
          "midi": 71,
          "time": 41.23452666666667,
          "velocity": 0.6299212598425197,
          "duration": 0.0987653333333327
        },
        {
          "name": "A4",
          "midi": 69,
          "time": 41.35798333333334,
          "velocity": 0.6299212598425197,
          "duration": 0.0987653333333327
        },
        {
          "name": "B4",
          "midi": 71,
          "time": 41.481440000000006,
          "velocity": 0.6299212598425197,
          "duration": 0.2962959999999981
        },
        {
          "name": "C#5",
          "midi": 73,
          "time": 41.85181000000001,
          "velocity": 0.6299212598425197,
          "duration": 0.2962959999999981
        },
        {
          "name": "D5",
          "midi": 74,
          "time": 42.22218000000001,
          "velocity": 0.6299212598425197,
          "duration": 0.14814799999999906
        },
        {
          "name": "C#5",
          "midi": 73,
          "time": 42.407365000000006,
          "velocity": 0.6299212598425197,
          "duration": 0.14814799999999906
        },
        {
          "name": "D5",
          "midi": 74,
          "time": 42.59255,
          "velocity": 0.6299212598425197,
          "duration": 0.14814799999999906
        },
        {
          "name": "F#5",
          "midi": 78,
          "time": 42.777735,
          "velocity": 0.6299212598425197,
          "duration": 0.07407400000000308
        },
        {
          "name": "E5",
          "midi": 76,
          "time": 42.8703275,
          "velocity": 0.6299212598425197,
          "duration": 0.07407400000000308
        },
        {
          "name": "F#5",
          "midi": 78,
          "time": 42.962920000000004,
          "velocity": 0.6299212598425197,
          "duration": 0.17438254166666667
        },
        {
          "name": "B4",
          "midi": 71,
          "time": 43.148105,
          "velocity": 0.6299212598425197,
          "duration": 0.14814799999999906
        },
        {
          "name": "E5",
          "midi": 76,
          "time": 43.33329,
          "velocity": 0.6299212598425197,
          "duration": 0.14814799999999906
        },
        {
          "name": "B4",
          "midi": 71,
          "time": 43.518474999999995,
          "velocity": 0.6299212598425197,
          "duration": 0.14814799999999906
        },
        {
          "name": "D5",
          "midi": 74,
          "time": 43.70365999999999,
          "velocity": 0.6299212598425197,
          "duration": 0.14814799999999906
        },
        {
          "name": "E5",
          "midi": 76,
          "time": 43.88884499999999,
          "velocity": 0.6299212598425197,
          "duration": 0.14814799999999906
        },
        {
          "name": "C#5",
          "midi": 73,
          "time": 44.074029999999986,
          "velocity": 0.6299212598425197,
          "duration": 0.2962959999999981
        },
        {
          "name": "D5",
          "midi": 74,
          "time": 44.44439999999999,
          "velocity": 0.6299212598425197,
          "duration": 0.14814799999999906
        },
        {
          "name": "B4",
          "midi": 71,
          "time": 44.44439999999999,
          "velocity": 0.6299212598425197,
          "duration": 0.14814799999999906
        },
        {
          "name": "C#5",
          "midi": 73,
          "time": 44.629584999999985,
          "velocity": 0.6299212598425197,
          "duration": 0.14814799999999906
        },
        {
          "name": "E5",
          "midi": 76,
          "time": 44.629584999999985,
          "velocity": 0.6299212598425197,
          "duration": 0.14814799999999906
        },
        {
          "name": "C#5",
          "midi": 73,
          "time": 44.81476999999998,
          "velocity": 0.6299212598425197,
          "duration": 0.14814799999999906
        },
        {
          "name": "A4",
          "midi": 69,
          "time": 44.81476999999998,
          "velocity": 0.6299212598425197,
          "duration": 0.14814799999999906
        },
        {
          "name": "D5",
          "midi": 74,
          "time": 44.99995499999998,
          "velocity": 0.6299212598425197,
          "duration": 0.14814799999999906
        },
        {
          "name": "B4",
          "midi": 71,
          "time": 44.99995499999998,
          "velocity": 0.6299212598425197,
          "duration": 0.14814799999999906
        },
        {
          "name": "F#4",
          "midi": 66,
          "time": 45.185139999999976,
          "velocity": 0.6299212598425197,
          "duration": 0.14814799999999906
        },
        {
          "name": "B4",
          "midi": 71,
          "time": 45.185139999999976,
          "velocity": 0.6299212598425197,
          "duration": 0.14814799999999906
        },
        {
          "name": "A4",
          "midi": 69,
          "time": 45.37032499999997,
          "velocity": 0.6299212598425197,
          "duration": 0.14814799999999906
        },
        {
          "name": "C#5",
          "midi": 73,
          "time": 45.37032499999997,
          "velocity": 0.6299212598425197,
          "duration": 0.14814799999999906
        },
        {
          "name": "E4",
          "midi": 64,
          "time": 45.55550999999997,
          "velocity": 0.6299212598425197,
          "duration": 0.14814799999999906
        },
        {
          "name": "A4",
          "midi": 69,
          "time": 45.55550999999997,
          "velocity": 0.6299212598425197,
          "duration": 0.14814799999999906
        },
        {
          "name": "F#4",
          "midi": 66,
          "time": 45.74069499999997,
          "velocity": 0.6299212598425197,
          "duration": 0.3333330000000032
        },
        {
          "name": "B4",
          "midi": 71,
          "time": 45.74069499999997,
          "velocity": 0.6299212598425197,
          "duration": 0.3333330000000032
        },
        {
          "name": "D4",
          "midi": 62,
          "time": 46.11106499999997,
          "velocity": 0.6299212598425197,
          "duration": 0.07407400000000308
        },
        {
          "name": "F#4",
          "midi": 66,
          "time": 46.11106499999997,
          "velocity": 0.6299212598425197,
          "duration": 0.07407400000000308
        },
        {
          "name": "B4",
          "midi": 71,
          "time": 46.20365749999997,
          "velocity": 0.6299212598425197,
          "duration": 0.07407400000000308
        },
        {
          "name": "F#4",
          "midi": 66,
          "time": 46.20365749999997,
          "velocity": 0.6299212598425197,
          "duration": 0.07407400000000308
        },
        {
          "name": "D5",
          "midi": 74,
          "time": 46.29624999999997,
          "velocity": 0.6299212598425197,
          "duration": 0.14814799999999906
        },
        {
          "name": "B4",
          "midi": 71,
          "time": 46.29624999999997,
          "velocity": 0.6299212598425197,
          "duration": 0.14814799999999906
        },
        {
          "name": "D4",
          "midi": 62,
          "time": 46.48143499999997,
          "velocity": 0.6299212598425197,
          "duration": 0.07407400000000308
        },
        {
          "name": "F#4",
          "midi": 66,
          "time": 46.48143499999997,
          "velocity": 0.6299212598425197,
          "duration": 0.07407400000000308
        },
        {
          "name": "F#4",
          "midi": 66,
          "time": 46.57402749999997,
          "velocity": 0.6299212598425197,
          "duration": 0.07407400000000308
        },
        {
          "name": "B4",
          "midi": 71,
          "time": 46.57402749999997,
          "velocity": 0.6299212598425197,
          "duration": 0.07407400000000308
        },
        {
          "name": "E5",
          "midi": 76,
          "time": 46.66661999999997,
          "velocity": 0.6299212598425197,
          "duration": 0.14814799999999906
        },
        {
          "name": "C#5",
          "midi": 73,
          "time": 46.66661999999997,
          "velocity": 0.6299212598425197,
          "duration": 0.14814799999999906
        },
        {
          "name": "D5",
          "midi": 74,
          "time": 46.85180499999997,
          "velocity": 0.6299212598425197,
          "duration": 0.14814799999999906
        },
        {
          "name": "B4",
          "midi": 71,
          "time": 46.85180499999997,
          "velocity": 0.6299212598425197,
          "duration": 0.14814799999999906
        },
        {
          "name": "E5",
          "midi": 76,
          "time": 47.03698999999997,
          "velocity": 0.6299212598425197,
          "duration": 0.14814799999999906
        },
        {
          "name": "C#5",
          "midi": 73,
          "time": 47.03698999999997,
          "velocity": 0.6299212598425197,
          "duration": 0.14814799999999906
        },
        {
          "name": "F#5",
          "midi": 78,
          "time": 47.222174999999964,
          "velocity": 0.6299212598425197,
          "duration": 0.5447525416666679
        },
        {
          "name": "D5",
          "midi": 74,
          "time": 47.222174999999964,
          "velocity": 0.6299212598425197,
          "duration": 0.5447525416666679
        },
        {
          "name": "E5",
          "midi": 76,
          "time": 47.77772999999996,
          "velocity": 0.6299212598425197,
          "duration": 0.14814799999999906
        },
        {
          "name": "G5",
          "midi": 79,
          "time": 47.77772999999996,
          "velocity": 0.6299212598425197,
          "duration": 0.14814799999999906
        },
        {
          "name": "D5",
          "midi": 74,
          "time": 47.96291499999996,
          "velocity": 0.6299212598425197,
          "duration": 2.111108999999999
        },
        {
          "name": "F#5",
          "midi": 78,
          "time": 47.96291499999996,
          "velocity": 0.6299212598425197,
          "duration": 2.111108999999999
        },
        {
          "name": "B4",
          "midi": 71,
          "time": 50.37031999999996,
          "velocity": 0.6299212598425197,
          "duration": 0.14814799999999906
        },
        {
          "name": "D5",
          "midi": 74,
          "time": 50.37031999999996,
          "velocity": 0.6299212598425197,
          "duration": 0.14814799999999906
        },
        {
          "name": "F#4",
          "midi": 66,
          "time": 50.555504999999954,
          "velocity": 0.6299212598425197,
          "duration": 0.14814799999999906
        },
        {
          "name": "B4",
          "midi": 71,
          "time": 50.555504999999954,
          "velocity": 0.6299212598425197,
          "duration": 0.14814799999999906
        },
        {
          "name": "F#4",
          "midi": 66,
          "time": 50.925874999999955,
          "velocity": 0.6299212598425197,
          "duration": 0.07407400000000308
        },
        {
          "name": "B4",
          "midi": 71,
          "time": 50.925874999999955,
          "velocity": 0.6299212598425197,
          "duration": 0.07407400000000308
        },
        {
          "name": "A4",
          "midi": 69,
          "time": 51.01846749999996,
          "velocity": 0.6299212598425197,
          "duration": 0.07407400000000308
        },
        {
          "name": "C#5",
          "midi": 73,
          "time": 51.01846749999996,
          "velocity": 0.6299212598425197,
          "duration": 0.07407400000000308
        },
        {
          "name": "B4",
          "midi": 71,
          "time": 51.11105999999996,
          "velocity": 0.6299212598425197,
          "duration": 0.17438254166666667
        },
        {
          "name": "D5",
          "midi": 74,
          "time": 51.11105999999996,
          "velocity": 0.6299212598425197,
          "duration": 0.17438254166666667
        },
        {
          "name": "B4",
          "midi": 71,
          "time": 51.296244999999956,
          "velocity": 0.6299212598425197,
          "duration": 0.07407400000000308
        },
        {
          "name": "F#4",
          "midi": 66,
          "time": 51.296244999999956,
          "velocity": 0.6299212598425197,
          "duration": 0.07407400000000308
        },
        {
          "name": "A4",
          "midi": 69,
          "time": 51.38883749999996,
          "velocity": 0.6299212598425197,
          "duration": 0.07407400000000308
        },
        {
          "name": "C#5",
          "midi": 73,
          "time": 51.38883749999996,
          "velocity": 0.6299212598425197,
          "duration": 0.07407400000000308
        },
        {
          "name": "D5",
          "midi": 74,
          "time": 51.48142999999996,
          "velocity": 0.6299212598425197,
          "duration": 0.14814799999999906
        },
        {
          "name": "B4",
          "midi": 71,
          "time": 51.48142999999996,
          "velocity": 0.6299212598425197,
          "duration": 0.14814799999999906
        },
        {
          "name": "E5",
          "midi": 76,
          "time": 51.66661499999996,
          "velocity": 0.6299212598425197,
          "duration": 0.14814799999999906
        },
        {
          "name": "C#5",
          "midi": 73,
          "time": 51.66661499999996,
          "velocity": 0.6299212598425197,
          "duration": 0.14814799999999906
        },
        {
          "name": "F#5",
          "midi": 78,
          "time": 51.851799999999955,
          "velocity": 0.6299212598425197,
          "duration": 0.14814799999999906
        },
        {
          "name": "D5",
          "midi": 74,
          "time": 51.851799999999955,
          "velocity": 0.6299212598425197,
          "duration": 0.14814799999999906
        },
        {
          "name": "E5",
          "midi": 76,
          "time": 52.03698499999995,
          "velocity": 0.6299212598425197,
          "duration": 0.14814799999999906
        },
        {
          "name": "G5",
          "midi": 79,
          "time": 52.03698499999995,
          "velocity": 0.6299212598425197,
          "duration": 0.14814799999999906
        },
        {
          "name": "D5",
          "midi": 74,
          "time": 52.22216999999995,
          "velocity": 0.6299212598425197,
          "duration": 0.14814799999999906
        },
        {
          "name": "F#5",
          "midi": 78,
          "time": 52.22216999999995,
          "velocity": 0.6299212598425197,
          "duration": 0.14814799999999906
        },
        {
          "name": "C#5",
          "midi": 73,
          "time": 52.407354999999946,
          "velocity": 0.6299212598425197,
          "duration": 0.2962959999999981
        },
        {
          "name": "E5",
          "midi": 76,
          "time": 52.407354999999946,
          "velocity": 0.6299212598425197,
          "duration": 0.2962959999999981
        },
        {
          "name": "D5",
          "midi": 74,
          "time": 52.77772499999995,
          "velocity": 0.6299212598425197,
          "duration": 0.2962959999999981
        },
        {
          "name": "B4",
          "midi": 71,
          "time": 52.77772499999995,
          "velocity": 0.6299212598425197,
          "duration": 0.2962959999999981
        },
        {
          "name": "A4",
          "midi": 69,
          "time": 53.14809499999995,
          "velocity": 0.6299212598425197,
          "duration": 0.6296290000000013
        },
        {
          "name": "C#5",
          "midi": 73,
          "time": 53.14809499999995,
          "velocity": 0.6299212598425197,
          "duration": 0.6296290000000013
        },
        {
          "name": "D5",
          "midi": 74,
          "time": 53.88883499999995,
          "velocity": 0.6299212598425197,
          "duration": 0.14814799999999906
        },
        {
          "name": "B4",
          "midi": 71,
          "time": 53.88883499999995,
          "velocity": 0.6299212598425197,
          "duration": 0.14814799999999906
        },
        {
          "name": "G4",
          "midi": 67,
          "time": 54.07401999999995,
          "velocity": 0.6299212598425197,
          "duration": 0.5925920000000033
        },
        {
          "name": "B4",
          "midi": 71,
          "time": 54.07401999999995,
          "velocity": 0.6299212598425197,
          "duration": 0.5925920000000033
        },
        {
          "name": "B4",
          "midi": 71,
          "time": 54.81475999999995,
          "velocity": 0.6299212598425197,
          "duration": 0.07407400000000308
        },
        {
          "name": "G4",
          "midi": 67,
          "time": 54.81475999999995,
          "velocity": 0.6299212598425197,
          "duration": 0.07407400000000308
        },
        {
          "name": "F#4",
          "midi": 66,
          "time": 54.90735249999995,
          "velocity": 0.6299212598425197,
          "duration": 0.07407400000000308
        },
        {
          "name": "A4",
          "midi": 69,
          "time": 54.90735249999995,
          "velocity": 0.6299212598425197,
          "duration": 0.07407400000000308
        },
        {
          "name": "B4",
          "midi": 71,
          "time": 54.999944999999954,
          "velocity": 0.6299212598425197,
          "duration": 0.07407400000000308
        },
        {
          "name": "G4",
          "midi": 67,
          "time": 54.999944999999954,
          "velocity": 0.6299212598425197,
          "duration": 0.07407400000000308
        },
        {
          "name": "A4",
          "midi": 69,
          "time": 55.092537499999956,
          "velocity": 0.6299212598425197,
          "duration": 0.07407400000000308
        },
        {
          "name": "C#5",
          "midi": 73,
          "time": 55.092537499999956,
          "velocity": 0.6299212598425197,
          "duration": 0.07407400000000308
        },
        {
          "name": "B4",
          "midi": 71,
          "time": 55.18512999999996,
          "velocity": 0.6299212598425197,
          "duration": 0.07407400000000308
        },
        {
          "name": "D5",
          "midi": 74,
          "time": 55.18512999999996,
          "velocity": 0.6299212598425197,
          "duration": 0.07407400000000308
        },
        {
          "name": "A4",
          "midi": 69,
          "time": 55.27772249999996,
          "velocity": 0.6299212598425197,
          "duration": 0.07407400000000308
        },
        {
          "name": "C#5",
          "midi": 73,
          "time": 55.27772249999996,
          "velocity": 0.6299212598425197,
          "duration": 0.07407400000000308
        },
        {
          "name": "B4",
          "midi": 71,
          "time": 55.37031499999996,
          "velocity": 0.6299212598425197,
          "duration": 0.07407400000000308
        },
        {
          "name": "D5",
          "midi": 74,
          "time": 55.37031499999996,
          "velocity": 0.6299212598425197,
          "duration": 0.07407400000000308
        },
        {
          "name": "E5",
          "midi": 76,
          "time": 55.462907499999965,
          "velocity": 0.6299212598425197,
          "duration": 0.07407400000000308
        },
        {
          "name": "C#5",
          "midi": 73,
          "time": 55.462907499999965,
          "velocity": 0.6299212598425197,
          "duration": 0.07407400000000308
        },
        {
          "name": "D5",
          "midi": 74,
          "time": 55.55549999999997,
          "velocity": 0.6299212598425197,
          "duration": 0.07407400000000308
        },
        {
          "name": "F#5",
          "midi": 78,
          "time": 55.55549999999997,
          "velocity": 0.6299212598425197,
          "duration": 0.07407400000000308
        },
        {
          "name": "C#5",
          "midi": 73,
          "time": 55.64809249999997,
          "velocity": 0.6299212598425197,
          "duration": 0.07407400000000308
        },
        {
          "name": "E5",
          "midi": 76,
          "time": 55.64809249999997,
          "velocity": 0.6299212598425197,
          "duration": 0.07407400000000308
        },
        {
          "name": "F#5",
          "midi": 78,
          "time": 55.74068499999997,
          "velocity": 0.6299212598425197,
          "duration": 0.07407400000000308
        },
        {
          "name": "D5",
          "midi": 74,
          "time": 55.74068499999997,
          "velocity": 0.6299212598425197,
          "duration": 0.07407400000000308
        },
        {
          "name": "E5",
          "midi": 76,
          "time": 55.83327749999997,
          "velocity": 0.6299212598425197,
          "duration": 0.07407400000000308
        },
        {
          "name": "G5",
          "midi": 79,
          "time": 55.83327749999997,
          "velocity": 0.6299212598425197,
          "duration": 0.07407400000000308
        },
        {
          "name": "A5",
          "midi": 81,
          "time": 55.925869999999975,
          "velocity": 0.6299212598425197,
          "duration": 0.07407400000000308
        },
        {
          "name": "F#5",
          "midi": 78,
          "time": 55.925869999999975,
          "velocity": 0.6299212598425197,
          "duration": 0.07407400000000308
        },
        {
          "name": "E5",
          "midi": 76,
          "time": 56.01846249999998,
          "velocity": 0.6299212598425197,
          "duration": 0.07407400000000308
        },
        {
          "name": "G5",
          "midi": 79,
          "time": 56.01846249999998,
          "velocity": 0.6299212598425197,
          "duration": 0.07407400000000308
        },
        {
          "name": "F#5",
          "midi": 78,
          "time": 56.11105499999998,
          "velocity": 0.6299212598425197,
          "duration": 0.07407400000000308
        },
        {
          "name": "D5",
          "midi": 74,
          "time": 56.11105499999998,
          "velocity": 0.6299212598425197,
          "duration": 0.07407400000000308
        },
        {
          "name": "C#5",
          "midi": 73,
          "time": 56.20364749999998,
          "velocity": 0.6299212598425197,
          "duration": 0.07407400000000308
        },
        {
          "name": "E5",
          "midi": 76,
          "time": 56.20364749999998,
          "velocity": 0.6299212598425197,
          "duration": 0.07407400000000308
        },
        {
          "name": "B4",
          "midi": 71,
          "time": 70.92585499999998,
          "velocity": 0.6299212598425197,
          "duration": 1.0740729999999985
        },
        {
          "name": "C#5",
          "midi": 73,
          "time": 72.03696499999998,
          "velocity": 0.6299212598425197,
          "duration": 0.14814800000000616
        },
        {
          "name": "D5",
          "midi": 74,
          "time": 72.22214999999998,
          "velocity": 0.6299212598425197,
          "duration": 0.14814800000000616
        },
        {
          "name": "C#5",
          "midi": 73,
          "time": 72.40733499999999,
          "velocity": 0.6299212598425197,
          "duration": 0.5185180000000003
        },
        {
          "name": "E5",
          "midi": 76,
          "time": 72.96288999999999,
          "velocity": 0.6299212598425197,
          "duration": 0.14814800000000616
        },
        {
          "name": "D5",
          "midi": 74,
          "time": 73.14807499999999,
          "velocity": 0.6299212598425197,
          "duration": 0.34722187500000246
        },
        {
          "name": "C#5",
          "midi": 73,
          "time": 73.518445,
          "velocity": 0.6299212598425197,
          "duration": 0.14814800000000616
        },
        {
          "name": "D5",
          "midi": 74,
          "time": 73.70363,
          "velocity": 0.6299212598425197,
          "duration": 0.14814800000000616
        },
        {
          "name": "B4",
          "midi": 71,
          "time": 73.88881500000001,
          "velocity": 0.6299212598425197,
          "duration": 1.2222210000000047
        },
        {
          "name": "F#5",
          "midi": 78,
          "time": 75.18511000000001,
          "velocity": 0.6299212598425197,
          "duration": 0.14814800000000616
        },
        {
          "name": "E5",
          "midi": 76,
          "time": 75.37029500000001,
          "velocity": 0.6299212598425197,
          "duration": 0.5185180000000003
        },
        {
          "name": "D5",
          "midi": 74,
          "time": 75.92585000000001,
          "velocity": 0.6299212598425197,
          "duration": 0.14814800000000616
        },
        {
          "name": "C#5",
          "midi": 73,
          "time": 76.11103500000002,
          "velocity": 0.6299212598425197,
          "duration": 0.2962959999999981
        },
        {
          "name": "B4",
          "midi": 71,
          "time": 76.48140500000001,
          "velocity": 0.6299212598425197,
          "duration": 0.14814800000000616
        },
        {
          "name": "A4",
          "midi": 69,
          "time": 76.66659000000001,
          "velocity": 0.6299212598425197,
          "duration": 0.14814800000000616
        },
        {
          "name": "C#5",
          "midi": 73,
          "time": 76.85177500000002,
          "velocity": 0.6299212598425197,
          "duration": 0.14814800000000616
        },
        {
          "name": "B4",
          "midi": 71,
          "time": 77.03696000000002,
          "velocity": 0.6299212598425197,
          "duration": 0.915122541666662
        },
        {
          "name": "C#5",
          "midi": 73,
          "time": 77.96288500000001,
          "velocity": 0.6299212598425197,
          "duration": 0.14814800000000616
        },
        {
          "name": "D5",
          "midi": 74,
          "time": 78.14807000000002,
          "velocity": 0.6299212598425197,
          "duration": 0.14814800000000616
        },
        {
          "name": "C#5",
          "midi": 73,
          "time": 78.33325500000002,
          "velocity": 0.6299212598425197,
          "duration": 0.5185180000000003
        },
        {
          "name": "E5",
          "midi": 76,
          "time": 78.88881000000002,
          "velocity": 0.6299212598425197,
          "duration": 0.14814800000000616
        },
        {
          "name": "D5",
          "midi": 74,
          "time": 79.07399500000002,
          "velocity": 0.6299212598425197,
          "duration": 0.4444440000000043
        },
        {
          "name": "F#5",
          "midi": 78,
          "time": 79.62955000000002,
          "velocity": 0.6299212598425197,
          "duration": 0.14814800000000616
        },
        {
          "name": "G5",
          "midi": 79,
          "time": 79.81473500000003,
          "velocity": 0.6299212598425197,
          "duration": 1.2222210000000047
        },
        {
          "name": "D5",
          "midi": 74,
          "time": 81.11103000000003,
          "velocity": 0.6299212598425197,
          "duration": 0.14814800000000616
        },
        {
          "name": "E5",
          "midi": 76,
          "time": 81.29621500000003,
          "velocity": 0.6299212598425197,
          "duration": 0.48148100000000227
        },
        {
          "name": "D5",
          "midi": 74,
          "time": 81.85177000000003,
          "velocity": 0.6299212598425197,
          "duration": 0.14814800000000616
        },
        {
          "name": "C#5",
          "midi": 73,
          "time": 82.03695500000003,
          "velocity": 0.6299212598425197,
          "duration": 0.34722187500000246
        },
        {
          "name": "D5",
          "midi": 74,
          "time": 82.40732500000004,
          "velocity": 0.6299212598425197,
          "duration": 0.14814800000000616
        },
        {
          "name": "C#5",
          "midi": 73,
          "time": 82.59251000000005,
          "velocity": 0.6299212598425197,
          "duration": 0.2962959999999981
        },
        {
          "name": "B4",
          "midi": 71,
          "time": 82.96288000000004,
          "velocity": 0.6299212598425197,
          "duration": 0.4444440000000043
        },
        {
          "name": "F#5",
          "midi": 78,
          "time": 83.42584250000004,
          "velocity": 0.6299212598425197,
          "duration": 0.08796287500000233
        },
        {
          "name": "D5",
          "midi": 74,
          "time": 83.42584250000004,
          "velocity": 0.6299212598425197,
          "duration": 0.08796287500000233
        },
        {
          "name": "E5",
          "midi": 76,
          "time": 83.51843500000005,
          "velocity": 0.6299212598425197,
          "duration": 0.08796287500000233
        },
        {
          "name": "F#5",
          "midi": 78,
          "time": 83.61102750000006,
          "velocity": 0.6299212598425197,
          "duration": 0.08796287500000233
        },
        {
          "name": "E5",
          "midi": 76,
          "time": 83.70362000000007,
          "velocity": 0.6299212598425197,
          "duration": 0.5925919999999962
        },
        {
          "name": "D5",
          "midi": 74,
          "time": 84.44436000000007,
          "velocity": 0.6299212598425197,
          "duration": 0.2962959999999981
        },
        {
          "name": "F#4",
          "midi": 66,
          "time": 84.81473000000007,
          "velocity": 0.6299212598425197,
          "duration": 0.2962959999999981
        },
        {
          "name": "E4",
          "midi": 64,
          "time": 85.18510000000006,
          "velocity": 0.6299212598425197,
          "duration": 0.5925919999999962
        },
        {
          "name": "D5",
          "midi": 74,
          "time": 85.92584000000006,
          "velocity": 0.6299212598425197,
          "duration": 0.4444440000000043
        },
        {
          "name": "B4",
          "midi": 71,
          "time": 86.38880250000007,
          "velocity": 0.6299212598425197,
          "duration": 0.07407399999999598
        },
        {
          "name": "C#5",
          "midi": 73,
          "time": 86.48139500000006,
          "velocity": 0.6299212598425197,
          "duration": 0.07407399999999598
        },
        {
          "name": "D5",
          "midi": 74,
          "time": 86.57398750000006,
          "velocity": 0.6299212598425197,
          "duration": 0.07407399999999598
        },
        {
          "name": "C#5",
          "midi": 73,
          "time": 86.66658000000005,
          "velocity": 0.6299212598425197,
          "duration": 0.25925900000000013
        },
        {
          "name": "A4",
          "midi": 69,
          "time": 86.94435750000005,
          "velocity": 0.6299212598425197,
          "duration": 0.2962959999999981
        },
        {
          "name": "C#5",
          "midi": 73,
          "time": 88.88880000000005,
          "velocity": 0.6299212598425197,
          "duration": 0.4444440000000043
        },
        {
          "name": "A4",
          "midi": 69,
          "time": 89.44435500000004,
          "velocity": 0.6299212598425197,
          "duration": 0.14814800000000616
        },
        {
          "name": "B4",
          "midi": 71,
          "time": 89.62954000000005,
          "velocity": 0.6299212598425197,
          "duration": 1.2592580000000027
        },
        {
          "name": "F#4",
          "midi": 66,
          "time": 90.92583500000005,
          "velocity": 0.6299212598425197,
          "duration": 0.07407399999999598
        },
        {
          "name": "B4",
          "midi": 71,
          "time": 91.01842750000004,
          "velocity": 0.6299212598425197,
          "duration": 0.07407399999999598
        },
        {
          "name": "C#5",
          "midi": 73,
          "time": 91.11102000000004,
          "velocity": 0.6299212598425197,
          "duration": 0.17438254166667377
        },
        {
          "name": "D5",
          "midi": 74,
          "time": 91.29620500000004,
          "velocity": 0.6299212598425197,
          "duration": 0.17438254166665956
        },
        {
          "name": "E5",
          "midi": 76,
          "time": 91.48139000000003,
          "velocity": 0.6299212598425197,
          "duration": 0.17438254166665956
        },
        {
          "name": "C#5",
          "midi": 73,
          "time": 91.66657500000002,
          "velocity": 0.6299212598425197,
          "duration": 0.6296289999999942
        },
        {
          "name": "A4",
          "midi": 69,
          "time": 92.40731500000001,
          "velocity": 0.6299212598425197,
          "duration": 0.14814800000000616
        },
        {
          "name": "B4",
          "midi": 71,
          "time": 92.59250000000002,
          "velocity": 0.6299212598425197,
          "duration": 1.9259239999999949
        },
        {
          "name": "D5",
          "midi": 74,
          "time": 94.81472000000001,
          "velocity": 0.6299212598425197,
          "duration": 0.14814800000000616
        },
        {
          "name": "C#5",
          "midi": 73,
          "time": 94.99990500000001,
          "velocity": 0.6299212598425197,
          "duration": 0.14814800000000616
        },
        {
          "name": "D5",
          "midi": 74,
          "time": 95.18509000000002,
          "velocity": 0.6299212598425197,
          "duration": 0.14814800000000616
        },
        {
          "name": "E5",
          "midi": 76,
          "time": 95.37027500000002,
          "velocity": 0.6299212598425197,
          "duration": 0.14814800000000616
        },
        {
          "name": "F#5",
          "midi": 78,
          "time": 95.55546000000002,
          "velocity": 0.6299212598425197,
          "duration": 0.14814800000000616
        },
        {
          "name": "B4",
          "midi": 71,
          "time": 95.74064500000003,
          "velocity": 0.6299212598425197,
          "duration": 0.14814800000000616
        },
        {
          "name": "F#5",
          "midi": 78,
          "time": 95.92583000000003,
          "velocity": 0.6299212598425197,
          "duration": 0.14814800000000616
        },
        {
          "name": "F#5",
          "midi": 78,
          "time": 96.11101500000004,
          "velocity": 0.6299212598425197,
          "duration": 0.2962959999999981
        },
        {
          "name": "E5",
          "midi": 76,
          "time": 96.4196566666667,
          "velocity": 0.6299212598425197,
          "duration": 0.0987653333333327
        },
        {
          "name": "D5",
          "midi": 74,
          "time": 96.54311333333337,
          "velocity": 0.6299212598425197,
          "duration": 0.0987653333333327
        },
        {
          "name": "E5",
          "midi": 76,
          "time": 96.66657000000004,
          "velocity": 0.6299212598425197,
          "duration": 0.0987653333333327
        },
        {
          "name": "D5",
          "midi": 74,
          "time": 96.7900266666667,
          "velocity": 0.6299212598425197,
          "duration": 0.0987653333333327
        },
        {
          "name": "C#5",
          "midi": 73,
          "time": 96.91348333333337,
          "velocity": 0.6299212598425197,
          "duration": 0.0987653333333327
        },
        {
          "name": "D5",
          "midi": 74,
          "time": 97.03694000000004,
          "velocity": 0.6299212598425197,
          "duration": 0.0987653333333327
        },
        {
          "name": "C#5",
          "midi": 73,
          "time": 97.16039666666671,
          "velocity": 0.6299212598425197,
          "duration": 0.0987653333333327
        },
        {
          "name": "B4",
          "midi": 71,
          "time": 97.28385333333338,
          "velocity": 0.6299212598425197,
          "duration": 0.0987653333333327
        },
        {
          "name": "C#5",
          "midi": 73,
          "time": 97.40731000000005,
          "velocity": 0.6299212598425197,
          "duration": 0.0987653333333327
        },
        {
          "name": "B4",
          "midi": 71,
          "time": 97.53076666666672,
          "velocity": 0.6299212598425197,
          "duration": 0.0987653333333327
        },
        {
          "name": "A4",
          "midi": 69,
          "time": 97.65422333333339,
          "velocity": 0.6299212598425197,
          "duration": 0.0987653333333327
        },
        {
          "name": "B4",
          "midi": 71,
          "time": 97.77768000000006,
          "velocity": 0.6299212598425197,
          "duration": 0.2962959999999981
        },
        {
          "name": "C#5",
          "midi": 73,
          "time": 98.14805000000005,
          "velocity": 0.6299212598425197,
          "duration": 0.2962959999999981
        },
        {
          "name": "D5",
          "midi": 74,
          "time": 98.51842000000005,
          "velocity": 0.6299212598425197,
          "duration": 0.14814800000000616
        },
        {
          "name": "C#5",
          "midi": 73,
          "time": 98.70360500000005,
          "velocity": 0.6299212598425197,
          "duration": 0.14814800000000616
        },
        {
          "name": "D5",
          "midi": 74,
          "time": 98.88879000000006,
          "velocity": 0.6299212598425197,
          "duration": 0.14814800000000616
        },
        {
          "name": "F#5",
          "midi": 78,
          "time": 99.07397500000006,
          "velocity": 0.6299212598425197,
          "duration": 0.07407399999999598
        },
        {
          "name": "E5",
          "midi": 76,
          "time": 99.16656750000006,
          "velocity": 0.6299212598425197,
          "duration": 0.07407399999999598
        },
        {
          "name": "F#5",
          "midi": 78,
          "time": 99.25916000000005,
          "velocity": 0.6299212598425197,
          "duration": 0.17438254166667377
        },
        {
          "name": "B4",
          "midi": 71,
          "time": 99.44434500000006,
          "velocity": 0.6299212598425197,
          "duration": 0.14814800000000616
        },
        {
          "name": "E5",
          "midi": 76,
          "time": 99.62953000000006,
          "velocity": 0.6299212598425197,
          "duration": 0.14814800000000616
        },
        {
          "name": "B4",
          "midi": 71,
          "time": 99.81471500000006,
          "velocity": 0.6299212598425197,
          "duration": 0.14814800000000616
        },
        {
          "name": "D5",
          "midi": 74,
          "time": 99.99990000000007,
          "velocity": 0.6299212598425197,
          "duration": 0.14814800000000616
        },
        {
          "name": "E5",
          "midi": 76,
          "time": 100.18508500000007,
          "velocity": 0.6299212598425197,
          "duration": 0.14814800000000616
        },
        {
          "name": "C#5",
          "midi": 73,
          "time": 100.37027000000008,
          "velocity": 0.6299212598425197,
          "duration": 0.2962959999999981
        },
        {
          "name": "D5",
          "midi": 74,
          "time": 100.74064000000007,
          "velocity": 0.6299212598425197,
          "duration": 0.14814800000000616
        },
        {
          "name": "B4",
          "midi": 71,
          "time": 100.74064000000007,
          "velocity": 0.6299212598425197,
          "duration": 0.14814800000000616
        },
        {
          "name": "C#5",
          "midi": 73,
          "time": 100.92582500000007,
          "velocity": 0.6299212598425197,
          "duration": 0.14814800000000616
        },
        {
          "name": "E5",
          "midi": 76,
          "time": 100.92582500000007,
          "velocity": 0.6299212598425197,
          "duration": 0.14814800000000616
        },
        {
          "name": "C#5",
          "midi": 73,
          "time": 101.11101000000008,
          "velocity": 0.6299212598425197,
          "duration": 0.14814800000000616
        },
        {
          "name": "A4",
          "midi": 69,
          "time": 101.11101000000008,
          "velocity": 0.6299212598425197,
          "duration": 0.14814800000000616
        },
        {
          "name": "B4",
          "midi": 71,
          "time": 101.29619500000008,
          "velocity": 0.6299212598425197,
          "duration": 0.14814800000000616
        },
        {
          "name": "D5",
          "midi": 74,
          "time": 101.29619500000008,
          "velocity": 0.6299212598425197,
          "duration": 0.14814800000000616
        },
        {
          "name": "B4",
          "midi": 71,
          "time": 101.48138000000009,
          "velocity": 0.6299212598425197,
          "duration": 0.14814800000000616
        },
        {
          "name": "F#4",
          "midi": 66,
          "time": 101.48138000000009,
          "velocity": 0.6299212598425197,
          "duration": 0.14814800000000616
        },
        {
          "name": "C#5",
          "midi": 73,
          "time": 101.66656500000009,
          "velocity": 0.6299212598425197,
          "duration": 0.14814800000000616
        },
        {
          "name": "A4",
          "midi": 69,
          "time": 101.66656500000009,
          "velocity": 0.6299212598425197,
          "duration": 0.14814800000000616
        },
        {
          "name": "E4",
          "midi": 64,
          "time": 101.8517500000001,
          "velocity": 0.6299212598425197,
          "duration": 0.14814800000000616
        },
        {
          "name": "A4",
          "midi": 69,
          "time": 101.8517500000001,
          "velocity": 0.6299212598425197,
          "duration": 0.14814800000000616
        },
        {
          "name": "B4",
          "midi": 71,
          "time": 102.0369350000001,
          "velocity": 0.6299212598425197,
          "duration": 0.3333329999999961
        },
        {
          "name": "F#4",
          "midi": 66,
          "time": 102.0369350000001,
          "velocity": 0.6299212598425197,
          "duration": 0.3333329999999961
        },
        {
          "name": "F#4",
          "midi": 66,
          "time": 102.4073050000001,
          "velocity": 0.6299212598425197,
          "duration": 0.07407399999999598
        },
        {
          "name": "D4",
          "midi": 62,
          "time": 102.4073050000001,
          "velocity": 0.6299212598425197,
          "duration": 0.07407399999999598
        },
        {
          "name": "B4",
          "midi": 71,
          "time": 102.49989750000009,
          "velocity": 0.6299212598425197,
          "duration": 0.07407399999999598
        },
        {
          "name": "F#4",
          "midi": 66,
          "time": 102.49989750000009,
          "velocity": 0.6299212598425197,
          "duration": 0.07407399999999598
        },
        {
          "name": "B4",
          "midi": 71,
          "time": 102.59249000000008,
          "velocity": 0.6299212598425197,
          "duration": 0.14814800000000616
        },
        {
          "name": "D5",
          "midi": 74,
          "time": 102.59249000000008,
          "velocity": 0.6299212598425197,
          "duration": 0.14814800000000616
        },
        {
          "name": "D4",
          "midi": 62,
          "time": 102.77767500000009,
          "velocity": 0.6299212598425197,
          "duration": 0.07407399999999598
        },
        {
          "name": "F#4",
          "midi": 66,
          "time": 102.77767500000009,
          "velocity": 0.6299212598425197,
          "duration": 0.07407399999999598
        },
        {
          "name": "F#4",
          "midi": 66,
          "time": 102.87026750000008,
          "velocity": 0.6299212598425197,
          "duration": 0.07407399999999598
        },
        {
          "name": "B4",
          "midi": 71,
          "time": 102.87026750000008,
          "velocity": 0.6299212598425197,
          "duration": 0.07407399999999598
        },
        {
          "name": "C#5",
          "midi": 73,
          "time": 102.96286000000008,
          "velocity": 0.6299212598425197,
          "duration": 0.14814800000000616
        },
        {
          "name": "E5",
          "midi": 76,
          "time": 102.96286000000008,
          "velocity": 0.6299212598425197,
          "duration": 0.14814800000000616
        },
        {
          "name": "D5",
          "midi": 74,
          "time": 103.14804500000008,
          "velocity": 0.6299212598425197,
          "duration": 0.14814800000000616
        },
        {
          "name": "B4",
          "midi": 71,
          "time": 103.14804500000008,
          "velocity": 0.6299212598425197,
          "duration": 0.14814800000000616
        },
        {
          "name": "E5",
          "midi": 76,
          "time": 103.33323000000009,
          "velocity": 0.6299212598425197,
          "duration": 0.14814800000000616
        },
        {
          "name": "C#5",
          "midi": 73,
          "time": 103.33323000000009,
          "velocity": 0.6299212598425197,
          "duration": 0.14814800000000616
        },
        {
          "name": "F#5",
          "midi": 78,
          "time": 103.51841500000009,
          "velocity": 0.6299212598425197,
          "duration": 0.5447525416666679
        },
        {
          "name": "D5",
          "midi": 74,
          "time": 103.51841500000009,
          "velocity": 0.6299212598425197,
          "duration": 0.5447525416666679
        },
        {
          "name": "E5",
          "midi": 76,
          "time": 104.07397000000009,
          "velocity": 0.6299212598425197,
          "duration": 0.14814800000000616
        },
        {
          "name": "G5",
          "midi": 79,
          "time": 104.07397000000009,
          "velocity": 0.6299212598425197,
          "duration": 0.14814800000000616
        },
        {
          "name": "F#5",
          "midi": 78,
          "time": 104.25915500000009,
          "velocity": 0.6299212598425197,
          "duration": 2.111108999999999
        },
        {
          "name": "D5",
          "midi": 74,
          "time": 104.25915500000009,
          "velocity": 0.6299212598425197,
          "duration": 2.111108999999999
        },
        {
          "name": "B4",
          "midi": 71,
          "time": 106.66656000000009,
          "velocity": 0.6299212598425197,
          "duration": 0.14814800000000616
        },
        {
          "name": "D5",
          "midi": 74,
          "time": 106.66656000000009,
          "velocity": 0.6299212598425197,
          "duration": 0.14814800000000616
        },
        {
          "name": "B4",
          "midi": 71,
          "time": 106.8517450000001,
          "velocity": 0.6299212598425197,
          "duration": 0.14814800000000616
        },
        {
          "name": "F#4",
          "midi": 66,
          "time": 106.8517450000001,
          "velocity": 0.6299212598425197,
          "duration": 0.14814800000000616
        },
        {
          "name": "F#4",
          "midi": 66,
          "time": 107.2221150000001,
          "velocity": 0.6299212598425197,
          "duration": 0.07407399999999598
        },
        {
          "name": "B4",
          "midi": 71,
          "time": 107.2221150000001,
          "velocity": 0.6299212598425197,
          "duration": 0.07407399999999598
        },
        {
          "name": "A4",
          "midi": 69,
          "time": 107.3147075000001,
          "velocity": 0.6299212598425197,
          "duration": 0.07407399999999598
        },
        {
          "name": "C#5",
          "midi": 73,
          "time": 107.3147075000001,
          "velocity": 0.6299212598425197,
          "duration": 0.07407399999999598
        },
        {
          "name": "B4",
          "midi": 71,
          "time": 107.40730000000009,
          "velocity": 0.6299212598425197,
          "duration": 0.17438254166667377
        },
        {
          "name": "D5",
          "midi": 74,
          "time": 107.40730000000009,
          "velocity": 0.6299212598425197,
          "duration": 0.17438254166667377
        },
        {
          "name": "F#4",
          "midi": 66,
          "time": 107.5924850000001,
          "velocity": 0.6299212598425197,
          "duration": 0.07407399999999598
        },
        {
          "name": "B4",
          "midi": 71,
          "time": 107.5924850000001,
          "velocity": 0.6299212598425197,
          "duration": 0.07407399999999598
        },
        {
          "name": "A4",
          "midi": 69,
          "time": 107.68507750000009,
          "velocity": 0.6299212598425197,
          "duration": 0.07407399999999598
        },
        {
          "name": "C#5",
          "midi": 73,
          "time": 107.68507750000009,
          "velocity": 0.6299212598425197,
          "duration": 0.07407399999999598
        },
        {
          "name": "B4",
          "midi": 71,
          "time": 107.77767000000009,
          "velocity": 0.6299212598425197,
          "duration": 0.14814800000000616
        },
        {
          "name": "D5",
          "midi": 74,
          "time": 107.77767000000009,
          "velocity": 0.6299212598425197,
          "duration": 0.14814800000000616
        },
        {
          "name": "E5",
          "midi": 76,
          "time": 107.96285500000009,
          "velocity": 0.6299212598425197,
          "duration": 0.14814800000000616
        },
        {
          "name": "C#5",
          "midi": 73,
          "time": 107.96285500000009,
          "velocity": 0.6299212598425197,
          "duration": 0.14814800000000616
        },
        {
          "name": "D5",
          "midi": 74,
          "time": 108.1480400000001,
          "velocity": 0.6299212598425197,
          "duration": 0.14814800000000616
        },
        {
          "name": "F#5",
          "midi": 78,
          "time": 108.1480400000001,
          "velocity": 0.6299212598425197,
          "duration": 0.14814800000000616
        },
        {
          "name": "E5",
          "midi": 76,
          "time": 108.3332250000001,
          "velocity": 0.6299212598425197,
          "duration": 0.14814800000000616
        },
        {
          "name": "G5",
          "midi": 79,
          "time": 108.3332250000001,
          "velocity": 0.6299212598425197,
          "duration": 0.14814800000000616
        },
        {
          "name": "F#5",
          "midi": 78,
          "time": 108.5184100000001,
          "velocity": 0.6299212598425197,
          "duration": 0.14814800000000616
        },
        {
          "name": "D5",
          "midi": 74,
          "time": 108.5184100000001,
          "velocity": 0.6299212598425197,
          "duration": 0.14814800000000616
        },
        {
          "name": "C#5",
          "midi": 73,
          "time": 108.7035950000001,
          "velocity": 0.6299212598425197,
          "duration": 0.2962959999999981
        },
        {
          "name": "E5",
          "midi": 76,
          "time": 108.7035950000001,
          "velocity": 0.6299212598425197,
          "duration": 0.2962959999999981
        },
        {
          "name": "D5",
          "midi": 74,
          "time": 109.0739650000001,
          "velocity": 0.6299212598425197,
          "duration": 0.2962959999999981
        },
        {
          "name": "B4",
          "midi": 71,
          "time": 109.0739650000001,
          "velocity": 0.6299212598425197,
          "duration": 0.2962959999999981
        },
        {
          "name": "C#5",
          "midi": 73,
          "time": 109.4443350000001,
          "velocity": 0.6299212598425197,
          "duration": 0.6296289999999942
        },
        {
          "name": "A4",
          "midi": 69,
          "time": 109.4443350000001,
          "velocity": 0.6299212598425197,
          "duration": 0.6296289999999942
        },
        {
          "name": "D5",
          "midi": 74,
          "time": 110.18507500000008,
          "velocity": 0.6299212598425197,
          "duration": 0.14814800000000616
        },
        {
          "name": "B4",
          "midi": 71,
          "time": 110.18507500000008,
          "velocity": 0.6299212598425197,
          "duration": 0.14814800000000616
        },
        {
          "name": "B4",
          "midi": 71,
          "time": 110.37026000000009,
          "velocity": 0.6299212598425197,
          "duration": 0.5925919999999962
        },
        {
          "name": "G4",
          "midi": 67,
          "time": 110.37026000000009,
          "velocity": 0.6299212598425197,
          "duration": 0.5925919999999962
        },
        {
          "name": "B4",
          "midi": 71,
          "time": 111.11100000000009,
          "velocity": 0.6299212598425197,
          "duration": 0.07407399999999598
        },
        {
          "name": "G4",
          "midi": 67,
          "time": 111.11100000000009,
          "velocity": 0.6299212598425197,
          "duration": 0.07407399999999598
        },
        {
          "name": "A4",
          "midi": 69,
          "time": 111.20359250000008,
          "velocity": 0.6299212598425197,
          "duration": 0.07407399999999598
        },
        {
          "name": "F#4",
          "midi": 66,
          "time": 111.20359250000008,
          "velocity": 0.6299212598425197,
          "duration": 0.07407399999999598
        },
        {
          "name": "G4",
          "midi": 67,
          "time": 111.29618500000008,
          "velocity": 0.6299212598425197,
          "duration": 0.07407399999999598
        },
        {
          "name": "B4",
          "midi": 71,
          "time": 111.29618500000008,
          "velocity": 0.6299212598425197,
          "duration": 0.07407399999999598
        },
        {
          "name": "C#5",
          "midi": 73,
          "time": 111.38877750000007,
          "velocity": 0.6299212598425197,
          "duration": 0.07407399999999598
        },
        {
          "name": "A4",
          "midi": 69,
          "time": 111.38877750000007,
          "velocity": 0.6299212598425197,
          "duration": 0.07407399999999598
        },
        {
          "name": "D5",
          "midi": 74,
          "time": 111.48137000000007,
          "velocity": 0.6299212598425197,
          "duration": 0.07407399999999598
        },
        {
          "name": "B4",
          "midi": 71,
          "time": 111.48137000000007,
          "velocity": 0.6299212598425197,
          "duration": 0.07407399999999598
        },
        {
          "name": "A4",
          "midi": 69,
          "time": 111.57396250000006,
          "velocity": 0.6299212598425197,
          "duration": 0.07407399999999598
        },
        {
          "name": "C#5",
          "midi": 73,
          "time": 111.57396250000006,
          "velocity": 0.6299212598425197,
          "duration": 0.07407399999999598
        },
        {
          "name": "B4",
          "midi": 71,
          "time": 111.66655500000006,
          "velocity": 0.6299212598425197,
          "duration": 0.07407399999999598
        },
        {
          "name": "D5",
          "midi": 74,
          "time": 111.66655500000006,
          "velocity": 0.6299212598425197,
          "duration": 0.07407399999999598
        },
        {
          "name": "E5",
          "midi": 76,
          "time": 111.75914750000005,
          "velocity": 0.6299212598425197,
          "duration": 0.07407399999999598
        },
        {
          "name": "C#5",
          "midi": 73,
          "time": 111.75914750000005,
          "velocity": 0.6299212598425197,
          "duration": 0.07407399999999598
        },
        {
          "name": "D5",
          "midi": 74,
          "time": 111.85174000000005,
          "velocity": 0.6299212598425197,
          "duration": 0.07407399999999598
        },
        {
          "name": "F#5",
          "midi": 78,
          "time": 111.85174000000005,
          "velocity": 0.6299212598425197,
          "duration": 0.07407399999999598
        },
        {
          "name": "C#5",
          "midi": 73,
          "time": 111.94433250000004,
          "velocity": 0.6299212598425197,
          "duration": 0.07407399999999598
        },
        {
          "name": "E5",
          "midi": 76,
          "time": 111.94433250000004,
          "velocity": 0.6299212598425197,
          "duration": 0.07407399999999598
        },
        {
          "name": "F#5",
          "midi": 78,
          "time": 112.03692500000004,
          "velocity": 0.6299212598425197,
          "duration": 0.07407399999999598
        },
        {
          "name": "D5",
          "midi": 74,
          "time": 112.03692500000004,
          "velocity": 0.6299212598425197,
          "duration": 0.07407399999999598
        },
        {
          "name": "E5",
          "midi": 76,
          "time": 112.12951750000003,
          "velocity": 0.6299212598425197,
          "duration": 0.07407399999999598
        },
        {
          "name": "G5",
          "midi": 79,
          "time": 112.12951750000003,
          "velocity": 0.6299212598425197,
          "duration": 0.07407399999999598
        },
        {
          "name": "F#5",
          "midi": 78,
          "time": 112.22211000000003,
          "velocity": 0.6299212598425197,
          "duration": 0.07407399999999598
        },
        {
          "name": "A5",
          "midi": 81,
          "time": 112.22211000000003,
          "velocity": 0.6299212598425197,
          "duration": 0.07407399999999598
        },
        {
          "name": "G5",
          "midi": 79,
          "time": 112.31470250000002,
          "velocity": 0.6299212598425197,
          "duration": 0.07407399999999598
        },
        {
          "name": "E5",
          "midi": 76,
          "time": 112.31470250000002,
          "velocity": 0.6299212598425197,
          "duration": 0.07407399999999598
        },
        {
          "name": "D5",
          "midi": 74,
          "time": 112.40729500000002,
          "velocity": 0.6299212598425197,
          "duration": 0.07407399999999598
        },
        {
          "name": "F#5",
          "midi": 78,
          "time": 112.40729500000002,
          "velocity": 0.6299212598425197,
          "duration": 0.07407399999999598
        },
        {
          "name": "C#5",
          "midi": 73,
          "time": 112.49988750000001,
          "velocity": 0.6299212598425197,
          "duration": 0.07407399999999598
        },
        {
          "name": "E5",
          "midi": 76,
          "time": 112.49988750000001,
          "velocity": 0.6299212598425197,
          "duration": 0.07407399999999598
        }
      ],
      "controlChanges": {
        "7": [
          {
            "number": 7,
            "time": 0,
            "value": 1
          }
        ]
      },
      "id": 8,
      "instrumentNumber": 54,
      "instrument": "synth voice",
      "instrumentFamily": "ensemble",
      "channelNumber": 7,
      "isPercussion": false
    },
    {
      "startTime": 14.629615000000001,
      "duration": 112.57396149999998,
      "length": 654,
      "notes": [
        {
          "name": "B4",
          "midi": 71,
          "time": 14.629615000000001,
          "velocity": 0.6299212598425197,
          "duration": 1.0740730000000003
        },
        {
          "name": "C#5",
          "midi": 73,
          "time": 15.740725000000001,
          "velocity": 0.6299212598425197,
          "duration": 0.14814800000000083
        },
        {
          "name": "D5",
          "midi": 74,
          "time": 15.925910000000002,
          "velocity": 0.6299212598425197,
          "duration": 0.14814799999999906
        },
        {
          "name": "C#5",
          "midi": 73,
          "time": 16.111095000000002,
          "velocity": 0.6299212598425197,
          "duration": 0.5185180000000003
        },
        {
          "name": "E5",
          "midi": 76,
          "time": 16.666650000000004,
          "velocity": 0.6299212598425197,
          "duration": 0.14814799999999906
        },
        {
          "name": "D5",
          "midi": 74,
          "time": 16.851835000000005,
          "velocity": 0.6299212598425197,
          "duration": 0.3472218749999989
        },
        {
          "name": "C#5",
          "midi": 73,
          "time": 17.222205000000002,
          "velocity": 0.6299212598425197,
          "duration": 0.14814799999999906
        },
        {
          "name": "D5",
          "midi": 74,
          "time": 17.407390000000003,
          "velocity": 0.6299212598425197,
          "duration": 0.14814799999999906
        },
        {
          "name": "B4",
          "midi": 71,
          "time": 17.592575000000004,
          "velocity": 0.6299212598425197,
          "duration": 1.2222210000000011
        },
        {
          "name": "F#5",
          "midi": 78,
          "time": 18.888870000000004,
          "velocity": 0.6299212598425197,
          "duration": 0.14814799999999906
        },
        {
          "name": "E5",
          "midi": 76,
          "time": 19.074055000000005,
          "velocity": 0.6299212598425197,
          "duration": 0.5185180000000003
        },
        {
          "name": "D5",
          "midi": 74,
          "time": 19.629610000000007,
          "velocity": 0.6299212598425197,
          "duration": 0.14814799999999906
        },
        {
          "name": "C#5",
          "midi": 73,
          "time": 19.814795000000007,
          "velocity": 0.6299212598425197,
          "duration": 0.29629600000000167
        },
        {
          "name": "B4",
          "midi": 71,
          "time": 20.18516500000001,
          "velocity": 0.6299212598425197,
          "duration": 0.14814799999999906
        },
        {
          "name": "A4",
          "midi": 69,
          "time": 20.37035000000001,
          "velocity": 0.6299212598425197,
          "duration": 0.14814799999999906
        },
        {
          "name": "C#5",
          "midi": 73,
          "time": 20.55553500000001,
          "velocity": 0.6299212598425197,
          "duration": 0.14814799999999906
        },
        {
          "name": "B4",
          "midi": 71,
          "time": 20.74072000000001,
          "velocity": 0.6299212598425197,
          "duration": 0.9151225416666655
        },
        {
          "name": "C#5",
          "midi": 73,
          "time": 21.66664500000001,
          "velocity": 0.6299212598425197,
          "duration": 0.14814799999999906
        },
        {
          "name": "D5",
          "midi": 74,
          "time": 21.85183000000001,
          "velocity": 0.6299212598425197,
          "duration": 0.14814799999999906
        },
        {
          "name": "C#5",
          "midi": 73,
          "time": 22.03701500000001,
          "velocity": 0.6299212598425197,
          "duration": 0.5185180000000003
        },
        {
          "name": "E5",
          "midi": 76,
          "time": 22.592570000000013,
          "velocity": 0.6299212598425197,
          "duration": 0.14814799999999906
        },
        {
          "name": "D5",
          "midi": 74,
          "time": 22.777755000000013,
          "velocity": 0.6299212598425197,
          "duration": 0.4444440000000007
        },
        {
          "name": "F#5",
          "midi": 78,
          "time": 23.333310000000015,
          "velocity": 0.6299212598425197,
          "duration": 0.14814799999999906
        },
        {
          "name": "G5",
          "midi": 79,
          "time": 23.518495000000016,
          "velocity": 0.6299212598425197,
          "duration": 1.2222210000000011
        },
        {
          "name": "D5",
          "midi": 74,
          "time": 24.814790000000016,
          "velocity": 0.6299212598425197,
          "duration": 0.14814799999999906
        },
        {
          "name": "E5",
          "midi": 76,
          "time": 24.999975000000017,
          "velocity": 0.6299212598425197,
          "duration": 0.4814809999999987
        },
        {
          "name": "D5",
          "midi": 74,
          "time": 25.555530000000015,
          "velocity": 0.6299212598425197,
          "duration": 0.14814799999999906
        },
        {
          "name": "C#5",
          "midi": 73,
          "time": 25.740715000000016,
          "velocity": 0.6299212598425197,
          "duration": 0.3472218749999989
        },
        {
          "name": "D5",
          "midi": 74,
          "time": 26.111085000000013,
          "velocity": 0.6299212598425197,
          "duration": 0.14814799999999906
        },
        {
          "name": "C#5",
          "midi": 73,
          "time": 26.296270000000014,
          "velocity": 0.6299212598425197,
          "duration": 0.29629600000000167
        },
        {
          "name": "C#6",
          "midi": 85,
          "time": 32.59256000000001,
          "velocity": 0.6299212598425197,
          "duration": 0.4444439999999972
        },
        {
          "name": "C#5",
          "midi": 73,
          "time": 32.59256000000001,
          "velocity": 0.6299212598425197,
          "duration": 0.4444439999999972
        },
        {
          "name": "A4",
          "midi": 69,
          "time": 33.14811500000001,
          "velocity": 0.6299212598425197,
          "duration": 0.14814799999999906
        },
        {
          "name": "A5",
          "midi": 81,
          "time": 33.14811500000001,
          "velocity": 0.6299212598425197,
          "duration": 0.14814799999999906
        },
        {
          "name": "B4",
          "midi": 71,
          "time": 33.33330000000001,
          "velocity": 0.6299212598425197,
          "duration": 1.2592580000000027
        },
        {
          "name": "B5",
          "midi": 83,
          "time": 33.33330000000001,
          "velocity": 0.6299212598425197,
          "duration": 1.2592580000000027
        },
        {
          "name": "F#4",
          "midi": 66,
          "time": 34.62959500000001,
          "velocity": 0.6299212598425197,
          "duration": 0.07407400000000308
        },
        {
          "name": "F#5",
          "midi": 78,
          "time": 34.62959500000001,
          "velocity": 0.6299212598425197,
          "duration": 0.07407400000000308
        },
        {
          "name": "B4",
          "midi": 71,
          "time": 34.72218750000001,
          "velocity": 0.6299212598425197,
          "duration": 0.07407400000000308
        },
        {
          "name": "B5",
          "midi": 83,
          "time": 34.72218750000001,
          "velocity": 0.6299212598425197,
          "duration": 0.07407400000000308
        },
        {
          "name": "C#5",
          "midi": 73,
          "time": 34.81478000000001,
          "velocity": 0.6299212598425197,
          "duration": 0.17438254166666667
        },
        {
          "name": "C#6",
          "midi": 85,
          "time": 34.81478000000001,
          "velocity": 0.6299212598425197,
          "duration": 0.17438254166666667
        },
        {
          "name": "D6",
          "midi": 86,
          "time": 34.99996500000001,
          "velocity": 0.6299212598425197,
          "duration": 0.17438254166666667
        },
        {
          "name": "D5",
          "midi": 74,
          "time": 34.99996500000001,
          "velocity": 0.6299212598425197,
          "duration": 0.17438254166666667
        },
        {
          "name": "E5",
          "midi": 76,
          "time": 35.18515000000001,
          "velocity": 0.6299212598425197,
          "duration": 0.17438254166666667
        },
        {
          "name": "E6",
          "midi": 88,
          "time": 35.18515000000001,
          "velocity": 0.6299212598425197,
          "duration": 0.17438254166666667
        },
        {
          "name": "C#5",
          "midi": 73,
          "time": 35.370335000000004,
          "velocity": 0.6299212598425197,
          "duration": 0.6296290000000013
        },
        {
          "name": "C#6",
          "midi": 85,
          "time": 35.370335000000004,
          "velocity": 0.6299212598425197,
          "duration": 0.6296290000000013
        },
        {
          "name": "A5",
          "midi": 81,
          "time": 36.11107500000001,
          "velocity": 0.6299212598425197,
          "duration": 0.14814799999999906
        },
        {
          "name": "A4",
          "midi": 69,
          "time": 36.11107500000001,
          "velocity": 0.6299212598425197,
          "duration": 0.14814799999999906
        },
        {
          "name": "B5",
          "midi": 83,
          "time": 36.296260000000004,
          "velocity": 0.6299212598425197,
          "duration": 1.925924000000002
        },
        {
          "name": "B4",
          "midi": 71,
          "time": 36.296260000000004,
          "velocity": 0.6299212598425197,
          "duration": 1.925924000000002
        },
        {
          "name": "D5",
          "midi": 74,
          "time": 38.518480000000004,
          "velocity": 0.6299212598425197,
          "duration": 0.14814799999999906
        },
        {
          "name": "D6",
          "midi": 86,
          "time": 38.518480000000004,
          "velocity": 0.6299212598425197,
          "duration": 0.14814799999999906
        },
        {
          "name": "C#5",
          "midi": 73,
          "time": 38.703665,
          "velocity": 0.6299212598425197,
          "duration": 0.14814799999999906
        },
        {
          "name": "C#6",
          "midi": 85,
          "time": 38.703665,
          "velocity": 0.6299212598425197,
          "duration": 0.14814799999999906
        },
        {
          "name": "D6",
          "midi": 86,
          "time": 38.88885,
          "velocity": 0.6299212598425197,
          "duration": 0.14814799999999906
        },
        {
          "name": "D5",
          "midi": 74,
          "time": 38.88885,
          "velocity": 0.6299212598425197,
          "duration": 0.14814799999999906
        },
        {
          "name": "E6",
          "midi": 88,
          "time": 39.074034999999995,
          "velocity": 0.6299212598425197,
          "duration": 0.14814799999999906
        },
        {
          "name": "E5",
          "midi": 76,
          "time": 39.074034999999995,
          "velocity": 0.6299212598425197,
          "duration": 0.14814799999999906
        },
        {
          "name": "F#6",
          "midi": 90,
          "time": 39.25921999999999,
          "velocity": 0.6299212598425197,
          "duration": 0.14814799999999906
        },
        {
          "name": "F#5",
          "midi": 78,
          "time": 39.25921999999999,
          "velocity": 0.6299212598425197,
          "duration": 0.14814799999999906
        },
        {
          "name": "B5",
          "midi": 83,
          "time": 39.44440499999999,
          "velocity": 0.6299212598425197,
          "duration": 0.14814799999999906
        },
        {
          "name": "B4",
          "midi": 71,
          "time": 39.44440499999999,
          "velocity": 0.6299212598425197,
          "duration": 0.14814799999999906
        },
        {
          "name": "F#6",
          "midi": 90,
          "time": 39.629589999999986,
          "velocity": 0.6299212598425197,
          "duration": 0.14814799999999906
        },
        {
          "name": "F#5",
          "midi": 78,
          "time": 39.629589999999986,
          "velocity": 0.6299212598425197,
          "duration": 0.14814799999999906
        },
        {
          "name": "F#6",
          "midi": 90,
          "time": 39.81477499999998,
          "velocity": 0.6299212598425197,
          "duration": 0.2962959999999981
        },
        {
          "name": "F#5",
          "midi": 78,
          "time": 39.81477499999998,
          "velocity": 0.6299212598425197,
          "duration": 0.2962959999999981
        },
        {
          "name": "E6",
          "midi": 88,
          "time": 40.12341666666665,
          "velocity": 0.6299212598425197,
          "duration": 0.0987653333333327
        },
        {
          "name": "E5",
          "midi": 76,
          "time": 40.12341666666665,
          "velocity": 0.6299212598425197,
          "duration": 0.0987653333333327
        },
        {
          "name": "D6",
          "midi": 86,
          "time": 40.24687333333332,
          "velocity": 0.6299212598425197,
          "duration": 0.0987653333333327
        },
        {
          "name": "D5",
          "midi": 74,
          "time": 40.24687333333332,
          "velocity": 0.6299212598425197,
          "duration": 0.0987653333333327
        },
        {
          "name": "E6",
          "midi": 88,
          "time": 40.37032999999999,
          "velocity": 0.6299212598425197,
          "duration": 0.0987653333333327
        },
        {
          "name": "E5",
          "midi": 76,
          "time": 40.37032999999999,
          "velocity": 0.6299212598425197,
          "duration": 0.0987653333333327
        },
        {
          "name": "D5",
          "midi": 74,
          "time": 40.49378666666666,
          "velocity": 0.6299212598425197,
          "duration": 0.0987653333333327
        },
        {
          "name": "D6",
          "midi": 86,
          "time": 40.49378666666666,
          "velocity": 0.6299212598425197,
          "duration": 0.0987653333333327
        },
        {
          "name": "C#6",
          "midi": 85,
          "time": 40.61724333333333,
          "velocity": 0.6299212598425197,
          "duration": 0.0987653333333327
        },
        {
          "name": "C#5",
          "midi": 73,
          "time": 40.61724333333333,
          "velocity": 0.6299212598425197,
          "duration": 0.0987653333333327
        },
        {
          "name": "D5",
          "midi": 74,
          "time": 40.7407,
          "velocity": 0.6299212598425197,
          "duration": 0.0987653333333327
        },
        {
          "name": "D6",
          "midi": 86,
          "time": 40.7407,
          "velocity": 0.6299212598425197,
          "duration": 0.0987653333333327
        },
        {
          "name": "C#6",
          "midi": 85,
          "time": 40.864156666666666,
          "velocity": 0.6299212598425197,
          "duration": 0.0987653333333327
        },
        {
          "name": "C#5",
          "midi": 73,
          "time": 40.864156666666666,
          "velocity": 0.6299212598425197,
          "duration": 0.0987653333333327
        },
        {
          "name": "B5",
          "midi": 83,
          "time": 40.987613333333336,
          "velocity": 0.6299212598425197,
          "duration": 0.0987653333333327
        },
        {
          "name": "B4",
          "midi": 71,
          "time": 40.987613333333336,
          "velocity": 0.6299212598425197,
          "duration": 0.0987653333333327
        },
        {
          "name": "C#6",
          "midi": 85,
          "time": 41.111070000000005,
          "velocity": 0.6299212598425197,
          "duration": 0.0987653333333327
        },
        {
          "name": "C#5",
          "midi": 73,
          "time": 41.111070000000005,
          "velocity": 0.6299212598425197,
          "duration": 0.0987653333333327
        },
        {
          "name": "B4",
          "midi": 71,
          "time": 41.234526666666675,
          "velocity": 0.6299212598425197,
          "duration": 0.0987653333333327
        },
        {
          "name": "B5",
          "midi": 83,
          "time": 41.234526666666675,
          "velocity": 0.6299212598425197,
          "duration": 0.0987653333333327
        },
        {
          "name": "A4",
          "midi": 69,
          "time": 41.357983333333344,
          "velocity": 0.6299212598425197,
          "duration": 0.0987653333333327
        },
        {
          "name": "A5",
          "midi": 81,
          "time": 41.357983333333344,
          "velocity": 0.6299212598425197,
          "duration": 0.0987653333333327
        },
        {
          "name": "B5",
          "midi": 83,
          "time": 41.48144000000001,
          "velocity": 0.6299212598425197,
          "duration": 0.2962959999999981
        },
        {
          "name": "B4",
          "midi": 71,
          "time": 41.48144000000001,
          "velocity": 0.6299212598425197,
          "duration": 0.2962959999999981
        },
        {
          "name": "C#5",
          "midi": 73,
          "time": 41.851810000000015,
          "velocity": 0.6299212598425197,
          "duration": 0.2962959999999981
        },
        {
          "name": "C#6",
          "midi": 85,
          "time": 41.851810000000015,
          "velocity": 0.6299212598425197,
          "duration": 0.2962959999999981
        },
        {
          "name": "D5",
          "midi": 74,
          "time": 42.222180000000016,
          "velocity": 0.6299212598425197,
          "duration": 0.14814799999999906
        },
        {
          "name": "D6",
          "midi": 86,
          "time": 42.222180000000016,
          "velocity": 0.6299212598425197,
          "duration": 0.14814799999999906
        },
        {
          "name": "C#5",
          "midi": 73,
          "time": 42.40736500000001,
          "velocity": 0.6299212598425197,
          "duration": 0.14814799999999906
        },
        {
          "name": "C#6",
          "midi": 85,
          "time": 42.40736500000001,
          "velocity": 0.6299212598425197,
          "duration": 0.14814799999999906
        },
        {
          "name": "D6",
          "midi": 86,
          "time": 42.59255000000001,
          "velocity": 0.6299212598425197,
          "duration": 0.14814799999999906
        },
        {
          "name": "D5",
          "midi": 74,
          "time": 42.59255000000001,
          "velocity": 0.6299212598425197,
          "duration": 0.14814799999999906
        },
        {
          "name": "F#6",
          "midi": 90,
          "time": 42.77773500000001,
          "velocity": 0.6299212598425197,
          "duration": 0.07407400000000308
        },
        {
          "name": "F#5",
          "midi": 78,
          "time": 42.77773500000001,
          "velocity": 0.6299212598425197,
          "duration": 0.07407400000000308
        },
        {
          "name": "E5",
          "midi": 76,
          "time": 42.87032750000001,
          "velocity": 0.6299212598425197,
          "duration": 0.07407400000000308
        },
        {
          "name": "E6",
          "midi": 88,
          "time": 42.87032750000001,
          "velocity": 0.6299212598425197,
          "duration": 0.07407400000000308
        },
        {
          "name": "F#5",
          "midi": 78,
          "time": 42.96292000000001,
          "velocity": 0.6299212598425197,
          "duration": 0.17438254166666667
        },
        {
          "name": "F#6",
          "midi": 90,
          "time": 42.96292000000001,
          "velocity": 0.6299212598425197,
          "duration": 0.17438254166666667
        },
        {
          "name": "B5",
          "midi": 83,
          "time": 43.14810500000001,
          "velocity": 0.6299212598425197,
          "duration": 0.14814799999999906
        },
        {
          "name": "B4",
          "midi": 71,
          "time": 43.14810500000001,
          "velocity": 0.6299212598425197,
          "duration": 0.14814799999999906
        },
        {
          "name": "E5",
          "midi": 76,
          "time": 43.333290000000005,
          "velocity": 0.6299212598425197,
          "duration": 0.14814799999999906
        },
        {
          "name": "E6",
          "midi": 88,
          "time": 43.333290000000005,
          "velocity": 0.6299212598425197,
          "duration": 0.14814799999999906
        },
        {
          "name": "B5",
          "midi": 83,
          "time": 43.518475,
          "velocity": 0.6299212598425197,
          "duration": 0.14814799999999906
        },
        {
          "name": "B4",
          "midi": 71,
          "time": 43.518475,
          "velocity": 0.6299212598425197,
          "duration": 0.14814799999999906
        },
        {
          "name": "D6",
          "midi": 86,
          "time": 43.70366,
          "velocity": 0.6299212598425197,
          "duration": 0.14814799999999906
        },
        {
          "name": "D5",
          "midi": 74,
          "time": 43.70366,
          "velocity": 0.6299212598425197,
          "duration": 0.14814799999999906
        },
        {
          "name": "E6",
          "midi": 88,
          "time": 43.888844999999996,
          "velocity": 0.6299212598425197,
          "duration": 0.14814799999999906
        },
        {
          "name": "E5",
          "midi": 76,
          "time": 43.888844999999996,
          "velocity": 0.6299212598425197,
          "duration": 0.14814799999999906
        },
        {
          "name": "C#6",
          "midi": 85,
          "time": 44.07402999999999,
          "velocity": 0.6299212598425197,
          "duration": 0.2962959999999981
        },
        {
          "name": "C#5",
          "midi": 73,
          "time": 44.07402999999999,
          "velocity": 0.6299212598425197,
          "duration": 0.2962959999999981
        },
        {
          "name": "B4",
          "midi": 71,
          "time": 44.444399999999995,
          "velocity": 0.6299212598425197,
          "duration": 0.14814799999999906
        },
        {
          "name": "D6",
          "midi": 86,
          "time": 44.444399999999995,
          "velocity": 0.6299212598425197,
          "duration": 0.14814799999999906
        },
        {
          "name": "B5",
          "midi": 83,
          "time": 44.444399999999995,
          "velocity": 0.6299212598425197,
          "duration": 0.14814799999999906
        },
        {
          "name": "D5",
          "midi": 74,
          "time": 44.444399999999995,
          "velocity": 0.6299212598425197,
          "duration": 0.14814799999999906
        },
        {
          "name": "E5",
          "midi": 76,
          "time": 44.62958499999999,
          "velocity": 0.6299212598425197,
          "duration": 0.14814799999999906
        },
        {
          "name": "C#6",
          "midi": 85,
          "time": 44.62958499999999,
          "velocity": 0.6299212598425197,
          "duration": 0.14814799999999906
        },
        {
          "name": "E6",
          "midi": 88,
          "time": 44.62958499999999,
          "velocity": 0.6299212598425197,
          "duration": 0.14814799999999906
        },
        {
          "name": "C#5",
          "midi": 73,
          "time": 44.62958499999999,
          "velocity": 0.6299212598425197,
          "duration": 0.14814799999999906
        },
        {
          "name": "C#5",
          "midi": 73,
          "time": 44.81476999999999,
          "velocity": 0.6299212598425197,
          "duration": 0.14814799999999906
        },
        {
          "name": "C#6",
          "midi": 85,
          "time": 44.81476999999999,
          "velocity": 0.6299212598425197,
          "duration": 0.14814799999999906
        },
        {
          "name": "A5",
          "midi": 81,
          "time": 44.81476999999999,
          "velocity": 0.6299212598425197,
          "duration": 0.14814799999999906
        },
        {
          "name": "A4",
          "midi": 69,
          "time": 44.81476999999999,
          "velocity": 0.6299212598425197,
          "duration": 0.14814799999999906
        },
        {
          "name": "B5",
          "midi": 83,
          "time": 44.999954999999986,
          "velocity": 0.6299212598425197,
          "duration": 0.14814799999999906
        },
        {
          "name": "D5",
          "midi": 74,
          "time": 44.999954999999986,
          "velocity": 0.6299212598425197,
          "duration": 0.14814799999999906
        },
        {
          "name": "D6",
          "midi": 86,
          "time": 44.999954999999986,
          "velocity": 0.6299212598425197,
          "duration": 0.14814799999999906
        },
        {
          "name": "B4",
          "midi": 71,
          "time": 44.999954999999986,
          "velocity": 0.6299212598425197,
          "duration": 0.14814799999999906
        },
        {
          "name": "B4",
          "midi": 71,
          "time": 45.18513999999998,
          "velocity": 0.6299212598425197,
          "duration": 0.14814799999999906
        },
        {
          "name": "F#4",
          "midi": 66,
          "time": 45.18513999999998,
          "velocity": 0.6299212598425197,
          "duration": 0.14814799999999906
        },
        {
          "name": "F#5",
          "midi": 78,
          "time": 45.18513999999998,
          "velocity": 0.6299212598425197,
          "duration": 0.14814799999999906
        },
        {
          "name": "B5",
          "midi": 83,
          "time": 45.18513999999998,
          "velocity": 0.6299212598425197,
          "duration": 0.14814799999999906
        },
        {
          "name": "C#6",
          "midi": 85,
          "time": 45.37032499999998,
          "velocity": 0.6299212598425197,
          "duration": 0.14814799999999906
        },
        {
          "name": "A5",
          "midi": 81,
          "time": 45.37032499999998,
          "velocity": 0.6299212598425197,
          "duration": 0.14814799999999906
        },
        {
          "name": "C#5",
          "midi": 73,
          "time": 45.37032499999998,
          "velocity": 0.6299212598425197,
          "duration": 0.14814799999999906
        },
        {
          "name": "A4",
          "midi": 69,
          "time": 45.37032499999998,
          "velocity": 0.6299212598425197,
          "duration": 0.14814799999999906
        },
        {
          "name": "A5",
          "midi": 81,
          "time": 45.55550999999998,
          "velocity": 0.6299212598425197,
          "duration": 0.14814799999999906
        },
        {
          "name": "E4",
          "midi": 64,
          "time": 45.55550999999998,
          "velocity": 0.6299212598425197,
          "duration": 0.14814799999999906
        },
        {
          "name": "E5",
          "midi": 76,
          "time": 45.55550999999998,
          "velocity": 0.6299212598425197,
          "duration": 0.14814799999999906
        },
        {
          "name": "A4",
          "midi": 69,
          "time": 45.55550999999998,
          "velocity": 0.6299212598425197,
          "duration": 0.14814799999999906
        },
        {
          "name": "F#5",
          "midi": 78,
          "time": 45.740694999999974,
          "velocity": 0.6299212598425197,
          "duration": 0.3333330000000032
        },
        {
          "name": "B4",
          "midi": 71,
          "time": 45.740694999999974,
          "velocity": 0.6299212598425197,
          "duration": 0.3333330000000032
        },
        {
          "name": "F#4",
          "midi": 66,
          "time": 45.740694999999974,
          "velocity": 0.6299212598425197,
          "duration": 0.3333330000000032
        },
        {
          "name": "B5",
          "midi": 83,
          "time": 45.740694999999974,
          "velocity": 0.6299212598425197,
          "duration": 0.3333330000000032
        },
        {
          "name": "D4",
          "midi": 62,
          "time": 46.111064999999975,
          "velocity": 0.6299212598425197,
          "duration": 0.07407400000000308
        },
        {
          "name": "F#4",
          "midi": 66,
          "time": 46.111064999999975,
          "velocity": 0.6299212598425197,
          "duration": 0.07407400000000308
        },
        {
          "name": "D5",
          "midi": 74,
          "time": 46.111064999999975,
          "velocity": 0.6299212598425197,
          "duration": 0.07407400000000308
        },
        {
          "name": "F#5",
          "midi": 78,
          "time": 46.111064999999975,
          "velocity": 0.6299212598425197,
          "duration": 0.07407400000000308
        },
        {
          "name": "F#5",
          "midi": 78,
          "time": 46.20365749999998,
          "velocity": 0.6299212598425197,
          "duration": 0.07407400000000308
        },
        {
          "name": "F#4",
          "midi": 66,
          "time": 46.20365749999998,
          "velocity": 0.6299212598425197,
          "duration": 0.07407400000000308
        },
        {
          "name": "B4",
          "midi": 71,
          "time": 46.20365749999998,
          "velocity": 0.6299212598425197,
          "duration": 0.07407400000000308
        },
        {
          "name": "B5",
          "midi": 83,
          "time": 46.20365749999998,
          "velocity": 0.6299212598425197,
          "duration": 0.07407400000000308
        },
        {
          "name": "B5",
          "midi": 83,
          "time": 46.29624999999998,
          "velocity": 0.6299212598425197,
          "duration": 0.14814799999999906
        },
        {
          "name": "D5",
          "midi": 74,
          "time": 46.29624999999998,
          "velocity": 0.6299212598425197,
          "duration": 0.14814799999999906
        },
        {
          "name": "B4",
          "midi": 71,
          "time": 46.29624999999998,
          "velocity": 0.6299212598425197,
          "duration": 0.14814799999999906
        },
        {
          "name": "D6",
          "midi": 86,
          "time": 46.29624999999998,
          "velocity": 0.6299212598425197,
          "duration": 0.14814799999999906
        },
        {
          "name": "D5",
          "midi": 74,
          "time": 46.481434999999976,
          "velocity": 0.6299212598425197,
          "duration": 0.07407400000000308
        },
        {
          "name": "F#4",
          "midi": 66,
          "time": 46.481434999999976,
          "velocity": 0.6299212598425197,
          "duration": 0.07407400000000308
        },
        {
          "name": "D4",
          "midi": 62,
          "time": 46.481434999999976,
          "velocity": 0.6299212598425197,
          "duration": 0.07407400000000308
        },
        {
          "name": "F#5",
          "midi": 78,
          "time": 46.481434999999976,
          "velocity": 0.6299212598425197,
          "duration": 0.07407400000000308
        },
        {
          "name": "F#4",
          "midi": 66,
          "time": 46.57402749999998,
          "velocity": 0.6299212598425197,
          "duration": 0.07407400000000308
        },
        {
          "name": "B4",
          "midi": 71,
          "time": 46.57402749999998,
          "velocity": 0.6299212598425197,
          "duration": 0.07407400000000308
        },
        {
          "name": "B5",
          "midi": 83,
          "time": 46.57402749999998,
          "velocity": 0.6299212598425197,
          "duration": 0.07407400000000308
        },
        {
          "name": "F#5",
          "midi": 78,
          "time": 46.57402749999998,
          "velocity": 0.6299212598425197,
          "duration": 0.07407400000000308
        },
        {
          "name": "C#5",
          "midi": 73,
          "time": 46.66661999999998,
          "velocity": 0.6299212598425197,
          "duration": 0.14814799999999906
        },
        {
          "name": "E5",
          "midi": 76,
          "time": 46.66661999999998,
          "velocity": 0.6299212598425197,
          "duration": 0.14814799999999906
        },
        {
          "name": "E6",
          "midi": 88,
          "time": 46.66661999999998,
          "velocity": 0.6299212598425197,
          "duration": 0.14814799999999906
        },
        {
          "name": "C#6",
          "midi": 85,
          "time": 46.66661999999998,
          "velocity": 0.6299212598425197,
          "duration": 0.14814799999999906
        },
        {
          "name": "D6",
          "midi": 86,
          "time": 46.85180499999998,
          "velocity": 0.6299212598425197,
          "duration": 0.14814799999999906
        },
        {
          "name": "B5",
          "midi": 83,
          "time": 46.85180499999998,
          "velocity": 0.6299212598425197,
          "duration": 0.14814799999999906
        },
        {
          "name": "D5",
          "midi": 74,
          "time": 46.85180499999998,
          "velocity": 0.6299212598425197,
          "duration": 0.14814799999999906
        },
        {
          "name": "B4",
          "midi": 71,
          "time": 46.85180499999998,
          "velocity": 0.6299212598425197,
          "duration": 0.14814799999999906
        },
        {
          "name": "C#6",
          "midi": 85,
          "time": 47.036989999999975,
          "velocity": 0.6299212598425197,
          "duration": 0.14814799999999906
        },
        {
          "name": "E6",
          "midi": 88,
          "time": 47.036989999999975,
          "velocity": 0.6299212598425197,
          "duration": 0.14814799999999906
        },
        {
          "name": "E5",
          "midi": 76,
          "time": 47.036989999999975,
          "velocity": 0.6299212598425197,
          "duration": 0.14814799999999906
        },
        {
          "name": "C#5",
          "midi": 73,
          "time": 47.036989999999975,
          "velocity": 0.6299212598425197,
          "duration": 0.14814799999999906
        },
        {
          "name": "F#5",
          "midi": 78,
          "time": 47.22217499999997,
          "velocity": 0.6299212598425197,
          "duration": 0.5447525416666679
        },
        {
          "name": "F#6",
          "midi": 90,
          "time": 47.22217499999997,
          "velocity": 0.6299212598425197,
          "duration": 0.5447525416666679
        },
        {
          "name": "D6",
          "midi": 86,
          "time": 47.22217499999997,
          "velocity": 0.6299212598425197,
          "duration": 0.5447525416666679
        },
        {
          "name": "D5",
          "midi": 74,
          "time": 47.22217499999997,
          "velocity": 0.6299212598425197,
          "duration": 0.5447525416666679
        },
        {
          "name": "G5",
          "midi": 79,
          "time": 47.77772999999997,
          "velocity": 0.6299212598425197,
          "duration": 0.14814799999999906
        },
        {
          "name": "E5",
          "midi": 76,
          "time": 47.77772999999997,
          "velocity": 0.6299212598425197,
          "duration": 0.14814799999999906
        },
        {
          "name": "E6",
          "midi": 88,
          "time": 47.77772999999997,
          "velocity": 0.6299212598425197,
          "duration": 0.14814799999999906
        },
        {
          "name": "G6",
          "midi": 91,
          "time": 47.77772999999997,
          "velocity": 0.6299212598425197,
          "duration": 0.14814799999999906
        },
        {
          "name": "F#6",
          "midi": 90,
          "time": 47.96291499999997,
          "velocity": 0.6299212598425197,
          "duration": 2.111108999999999
        },
        {
          "name": "D6",
          "midi": 86,
          "time": 47.96291499999997,
          "velocity": 0.6299212598425197,
          "duration": 0.8888880000000015
        },
        {
          "name": "D5",
          "midi": 74,
          "time": 47.96291499999997,
          "velocity": 0.6299212598425197,
          "duration": 2.111108999999999
        },
        {
          "name": "F#5",
          "midi": 78,
          "time": 47.96291499999997,
          "velocity": 0.6299212598425197,
          "duration": 2.111108999999999
        },
        {
          "name": "D6",
          "midi": 86,
          "time": 48.888839999999966,
          "velocity": 0.6299212598425197,
          "duration": 1.1851839999999996
        },
        {
          "name": "B4",
          "midi": 71,
          "time": 50.370319999999964,
          "velocity": 0.6299212598425197,
          "duration": 0.14814799999999906
        },
        {
          "name": "D6",
          "midi": 86,
          "time": 50.370319999999964,
          "velocity": 0.6299212598425197,
          "duration": 0.14814799999999906
        },
        {
          "name": "B5",
          "midi": 83,
          "time": 50.370319999999964,
          "velocity": 0.6299212598425197,
          "duration": 0.14814799999999906
        },
        {
          "name": "D5",
          "midi": 74,
          "time": 50.370319999999964,
          "velocity": 0.6299212598425197,
          "duration": 0.14814799999999906
        },
        {
          "name": "F#4",
          "midi": 66,
          "time": 50.55550499999996,
          "velocity": 0.6299212598425197,
          "duration": 0.14814799999999906
        },
        {
          "name": "B4",
          "midi": 71,
          "time": 50.55550499999996,
          "velocity": 0.6299212598425197,
          "duration": 0.14814799999999906
        },
        {
          "name": "B5",
          "midi": 83,
          "time": 50.55550499999996,
          "velocity": 0.6299212598425197,
          "duration": 0.14814799999999906
        },
        {
          "name": "F#5",
          "midi": 78,
          "time": 50.55550499999996,
          "velocity": 0.6299212598425197,
          "duration": 0.14814799999999906
        },
        {
          "name": "B4",
          "midi": 71,
          "time": 50.92587499999996,
          "velocity": 0.6299212598425197,
          "duration": 0.07407400000000308
        },
        {
          "name": "F#5",
          "midi": 78,
          "time": 50.92587499999996,
          "velocity": 0.6299212598425197,
          "duration": 0.07407400000000308
        },
        {
          "name": "B5",
          "midi": 83,
          "time": 50.92587499999996,
          "velocity": 0.6299212598425197,
          "duration": 0.07407400000000308
        },
        {
          "name": "F#4",
          "midi": 66,
          "time": 50.92587499999996,
          "velocity": 0.6299212598425197,
          "duration": 0.07407400000000308
        },
        {
          "name": "C#6",
          "midi": 85,
          "time": 51.018467499999964,
          "velocity": 0.6299212598425197,
          "duration": 0.07407400000000308
        },
        {
          "name": "A5",
          "midi": 81,
          "time": 51.018467499999964,
          "velocity": 0.6299212598425197,
          "duration": 0.07407400000000308
        },
        {
          "name": "A4",
          "midi": 69,
          "time": 51.018467499999964,
          "velocity": 0.6299212598425197,
          "duration": 0.07407400000000308
        },
        {
          "name": "C#5",
          "midi": 73,
          "time": 51.018467499999964,
          "velocity": 0.6299212598425197,
          "duration": 0.07407400000000308
        },
        {
          "name": "D6",
          "midi": 86,
          "time": 51.111059999999966,
          "velocity": 0.6299212598425197,
          "duration": 0.14814799999999906
        },
        {
          "name": "B5",
          "midi": 83,
          "time": 51.111059999999966,
          "velocity": 0.6299212598425197,
          "duration": 0.14814799999999906
        },
        {
          "name": "B4",
          "midi": 71,
          "time": 51.111059999999966,
          "velocity": 0.6299212598425197,
          "duration": 0.14814799999999906
        },
        {
          "name": "D5",
          "midi": 74,
          "time": 51.111059999999966,
          "velocity": 0.6299212598425197,
          "duration": 0.14814799999999906
        },
        {
          "name": "B4",
          "midi": 71,
          "time": 51.29624499999996,
          "velocity": 0.6299212598425197,
          "duration": 0.07407400000000308
        },
        {
          "name": "F#4",
          "midi": 66,
          "time": 51.29624499999996,
          "velocity": 0.6299212598425197,
          "duration": 0.07407400000000308
        },
        {
          "name": "B5",
          "midi": 83,
          "time": 51.29624499999996,
          "velocity": 0.6299212598425197,
          "duration": 0.07407400000000308
        },
        {
          "name": "F#5",
          "midi": 78,
          "time": 51.29624499999996,
          "velocity": 0.6299212598425197,
          "duration": 0.07407400000000308
        },
        {
          "name": "C#5",
          "midi": 73,
          "time": 51.48142999999997,
          "velocity": 0.6299212598425197,
          "duration": 0.07407400000000308
        },
        {
          "name": "A5",
          "midi": 81,
          "time": 51.48142999999997,
          "velocity": 0.6299212598425197,
          "duration": 0.07407400000000308
        },
        {
          "name": "C#6",
          "midi": 85,
          "time": 51.48142999999997,
          "velocity": 0.6299212598425197,
          "duration": 0.07407400000000308
        },
        {
          "name": "A4",
          "midi": 69,
          "time": 51.48142999999997,
          "velocity": 0.6299212598425197,
          "duration": 0.07407400000000308
        },
        {
          "name": "B5",
          "midi": 83,
          "time": 51.57402249999997,
          "velocity": 0.6299212598425197,
          "duration": 0.14814799999999906
        },
        {
          "name": "B4",
          "midi": 71,
          "time": 51.57402249999997,
          "velocity": 0.6299212598425197,
          "duration": 0.14814799999999906
        },
        {
          "name": "D6",
          "midi": 86,
          "time": 51.57402249999997,
          "velocity": 0.6299212598425197,
          "duration": 0.14814799999999906
        },
        {
          "name": "D5",
          "midi": 74,
          "time": 51.57402249999997,
          "velocity": 0.6299212598425197,
          "duration": 0.14814799999999906
        },
        {
          "name": "E5",
          "midi": 76,
          "time": 51.75920749999997,
          "velocity": 0.6299212598425197,
          "duration": 0.14814799999999906
        },
        {
          "name": "C#6",
          "midi": 85,
          "time": 51.75920749999997,
          "velocity": 0.6299212598425197,
          "duration": 0.14814799999999906
        },
        {
          "name": "C#5",
          "midi": 73,
          "time": 51.75920749999997,
          "velocity": 0.6299212598425197,
          "duration": 0.14814799999999906
        },
        {
          "name": "E6",
          "midi": 88,
          "time": 51.75920749999997,
          "velocity": 0.6299212598425197,
          "duration": 0.14814799999999906
        },
        {
          "name": "D5",
          "midi": 74,
          "time": 51.85179999999997,
          "velocity": 0.6299212598425197,
          "duration": 0.14814799999999906
        },
        {
          "name": "F#5",
          "midi": 78,
          "time": 51.85179999999997,
          "velocity": 0.6299212598425197,
          "duration": 0.14814799999999906
        },
        {
          "name": "F#6",
          "midi": 90,
          "time": 51.85179999999997,
          "velocity": 0.6299212598425197,
          "duration": 0.14814799999999906
        },
        {
          "name": "D6",
          "midi": 86,
          "time": 51.85179999999997,
          "velocity": 0.6299212598425197,
          "duration": 0.14814799999999906
        },
        {
          "name": "G5",
          "midi": 79,
          "time": 52.036984999999966,
          "velocity": 0.6299212598425197,
          "duration": 0.14814799999999906
        },
        {
          "name": "E5",
          "midi": 76,
          "time": 52.036984999999966,
          "velocity": 0.6299212598425197,
          "duration": 0.14814799999999906
        },
        {
          "name": "G6",
          "midi": 91,
          "time": 52.036984999999966,
          "velocity": 0.6299212598425197,
          "duration": 0.14814799999999906
        },
        {
          "name": "E6",
          "midi": 88,
          "time": 52.036984999999966,
          "velocity": 0.6299212598425197,
          "duration": 0.14814799999999906
        },
        {
          "name": "D5",
          "midi": 74,
          "time": 52.22216999999996,
          "velocity": 0.6299212598425197,
          "duration": 0.14814799999999906
        },
        {
          "name": "F#5",
          "midi": 78,
          "time": 52.22216999999996,
          "velocity": 0.6299212598425197,
          "duration": 0.14814799999999906
        },
        {
          "name": "F#6",
          "midi": 90,
          "time": 52.22216999999996,
          "velocity": 0.6299212598425197,
          "duration": 0.14814799999999906
        },
        {
          "name": "D6",
          "midi": 86,
          "time": 52.22216999999996,
          "velocity": 0.6299212598425197,
          "duration": 0.14814799999999906
        },
        {
          "name": "C#6",
          "midi": 85,
          "time": 52.40735499999996,
          "velocity": 0.6299212598425197,
          "duration": 0.2962959999999981
        },
        {
          "name": "E5",
          "midi": 76,
          "time": 52.40735499999996,
          "velocity": 0.6299212598425197,
          "duration": 0.2962959999999981
        },
        {
          "name": "E6",
          "midi": 88,
          "time": 52.40735499999996,
          "velocity": 0.6299212598425197,
          "duration": 0.2962959999999981
        },
        {
          "name": "C#5",
          "midi": 73,
          "time": 52.40735499999996,
          "velocity": 0.6299212598425197,
          "duration": 0.2962959999999981
        },
        {
          "name": "B5",
          "midi": 83,
          "time": 52.77772499999996,
          "velocity": 0.6299212598425197,
          "duration": 0.2962959999999981
        },
        {
          "name": "B4",
          "midi": 71,
          "time": 52.77772499999996,
          "velocity": 0.6299212598425197,
          "duration": 0.2962959999999981
        },
        {
          "name": "D5",
          "midi": 74,
          "time": 52.77772499999996,
          "velocity": 0.6299212598425197,
          "duration": 0.2962959999999981
        },
        {
          "name": "D6",
          "midi": 86,
          "time": 52.77772499999996,
          "velocity": 0.6299212598425197,
          "duration": 0.2962959999999981
        },
        {
          "name": "C#5",
          "midi": 73,
          "time": 53.14809499999996,
          "velocity": 0.6299212598425197,
          "duration": 0.6296290000000013
        },
        {
          "name": "A5",
          "midi": 81,
          "time": 53.14809499999996,
          "velocity": 0.6299212598425197,
          "duration": 0.6296290000000013
        },
        {
          "name": "A4",
          "midi": 69,
          "time": 53.14809499999996,
          "velocity": 0.6299212598425197,
          "duration": 0.6296290000000013
        },
        {
          "name": "C#6",
          "midi": 85,
          "time": 53.14809499999996,
          "velocity": 0.6299212598425197,
          "duration": 0.6296290000000013
        },
        {
          "name": "B4",
          "midi": 71,
          "time": 53.888834999999965,
          "velocity": 0.6299212598425197,
          "duration": 0.14814799999999906
        },
        {
          "name": "B5",
          "midi": 83,
          "time": 53.888834999999965,
          "velocity": 0.6299212598425197,
          "duration": 0.14814799999999906
        },
        {
          "name": "D5",
          "midi": 74,
          "time": 53.888834999999965,
          "velocity": 0.6299212598425197,
          "duration": 0.14814799999999906
        },
        {
          "name": "D6",
          "midi": 86,
          "time": 53.888834999999965,
          "velocity": 0.6299212598425197,
          "duration": 0.14814799999999906
        },
        {
          "name": "G5",
          "midi": 79,
          "time": 54.07401999999996,
          "velocity": 0.6299212598425197,
          "duration": 0.5925920000000033
        },
        {
          "name": "B4",
          "midi": 71,
          "time": 54.07401999999996,
          "velocity": 0.6299212598425197,
          "duration": 0.5925920000000033
        },
        {
          "name": "G4",
          "midi": 67,
          "time": 54.07401999999996,
          "velocity": 0.6299212598425197,
          "duration": 0.5925920000000033
        },
        {
          "name": "B5",
          "midi": 83,
          "time": 54.07401999999996,
          "velocity": 0.6299212598425197,
          "duration": 0.5925920000000033
        },
        {
          "name": "G4",
          "midi": 67,
          "time": 54.814759999999964,
          "velocity": 0.6299212598425197,
          "duration": 0.07407400000000308
        },
        {
          "name": "B5",
          "midi": 83,
          "time": 54.814759999999964,
          "velocity": 0.6299212598425197,
          "duration": 0.07407400000000308
        },
        {
          "name": "G5",
          "midi": 79,
          "time": 54.814759999999964,
          "velocity": 0.6299212598425197,
          "duration": 0.07407400000000308
        },
        {
          "name": "B4",
          "midi": 71,
          "time": 54.814759999999964,
          "velocity": 0.6299212598425197,
          "duration": 0.07407400000000308
        },
        {
          "name": "A5",
          "midi": 81,
          "time": 54.907352499999966,
          "velocity": 0.6299212598425197,
          "duration": 0.07407400000000308
        },
        {
          "name": "A4",
          "midi": 69,
          "time": 54.907352499999966,
          "velocity": 0.6299212598425197,
          "duration": 0.07407400000000308
        },
        {
          "name": "F#5",
          "midi": 78,
          "time": 54.907352499999966,
          "velocity": 0.6299212598425197,
          "duration": 0.07407400000000308
        },
        {
          "name": "F#4",
          "midi": 66,
          "time": 54.907352499999966,
          "velocity": 0.6299212598425197,
          "duration": 0.07407400000000308
        },
        {
          "name": "B4",
          "midi": 71,
          "time": 54.99994499999997,
          "velocity": 0.6299212598425197,
          "duration": 0.07407400000000308
        },
        {
          "name": "G4",
          "midi": 67,
          "time": 54.99994499999997,
          "velocity": 0.6299212598425197,
          "duration": 0.07407400000000308
        },
        {
          "name": "G5",
          "midi": 79,
          "time": 54.99994499999997,
          "velocity": 0.6299212598425197,
          "duration": 0.07407400000000308
        },
        {
          "name": "B5",
          "midi": 83,
          "time": 54.99994499999997,
          "velocity": 0.6299212598425197,
          "duration": 0.07407400000000308
        },
        {
          "name": "A5",
          "midi": 81,
          "time": 55.09253749999997,
          "velocity": 0.6299212598425197,
          "duration": 0.07407400000000308
        },
        {
          "name": "C#6",
          "midi": 85,
          "time": 55.09253749999997,
          "velocity": 0.6299212598425197,
          "duration": 0.07407400000000308
        },
        {
          "name": "C#5",
          "midi": 73,
          "time": 55.09253749999997,
          "velocity": 0.6299212598425197,
          "duration": 0.07407400000000308
        },
        {
          "name": "A4",
          "midi": 69,
          "time": 55.09253749999997,
          "velocity": 0.6299212598425197,
          "duration": 0.07407400000000308
        },
        {
          "name": "B5",
          "midi": 83,
          "time": 55.18512999999997,
          "velocity": 0.6299212598425197,
          "duration": 0.07407400000000308
        },
        {
          "name": "D6",
          "midi": 86,
          "time": 55.18512999999997,
          "velocity": 0.6299212598425197,
          "duration": 0.07407400000000308
        },
        {
          "name": "D5",
          "midi": 74,
          "time": 55.18512999999997,
          "velocity": 0.6299212598425197,
          "duration": 0.07407400000000308
        },
        {
          "name": "B4",
          "midi": 71,
          "time": 55.18512999999997,
          "velocity": 0.6299212598425197,
          "duration": 0.07407400000000308
        },
        {
          "name": "C#6",
          "midi": 85,
          "time": 55.277722499999975,
          "velocity": 0.6299212598425197,
          "duration": 0.07407400000000308
        },
        {
          "name": "A4",
          "midi": 69,
          "time": 55.277722499999975,
          "velocity": 0.6299212598425197,
          "duration": 0.07407400000000308
        },
        {
          "name": "C#5",
          "midi": 73,
          "time": 55.277722499999975,
          "velocity": 0.6299212598425197,
          "duration": 0.07407400000000308
        },
        {
          "name": "A5",
          "midi": 81,
          "time": 55.277722499999975,
          "velocity": 0.6299212598425197,
          "duration": 0.07407400000000308
        },
        {
          "name": "B4",
          "midi": 71,
          "time": 55.37031499999998,
          "velocity": 0.6299212598425197,
          "duration": 0.07407400000000308
        },
        {
          "name": "B5",
          "midi": 83,
          "time": 55.37031499999998,
          "velocity": 0.6299212598425197,
          "duration": 0.07407400000000308
        },
        {
          "name": "D6",
          "midi": 86,
          "time": 55.37031499999998,
          "velocity": 0.6299212598425197,
          "duration": 0.07407400000000308
        },
        {
          "name": "D5",
          "midi": 74,
          "time": 55.37031499999998,
          "velocity": 0.6299212598425197,
          "duration": 0.07407400000000308
        },
        {
          "name": "C#6",
          "midi": 85,
          "time": 55.46290749999998,
          "velocity": 0.6299212598425197,
          "duration": 0.07407400000000308
        },
        {
          "name": "E5",
          "midi": 76,
          "time": 55.46290749999998,
          "velocity": 0.6299212598425197,
          "duration": 0.07407400000000308
        },
        {
          "name": "E6",
          "midi": 88,
          "time": 55.46290749999998,
          "velocity": 0.6299212598425197,
          "duration": 0.07407400000000308
        },
        {
          "name": "C#5",
          "midi": 73,
          "time": 55.46290749999998,
          "velocity": 0.6299212598425197,
          "duration": 0.07407400000000308
        },
        {
          "name": "D6",
          "midi": 86,
          "time": 55.55549999999998,
          "velocity": 0.6299212598425197,
          "duration": 0.07407400000000308
        },
        {
          "name": "D5",
          "midi": 74,
          "time": 55.55549999999998,
          "velocity": 0.6299212598425197,
          "duration": 0.07407400000000308
        },
        {
          "name": "F#6",
          "midi": 90,
          "time": 55.55549999999998,
          "velocity": 0.6299212598425197,
          "duration": 0.07407400000000308
        },
        {
          "name": "F#5",
          "midi": 78,
          "time": 55.55549999999998,
          "velocity": 0.6299212598425197,
          "duration": 0.07407400000000308
        },
        {
          "name": "C#5",
          "midi": 73,
          "time": 55.64809249999998,
          "velocity": 0.6299212598425197,
          "duration": 0.07407400000000308
        },
        {
          "name": "E6",
          "midi": 88,
          "time": 55.64809249999998,
          "velocity": 0.6299212598425197,
          "duration": 0.07407400000000308
        },
        {
          "name": "E5",
          "midi": 76,
          "time": 55.64809249999998,
          "velocity": 0.6299212598425197,
          "duration": 0.07407400000000308
        },
        {
          "name": "C#6",
          "midi": 85,
          "time": 55.64809249999998,
          "velocity": 0.6299212598425197,
          "duration": 0.07407400000000308
        },
        {
          "name": "D6",
          "midi": 86,
          "time": 55.740684999999985,
          "velocity": 0.6299212598425197,
          "duration": 0.07407400000000308
        },
        {
          "name": "D5",
          "midi": 74,
          "time": 55.740684999999985,
          "velocity": 0.6299212598425197,
          "duration": 0.07407400000000308
        },
        {
          "name": "F#6",
          "midi": 90,
          "time": 55.740684999999985,
          "velocity": 0.6299212598425197,
          "duration": 0.07407400000000308
        },
        {
          "name": "F#5",
          "midi": 78,
          "time": 55.740684999999985,
          "velocity": 0.6299212598425197,
          "duration": 0.07407400000000308
        },
        {
          "name": "E6",
          "midi": 88,
          "time": 55.83327749999999,
          "velocity": 0.6299212598425197,
          "duration": 0.07407400000000308
        },
        {
          "name": "G6",
          "midi": 91,
          "time": 55.83327749999999,
          "velocity": 0.6299212598425197,
          "duration": 0.07407400000000308
        },
        {
          "name": "E5",
          "midi": 76,
          "time": 55.83327749999999,
          "velocity": 0.6299212598425197,
          "duration": 0.07407400000000308
        },
        {
          "name": "G5",
          "midi": 79,
          "time": 55.83327749999999,
          "velocity": 0.6299212598425197,
          "duration": 0.07407400000000308
        },
        {
          "name": "F#6",
          "midi": 90,
          "time": 55.92586999999999,
          "velocity": 0.6299212598425197,
          "duration": 0.07407400000000308
        },
        {
          "name": "F#5",
          "midi": 78,
          "time": 55.92586999999999,
          "velocity": 0.6299212598425197,
          "duration": 0.07407400000000308
        },
        {
          "name": "A6",
          "midi": 93,
          "time": 55.92586999999999,
          "velocity": 0.6299212598425197,
          "duration": 0.07407400000000308
        },
        {
          "name": "A5",
          "midi": 81,
          "time": 55.92586999999999,
          "velocity": 0.6299212598425197,
          "duration": 0.07407400000000308
        },
        {
          "name": "G5",
          "midi": 79,
          "time": 56.01846249999999,
          "velocity": 0.6299212598425197,
          "duration": 0.07407400000000308
        },
        {
          "name": "E6",
          "midi": 88,
          "time": 56.01846249999999,
          "velocity": 0.6299212598425197,
          "duration": 0.07407400000000308
        },
        {
          "name": "E5",
          "midi": 76,
          "time": 56.01846249999999,
          "velocity": 0.6299212598425197,
          "duration": 0.07407400000000308
        },
        {
          "name": "G6",
          "midi": 91,
          "time": 56.01846249999999,
          "velocity": 0.6299212598425197,
          "duration": 0.07407400000000308
        },
        {
          "name": "D5",
          "midi": 74,
          "time": 56.11105499999999,
          "velocity": 0.6299212598425197,
          "duration": 0.07407400000000308
        },
        {
          "name": "D6",
          "midi": 86,
          "time": 56.11105499999999,
          "velocity": 0.6299212598425197,
          "duration": 0.07407400000000308
        },
        {
          "name": "F#6",
          "midi": 90,
          "time": 56.11105499999999,
          "velocity": 0.6299212598425197,
          "duration": 0.07407400000000308
        },
        {
          "name": "F#5",
          "midi": 78,
          "time": 56.11105499999999,
          "velocity": 0.6299212598425197,
          "duration": 0.07407400000000308
        },
        {
          "name": "E6",
          "midi": 88,
          "time": 56.203647499999995,
          "velocity": 0.6299212598425197,
          "duration": 0.07407400000000308
        },
        {
          "name": "C#6",
          "midi": 85,
          "time": 56.203647499999995,
          "velocity": 0.6299212598425197,
          "duration": 0.07407400000000308
        },
        {
          "name": "C#5",
          "midi": 73,
          "time": 56.203647499999995,
          "velocity": 0.6299212598425197,
          "duration": 0.07407400000000308
        },
        {
          "name": "E5",
          "midi": 76,
          "time": 56.203647499999995,
          "velocity": 0.6299212598425197,
          "duration": 0.07407400000000308
        },
        {
          "name": "B4",
          "midi": 71,
          "time": 70.925855,
          "velocity": 0.6299212598425197,
          "duration": 1.0740729999999985
        },
        {
          "name": "C#5",
          "midi": 73,
          "time": 72.036965,
          "velocity": 0.6299212598425197,
          "duration": 0.14814800000000616
        },
        {
          "name": "D5",
          "midi": 74,
          "time": 72.22215,
          "velocity": 0.6299212598425197,
          "duration": 0.14814800000000616
        },
        {
          "name": "C#5",
          "midi": 73,
          "time": 72.407335,
          "velocity": 0.6299212598425197,
          "duration": 0.5185180000000003
        },
        {
          "name": "E5",
          "midi": 76,
          "time": 72.96289,
          "velocity": 0.6299212598425197,
          "duration": 0.14814800000000616
        },
        {
          "name": "D5",
          "midi": 74,
          "time": 73.148075,
          "velocity": 0.6299212598425197,
          "duration": 0.34722187500000246
        },
        {
          "name": "C#5",
          "midi": 73,
          "time": 73.51844500000001,
          "velocity": 0.6299212598425197,
          "duration": 0.14814800000000616
        },
        {
          "name": "D5",
          "midi": 74,
          "time": 73.70363000000002,
          "velocity": 0.6299212598425197,
          "duration": 0.14814800000000616
        },
        {
          "name": "B4",
          "midi": 71,
          "time": 73.88881500000002,
          "velocity": 0.6299212598425197,
          "duration": 1.2222210000000047
        },
        {
          "name": "F#5",
          "midi": 78,
          "time": 75.18511000000002,
          "velocity": 0.6299212598425197,
          "duration": 0.14814800000000616
        },
        {
          "name": "E5",
          "midi": 76,
          "time": 75.37029500000003,
          "velocity": 0.6299212598425197,
          "duration": 0.5185180000000003
        },
        {
          "name": "D5",
          "midi": 74,
          "time": 75.92585000000003,
          "velocity": 0.6299212598425197,
          "duration": 0.14814800000000616
        },
        {
          "name": "C#5",
          "midi": 73,
          "time": 76.11103500000003,
          "velocity": 0.6299212598425197,
          "duration": 0.2962959999999981
        },
        {
          "name": "B4",
          "midi": 71,
          "time": 76.48140500000002,
          "velocity": 0.6299212598425197,
          "duration": 0.14814800000000616
        },
        {
          "name": "A4",
          "midi": 69,
          "time": 76.66659000000003,
          "velocity": 0.6299212598425197,
          "duration": 0.14814800000000616
        },
        {
          "name": "C#5",
          "midi": 73,
          "time": 76.85177500000003,
          "velocity": 0.6299212598425197,
          "duration": 0.14814800000000616
        },
        {
          "name": "B4",
          "midi": 71,
          "time": 77.03696000000004,
          "velocity": 0.6299212598425197,
          "duration": 0.915122541666662
        },
        {
          "name": "C#5",
          "midi": 73,
          "time": 77.96288500000003,
          "velocity": 0.6299212598425197,
          "duration": 0.14814800000000616
        },
        {
          "name": "D5",
          "midi": 74,
          "time": 78.14807000000003,
          "velocity": 0.6299212598425197,
          "duration": 0.14814800000000616
        },
        {
          "name": "C#5",
          "midi": 73,
          "time": 78.33325500000004,
          "velocity": 0.6299212598425197,
          "duration": 0.5185180000000003
        },
        {
          "name": "E5",
          "midi": 76,
          "time": 78.88881000000003,
          "velocity": 0.6299212598425197,
          "duration": 0.14814800000000616
        },
        {
          "name": "D5",
          "midi": 74,
          "time": 79.07399500000004,
          "velocity": 0.6299212598425197,
          "duration": 0.4444440000000043
        },
        {
          "name": "F#5",
          "midi": 78,
          "time": 79.62955000000004,
          "velocity": 0.6299212598425197,
          "duration": 0.14814800000000616
        },
        {
          "name": "G5",
          "midi": 79,
          "time": 79.81473500000004,
          "velocity": 0.6299212598425197,
          "duration": 1.2222210000000047
        },
        {
          "name": "D5",
          "midi": 74,
          "time": 81.11103000000004,
          "velocity": 0.6299212598425197,
          "duration": 0.14814800000000616
        },
        {
          "name": "E5",
          "midi": 76,
          "time": 81.29621500000005,
          "velocity": 0.6299212598425197,
          "duration": 0.48148100000000227
        },
        {
          "name": "D5",
          "midi": 74,
          "time": 81.85177000000004,
          "velocity": 0.6299212598425197,
          "duration": 0.14814800000000616
        },
        {
          "name": "C#5",
          "midi": 73,
          "time": 82.03695500000005,
          "velocity": 0.6299212598425197,
          "duration": 0.34722187500000246
        },
        {
          "name": "D5",
          "midi": 74,
          "time": 82.40732500000006,
          "velocity": 0.6299212598425197,
          "duration": 0.14814800000000616
        },
        {
          "name": "C#5",
          "midi": 73,
          "time": 82.59251000000006,
          "velocity": 0.6299212598425197,
          "duration": 0.2962959999999981
        },
        {
          "name": "C#6",
          "midi": 85,
          "time": 88.88880000000006,
          "velocity": 0.6299212598425197,
          "duration": 0.4444440000000043
        },
        {
          "name": "C#5",
          "midi": 73,
          "time": 88.88880000000006,
          "velocity": 0.6299212598425197,
          "duration": 0.4444440000000043
        },
        {
          "name": "A5",
          "midi": 81,
          "time": 89.44435500000006,
          "velocity": 0.6299212598425197,
          "duration": 0.14814800000000616
        },
        {
          "name": "A4",
          "midi": 69,
          "time": 89.44435500000006,
          "velocity": 0.6299212598425197,
          "duration": 0.14814800000000616
        },
        {
          "name": "B4",
          "midi": 71,
          "time": 89.62954000000006,
          "velocity": 0.6299212598425197,
          "duration": 1.2592580000000027
        },
        {
          "name": "B5",
          "midi": 83,
          "time": 89.62954000000006,
          "velocity": 0.6299212598425197,
          "duration": 1.2592580000000027
        },
        {
          "name": "F#5",
          "midi": 78,
          "time": 90.92583500000006,
          "velocity": 0.6299212598425197,
          "duration": 0.07407399999999598
        },
        {
          "name": "F#4",
          "midi": 66,
          "time": 90.92583500000006,
          "velocity": 0.6299212598425197,
          "duration": 0.07407399999999598
        },
        {
          "name": "B5",
          "midi": 83,
          "time": 91.01842750000006,
          "velocity": 0.6299212598425197,
          "duration": 0.07407399999999598
        },
        {
          "name": "B4",
          "midi": 71,
          "time": 91.01842750000006,
          "velocity": 0.6299212598425197,
          "duration": 0.07407399999999598
        },
        {
          "name": "C#5",
          "midi": 73,
          "time": 91.11102000000005,
          "velocity": 0.6299212598425197,
          "duration": 0.17438254166665956
        },
        {
          "name": "C#6",
          "midi": 85,
          "time": 91.11102000000005,
          "velocity": 0.6299212598425197,
          "duration": 0.17438254166665956
        },
        {
          "name": "D6",
          "midi": 86,
          "time": 91.29620500000004,
          "velocity": 0.6299212598425197,
          "duration": 0.17438254166665956
        },
        {
          "name": "D5",
          "midi": 74,
          "time": 91.29620500000004,
          "velocity": 0.6299212598425197,
          "duration": 0.17438254166665956
        },
        {
          "name": "E6",
          "midi": 88,
          "time": 91.48139000000003,
          "velocity": 0.6299212598425197,
          "duration": 0.17438254166665956
        },
        {
          "name": "E5",
          "midi": 76,
          "time": 91.48139000000003,
          "velocity": 0.6299212598425197,
          "duration": 0.17438254166665956
        },
        {
          "name": "C#5",
          "midi": 73,
          "time": 91.66657500000002,
          "velocity": 0.6299212598425197,
          "duration": 0.6296289999999942
        },
        {
          "name": "C#6",
          "midi": 85,
          "time": 91.66657500000002,
          "velocity": 0.6299212598425197,
          "duration": 0.6296289999999942
        },
        {
          "name": "A4",
          "midi": 69,
          "time": 92.40731500000001,
          "velocity": 0.6299212598425197,
          "duration": 0.14814800000000616
        },
        {
          "name": "A5",
          "midi": 81,
          "time": 92.40731500000001,
          "velocity": 0.6299212598425197,
          "duration": 0.14814800000000616
        },
        {
          "name": "B4",
          "midi": 71,
          "time": 92.59250000000002,
          "velocity": 0.6299212598425197,
          "duration": 1.9259239999999949
        },
        {
          "name": "B5",
          "midi": 83,
          "time": 92.59250000000002,
          "velocity": 0.6299212598425197,
          "duration": 1.9259239999999949
        },
        {
          "name": "D6",
          "midi": 86,
          "time": 94.81472000000001,
          "velocity": 0.6299212598425197,
          "duration": 0.14814800000000616
        },
        {
          "name": "D5",
          "midi": 74,
          "time": 94.81472000000001,
          "velocity": 0.6299212598425197,
          "duration": 0.14814800000000616
        },
        {
          "name": "C#5",
          "midi": 73,
          "time": 94.99990500000001,
          "velocity": 0.6299212598425197,
          "duration": 0.14814800000000616
        },
        {
          "name": "C#6",
          "midi": 85,
          "time": 94.99990500000001,
          "velocity": 0.6299212598425197,
          "duration": 0.14814800000000616
        },
        {
          "name": "D6",
          "midi": 86,
          "time": 95.18509000000002,
          "velocity": 0.6299212598425197,
          "duration": 0.14814800000000616
        },
        {
          "name": "D5",
          "midi": 74,
          "time": 95.18509000000002,
          "velocity": 0.6299212598425197,
          "duration": 0.14814800000000616
        },
        {
          "name": "E5",
          "midi": 76,
          "time": 95.37027500000002,
          "velocity": 0.6299212598425197,
          "duration": 0.14814800000000616
        },
        {
          "name": "E6",
          "midi": 88,
          "time": 95.37027500000002,
          "velocity": 0.6299212598425197,
          "duration": 0.14814800000000616
        },
        {
          "name": "F#5",
          "midi": 78,
          "time": 95.55546000000002,
          "velocity": 0.6299212598425197,
          "duration": 0.14814800000000616
        },
        {
          "name": "F#6",
          "midi": 90,
          "time": 95.55546000000002,
          "velocity": 0.6299212598425197,
          "duration": 0.14814800000000616
        },
        {
          "name": "B5",
          "midi": 83,
          "time": 95.74064500000003,
          "velocity": 0.6299212598425197,
          "duration": 0.14814800000000616
        },
        {
          "name": "B4",
          "midi": 71,
          "time": 95.74064500000003,
          "velocity": 0.6299212598425197,
          "duration": 0.14814800000000616
        },
        {
          "name": "F#6",
          "midi": 90,
          "time": 95.92583000000003,
          "velocity": 0.6299212598425197,
          "duration": 0.14814800000000616
        },
        {
          "name": "F#5",
          "midi": 78,
          "time": 95.92583000000003,
          "velocity": 0.6299212598425197,
          "duration": 0.14814800000000616
        },
        {
          "name": "F#6",
          "midi": 90,
          "time": 96.11101500000004,
          "velocity": 0.6299212598425197,
          "duration": 0.2962959999999981
        },
        {
          "name": "F#5",
          "midi": 78,
          "time": 96.11101500000004,
          "velocity": 0.6299212598425197,
          "duration": 0.2962959999999981
        },
        {
          "name": "E6",
          "midi": 88,
          "time": 96.4196566666667,
          "velocity": 0.6299212598425197,
          "duration": 0.0987653333333327
        },
        {
          "name": "E5",
          "midi": 76,
          "time": 96.4196566666667,
          "velocity": 0.6299212598425197,
          "duration": 0.0987653333333327
        },
        {
          "name": "D6",
          "midi": 86,
          "time": 96.54311333333337,
          "velocity": 0.6299212598425197,
          "duration": 0.0987653333333327
        },
        {
          "name": "D5",
          "midi": 74,
          "time": 96.54311333333337,
          "velocity": 0.6299212598425197,
          "duration": 0.0987653333333327
        },
        {
          "name": "E5",
          "midi": 76,
          "time": 96.66657000000004,
          "velocity": 0.6299212598425197,
          "duration": 0.0987653333333327
        },
        {
          "name": "E6",
          "midi": 88,
          "time": 96.66657000000004,
          "velocity": 0.6299212598425197,
          "duration": 0.0987653333333327
        },
        {
          "name": "D6",
          "midi": 86,
          "time": 96.7900266666667,
          "velocity": 0.6299212598425197,
          "duration": 0.0987653333333327
        },
        {
          "name": "D5",
          "midi": 74,
          "time": 96.7900266666667,
          "velocity": 0.6299212598425197,
          "duration": 0.0987653333333327
        },
        {
          "name": "C#6",
          "midi": 85,
          "time": 96.91348333333337,
          "velocity": 0.6299212598425197,
          "duration": 0.0987653333333327
        },
        {
          "name": "C#5",
          "midi": 73,
          "time": 96.91348333333337,
          "velocity": 0.6299212598425197,
          "duration": 0.0987653333333327
        },
        {
          "name": "D6",
          "midi": 86,
          "time": 97.03694000000004,
          "velocity": 0.6299212598425197,
          "duration": 0.0987653333333327
        },
        {
          "name": "D5",
          "midi": 74,
          "time": 97.03694000000004,
          "velocity": 0.6299212598425197,
          "duration": 0.0987653333333327
        },
        {
          "name": "C#5",
          "midi": 73,
          "time": 97.16039666666671,
          "velocity": 0.6299212598425197,
          "duration": 0.0987653333333327
        },
        {
          "name": "C#6",
          "midi": 85,
          "time": 97.16039666666671,
          "velocity": 0.6299212598425197,
          "duration": 0.0987653333333327
        },
        {
          "name": "B4",
          "midi": 71,
          "time": 97.28385333333338,
          "velocity": 0.6299212598425197,
          "duration": 0.0987653333333327
        },
        {
          "name": "B5",
          "midi": 83,
          "time": 97.28385333333338,
          "velocity": 0.6299212598425197,
          "duration": 0.0987653333333327
        },
        {
          "name": "C#5",
          "midi": 73,
          "time": 97.40731000000005,
          "velocity": 0.6299212598425197,
          "duration": 0.0987653333333327
        },
        {
          "name": "C#6",
          "midi": 85,
          "time": 97.40731000000005,
          "velocity": 0.6299212598425197,
          "duration": 0.0987653333333327
        },
        {
          "name": "B4",
          "midi": 71,
          "time": 97.53076666666672,
          "velocity": 0.6299212598425197,
          "duration": 0.0987653333333327
        },
        {
          "name": "B5",
          "midi": 83,
          "time": 97.53076666666672,
          "velocity": 0.6299212598425197,
          "duration": 0.0987653333333327
        },
        {
          "name": "A4",
          "midi": 69,
          "time": 97.65422333333339,
          "velocity": 0.6299212598425197,
          "duration": 0.0987653333333327
        },
        {
          "name": "A5",
          "midi": 81,
          "time": 97.65422333333339,
          "velocity": 0.6299212598425197,
          "duration": 0.0987653333333327
        },
        {
          "name": "B4",
          "midi": 71,
          "time": 97.77768000000006,
          "velocity": 0.6299212598425197,
          "duration": 0.2962959999999981
        },
        {
          "name": "B5",
          "midi": 83,
          "time": 97.77768000000006,
          "velocity": 0.6299212598425197,
          "duration": 0.2962959999999981
        },
        {
          "name": "C#5",
          "midi": 73,
          "time": 98.14805000000005,
          "velocity": 0.6299212598425197,
          "duration": 0.2962959999999981
        },
        {
          "name": "C#6",
          "midi": 85,
          "time": 98.14805000000005,
          "velocity": 0.6299212598425197,
          "duration": 0.2962959999999981
        },
        {
          "name": "D6",
          "midi": 86,
          "time": 98.51842000000005,
          "velocity": 0.6299212598425197,
          "duration": 0.14814800000000616
        },
        {
          "name": "D5",
          "midi": 74,
          "time": 98.51842000000005,
          "velocity": 0.6299212598425197,
          "duration": 0.14814800000000616
        },
        {
          "name": "C#5",
          "midi": 73,
          "time": 98.70360500000005,
          "velocity": 0.6299212598425197,
          "duration": 0.14814800000000616
        },
        {
          "name": "C#6",
          "midi": 85,
          "time": 98.70360500000005,
          "velocity": 0.6299212598425197,
          "duration": 0.14814800000000616
        },
        {
          "name": "D6",
          "midi": 86,
          "time": 98.88879000000006,
          "velocity": 0.6299212598425197,
          "duration": 0.14814800000000616
        },
        {
          "name": "D5",
          "midi": 74,
          "time": 98.88879000000006,
          "velocity": 0.6299212598425197,
          "duration": 0.14814800000000616
        },
        {
          "name": "F#6",
          "midi": 90,
          "time": 99.07397500000006,
          "velocity": 0.6299212598425197,
          "duration": 0.07407399999999598
        },
        {
          "name": "F#5",
          "midi": 78,
          "time": 99.07397500000006,
          "velocity": 0.6299212598425197,
          "duration": 0.07407399999999598
        },
        {
          "name": "E5",
          "midi": 76,
          "time": 99.16656750000006,
          "velocity": 0.6299212598425197,
          "duration": 0.07407399999999598
        },
        {
          "name": "E6",
          "midi": 88,
          "time": 99.16656750000006,
          "velocity": 0.6299212598425197,
          "duration": 0.07407399999999598
        },
        {
          "name": "F#5",
          "midi": 78,
          "time": 99.25916000000005,
          "velocity": 0.6299212598425197,
          "duration": 0.17438254166667377
        },
        {
          "name": "F#6",
          "midi": 90,
          "time": 99.25916000000005,
          "velocity": 0.6299212598425197,
          "duration": 0.17438254166667377
        },
        {
          "name": "B5",
          "midi": 83,
          "time": 99.44434500000006,
          "velocity": 0.6299212598425197,
          "duration": 0.14814800000000616
        },
        {
          "name": "B4",
          "midi": 71,
          "time": 99.44434500000006,
          "velocity": 0.6299212598425197,
          "duration": 0.14814800000000616
        },
        {
          "name": "E6",
          "midi": 88,
          "time": 99.62953000000006,
          "velocity": 0.6299212598425197,
          "duration": 0.14814800000000616
        },
        {
          "name": "E5",
          "midi": 76,
          "time": 99.62953000000006,
          "velocity": 0.6299212598425197,
          "duration": 0.14814800000000616
        },
        {
          "name": "B4",
          "midi": 71,
          "time": 99.81471500000006,
          "velocity": 0.6299212598425197,
          "duration": 0.14814800000000616
        },
        {
          "name": "B5",
          "midi": 83,
          "time": 99.81471500000006,
          "velocity": 0.6299212598425197,
          "duration": 0.14814800000000616
        },
        {
          "name": "D5",
          "midi": 74,
          "time": 99.99990000000007,
          "velocity": 0.6299212598425197,
          "duration": 0.14814800000000616
        },
        {
          "name": "D6",
          "midi": 86,
          "time": 99.99990000000007,
          "velocity": 0.6299212598425197,
          "duration": 0.14814800000000616
        },
        {
          "name": "E5",
          "midi": 76,
          "time": 100.18508500000007,
          "velocity": 0.6299212598425197,
          "duration": 0.14814800000000616
        },
        {
          "name": "E6",
          "midi": 88,
          "time": 100.18508500000007,
          "velocity": 0.6299212598425197,
          "duration": 0.14814800000000616
        },
        {
          "name": "C#6",
          "midi": 85,
          "time": 100.37027000000008,
          "velocity": 0.6299212598425197,
          "duration": 0.2962959999999981
        },
        {
          "name": "C#5",
          "midi": 73,
          "time": 100.37027000000008,
          "velocity": 0.6299212598425197,
          "duration": 0.2962959999999981
        },
        {
          "name": "B5",
          "midi": 83,
          "time": 100.74064000000007,
          "velocity": 0.6299212598425197,
          "duration": 0.14814800000000616
        },
        {
          "name": "D5",
          "midi": 74,
          "time": 100.74064000000007,
          "velocity": 0.6299212598425197,
          "duration": 0.14814800000000616
        },
        {
          "name": "B4",
          "midi": 71,
          "time": 100.74064000000007,
          "velocity": 0.6299212598425197,
          "duration": 0.14814800000000616
        },
        {
          "name": "D6",
          "midi": 86,
          "time": 100.74064000000007,
          "velocity": 0.6299212598425197,
          "duration": 0.14814800000000616
        },
        {
          "name": "C#5",
          "midi": 73,
          "time": 100.92582500000007,
          "velocity": 0.6299212598425197,
          "duration": 0.14814800000000616
        },
        {
          "name": "C#6",
          "midi": 85,
          "time": 100.92582500000007,
          "velocity": 0.6299212598425197,
          "duration": 0.14814800000000616
        },
        {
          "name": "E5",
          "midi": 76,
          "time": 100.92582500000007,
          "velocity": 0.6299212598425197,
          "duration": 0.14814800000000616
        },
        {
          "name": "E6",
          "midi": 88,
          "time": 100.92582500000007,
          "velocity": 0.6299212598425197,
          "duration": 0.14814800000000616
        },
        {
          "name": "C#5",
          "midi": 73,
          "time": 101.11101000000008,
          "velocity": 0.6299212598425197,
          "duration": 0.14814800000000616
        },
        {
          "name": "C#6",
          "midi": 85,
          "time": 101.11101000000008,
          "velocity": 0.6299212598425197,
          "duration": 0.14814800000000616
        },
        {
          "name": "A5",
          "midi": 81,
          "time": 101.11101000000008,
          "velocity": 0.6299212598425197,
          "duration": 0.14814800000000616
        },
        {
          "name": "A4",
          "midi": 69,
          "time": 101.11101000000008,
          "velocity": 0.6299212598425197,
          "duration": 0.14814800000000616
        },
        {
          "name": "B4",
          "midi": 71,
          "time": 101.29619500000008,
          "velocity": 0.6299212598425197,
          "duration": 0.14814800000000616
        },
        {
          "name": "B5",
          "midi": 83,
          "time": 101.29619500000008,
          "velocity": 0.6299212598425197,
          "duration": 0.14814800000000616
        },
        {
          "name": "D5",
          "midi": 74,
          "time": 101.29619500000008,
          "velocity": 0.6299212598425197,
          "duration": 0.14814800000000616
        },
        {
          "name": "D6",
          "midi": 86,
          "time": 101.29619500000008,
          "velocity": 0.6299212598425197,
          "duration": 0.14814800000000616
        },
        {
          "name": "F#5",
          "midi": 78,
          "time": 101.48138000000009,
          "velocity": 0.6299212598425197,
          "duration": 0.14814800000000616
        },
        {
          "name": "B4",
          "midi": 71,
          "time": 101.48138000000009,
          "velocity": 0.6299212598425197,
          "duration": 0.14814800000000616
        },
        {
          "name": "F#4",
          "midi": 66,
          "time": 101.48138000000009,
          "velocity": 0.6299212598425197,
          "duration": 0.14814800000000616
        },
        {
          "name": "B5",
          "midi": 83,
          "time": 101.48138000000009,
          "velocity": 0.6299212598425197,
          "duration": 0.14814800000000616
        },
        {
          "name": "C#5",
          "midi": 73,
          "time": 101.66656500000009,
          "velocity": 0.6299212598425197,
          "duration": 0.14814800000000616
        },
        {
          "name": "A5",
          "midi": 81,
          "time": 101.66656500000009,
          "velocity": 0.6299212598425197,
          "duration": 0.14814800000000616
        },
        {
          "name": "C#6",
          "midi": 85,
          "time": 101.66656500000009,
          "velocity": 0.6299212598425197,
          "duration": 0.14814800000000616
        },
        {
          "name": "A4",
          "midi": 69,
          "time": 101.66656500000009,
          "velocity": 0.6299212598425197,
          "duration": 0.14814800000000616
        },
        {
          "name": "E5",
          "midi": 76,
          "time": 101.8517500000001,
          "velocity": 0.6299212598425197,
          "duration": 0.14814800000000616
        },
        {
          "name": "A4",
          "midi": 69,
          "time": 101.8517500000001,
          "velocity": 0.6299212598425197,
          "duration": 0.14814800000000616
        },
        {
          "name": "E4",
          "midi": 64,
          "time": 101.8517500000001,
          "velocity": 0.6299212598425197,
          "duration": 0.14814800000000616
        },
        {
          "name": "A5",
          "midi": 81,
          "time": 101.8517500000001,
          "velocity": 0.6299212598425197,
          "duration": 0.14814800000000616
        },
        {
          "name": "F#5",
          "midi": 78,
          "time": 102.0369350000001,
          "velocity": 0.6299212598425197,
          "duration": 0.3333329999999961
        },
        {
          "name": "B4",
          "midi": 71,
          "time": 102.0369350000001,
          "velocity": 0.6299212598425197,
          "duration": 0.3333329999999961
        },
        {
          "name": "B5",
          "midi": 83,
          "time": 102.0369350000001,
          "velocity": 0.6299212598425197,
          "duration": 0.3333329999999961
        },
        {
          "name": "F#4",
          "midi": 66,
          "time": 102.0369350000001,
          "velocity": 0.6299212598425197,
          "duration": 0.3333329999999961
        },
        {
          "name": "F#5",
          "midi": 78,
          "time": 102.4073050000001,
          "velocity": 0.6299212598425197,
          "duration": 0.07407399999999598
        },
        {
          "name": "D5",
          "midi": 74,
          "time": 102.4073050000001,
          "velocity": 0.6299212598425197,
          "duration": 0.07407399999999598
        },
        {
          "name": "D4",
          "midi": 62,
          "time": 102.4073050000001,
          "velocity": 0.6299212598425197,
          "duration": 0.07407399999999598
        },
        {
          "name": "F#4",
          "midi": 66,
          "time": 102.4073050000001,
          "velocity": 0.6299212598425197,
          "duration": 0.07407399999999598
        },
        {
          "name": "F#5",
          "midi": 78,
          "time": 102.49989750000009,
          "velocity": 0.6299212598425197,
          "duration": 0.07407399999999598
        },
        {
          "name": "F#4",
          "midi": 66,
          "time": 102.49989750000009,
          "velocity": 0.6299212598425197,
          "duration": 0.07407399999999598
        },
        {
          "name": "B4",
          "midi": 71,
          "time": 102.49989750000009,
          "velocity": 0.6299212598425197,
          "duration": 0.07407399999999598
        },
        {
          "name": "B5",
          "midi": 83,
          "time": 102.49989750000009,
          "velocity": 0.6299212598425197,
          "duration": 0.07407399999999598
        },
        {
          "name": "B5",
          "midi": 83,
          "time": 102.59249000000008,
          "velocity": 0.6299212598425197,
          "duration": 0.14814800000000616
        },
        {
          "name": "D5",
          "midi": 74,
          "time": 102.59249000000008,
          "velocity": 0.6299212598425197,
          "duration": 0.14814800000000616
        },
        {
          "name": "D6",
          "midi": 86,
          "time": 102.59249000000008,
          "velocity": 0.6299212598425197,
          "duration": 0.14814800000000616
        },
        {
          "name": "B4",
          "midi": 71,
          "time": 102.59249000000008,
          "velocity": 0.6299212598425197,
          "duration": 0.14814800000000616
        },
        {
          "name": "D4",
          "midi": 62,
          "time": 102.77767500000009,
          "velocity": 0.6299212598425197,
          "duration": 0.07407399999999598
        },
        {
          "name": "F#4",
          "midi": 66,
          "time": 102.77767500000009,
          "velocity": 0.6299212598425197,
          "duration": 0.07407399999999598
        },
        {
          "name": "D5",
          "midi": 74,
          "time": 102.77767500000009,
          "velocity": 0.6299212598425197,
          "duration": 0.07407399999999598
        },
        {
          "name": "F#5",
          "midi": 78,
          "time": 102.77767500000009,
          "velocity": 0.6299212598425197,
          "duration": 0.07407399999999598
        },
        {
          "name": "B5",
          "midi": 83,
          "time": 102.87026750000008,
          "velocity": 0.6299212598425197,
          "duration": 0.07407399999999598
        },
        {
          "name": "B4",
          "midi": 71,
          "time": 102.87026750000008,
          "velocity": 0.6299212598425197,
          "duration": 0.07407399999999598
        },
        {
          "name": "F#4",
          "midi": 66,
          "time": 102.87026750000008,
          "velocity": 0.6299212598425197,
          "duration": 0.07407399999999598
        },
        {
          "name": "F#5",
          "midi": 78,
          "time": 102.87026750000008,
          "velocity": 0.6299212598425197,
          "duration": 0.07407399999999598
        },
        {
          "name": "C#6",
          "midi": 85,
          "time": 102.96286000000008,
          "velocity": 0.6299212598425197,
          "duration": 0.14814800000000616
        },
        {
          "name": "E5",
          "midi": 76,
          "time": 102.96286000000008,
          "velocity": 0.6299212598425197,
          "duration": 0.14814800000000616
        },
        {
          "name": "C#5",
          "midi": 73,
          "time": 102.96286000000008,
          "velocity": 0.6299212598425197,
          "duration": 0.14814800000000616
        },
        {
          "name": "E6",
          "midi": 88,
          "time": 102.96286000000008,
          "velocity": 0.6299212598425197,
          "duration": 0.14814800000000616
        },
        {
          "name": "D6",
          "midi": 86,
          "time": 103.14804500000008,
          "velocity": 0.6299212598425197,
          "duration": 0.14814800000000616
        },
        {
          "name": "B5",
          "midi": 83,
          "time": 103.14804500000008,
          "velocity": 0.6299212598425197,
          "duration": 0.14814800000000616
        },
        {
          "name": "B4",
          "midi": 71,
          "time": 103.14804500000008,
          "velocity": 0.6299212598425197,
          "duration": 0.14814800000000616
        },
        {
          "name": "D5",
          "midi": 74,
          "time": 103.14804500000008,
          "velocity": 0.6299212598425197,
          "duration": 0.14814800000000616
        },
        {
          "name": "C#6",
          "midi": 85,
          "time": 103.33323000000009,
          "velocity": 0.6299212598425197,
          "duration": 0.14814800000000616
        },
        {
          "name": "E6",
          "midi": 88,
          "time": 103.33323000000009,
          "velocity": 0.6299212598425197,
          "duration": 0.14814800000000616
        },
        {
          "name": "E5",
          "midi": 76,
          "time": 103.33323000000009,
          "velocity": 0.6299212598425197,
          "duration": 0.14814800000000616
        },
        {
          "name": "C#5",
          "midi": 73,
          "time": 103.33323000000009,
          "velocity": 0.6299212598425197,
          "duration": 0.14814800000000616
        },
        {
          "name": "F#5",
          "midi": 78,
          "time": 103.51841500000009,
          "velocity": 0.6299212598425197,
          "duration": 0.5447525416666679
        },
        {
          "name": "F#6",
          "midi": 90,
          "time": 103.51841500000009,
          "velocity": 0.6299212598425197,
          "duration": 0.5447525416666679
        },
        {
          "name": "D6",
          "midi": 86,
          "time": 103.51841500000009,
          "velocity": 0.6299212598425197,
          "duration": 0.5447525416666679
        },
        {
          "name": "D5",
          "midi": 74,
          "time": 103.51841500000009,
          "velocity": 0.6299212598425197,
          "duration": 0.5447525416666679
        },
        {
          "name": "G6",
          "midi": 91,
          "time": 104.07397000000009,
          "velocity": 0.6299212598425197,
          "duration": 0.14814800000000616
        },
        {
          "name": "E6",
          "midi": 88,
          "time": 104.07397000000009,
          "velocity": 0.6299212598425197,
          "duration": 0.14814800000000616
        },
        {
          "name": "E5",
          "midi": 76,
          "time": 104.07397000000009,
          "velocity": 0.6299212598425197,
          "duration": 0.14814800000000616
        },
        {
          "name": "G5",
          "midi": 79,
          "time": 104.07397000000009,
          "velocity": 0.6299212598425197,
          "duration": 0.14814800000000616
        },
        {
          "name": "F#5",
          "midi": 78,
          "time": 104.25915500000009,
          "velocity": 0.6299212598425197,
          "duration": 2.111108999999999
        },
        {
          "name": "D5",
          "midi": 74,
          "time": 104.25915500000009,
          "velocity": 0.6299212598425197,
          "duration": 2.111108999999999
        },
        {
          "name": "F#6",
          "midi": 90,
          "time": 104.25915500000009,
          "velocity": 0.6299212598425197,
          "duration": 2.111108999999999
        },
        {
          "name": "D6",
          "midi": 86,
          "time": 104.25915500000009,
          "velocity": 0.6299212598425197,
          "duration": 0.8888879999999943
        },
        {
          "name": "D6",
          "midi": 86,
          "time": 105.18508000000008,
          "velocity": 0.6299212598425197,
          "duration": 1.1851840000000067
        },
        {
          "name": "B5",
          "midi": 83,
          "time": 106.66656000000009,
          "velocity": 0.6299212598425197,
          "duration": 0.14814800000000616
        },
        {
          "name": "D5",
          "midi": 74,
          "time": 106.66656000000009,
          "velocity": 0.6299212598425197,
          "duration": 0.14814800000000616
        },
        {
          "name": "B4",
          "midi": 71,
          "time": 106.66656000000009,
          "velocity": 0.6299212598425197,
          "duration": 0.14814800000000616
        },
        {
          "name": "D6",
          "midi": 86,
          "time": 106.66656000000009,
          "velocity": 0.6299212598425197,
          "duration": 0.14814800000000616
        },
        {
          "name": "B5",
          "midi": 83,
          "time": 106.8517450000001,
          "velocity": 0.6299212598425197,
          "duration": 0.14814800000000616
        },
        {
          "name": "F#4",
          "midi": 66,
          "time": 106.8517450000001,
          "velocity": 0.6299212598425197,
          "duration": 0.14814800000000616
        },
        {
          "name": "F#5",
          "midi": 78,
          "time": 106.8517450000001,
          "velocity": 0.6299212598425197,
          "duration": 0.14814800000000616
        },
        {
          "name": "B4",
          "midi": 71,
          "time": 106.8517450000001,
          "velocity": 0.6299212598425197,
          "duration": 0.14814800000000616
        },
        {
          "name": "B4",
          "midi": 71,
          "time": 107.2221150000001,
          "velocity": 0.6299212598425197,
          "duration": 0.07407399999999598
        },
        {
          "name": "F#5",
          "midi": 78,
          "time": 107.2221150000001,
          "velocity": 0.6299212598425197,
          "duration": 0.07407399999999598
        },
        {
          "name": "F#4",
          "midi": 66,
          "time": 107.2221150000001,
          "velocity": 0.6299212598425197,
          "duration": 0.07407399999999598
        },
        {
          "name": "B5",
          "midi": 83,
          "time": 107.2221150000001,
          "velocity": 0.6299212598425197,
          "duration": 0.07407399999999598
        },
        {
          "name": "C#5",
          "midi": 73,
          "time": 107.3147075000001,
          "velocity": 0.6299212598425197,
          "duration": 0.07407399999999598
        },
        {
          "name": "A4",
          "midi": 69,
          "time": 107.3147075000001,
          "velocity": 0.6299212598425197,
          "duration": 0.07407399999999598
        },
        {
          "name": "A5",
          "midi": 81,
          "time": 107.3147075000001,
          "velocity": 0.6299212598425197,
          "duration": 0.07407399999999598
        },
        {
          "name": "C#6",
          "midi": 85,
          "time": 107.3147075000001,
          "velocity": 0.6299212598425197,
          "duration": 0.07407399999999598
        },
        {
          "name": "B5",
          "midi": 83,
          "time": 107.40730000000009,
          "velocity": 0.6299212598425197,
          "duration": 0.14814800000000616
        },
        {
          "name": "D5",
          "midi": 74,
          "time": 107.40730000000009,
          "velocity": 0.6299212598425197,
          "duration": 0.14814800000000616
        },
        {
          "name": "D6",
          "midi": 86,
          "time": 107.40730000000009,
          "velocity": 0.6299212598425197,
          "duration": 0.14814800000000616
        },
        {
          "name": "B4",
          "midi": 71,
          "time": 107.40730000000009,
          "velocity": 0.6299212598425197,
          "duration": 0.14814800000000616
        },
        {
          "name": "F#4",
          "midi": 66,
          "time": 107.5924850000001,
          "velocity": 0.6299212598425197,
          "duration": 0.07407399999999598
        },
        {
          "name": "B4",
          "midi": 71,
          "time": 107.5924850000001,
          "velocity": 0.6299212598425197,
          "duration": 0.07407399999999598
        },
        {
          "name": "F#5",
          "midi": 78,
          "time": 107.5924850000001,
          "velocity": 0.6299212598425197,
          "duration": 0.07407399999999598
        },
        {
          "name": "B5",
          "midi": 83,
          "time": 107.5924850000001,
          "velocity": 0.6299212598425197,
          "duration": 0.07407399999999598
        },
        {
          "name": "A5",
          "midi": 81,
          "time": 107.77767000000009,
          "velocity": 0.6299212598425197,
          "duration": 0.07407399999999598
        },
        {
          "name": "C#5",
          "midi": 73,
          "time": 107.77767000000009,
          "velocity": 0.6299212598425197,
          "duration": 0.07407399999999598
        },
        {
          "name": "C#6",
          "midi": 85,
          "time": 107.77767000000009,
          "velocity": 0.6299212598425197,
          "duration": 0.07407399999999598
        },
        {
          "name": "A4",
          "midi": 69,
          "time": 107.77767000000009,
          "velocity": 0.6299212598425197,
          "duration": 0.07407399999999598
        },
        {
          "name": "D5",
          "midi": 74,
          "time": 107.87026250000008,
          "velocity": 0.6299212598425197,
          "duration": 0.14814800000000616
        },
        {
          "name": "D6",
          "midi": 86,
          "time": 107.87026250000008,
          "velocity": 0.6299212598425197,
          "duration": 0.14814800000000616
        },
        {
          "name": "B4",
          "midi": 71,
          "time": 107.87026250000008,
          "velocity": 0.6299212598425197,
          "duration": 0.14814800000000616
        },
        {
          "name": "B5",
          "midi": 83,
          "time": 107.87026250000008,
          "velocity": 0.6299212598425197,
          "duration": 0.14814800000000616
        },
        {
          "name": "C#6",
          "midi": 85,
          "time": 108.05544750000008,
          "velocity": 0.6299212598425197,
          "duration": 0.14814799999999195
        },
        {
          "name": "C#5",
          "midi": 73,
          "time": 108.05544750000008,
          "velocity": 0.6299212598425197,
          "duration": 0.14814799999999195
        },
        {
          "name": "E5",
          "midi": 76,
          "time": 108.05544750000008,
          "velocity": 0.6299212598425197,
          "duration": 0.14814799999999195
        },
        {
          "name": "E6",
          "midi": 88,
          "time": 108.05544750000008,
          "velocity": 0.6299212598425197,
          "duration": 0.14814799999999195
        },
        {
          "name": "D5",
          "midi": 74,
          "time": 108.14804000000008,
          "velocity": 0.6299212598425197,
          "duration": 0.14814799999999195
        },
        {
          "name": "F#5",
          "midi": 78,
          "time": 108.14804000000008,
          "velocity": 0.6299212598425197,
          "duration": 0.14814799999999195
        },
        {
          "name": "F#6",
          "midi": 90,
          "time": 108.14804000000008,
          "velocity": 0.6299212598425197,
          "duration": 0.14814799999999195
        },
        {
          "name": "D6",
          "midi": 86,
          "time": 108.14804000000008,
          "velocity": 0.6299212598425197,
          "duration": 0.14814799999999195
        },
        {
          "name": "G5",
          "midi": 79,
          "time": 108.33322500000007,
          "velocity": 0.6299212598425197,
          "duration": 0.14814800000000616
        },
        {
          "name": "G6",
          "midi": 91,
          "time": 108.33322500000007,
          "velocity": 0.6299212598425197,
          "duration": 0.14814800000000616
        },
        {
          "name": "E5",
          "midi": 76,
          "time": 108.33322500000007,
          "velocity": 0.6299212598425197,
          "duration": 0.14814800000000616
        },
        {
          "name": "E6",
          "midi": 88,
          "time": 108.33322500000007,
          "velocity": 0.6299212598425197,
          "duration": 0.14814800000000616
        },
        {
          "name": "F#6",
          "midi": 90,
          "time": 108.51841000000007,
          "velocity": 0.6299212598425197,
          "duration": 0.14814800000000616
        },
        {
          "name": "F#5",
          "midi": 78,
          "time": 108.51841000000007,
          "velocity": 0.6299212598425197,
          "duration": 0.14814800000000616
        },
        {
          "name": "D5",
          "midi": 74,
          "time": 108.51841000000007,
          "velocity": 0.6299212598425197,
          "duration": 0.14814800000000616
        },
        {
          "name": "D6",
          "midi": 86,
          "time": 108.51841000000007,
          "velocity": 0.6299212598425197,
          "duration": 0.14814800000000616
        },
        {
          "name": "E6",
          "midi": 88,
          "time": 108.70359500000008,
          "velocity": 0.6299212598425197,
          "duration": 0.2962959999999981
        },
        {
          "name": "C#5",
          "midi": 73,
          "time": 108.70359500000008,
          "velocity": 0.6299212598425197,
          "duration": 0.2962959999999981
        },
        {
          "name": "C#6",
          "midi": 85,
          "time": 108.70359500000008,
          "velocity": 0.6299212598425197,
          "duration": 0.2962959999999981
        },
        {
          "name": "E5",
          "midi": 76,
          "time": 108.70359500000008,
          "velocity": 0.6299212598425197,
          "duration": 0.2962959999999981
        },
        {
          "name": "B4",
          "midi": 71,
          "time": 109.07396500000007,
          "velocity": 0.6299212598425197,
          "duration": 0.2962959999999981
        },
        {
          "name": "B5",
          "midi": 83,
          "time": 109.07396500000007,
          "velocity": 0.6299212598425197,
          "duration": 0.2962959999999981
        },
        {
          "name": "D5",
          "midi": 74,
          "time": 109.07396500000007,
          "velocity": 0.6299212598425197,
          "duration": 0.2962959999999981
        },
        {
          "name": "D6",
          "midi": 86,
          "time": 109.07396500000007,
          "velocity": 0.6299212598425197,
          "duration": 0.2962959999999981
        },
        {
          "name": "C#6",
          "midi": 85,
          "time": 109.44433500000007,
          "velocity": 0.6299212598425197,
          "duration": 0.6296289999999942
        },
        {
          "name": "A4",
          "midi": 69,
          "time": 109.44433500000007,
          "velocity": 0.6299212598425197,
          "duration": 0.6296289999999942
        },
        {
          "name": "A5",
          "midi": 81,
          "time": 109.44433500000007,
          "velocity": 0.6299212598425197,
          "duration": 0.6296289999999942
        },
        {
          "name": "C#5",
          "midi": 73,
          "time": 109.44433500000007,
          "velocity": 0.6299212598425197,
          "duration": 0.6296289999999942
        },
        {
          "name": "D5",
          "midi": 74,
          "time": 110.18507500000005,
          "velocity": 0.6299212598425197,
          "duration": 0.14814800000000616
        },
        {
          "name": "B5",
          "midi": 83,
          "time": 110.18507500000005,
          "velocity": 0.6299212598425197,
          "duration": 0.14814800000000616
        },
        {
          "name": "D6",
          "midi": 86,
          "time": 110.18507500000005,
          "velocity": 0.6299212598425197,
          "duration": 0.14814800000000616
        },
        {
          "name": "B4",
          "midi": 71,
          "time": 110.18507500000005,
          "velocity": 0.6299212598425197,
          "duration": 0.14814800000000616
        },
        {
          "name": "B5",
          "midi": 83,
          "time": 110.37026000000006,
          "velocity": 0.6299212598425197,
          "duration": 0.5925919999999962
        },
        {
          "name": "G4",
          "midi": 67,
          "time": 110.37026000000006,
          "velocity": 0.6299212598425197,
          "duration": 0.5925919999999962
        },
        {
          "name": "B4",
          "midi": 71,
          "time": 110.37026000000006,
          "velocity": 0.6299212598425197,
          "duration": 0.5925919999999962
        },
        {
          "name": "G5",
          "midi": 79,
          "time": 110.37026000000006,
          "velocity": 0.6299212598425197,
          "duration": 0.5925919999999962
        },
        {
          "name": "G4",
          "midi": 67,
          "time": 111.11100000000006,
          "velocity": 0.6299212598425197,
          "duration": 0.07407399999999598
        },
        {
          "name": "B5",
          "midi": 83,
          "time": 111.11100000000006,
          "velocity": 0.6299212598425197,
          "duration": 0.07407399999999598
        },
        {
          "name": "G5",
          "midi": 79,
          "time": 111.11100000000006,
          "velocity": 0.6299212598425197,
          "duration": 0.07407399999999598
        },
        {
          "name": "B4",
          "midi": 71,
          "time": 111.11100000000006,
          "velocity": 0.6299212598425197,
          "duration": 0.07407399999999598
        },
        {
          "name": "F#5",
          "midi": 78,
          "time": 111.20359250000006,
          "velocity": 0.6299212598425197,
          "duration": 0.07407399999999598
        },
        {
          "name": "A4",
          "midi": 69,
          "time": 111.20359250000006,
          "velocity": 0.6299212598425197,
          "duration": 0.07407399999999598
        },
        {
          "name": "A5",
          "midi": 81,
          "time": 111.20359250000006,
          "velocity": 0.6299212598425197,
          "duration": 0.07407399999999598
        },
        {
          "name": "F#4",
          "midi": 66,
          "time": 111.20359250000006,
          "velocity": 0.6299212598425197,
          "duration": 0.07407399999999598
        },
        {
          "name": "B5",
          "midi": 83,
          "time": 111.29618500000005,
          "velocity": 0.6299212598425197,
          "duration": 0.07407399999999598
        },
        {
          "name": "B4",
          "midi": 71,
          "time": 111.29618500000005,
          "velocity": 0.6299212598425197,
          "duration": 0.07407399999999598
        },
        {
          "name": "G5",
          "midi": 79,
          "time": 111.29618500000005,
          "velocity": 0.6299212598425197,
          "duration": 0.07407399999999598
        },
        {
          "name": "G4",
          "midi": 67,
          "time": 111.29618500000005,
          "velocity": 0.6299212598425197,
          "duration": 0.07407399999999598
        },
        {
          "name": "C#6",
          "midi": 85,
          "time": 111.38877750000005,
          "velocity": 0.6299212598425197,
          "duration": 0.07407399999999598
        },
        {
          "name": "C#5",
          "midi": 73,
          "time": 111.38877750000005,
          "velocity": 0.6299212598425197,
          "duration": 0.07407399999999598
        },
        {
          "name": "A5",
          "midi": 81,
          "time": 111.38877750000005,
          "velocity": 0.6299212598425197,
          "duration": 0.07407399999999598
        },
        {
          "name": "A4",
          "midi": 69,
          "time": 111.38877750000005,
          "velocity": 0.6299212598425197,
          "duration": 0.07407399999999598
        },
        {
          "name": "D5",
          "midi": 74,
          "time": 111.48137000000004,
          "velocity": 0.6299212598425197,
          "duration": 0.07407399999999598
        },
        {
          "name": "B5",
          "midi": 83,
          "time": 111.48137000000004,
          "velocity": 0.6299212598425197,
          "duration": 0.07407399999999598
        },
        {
          "name": "D6",
          "midi": 86,
          "time": 111.48137000000004,
          "velocity": 0.6299212598425197,
          "duration": 0.07407399999999598
        },
        {
          "name": "B4",
          "midi": 71,
          "time": 111.48137000000004,
          "velocity": 0.6299212598425197,
          "duration": 0.07407399999999598
        },
        {
          "name": "A4",
          "midi": 69,
          "time": 111.57396250000004,
          "velocity": 0.6299212598425197,
          "duration": 0.07407399999999598
        },
        {
          "name": "A5",
          "midi": 81,
          "time": 111.57396250000004,
          "velocity": 0.6299212598425197,
          "duration": 0.07407399999999598
        },
        {
          "name": "C#5",
          "midi": 73,
          "time": 111.57396250000004,
          "velocity": 0.6299212598425197,
          "duration": 0.07407399999999598
        },
        {
          "name": "C#6",
          "midi": 85,
          "time": 111.57396250000004,
          "velocity": 0.6299212598425197,
          "duration": 0.07407399999999598
        },
        {
          "name": "D5",
          "midi": 74,
          "time": 111.66655500000003,
          "velocity": 0.6299212598425197,
          "duration": 0.07407399999999598
        },
        {
          "name": "D6",
          "midi": 86,
          "time": 111.66655500000003,
          "velocity": 0.6299212598425197,
          "duration": 0.07407399999999598
        },
        {
          "name": "B5",
          "midi": 83,
          "time": 111.66655500000003,
          "velocity": 0.6299212598425197,
          "duration": 0.07407399999999598
        },
        {
          "name": "B4",
          "midi": 71,
          "time": 111.66655500000003,
          "velocity": 0.6299212598425197,
          "duration": 0.07407399999999598
        },
        {
          "name": "C#6",
          "midi": 85,
          "time": 111.75914750000003,
          "velocity": 0.6299212598425197,
          "duration": 0.07407399999999598
        },
        {
          "name": "C#5",
          "midi": 73,
          "time": 111.75914750000003,
          "velocity": 0.6299212598425197,
          "duration": 0.07407399999999598
        },
        {
          "name": "E6",
          "midi": 88,
          "time": 111.75914750000003,
          "velocity": 0.6299212598425197,
          "duration": 0.07407399999999598
        },
        {
          "name": "E5",
          "midi": 76,
          "time": 111.75914750000003,
          "velocity": 0.6299212598425197,
          "duration": 0.07407399999999598
        },
        {
          "name": "D5",
          "midi": 74,
          "time": 111.85174000000002,
          "velocity": 0.6299212598425197,
          "duration": 0.07407399999999598
        },
        {
          "name": "D6",
          "midi": 86,
          "time": 111.85174000000002,
          "velocity": 0.6299212598425197,
          "duration": 0.07407399999999598
        },
        {
          "name": "F#6",
          "midi": 90,
          "time": 111.85174000000002,
          "velocity": 0.6299212598425197,
          "duration": 0.07407399999999598
        },
        {
          "name": "F#5",
          "midi": 78,
          "time": 111.85174000000002,
          "velocity": 0.6299212598425197,
          "duration": 0.07407399999999598
        },
        {
          "name": "E5",
          "midi": 76,
          "time": 111.94433250000002,
          "velocity": 0.6299212598425197,
          "duration": 0.07407399999999598
        },
        {
          "name": "E6",
          "midi": 88,
          "time": 111.94433250000002,
          "velocity": 0.6299212598425197,
          "duration": 0.07407399999999598
        },
        {
          "name": "C#5",
          "midi": 73,
          "time": 111.94433250000002,
          "velocity": 0.6299212598425197,
          "duration": 0.07407399999999598
        },
        {
          "name": "C#6",
          "midi": 85,
          "time": 111.94433250000002,
          "velocity": 0.6299212598425197,
          "duration": 0.07407399999999598
        },
        {
          "name": "F#5",
          "midi": 78,
          "time": 112.03692500000001,
          "velocity": 0.6299212598425197,
          "duration": 0.07407399999999598
        },
        {
          "name": "D6",
          "midi": 86,
          "time": 112.03692500000001,
          "velocity": 0.6299212598425197,
          "duration": 0.07407399999999598
        },
        {
          "name": "F#6",
          "midi": 90,
          "time": 112.03692500000001,
          "velocity": 0.6299212598425197,
          "duration": 0.07407399999999598
        },
        {
          "name": "D5",
          "midi": 74,
          "time": 112.03692500000001,
          "velocity": 0.6299212598425197,
          "duration": 0.07407399999999598
        },
        {
          "name": "G6",
          "midi": 91,
          "time": 112.1295175,
          "velocity": 0.6299212598425197,
          "duration": 0.07407399999999598
        },
        {
          "name": "E6",
          "midi": 88,
          "time": 112.1295175,
          "velocity": 0.6299212598425197,
          "duration": 0.07407399999999598
        },
        {
          "name": "G5",
          "midi": 79,
          "time": 112.1295175,
          "velocity": 0.6299212598425197,
          "duration": 0.07407399999999598
        },
        {
          "name": "E5",
          "midi": 76,
          "time": 112.1295175,
          "velocity": 0.6299212598425197,
          "duration": 0.07407399999999598
        },
        {
          "name": "A6",
          "midi": 93,
          "time": 112.22211,
          "velocity": 0.6299212598425197,
          "duration": 0.07407399999999598
        },
        {
          "name": "F#5",
          "midi": 78,
          "time": 112.22211,
          "velocity": 0.6299212598425197,
          "duration": 0.07407399999999598
        },
        {
          "name": "A5",
          "midi": 81,
          "time": 112.22211,
          "velocity": 0.6299212598425197,
          "duration": 0.07407399999999598
        },
        {
          "name": "F#6",
          "midi": 90,
          "time": 112.22211,
          "velocity": 0.6299212598425197,
          "duration": 0.07407399999999598
        },
        {
          "name": "G6",
          "midi": 91,
          "time": 112.3147025,
          "velocity": 0.6299212598425197,
          "duration": 0.07407399999999598
        },
        {
          "name": "E5",
          "midi": 76,
          "time": 112.3147025,
          "velocity": 0.6299212598425197,
          "duration": 0.07407399999999598
        },
        {
          "name": "E6",
          "midi": 88,
          "time": 112.3147025,
          "velocity": 0.6299212598425197,
          "duration": 0.07407399999999598
        },
        {
          "name": "G5",
          "midi": 79,
          "time": 112.3147025,
          "velocity": 0.6299212598425197,
          "duration": 0.07407399999999598
        },
        {
          "name": "D6",
          "midi": 86,
          "time": 112.40729499999999,
          "velocity": 0.6299212598425197,
          "duration": 0.07407399999999598
        },
        {
          "name": "D5",
          "midi": 74,
          "time": 112.40729499999999,
          "velocity": 0.6299212598425197,
          "duration": 0.07407399999999598
        },
        {
          "name": "F#5",
          "midi": 78,
          "time": 112.40729499999999,
          "velocity": 0.6299212598425197,
          "duration": 0.07407399999999598
        },
        {
          "name": "F#6",
          "midi": 90,
          "time": 112.40729499999999,
          "velocity": 0.6299212598425197,
          "duration": 0.07407399999999598
        },
        {
          "name": "C#6",
          "midi": 85,
          "time": 112.49988749999999,
          "velocity": 0.6299212598425197,
          "duration": 0.07407399999999598
        },
        {
          "name": "E5",
          "midi": 76,
          "time": 112.49988749999999,
          "velocity": 0.6299212598425197,
          "duration": 0.07407399999999598
        },
        {
          "name": "C#5",
          "midi": 73,
          "time": 112.49988749999999,
          "velocity": 0.6299212598425197,
          "duration": 0.07407399999999598
        },
        {
          "name": "E6",
          "midi": 88,
          "time": 112.49988749999999,
          "velocity": 0.6299212598425197,
          "duration": 0.07407399999999598
        }
      ],
      "controlChanges": {
        "7": [
          {
            "number": 7,
            "time": 0,
            "value": 1
          }
        ]
      },
      "id": 9,
      "instrumentNumber": 48,
      "instrument": "string ensemble 1",
      "instrumentFamily": "ensemble",
      "channelNumber": 8,
      "isPercussion": false
    },
    {
      "startTime": 14.629615000000001,
      "duration": 112.57396149999995,
      "length": 384,
      "notes": [
        {
          "name": "B4",
          "midi": 71,
          "time": 14.629615000000001,
          "velocity": 0.6299212598425197,
          "duration": 1.0740730000000003
        },
        {
          "name": "C#5",
          "midi": 73,
          "time": 15.740725000000001,
          "velocity": 0.6299212598425197,
          "duration": 0.14814800000000083
        },
        {
          "name": "D5",
          "midi": 74,
          "time": 15.925910000000002,
          "velocity": 0.6299212598425197,
          "duration": 0.14814799999999906
        },
        {
          "name": "C#5",
          "midi": 73,
          "time": 16.111095000000002,
          "velocity": 0.6299212598425197,
          "duration": 0.5185180000000003
        },
        {
          "name": "E5",
          "midi": 76,
          "time": 16.666650000000004,
          "velocity": 0.6299212598425197,
          "duration": 0.14814799999999906
        },
        {
          "name": "D5",
          "midi": 74,
          "time": 16.851835000000005,
          "velocity": 0.6299212598425197,
          "duration": 0.3472218749999989
        },
        {
          "name": "C#5",
          "midi": 73,
          "time": 17.222205000000002,
          "velocity": 0.6299212598425197,
          "duration": 0.14814799999999906
        },
        {
          "name": "D5",
          "midi": 74,
          "time": 17.407390000000003,
          "velocity": 0.6299212598425197,
          "duration": 0.14814799999999906
        },
        {
          "name": "B4",
          "midi": 71,
          "time": 17.592575000000004,
          "velocity": 0.6299212598425197,
          "duration": 1.2222210000000011
        },
        {
          "name": "F#5",
          "midi": 78,
          "time": 18.888870000000004,
          "velocity": 0.6299212598425197,
          "duration": 0.14814799999999906
        },
        {
          "name": "E5",
          "midi": 76,
          "time": 19.074055000000005,
          "velocity": 0.6299212598425197,
          "duration": 0.5185180000000003
        },
        {
          "name": "D5",
          "midi": 74,
          "time": 19.629610000000007,
          "velocity": 0.6299212598425197,
          "duration": 0.14814799999999906
        },
        {
          "name": "C#5",
          "midi": 73,
          "time": 19.814795000000007,
          "velocity": 0.6299212598425197,
          "duration": 0.29629600000000167
        },
        {
          "name": "B4",
          "midi": 71,
          "time": 20.18516500000001,
          "velocity": 0.6299212598425197,
          "duration": 0.14814799999999906
        },
        {
          "name": "A4",
          "midi": 69,
          "time": 20.37035000000001,
          "velocity": 0.6299212598425197,
          "duration": 0.14814799999999906
        },
        {
          "name": "C#5",
          "midi": 73,
          "time": 20.55553500000001,
          "velocity": 0.6299212598425197,
          "duration": 0.14814799999999906
        },
        {
          "name": "B4",
          "midi": 71,
          "time": 20.74072000000001,
          "velocity": 0.6299212598425197,
          "duration": 0.9151225416666655
        },
        {
          "name": "C#5",
          "midi": 73,
          "time": 21.66664500000001,
          "velocity": 0.6299212598425197,
          "duration": 0.14814799999999906
        },
        {
          "name": "D5",
          "midi": 74,
          "time": 21.85183000000001,
          "velocity": 0.6299212598425197,
          "duration": 0.14814799999999906
        },
        {
          "name": "C#5",
          "midi": 73,
          "time": 22.03701500000001,
          "velocity": 0.6299212598425197,
          "duration": 0.5185180000000003
        },
        {
          "name": "E5",
          "midi": 76,
          "time": 22.592570000000013,
          "velocity": 0.6299212598425197,
          "duration": 0.14814799999999906
        },
        {
          "name": "D5",
          "midi": 74,
          "time": 22.777755000000013,
          "velocity": 0.6299212598425197,
          "duration": 0.4444440000000007
        },
        {
          "name": "F#5",
          "midi": 78,
          "time": 23.333310000000015,
          "velocity": 0.6299212598425197,
          "duration": 0.14814799999999906
        },
        {
          "name": "G5",
          "midi": 79,
          "time": 23.518495000000016,
          "velocity": 0.6299212598425197,
          "duration": 1.2222210000000011
        },
        {
          "name": "D5",
          "midi": 74,
          "time": 24.814790000000016,
          "velocity": 0.6299212598425197,
          "duration": 0.14814799999999906
        },
        {
          "name": "E5",
          "midi": 76,
          "time": 24.999975000000017,
          "velocity": 0.6299212598425197,
          "duration": 0.4814809999999987
        },
        {
          "name": "D5",
          "midi": 74,
          "time": 25.555530000000015,
          "velocity": 0.6299212598425197,
          "duration": 0.14814799999999906
        },
        {
          "name": "C#5",
          "midi": 73,
          "time": 25.740715000000016,
          "velocity": 0.6299212598425197,
          "duration": 0.3472218749999989
        },
        {
          "name": "D5",
          "midi": 74,
          "time": 26.111085000000013,
          "velocity": 0.6299212598425197,
          "duration": 0.14814799999999906
        },
        {
          "name": "C#5",
          "midi": 73,
          "time": 26.296270000000014,
          "velocity": 0.6299212598425197,
          "duration": 0.29629600000000167
        },
        {
          "name": "B3",
          "midi": 59,
          "time": 31.111080000000015,
          "velocity": 0.6299212598425197,
          "duration": 0.07407399999999953
        },
        {
          "name": "B4",
          "midi": 71,
          "time": 31.111080000000015,
          "velocity": 0.6299212598425197,
          "duration": 0.07407399999999953
        },
        {
          "name": "D5",
          "midi": 74,
          "time": 31.203672500000014,
          "velocity": 0.6299212598425197,
          "duration": 0.07407399999999953
        },
        {
          "name": "D4",
          "midi": 62,
          "time": 31.203672500000014,
          "velocity": 0.6299212598425197,
          "duration": 0.07407399999999953
        },
        {
          "name": "C#5",
          "midi": 73,
          "time": 31.296265000000012,
          "velocity": 0.6299212598425197,
          "duration": 0.07407399999999953
        },
        {
          "name": "C#4",
          "midi": 61,
          "time": 31.296265000000012,
          "velocity": 0.6299212598425197,
          "duration": 0.07407399999999953
        },
        {
          "name": "A3",
          "midi": 57,
          "time": 31.38885750000001,
          "velocity": 0.6299212598425197,
          "duration": 0.07407399999999953
        },
        {
          "name": "A4",
          "midi": 69,
          "time": 31.38885750000001,
          "velocity": 0.6299212598425197,
          "duration": 0.07407399999999953
        },
        {
          "name": "D4",
          "midi": 62,
          "time": 31.48145000000001,
          "velocity": 0.6299212598425197,
          "duration": 0.07407399999999953
        },
        {
          "name": "D5",
          "midi": 74,
          "time": 31.48145000000001,
          "velocity": 0.6299212598425197,
          "duration": 0.07407399999999953
        },
        {
          "name": "A3",
          "midi": 57,
          "time": 31.574042500000008,
          "velocity": 0.6299212598425197,
          "duration": 0.07407399999999953
        },
        {
          "name": "A4",
          "midi": 69,
          "time": 31.574042500000008,
          "velocity": 0.6299212598425197,
          "duration": 0.07407399999999953
        },
        {
          "name": "B3",
          "midi": 59,
          "time": 31.666635000000007,
          "velocity": 0.6299212598425197,
          "duration": 0.07407399999999953
        },
        {
          "name": "B4",
          "midi": 71,
          "time": 31.666635000000007,
          "velocity": 0.6299212598425197,
          "duration": 0.07407399999999953
        },
        {
          "name": "C#5",
          "midi": 73,
          "time": 32.592560000000006,
          "velocity": 0.6299212598425197,
          "duration": 0.4444439999999972
        },
        {
          "name": "A4",
          "midi": 69,
          "time": 33.148115000000004,
          "velocity": 0.6299212598425197,
          "duration": 0.14814799999999906
        },
        {
          "name": "B4",
          "midi": 71,
          "time": 33.3333,
          "velocity": 0.6299212598425197,
          "duration": 1.2592580000000027
        },
        {
          "name": "F#4",
          "midi": 66,
          "time": 34.629595,
          "velocity": 0.6299212598425197,
          "duration": 0.07407400000000308
        },
        {
          "name": "B4",
          "midi": 71,
          "time": 34.722187500000004,
          "velocity": 0.6299212598425197,
          "duration": 0.07407400000000308
        },
        {
          "name": "C#5",
          "midi": 73,
          "time": 34.814780000000006,
          "velocity": 0.6299212598425197,
          "duration": 0.17438254166666667
        },
        {
          "name": "D5",
          "midi": 74,
          "time": 34.999965,
          "velocity": 0.6299212598425197,
          "duration": 0.17438254166666667
        },
        {
          "name": "E5",
          "midi": 76,
          "time": 35.18515,
          "velocity": 0.6299212598425197,
          "duration": 0.17438254166666667
        },
        {
          "name": "C#5",
          "midi": 73,
          "time": 35.370335,
          "velocity": 0.6299212598425197,
          "duration": 0.6296290000000013
        },
        {
          "name": "A4",
          "midi": 69,
          "time": 36.111075,
          "velocity": 0.6299212598425197,
          "duration": 0.14814799999999906
        },
        {
          "name": "B4",
          "midi": 71,
          "time": 36.29626,
          "velocity": 0.6299212598425197,
          "duration": 1.925924000000002
        },
        {
          "name": "D5",
          "midi": 74,
          "time": 38.51848,
          "velocity": 0.6299212598425197,
          "duration": 0.14814799999999906
        },
        {
          "name": "C#5",
          "midi": 73,
          "time": 38.703664999999994,
          "velocity": 0.6299212598425197,
          "duration": 0.14814799999999906
        },
        {
          "name": "D5",
          "midi": 74,
          "time": 38.88884999999999,
          "velocity": 0.6299212598425197,
          "duration": 0.14814799999999906
        },
        {
          "name": "E5",
          "midi": 76,
          "time": 39.07403499999999,
          "velocity": 0.6299212598425197,
          "duration": 0.14814799999999906
        },
        {
          "name": "F#5",
          "midi": 78,
          "time": 39.259219999999985,
          "velocity": 0.6299212598425197,
          "duration": 0.14814799999999906
        },
        {
          "name": "B4",
          "midi": 71,
          "time": 39.44440499999998,
          "velocity": 0.6299212598425197,
          "duration": 0.14814799999999906
        },
        {
          "name": "F#5",
          "midi": 78,
          "time": 39.62958999999998,
          "velocity": 0.6299212598425197,
          "duration": 0.14814799999999906
        },
        {
          "name": "F#5",
          "midi": 78,
          "time": 39.814774999999976,
          "velocity": 0.6299212598425197,
          "duration": 0.2962959999999981
        },
        {
          "name": "E5",
          "midi": 76,
          "time": 40.12341666666664,
          "velocity": 0.6299212598425197,
          "duration": 0.0987653333333327
        },
        {
          "name": "D5",
          "midi": 74,
          "time": 40.24687333333331,
          "velocity": 0.6299212598425197,
          "duration": 0.0987653333333327
        },
        {
          "name": "E5",
          "midi": 76,
          "time": 40.37032999999998,
          "velocity": 0.6299212598425197,
          "duration": 0.0987653333333327
        },
        {
          "name": "D5",
          "midi": 74,
          "time": 40.49378666666665,
          "velocity": 0.6299212598425197,
          "duration": 0.0987653333333327
        },
        {
          "name": "C#5",
          "midi": 73,
          "time": 40.61724333333332,
          "velocity": 0.6299212598425197,
          "duration": 0.0987653333333327
        },
        {
          "name": "D5",
          "midi": 74,
          "time": 40.74069999999999,
          "velocity": 0.6299212598425197,
          "duration": 0.0987653333333327
        },
        {
          "name": "C#5",
          "midi": 73,
          "time": 40.86415666666666,
          "velocity": 0.6299212598425197,
          "duration": 0.0987653333333327
        },
        {
          "name": "B4",
          "midi": 71,
          "time": 40.98761333333333,
          "velocity": 0.6299212598425197,
          "duration": 0.0987653333333327
        },
        {
          "name": "C#5",
          "midi": 73,
          "time": 41.11107,
          "velocity": 0.6299212598425197,
          "duration": 0.0987653333333327
        },
        {
          "name": "B4",
          "midi": 71,
          "time": 41.23452666666667,
          "velocity": 0.6299212598425197,
          "duration": 0.0987653333333327
        },
        {
          "name": "A4",
          "midi": 69,
          "time": 41.35798333333334,
          "velocity": 0.6299212598425197,
          "duration": 0.0987653333333327
        },
        {
          "name": "B4",
          "midi": 71,
          "time": 41.481440000000006,
          "velocity": 0.6299212598425197,
          "duration": 0.2962959999999981
        },
        {
          "name": "C#5",
          "midi": 73,
          "time": 41.85181000000001,
          "velocity": 0.6299212598425197,
          "duration": 0.2962959999999981
        },
        {
          "name": "D5",
          "midi": 74,
          "time": 42.22218000000001,
          "velocity": 0.6299212598425197,
          "duration": 0.14814799999999906
        },
        {
          "name": "C#5",
          "midi": 73,
          "time": 42.407365000000006,
          "velocity": 0.6299212598425197,
          "duration": 0.14814799999999906
        },
        {
          "name": "D5",
          "midi": 74,
          "time": 42.59255,
          "velocity": 0.6299212598425197,
          "duration": 0.14814799999999906
        },
        {
          "name": "F#5",
          "midi": 78,
          "time": 42.777735,
          "velocity": 0.6299212598425197,
          "duration": 0.07407400000000308
        },
        {
          "name": "E5",
          "midi": 76,
          "time": 42.8703275,
          "velocity": 0.6299212598425197,
          "duration": 0.07407400000000308
        },
        {
          "name": "F#5",
          "midi": 78,
          "time": 42.962920000000004,
          "velocity": 0.6299212598425197,
          "duration": 0.17438254166666667
        },
        {
          "name": "B4",
          "midi": 71,
          "time": 43.148105,
          "velocity": 0.6299212598425197,
          "duration": 0.14814799999999906
        },
        {
          "name": "E5",
          "midi": 76,
          "time": 43.33329,
          "velocity": 0.6299212598425197,
          "duration": 0.14814799999999906
        },
        {
          "name": "B4",
          "midi": 71,
          "time": 43.518474999999995,
          "velocity": 0.6299212598425197,
          "duration": 0.14814799999999906
        },
        {
          "name": "D5",
          "midi": 74,
          "time": 43.70365999999999,
          "velocity": 0.6299212598425197,
          "duration": 0.14814799999999906
        },
        {
          "name": "E5",
          "midi": 76,
          "time": 43.88884499999999,
          "velocity": 0.6299212598425197,
          "duration": 0.14814799999999906
        },
        {
          "name": "C#5",
          "midi": 73,
          "time": 44.074029999999986,
          "velocity": 0.6299212598425197,
          "duration": 0.2962959999999981
        },
        {
          "name": "B4",
          "midi": 71,
          "time": 44.44439999999999,
          "velocity": 0.6299212598425197,
          "duration": 0.14814799999999906
        },
        {
          "name": "D5",
          "midi": 74,
          "time": 44.44439999999999,
          "velocity": 0.6299212598425197,
          "duration": 0.14814799999999906
        },
        {
          "name": "C#5",
          "midi": 73,
          "time": 44.629584999999985,
          "velocity": 0.6299212598425197,
          "duration": 0.14814799999999906
        },
        {
          "name": "E5",
          "midi": 76,
          "time": 44.629584999999985,
          "velocity": 0.6299212598425197,
          "duration": 0.14814799999999906
        },
        {
          "name": "A4",
          "midi": 69,
          "time": 44.81476999999998,
          "velocity": 0.6299212598425197,
          "duration": 0.14814799999999906
        },
        {
          "name": "C#5",
          "midi": 73,
          "time": 44.81476999999998,
          "velocity": 0.6299212598425197,
          "duration": 0.14814799999999906
        },
        {
          "name": "B4",
          "midi": 71,
          "time": 44.99995499999998,
          "velocity": 0.6299212598425197,
          "duration": 0.14814799999999906
        },
        {
          "name": "D5",
          "midi": 74,
          "time": 44.99995499999998,
          "velocity": 0.6299212598425197,
          "duration": 0.14814799999999906
        },
        {
          "name": "B4",
          "midi": 71,
          "time": 45.185139999999976,
          "velocity": 0.6299212598425197,
          "duration": 0.14814799999999906
        },
        {
          "name": "F#4",
          "midi": 66,
          "time": 45.185139999999976,
          "velocity": 0.6299212598425197,
          "duration": 0.14814799999999906
        },
        {
          "name": "C#5",
          "midi": 73,
          "time": 45.37032499999997,
          "velocity": 0.6299212598425197,
          "duration": 0.14814799999999906
        },
        {
          "name": "A4",
          "midi": 69,
          "time": 45.37032499999997,
          "velocity": 0.6299212598425197,
          "duration": 0.14814799999999906
        },
        {
          "name": "E4",
          "midi": 64,
          "time": 45.55550999999997,
          "velocity": 0.6299212598425197,
          "duration": 0.14814799999999906
        },
        {
          "name": "A4",
          "midi": 69,
          "time": 45.55550999999997,
          "velocity": 0.6299212598425197,
          "duration": 0.14814799999999906
        },
        {
          "name": "F#4",
          "midi": 66,
          "time": 45.74069499999997,
          "velocity": 0.6299212598425197,
          "duration": 0.3333330000000032
        },
        {
          "name": "B4",
          "midi": 71,
          "time": 45.74069499999997,
          "velocity": 0.6299212598425197,
          "duration": 0.3333330000000032
        },
        {
          "name": "D4",
          "midi": 62,
          "time": 46.11106499999997,
          "velocity": 0.6299212598425197,
          "duration": 0.07407400000000308
        },
        {
          "name": "F#4",
          "midi": 66,
          "time": 46.11106499999997,
          "velocity": 0.6299212598425197,
          "duration": 0.07407400000000308
        },
        {
          "name": "F#4",
          "midi": 66,
          "time": 46.20365749999997,
          "velocity": 0.6299212598425197,
          "duration": 0.07407400000000308
        },
        {
          "name": "B4",
          "midi": 71,
          "time": 46.20365749999997,
          "velocity": 0.6299212598425197,
          "duration": 0.07407400000000308
        },
        {
          "name": "B4",
          "midi": 71,
          "time": 46.29624999999997,
          "velocity": 0.6299212598425197,
          "duration": 0.14814799999999906
        },
        {
          "name": "D5",
          "midi": 74,
          "time": 46.29624999999997,
          "velocity": 0.6299212598425197,
          "duration": 0.14814799999999906
        },
        {
          "name": "D4",
          "midi": 62,
          "time": 46.48143499999997,
          "velocity": 0.6299212598425197,
          "duration": 0.07407400000000308
        },
        {
          "name": "F#4",
          "midi": 66,
          "time": 46.48143499999997,
          "velocity": 0.6299212598425197,
          "duration": 0.07407400000000308
        },
        {
          "name": "F#4",
          "midi": 66,
          "time": 46.57402749999997,
          "velocity": 0.6299212598425197,
          "duration": 0.07407400000000308
        },
        {
          "name": "B4",
          "midi": 71,
          "time": 46.57402749999997,
          "velocity": 0.6299212598425197,
          "duration": 0.07407400000000308
        },
        {
          "name": "C#5",
          "midi": 73,
          "time": 46.66661999999997,
          "velocity": 0.6299212598425197,
          "duration": 0.14814799999999906
        },
        {
          "name": "E5",
          "midi": 76,
          "time": 46.66661999999997,
          "velocity": 0.6299212598425197,
          "duration": 0.14814799999999906
        },
        {
          "name": "B4",
          "midi": 71,
          "time": 46.85180499999997,
          "velocity": 0.6299212598425197,
          "duration": 0.14814799999999906
        },
        {
          "name": "D5",
          "midi": 74,
          "time": 46.85180499999997,
          "velocity": 0.6299212598425197,
          "duration": 0.14814799999999906
        },
        {
          "name": "E5",
          "midi": 76,
          "time": 47.03698999999997,
          "velocity": 0.6299212598425197,
          "duration": 0.14814799999999906
        },
        {
          "name": "C#5",
          "midi": 73,
          "time": 47.03698999999997,
          "velocity": 0.6299212598425197,
          "duration": 0.14814799999999906
        },
        {
          "name": "D5",
          "midi": 74,
          "time": 47.222174999999964,
          "velocity": 0.6299212598425197,
          "duration": 0.5447525416666679
        },
        {
          "name": "F#5",
          "midi": 78,
          "time": 47.222174999999964,
          "velocity": 0.6299212598425197,
          "duration": 0.5447525416666679
        },
        {
          "name": "G5",
          "midi": 79,
          "time": 47.77772999999996,
          "velocity": 0.6299212598425197,
          "duration": 0.14814799999999906
        },
        {
          "name": "E5",
          "midi": 76,
          "time": 47.77772999999996,
          "velocity": 0.6299212598425197,
          "duration": 0.14814799999999906
        },
        {
          "name": "D5",
          "midi": 74,
          "time": 47.96291499999996,
          "velocity": 0.6299212598425197,
          "duration": 2.111108999999999
        },
        {
          "name": "F#5",
          "midi": 78,
          "time": 47.96291499999996,
          "velocity": 0.6299212598425197,
          "duration": 2.111108999999999
        },
        {
          "name": "B4",
          "midi": 71,
          "time": 50.37031999999996,
          "velocity": 0.6299212598425197,
          "duration": 0.14814799999999906
        },
        {
          "name": "D5",
          "midi": 74,
          "time": 50.37031999999996,
          "velocity": 0.6299212598425197,
          "duration": 0.14814799999999906
        },
        {
          "name": "B4",
          "midi": 71,
          "time": 50.555504999999954,
          "velocity": 0.6299212598425197,
          "duration": 0.14814799999999906
        },
        {
          "name": "F#4",
          "midi": 66,
          "time": 50.555504999999954,
          "velocity": 0.6299212598425197,
          "duration": 0.14814799999999906
        },
        {
          "name": "F#4",
          "midi": 66,
          "time": 50.925874999999955,
          "velocity": 0.6299212598425197,
          "duration": 0.07407400000000308
        },
        {
          "name": "B4",
          "midi": 71,
          "time": 50.925874999999955,
          "velocity": 0.6299212598425197,
          "duration": 0.07407400000000308
        },
        {
          "name": "C#5",
          "midi": 73,
          "time": 51.01846749999996,
          "velocity": 0.6299212598425197,
          "duration": 0.07407400000000308
        },
        {
          "name": "A4",
          "midi": 69,
          "time": 51.01846749999996,
          "velocity": 0.6299212598425197,
          "duration": 0.07407400000000308
        },
        {
          "name": "D5",
          "midi": 74,
          "time": 51.11105999999996,
          "velocity": 0.6299212598425197,
          "duration": 0.17438254166666667
        },
        {
          "name": "B4",
          "midi": 71,
          "time": 51.11105999999996,
          "velocity": 0.6299212598425197,
          "duration": 0.17438254166666667
        },
        {
          "name": "B4",
          "midi": 71,
          "time": 51.296244999999956,
          "velocity": 0.6299212598425197,
          "duration": 0.07407400000000308
        },
        {
          "name": "F#4",
          "midi": 66,
          "time": 51.296244999999956,
          "velocity": 0.6299212598425197,
          "duration": 0.07407400000000308
        },
        {
          "name": "C#5",
          "midi": 73,
          "time": 51.38883749999996,
          "velocity": 0.6299212598425197,
          "duration": 0.07407400000000308
        },
        {
          "name": "A4",
          "midi": 69,
          "time": 51.38883749999996,
          "velocity": 0.6299212598425197,
          "duration": 0.07407400000000308
        },
        {
          "name": "B4",
          "midi": 71,
          "time": 51.48142999999996,
          "velocity": 0.6299212598425197,
          "duration": 0.14814799999999906
        },
        {
          "name": "D5",
          "midi": 74,
          "time": 51.48142999999996,
          "velocity": 0.6299212598425197,
          "duration": 0.14814799999999906
        },
        {
          "name": "E5",
          "midi": 76,
          "time": 51.66661499999996,
          "velocity": 0.6299212598425197,
          "duration": 0.14814799999999906
        },
        {
          "name": "C#5",
          "midi": 73,
          "time": 51.66661499999996,
          "velocity": 0.6299212598425197,
          "duration": 0.14814799999999906
        },
        {
          "name": "F#5",
          "midi": 78,
          "time": 51.851799999999955,
          "velocity": 0.6299212598425197,
          "duration": 0.14814799999999906
        },
        {
          "name": "D5",
          "midi": 74,
          "time": 51.851799999999955,
          "velocity": 0.6299212598425197,
          "duration": 0.14814799999999906
        },
        {
          "name": "E5",
          "midi": 76,
          "time": 52.03698499999995,
          "velocity": 0.6299212598425197,
          "duration": 0.14814799999999906
        },
        {
          "name": "G5",
          "midi": 79,
          "time": 52.03698499999995,
          "velocity": 0.6299212598425197,
          "duration": 0.14814799999999906
        },
        {
          "name": "F#5",
          "midi": 78,
          "time": 52.22216999999995,
          "velocity": 0.6299212598425197,
          "duration": 0.14814799999999906
        },
        {
          "name": "D5",
          "midi": 74,
          "time": 52.22216999999995,
          "velocity": 0.6299212598425197,
          "duration": 0.14814799999999906
        },
        {
          "name": "E5",
          "midi": 76,
          "time": 52.407354999999946,
          "velocity": 0.6299212598425197,
          "duration": 0.2962959999999981
        },
        {
          "name": "C#5",
          "midi": 73,
          "time": 52.407354999999946,
          "velocity": 0.6299212598425197,
          "duration": 0.2962959999999981
        },
        {
          "name": "B4",
          "midi": 71,
          "time": 52.77772499999995,
          "velocity": 0.6299212598425197,
          "duration": 0.2962959999999981
        },
        {
          "name": "D5",
          "midi": 74,
          "time": 52.77772499999995,
          "velocity": 0.6299212598425197,
          "duration": 0.2962959999999981
        },
        {
          "name": "A4",
          "midi": 69,
          "time": 53.14809499999995,
          "velocity": 0.6299212598425197,
          "duration": 0.6296290000000013
        },
        {
          "name": "C#5",
          "midi": 73,
          "time": 53.14809499999995,
          "velocity": 0.6299212598425197,
          "duration": 0.6296290000000013
        },
        {
          "name": "D5",
          "midi": 74,
          "time": 53.88883499999995,
          "velocity": 0.6299212598425197,
          "duration": 0.14814799999999906
        },
        {
          "name": "B4",
          "midi": 71,
          "time": 53.88883499999995,
          "velocity": 0.6299212598425197,
          "duration": 0.14814799999999906
        },
        {
          "name": "G4",
          "midi": 67,
          "time": 54.07401999999995,
          "velocity": 0.6299212598425197,
          "duration": 0.5925920000000033
        },
        {
          "name": "B4",
          "midi": 71,
          "time": 54.07401999999995,
          "velocity": 0.6299212598425197,
          "duration": 0.5925920000000033
        },
        {
          "name": "B4",
          "midi": 71,
          "time": 54.81475999999995,
          "velocity": 0.6299212598425197,
          "duration": 0.07407400000000308
        },
        {
          "name": "G4",
          "midi": 67,
          "time": 54.81475999999995,
          "velocity": 0.6299212598425197,
          "duration": 0.07407400000000308
        },
        {
          "name": "A4",
          "midi": 69,
          "time": 54.90735249999995,
          "velocity": 0.6299212598425197,
          "duration": 0.07407400000000308
        },
        {
          "name": "F#4",
          "midi": 66,
          "time": 54.90735249999995,
          "velocity": 0.6299212598425197,
          "duration": 0.07407400000000308
        },
        {
          "name": "G4",
          "midi": 67,
          "time": 54.999944999999954,
          "velocity": 0.6299212598425197,
          "duration": 0.07407400000000308
        },
        {
          "name": "B4",
          "midi": 71,
          "time": 54.999944999999954,
          "velocity": 0.6299212598425197,
          "duration": 0.07407400000000308
        },
        {
          "name": "C#5",
          "midi": 73,
          "time": 55.092537499999956,
          "velocity": 0.6299212598425197,
          "duration": 0.07407400000000308
        },
        {
          "name": "A4",
          "midi": 69,
          "time": 55.092537499999956,
          "velocity": 0.6299212598425197,
          "duration": 0.07407400000000308
        },
        {
          "name": "D5",
          "midi": 74,
          "time": 55.18512999999996,
          "velocity": 0.6299212598425197,
          "duration": 0.07407400000000308
        },
        {
          "name": "B4",
          "midi": 71,
          "time": 55.18512999999996,
          "velocity": 0.6299212598425197,
          "duration": 0.07407400000000308
        },
        {
          "name": "C#5",
          "midi": 73,
          "time": 55.27772249999996,
          "velocity": 0.6299212598425197,
          "duration": 0.07407400000000308
        },
        {
          "name": "A4",
          "midi": 69,
          "time": 55.27772249999996,
          "velocity": 0.6299212598425197,
          "duration": 0.07407400000000308
        },
        {
          "name": "B4",
          "midi": 71,
          "time": 55.37031499999996,
          "velocity": 0.6299212598425197,
          "duration": 0.07407400000000308
        },
        {
          "name": "D5",
          "midi": 74,
          "time": 55.37031499999996,
          "velocity": 0.6299212598425197,
          "duration": 0.07407400000000308
        },
        {
          "name": "C#5",
          "midi": 73,
          "time": 55.462907499999965,
          "velocity": 0.6299212598425197,
          "duration": 0.07407400000000308
        },
        {
          "name": "E5",
          "midi": 76,
          "time": 55.462907499999965,
          "velocity": 0.6299212598425197,
          "duration": 0.07407400000000308
        },
        {
          "name": "D5",
          "midi": 74,
          "time": 55.55549999999997,
          "velocity": 0.6299212598425197,
          "duration": 0.07407400000000308
        },
        {
          "name": "F#5",
          "midi": 78,
          "time": 55.55549999999997,
          "velocity": 0.6299212598425197,
          "duration": 0.07407400000000308
        },
        {
          "name": "C#5",
          "midi": 73,
          "time": 55.64809249999997,
          "velocity": 0.6299212598425197,
          "duration": 0.07407400000000308
        },
        {
          "name": "E5",
          "midi": 76,
          "time": 55.64809249999997,
          "velocity": 0.6299212598425197,
          "duration": 0.07407400000000308
        },
        {
          "name": "D5",
          "midi": 74,
          "time": 55.74068499999997,
          "velocity": 0.6299212598425197,
          "duration": 0.07407400000000308
        },
        {
          "name": "F#5",
          "midi": 78,
          "time": 55.74068499999997,
          "velocity": 0.6299212598425197,
          "duration": 0.07407400000000308
        },
        {
          "name": "G5",
          "midi": 79,
          "time": 55.83327749999997,
          "velocity": 0.6299212598425197,
          "duration": 0.07407400000000308
        },
        {
          "name": "E5",
          "midi": 76,
          "time": 55.83327749999997,
          "velocity": 0.6299212598425197,
          "duration": 0.07407400000000308
        },
        {
          "name": "F#5",
          "midi": 78,
          "time": 55.925869999999975,
          "velocity": 0.6299212598425197,
          "duration": 0.07407400000000308
        },
        {
          "name": "A5",
          "midi": 81,
          "time": 55.925869999999975,
          "velocity": 0.6299212598425197,
          "duration": 0.07407400000000308
        },
        {
          "name": "E5",
          "midi": 76,
          "time": 56.01846249999998,
          "velocity": 0.6299212598425197,
          "duration": 0.07407400000000308
        },
        {
          "name": "G5",
          "midi": 79,
          "time": 56.01846249999998,
          "velocity": 0.6299212598425197,
          "duration": 0.07407400000000308
        },
        {
          "name": "F#5",
          "midi": 78,
          "time": 56.11105499999998,
          "velocity": 0.6299212598425197,
          "duration": 0.07407400000000308
        },
        {
          "name": "D5",
          "midi": 74,
          "time": 56.11105499999998,
          "velocity": 0.6299212598425197,
          "duration": 0.07407400000000308
        },
        {
          "name": "E5",
          "midi": 76,
          "time": 56.20364749999998,
          "velocity": 0.6299212598425197,
          "duration": 0.07407400000000308
        },
        {
          "name": "C#5",
          "midi": 73,
          "time": 56.20364749999998,
          "velocity": 0.6299212598425197,
          "duration": 0.07407400000000308
        },
        {
          "name": "B4",
          "midi": 71,
          "time": 70.92585499999998,
          "velocity": 0.6299212598425197,
          "duration": 1.0740729999999985
        },
        {
          "name": "C#5",
          "midi": 73,
          "time": 72.03696499999998,
          "velocity": 0.6299212598425197,
          "duration": 0.14814800000000616
        },
        {
          "name": "D5",
          "midi": 74,
          "time": 72.22214999999998,
          "velocity": 0.6299212598425197,
          "duration": 0.14814800000000616
        },
        {
          "name": "C#5",
          "midi": 73,
          "time": 72.40733499999999,
          "velocity": 0.6299212598425197,
          "duration": 0.5185180000000003
        },
        {
          "name": "E5",
          "midi": 76,
          "time": 72.96288999999999,
          "velocity": 0.6299212598425197,
          "duration": 0.14814800000000616
        },
        {
          "name": "D5",
          "midi": 74,
          "time": 73.14807499999999,
          "velocity": 0.6299212598425197,
          "duration": 0.34722187500000246
        },
        {
          "name": "C#5",
          "midi": 73,
          "time": 73.518445,
          "velocity": 0.6299212598425197,
          "duration": 0.14814800000000616
        },
        {
          "name": "D5",
          "midi": 74,
          "time": 73.70363,
          "velocity": 0.6299212598425197,
          "duration": 0.14814800000000616
        },
        {
          "name": "B4",
          "midi": 71,
          "time": 73.88881500000001,
          "velocity": 0.6299212598425197,
          "duration": 1.2222210000000047
        },
        {
          "name": "F#5",
          "midi": 78,
          "time": 75.18511000000001,
          "velocity": 0.6299212598425197,
          "duration": 0.14814800000000616
        },
        {
          "name": "E5",
          "midi": 76,
          "time": 75.37029500000001,
          "velocity": 0.6299212598425197,
          "duration": 0.5185180000000003
        },
        {
          "name": "D5",
          "midi": 74,
          "time": 75.92585000000001,
          "velocity": 0.6299212598425197,
          "duration": 0.14814800000000616
        },
        {
          "name": "C#5",
          "midi": 73,
          "time": 76.11103500000002,
          "velocity": 0.6299212598425197,
          "duration": 0.2962959999999981
        },
        {
          "name": "B4",
          "midi": 71,
          "time": 76.48140500000001,
          "velocity": 0.6299212598425197,
          "duration": 0.14814800000000616
        },
        {
          "name": "A4",
          "midi": 69,
          "time": 76.66659000000001,
          "velocity": 0.6299212598425197,
          "duration": 0.14814800000000616
        },
        {
          "name": "C#5",
          "midi": 73,
          "time": 76.85177500000002,
          "velocity": 0.6299212598425197,
          "duration": 0.14814800000000616
        },
        {
          "name": "B4",
          "midi": 71,
          "time": 77.03696000000002,
          "velocity": 0.6299212598425197,
          "duration": 0.915122541666662
        },
        {
          "name": "C#5",
          "midi": 73,
          "time": 77.96288500000001,
          "velocity": 0.6299212598425197,
          "duration": 0.14814800000000616
        },
        {
          "name": "D5",
          "midi": 74,
          "time": 78.14807000000002,
          "velocity": 0.6299212598425197,
          "duration": 0.14814800000000616
        },
        {
          "name": "C#5",
          "midi": 73,
          "time": 78.33325500000002,
          "velocity": 0.6299212598425197,
          "duration": 0.5185180000000003
        },
        {
          "name": "E5",
          "midi": 76,
          "time": 78.88881000000002,
          "velocity": 0.6299212598425197,
          "duration": 0.14814800000000616
        },
        {
          "name": "D5",
          "midi": 74,
          "time": 79.07399500000002,
          "velocity": 0.6299212598425197,
          "duration": 0.4444440000000043
        },
        {
          "name": "F#5",
          "midi": 78,
          "time": 79.62955000000002,
          "velocity": 0.6299212598425197,
          "duration": 0.14814800000000616
        },
        {
          "name": "G5",
          "midi": 79,
          "time": 79.81473500000003,
          "velocity": 0.6299212598425197,
          "duration": 1.2222210000000047
        },
        {
          "name": "D5",
          "midi": 74,
          "time": 81.11103000000003,
          "velocity": 0.6299212598425197,
          "duration": 0.14814800000000616
        },
        {
          "name": "E5",
          "midi": 76,
          "time": 81.29621500000003,
          "velocity": 0.6299212598425197,
          "duration": 0.48148100000000227
        },
        {
          "name": "D5",
          "midi": 74,
          "time": 81.85177000000003,
          "velocity": 0.6299212598425197,
          "duration": 0.14814800000000616
        },
        {
          "name": "C#5",
          "midi": 73,
          "time": 82.03695500000003,
          "velocity": 0.6299212598425197,
          "duration": 0.34722187500000246
        },
        {
          "name": "D5",
          "midi": 74,
          "time": 82.40732500000004,
          "velocity": 0.6299212598425197,
          "duration": 0.14814800000000616
        },
        {
          "name": "C#5",
          "midi": 73,
          "time": 82.59251000000005,
          "velocity": 0.6299212598425197,
          "duration": 0.2962959999999981
        },
        {
          "name": "B3",
          "midi": 59,
          "time": 87.40732000000004,
          "velocity": 0.6299212598425197,
          "duration": 0.07407399999999598
        },
        {
          "name": "B4",
          "midi": 71,
          "time": 87.40732000000004,
          "velocity": 0.6299212598425197,
          "duration": 0.07407399999999598
        },
        {
          "name": "D5",
          "midi": 74,
          "time": 87.49991250000004,
          "velocity": 0.6299212598425197,
          "duration": 0.07407399999999598
        },
        {
          "name": "D4",
          "midi": 62,
          "time": 87.49991250000004,
          "velocity": 0.6299212598425197,
          "duration": 0.07407399999999598
        },
        {
          "name": "C#4",
          "midi": 61,
          "time": 87.59250500000003,
          "velocity": 0.6299212598425197,
          "duration": 0.07407399999999598
        },
        {
          "name": "C#5",
          "midi": 73,
          "time": 87.59250500000003,
          "velocity": 0.6299212598425197,
          "duration": 0.07407399999999598
        },
        {
          "name": "A4",
          "midi": 69,
          "time": 87.68509750000003,
          "velocity": 0.6299212598425197,
          "duration": 0.07407399999999598
        },
        {
          "name": "A3",
          "midi": 57,
          "time": 87.68509750000003,
          "velocity": 0.6299212598425197,
          "duration": 0.07407399999999598
        },
        {
          "name": "D5",
          "midi": 74,
          "time": 87.77769000000002,
          "velocity": 0.6299212598425197,
          "duration": 0.07407399999999598
        },
        {
          "name": "D4",
          "midi": 62,
          "time": 87.77769000000002,
          "velocity": 0.6299212598425197,
          "duration": 0.07407399999999598
        },
        {
          "name": "A4",
          "midi": 69,
          "time": 87.87028250000002,
          "velocity": 0.6299212598425197,
          "duration": 0.07407399999999598
        },
        {
          "name": "A3",
          "midi": 57,
          "time": 87.87028250000002,
          "velocity": 0.6299212598425197,
          "duration": 0.07407399999999598
        },
        {
          "name": "B4",
          "midi": 71,
          "time": 87.96287500000001,
          "velocity": 0.6299212598425197,
          "duration": 0.07407399999999598
        },
        {
          "name": "B3",
          "midi": 59,
          "time": 87.96287500000001,
          "velocity": 0.6299212598425197,
          "duration": 0.07407399999999598
        },
        {
          "name": "C#5",
          "midi": 73,
          "time": 88.8888,
          "velocity": 0.6299212598425197,
          "duration": 0.4444440000000043
        },
        {
          "name": "A4",
          "midi": 69,
          "time": 89.444355,
          "velocity": 0.6299212598425197,
          "duration": 0.14814800000000616
        },
        {
          "name": "B4",
          "midi": 71,
          "time": 89.62954,
          "velocity": 0.6299212598425197,
          "duration": 1.2592580000000027
        },
        {
          "name": "F#4",
          "midi": 66,
          "time": 90.925835,
          "velocity": 0.6299212598425197,
          "duration": 0.07407399999999598
        },
        {
          "name": "B4",
          "midi": 71,
          "time": 91.0184275,
          "velocity": 0.6299212598425197,
          "duration": 0.07407399999999598
        },
        {
          "name": "C#5",
          "midi": 73,
          "time": 91.11102,
          "velocity": 0.6299212598425197,
          "duration": 0.17438254166665956
        },
        {
          "name": "D5",
          "midi": 74,
          "time": 91.29620499999999,
          "velocity": 0.6299212598425197,
          "duration": 0.17438254166665956
        },
        {
          "name": "E5",
          "midi": 76,
          "time": 91.48138999999998,
          "velocity": 0.6299212598425197,
          "duration": 0.17438254166665956
        },
        {
          "name": "C#5",
          "midi": 73,
          "time": 91.66657499999997,
          "velocity": 0.6299212598425197,
          "duration": 0.6296289999999942
        },
        {
          "name": "A4",
          "midi": 69,
          "time": 92.40731499999995,
          "velocity": 0.6299212598425197,
          "duration": 0.14814800000000616
        },
        {
          "name": "B4",
          "midi": 71,
          "time": 92.59249999999996,
          "velocity": 0.6299212598425197,
          "duration": 1.9259239999999949
        },
        {
          "name": "D5",
          "midi": 74,
          "time": 94.81471999999995,
          "velocity": 0.6299212598425197,
          "duration": 0.14814800000000616
        },
        {
          "name": "C#5",
          "midi": 73,
          "time": 94.99990499999996,
          "velocity": 0.6299212598425197,
          "duration": 0.14814800000000616
        },
        {
          "name": "D5",
          "midi": 74,
          "time": 95.18508999999996,
          "velocity": 0.6299212598425197,
          "duration": 0.14814800000000616
        },
        {
          "name": "E5",
          "midi": 76,
          "time": 95.37027499999996,
          "velocity": 0.6299212598425197,
          "duration": 0.14814800000000616
        },
        {
          "name": "F#5",
          "midi": 78,
          "time": 95.55545999999997,
          "velocity": 0.6299212598425197,
          "duration": 0.14814800000000616
        },
        {
          "name": "B4",
          "midi": 71,
          "time": 95.74064499999997,
          "velocity": 0.6299212598425197,
          "duration": 0.14814800000000616
        },
        {
          "name": "F#5",
          "midi": 78,
          "time": 95.92582999999998,
          "velocity": 0.6299212598425197,
          "duration": 0.14814800000000616
        },
        {
          "name": "F#5",
          "midi": 78,
          "time": 96.11101499999998,
          "velocity": 0.6299212598425197,
          "duration": 0.2962959999999981
        },
        {
          "name": "E5",
          "midi": 76,
          "time": 96.41965666666664,
          "velocity": 0.6299212598425197,
          "duration": 0.0987653333333327
        },
        {
          "name": "D5",
          "midi": 74,
          "time": 96.54311333333331,
          "velocity": 0.6299212598425197,
          "duration": 0.0987653333333327
        },
        {
          "name": "E5",
          "midi": 76,
          "time": 96.66656999999998,
          "velocity": 0.6299212598425197,
          "duration": 0.0987653333333327
        },
        {
          "name": "D5",
          "midi": 74,
          "time": 96.79002666666665,
          "velocity": 0.6299212598425197,
          "duration": 0.0987653333333327
        },
        {
          "name": "C#5",
          "midi": 73,
          "time": 96.91348333333332,
          "velocity": 0.6299212598425197,
          "duration": 0.0987653333333327
        },
        {
          "name": "D5",
          "midi": 74,
          "time": 97.03693999999999,
          "velocity": 0.6299212598425197,
          "duration": 0.0987653333333327
        },
        {
          "name": "C#5",
          "midi": 73,
          "time": 97.16039666666666,
          "velocity": 0.6299212598425197,
          "duration": 0.0987653333333327
        },
        {
          "name": "B4",
          "midi": 71,
          "time": 97.28385333333333,
          "velocity": 0.6299212598425197,
          "duration": 0.0987653333333327
        },
        {
          "name": "C#5",
          "midi": 73,
          "time": 97.40731,
          "velocity": 0.6299212598425197,
          "duration": 0.0987653333333327
        },
        {
          "name": "B4",
          "midi": 71,
          "time": 97.53076666666666,
          "velocity": 0.6299212598425197,
          "duration": 0.0987653333333327
        },
        {
          "name": "A4",
          "midi": 69,
          "time": 97.65422333333333,
          "velocity": 0.6299212598425197,
          "duration": 0.0987653333333327
        },
        {
          "name": "B4",
          "midi": 71,
          "time": 97.77768,
          "velocity": 0.6299212598425197,
          "duration": 0.2962959999999981
        },
        {
          "name": "C#5",
          "midi": 73,
          "time": 98.14805,
          "velocity": 0.6299212598425197,
          "duration": 0.2962959999999981
        },
        {
          "name": "D5",
          "midi": 74,
          "time": 98.51841999999999,
          "velocity": 0.6299212598425197,
          "duration": 0.14814800000000616
        },
        {
          "name": "C#5",
          "midi": 73,
          "time": 98.703605,
          "velocity": 0.6299212598425197,
          "duration": 0.14814800000000616
        },
        {
          "name": "D5",
          "midi": 74,
          "time": 98.88879,
          "velocity": 0.6299212598425197,
          "duration": 0.14814800000000616
        },
        {
          "name": "F#5",
          "midi": 78,
          "time": 99.073975,
          "velocity": 0.6299212598425197,
          "duration": 0.07407399999999598
        },
        {
          "name": "E5",
          "midi": 76,
          "time": 99.1665675,
          "velocity": 0.6299212598425197,
          "duration": 0.07407399999999598
        },
        {
          "name": "F#5",
          "midi": 78,
          "time": 99.25916,
          "velocity": 0.6299212598425197,
          "duration": 0.17438254166667377
        },
        {
          "name": "B4",
          "midi": 71,
          "time": 99.444345,
          "velocity": 0.6299212598425197,
          "duration": 0.14814800000000616
        },
        {
          "name": "E5",
          "midi": 76,
          "time": 99.62953,
          "velocity": 0.6299212598425197,
          "duration": 0.14814800000000616
        },
        {
          "name": "B4",
          "midi": 71,
          "time": 99.814715,
          "velocity": 0.6299212598425197,
          "duration": 0.14814800000000616
        },
        {
          "name": "D5",
          "midi": 74,
          "time": 99.99990000000001,
          "velocity": 0.6299212598425197,
          "duration": 0.14814800000000616
        },
        {
          "name": "E5",
          "midi": 76,
          "time": 100.18508500000002,
          "velocity": 0.6299212598425197,
          "duration": 0.14814800000000616
        },
        {
          "name": "C#5",
          "midi": 73,
          "time": 100.37027000000002,
          "velocity": 0.6299212598425197,
          "duration": 0.2962959999999981
        },
        {
          "name": "D5",
          "midi": 74,
          "time": 100.74064000000001,
          "velocity": 0.6299212598425197,
          "duration": 0.14814800000000616
        },
        {
          "name": "B4",
          "midi": 71,
          "time": 100.74064000000001,
          "velocity": 0.6299212598425197,
          "duration": 0.14814800000000616
        },
        {
          "name": "C#5",
          "midi": 73,
          "time": 100.92582500000002,
          "velocity": 0.6299212598425197,
          "duration": 0.14814800000000616
        },
        {
          "name": "E5",
          "midi": 76,
          "time": 100.92582500000002,
          "velocity": 0.6299212598425197,
          "duration": 0.14814800000000616
        },
        {
          "name": "C#5",
          "midi": 73,
          "time": 101.11101000000002,
          "velocity": 0.6299212598425197,
          "duration": 0.14814800000000616
        },
        {
          "name": "A4",
          "midi": 69,
          "time": 101.11101000000002,
          "velocity": 0.6299212598425197,
          "duration": 0.14814800000000616
        },
        {
          "name": "D5",
          "midi": 74,
          "time": 101.29619500000003,
          "velocity": 0.6299212598425197,
          "duration": 0.14814800000000616
        },
        {
          "name": "B4",
          "midi": 71,
          "time": 101.29619500000003,
          "velocity": 0.6299212598425197,
          "duration": 0.14814800000000616
        },
        {
          "name": "F#4",
          "midi": 66,
          "time": 101.48138000000003,
          "velocity": 0.6299212598425197,
          "duration": 0.14814800000000616
        },
        {
          "name": "B4",
          "midi": 71,
          "time": 101.48138000000003,
          "velocity": 0.6299212598425197,
          "duration": 0.14814800000000616
        },
        {
          "name": "A4",
          "midi": 69,
          "time": 101.66656500000003,
          "velocity": 0.6299212598425197,
          "duration": 0.14814800000000616
        },
        {
          "name": "C#5",
          "midi": 73,
          "time": 101.66656500000003,
          "velocity": 0.6299212598425197,
          "duration": 0.14814800000000616
        },
        {
          "name": "E4",
          "midi": 64,
          "time": 101.85175000000004,
          "velocity": 0.6299212598425197,
          "duration": 0.14814800000000616
        },
        {
          "name": "A4",
          "midi": 69,
          "time": 101.85175000000004,
          "velocity": 0.6299212598425197,
          "duration": 0.14814800000000616
        },
        {
          "name": "B4",
          "midi": 71,
          "time": 102.03693500000004,
          "velocity": 0.6299212598425197,
          "duration": 0.3333329999999961
        },
        {
          "name": "F#4",
          "midi": 66,
          "time": 102.03693500000004,
          "velocity": 0.6299212598425197,
          "duration": 0.3333329999999961
        },
        {
          "name": "D4",
          "midi": 62,
          "time": 102.40730500000004,
          "velocity": 0.6299212598425197,
          "duration": 0.07407399999999598
        },
        {
          "name": "F#4",
          "midi": 66,
          "time": 102.40730500000004,
          "velocity": 0.6299212598425197,
          "duration": 0.07407399999999598
        },
        {
          "name": "F#4",
          "midi": 66,
          "time": 102.49989750000003,
          "velocity": 0.6299212598425197,
          "duration": 0.07407399999999598
        },
        {
          "name": "B4",
          "midi": 71,
          "time": 102.49989750000003,
          "velocity": 0.6299212598425197,
          "duration": 0.07407399999999598
        },
        {
          "name": "D5",
          "midi": 74,
          "time": 102.59249000000003,
          "velocity": 0.6299212598425197,
          "duration": 0.14814800000000616
        },
        {
          "name": "B4",
          "midi": 71,
          "time": 102.59249000000003,
          "velocity": 0.6299212598425197,
          "duration": 0.14814800000000616
        },
        {
          "name": "D4",
          "midi": 62,
          "time": 102.77767500000003,
          "velocity": 0.6299212598425197,
          "duration": 0.07407399999999598
        },
        {
          "name": "F#4",
          "midi": 66,
          "time": 102.77767500000003,
          "velocity": 0.6299212598425197,
          "duration": 0.07407399999999598
        },
        {
          "name": "B4",
          "midi": 71,
          "time": 102.87026750000003,
          "velocity": 0.6299212598425197,
          "duration": 0.07407399999999598
        },
        {
          "name": "F#4",
          "midi": 66,
          "time": 102.87026750000003,
          "velocity": 0.6299212598425197,
          "duration": 0.07407399999999598
        },
        {
          "name": "C#5",
          "midi": 73,
          "time": 102.96286000000002,
          "velocity": 0.6299212598425197,
          "duration": 0.14814800000000616
        },
        {
          "name": "E5",
          "midi": 76,
          "time": 102.96286000000002,
          "velocity": 0.6299212598425197,
          "duration": 0.14814800000000616
        },
        {
          "name": "B4",
          "midi": 71,
          "time": 103.14804500000002,
          "velocity": 0.6299212598425197,
          "duration": 0.14814800000000616
        },
        {
          "name": "D5",
          "midi": 74,
          "time": 103.14804500000002,
          "velocity": 0.6299212598425197,
          "duration": 0.14814800000000616
        },
        {
          "name": "E5",
          "midi": 76,
          "time": 103.33323000000003,
          "velocity": 0.6299212598425197,
          "duration": 0.14814800000000616
        },
        {
          "name": "C#5",
          "midi": 73,
          "time": 103.33323000000003,
          "velocity": 0.6299212598425197,
          "duration": 0.14814800000000616
        },
        {
          "name": "F#5",
          "midi": 78,
          "time": 103.51841500000003,
          "velocity": 0.6299212598425197,
          "duration": 0.5447525416666679
        },
        {
          "name": "D5",
          "midi": 74,
          "time": 103.51841500000003,
          "velocity": 0.6299212598425197,
          "duration": 0.5447525416666679
        },
        {
          "name": "G5",
          "midi": 79,
          "time": 104.07397000000003,
          "velocity": 0.6299212598425197,
          "duration": 0.14814800000000616
        },
        {
          "name": "E5",
          "midi": 76,
          "time": 104.07397000000003,
          "velocity": 0.6299212598425197,
          "duration": 0.14814800000000616
        },
        {
          "name": "D5",
          "midi": 74,
          "time": 104.25915500000004,
          "velocity": 0.6299212598425197,
          "duration": 2.111108999999999
        },
        {
          "name": "F#5",
          "midi": 78,
          "time": 104.25915500000004,
          "velocity": 0.6299212598425197,
          "duration": 2.111108999999999
        },
        {
          "name": "D5",
          "midi": 74,
          "time": 106.66656000000003,
          "velocity": 0.6299212598425197,
          "duration": 0.14814800000000616
        },
        {
          "name": "B4",
          "midi": 71,
          "time": 106.66656000000003,
          "velocity": 0.6299212598425197,
          "duration": 0.14814800000000616
        },
        {
          "name": "F#4",
          "midi": 66,
          "time": 106.85174500000004,
          "velocity": 0.6299212598425197,
          "duration": 0.14814800000000616
        },
        {
          "name": "B4",
          "midi": 71,
          "time": 106.85174500000004,
          "velocity": 0.6299212598425197,
          "duration": 0.14814800000000616
        },
        {
          "name": "B4",
          "midi": 71,
          "time": 107.22211500000004,
          "velocity": 0.6299212598425197,
          "duration": 0.07407399999999598
        },
        {
          "name": "F#4",
          "midi": 66,
          "time": 107.22211500000004,
          "velocity": 0.6299212598425197,
          "duration": 0.07407399999999598
        },
        {
          "name": "A4",
          "midi": 69,
          "time": 107.31470750000004,
          "velocity": 0.6299212598425197,
          "duration": 0.07407399999999598
        },
        {
          "name": "C#5",
          "midi": 73,
          "time": 107.31470750000004,
          "velocity": 0.6299212598425197,
          "duration": 0.07407399999999598
        },
        {
          "name": "B4",
          "midi": 71,
          "time": 107.40730000000003,
          "velocity": 0.6299212598425197,
          "duration": 0.17438254166667377
        },
        {
          "name": "D5",
          "midi": 74,
          "time": 107.40730000000003,
          "velocity": 0.6299212598425197,
          "duration": 0.17438254166667377
        },
        {
          "name": "B4",
          "midi": 71,
          "time": 107.59248500000004,
          "velocity": 0.6299212598425197,
          "duration": 0.07407399999999598
        },
        {
          "name": "F#4",
          "midi": 66,
          "time": 107.59248500000004,
          "velocity": 0.6299212598425197,
          "duration": 0.07407399999999598
        },
        {
          "name": "C#5",
          "midi": 73,
          "time": 107.68507750000003,
          "velocity": 0.6299212598425197,
          "duration": 0.07407399999999598
        },
        {
          "name": "A4",
          "midi": 69,
          "time": 107.68507750000003,
          "velocity": 0.6299212598425197,
          "duration": 0.07407399999999598
        },
        {
          "name": "D5",
          "midi": 74,
          "time": 107.77767000000003,
          "velocity": 0.6299212598425197,
          "duration": 0.14814800000000616
        },
        {
          "name": "B4",
          "midi": 71,
          "time": 107.77767000000003,
          "velocity": 0.6299212598425197,
          "duration": 0.14814800000000616
        },
        {
          "name": "C#5",
          "midi": 73,
          "time": 107.96285500000003,
          "velocity": 0.6299212598425197,
          "duration": 0.14814800000000616
        },
        {
          "name": "E5",
          "midi": 76,
          "time": 107.96285500000003,
          "velocity": 0.6299212598425197,
          "duration": 0.14814800000000616
        },
        {
          "name": "D5",
          "midi": 74,
          "time": 108.14804000000004,
          "velocity": 0.6299212598425197,
          "duration": 0.14814800000000616
        },
        {
          "name": "F#5",
          "midi": 78,
          "time": 108.14804000000004,
          "velocity": 0.6299212598425197,
          "duration": 0.14814800000000616
        },
        {
          "name": "G5",
          "midi": 79,
          "time": 108.33322500000004,
          "velocity": 0.6299212598425197,
          "duration": 0.14814800000000616
        },
        {
          "name": "E5",
          "midi": 76,
          "time": 108.33322500000004,
          "velocity": 0.6299212598425197,
          "duration": 0.14814800000000616
        },
        {
          "name": "D5",
          "midi": 74,
          "time": 108.51841000000005,
          "velocity": 0.6299212598425197,
          "duration": 0.14814800000000616
        },
        {
          "name": "F#5",
          "midi": 78,
          "time": 108.51841000000005,
          "velocity": 0.6299212598425197,
          "duration": 0.14814800000000616
        },
        {
          "name": "E5",
          "midi": 76,
          "time": 108.70359500000005,
          "velocity": 0.6299212598425197,
          "duration": 0.2962959999999981
        },
        {
          "name": "C#5",
          "midi": 73,
          "time": 108.70359500000005,
          "velocity": 0.6299212598425197,
          "duration": 0.2962959999999981
        },
        {
          "name": "B4",
          "midi": 71,
          "time": 109.07396500000004,
          "velocity": 0.6299212598425197,
          "duration": 0.2962959999999981
        },
        {
          "name": "D5",
          "midi": 74,
          "time": 109.07396500000004,
          "velocity": 0.6299212598425197,
          "duration": 0.2962959999999981
        },
        {
          "name": "C#5",
          "midi": 73,
          "time": 109.44433500000004,
          "velocity": 0.6299212598425197,
          "duration": 0.6296289999999942
        },
        {
          "name": "A4",
          "midi": 69,
          "time": 109.44433500000004,
          "velocity": 0.6299212598425197,
          "duration": 0.6296289999999942
        },
        {
          "name": "D5",
          "midi": 74,
          "time": 110.18507500000003,
          "velocity": 0.6299212598425197,
          "duration": 0.14814800000000616
        },
        {
          "name": "B4",
          "midi": 71,
          "time": 110.18507500000003,
          "velocity": 0.6299212598425197,
          "duration": 0.14814800000000616
        },
        {
          "name": "G4",
          "midi": 67,
          "time": 110.37026000000003,
          "velocity": 0.6299212598425197,
          "duration": 0.5925919999999962
        },
        {
          "name": "B4",
          "midi": 71,
          "time": 110.37026000000003,
          "velocity": 0.6299212598425197,
          "duration": 0.5925919999999962
        },
        {
          "name": "B4",
          "midi": 71,
          "time": 111.11100000000003,
          "velocity": 0.6299212598425197,
          "duration": 0.07407399999999598
        },
        {
          "name": "G4",
          "midi": 67,
          "time": 111.11100000000003,
          "velocity": 0.6299212598425197,
          "duration": 0.07407399999999598
        },
        {
          "name": "F#4",
          "midi": 66,
          "time": 111.20359250000003,
          "velocity": 0.6299212598425197,
          "duration": 0.07407399999999598
        },
        {
          "name": "A4",
          "midi": 69,
          "time": 111.20359250000003,
          "velocity": 0.6299212598425197,
          "duration": 0.07407399999999598
        },
        {
          "name": "G4",
          "midi": 67,
          "time": 111.29618500000002,
          "velocity": 0.6299212598425197,
          "duration": 0.07407399999999598
        },
        {
          "name": "B4",
          "midi": 71,
          "time": 111.29618500000002,
          "velocity": 0.6299212598425197,
          "duration": 0.07407399999999598
        },
        {
          "name": "A4",
          "midi": 69,
          "time": 111.38877750000002,
          "velocity": 0.6299212598425197,
          "duration": 0.07407399999999598
        },
        {
          "name": "C#5",
          "midi": 73,
          "time": 111.38877750000002,
          "velocity": 0.6299212598425197,
          "duration": 0.07407399999999598
        },
        {
          "name": "D5",
          "midi": 74,
          "time": 111.48137000000001,
          "velocity": 0.6299212598425197,
          "duration": 0.07407399999999598
        },
        {
          "name": "B4",
          "midi": 71,
          "time": 111.48137000000001,
          "velocity": 0.6299212598425197,
          "duration": 0.07407399999999598
        },
        {
          "name": "A4",
          "midi": 69,
          "time": 111.57396250000001,
          "velocity": 0.6299212598425197,
          "duration": 0.07407399999999598
        },
        {
          "name": "C#5",
          "midi": 73,
          "time": 111.57396250000001,
          "velocity": 0.6299212598425197,
          "duration": 0.07407399999999598
        },
        {
          "name": "D5",
          "midi": 74,
          "time": 111.666555,
          "velocity": 0.6299212598425197,
          "duration": 0.07407399999999598
        },
        {
          "name": "B4",
          "midi": 71,
          "time": 111.666555,
          "velocity": 0.6299212598425197,
          "duration": 0.07407399999999598
        },
        {
          "name": "E5",
          "midi": 76,
          "time": 111.7591475,
          "velocity": 0.6299212598425197,
          "duration": 0.07407399999999598
        },
        {
          "name": "C#5",
          "midi": 73,
          "time": 111.7591475,
          "velocity": 0.6299212598425197,
          "duration": 0.07407399999999598
        },
        {
          "name": "F#5",
          "midi": 78,
          "time": 111.85173999999999,
          "velocity": 0.6299212598425197,
          "duration": 0.07407399999999598
        },
        {
          "name": "D5",
          "midi": 74,
          "time": 111.85173999999999,
          "velocity": 0.6299212598425197,
          "duration": 0.07407399999999598
        },
        {
          "name": "E5",
          "midi": 76,
          "time": 111.94433249999999,
          "velocity": 0.6299212598425197,
          "duration": 0.07407399999999598
        },
        {
          "name": "C#5",
          "midi": 73,
          "time": 111.94433249999999,
          "velocity": 0.6299212598425197,
          "duration": 0.07407399999999598
        },
        {
          "name": "D5",
          "midi": 74,
          "time": 112.03692499999998,
          "velocity": 0.6299212598425197,
          "duration": 0.07407399999999598
        },
        {
          "name": "F#5",
          "midi": 78,
          "time": 112.03692499999998,
          "velocity": 0.6299212598425197,
          "duration": 0.07407399999999598
        },
        {
          "name": "G5",
          "midi": 79,
          "time": 112.12951749999998,
          "velocity": 0.6299212598425197,
          "duration": 0.07407399999999598
        },
        {
          "name": "E5",
          "midi": 76,
          "time": 112.12951749999998,
          "velocity": 0.6299212598425197,
          "duration": 0.07407399999999598
        },
        {
          "name": "A5",
          "midi": 81,
          "time": 112.22210999999997,
          "velocity": 0.6299212598425197,
          "duration": 0.07407399999999598
        },
        {
          "name": "F#5",
          "midi": 78,
          "time": 112.22210999999997,
          "velocity": 0.6299212598425197,
          "duration": 0.07407399999999598
        },
        {
          "name": "G5",
          "midi": 79,
          "time": 112.31470249999997,
          "velocity": 0.6299212598425197,
          "duration": 0.07407399999999598
        },
        {
          "name": "E5",
          "midi": 76,
          "time": 112.31470249999997,
          "velocity": 0.6299212598425197,
          "duration": 0.07407399999999598
        },
        {
          "name": "F#5",
          "midi": 78,
          "time": 112.40729499999996,
          "velocity": 0.6299212598425197,
          "duration": 0.07407399999999598
        },
        {
          "name": "D5",
          "midi": 74,
          "time": 112.40729499999996,
          "velocity": 0.6299212598425197,
          "duration": 0.07407399999999598
        },
        {
          "name": "C#5",
          "midi": 73,
          "time": 112.49988749999996,
          "velocity": 0.6299212598425197,
          "duration": 0.07407399999999598
        },
        {
          "name": "E5",
          "midi": 76,
          "time": 112.49988749999996,
          "velocity": 0.6299212598425197,
          "duration": 0.07407399999999598
        }
      ],
      "controlChanges": {
        "7": [
          {
            "number": 7,
            "time": 0,
            "value": 1
          }
        ]
      },
      "id": 10,
      "instrumentNumber": 56,
      "instrument": "sound fx kit",
      "instrumentFamily": "drums",
      "channelNumber": 10,
      "isPercussion": true
    },
    {
      "startTime": 0,
      "duration": 112.56933187500036,
      "length": 904,
      "notes": [
        {
          "name": "C2",
          "midi": 36,
          "time": 0,
          "velocity": 0.6299212598425197,
          "duration": 0.14814800000000003
        },
        {
          "name": "B1",
          "midi": 35,
          "time": 0,
          "velocity": 0.6299212598425197,
          "duration": 0.14814800000000003
        },
        {
          "name": "C2",
          "midi": 36,
          "time": 0.18518500000000004,
          "velocity": 0.6299212598425197,
          "duration": 0.14814800000000006
        },
        {
          "name": "B1",
          "midi": 35,
          "time": 0.18518500000000004,
          "velocity": 0.6299212598425197,
          "duration": 0.14814800000000006
        },
        {
          "name": "D2",
          "midi": 38,
          "time": 0.3703700000000001,
          "velocity": 0.6299212598425197,
          "duration": 0.14814800000000006
        },
        {
          "name": "E2",
          "midi": 40,
          "time": 0.3703700000000001,
          "velocity": 0.6299212598425197,
          "duration": 0.14814800000000006
        },
        {
          "name": "C2",
          "midi": 36,
          "time": 0.7407400000000002,
          "velocity": 0.6299212598425197,
          "duration": 0.14814800000000006
        },
        {
          "name": "B1",
          "midi": 35,
          "time": 0.7407400000000002,
          "velocity": 0.6299212598425197,
          "duration": 0.14814800000000006
        },
        {
          "name": "B1",
          "midi": 35,
          "time": 0.9259250000000002,
          "velocity": 0.6299212598425197,
          "duration": 0.14814800000000006
        },
        {
          "name": "B1",
          "midi": 35,
          "time": 0.9259250000000002,
          "velocity": 0.6299212598425197,
          "duration": 0.14814800000000006
        },
        {
          "name": "C2",
          "midi": 36,
          "time": 0.9259250000000002,
          "velocity": 0.6299212598425197,
          "duration": 0.14814800000000006
        },
        {
          "name": "D2",
          "midi": 38,
          "time": 1.1111100000000003,
          "velocity": 0.6299212598425197,
          "duration": 0.14814799999999995
        },
        {
          "name": "E2",
          "midi": 40,
          "time": 1.1111100000000003,
          "velocity": 0.6299212598425197,
          "duration": 0.14814799999999995
        },
        {
          "name": "C2",
          "midi": 36,
          "time": 1.2962950000000002,
          "velocity": 0.6299212598425197,
          "duration": 0.14814799999999995
        },
        {
          "name": "B1",
          "midi": 35,
          "time": 1.2962950000000002,
          "velocity": 0.6299212598425197,
          "duration": 0.14814799999999995
        },
        {
          "name": "C2",
          "midi": 36,
          "time": 1.666665,
          "velocity": 0.6299212598425197,
          "duration": 0.14814799999999995
        },
        {
          "name": "B1",
          "midi": 35,
          "time": 1.666665,
          "velocity": 0.6299212598425197,
          "duration": 0.14814799999999995
        },
        {
          "name": "E2",
          "midi": 40,
          "time": 1.85185,
          "velocity": 0.6299212598425197,
          "duration": 0.14814799999999995
        },
        {
          "name": "D2",
          "midi": 38,
          "time": 1.85185,
          "velocity": 0.6299212598425197,
          "duration": 0.14814799999999995
        },
        {
          "name": "E2",
          "midi": 40,
          "time": 2.037035,
          "velocity": 0.6299212598425197,
          "duration": 0.14814799999999995
        },
        {
          "name": "D2",
          "midi": 38,
          "time": 2.037035,
          "velocity": 0.6299212598425197,
          "duration": 0.14814799999999995
        },
        {
          "name": "D2",
          "midi": 38,
          "time": 2.22222,
          "velocity": 0.6299212598425197,
          "duration": 0.2962959999999999
        },
        {
          "name": "E2",
          "midi": 40,
          "time": 2.22222,
          "velocity": 0.6299212598425197,
          "duration": 0.2962959999999999
        },
        {
          "name": "D2",
          "midi": 38,
          "time": 2.59259,
          "velocity": 0.6299212598425197,
          "duration": 0.14814799999999995
        },
        {
          "name": "E2",
          "midi": 40,
          "time": 2.59259,
          "velocity": 0.6299212598425197,
          "duration": 0.14814799999999995
        },
        {
          "name": "E2",
          "midi": 40,
          "time": 2.777775,
          "velocity": 0.6299212598425197,
          "duration": 0.14814799999999995
        },
        {
          "name": "D2",
          "midi": 38,
          "time": 2.777775,
          "velocity": 0.6299212598425197,
          "duration": 0.14814799999999995
        },
        {
          "name": "C2",
          "midi": 36,
          "time": 3.148145,
          "velocity": 0.6299212598425197,
          "duration": 0.14814799999999995
        },
        {
          "name": "B1",
          "midi": 35,
          "time": 3.148145,
          "velocity": 0.6299212598425197,
          "duration": 0.14814799999999995
        },
        {
          "name": "E2",
          "midi": 40,
          "time": 3.33333,
          "velocity": 0.6299212598425197,
          "duration": 0.14814799999999995
        },
        {
          "name": "D2",
          "midi": 38,
          "time": 3.33333,
          "velocity": 0.6299212598425197,
          "duration": 0.14814799999999995
        },
        {
          "name": "C2",
          "midi": 36,
          "time": 3.7037,
          "velocity": 0.6299212598425197,
          "duration": 0.14814799999999995
        },
        {
          "name": "B1",
          "midi": 35,
          "time": 3.7037,
          "velocity": 0.6299212598425197,
          "duration": 0.14814799999999995
        },
        {
          "name": "B1",
          "midi": 35,
          "time": 3.888885,
          "velocity": 0.6299212598425197,
          "duration": 0.14814799999999995
        },
        {
          "name": "C2",
          "midi": 36,
          "time": 3.888885,
          "velocity": 0.6299212598425197,
          "duration": 0.14814799999999995
        },
        {
          "name": "E2",
          "midi": 40,
          "time": 4.07407,
          "velocity": 0.6299212598425197,
          "duration": 0.14814799999999995
        },
        {
          "name": "D2",
          "midi": 38,
          "time": 4.07407,
          "velocity": 0.6299212598425197,
          "duration": 0.14814799999999995
        },
        {
          "name": "B1",
          "midi": 35,
          "time": 4.259255,
          "velocity": 0.6299212598425197,
          "duration": 0.14814799999999995
        },
        {
          "name": "C2",
          "midi": 36,
          "time": 4.259255,
          "velocity": 0.6299212598425197,
          "duration": 0.14814799999999995
        },
        {
          "name": "C2",
          "midi": 36,
          "time": 4.629625,
          "velocity": 0.6299212598425197,
          "duration": 0.14814799999999995
        },
        {
          "name": "B1",
          "midi": 35,
          "time": 4.629625,
          "velocity": 0.6299212598425197,
          "duration": 0.14814799999999995
        },
        {
          "name": "E2",
          "midi": 40,
          "time": 4.81481,
          "velocity": 0.6299212598425197,
          "duration": 0.14814799999999995
        },
        {
          "name": "D2",
          "midi": 38,
          "time": 4.81481,
          "velocity": 0.6299212598425197,
          "duration": 0.14814799999999995
        },
        {
          "name": "D2",
          "midi": 38,
          "time": 4.999994999999999,
          "velocity": 0.6299212598425197,
          "duration": 0.14814799999999995
        },
        {
          "name": "E2",
          "midi": 40,
          "time": 4.999994999999999,
          "velocity": 0.6299212598425197,
          "duration": 0.14814799999999995
        },
        {
          "name": "E2",
          "midi": 40,
          "time": 5.185179999999999,
          "velocity": 0.6299212598425197,
          "duration": 0.2962959999999999
        },
        {
          "name": "D2",
          "midi": 38,
          "time": 5.185179999999999,
          "velocity": 0.6299212598425197,
          "duration": 0.2962959999999999
        },
        {
          "name": "E2",
          "midi": 40,
          "time": 5.555549999999999,
          "velocity": 0.6299212598425197,
          "duration": 0.3472218749999998
        },
        {
          "name": "D2",
          "midi": 38,
          "time": 5.555549999999999,
          "velocity": 0.6299212598425197,
          "duration": 0.3472218749999998
        },
        {
          "name": "C2",
          "midi": 36,
          "time": 5.925919999999999,
          "velocity": 0.6299212598425197,
          "duration": 0.14814799999999995
        },
        {
          "name": "B1",
          "midi": 35,
          "time": 5.925919999999999,
          "velocity": 0.6299212598425197,
          "duration": 0.14814799999999995
        },
        {
          "name": "B1",
          "midi": 35,
          "time": 6.1111049999999985,
          "velocity": 0.6299212598425197,
          "duration": 0.14814799999999995
        },
        {
          "name": "C2",
          "midi": 36,
          "time": 6.1111049999999985,
          "velocity": 0.6299212598425197,
          "duration": 0.14814799999999995
        },
        {
          "name": "D2",
          "midi": 38,
          "time": 6.296289999999998,
          "velocity": 0.6299212598425197,
          "duration": 0.14814799999999995
        },
        {
          "name": "E2",
          "midi": 40,
          "time": 6.296289999999998,
          "velocity": 0.6299212598425197,
          "duration": 0.14814799999999995
        },
        {
          "name": "B1",
          "midi": 35,
          "time": 6.6666599999999985,
          "velocity": 0.6299212598425197,
          "duration": 0.14814799999999995
        },
        {
          "name": "C2",
          "midi": 36,
          "time": 6.6666599999999985,
          "velocity": 0.6299212598425197,
          "duration": 0.14814799999999995
        },
        {
          "name": "C2",
          "midi": 36,
          "time": 6.851844999999998,
          "velocity": 0.6299212598425197,
          "duration": 0.14814799999999995
        },
        {
          "name": "B1",
          "midi": 35,
          "time": 6.851844999999998,
          "velocity": 0.6299212598425197,
          "duration": 0.14814799999999995
        },
        {
          "name": "B1",
          "midi": 35,
          "time": 6.851844999999998,
          "velocity": 0.6299212598425197,
          "duration": 0.14814799999999995
        },
        {
          "name": "D2",
          "midi": 38,
          "time": 7.037029999999998,
          "velocity": 0.6299212598425197,
          "duration": 0.14814799999999995
        },
        {
          "name": "E2",
          "midi": 40,
          "time": 7.037029999999998,
          "velocity": 0.6299212598425197,
          "duration": 0.14814799999999995
        },
        {
          "name": "C2",
          "midi": 36,
          "time": 7.222214999999998,
          "velocity": 0.6299212598425197,
          "duration": 0.14814799999999995
        },
        {
          "name": "B1",
          "midi": 35,
          "time": 7.222214999999998,
          "velocity": 0.6299212598425197,
          "duration": 0.14814799999999995
        },
        {
          "name": "B1",
          "midi": 35,
          "time": 7.592584999999998,
          "velocity": 0.6299212598425197,
          "duration": 0.14814799999999995
        },
        {
          "name": "C2",
          "midi": 36,
          "time": 7.592584999999998,
          "velocity": 0.6299212598425197,
          "duration": 0.14814799999999995
        },
        {
          "name": "E2",
          "midi": 40,
          "time": 7.777769999999998,
          "velocity": 0.6299212598425197,
          "duration": 0.14814799999999995
        },
        {
          "name": "D2",
          "midi": 38,
          "time": 7.777769999999998,
          "velocity": 0.6299212598425197,
          "duration": 0.14814799999999995
        },
        {
          "name": "D2",
          "midi": 38,
          "time": 7.962954999999997,
          "velocity": 0.6299212598425197,
          "duration": 0.14814800000000083
        },
        {
          "name": "E2",
          "midi": 40,
          "time": 7.962954999999997,
          "velocity": 0.6299212598425197,
          "duration": 0.14814800000000083
        },
        {
          "name": "D2",
          "midi": 38,
          "time": 8.148139999999998,
          "velocity": 0.6299212598425197,
          "duration": 0.2962959999999999
        },
        {
          "name": "E2",
          "midi": 40,
          "time": 8.148139999999998,
          "velocity": 0.6299212598425197,
          "duration": 0.2962959999999999
        },
        {
          "name": "E2",
          "midi": 40,
          "time": 8.518509999999997,
          "velocity": 0.6299212598425197,
          "duration": 0.14814800000000083
        },
        {
          "name": "D2",
          "midi": 38,
          "time": 8.518509999999997,
          "velocity": 0.6299212598425197,
          "duration": 0.14814800000000083
        },
        {
          "name": "D2",
          "midi": 38,
          "time": 8.703694999999998,
          "velocity": 0.6299212598425197,
          "duration": 0.14814800000000083
        },
        {
          "name": "E2",
          "midi": 40,
          "time": 8.703694999999998,
          "velocity": 0.6299212598425197,
          "duration": 0.14814800000000083
        },
        {
          "name": "B1",
          "midi": 35,
          "time": 9.074065,
          "velocity": 0.6299212598425197,
          "duration": 0.14814800000000083
        },
        {
          "name": "C2",
          "midi": 36,
          "time": 9.074065,
          "velocity": 0.6299212598425197,
          "duration": 0.14814800000000083
        },
        {
          "name": "D2",
          "midi": 38,
          "time": 9.25925,
          "velocity": 0.6299212598425197,
          "duration": 0.14814800000000083
        },
        {
          "name": "E2",
          "midi": 40,
          "time": 9.25925,
          "velocity": 0.6299212598425197,
          "duration": 0.14814800000000083
        },
        {
          "name": "C2",
          "midi": 36,
          "time": 9.629620000000001,
          "velocity": 0.6299212598425197,
          "duration": 0.14814800000000083
        },
        {
          "name": "B1",
          "midi": 35,
          "time": 9.629620000000001,
          "velocity": 0.6299212598425197,
          "duration": 0.14814800000000083
        },
        {
          "name": "B1",
          "midi": 35,
          "time": 9.814805000000002,
          "velocity": 0.6299212598425197,
          "duration": 0.14814800000000083
        },
        {
          "name": "C2",
          "midi": 36,
          "time": 9.814805000000002,
          "velocity": 0.6299212598425197,
          "duration": 0.14814800000000083
        },
        {
          "name": "E2",
          "midi": 40,
          "time": 9.999990000000002,
          "velocity": 0.6299212598425197,
          "duration": 0.14814800000000083
        },
        {
          "name": "D2",
          "midi": 38,
          "time": 9.999990000000002,
          "velocity": 0.6299212598425197,
          "duration": 0.14814800000000083
        },
        {
          "name": "B1",
          "midi": 35,
          "time": 10.185175000000003,
          "velocity": 0.6299212598425197,
          "duration": 0.14814800000000083
        },
        {
          "name": "C2",
          "midi": 36,
          "time": 10.185175000000003,
          "velocity": 0.6299212598425197,
          "duration": 0.14814800000000083
        },
        {
          "name": "B1",
          "midi": 35,
          "time": 10.555545000000004,
          "velocity": 0.6299212598425197,
          "duration": 0.14814800000000083
        },
        {
          "name": "C2",
          "midi": 36,
          "time": 10.555545000000004,
          "velocity": 0.6299212598425197,
          "duration": 0.14814800000000083
        },
        {
          "name": "E2",
          "midi": 40,
          "time": 10.740730000000005,
          "velocity": 0.6299212598425197,
          "duration": 0.14814800000000083
        },
        {
          "name": "D2",
          "midi": 38,
          "time": 10.740730000000005,
          "velocity": 0.6299212598425197,
          "duration": 0.14814800000000083
        },
        {
          "name": "E2",
          "midi": 40,
          "time": 10.925915000000005,
          "velocity": 0.6299212598425197,
          "duration": 0.14814800000000083
        },
        {
          "name": "D2",
          "midi": 38,
          "time": 10.925915000000005,
          "velocity": 0.6299212598425197,
          "duration": 0.14814800000000083
        },
        {
          "name": "D2",
          "midi": 38,
          "time": 11.111100000000006,
          "velocity": 0.6299212598425197,
          "duration": 0.2962959999999999
        },
        {
          "name": "E2",
          "midi": 40,
          "time": 11.111100000000006,
          "velocity": 0.6299212598425197,
          "duration": 0.2962959999999999
        },
        {
          "name": "D2",
          "midi": 38,
          "time": 11.481470000000005,
          "velocity": 0.6299212598425197,
          "duration": 0.3472218750000007
        },
        {
          "name": "E2",
          "midi": 40,
          "time": 11.481470000000005,
          "velocity": 0.6299212598425197,
          "duration": 0.3472218750000007
        },
        {
          "name": "D3",
          "midi": 50,
          "time": 12.592580000000005,
          "velocity": 0.6299212598425197,
          "duration": 0.14814800000000083
        },
        {
          "name": "D3",
          "midi": 50,
          "time": 12.777765000000006,
          "velocity": 0.6299212598425197,
          "duration": 0.14814800000000083
        },
        {
          "name": "D3",
          "midi": 50,
          "time": 12.962950000000006,
          "velocity": 0.6299212598425197,
          "duration": 0.14814800000000083
        },
        {
          "name": "B2",
          "midi": 47,
          "time": 13.148135000000007,
          "velocity": 0.6299212598425197,
          "duration": 0.33333299999999966
        },
        {
          "name": "D3",
          "midi": 50,
          "time": 13.518505000000006,
          "velocity": 0.6299212598425197,
          "duration": 0.14814800000000083
        },
        {
          "name": "C3",
          "midi": 48,
          "time": 13.703690000000007,
          "velocity": 0.6299212598425197,
          "duration": 0.07407399999999953
        },
        {
          "name": "B2",
          "midi": 47,
          "time": 13.796282500000007,
          "velocity": 0.6299212598425197,
          "duration": 0.07407399999999953
        },
        {
          "name": "A2",
          "midi": 45,
          "time": 13.888875000000008,
          "velocity": 0.6299212598425197,
          "duration": 0.2962959999999999
        },
        {
          "name": "D2",
          "midi": 38,
          "time": 14.259245000000007,
          "velocity": 0.6299212598425197,
          "duration": 0.14814800000000083
        },
        {
          "name": "E2",
          "midi": 40,
          "time": 14.259245000000007,
          "velocity": 0.6299212598425197,
          "duration": 0.14814800000000083
        },
        {
          "name": "E2",
          "midi": 40,
          "time": 14.444430000000008,
          "velocity": 0.6299212598425197,
          "duration": 0.14814800000000083
        },
        {
          "name": "D2",
          "midi": 38,
          "time": 14.444430000000008,
          "velocity": 0.6299212598425197,
          "duration": 0.14814800000000083
        },
        {
          "name": "E2",
          "midi": 40,
          "time": 14.629615000000008,
          "velocity": 0.6299212598425197,
          "duration": 0.14814800000000083
        },
        {
          "name": "D2",
          "midi": 38,
          "time": 14.629615000000008,
          "velocity": 0.6299212598425197,
          "duration": 0.14814800000000083
        },
        {
          "name": "B1",
          "midi": 35,
          "time": 14.99998500000001,
          "velocity": 0.6299212598425197,
          "duration": 0.14814800000000083
        },
        {
          "name": "C2",
          "midi": 36,
          "time": 14.99998500000001,
          "velocity": 0.6299212598425197,
          "duration": 0.14814800000000083
        },
        {
          "name": "D2",
          "midi": 38,
          "time": 15.18517000000001,
          "velocity": 0.6299212598425197,
          "duration": 0.14814800000000083
        },
        {
          "name": "E2",
          "midi": 40,
          "time": 15.18517000000001,
          "velocity": 0.6299212598425197,
          "duration": 0.14814800000000083
        },
        {
          "name": "B1",
          "midi": 35,
          "time": 15.555540000000011,
          "velocity": 0.6299212598425197,
          "duration": 0.14814800000000083
        },
        {
          "name": "C2",
          "midi": 36,
          "time": 15.555540000000011,
          "velocity": 0.6299212598425197,
          "duration": 0.14814800000000083
        },
        {
          "name": "B1",
          "midi": 35,
          "time": 15.740725000000012,
          "velocity": 0.6299212598425197,
          "duration": 0.14814800000000083
        },
        {
          "name": "C2",
          "midi": 36,
          "time": 15.740725000000012,
          "velocity": 0.6299212598425197,
          "duration": 0.14814800000000083
        },
        {
          "name": "E2",
          "midi": 40,
          "time": 15.925910000000012,
          "velocity": 0.6299212598425197,
          "duration": 0.14814799999999906
        },
        {
          "name": "D2",
          "midi": 38,
          "time": 15.925910000000012,
          "velocity": 0.6299212598425197,
          "duration": 0.14814799999999906
        },
        {
          "name": "C2",
          "midi": 36,
          "time": 16.48146500000001,
          "velocity": 0.6299212598425197,
          "duration": 0.14814799999999906
        },
        {
          "name": "B1",
          "midi": 35,
          "time": 16.48146500000001,
          "velocity": 0.6299212598425197,
          "duration": 0.14814799999999906
        },
        {
          "name": "E2",
          "midi": 40,
          "time": 16.66665000000001,
          "velocity": 0.6299212598425197,
          "duration": 0.14814799999999906
        },
        {
          "name": "D2",
          "midi": 38,
          "time": 16.66665000000001,
          "velocity": 0.6299212598425197,
          "duration": 0.14814799999999906
        },
        {
          "name": "B1",
          "midi": 35,
          "time": 17.03702000000001,
          "velocity": 0.6299212598425197,
          "duration": 0.14814799999999906
        },
        {
          "name": "C2",
          "midi": 36,
          "time": 17.03702000000001,
          "velocity": 0.6299212598425197,
          "duration": 0.14814799999999906
        },
        {
          "name": "C2",
          "midi": 36,
          "time": 17.22220500000001,
          "velocity": 0.6299212598425197,
          "duration": 0.14814799999999906
        },
        {
          "name": "B1",
          "midi": 35,
          "time": 17.22220500000001,
          "velocity": 0.6299212598425197,
          "duration": 0.14814799999999906
        },
        {
          "name": "D2",
          "midi": 38,
          "time": 17.40739000000001,
          "velocity": 0.6299212598425197,
          "duration": 0.14814799999999906
        },
        {
          "name": "E2",
          "midi": 40,
          "time": 17.40739000000001,
          "velocity": 0.6299212598425197,
          "duration": 0.14814799999999906
        },
        {
          "name": "C2",
          "midi": 36,
          "time": 17.59257500000001,
          "velocity": 0.6299212598425197,
          "duration": 0.14814799999999906
        },
        {
          "name": "B1",
          "midi": 35,
          "time": 17.59257500000001,
          "velocity": 0.6299212598425197,
          "duration": 0.14814799999999906
        },
        {
          "name": "B1",
          "midi": 35,
          "time": 17.96294500000001,
          "velocity": 0.6299212598425197,
          "duration": 0.14814799999999906
        },
        {
          "name": "C2",
          "midi": 36,
          "time": 17.96294500000001,
          "velocity": 0.6299212598425197,
          "duration": 0.14814799999999906
        },
        {
          "name": "E2",
          "midi": 40,
          "time": 18.14813000000001,
          "velocity": 0.6299212598425197,
          "duration": 0.14814799999999906
        },
        {
          "name": "D2",
          "midi": 38,
          "time": 18.14813000000001,
          "velocity": 0.6299212598425197,
          "duration": 0.14814799999999906
        },
        {
          "name": "C2",
          "midi": 36,
          "time": 18.518500000000007,
          "velocity": 0.6299212598425197,
          "duration": 0.14814799999999906
        },
        {
          "name": "B1",
          "midi": 35,
          "time": 18.518500000000007,
          "velocity": 0.6299212598425197,
          "duration": 0.14814799999999906
        },
        {
          "name": "B1",
          "midi": 35,
          "time": 18.703685000000007,
          "velocity": 0.6299212598425197,
          "duration": 0.14814799999999906
        },
        {
          "name": "C2",
          "midi": 36,
          "time": 18.703685000000007,
          "velocity": 0.6299212598425197,
          "duration": 0.14814799999999906
        },
        {
          "name": "D2",
          "midi": 38,
          "time": 18.888870000000008,
          "velocity": 0.6299212598425197,
          "duration": 0.14814799999999906
        },
        {
          "name": "E2",
          "midi": 40,
          "time": 18.888870000000008,
          "velocity": 0.6299212598425197,
          "duration": 0.14814799999999906
        },
        {
          "name": "C2",
          "midi": 36,
          "time": 19.07405500000001,
          "velocity": 0.6299212598425197,
          "duration": 0.14814799999999906
        },
        {
          "name": "B1",
          "midi": 35,
          "time": 19.07405500000001,
          "velocity": 0.6299212598425197,
          "duration": 0.14814799999999906
        },
        {
          "name": "B1",
          "midi": 35,
          "time": 19.444425000000006,
          "velocity": 0.6299212598425197,
          "duration": 0.14814799999999906
        },
        {
          "name": "C2",
          "midi": 36,
          "time": 19.444425000000006,
          "velocity": 0.6299212598425197,
          "duration": 0.14814799999999906
        },
        {
          "name": "D2",
          "midi": 38,
          "time": 19.629610000000007,
          "velocity": 0.6299212598425197,
          "duration": 0.14814799999999906
        },
        {
          "name": "E2",
          "midi": 40,
          "time": 19.629610000000007,
          "velocity": 0.6299212598425197,
          "duration": 0.14814799999999906
        },
        {
          "name": "D2",
          "midi": 38,
          "time": 19.999980000000004,
          "velocity": 0.6299212598425197,
          "duration": 0.14814799999999906
        },
        {
          "name": "E2",
          "midi": 40,
          "time": 19.999980000000004,
          "velocity": 0.6299212598425197,
          "duration": 0.14814799999999906
        },
        {
          "name": "E2",
          "midi": 40,
          "time": 20.370350000000002,
          "velocity": 0.6299212598425197,
          "duration": 0.14814799999999906
        },
        {
          "name": "D2",
          "midi": 38,
          "time": 20.370350000000002,
          "velocity": 0.6299212598425197,
          "duration": 0.14814799999999906
        },
        {
          "name": "D2",
          "midi": 38,
          "time": 20.74072,
          "velocity": 0.6299212598425197,
          "duration": 0.14814799999999906
        },
        {
          "name": "E2",
          "midi": 40,
          "time": 20.74072,
          "velocity": 0.6299212598425197,
          "duration": 0.14814799999999906
        },
        {
          "name": "B1",
          "midi": 35,
          "time": 20.925905,
          "velocity": 0.6299212598425197,
          "duration": 0.14814799999999906
        },
        {
          "name": "C2",
          "midi": 36,
          "time": 20.925905,
          "velocity": 0.6299212598425197,
          "duration": 0.14814799999999906
        },
        {
          "name": "D2",
          "midi": 38,
          "time": 21.11109,
          "velocity": 0.6299212598425197,
          "duration": 0.14814799999999906
        },
        {
          "name": "E2",
          "midi": 40,
          "time": 21.11109,
          "velocity": 0.6299212598425197,
          "duration": 0.14814799999999906
        },
        {
          "name": "C2",
          "midi": 36,
          "time": 21.48146,
          "velocity": 0.6299212598425197,
          "duration": 0.14814799999999906
        },
        {
          "name": "B1",
          "midi": 35,
          "time": 21.48146,
          "velocity": 0.6299212598425197,
          "duration": 0.14814799999999906
        },
        {
          "name": "B1",
          "midi": 35,
          "time": 21.666645,
          "velocity": 0.6299212598425197,
          "duration": 0.14814799999999906
        },
        {
          "name": "C2",
          "midi": 36,
          "time": 21.666645,
          "velocity": 0.6299212598425197,
          "duration": 0.14814799999999906
        },
        {
          "name": "D2",
          "midi": 38,
          "time": 21.85183,
          "velocity": 0.6299212598425197,
          "duration": 0.14814799999999906
        },
        {
          "name": "E2",
          "midi": 40,
          "time": 21.85183,
          "velocity": 0.6299212598425197,
          "duration": 0.14814799999999906
        },
        {
          "name": "B1",
          "midi": 35,
          "time": 22.037015,
          "velocity": 0.6299212598425197,
          "duration": 0.14814799999999906
        },
        {
          "name": "C2",
          "midi": 36,
          "time": 22.037015,
          "velocity": 0.6299212598425197,
          "duration": 0.14814799999999906
        },
        {
          "name": "C2",
          "midi": 36,
          "time": 22.407384999999998,
          "velocity": 0.6299212598425197,
          "duration": 0.14814799999999906
        },
        {
          "name": "B1",
          "midi": 35,
          "time": 22.407384999999998,
          "velocity": 0.6299212598425197,
          "duration": 0.14814799999999906
        },
        {
          "name": "E2",
          "midi": 40,
          "time": 22.59257,
          "velocity": 0.6299212598425197,
          "duration": 0.14814799999999906
        },
        {
          "name": "D2",
          "midi": 38,
          "time": 22.59257,
          "velocity": 0.6299212598425197,
          "duration": 0.14814799999999906
        },
        {
          "name": "B1",
          "midi": 35,
          "time": 22.962939999999996,
          "velocity": 0.6299212598425197,
          "duration": 0.14814799999999906
        },
        {
          "name": "C2",
          "midi": 36,
          "time": 22.962939999999996,
          "velocity": 0.6299212598425197,
          "duration": 0.14814799999999906
        },
        {
          "name": "D2",
          "midi": 38,
          "time": 23.148124999999997,
          "velocity": 0.6299212598425197,
          "duration": 0.14814799999999906
        },
        {
          "name": "E2",
          "midi": 40,
          "time": 23.148124999999997,
          "velocity": 0.6299212598425197,
          "duration": 0.14814799999999906
        },
        {
          "name": "B1",
          "midi": 35,
          "time": 23.333309999999997,
          "velocity": 0.6299212598425197,
          "duration": 0.14814799999999906
        },
        {
          "name": "C2",
          "midi": 36,
          "time": 23.333309999999997,
          "velocity": 0.6299212598425197,
          "duration": 0.14814799999999906
        },
        {
          "name": "B1",
          "midi": 35,
          "time": 23.518494999999998,
          "velocity": 0.6299212598425197,
          "duration": 0.14814799999999906
        },
        {
          "name": "C2",
          "midi": 36,
          "time": 23.518494999999998,
          "velocity": 0.6299212598425197,
          "duration": 0.14814799999999906
        },
        {
          "name": "B1",
          "midi": 35,
          "time": 23.888864999999996,
          "velocity": 0.6299212598425197,
          "duration": 0.14814799999999906
        },
        {
          "name": "C2",
          "midi": 36,
          "time": 23.888864999999996,
          "velocity": 0.6299212598425197,
          "duration": 0.14814799999999906
        },
        {
          "name": "D2",
          "midi": 38,
          "time": 24.074049999999996,
          "velocity": 0.6299212598425197,
          "duration": 0.14814799999999906
        },
        {
          "name": "E2",
          "midi": 40,
          "time": 24.074049999999996,
          "velocity": 0.6299212598425197,
          "duration": 0.14814799999999906
        },
        {
          "name": "C2",
          "midi": 36,
          "time": 24.444419999999994,
          "velocity": 0.6299212598425197,
          "duration": 0.14814799999999906
        },
        {
          "name": "B1",
          "midi": 35,
          "time": 24.444419999999994,
          "velocity": 0.6299212598425197,
          "duration": 0.14814799999999906
        },
        {
          "name": "B1",
          "midi": 35,
          "time": 24.629604999999994,
          "velocity": 0.6299212598425197,
          "duration": 0.14814799999999906
        },
        {
          "name": "C2",
          "midi": 36,
          "time": 24.629604999999994,
          "velocity": 0.6299212598425197,
          "duration": 0.14814799999999906
        },
        {
          "name": "D2",
          "midi": 38,
          "time": 24.814789999999995,
          "velocity": 0.6299212598425197,
          "duration": 0.14814799999999906
        },
        {
          "name": "E2",
          "midi": 40,
          "time": 24.814789999999995,
          "velocity": 0.6299212598425197,
          "duration": 0.14814799999999906
        },
        {
          "name": "B1",
          "midi": 35,
          "time": 24.999974999999996,
          "velocity": 0.6299212598425197,
          "duration": 0.14814799999999906
        },
        {
          "name": "C2",
          "midi": 36,
          "time": 24.999974999999996,
          "velocity": 0.6299212598425197,
          "duration": 0.14814799999999906
        },
        {
          "name": "D2",
          "midi": 38,
          "time": 25.370344999999993,
          "velocity": 0.6299212598425197,
          "duration": 0.14814799999999906
        },
        {
          "name": "E2",
          "midi": 40,
          "time": 25.370344999999993,
          "velocity": 0.6299212598425197,
          "duration": 0.14814799999999906
        },
        {
          "name": "D2",
          "midi": 38,
          "time": 25.555529999999994,
          "velocity": 0.6299212598425197,
          "duration": 0.14814799999999906
        },
        {
          "name": "E2",
          "midi": 40,
          "time": 25.555529999999994,
          "velocity": 0.6299212598425197,
          "duration": 0.14814799999999906
        },
        {
          "name": "D2",
          "midi": 38,
          "time": 25.740714999999994,
          "velocity": 0.6299212598425197,
          "duration": 0.14814799999999906
        },
        {
          "name": "E2",
          "midi": 40,
          "time": 25.740714999999994,
          "velocity": 0.6299212598425197,
          "duration": 0.14814799999999906
        },
        {
          "name": "D3",
          "midi": 50,
          "time": 25.925899999999995,
          "velocity": 0.6299212598425197,
          "duration": 0.07407399999999953
        },
        {
          "name": "D3",
          "midi": 50,
          "time": 26.018492499999994,
          "velocity": 0.6299212598425197,
          "duration": 0.07407399999999953
        },
        {
          "name": "C3",
          "midi": 48,
          "time": 26.111084999999992,
          "velocity": 0.6299212598425197,
          "duration": 0.07407399999999953
        },
        {
          "name": "C3",
          "midi": 48,
          "time": 26.20367749999999,
          "velocity": 0.6299212598425197,
          "duration": 0.07407399999999953
        },
        {
          "name": "B2",
          "midi": 47,
          "time": 26.29626999999999,
          "velocity": 0.6299212598425197,
          "duration": 0.07407399999999953
        },
        {
          "name": "A2",
          "midi": 45,
          "time": 26.388862499999988,
          "velocity": 0.6299212598425197,
          "duration": 0.07407399999999953
        },
        {
          "name": "G2",
          "midi": 43,
          "time": 26.481454999999986,
          "velocity": 0.6299212598425197,
          "duration": 0.07407399999999953
        },
        {
          "name": "F2",
          "midi": 41,
          "time": 26.574047499999985,
          "velocity": 0.6299212598425197,
          "duration": 0.07407399999999953
        },
        {
          "name": "B1",
          "midi": 35,
          "time": 26.666639999999983,
          "velocity": 0.6299212598425197,
          "duration": 0.14814799999999906
        },
        {
          "name": "C2",
          "midi": 36,
          "time": 26.666639999999983,
          "velocity": 0.6299212598425197,
          "duration": 0.14814799999999906
        },
        {
          "name": "C2",
          "midi": 36,
          "time": 26.944417499999982,
          "velocity": 0.6299212598425197,
          "duration": 0.07407399999999953
        },
        {
          "name": "B1",
          "midi": 35,
          "time": 26.944417499999982,
          "velocity": 0.6299212598425197,
          "duration": 0.07407399999999953
        },
        {
          "name": "D2",
          "midi": 38,
          "time": 27.03700999999998,
          "velocity": 0.6299212598425197,
          "duration": 0.3472218749999989
        },
        {
          "name": "E2",
          "midi": 40,
          "time": 27.03700999999998,
          "velocity": 0.6299212598425197,
          "duration": 0.3472218749999989
        },
        {
          "name": "C2",
          "midi": 36,
          "time": 27.40737999999998,
          "velocity": 0.6299212598425197,
          "duration": 0.07407399999999953
        },
        {
          "name": "B1",
          "midi": 35,
          "time": 27.40737999999998,
          "velocity": 0.6299212598425197,
          "duration": 0.07407399999999953
        },
        {
          "name": "C2",
          "midi": 36,
          "time": 27.499972499999977,
          "velocity": 0.6299212598425197,
          "duration": 0.07407399999999953
        },
        {
          "name": "B1",
          "midi": 35,
          "time": 27.499972499999977,
          "velocity": 0.6299212598425197,
          "duration": 0.07407399999999953
        },
        {
          "name": "D2",
          "midi": 38,
          "time": 27.777749999999976,
          "velocity": 0.6299212598425197,
          "duration": 0.07407399999999953
        },
        {
          "name": "E2",
          "midi": 40,
          "time": 27.777749999999976,
          "velocity": 0.6299212598425197,
          "duration": 0.07407399999999953
        },
        {
          "name": "C2",
          "midi": 36,
          "time": 28.148119999999977,
          "velocity": 0.6299212598425197,
          "duration": 0.14814799999999906
        },
        {
          "name": "B1",
          "midi": 35,
          "time": 28.148119999999977,
          "velocity": 0.6299212598425197,
          "duration": 0.14814799999999906
        },
        {
          "name": "C2",
          "midi": 36,
          "time": 28.425897499999977,
          "velocity": 0.6299212598425197,
          "duration": 0.07407399999999953
        },
        {
          "name": "B1",
          "midi": 35,
          "time": 28.425897499999977,
          "velocity": 0.6299212598425197,
          "duration": 0.07407399999999953
        },
        {
          "name": "D2",
          "midi": 38,
          "time": 28.518489999999975,
          "velocity": 0.6299212598425197,
          "duration": 0.3472218749999989
        },
        {
          "name": "E2",
          "midi": 40,
          "time": 28.518489999999975,
          "velocity": 0.6299212598425197,
          "duration": 0.3472218749999989
        },
        {
          "name": "C2",
          "midi": 36,
          "time": 28.888859999999973,
          "velocity": 0.6299212598425197,
          "duration": 0.29629600000000167
        },
        {
          "name": "B1",
          "midi": 35,
          "time": 28.888859999999973,
          "velocity": 0.6299212598425197,
          "duration": 0.29629600000000167
        },
        {
          "name": "B1",
          "midi": 35,
          "time": 29.259229999999974,
          "velocity": 0.6299212598425197,
          "duration": 0.29629600000000167
        },
        {
          "name": "C2",
          "midi": 36,
          "time": 29.259229999999974,
          "velocity": 0.6299212598425197,
          "duration": 0.29629600000000167
        },
        {
          "name": "C2",
          "midi": 36,
          "time": 29.629599999999975,
          "velocity": 0.6299212598425197,
          "duration": 0.14814799999999906
        },
        {
          "name": "B1",
          "midi": 35,
          "time": 29.629599999999975,
          "velocity": 0.6299212598425197,
          "duration": 0.14814799999999906
        },
        {
          "name": "B1",
          "midi": 35,
          "time": 29.907377499999974,
          "velocity": 0.6299212598425197,
          "duration": 0.07407399999999953
        },
        {
          "name": "C2",
          "midi": 36,
          "time": 29.907377499999974,
          "velocity": 0.6299212598425197,
          "duration": 0.07407399999999953
        },
        {
          "name": "D2",
          "midi": 38,
          "time": 29.999969999999973,
          "velocity": 0.6299212598425197,
          "duration": 0.3472218749999989
        },
        {
          "name": "E2",
          "midi": 40,
          "time": 29.999969999999973,
          "velocity": 0.6299212598425197,
          "duration": 0.3472218749999989
        },
        {
          "name": "C2",
          "midi": 36,
          "time": 30.37033999999997,
          "velocity": 0.6299212598425197,
          "duration": 0.07407399999999953
        },
        {
          "name": "B1",
          "midi": 35,
          "time": 30.37033999999997,
          "velocity": 0.6299212598425197,
          "duration": 0.07407399999999953
        },
        {
          "name": "C2",
          "midi": 36,
          "time": 30.46293249999997,
          "velocity": 0.6299212598425197,
          "duration": 0.07407399999999953
        },
        {
          "name": "B1",
          "midi": 35,
          "time": 30.46293249999997,
          "velocity": 0.6299212598425197,
          "duration": 0.07407399999999953
        },
        {
          "name": "E2",
          "midi": 40,
          "time": 30.740709999999968,
          "velocity": 0.6299212598425197,
          "duration": 0.07407399999999953
        },
        {
          "name": "D2",
          "midi": 38,
          "time": 30.740709999999968,
          "velocity": 0.6299212598425197,
          "duration": 0.07407399999999953
        },
        {
          "name": "G2",
          "midi": 43,
          "time": 31.11107999999997,
          "velocity": 0.6299212598425197,
          "duration": 0.14814799999999906
        },
        {
          "name": "G2",
          "midi": 43,
          "time": 31.38885749999997,
          "velocity": 0.6299212598425197,
          "duration": 0.03703700000000154
        },
        {
          "name": "G2",
          "midi": 43,
          "time": 31.43515374999997,
          "velocity": 0.6299212598425197,
          "duration": 0.03703700000000154
        },
        {
          "name": "D3",
          "midi": 50,
          "time": 31.48144999999997,
          "velocity": 0.6299212598425197,
          "duration": 0.03703700000000154
        },
        {
          "name": "C2",
          "midi": 36,
          "time": 31.759227499999973,
          "velocity": 0.6299212598425197,
          "duration": 0.07407399999999953
        },
        {
          "name": "B1",
          "midi": 35,
          "time": 31.759227499999973,
          "velocity": 0.6299212598425197,
          "duration": 0.07407399999999953
        },
        {
          "name": "C2",
          "midi": 36,
          "time": 31.944412499999974,
          "velocity": 0.6299212598425197,
          "duration": 0.07407399999999953
        },
        {
          "name": "B1",
          "midi": 35,
          "time": 31.944412499999974,
          "velocity": 0.6299212598425197,
          "duration": 0.07407399999999953
        },
        {
          "name": "B1",
          "midi": 35,
          "time": 32.129597499999974,
          "velocity": 0.6299212598425197,
          "duration": 0.07407400000000308
        },
        {
          "name": "C2",
          "midi": 36,
          "time": 32.129597499999974,
          "velocity": 0.6299212598425197,
          "duration": 0.07407400000000308
        },
        {
          "name": "D3",
          "midi": 50,
          "time": 32.31478249999998,
          "velocity": 0.6299212598425197,
          "duration": 0.03703699999999799
        },
        {
          "name": "C3",
          "midi": 48,
          "time": 32.361078749999976,
          "velocity": 0.6299212598425197,
          "duration": 0.03703699999999799
        },
        {
          "name": "B2",
          "midi": 47,
          "time": 32.40737499999997,
          "velocity": 0.6299212598425197,
          "duration": 0.03703699999999799
        },
        {
          "name": "A2",
          "midi": 45,
          "time": 32.45367124999997,
          "velocity": 0.6299212598425197,
          "duration": 0.03703699999999799
        },
        {
          "name": "G2",
          "midi": 43,
          "time": 32.49996749999997,
          "velocity": 0.6299212598425197,
          "duration": 0.03703699999999799
        },
        {
          "name": "F2",
          "midi": 41,
          "time": 32.546263749999966,
          "velocity": 0.6299212598425197,
          "duration": 0.03703699999999799
        },
        {
          "name": "B1",
          "midi": 35,
          "time": 32.59255999999996,
          "velocity": 0.6299212598425197,
          "duration": 0.14814799999999906
        },
        {
          "name": "C2",
          "midi": 36,
          "time": 32.59255999999996,
          "velocity": 0.6299212598425197,
          "duration": 0.14814799999999906
        },
        {
          "name": "B1",
          "midi": 35,
          "time": 32.77774499999996,
          "velocity": 0.6299212598425197,
          "duration": 0.14814799999999906
        },
        {
          "name": "C2",
          "midi": 36,
          "time": 32.77774499999996,
          "velocity": 0.6299212598425197,
          "duration": 0.14814799999999906
        },
        {
          "name": "E2",
          "midi": 40,
          "time": 32.96292999999996,
          "velocity": 0.6299212598425197,
          "duration": 0.14814799999999906
        },
        {
          "name": "D2",
          "midi": 38,
          "time": 32.96292999999996,
          "velocity": 0.6299212598425197,
          "duration": 0.14814799999999906
        },
        {
          "name": "C2",
          "midi": 36,
          "time": 33.33329999999996,
          "velocity": 0.6299212598425197,
          "duration": 0.14814799999999906
        },
        {
          "name": "B1",
          "midi": 35,
          "time": 33.33329999999996,
          "velocity": 0.6299212598425197,
          "duration": 0.14814799999999906
        },
        {
          "name": "C2",
          "midi": 36,
          "time": 33.518484999999956,
          "velocity": 0.6299212598425197,
          "duration": 0.14814799999999906
        },
        {
          "name": "B1",
          "midi": 35,
          "time": 33.518484999999956,
          "velocity": 0.6299212598425197,
          "duration": 0.14814799999999906
        },
        {
          "name": "B1",
          "midi": 35,
          "time": 33.518484999999956,
          "velocity": 0.6299212598425197,
          "duration": 0.14814799999999906
        },
        {
          "name": "D2",
          "midi": 38,
          "time": 33.70366999999995,
          "velocity": 0.6299212598425197,
          "duration": 0.14814799999999906
        },
        {
          "name": "E2",
          "midi": 40,
          "time": 33.70366999999995,
          "velocity": 0.6299212598425197,
          "duration": 0.14814799999999906
        },
        {
          "name": "B1",
          "midi": 35,
          "time": 33.88885499999995,
          "velocity": 0.6299212598425197,
          "duration": 0.14814799999999906
        },
        {
          "name": "C2",
          "midi": 36,
          "time": 33.88885499999995,
          "velocity": 0.6299212598425197,
          "duration": 0.14814799999999906
        },
        {
          "name": "C2",
          "midi": 36,
          "time": 34.25922499999995,
          "velocity": 0.6299212598425197,
          "duration": 0.14814799999999906
        },
        {
          "name": "B1",
          "midi": 35,
          "time": 34.25922499999995,
          "velocity": 0.6299212598425197,
          "duration": 0.14814799999999906
        },
        {
          "name": "E2",
          "midi": 40,
          "time": 34.44440999999995,
          "velocity": 0.6299212598425197,
          "duration": 0.14814799999999906
        },
        {
          "name": "D2",
          "midi": 38,
          "time": 34.44440999999995,
          "velocity": 0.6299212598425197,
          "duration": 0.14814799999999906
        },
        {
          "name": "D2",
          "midi": 38,
          "time": 34.629594999999945,
          "velocity": 0.6299212598425197,
          "duration": 0.14814799999999906
        },
        {
          "name": "E2",
          "midi": 40,
          "time": 34.629594999999945,
          "velocity": 0.6299212598425197,
          "duration": 0.14814799999999906
        },
        {
          "name": "E2",
          "midi": 40,
          "time": 34.81477999999994,
          "velocity": 0.6299212598425197,
          "duration": 0.2962959999999981
        },
        {
          "name": "D2",
          "midi": 38,
          "time": 34.81477999999994,
          "velocity": 0.6299212598425197,
          "duration": 0.2962959999999981
        },
        {
          "name": "D2",
          "midi": 38,
          "time": 35.18514999999994,
          "velocity": 0.6299212598425197,
          "duration": 0.14814799999999906
        },
        {
          "name": "E2",
          "midi": 40,
          "time": 35.18514999999994,
          "velocity": 0.6299212598425197,
          "duration": 0.14814799999999906
        },
        {
          "name": "E2",
          "midi": 40,
          "time": 35.37033499999994,
          "velocity": 0.6299212598425197,
          "duration": 0.14814799999999906
        },
        {
          "name": "D2",
          "midi": 38,
          "time": 35.37033499999994,
          "velocity": 0.6299212598425197,
          "duration": 0.14814799999999906
        },
        {
          "name": "C2",
          "midi": 36,
          "time": 35.74070499999994,
          "velocity": 0.6299212598425197,
          "duration": 0.14814799999999906
        },
        {
          "name": "B1",
          "midi": 35,
          "time": 35.74070499999994,
          "velocity": 0.6299212598425197,
          "duration": 0.14814799999999906
        },
        {
          "name": "E2",
          "midi": 40,
          "time": 35.92588999999994,
          "velocity": 0.6299212598425197,
          "duration": 0.14814799999999906
        },
        {
          "name": "D2",
          "midi": 38,
          "time": 35.92588999999994,
          "velocity": 0.6299212598425197,
          "duration": 0.14814799999999906
        },
        {
          "name": "C2",
          "midi": 36,
          "time": 36.29625999999994,
          "velocity": 0.6299212598425197,
          "duration": 0.14814799999999906
        },
        {
          "name": "B1",
          "midi": 35,
          "time": 36.29625999999994,
          "velocity": 0.6299212598425197,
          "duration": 0.14814799999999906
        },
        {
          "name": "C2",
          "midi": 36,
          "time": 36.48144499999994,
          "velocity": 0.6299212598425197,
          "duration": 0.14814799999999906
        },
        {
          "name": "B1",
          "midi": 35,
          "time": 36.48144499999994,
          "velocity": 0.6299212598425197,
          "duration": 0.14814799999999906
        },
        {
          "name": "D2",
          "midi": 38,
          "time": 36.666629999999934,
          "velocity": 0.6299212598425197,
          "duration": 0.14814799999999906
        },
        {
          "name": "E2",
          "midi": 40,
          "time": 36.666629999999934,
          "velocity": 0.6299212598425197,
          "duration": 0.14814799999999906
        },
        {
          "name": "B1",
          "midi": 35,
          "time": 36.85181499999993,
          "velocity": 0.6299212598425197,
          "duration": 0.14814799999999906
        },
        {
          "name": "C2",
          "midi": 36,
          "time": 36.85181499999993,
          "velocity": 0.6299212598425197,
          "duration": 0.14814799999999906
        },
        {
          "name": "C2",
          "midi": 36,
          "time": 37.22218499999993,
          "velocity": 0.6299212598425197,
          "duration": 0.14814799999999906
        },
        {
          "name": "B1",
          "midi": 35,
          "time": 37.22218499999993,
          "velocity": 0.6299212598425197,
          "duration": 0.14814799999999906
        },
        {
          "name": "D2",
          "midi": 38,
          "time": 37.40736999999993,
          "velocity": 0.6299212598425197,
          "duration": 0.14814799999999906
        },
        {
          "name": "E2",
          "midi": 40,
          "time": 37.40736999999993,
          "velocity": 0.6299212598425197,
          "duration": 0.14814799999999906
        },
        {
          "name": "D2",
          "midi": 38,
          "time": 37.592554999999926,
          "velocity": 0.6299212598425197,
          "duration": 0.14814799999999906
        },
        {
          "name": "E2",
          "midi": 40,
          "time": 37.592554999999926,
          "velocity": 0.6299212598425197,
          "duration": 0.14814799999999906
        },
        {
          "name": "E2",
          "midi": 40,
          "time": 37.77773999999992,
          "velocity": 0.6299212598425197,
          "duration": 0.2962959999999981
        },
        {
          "name": "D2",
          "midi": 38,
          "time": 37.77773999999992,
          "velocity": 0.6299212598425197,
          "duration": 0.2962959999999981
        },
        {
          "name": "D2",
          "midi": 38,
          "time": 38.148109999999924,
          "velocity": 0.6299212598425197,
          "duration": 0.34722187500000246
        },
        {
          "name": "E2",
          "midi": 40,
          "time": 38.148109999999924,
          "velocity": 0.6299212598425197,
          "duration": 0.34722187500000246
        },
        {
          "name": "B1",
          "midi": 35,
          "time": 38.518479999999926,
          "velocity": 0.6299212598425197,
          "duration": 0.14814799999999906
        },
        {
          "name": "C2",
          "midi": 36,
          "time": 38.518479999999926,
          "velocity": 0.6299212598425197,
          "duration": 0.14814799999999906
        },
        {
          "name": "C2",
          "midi": 36,
          "time": 38.70366499999992,
          "velocity": 0.6299212598425197,
          "duration": 0.14814799999999906
        },
        {
          "name": "B1",
          "midi": 35,
          "time": 38.70366499999992,
          "velocity": 0.6299212598425197,
          "duration": 0.14814799999999906
        },
        {
          "name": "D2",
          "midi": 38,
          "time": 38.88884999999992,
          "velocity": 0.6299212598425197,
          "duration": 0.14814799999999906
        },
        {
          "name": "E2",
          "midi": 40,
          "time": 38.88884999999992,
          "velocity": 0.6299212598425197,
          "duration": 0.14814799999999906
        },
        {
          "name": "C2",
          "midi": 36,
          "time": 39.25921999999992,
          "velocity": 0.6299212598425197,
          "duration": 0.14814799999999906
        },
        {
          "name": "B1",
          "midi": 35,
          "time": 39.25921999999992,
          "velocity": 0.6299212598425197,
          "duration": 0.14814799999999906
        },
        {
          "name": "C2",
          "midi": 36,
          "time": 39.44440499999992,
          "velocity": 0.6299212598425197,
          "duration": 0.14814799999999906
        },
        {
          "name": "B1",
          "midi": 35,
          "time": 39.44440499999992,
          "velocity": 0.6299212598425197,
          "duration": 0.14814799999999906
        },
        {
          "name": "B1",
          "midi": 35,
          "time": 39.44440499999992,
          "velocity": 0.6299212598425197,
          "duration": 0.14814799999999906
        },
        {
          "name": "E2",
          "midi": 40,
          "time": 39.629589999999915,
          "velocity": 0.6299212598425197,
          "duration": 0.14814799999999906
        },
        {
          "name": "D2",
          "midi": 38,
          "time": 39.629589999999915,
          "velocity": 0.6299212598425197,
          "duration": 0.14814799999999906
        },
        {
          "name": "B1",
          "midi": 35,
          "time": 39.81477499999991,
          "velocity": 0.6299212598425197,
          "duration": 0.14814799999999906
        },
        {
          "name": "C2",
          "midi": 36,
          "time": 39.81477499999991,
          "velocity": 0.6299212598425197,
          "duration": 0.14814799999999906
        },
        {
          "name": "B1",
          "midi": 35,
          "time": 40.18514499999991,
          "velocity": 0.6299212598425197,
          "duration": 0.14814799999999906
        },
        {
          "name": "C2",
          "midi": 36,
          "time": 40.18514499999991,
          "velocity": 0.6299212598425197,
          "duration": 0.14814799999999906
        },
        {
          "name": "D2",
          "midi": 38,
          "time": 40.37032999999991,
          "velocity": 0.6299212598425197,
          "duration": 0.14814799999999906
        },
        {
          "name": "E2",
          "midi": 40,
          "time": 40.37032999999991,
          "velocity": 0.6299212598425197,
          "duration": 0.14814799999999906
        },
        {
          "name": "D2",
          "midi": 38,
          "time": 40.55551499999991,
          "velocity": 0.6299212598425197,
          "duration": 0.14814799999999906
        },
        {
          "name": "E2",
          "midi": 40,
          "time": 40.55551499999991,
          "velocity": 0.6299212598425197,
          "duration": 0.14814799999999906
        },
        {
          "name": "D2",
          "midi": 38,
          "time": 40.740699999999904,
          "velocity": 0.6299212598425197,
          "duration": 0.2962959999999981
        },
        {
          "name": "E2",
          "midi": 40,
          "time": 40.740699999999904,
          "velocity": 0.6299212598425197,
          "duration": 0.2962959999999981
        },
        {
          "name": "D2",
          "midi": 38,
          "time": 41.111069999999906,
          "velocity": 0.6299212598425197,
          "duration": 0.14814799999999906
        },
        {
          "name": "E2",
          "midi": 40,
          "time": 41.111069999999906,
          "velocity": 0.6299212598425197,
          "duration": 0.14814799999999906
        },
        {
          "name": "D2",
          "midi": 38,
          "time": 41.2962549999999,
          "velocity": 0.6299212598425197,
          "duration": 0.14814799999999906
        },
        {
          "name": "E2",
          "midi": 40,
          "time": 41.2962549999999,
          "velocity": 0.6299212598425197,
          "duration": 0.14814799999999906
        },
        {
          "name": "C2",
          "midi": 36,
          "time": 41.666624999999904,
          "velocity": 0.6299212598425197,
          "duration": 0.14814799999999906
        },
        {
          "name": "B1",
          "midi": 35,
          "time": 41.666624999999904,
          "velocity": 0.6299212598425197,
          "duration": 0.14814799999999906
        },
        {
          "name": "E2",
          "midi": 40,
          "time": 41.8518099999999,
          "velocity": 0.6299212598425197,
          "duration": 0.14814799999999906
        },
        {
          "name": "D2",
          "midi": 38,
          "time": 41.8518099999999,
          "velocity": 0.6299212598425197,
          "duration": 0.14814799999999906
        },
        {
          "name": "C2",
          "midi": 36,
          "time": 42.2221799999999,
          "velocity": 0.6299212598425197,
          "duration": 0.14814799999999906
        },
        {
          "name": "B1",
          "midi": 35,
          "time": 42.2221799999999,
          "velocity": 0.6299212598425197,
          "duration": 0.14814799999999906
        },
        {
          "name": "B1",
          "midi": 35,
          "time": 42.4073649999999,
          "velocity": 0.6299212598425197,
          "duration": 0.14814799999999906
        },
        {
          "name": "C2",
          "midi": 36,
          "time": 42.4073649999999,
          "velocity": 0.6299212598425197,
          "duration": 0.14814799999999906
        },
        {
          "name": "D2",
          "midi": 38,
          "time": 42.592549999999896,
          "velocity": 0.6299212598425197,
          "duration": 0.14814799999999906
        },
        {
          "name": "E2",
          "midi": 40,
          "time": 42.592549999999896,
          "velocity": 0.6299212598425197,
          "duration": 0.14814799999999906
        },
        {
          "name": "C2",
          "midi": 36,
          "time": 42.77773499999989,
          "velocity": 0.6299212598425197,
          "duration": 0.14814799999999906
        },
        {
          "name": "B1",
          "midi": 35,
          "time": 42.77773499999989,
          "velocity": 0.6299212598425197,
          "duration": 0.14814799999999906
        },
        {
          "name": "C2",
          "midi": 36,
          "time": 43.148104999999894,
          "velocity": 0.6299212598425197,
          "duration": 0.14814799999999906
        },
        {
          "name": "B1",
          "midi": 35,
          "time": 43.148104999999894,
          "velocity": 0.6299212598425197,
          "duration": 0.14814799999999906
        },
        {
          "name": "E2",
          "midi": 40,
          "time": 43.33328999999989,
          "velocity": 0.6299212598425197,
          "duration": 0.14814799999999906
        },
        {
          "name": "D2",
          "midi": 38,
          "time": 43.33328999999989,
          "velocity": 0.6299212598425197,
          "duration": 0.14814799999999906
        },
        {
          "name": "E2",
          "midi": 40,
          "time": 43.51847499999989,
          "velocity": 0.6299212598425197,
          "duration": 0.14814799999999906
        },
        {
          "name": "D2",
          "midi": 38,
          "time": 43.51847499999989,
          "velocity": 0.6299212598425197,
          "duration": 0.14814799999999906
        },
        {
          "name": "D2",
          "midi": 38,
          "time": 43.703659999999886,
          "velocity": 0.6299212598425197,
          "duration": 0.2962959999999981
        },
        {
          "name": "E2",
          "midi": 40,
          "time": 43.703659999999886,
          "velocity": 0.6299212598425197,
          "duration": 0.2962959999999981
        },
        {
          "name": "E2",
          "midi": 40,
          "time": 44.07402999999989,
          "velocity": 0.6299212598425197,
          "duration": 0.34722187500000246
        },
        {
          "name": "D2",
          "midi": 38,
          "time": 44.07402999999989,
          "velocity": 0.6299212598425197,
          "duration": 0.34722187500000246
        },
        {
          "name": "C2",
          "midi": 36,
          "time": 44.44439999999989,
          "velocity": 0.6299212598425197,
          "duration": 0.14814799999999906
        },
        {
          "name": "B1",
          "midi": 35,
          "time": 44.44439999999989,
          "velocity": 0.6299212598425197,
          "duration": 0.14814799999999906
        },
        {
          "name": "C2",
          "midi": 36,
          "time": 44.629584999999885,
          "velocity": 0.6299212598425197,
          "duration": 0.14814799999999906
        },
        {
          "name": "B1",
          "midi": 35,
          "time": 44.629584999999885,
          "velocity": 0.6299212598425197,
          "duration": 0.14814799999999906
        },
        {
          "name": "D2",
          "midi": 38,
          "time": 44.81476999999988,
          "velocity": 0.6299212598425197,
          "duration": 0.14814799999999906
        },
        {
          "name": "E2",
          "midi": 40,
          "time": 44.81476999999988,
          "velocity": 0.6299212598425197,
          "duration": 0.14814799999999906
        },
        {
          "name": "C2",
          "midi": 36,
          "time": 45.18513999999988,
          "velocity": 0.6299212598425197,
          "duration": 0.14814799999999906
        },
        {
          "name": "B1",
          "midi": 35,
          "time": 45.18513999999988,
          "velocity": 0.6299212598425197,
          "duration": 0.14814799999999906
        },
        {
          "name": "C2",
          "midi": 36,
          "time": 45.37032499999988,
          "velocity": 0.6299212598425197,
          "duration": 0.14814799999999906
        },
        {
          "name": "B1",
          "midi": 35,
          "time": 45.37032499999988,
          "velocity": 0.6299212598425197,
          "duration": 0.14814799999999906
        },
        {
          "name": "B1",
          "midi": 35,
          "time": 45.37032499999988,
          "velocity": 0.6299212598425197,
          "duration": 0.14814799999999906
        },
        {
          "name": "D2",
          "midi": 38,
          "time": 45.55550999999988,
          "velocity": 0.6299212598425197,
          "duration": 0.14814799999999906
        },
        {
          "name": "E2",
          "midi": 40,
          "time": 45.55550999999988,
          "velocity": 0.6299212598425197,
          "duration": 0.14814799999999906
        },
        {
          "name": "B1",
          "midi": 35,
          "time": 45.740694999999874,
          "velocity": 0.6299212598425197,
          "duration": 0.14814799999999906
        },
        {
          "name": "C2",
          "midi": 36,
          "time": 45.740694999999874,
          "velocity": 0.6299212598425197,
          "duration": 0.14814799999999906
        },
        {
          "name": "C2",
          "midi": 36,
          "time": 46.111064999999876,
          "velocity": 0.6299212598425197,
          "duration": 0.14814799999999906
        },
        {
          "name": "B1",
          "midi": 35,
          "time": 46.111064999999876,
          "velocity": 0.6299212598425197,
          "duration": 0.14814799999999906
        },
        {
          "name": "D2",
          "midi": 38,
          "time": 46.29624999999987,
          "velocity": 0.6299212598425197,
          "duration": 0.14814799999999906
        },
        {
          "name": "E2",
          "midi": 40,
          "time": 46.29624999999987,
          "velocity": 0.6299212598425197,
          "duration": 0.14814799999999906
        },
        {
          "name": "E2",
          "midi": 40,
          "time": 46.48143499999987,
          "velocity": 0.6299212598425197,
          "duration": 0.14814799999999906
        },
        {
          "name": "D2",
          "midi": 38,
          "time": 46.48143499999987,
          "velocity": 0.6299212598425197,
          "duration": 0.14814799999999906
        },
        {
          "name": "E2",
          "midi": 40,
          "time": 46.66661999999987,
          "velocity": 0.6299212598425197,
          "duration": 0.2962959999999981
        },
        {
          "name": "D2",
          "midi": 38,
          "time": 46.66661999999987,
          "velocity": 0.6299212598425197,
          "duration": 0.2962959999999981
        },
        {
          "name": "E2",
          "midi": 40,
          "time": 47.03698999999987,
          "velocity": 0.6299212598425197,
          "duration": 0.14814799999999906
        },
        {
          "name": "D2",
          "midi": 38,
          "time": 47.03698999999987,
          "velocity": 0.6299212598425197,
          "duration": 0.14814799999999906
        },
        {
          "name": "E2",
          "midi": 40,
          "time": 47.222174999999865,
          "velocity": 0.6299212598425197,
          "duration": 0.14814799999999906
        },
        {
          "name": "D2",
          "midi": 38,
          "time": 47.222174999999865,
          "velocity": 0.6299212598425197,
          "duration": 0.14814799999999906
        },
        {
          "name": "B1",
          "midi": 35,
          "time": 47.592544999999866,
          "velocity": 0.6299212598425197,
          "duration": 0.14814799999999906
        },
        {
          "name": "C2",
          "midi": 36,
          "time": 47.592544999999866,
          "velocity": 0.6299212598425197,
          "duration": 0.14814799999999906
        },
        {
          "name": "D2",
          "midi": 38,
          "time": 47.77772999999986,
          "velocity": 0.6299212598425197,
          "duration": 0.14814799999999906
        },
        {
          "name": "E2",
          "midi": 40,
          "time": 47.77772999999986,
          "velocity": 0.6299212598425197,
          "duration": 0.14814799999999906
        },
        {
          "name": "B1",
          "midi": 35,
          "time": 48.148099999999864,
          "velocity": 0.6299212598425197,
          "duration": 0.14814799999999906
        },
        {
          "name": "C2",
          "midi": 36,
          "time": 48.148099999999864,
          "velocity": 0.6299212598425197,
          "duration": 0.14814799999999906
        },
        {
          "name": "C2",
          "midi": 36,
          "time": 48.33328499999986,
          "velocity": 0.6299212598425197,
          "duration": 0.14814799999999906
        },
        {
          "name": "B1",
          "midi": 35,
          "time": 48.33328499999986,
          "velocity": 0.6299212598425197,
          "duration": 0.14814799999999906
        },
        {
          "name": "E2",
          "midi": 40,
          "time": 48.51846999999986,
          "velocity": 0.6299212598425197,
          "duration": 0.14814799999999906
        },
        {
          "name": "D2",
          "midi": 38,
          "time": 48.51846999999986,
          "velocity": 0.6299212598425197,
          "duration": 0.14814799999999906
        },
        {
          "name": "B1",
          "midi": 35,
          "time": 48.703654999999856,
          "velocity": 0.6299212598425197,
          "duration": 0.14814799999999906
        },
        {
          "name": "C2",
          "midi": 36,
          "time": 48.703654999999856,
          "velocity": 0.6299212598425197,
          "duration": 0.14814799999999906
        },
        {
          "name": "B1",
          "midi": 35,
          "time": 49.07402499999986,
          "velocity": 0.6299212598425197,
          "duration": 0.14814799999999906
        },
        {
          "name": "C2",
          "midi": 36,
          "time": 49.07402499999986,
          "velocity": 0.6299212598425197,
          "duration": 0.14814799999999906
        },
        {
          "name": "E2",
          "midi": 40,
          "time": 49.259209999999854,
          "velocity": 0.6299212598425197,
          "duration": 0.14814799999999906
        },
        {
          "name": "D2",
          "midi": 38,
          "time": 49.259209999999854,
          "velocity": 0.6299212598425197,
          "duration": 0.14814799999999906
        },
        {
          "name": "D2",
          "midi": 38,
          "time": 49.44439499999985,
          "velocity": 0.6299212598425197,
          "duration": 0.14814799999999906
        },
        {
          "name": "E2",
          "midi": 40,
          "time": 49.44439499999985,
          "velocity": 0.6299212598425197,
          "duration": 0.14814799999999906
        },
        {
          "name": "E2",
          "midi": 40,
          "time": 49.62957999999985,
          "velocity": 0.6299212598425197,
          "duration": 0.2962959999999981
        },
        {
          "name": "D2",
          "midi": 38,
          "time": 49.62957999999985,
          "velocity": 0.6299212598425197,
          "duration": 0.2962959999999981
        },
        {
          "name": "D2",
          "midi": 38,
          "time": 49.99994999999985,
          "velocity": 0.6299212598425197,
          "duration": 0.34722187500000246
        },
        {
          "name": "E2",
          "midi": 40,
          "time": 49.99994999999985,
          "velocity": 0.6299212598425197,
          "duration": 0.34722187500000246
        },
        {
          "name": "C2",
          "midi": 36,
          "time": 50.37031999999985,
          "velocity": 0.6299212598425197,
          "duration": 0.14814799999999906
        },
        {
          "name": "B1",
          "midi": 35,
          "time": 50.37031999999985,
          "velocity": 0.6299212598425197,
          "duration": 0.14814799999999906
        },
        {
          "name": "B1",
          "midi": 35,
          "time": 50.55550499999985,
          "velocity": 0.6299212598425197,
          "duration": 0.14814799999999906
        },
        {
          "name": "C2",
          "midi": 36,
          "time": 50.55550499999985,
          "velocity": 0.6299212598425197,
          "duration": 0.14814799999999906
        },
        {
          "name": "E2",
          "midi": 40,
          "time": 50.740689999999844,
          "velocity": 0.6299212598425197,
          "duration": 0.14814799999999906
        },
        {
          "name": "D2",
          "midi": 38,
          "time": 50.740689999999844,
          "velocity": 0.6299212598425197,
          "duration": 0.14814799999999906
        },
        {
          "name": "C2",
          "midi": 36,
          "time": 51.111059999999846,
          "velocity": 0.6299212598425197,
          "duration": 0.14814799999999906
        },
        {
          "name": "B1",
          "midi": 35,
          "time": 51.111059999999846,
          "velocity": 0.6299212598425197,
          "duration": 0.14814799999999906
        },
        {
          "name": "C2",
          "midi": 36,
          "time": 51.29624499999984,
          "velocity": 0.6299212598425197,
          "duration": 0.14814799999999906
        },
        {
          "name": "B1",
          "midi": 35,
          "time": 51.29624499999984,
          "velocity": 0.6299212598425197,
          "duration": 0.14814799999999906
        },
        {
          "name": "B1",
          "midi": 35,
          "time": 51.29624499999984,
          "velocity": 0.6299212598425197,
          "duration": 0.14814799999999906
        },
        {
          "name": "E2",
          "midi": 40,
          "time": 51.48142999999984,
          "velocity": 0.6299212598425197,
          "duration": 0.14814799999999906
        },
        {
          "name": "D2",
          "midi": 38,
          "time": 51.48142999999984,
          "velocity": 0.6299212598425197,
          "duration": 0.14814799999999906
        },
        {
          "name": "C2",
          "midi": 36,
          "time": 51.66661499999984,
          "velocity": 0.6299212598425197,
          "duration": 0.14814799999999906
        },
        {
          "name": "B1",
          "midi": 35,
          "time": 51.66661499999984,
          "velocity": 0.6299212598425197,
          "duration": 0.14814799999999906
        },
        {
          "name": "C2",
          "midi": 36,
          "time": 52.03698499999984,
          "velocity": 0.6299212598425197,
          "duration": 0.14814799999999906
        },
        {
          "name": "B1",
          "midi": 35,
          "time": 52.03698499999984,
          "velocity": 0.6299212598425197,
          "duration": 0.14814799999999906
        },
        {
          "name": "D2",
          "midi": 38,
          "time": 52.222169999999835,
          "velocity": 0.6299212598425197,
          "duration": 0.14814799999999906
        },
        {
          "name": "E2",
          "midi": 40,
          "time": 52.222169999999835,
          "velocity": 0.6299212598425197,
          "duration": 0.14814799999999906
        },
        {
          "name": "D2",
          "midi": 38,
          "time": 52.40735499999983,
          "velocity": 0.6299212598425197,
          "duration": 0.14814799999999906
        },
        {
          "name": "E2",
          "midi": 40,
          "time": 52.40735499999983,
          "velocity": 0.6299212598425197,
          "duration": 0.14814799999999906
        },
        {
          "name": "E2",
          "midi": 40,
          "time": 52.59253999999983,
          "velocity": 0.6299212598425197,
          "duration": 0.2962959999999981
        },
        {
          "name": "D2",
          "midi": 38,
          "time": 52.59253999999983,
          "velocity": 0.6299212598425197,
          "duration": 0.2962959999999981
        },
        {
          "name": "D2",
          "midi": 38,
          "time": 52.96290999999983,
          "velocity": 0.6299212598425197,
          "duration": 0.14814799999999906
        },
        {
          "name": "E2",
          "midi": 40,
          "time": 52.96290999999983,
          "velocity": 0.6299212598425197,
          "duration": 0.14814799999999906
        },
        {
          "name": "E2",
          "midi": 40,
          "time": 53.14809499999983,
          "velocity": 0.6299212598425197,
          "duration": 0.14814799999999906
        },
        {
          "name": "D2",
          "midi": 38,
          "time": 53.14809499999983,
          "velocity": 0.6299212598425197,
          "duration": 0.14814799999999906
        },
        {
          "name": "B1",
          "midi": 35,
          "time": 53.51846499999983,
          "velocity": 0.6299212598425197,
          "duration": 0.14814799999999906
        },
        {
          "name": "C2",
          "midi": 36,
          "time": 53.51846499999983,
          "velocity": 0.6299212598425197,
          "duration": 0.14814799999999906
        },
        {
          "name": "D2",
          "midi": 38,
          "time": 53.703649999999826,
          "velocity": 0.6299212598425197,
          "duration": 0.14814799999999906
        },
        {
          "name": "E2",
          "midi": 40,
          "time": 53.703649999999826,
          "velocity": 0.6299212598425197,
          "duration": 0.14814799999999906
        },
        {
          "name": "B1",
          "midi": 35,
          "time": 54.07401999999983,
          "velocity": 0.6299212598425197,
          "duration": 0.14814799999999906
        },
        {
          "name": "C2",
          "midi": 36,
          "time": 54.07401999999983,
          "velocity": 0.6299212598425197,
          "duration": 0.14814799999999906
        },
        {
          "name": "C2",
          "midi": 36,
          "time": 54.259204999999824,
          "velocity": 0.6299212598425197,
          "duration": 0.14814799999999906
        },
        {
          "name": "B1",
          "midi": 35,
          "time": 54.259204999999824,
          "velocity": 0.6299212598425197,
          "duration": 0.14814799999999906
        },
        {
          "name": "D2",
          "midi": 38,
          "time": 54.44438999999982,
          "velocity": 0.6299212598425197,
          "duration": 0.14814799999999906
        },
        {
          "name": "E2",
          "midi": 40,
          "time": 54.44438999999982,
          "velocity": 0.6299212598425197,
          "duration": 0.14814799999999906
        },
        {
          "name": "B1",
          "midi": 35,
          "time": 54.62957499999982,
          "velocity": 0.6299212598425197,
          "duration": 0.14814799999999906
        },
        {
          "name": "C2",
          "midi": 36,
          "time": 54.62957499999982,
          "velocity": 0.6299212598425197,
          "duration": 0.14814799999999906
        },
        {
          "name": "B1",
          "midi": 35,
          "time": 54.99994499999982,
          "velocity": 0.6299212598425197,
          "duration": 0.14814799999999906
        },
        {
          "name": "C2",
          "midi": 36,
          "time": 54.99994499999982,
          "velocity": 0.6299212598425197,
          "duration": 0.14814799999999906
        },
        {
          "name": "D2",
          "midi": 38,
          "time": 55.185129999999816,
          "velocity": 0.6299212598425197,
          "duration": 0.14814799999999906
        },
        {
          "name": "E2",
          "midi": 40,
          "time": 55.185129999999816,
          "velocity": 0.6299212598425197,
          "duration": 0.14814799999999906
        },
        {
          "name": "E2",
          "midi": 40,
          "time": 55.37031499999981,
          "velocity": 0.6299212598425197,
          "duration": 0.14814799999999906
        },
        {
          "name": "D2",
          "midi": 38,
          "time": 55.37031499999981,
          "velocity": 0.6299212598425197,
          "duration": 0.14814799999999906
        },
        {
          "name": "E2",
          "midi": 40,
          "time": 55.55549999999981,
          "velocity": 0.6299212598425197,
          "duration": 0.2962959999999981
        },
        {
          "name": "D2",
          "midi": 38,
          "time": 55.55549999999981,
          "velocity": 0.6299212598425197,
          "duration": 0.2962959999999981
        },
        {
          "name": "D2",
          "midi": 38,
          "time": 55.92586999999981,
          "velocity": 0.6299212598425197,
          "duration": 0.34722187500000246
        },
        {
          "name": "E2",
          "midi": 40,
          "time": 55.92586999999981,
          "velocity": 0.6299212598425197,
          "duration": 0.34722187500000246
        },
        {
          "name": "B1",
          "midi": 35,
          "time": 56.29623999999981,
          "velocity": 0.6299212598425197,
          "duration": 0.14814799999999906
        },
        {
          "name": "C2",
          "midi": 36,
          "time": 56.29623999999981,
          "velocity": 0.6299212598425197,
          "duration": 0.14814799999999906
        },
        {
          "name": "B1",
          "midi": 35,
          "time": 56.48142499999981,
          "velocity": 0.6299212598425197,
          "duration": 0.14814799999999906
        },
        {
          "name": "C2",
          "midi": 36,
          "time": 56.48142499999981,
          "velocity": 0.6299212598425197,
          "duration": 0.14814799999999906
        },
        {
          "name": "E2",
          "midi": 40,
          "time": 56.66660999999981,
          "velocity": 0.6299212598425197,
          "duration": 0.14814799999999906
        },
        {
          "name": "D2",
          "midi": 38,
          "time": 56.66660999999981,
          "velocity": 0.6299212598425197,
          "duration": 0.14814799999999906
        },
        {
          "name": "B1",
          "midi": 35,
          "time": 57.03697999999981,
          "velocity": 0.6299212598425197,
          "duration": 0.14814799999999906
        },
        {
          "name": "C2",
          "midi": 36,
          "time": 57.03697999999981,
          "velocity": 0.6299212598425197,
          "duration": 0.14814799999999906
        },
        {
          "name": "B1",
          "midi": 35,
          "time": 57.222164999999805,
          "velocity": 0.6299212598425197,
          "duration": 0.14814799999999906
        },
        {
          "name": "B1",
          "midi": 35,
          "time": 57.222164999999805,
          "velocity": 0.6299212598425197,
          "duration": 0.14814799999999906
        },
        {
          "name": "C2",
          "midi": 36,
          "time": 57.222164999999805,
          "velocity": 0.6299212598425197,
          "duration": 0.14814799999999906
        },
        {
          "name": "E2",
          "midi": 40,
          "time": 57.4073499999998,
          "velocity": 0.6299212598425197,
          "duration": 0.14814799999999906
        },
        {
          "name": "D2",
          "midi": 38,
          "time": 57.4073499999998,
          "velocity": 0.6299212598425197,
          "duration": 0.14814799999999906
        },
        {
          "name": "C2",
          "midi": 36,
          "time": 57.5925349999998,
          "velocity": 0.6299212598425197,
          "duration": 0.14814799999999906
        },
        {
          "name": "B1",
          "midi": 35,
          "time": 57.5925349999998,
          "velocity": 0.6299212598425197,
          "duration": 0.14814799999999906
        },
        {
          "name": "C2",
          "midi": 36,
          "time": 57.9629049999998,
          "velocity": 0.6299212598425197,
          "duration": 0.14814799999999906
        },
        {
          "name": "B1",
          "midi": 35,
          "time": 57.9629049999998,
          "velocity": 0.6299212598425197,
          "duration": 0.14814799999999906
        },
        {
          "name": "E2",
          "midi": 40,
          "time": 58.1480899999998,
          "velocity": 0.6299212598425197,
          "duration": 0.14814799999999906
        },
        {
          "name": "D2",
          "midi": 38,
          "time": 58.1480899999998,
          "velocity": 0.6299212598425197,
          "duration": 0.14814799999999906
        },
        {
          "name": "E2",
          "midi": 40,
          "time": 58.333274999999794,
          "velocity": 0.6299212598425197,
          "duration": 0.14814799999999906
        },
        {
          "name": "D2",
          "midi": 38,
          "time": 58.333274999999794,
          "velocity": 0.6299212598425197,
          "duration": 0.14814799999999906
        },
        {
          "name": "D2",
          "midi": 38,
          "time": 58.51845999999979,
          "velocity": 0.6299212598425197,
          "duration": 0.2962959999999981
        },
        {
          "name": "E2",
          "midi": 40,
          "time": 58.51845999999979,
          "velocity": 0.6299212598425197,
          "duration": 0.2962959999999981
        },
        {
          "name": "D2",
          "midi": 38,
          "time": 58.88882999999979,
          "velocity": 0.6299212598425197,
          "duration": 0.14814799999999906
        },
        {
          "name": "E2",
          "midi": 40,
          "time": 58.88882999999979,
          "velocity": 0.6299212598425197,
          "duration": 0.14814799999999906
        },
        {
          "name": "D2",
          "midi": 38,
          "time": 59.07401499999979,
          "velocity": 0.6299212598425197,
          "duration": 0.14814799999999906
        },
        {
          "name": "E2",
          "midi": 40,
          "time": 59.07401499999979,
          "velocity": 0.6299212598425197,
          "duration": 0.14814799999999906
        },
        {
          "name": "C2",
          "midi": 36,
          "time": 59.44438499999979,
          "velocity": 0.6299212598425197,
          "duration": 0.14814799999999906
        },
        {
          "name": "B1",
          "midi": 35,
          "time": 59.44438499999979,
          "velocity": 0.6299212598425197,
          "duration": 0.14814799999999906
        },
        {
          "name": "D2",
          "midi": 38,
          "time": 59.62956999999979,
          "velocity": 0.6299212598425197,
          "duration": 0.14814799999999906
        },
        {
          "name": "E2",
          "midi": 40,
          "time": 59.62956999999979,
          "velocity": 0.6299212598425197,
          "duration": 0.14814799999999906
        },
        {
          "name": "B1",
          "midi": 35,
          "time": 59.99993999999979,
          "velocity": 0.6299212598425197,
          "duration": 0.14814799999999906
        },
        {
          "name": "C2",
          "midi": 36,
          "time": 59.99993999999979,
          "velocity": 0.6299212598425197,
          "duration": 0.14814799999999906
        },
        {
          "name": "B1",
          "midi": 35,
          "time": 60.185124999999786,
          "velocity": 0.6299212598425197,
          "duration": 0.14814799999999906
        },
        {
          "name": "C2",
          "midi": 36,
          "time": 60.185124999999786,
          "velocity": 0.6299212598425197,
          "duration": 0.14814799999999906
        },
        {
          "name": "D2",
          "midi": 38,
          "time": 60.37030999999978,
          "velocity": 0.6299212598425197,
          "duration": 0.14814799999999906
        },
        {
          "name": "E2",
          "midi": 40,
          "time": 60.37030999999978,
          "velocity": 0.6299212598425197,
          "duration": 0.14814799999999906
        },
        {
          "name": "C2",
          "midi": 36,
          "time": 60.55549499999978,
          "velocity": 0.6299212598425197,
          "duration": 0.14814799999999906
        },
        {
          "name": "B1",
          "midi": 35,
          "time": 60.55549499999978,
          "velocity": 0.6299212598425197,
          "duration": 0.14814799999999906
        },
        {
          "name": "B1",
          "midi": 35,
          "time": 60.92586499999978,
          "velocity": 0.6299212598425197,
          "duration": 0.14814799999999906
        },
        {
          "name": "C2",
          "midi": 36,
          "time": 60.92586499999978,
          "velocity": 0.6299212598425197,
          "duration": 0.14814799999999906
        },
        {
          "name": "D2",
          "midi": 38,
          "time": 61.11104999999978,
          "velocity": 0.6299212598425197,
          "duration": 0.14814799999999906
        },
        {
          "name": "E2",
          "midi": 40,
          "time": 61.11104999999978,
          "velocity": 0.6299212598425197,
          "duration": 0.14814799999999906
        },
        {
          "name": "E2",
          "midi": 40,
          "time": 61.296234999999776,
          "velocity": 0.6299212598425197,
          "duration": 0.14814799999999906
        },
        {
          "name": "D2",
          "midi": 38,
          "time": 61.296234999999776,
          "velocity": 0.6299212598425197,
          "duration": 0.14814799999999906
        },
        {
          "name": "D2",
          "midi": 38,
          "time": 61.48141999999977,
          "velocity": 0.6299212598425197,
          "duration": 0.2962959999999981
        },
        {
          "name": "E2",
          "midi": 40,
          "time": 61.48141999999977,
          "velocity": 0.6299212598425197,
          "duration": 0.2962959999999981
        },
        {
          "name": "E2",
          "midi": 40,
          "time": 61.851789999999774,
          "velocity": 0.6299212598425197,
          "duration": 0.34722187500000246
        },
        {
          "name": "D2",
          "midi": 38,
          "time": 61.851789999999774,
          "velocity": 0.6299212598425197,
          "duration": 0.34722187500000246
        },
        {
          "name": "B1",
          "midi": 35,
          "time": 62.222159999999775,
          "velocity": 0.6299212598425197,
          "duration": 0.14814799999999906
        },
        {
          "name": "C2",
          "midi": 36,
          "time": 62.222159999999775,
          "velocity": 0.6299212598425197,
          "duration": 0.14814799999999906
        },
        {
          "name": "C2",
          "midi": 36,
          "time": 62.40734499999977,
          "velocity": 0.6299212598425197,
          "duration": 0.14814799999999906
        },
        {
          "name": "B1",
          "midi": 35,
          "time": 62.40734499999977,
          "velocity": 0.6299212598425197,
          "duration": 0.14814799999999906
        },
        {
          "name": "E2",
          "midi": 40,
          "time": 62.59252999999977,
          "velocity": 0.6299212598425197,
          "duration": 0.14814799999999906
        },
        {
          "name": "D2",
          "midi": 38,
          "time": 62.59252999999977,
          "velocity": 0.6299212598425197,
          "duration": 0.14814799999999906
        },
        {
          "name": "C2",
          "midi": 36,
          "time": 62.96289999999977,
          "velocity": 0.6299212598425197,
          "duration": 0.14814799999999906
        },
        {
          "name": "B1",
          "midi": 35,
          "time": 62.96289999999977,
          "velocity": 0.6299212598425197,
          "duration": 0.14814799999999906
        },
        {
          "name": "C2",
          "midi": 36,
          "time": 63.14808499999977,
          "velocity": 0.6299212598425197,
          "duration": 0.14814799999999906
        },
        {
          "name": "B1",
          "midi": 35,
          "time": 63.14808499999977,
          "velocity": 0.6299212598425197,
          "duration": 0.14814799999999906
        },
        {
          "name": "B1",
          "midi": 35,
          "time": 63.14808499999977,
          "velocity": 0.6299212598425197,
          "duration": 0.14814799999999906
        },
        {
          "name": "E2",
          "midi": 40,
          "time": 63.333269999999764,
          "velocity": 0.6299212598425197,
          "duration": 0.14814799999999906
        },
        {
          "name": "D2",
          "midi": 38,
          "time": 63.333269999999764,
          "velocity": 0.6299212598425197,
          "duration": 0.14814799999999906
        },
        {
          "name": "C2",
          "midi": 36,
          "time": 63.51845499999976,
          "velocity": 0.6299212598425197,
          "duration": 0.14814799999999906
        },
        {
          "name": "B1",
          "midi": 35,
          "time": 63.51845499999976,
          "velocity": 0.6299212598425197,
          "duration": 0.14814799999999906
        },
        {
          "name": "B1",
          "midi": 35,
          "time": 63.88882499999976,
          "velocity": 0.6299212598425197,
          "duration": 0.14814799999999906
        },
        {
          "name": "C2",
          "midi": 36,
          "time": 63.88882499999976,
          "velocity": 0.6299212598425197,
          "duration": 0.14814799999999906
        },
        {
          "name": "E2",
          "midi": 40,
          "time": 64.07400999999976,
          "velocity": 0.6299212598425197,
          "duration": 0.14814800000000616
        },
        {
          "name": "D2",
          "midi": 38,
          "time": 64.07400999999976,
          "velocity": 0.6299212598425197,
          "duration": 0.14814800000000616
        },
        {
          "name": "D2",
          "midi": 38,
          "time": 64.25919499999976,
          "velocity": 0.6299212598425197,
          "duration": 0.14814800000000616
        },
        {
          "name": "E2",
          "midi": 40,
          "time": 64.25919499999976,
          "velocity": 0.6299212598425197,
          "duration": 0.14814800000000616
        },
        {
          "name": "D2",
          "midi": 38,
          "time": 64.44437999999977,
          "velocity": 0.6299212598425197,
          "duration": 0.2962959999999981
        },
        {
          "name": "E2",
          "midi": 40,
          "time": 64.44437999999977,
          "velocity": 0.6299212598425197,
          "duration": 0.2962959999999981
        },
        {
          "name": "E2",
          "midi": 40,
          "time": 64.81474999999976,
          "velocity": 0.6299212598425197,
          "duration": 0.14814800000000616
        },
        {
          "name": "D2",
          "midi": 38,
          "time": 64.81474999999976,
          "velocity": 0.6299212598425197,
          "duration": 0.14814800000000616
        },
        {
          "name": "E2",
          "midi": 40,
          "time": 64.99993499999977,
          "velocity": 0.6299212598425197,
          "duration": 0.14814800000000616
        },
        {
          "name": "D2",
          "midi": 38,
          "time": 64.99993499999977,
          "velocity": 0.6299212598425197,
          "duration": 0.14814800000000616
        },
        {
          "name": "B1",
          "midi": 35,
          "time": 65.37030499999977,
          "velocity": 0.6299212598425197,
          "duration": 0.14814800000000616
        },
        {
          "name": "C2",
          "midi": 36,
          "time": 65.37030499999977,
          "velocity": 0.6299212598425197,
          "duration": 0.14814800000000616
        },
        {
          "name": "E2",
          "midi": 40,
          "time": 65.55548999999978,
          "velocity": 0.6299212598425197,
          "duration": 0.14814800000000616
        },
        {
          "name": "D2",
          "midi": 38,
          "time": 65.55548999999978,
          "velocity": 0.6299212598425197,
          "duration": 0.14814800000000616
        },
        {
          "name": "B1",
          "midi": 35,
          "time": 65.92585999999979,
          "velocity": 0.6299212598425197,
          "duration": 0.14814800000000616
        },
        {
          "name": "C2",
          "midi": 36,
          "time": 65.92585999999979,
          "velocity": 0.6299212598425197,
          "duration": 0.14814800000000616
        },
        {
          "name": "B1",
          "midi": 35,
          "time": 66.11104499999979,
          "velocity": 0.6299212598425197,
          "duration": 0.14814800000000616
        },
        {
          "name": "C2",
          "midi": 36,
          "time": 66.11104499999979,
          "velocity": 0.6299212598425197,
          "duration": 0.14814800000000616
        },
        {
          "name": "D2",
          "midi": 38,
          "time": 66.2962299999998,
          "velocity": 0.6299212598425197,
          "duration": 0.14814800000000616
        },
        {
          "name": "E2",
          "midi": 40,
          "time": 66.2962299999998,
          "velocity": 0.6299212598425197,
          "duration": 0.14814800000000616
        },
        {
          "name": "C2",
          "midi": 36,
          "time": 66.4814149999998,
          "velocity": 0.6299212598425197,
          "duration": 0.14814800000000616
        },
        {
          "name": "B1",
          "midi": 35,
          "time": 66.4814149999998,
          "velocity": 0.6299212598425197,
          "duration": 0.14814800000000616
        },
        {
          "name": "C2",
          "midi": 36,
          "time": 66.85178499999981,
          "velocity": 0.6299212598425197,
          "duration": 0.14814800000000616
        },
        {
          "name": "B1",
          "midi": 35,
          "time": 66.85178499999981,
          "velocity": 0.6299212598425197,
          "duration": 0.14814800000000616
        },
        {
          "name": "D2",
          "midi": 38,
          "time": 67.03696999999981,
          "velocity": 0.6299212598425197,
          "duration": 0.14814800000000616
        },
        {
          "name": "E2",
          "midi": 40,
          "time": 67.03696999999981,
          "velocity": 0.6299212598425197,
          "duration": 0.14814800000000616
        },
        {
          "name": "D2",
          "midi": 38,
          "time": 67.22215499999982,
          "velocity": 0.6299212598425197,
          "duration": 0.14814800000000616
        },
        {
          "name": "E2",
          "midi": 40,
          "time": 67.22215499999982,
          "velocity": 0.6299212598425197,
          "duration": 0.14814800000000616
        },
        {
          "name": "E2",
          "midi": 40,
          "time": 67.40733999999982,
          "velocity": 0.6299212598425197,
          "duration": 0.2962959999999981
        },
        {
          "name": "D2",
          "midi": 38,
          "time": 67.40733999999982,
          "velocity": 0.6299212598425197,
          "duration": 0.2962959999999981
        },
        {
          "name": "D2",
          "midi": 38,
          "time": 67.77770999999981,
          "velocity": 0.6299212598425197,
          "duration": 0.34722187500000246
        },
        {
          "name": "E2",
          "midi": 40,
          "time": 67.77770999999981,
          "velocity": 0.6299212598425197,
          "duration": 0.34722187500000246
        },
        {
          "name": "D3",
          "midi": 50,
          "time": 68.88881999999981,
          "velocity": 0.6299212598425197,
          "duration": 0.14814800000000616
        },
        {
          "name": "D3",
          "midi": 50,
          "time": 69.07400499999981,
          "velocity": 0.6299212598425197,
          "duration": 0.14814800000000616
        },
        {
          "name": "D3",
          "midi": 50,
          "time": 69.25918999999982,
          "velocity": 0.6299212598425197,
          "duration": 0.14814800000000616
        },
        {
          "name": "B2",
          "midi": 47,
          "time": 69.44437499999982,
          "velocity": 0.6299212598425197,
          "duration": 0.3333329999999961
        },
        {
          "name": "D3",
          "midi": 50,
          "time": 69.81474499999982,
          "velocity": 0.6299212598425197,
          "duration": 0.14814800000000616
        },
        {
          "name": "C3",
          "midi": 48,
          "time": 69.99992999999982,
          "velocity": 0.6299212598425197,
          "duration": 0.07407399999999598
        },
        {
          "name": "B2",
          "midi": 47,
          "time": 70.09252249999982,
          "velocity": 0.6299212598425197,
          "duration": 0.07407399999999598
        },
        {
          "name": "A2",
          "midi": 45,
          "time": 70.18511499999981,
          "velocity": 0.6299212598425197,
          "duration": 0.2962959999999981
        },
        {
          "name": "E2",
          "midi": 40,
          "time": 70.5554849999998,
          "velocity": 0.6299212598425197,
          "duration": 0.14814800000000616
        },
        {
          "name": "D2",
          "midi": 38,
          "time": 70.5554849999998,
          "velocity": 0.6299212598425197,
          "duration": 0.14814800000000616
        },
        {
          "name": "D2",
          "midi": 38,
          "time": 70.74066999999981,
          "velocity": 0.6299212598425197,
          "duration": 0.14814800000000616
        },
        {
          "name": "E2",
          "midi": 40,
          "time": 70.74066999999981,
          "velocity": 0.6299212598425197,
          "duration": 0.14814800000000616
        },
        {
          "name": "E2",
          "midi": 40,
          "time": 70.92585499999981,
          "velocity": 0.6299212598425197,
          "duration": 0.14814800000000616
        },
        {
          "name": "D2",
          "midi": 38,
          "time": 70.92585499999981,
          "velocity": 0.6299212598425197,
          "duration": 0.14814800000000616
        },
        {
          "name": "B1",
          "midi": 35,
          "time": 71.29622499999982,
          "velocity": 0.6299212598425197,
          "duration": 0.14814800000000616
        },
        {
          "name": "C2",
          "midi": 36,
          "time": 71.29622499999982,
          "velocity": 0.6299212598425197,
          "duration": 0.14814800000000616
        },
        {
          "name": "D2",
          "midi": 38,
          "time": 71.48140999999983,
          "velocity": 0.6299212598425197,
          "duration": 0.14814800000000616
        },
        {
          "name": "E2",
          "midi": 40,
          "time": 71.48140999999983,
          "velocity": 0.6299212598425197,
          "duration": 0.14814800000000616
        },
        {
          "name": "C2",
          "midi": 36,
          "time": 71.85177999999983,
          "velocity": 0.6299212598425197,
          "duration": 0.14814800000000616
        },
        {
          "name": "B1",
          "midi": 35,
          "time": 71.85177999999983,
          "velocity": 0.6299212598425197,
          "duration": 0.14814800000000616
        },
        {
          "name": "B1",
          "midi": 35,
          "time": 72.03696499999984,
          "velocity": 0.6299212598425197,
          "duration": 0.14814800000000616
        },
        {
          "name": "C2",
          "midi": 36,
          "time": 72.03696499999984,
          "velocity": 0.6299212598425197,
          "duration": 0.14814800000000616
        },
        {
          "name": "D2",
          "midi": 38,
          "time": 72.22214999999984,
          "velocity": 0.6299212598425197,
          "duration": 0.14814800000000616
        },
        {
          "name": "E2",
          "midi": 40,
          "time": 72.22214999999984,
          "velocity": 0.6299212598425197,
          "duration": 0.14814800000000616
        },
        {
          "name": "B1",
          "midi": 35,
          "time": 72.77770499999986,
          "velocity": 0.6299212598425197,
          "duration": 0.14814800000000616
        },
        {
          "name": "C2",
          "midi": 36,
          "time": 72.77770499999986,
          "velocity": 0.6299212598425197,
          "duration": 0.14814800000000616
        },
        {
          "name": "D2",
          "midi": 38,
          "time": 72.96288999999986,
          "velocity": 0.6299212598425197,
          "duration": 0.14814800000000616
        },
        {
          "name": "E2",
          "midi": 40,
          "time": 72.96288999999986,
          "velocity": 0.6299212598425197,
          "duration": 0.14814800000000616
        },
        {
          "name": "C2",
          "midi": 36,
          "time": 73.33325999999987,
          "velocity": 0.6299212598425197,
          "duration": 0.14814800000000616
        },
        {
          "name": "B1",
          "midi": 35,
          "time": 73.33325999999987,
          "velocity": 0.6299212598425197,
          "duration": 0.14814800000000616
        },
        {
          "name": "B1",
          "midi": 35,
          "time": 73.51844499999987,
          "velocity": 0.6299212598425197,
          "duration": 0.14814800000000616
        },
        {
          "name": "C2",
          "midi": 36,
          "time": 73.51844499999987,
          "velocity": 0.6299212598425197,
          "duration": 0.14814800000000616
        },
        {
          "name": "E2",
          "midi": 40,
          "time": 73.70362999999988,
          "velocity": 0.6299212598425197,
          "duration": 0.14814800000000616
        },
        {
          "name": "D2",
          "midi": 38,
          "time": 73.70362999999988,
          "velocity": 0.6299212598425197,
          "duration": 0.14814800000000616
        },
        {
          "name": "C2",
          "midi": 36,
          "time": 73.88881499999988,
          "velocity": 0.6299212598425197,
          "duration": 0.14814800000000616
        },
        {
          "name": "B1",
          "midi": 35,
          "time": 73.88881499999988,
          "velocity": 0.6299212598425197,
          "duration": 0.14814800000000616
        },
        {
          "name": "B1",
          "midi": 35,
          "time": 74.25918499999989,
          "velocity": 0.6299212598425197,
          "duration": 0.14814800000000616
        },
        {
          "name": "C2",
          "midi": 36,
          "time": 74.25918499999989,
          "velocity": 0.6299212598425197,
          "duration": 0.14814800000000616
        },
        {
          "name": "E2",
          "midi": 40,
          "time": 74.44436999999989,
          "velocity": 0.6299212598425197,
          "duration": 0.14814800000000616
        },
        {
          "name": "D2",
          "midi": 38,
          "time": 74.44436999999989,
          "velocity": 0.6299212598425197,
          "duration": 0.14814800000000616
        },
        {
          "name": "C2",
          "midi": 36,
          "time": 74.8147399999999,
          "velocity": 0.6299212598425197,
          "duration": 0.14814800000000616
        },
        {
          "name": "B1",
          "midi": 35,
          "time": 74.8147399999999,
          "velocity": 0.6299212598425197,
          "duration": 0.14814800000000616
        },
        {
          "name": "C2",
          "midi": 36,
          "time": 74.9999249999999,
          "velocity": 0.6299212598425197,
          "duration": 0.14814800000000616
        },
        {
          "name": "B1",
          "midi": 35,
          "time": 74.9999249999999,
          "velocity": 0.6299212598425197,
          "duration": 0.14814800000000616
        },
        {
          "name": "E2",
          "midi": 40,
          "time": 75.18510999999991,
          "velocity": 0.6299212598425197,
          "duration": 0.14814800000000616
        },
        {
          "name": "D2",
          "midi": 38,
          "time": 75.18510999999991,
          "velocity": 0.6299212598425197,
          "duration": 0.14814800000000616
        },
        {
          "name": "C2",
          "midi": 36,
          "time": 75.37029499999991,
          "velocity": 0.6299212598425197,
          "duration": 0.14814800000000616
        },
        {
          "name": "B1",
          "midi": 35,
          "time": 75.37029499999991,
          "velocity": 0.6299212598425197,
          "duration": 0.14814800000000616
        },
        {
          "name": "B1",
          "midi": 35,
          "time": 75.74066499999992,
          "velocity": 0.6299212598425197,
          "duration": 0.14814800000000616
        },
        {
          "name": "C2",
          "midi": 36,
          "time": 75.74066499999992,
          "velocity": 0.6299212598425197,
          "duration": 0.14814800000000616
        },
        {
          "name": "E2",
          "midi": 40,
          "time": 75.92584999999993,
          "velocity": 0.6299212598425197,
          "duration": 0.14814800000000616
        },
        {
          "name": "D2",
          "midi": 38,
          "time": 75.92584999999993,
          "velocity": 0.6299212598425197,
          "duration": 0.14814800000000616
        },
        {
          "name": "E2",
          "midi": 40,
          "time": 76.29621999999993,
          "velocity": 0.6299212598425197,
          "duration": 0.14814800000000616
        },
        {
          "name": "D2",
          "midi": 38,
          "time": 76.29621999999993,
          "velocity": 0.6299212598425197,
          "duration": 0.14814800000000616
        },
        {
          "name": "E2",
          "midi": 40,
          "time": 76.66658999999994,
          "velocity": 0.6299212598425197,
          "duration": 0.14814800000000616
        },
        {
          "name": "D2",
          "midi": 38,
          "time": 76.66658999999994,
          "velocity": 0.6299212598425197,
          "duration": 0.14814800000000616
        },
        {
          "name": "E2",
          "midi": 40,
          "time": 77.03695999999995,
          "velocity": 0.6299212598425197,
          "duration": 0.14814800000000616
        },
        {
          "name": "D2",
          "midi": 38,
          "time": 77.03695999999995,
          "velocity": 0.6299212598425197,
          "duration": 0.14814800000000616
        },
        {
          "name": "C2",
          "midi": 36,
          "time": 77.22214499999995,
          "velocity": 0.6299212598425197,
          "duration": 0.14814800000000616
        },
        {
          "name": "B1",
          "midi": 35,
          "time": 77.22214499999995,
          "velocity": 0.6299212598425197,
          "duration": 0.14814800000000616
        },
        {
          "name": "D2",
          "midi": 38,
          "time": 77.40732999999996,
          "velocity": 0.6299212598425197,
          "duration": 0.14814800000000616
        },
        {
          "name": "E2",
          "midi": 40,
          "time": 77.40732999999996,
          "velocity": 0.6299212598425197,
          "duration": 0.14814800000000616
        },
        {
          "name": "B1",
          "midi": 35,
          "time": 77.77769999999997,
          "velocity": 0.6299212598425197,
          "duration": 0.14814800000000616
        },
        {
          "name": "C2",
          "midi": 36,
          "time": 77.77769999999997,
          "velocity": 0.6299212598425197,
          "duration": 0.14814800000000616
        },
        {
          "name": "C2",
          "midi": 36,
          "time": 77.96288499999997,
          "velocity": 0.6299212598425197,
          "duration": 0.14814800000000616
        },
        {
          "name": "B1",
          "midi": 35,
          "time": 77.96288499999997,
          "velocity": 0.6299212598425197,
          "duration": 0.14814800000000616
        },
        {
          "name": "D2",
          "midi": 38,
          "time": 78.14806999999998,
          "velocity": 0.6299212598425197,
          "duration": 0.14814800000000616
        },
        {
          "name": "E2",
          "midi": 40,
          "time": 78.14806999999998,
          "velocity": 0.6299212598425197,
          "duration": 0.14814800000000616
        },
        {
          "name": "B1",
          "midi": 35,
          "time": 78.33325499999998,
          "velocity": 0.6299212598425197,
          "duration": 0.14814800000000616
        },
        {
          "name": "C2",
          "midi": 36,
          "time": 78.33325499999998,
          "velocity": 0.6299212598425197,
          "duration": 0.14814800000000616
        },
        {
          "name": "C2",
          "midi": 36,
          "time": 78.70362499999999,
          "velocity": 0.6299212598425197,
          "duration": 0.14814800000000616
        },
        {
          "name": "B1",
          "midi": 35,
          "time": 78.70362499999999,
          "velocity": 0.6299212598425197,
          "duration": 0.14814800000000616
        },
        {
          "name": "D2",
          "midi": 38,
          "time": 78.88880999999999,
          "velocity": 0.6299212598425197,
          "duration": 0.14814800000000616
        },
        {
          "name": "E2",
          "midi": 40,
          "time": 78.88880999999999,
          "velocity": 0.6299212598425197,
          "duration": 0.14814800000000616
        },
        {
          "name": "C2",
          "midi": 36,
          "time": 79.25918,
          "velocity": 0.6299212598425197,
          "duration": 0.14814800000000616
        },
        {
          "name": "B1",
          "midi": 35,
          "time": 79.25918,
          "velocity": 0.6299212598425197,
          "duration": 0.14814800000000616
        },
        {
          "name": "D2",
          "midi": 38,
          "time": 79.444365,
          "velocity": 0.6299212598425197,
          "duration": 0.14814800000000616
        },
        {
          "name": "E2",
          "midi": 40,
          "time": 79.444365,
          "velocity": 0.6299212598425197,
          "duration": 0.14814800000000616
        },
        {
          "name": "C2",
          "midi": 36,
          "time": 79.62955000000001,
          "velocity": 0.6299212598425197,
          "duration": 0.14814800000000616
        },
        {
          "name": "B1",
          "midi": 35,
          "time": 79.62955000000001,
          "velocity": 0.6299212598425197,
          "duration": 0.14814800000000616
        },
        {
          "name": "B1",
          "midi": 35,
          "time": 79.81473500000001,
          "velocity": 0.6299212598425197,
          "duration": 0.14814800000000616
        },
        {
          "name": "C2",
          "midi": 36,
          "time": 79.81473500000001,
          "velocity": 0.6299212598425197,
          "duration": 0.14814800000000616
        },
        {
          "name": "C2",
          "midi": 36,
          "time": 80.18510500000002,
          "velocity": 0.6299212598425197,
          "duration": 0.14814800000000616
        },
        {
          "name": "B1",
          "midi": 35,
          "time": 80.18510500000002,
          "velocity": 0.6299212598425197,
          "duration": 0.14814800000000616
        },
        {
          "name": "E2",
          "midi": 40,
          "time": 80.37029000000003,
          "velocity": 0.6299212598425197,
          "duration": 0.14814800000000616
        },
        {
          "name": "D2",
          "midi": 38,
          "time": 80.37029000000003,
          "velocity": 0.6299212598425197,
          "duration": 0.14814800000000616
        },
        {
          "name": "C2",
          "midi": 36,
          "time": 80.74066000000003,
          "velocity": 0.6299212598425197,
          "duration": 0.14814800000000616
        },
        {
          "name": "B1",
          "midi": 35,
          "time": 80.74066000000003,
          "velocity": 0.6299212598425197,
          "duration": 0.14814800000000616
        },
        {
          "name": "C2",
          "midi": 36,
          "time": 80.92584500000004,
          "velocity": 0.6299212598425197,
          "duration": 0.14814800000000616
        },
        {
          "name": "B1",
          "midi": 35,
          "time": 80.92584500000004,
          "velocity": 0.6299212598425197,
          "duration": 0.14814800000000616
        },
        {
          "name": "D2",
          "midi": 38,
          "time": 81.11103000000004,
          "velocity": 0.6299212598425197,
          "duration": 0.14814800000000616
        },
        {
          "name": "E2",
          "midi": 40,
          "time": 81.11103000000004,
          "velocity": 0.6299212598425197,
          "duration": 0.14814800000000616
        },
        {
          "name": "B1",
          "midi": 35,
          "time": 81.29621500000005,
          "velocity": 0.6299212598425197,
          "duration": 0.14814800000000616
        },
        {
          "name": "C2",
          "midi": 36,
          "time": 81.29621500000005,
          "velocity": 0.6299212598425197,
          "duration": 0.14814800000000616
        },
        {
          "name": "D2",
          "midi": 38,
          "time": 81.66658500000005,
          "velocity": 0.6299212598425197,
          "duration": 0.14814800000000616
        },
        {
          "name": "E2",
          "midi": 40,
          "time": 81.66658500000005,
          "velocity": 0.6299212598425197,
          "duration": 0.14814800000000616
        },
        {
          "name": "E2",
          "midi": 40,
          "time": 81.85177000000006,
          "velocity": 0.6299212598425197,
          "duration": 0.14814800000000616
        },
        {
          "name": "D2",
          "midi": 38,
          "time": 81.85177000000006,
          "velocity": 0.6299212598425197,
          "duration": 0.14814800000000616
        },
        {
          "name": "D2",
          "midi": 38,
          "time": 82.03695500000006,
          "velocity": 0.6299212598425197,
          "duration": 0.14814800000000616
        },
        {
          "name": "E2",
          "midi": 40,
          "time": 82.03695500000006,
          "velocity": 0.6299212598425197,
          "duration": 0.14814800000000616
        },
        {
          "name": "D3",
          "midi": 50,
          "time": 82.22214000000007,
          "velocity": 0.6299212598425197,
          "duration": 0.07407399999999598
        },
        {
          "name": "D3",
          "midi": 50,
          "time": 82.31473250000006,
          "velocity": 0.6299212598425197,
          "duration": 0.07407399999999598
        },
        {
          "name": "C3",
          "midi": 48,
          "time": 82.40732500000006,
          "velocity": 0.6299212598425197,
          "duration": 0.07407399999999598
        },
        {
          "name": "C3",
          "midi": 48,
          "time": 82.49991750000005,
          "velocity": 0.6299212598425197,
          "duration": 0.07407399999999598
        },
        {
          "name": "B2",
          "midi": 47,
          "time": 82.59251000000005,
          "velocity": 0.6299212598425197,
          "duration": 0.07407399999999598
        },
        {
          "name": "A2",
          "midi": 45,
          "time": 82.68510250000004,
          "velocity": 0.6299212598425197,
          "duration": 0.07407399999999598
        },
        {
          "name": "G2",
          "midi": 43,
          "time": 82.77769500000004,
          "velocity": 0.6299212598425197,
          "duration": 0.07407399999999598
        },
        {
          "name": "F2",
          "midi": 41,
          "time": 82.87028750000003,
          "velocity": 0.6299212598425197,
          "duration": 0.07407399999999598
        },
        {
          "name": "C2",
          "midi": 36,
          "time": 82.96288000000003,
          "velocity": 0.6299212598425197,
          "duration": 0.14814800000000616
        },
        {
          "name": "B1",
          "midi": 35,
          "time": 82.96288000000003,
          "velocity": 0.6299212598425197,
          "duration": 0.14814800000000616
        },
        {
          "name": "C2",
          "midi": 36,
          "time": 83.24065750000003,
          "velocity": 0.6299212598425197,
          "duration": 0.07407399999999598
        },
        {
          "name": "B1",
          "midi": 35,
          "time": 83.24065750000003,
          "velocity": 0.6299212598425197,
          "duration": 0.07407399999999598
        },
        {
          "name": "D2",
          "midi": 38,
          "time": 83.33325000000002,
          "velocity": 0.6299212598425197,
          "duration": 0.34722187500000246
        },
        {
          "name": "E2",
          "midi": 40,
          "time": 83.33325000000002,
          "velocity": 0.6299212598425197,
          "duration": 0.34722187500000246
        },
        {
          "name": "C2",
          "midi": 36,
          "time": 83.70362000000003,
          "velocity": 0.6299212598425197,
          "duration": 0.07407399999999598
        },
        {
          "name": "B1",
          "midi": 35,
          "time": 83.70362000000003,
          "velocity": 0.6299212598425197,
          "duration": 0.07407399999999598
        },
        {
          "name": "C2",
          "midi": 36,
          "time": 83.79621250000002,
          "velocity": 0.6299212598425197,
          "duration": 0.07407399999999598
        },
        {
          "name": "B1",
          "midi": 35,
          "time": 83.79621250000002,
          "velocity": 0.6299212598425197,
          "duration": 0.07407399999999598
        },
        {
          "name": "D2",
          "midi": 38,
          "time": 84.07399000000002,
          "velocity": 0.6299212598425197,
          "duration": 0.07407399999999598
        },
        {
          "name": "E2",
          "midi": 40,
          "time": 84.07399000000002,
          "velocity": 0.6299212598425197,
          "duration": 0.07407399999999598
        },
        {
          "name": "B1",
          "midi": 35,
          "time": 84.44436000000002,
          "velocity": 0.6299212598425197,
          "duration": 0.14814800000000616
        },
        {
          "name": "C2",
          "midi": 36,
          "time": 84.44436000000002,
          "velocity": 0.6299212598425197,
          "duration": 0.14814800000000616
        },
        {
          "name": "B1",
          "midi": 35,
          "time": 84.72213750000002,
          "velocity": 0.6299212598425197,
          "duration": 0.07407399999999598
        },
        {
          "name": "C2",
          "midi": 36,
          "time": 84.72213750000002,
          "velocity": 0.6299212598425197,
          "duration": 0.07407399999999598
        },
        {
          "name": "E2",
          "midi": 40,
          "time": 84.81473000000001,
          "velocity": 0.6299212598425197,
          "duration": 0.34722187500000246
        },
        {
          "name": "D2",
          "midi": 38,
          "time": 84.81473000000001,
          "velocity": 0.6299212598425197,
          "duration": 0.34722187500000246
        },
        {
          "name": "B1",
          "midi": 35,
          "time": 85.18510000000002,
          "velocity": 0.6299212598425197,
          "duration": 0.2962959999999981
        },
        {
          "name": "C2",
          "midi": 36,
          "time": 85.18510000000002,
          "velocity": 0.6299212598425197,
          "duration": 0.2962959999999981
        },
        {
          "name": "B1",
          "midi": 35,
          "time": 85.55547000000001,
          "velocity": 0.6299212598425197,
          "duration": 0.2962959999999981
        },
        {
          "name": "C2",
          "midi": 36,
          "time": 85.55547000000001,
          "velocity": 0.6299212598425197,
          "duration": 0.2962959999999981
        },
        {
          "name": "B1",
          "midi": 35,
          "time": 85.92584000000001,
          "velocity": 0.6299212598425197,
          "duration": 0.14814800000000616
        },
        {
          "name": "C2",
          "midi": 36,
          "time": 85.92584000000001,
          "velocity": 0.6299212598425197,
          "duration": 0.14814800000000616
        },
        {
          "name": "C2",
          "midi": 36,
          "time": 86.20361750000001,
          "velocity": 0.6299212598425197,
          "duration": 0.07407399999999598
        },
        {
          "name": "B1",
          "midi": 35,
          "time": 86.20361750000001,
          "velocity": 0.6299212598425197,
          "duration": 0.07407399999999598
        },
        {
          "name": "D2",
          "midi": 38,
          "time": 86.29621,
          "velocity": 0.6299212598425197,
          "duration": 0.34722187500000246
        },
        {
          "name": "E2",
          "midi": 40,
          "time": 86.29621,
          "velocity": 0.6299212598425197,
          "duration": 0.34722187500000246
        },
        {
          "name": "B1",
          "midi": 35,
          "time": 86.66658000000001,
          "velocity": 0.6299212598425197,
          "duration": 0.07407399999999598
        },
        {
          "name": "C2",
          "midi": 36,
          "time": 86.66658000000001,
          "velocity": 0.6299212598425197,
          "duration": 0.07407399999999598
        },
        {
          "name": "B1",
          "midi": 35,
          "time": 86.7591725,
          "velocity": 0.6299212598425197,
          "duration": 0.07407399999999598
        },
        {
          "name": "C2",
          "midi": 36,
          "time": 86.7591725,
          "velocity": 0.6299212598425197,
          "duration": 0.07407399999999598
        },
        {
          "name": "D2",
          "midi": 38,
          "time": 87.03695,
          "velocity": 0.6299212598425197,
          "duration": 0.07407399999999598
        },
        {
          "name": "E2",
          "midi": 40,
          "time": 87.03695,
          "velocity": 0.6299212598425197,
          "duration": 0.07407399999999598
        },
        {
          "name": "G2",
          "midi": 43,
          "time": 87.40732,
          "velocity": 0.6299212598425197,
          "duration": 0.14814800000000616
        },
        {
          "name": "G2",
          "midi": 43,
          "time": 87.6850975,
          "velocity": 0.6299212598425197,
          "duration": 0.03703699999999799
        },
        {
          "name": "G2",
          "midi": 43,
          "time": 87.73139375,
          "velocity": 0.6299212598425197,
          "duration": 0.03703699999999799
        },
        {
          "name": "D3",
          "midi": 50,
          "time": 87.77768999999999,
          "velocity": 0.6299212598425197,
          "duration": 0.03703699999999799
        },
        {
          "name": "C2",
          "midi": 36,
          "time": 88.05546749999999,
          "velocity": 0.6299212598425197,
          "duration": 0.07407399999999598
        },
        {
          "name": "B1",
          "midi": 35,
          "time": 88.05546749999999,
          "velocity": 0.6299212598425197,
          "duration": 0.07407399999999598
        },
        {
          "name": "C2",
          "midi": 36,
          "time": 88.24065249999998,
          "velocity": 0.6299212598425197,
          "duration": 0.07407399999999598
        },
        {
          "name": "B1",
          "midi": 35,
          "time": 88.24065249999998,
          "velocity": 0.6299212598425197,
          "duration": 0.07407399999999598
        },
        {
          "name": "B1",
          "midi": 35,
          "time": 88.42583749999997,
          "velocity": 0.6299212598425197,
          "duration": 0.07407399999999598
        },
        {
          "name": "C2",
          "midi": 36,
          "time": 88.42583749999997,
          "velocity": 0.6299212598425197,
          "duration": 0.07407399999999598
        },
        {
          "name": "D3",
          "midi": 50,
          "time": 88.61102249999996,
          "velocity": 0.6299212598425197,
          "duration": 0.03703699999999799
        },
        {
          "name": "C3",
          "midi": 48,
          "time": 88.65731874999996,
          "velocity": 0.6299212598425197,
          "duration": 0.03703699999999799
        },
        {
          "name": "B2",
          "midi": 47,
          "time": 88.70361499999996,
          "velocity": 0.6299212598425197,
          "duration": 0.03703699999999799
        },
        {
          "name": "A2",
          "midi": 45,
          "time": 88.74991124999995,
          "velocity": 0.6299212598425197,
          "duration": 0.03703699999999799
        },
        {
          "name": "G2",
          "midi": 43,
          "time": 88.79620749999995,
          "velocity": 0.6299212598425197,
          "duration": 0.03703699999999799
        },
        {
          "name": "F2",
          "midi": 41,
          "time": 88.84250374999995,
          "velocity": 0.6299212598425197,
          "duration": 0.03703699999999799
        },
        {
          "name": "C2",
          "midi": 36,
          "time": 88.88879999999995,
          "velocity": 0.6299212598425197,
          "duration": 0.14814800000000616
        },
        {
          "name": "B1",
          "midi": 35,
          "time": 88.88879999999995,
          "velocity": 0.6299212598425197,
          "duration": 0.14814800000000616
        },
        {
          "name": "C2",
          "midi": 36,
          "time": 89.07398499999995,
          "velocity": 0.6299212598425197,
          "duration": 0.14814800000000616
        },
        {
          "name": "B1",
          "midi": 35,
          "time": 89.07398499999995,
          "velocity": 0.6299212598425197,
          "duration": 0.14814800000000616
        },
        {
          "name": "D2",
          "midi": 38,
          "time": 89.25916999999995,
          "velocity": 0.6299212598425197,
          "duration": 0.14814800000000616
        },
        {
          "name": "E2",
          "midi": 40,
          "time": 89.25916999999995,
          "velocity": 0.6299212598425197,
          "duration": 0.14814800000000616
        },
        {
          "name": "C2",
          "midi": 36,
          "time": 89.62953999999996,
          "velocity": 0.6299212598425197,
          "duration": 0.14814800000000616
        },
        {
          "name": "B1",
          "midi": 35,
          "time": 89.62953999999996,
          "velocity": 0.6299212598425197,
          "duration": 0.14814800000000616
        },
        {
          "name": "C2",
          "midi": 36,
          "time": 89.81472499999997,
          "velocity": 0.6299212598425197,
          "duration": 0.14814800000000616
        },
        {
          "name": "B1",
          "midi": 35,
          "time": 89.81472499999997,
          "velocity": 0.6299212598425197,
          "duration": 0.14814800000000616
        },
        {
          "name": "B1",
          "midi": 35,
          "time": 89.81472499999997,
          "velocity": 0.6299212598425197,
          "duration": 0.14814800000000616
        },
        {
          "name": "D2",
          "midi": 38,
          "time": 89.99990999999997,
          "velocity": 0.6299212598425197,
          "duration": 0.14814800000000616
        },
        {
          "name": "E2",
          "midi": 40,
          "time": 89.99990999999997,
          "velocity": 0.6299212598425197,
          "duration": 0.14814800000000616
        },
        {
          "name": "C2",
          "midi": 36,
          "time": 90.18509499999998,
          "velocity": 0.6299212598425197,
          "duration": 0.14814800000000616
        },
        {
          "name": "B1",
          "midi": 35,
          "time": 90.18509499999998,
          "velocity": 0.6299212598425197,
          "duration": 0.14814800000000616
        },
        {
          "name": "C2",
          "midi": 36,
          "time": 90.55546499999998,
          "velocity": 0.6299212598425197,
          "duration": 0.14814800000000616
        },
        {
          "name": "B1",
          "midi": 35,
          "time": 90.55546499999998,
          "velocity": 0.6299212598425197,
          "duration": 0.14814800000000616
        },
        {
          "name": "E2",
          "midi": 40,
          "time": 90.74064999999999,
          "velocity": 0.6299212598425197,
          "duration": 0.14814800000000616
        },
        {
          "name": "D2",
          "midi": 38,
          "time": 90.74064999999999,
          "velocity": 0.6299212598425197,
          "duration": 0.14814800000000616
        },
        {
          "name": "E2",
          "midi": 40,
          "time": 90.92583499999999,
          "velocity": 0.6299212598425197,
          "duration": 0.14814800000000616
        },
        {
          "name": "D2",
          "midi": 38,
          "time": 90.92583499999999,
          "velocity": 0.6299212598425197,
          "duration": 0.14814800000000616
        },
        {
          "name": "D2",
          "midi": 38,
          "time": 91.11102,
          "velocity": 0.6299212598425197,
          "duration": 0.2962959999999981
        },
        {
          "name": "E2",
          "midi": 40,
          "time": 91.11102,
          "velocity": 0.6299212598425197,
          "duration": 0.2962959999999981
        },
        {
          "name": "D2",
          "midi": 38,
          "time": 91.48138999999999,
          "velocity": 0.6299212598425197,
          "duration": 0.14814800000000616
        },
        {
          "name": "E2",
          "midi": 40,
          "time": 91.48138999999999,
          "velocity": 0.6299212598425197,
          "duration": 0.14814800000000616
        },
        {
          "name": "E2",
          "midi": 40,
          "time": 91.666575,
          "velocity": 0.6299212598425197,
          "duration": 0.14814800000000616
        },
        {
          "name": "D2",
          "midi": 38,
          "time": 91.666575,
          "velocity": 0.6299212598425197,
          "duration": 0.14814800000000616
        },
        {
          "name": "C2",
          "midi": 36,
          "time": 92.036945,
          "velocity": 0.6299212598425197,
          "duration": 0.14814800000000616
        },
        {
          "name": "B1",
          "midi": 35,
          "time": 92.036945,
          "velocity": 0.6299212598425197,
          "duration": 0.14814800000000616
        },
        {
          "name": "E2",
          "midi": 40,
          "time": 92.22213,
          "velocity": 0.6299212598425197,
          "duration": 0.14814800000000616
        },
        {
          "name": "D2",
          "midi": 38,
          "time": 92.22213,
          "velocity": 0.6299212598425197,
          "duration": 0.14814800000000616
        },
        {
          "name": "C2",
          "midi": 36,
          "time": 92.59250000000002,
          "velocity": 0.6299212598425197,
          "duration": 0.14814800000000616
        },
        {
          "name": "B1",
          "midi": 35,
          "time": 92.59250000000002,
          "velocity": 0.6299212598425197,
          "duration": 0.14814800000000616
        },
        {
          "name": "C2",
          "midi": 36,
          "time": 92.77768500000002,
          "velocity": 0.6299212598425197,
          "duration": 0.14814800000000616
        },
        {
          "name": "B1",
          "midi": 35,
          "time": 92.77768500000002,
          "velocity": 0.6299212598425197,
          "duration": 0.14814800000000616
        },
        {
          "name": "E2",
          "midi": 40,
          "time": 92.96287000000002,
          "velocity": 0.6299212598425197,
          "duration": 0.14814800000000616
        },
        {
          "name": "D2",
          "midi": 38,
          "time": 92.96287000000002,
          "velocity": 0.6299212598425197,
          "duration": 0.14814800000000616
        },
        {
          "name": "B1",
          "midi": 35,
          "time": 93.14805500000003,
          "velocity": 0.6299212598425197,
          "duration": 0.14814800000000616
        },
        {
          "name": "C2",
          "midi": 36,
          "time": 93.14805500000003,
          "velocity": 0.6299212598425197,
          "duration": 0.14814800000000616
        },
        {
          "name": "C2",
          "midi": 36,
          "time": 93.51842500000004,
          "velocity": 0.6299212598425197,
          "duration": 0.14814800000000616
        },
        {
          "name": "B1",
          "midi": 35,
          "time": 93.51842500000004,
          "velocity": 0.6299212598425197,
          "duration": 0.14814800000000616
        },
        {
          "name": "D2",
          "midi": 38,
          "time": 93.70361000000004,
          "velocity": 0.6299212598425197,
          "duration": 0.14814800000000616
        },
        {
          "name": "E2",
          "midi": 40,
          "time": 93.70361000000004,
          "velocity": 0.6299212598425197,
          "duration": 0.14814800000000616
        },
        {
          "name": "E2",
          "midi": 40,
          "time": 93.88879500000004,
          "velocity": 0.6299212598425197,
          "duration": 0.14814800000000616
        },
        {
          "name": "D2",
          "midi": 38,
          "time": 93.88879500000004,
          "velocity": 0.6299212598425197,
          "duration": 0.14814800000000616
        },
        {
          "name": "E2",
          "midi": 40,
          "time": 94.07398000000005,
          "velocity": 0.6299212598425197,
          "duration": 0.2962959999999981
        },
        {
          "name": "D2",
          "midi": 38,
          "time": 94.07398000000005,
          "velocity": 0.6299212598425197,
          "duration": 0.2962959999999981
        },
        {
          "name": "E2",
          "midi": 40,
          "time": 94.44435000000004,
          "velocity": 0.6299212598425197,
          "duration": 0.34722187500000246
        },
        {
          "name": "D2",
          "midi": 38,
          "time": 94.44435000000004,
          "velocity": 0.6299212598425197,
          "duration": 0.34722187500000246
        },
        {
          "name": "C2",
          "midi": 36,
          "time": 94.81472000000005,
          "velocity": 0.6299212598425197,
          "duration": 0.14814800000000616
        },
        {
          "name": "B1",
          "midi": 35,
          "time": 94.81472000000005,
          "velocity": 0.6299212598425197,
          "duration": 0.14814800000000616
        },
        {
          "name": "B1",
          "midi": 35,
          "time": 94.99990500000006,
          "velocity": 0.6299212598425197,
          "duration": 0.14814800000000616
        },
        {
          "name": "C2",
          "midi": 36,
          "time": 94.99990500000006,
          "velocity": 0.6299212598425197,
          "duration": 0.14814800000000616
        },
        {
          "name": "D2",
          "midi": 38,
          "time": 95.18509000000006,
          "velocity": 0.6299212598425197,
          "duration": 0.14814800000000616
        },
        {
          "name": "E2",
          "midi": 40,
          "time": 95.18509000000006,
          "velocity": 0.6299212598425197,
          "duration": 0.14814800000000616
        },
        {
          "name": "B1",
          "midi": 35,
          "time": 95.55546000000007,
          "velocity": 0.6299212598425197,
          "duration": 0.14814800000000616
        },
        {
          "name": "C2",
          "midi": 36,
          "time": 95.55546000000007,
          "velocity": 0.6299212598425197,
          "duration": 0.14814800000000616
        },
        {
          "name": "C2",
          "midi": 36,
          "time": 95.74064500000007,
          "velocity": 0.6299212598425197,
          "duration": 0.14814800000000616
        },
        {
          "name": "B1",
          "midi": 35,
          "time": 95.74064500000007,
          "velocity": 0.6299212598425197,
          "duration": 0.14814800000000616
        },
        {
          "name": "B1",
          "midi": 35,
          "time": 95.74064500000007,
          "velocity": 0.6299212598425197,
          "duration": 0.14814800000000616
        },
        {
          "name": "D2",
          "midi": 38,
          "time": 95.92583000000008,
          "velocity": 0.6299212598425197,
          "duration": 0.14814800000000616
        },
        {
          "name": "E2",
          "midi": 40,
          "time": 95.92583000000008,
          "velocity": 0.6299212598425197,
          "duration": 0.14814800000000616
        },
        {
          "name": "C2",
          "midi": 36,
          "time": 96.11101500000008,
          "velocity": 0.6299212598425197,
          "duration": 0.14814800000000616
        },
        {
          "name": "B1",
          "midi": 35,
          "time": 96.11101500000008,
          "velocity": 0.6299212598425197,
          "duration": 0.14814800000000616
        },
        {
          "name": "B1",
          "midi": 35,
          "time": 96.48138500000009,
          "velocity": 0.6299212598425197,
          "duration": 0.14814800000000616
        },
        {
          "name": "C2",
          "midi": 36,
          "time": 96.48138500000009,
          "velocity": 0.6299212598425197,
          "duration": 0.14814800000000616
        },
        {
          "name": "E2",
          "midi": 40,
          "time": 96.66657000000009,
          "velocity": 0.6299212598425197,
          "duration": 0.14814800000000616
        },
        {
          "name": "D2",
          "midi": 38,
          "time": 96.66657000000009,
          "velocity": 0.6299212598425197,
          "duration": 0.14814800000000616
        },
        {
          "name": "E2",
          "midi": 40,
          "time": 96.8517550000001,
          "velocity": 0.6299212598425197,
          "duration": 0.14814800000000616
        },
        {
          "name": "D2",
          "midi": 38,
          "time": 96.8517550000001,
          "velocity": 0.6299212598425197,
          "duration": 0.14814800000000616
        },
        {
          "name": "E2",
          "midi": 40,
          "time": 97.0369400000001,
          "velocity": 0.6299212598425197,
          "duration": 0.2962959999999981
        },
        {
          "name": "D2",
          "midi": 38,
          "time": 97.0369400000001,
          "velocity": 0.6299212598425197,
          "duration": 0.2962959999999981
        },
        {
          "name": "D2",
          "midi": 38,
          "time": 97.4073100000001,
          "velocity": 0.6299212598425197,
          "duration": 0.14814800000000616
        },
        {
          "name": "E2",
          "midi": 40,
          "time": 97.4073100000001,
          "velocity": 0.6299212598425197,
          "duration": 0.14814800000000616
        },
        {
          "name": "E2",
          "midi": 40,
          "time": 97.5924950000001,
          "velocity": 0.6299212598425197,
          "duration": 0.14814800000000616
        },
        {
          "name": "D2",
          "midi": 38,
          "time": 97.5924950000001,
          "velocity": 0.6299212598425197,
          "duration": 0.14814800000000616
        },
        {
          "name": "C2",
          "midi": 36,
          "time": 97.96286500000011,
          "velocity": 0.6299212598425197,
          "duration": 0.14814800000000616
        },
        {
          "name": "B1",
          "midi": 35,
          "time": 97.96286500000011,
          "velocity": 0.6299212598425197,
          "duration": 0.14814800000000616
        },
        {
          "name": "D2",
          "midi": 38,
          "time": 98.14805000000011,
          "velocity": 0.6299212598425197,
          "duration": 0.14814800000000616
        },
        {
          "name": "E2",
          "midi": 40,
          "time": 98.14805000000011,
          "velocity": 0.6299212598425197,
          "duration": 0.14814800000000616
        },
        {
          "name": "B1",
          "midi": 35,
          "time": 98.51842000000012,
          "velocity": 0.6299212598425197,
          "duration": 0.14814800000000616
        },
        {
          "name": "C2",
          "midi": 36,
          "time": 98.51842000000012,
          "velocity": 0.6299212598425197,
          "duration": 0.14814800000000616
        },
        {
          "name": "C2",
          "midi": 36,
          "time": 98.70360500000012,
          "velocity": 0.6299212598425197,
          "duration": 0.14814800000000616
        },
        {
          "name": "B1",
          "midi": 35,
          "time": 98.70360500000012,
          "velocity": 0.6299212598425197,
          "duration": 0.14814800000000616
        },
        {
          "name": "D2",
          "midi": 38,
          "time": 98.88879000000013,
          "velocity": 0.6299212598425197,
          "duration": 0.14814800000000616
        },
        {
          "name": "E2",
          "midi": 40,
          "time": 98.88879000000013,
          "velocity": 0.6299212598425197,
          "duration": 0.14814800000000616
        },
        {
          "name": "C2",
          "midi": 36,
          "time": 99.07397500000013,
          "velocity": 0.6299212598425197,
          "duration": 0.14814800000000616
        },
        {
          "name": "B1",
          "midi": 35,
          "time": 99.07397500000013,
          "velocity": 0.6299212598425197,
          "duration": 0.14814800000000616
        },
        {
          "name": "C2",
          "midi": 36,
          "time": 99.44434500000014,
          "velocity": 0.6299212598425197,
          "duration": 0.14814800000000616
        },
        {
          "name": "B1",
          "midi": 35,
          "time": 99.44434500000014,
          "velocity": 0.6299212598425197,
          "duration": 0.14814800000000616
        },
        {
          "name": "E2",
          "midi": 40,
          "time": 99.62953000000014,
          "velocity": 0.6299212598425197,
          "duration": 0.14814800000000616
        },
        {
          "name": "D2",
          "midi": 38,
          "time": 99.62953000000014,
          "velocity": 0.6299212598425197,
          "duration": 0.14814800000000616
        },
        {
          "name": "D2",
          "midi": 38,
          "time": 99.81471500000015,
          "velocity": 0.6299212598425197,
          "duration": 0.14814800000000616
        },
        {
          "name": "E2",
          "midi": 40,
          "time": 99.81471500000015,
          "velocity": 0.6299212598425197,
          "duration": 0.14814800000000616
        },
        {
          "name": "D2",
          "midi": 38,
          "time": 99.99990000000015,
          "velocity": 0.6299212598425197,
          "duration": 0.2962959999999981
        },
        {
          "name": "E2",
          "midi": 40,
          "time": 99.99990000000015,
          "velocity": 0.6299212598425197,
          "duration": 0.2962959999999981
        },
        {
          "name": "D2",
          "midi": 38,
          "time": 100.37027000000015,
          "velocity": 0.6299212598425197,
          "duration": 0.34722187500000246
        },
        {
          "name": "E2",
          "midi": 40,
          "time": 100.37027000000015,
          "velocity": 0.6299212598425197,
          "duration": 0.34722187500000246
        },
        {
          "name": "B1",
          "midi": 35,
          "time": 100.74064000000016,
          "velocity": 0.6299212598425197,
          "duration": 0.14814800000000616
        },
        {
          "name": "C2",
          "midi": 36,
          "time": 100.74064000000016,
          "velocity": 0.6299212598425197,
          "duration": 0.14814800000000616
        },
        {
          "name": "B1",
          "midi": 35,
          "time": 100.92582500000016,
          "velocity": 0.6299212598425197,
          "duration": 0.14814800000000616
        },
        {
          "name": "C2",
          "midi": 36,
          "time": 100.92582500000016,
          "velocity": 0.6299212598425197,
          "duration": 0.14814800000000616
        },
        {
          "name": "E2",
          "midi": 40,
          "time": 101.11101000000016,
          "velocity": 0.6299212598425197,
          "duration": 0.14814800000000616
        },
        {
          "name": "D2",
          "midi": 38,
          "time": 101.11101000000016,
          "velocity": 0.6299212598425197,
          "duration": 0.14814800000000616
        },
        {
          "name": "B1",
          "midi": 35,
          "time": 101.48138000000017,
          "velocity": 0.6299212598425197,
          "duration": 0.14814800000000616
        },
        {
          "name": "C2",
          "midi": 36,
          "time": 101.48138000000017,
          "velocity": 0.6299212598425197,
          "duration": 0.14814800000000616
        },
        {
          "name": "B1",
          "midi": 35,
          "time": 101.66656500000018,
          "velocity": 0.6299212598425197,
          "duration": 0.14814800000000616
        },
        {
          "name": "B1",
          "midi": 35,
          "time": 101.66656500000018,
          "velocity": 0.6299212598425197,
          "duration": 0.14814800000000616
        },
        {
          "name": "C2",
          "midi": 36,
          "time": 101.66656500000018,
          "velocity": 0.6299212598425197,
          "duration": 0.14814800000000616
        },
        {
          "name": "E2",
          "midi": 40,
          "time": 101.85175000000018,
          "velocity": 0.6299212598425197,
          "duration": 0.14814800000000616
        },
        {
          "name": "D2",
          "midi": 38,
          "time": 101.85175000000018,
          "velocity": 0.6299212598425197,
          "duration": 0.14814800000000616
        },
        {
          "name": "B1",
          "midi": 35,
          "time": 102.03693500000018,
          "velocity": 0.6299212598425197,
          "duration": 0.14814800000000616
        },
        {
          "name": "C2",
          "midi": 36,
          "time": 102.03693500000018,
          "velocity": 0.6299212598425197,
          "duration": 0.14814800000000616
        },
        {
          "name": "C2",
          "midi": 36,
          "time": 102.40730500000019,
          "velocity": 0.6299212598425197,
          "duration": 0.14814800000000616
        },
        {
          "name": "B1",
          "midi": 35,
          "time": 102.40730500000019,
          "velocity": 0.6299212598425197,
          "duration": 0.14814800000000616
        },
        {
          "name": "D2",
          "midi": 38,
          "time": 102.5924900000002,
          "velocity": 0.6299212598425197,
          "duration": 0.14814800000000616
        },
        {
          "name": "E2",
          "midi": 40,
          "time": 102.5924900000002,
          "velocity": 0.6299212598425197,
          "duration": 0.14814800000000616
        },
        {
          "name": "D2",
          "midi": 38,
          "time": 102.7776750000002,
          "velocity": 0.6299212598425197,
          "duration": 0.14814800000000616
        },
        {
          "name": "E2",
          "midi": 40,
          "time": 102.7776750000002,
          "velocity": 0.6299212598425197,
          "duration": 0.14814800000000616
        },
        {
          "name": "E2",
          "midi": 40,
          "time": 102.9628600000002,
          "velocity": 0.6299212598425197,
          "duration": 0.2962959999999981
        },
        {
          "name": "D2",
          "midi": 38,
          "time": 102.9628600000002,
          "velocity": 0.6299212598425197,
          "duration": 0.2962959999999981
        },
        {
          "name": "E2",
          "midi": 40,
          "time": 103.3332300000002,
          "velocity": 0.6299212598425197,
          "duration": 0.14814800000000616
        },
        {
          "name": "D2",
          "midi": 38,
          "time": 103.3332300000002,
          "velocity": 0.6299212598425197,
          "duration": 0.14814800000000616
        },
        {
          "name": "E2",
          "midi": 40,
          "time": 103.5184150000002,
          "velocity": 0.6299212598425197,
          "duration": 0.14814800000000616
        },
        {
          "name": "D2",
          "midi": 38,
          "time": 103.5184150000002,
          "velocity": 0.6299212598425197,
          "duration": 0.14814800000000616
        },
        {
          "name": "B1",
          "midi": 35,
          "time": 103.88878500000021,
          "velocity": 0.6299212598425197,
          "duration": 0.14814800000000616
        },
        {
          "name": "C2",
          "midi": 36,
          "time": 103.88878500000021,
          "velocity": 0.6299212598425197,
          "duration": 0.14814800000000616
        },
        {
          "name": "D2",
          "midi": 38,
          "time": 104.07397000000022,
          "velocity": 0.6299212598425197,
          "duration": 0.14814800000000616
        },
        {
          "name": "E2",
          "midi": 40,
          "time": 104.07397000000022,
          "velocity": 0.6299212598425197,
          "duration": 0.14814800000000616
        },
        {
          "name": "B1",
          "midi": 35,
          "time": 104.44434000000022,
          "velocity": 0.6299212598425197,
          "duration": 0.14814800000000616
        },
        {
          "name": "C2",
          "midi": 36,
          "time": 104.44434000000022,
          "velocity": 0.6299212598425197,
          "duration": 0.14814800000000616
        },
        {
          "name": "C2",
          "midi": 36,
          "time": 104.62952500000023,
          "velocity": 0.6299212598425197,
          "duration": 0.14814800000000616
        },
        {
          "name": "B1",
          "midi": 35,
          "time": 104.62952500000023,
          "velocity": 0.6299212598425197,
          "duration": 0.14814800000000616
        },
        {
          "name": "E2",
          "midi": 40,
          "time": 104.81471000000023,
          "velocity": 0.6299212598425197,
          "duration": 0.14814800000000616
        },
        {
          "name": "D2",
          "midi": 38,
          "time": 104.81471000000023,
          "velocity": 0.6299212598425197,
          "duration": 0.14814800000000616
        },
        {
          "name": "B1",
          "midi": 35,
          "time": 104.99989500000024,
          "velocity": 0.6299212598425197,
          "duration": 0.14814800000000616
        },
        {
          "name": "C2",
          "midi": 36,
          "time": 104.99989500000024,
          "velocity": 0.6299212598425197,
          "duration": 0.14814800000000616
        },
        {
          "name": "B1",
          "midi": 35,
          "time": 105.37026500000024,
          "velocity": 0.6299212598425197,
          "duration": 0.14814800000000616
        },
        {
          "name": "C2",
          "midi": 36,
          "time": 105.37026500000024,
          "velocity": 0.6299212598425197,
          "duration": 0.14814800000000616
        },
        {
          "name": "E2",
          "midi": 40,
          "time": 105.55545000000025,
          "velocity": 0.6299212598425197,
          "duration": 0.14814800000000616
        },
        {
          "name": "D2",
          "midi": 38,
          "time": 105.55545000000025,
          "velocity": 0.6299212598425197,
          "duration": 0.14814800000000616
        },
        {
          "name": "E2",
          "midi": 40,
          "time": 105.74063500000025,
          "velocity": 0.6299212598425197,
          "duration": 0.14814800000000616
        },
        {
          "name": "D2",
          "midi": 38,
          "time": 105.74063500000025,
          "velocity": 0.6299212598425197,
          "duration": 0.14814800000000616
        },
        {
          "name": "E2",
          "midi": 40,
          "time": 105.92582000000026,
          "velocity": 0.6299212598425197,
          "duration": 0.2962959999999981
        },
        {
          "name": "D2",
          "midi": 38,
          "time": 105.92582000000026,
          "velocity": 0.6299212598425197,
          "duration": 0.2962959999999981
        },
        {
          "name": "E2",
          "midi": 40,
          "time": 106.29619000000025,
          "velocity": 0.6299212598425197,
          "duration": 0.34722187500000246
        },
        {
          "name": "D2",
          "midi": 38,
          "time": 106.29619000000025,
          "velocity": 0.6299212598425197,
          "duration": 0.34722187500000246
        },
        {
          "name": "B1",
          "midi": 35,
          "time": 106.66656000000026,
          "velocity": 0.6299212598425197,
          "duration": 0.14814800000000616
        },
        {
          "name": "C2",
          "midi": 36,
          "time": 106.66656000000026,
          "velocity": 0.6299212598425197,
          "duration": 0.14814800000000616
        },
        {
          "name": "B1",
          "midi": 35,
          "time": 106.85174500000026,
          "velocity": 0.6299212598425197,
          "duration": 0.14814800000000616
        },
        {
          "name": "C2",
          "midi": 36,
          "time": 106.85174500000026,
          "velocity": 0.6299212598425197,
          "duration": 0.14814800000000616
        },
        {
          "name": "E2",
          "midi": 40,
          "time": 107.03693000000027,
          "velocity": 0.6299212598425197,
          "duration": 0.14814800000000616
        },
        {
          "name": "D2",
          "midi": 38,
          "time": 107.03693000000027,
          "velocity": 0.6299212598425197,
          "duration": 0.14814800000000616
        },
        {
          "name": "B1",
          "midi": 35,
          "time": 107.40730000000028,
          "velocity": 0.6299212598425197,
          "duration": 0.14814800000000616
        },
        {
          "name": "C2",
          "midi": 36,
          "time": 107.40730000000028,
          "velocity": 0.6299212598425197,
          "duration": 0.14814800000000616
        },
        {
          "name": "B1",
          "midi": 35,
          "time": 107.59248500000028,
          "velocity": 0.6299212598425197,
          "duration": 0.14814800000000616
        },
        {
          "name": "C2",
          "midi": 36,
          "time": 107.59248500000028,
          "velocity": 0.6299212598425197,
          "duration": 0.14814800000000616
        },
        {
          "name": "B1",
          "midi": 35,
          "time": 107.59248500000028,
          "velocity": 0.6299212598425197,
          "duration": 0.14814800000000616
        },
        {
          "name": "E2",
          "midi": 40,
          "time": 107.77767000000028,
          "velocity": 0.6299212598425197,
          "duration": 0.14814800000000616
        },
        {
          "name": "D2",
          "midi": 38,
          "time": 107.77767000000028,
          "velocity": 0.6299212598425197,
          "duration": 0.14814800000000616
        },
        {
          "name": "B1",
          "midi": 35,
          "time": 107.96285500000029,
          "velocity": 0.6299212598425197,
          "duration": 0.14814800000000616
        },
        {
          "name": "C2",
          "midi": 36,
          "time": 107.96285500000029,
          "velocity": 0.6299212598425197,
          "duration": 0.14814800000000616
        },
        {
          "name": "C2",
          "midi": 36,
          "time": 108.3332250000003,
          "velocity": 0.6299212598425197,
          "duration": 0.14814800000000616
        },
        {
          "name": "B1",
          "midi": 35,
          "time": 108.3332250000003,
          "velocity": 0.6299212598425197,
          "duration": 0.14814800000000616
        },
        {
          "name": "D2",
          "midi": 38,
          "time": 108.5184100000003,
          "velocity": 0.6299212598425197,
          "duration": 0.14814800000000616
        },
        {
          "name": "E2",
          "midi": 40,
          "time": 108.5184100000003,
          "velocity": 0.6299212598425197,
          "duration": 0.14814800000000616
        },
        {
          "name": "D2",
          "midi": 38,
          "time": 108.7035950000003,
          "velocity": 0.6299212598425197,
          "duration": 0.14814800000000616
        },
        {
          "name": "E2",
          "midi": 40,
          "time": 108.7035950000003,
          "velocity": 0.6299212598425197,
          "duration": 0.14814800000000616
        },
        {
          "name": "D2",
          "midi": 38,
          "time": 108.88878000000031,
          "velocity": 0.6299212598425197,
          "duration": 0.2962959999999981
        },
        {
          "name": "E2",
          "midi": 40,
          "time": 108.88878000000031,
          "velocity": 0.6299212598425197,
          "duration": 0.2962959999999981
        },
        {
          "name": "E2",
          "midi": 40,
          "time": 109.2591500000003,
          "velocity": 0.6299212598425197,
          "duration": 0.14814800000000616
        },
        {
          "name": "D2",
          "midi": 38,
          "time": 109.2591500000003,
          "velocity": 0.6299212598425197,
          "duration": 0.14814800000000616
        },
        {
          "name": "E2",
          "midi": 40,
          "time": 109.44433500000031,
          "velocity": 0.6299212598425197,
          "duration": 0.14814800000000616
        },
        {
          "name": "D2",
          "midi": 38,
          "time": 109.44433500000031,
          "velocity": 0.6299212598425197,
          "duration": 0.14814800000000616
        },
        {
          "name": "B1",
          "midi": 35,
          "time": 109.81470500000032,
          "velocity": 0.6299212598425197,
          "duration": 0.14814800000000616
        },
        {
          "name": "C2",
          "midi": 36,
          "time": 109.81470500000032,
          "velocity": 0.6299212598425197,
          "duration": 0.14814800000000616
        },
        {
          "name": "D2",
          "midi": 38,
          "time": 109.99989000000032,
          "velocity": 0.6299212598425197,
          "duration": 0.14814800000000616
        },
        {
          "name": "E2",
          "midi": 40,
          "time": 109.99989000000032,
          "velocity": 0.6299212598425197,
          "duration": 0.14814800000000616
        },
        {
          "name": "B1",
          "midi": 35,
          "time": 110.37026000000033,
          "velocity": 0.6299212598425197,
          "duration": 0.14814800000000616
        },
        {
          "name": "C2",
          "midi": 36,
          "time": 110.37026000000033,
          "velocity": 0.6299212598425197,
          "duration": 0.14814800000000616
        },
        {
          "name": "C2",
          "midi": 36,
          "time": 110.55544500000033,
          "velocity": 0.6299212598425197,
          "duration": 0.14814800000000616
        },
        {
          "name": "B1",
          "midi": 35,
          "time": 110.55544500000033,
          "velocity": 0.6299212598425197,
          "duration": 0.14814800000000616
        },
        {
          "name": "E2",
          "midi": 40,
          "time": 110.74063000000034,
          "velocity": 0.6299212598425197,
          "duration": 0.14814800000000616
        },
        {
          "name": "D2",
          "midi": 38,
          "time": 110.74063000000034,
          "velocity": 0.6299212598425197,
          "duration": 0.14814800000000616
        },
        {
          "name": "B1",
          "midi": 35,
          "time": 110.92581500000034,
          "velocity": 0.6299212598425197,
          "duration": 0.14814800000000616
        },
        {
          "name": "C2",
          "midi": 36,
          "time": 110.92581500000034,
          "velocity": 0.6299212598425197,
          "duration": 0.14814800000000616
        },
        {
          "name": "B1",
          "midi": 35,
          "time": 111.29618500000035,
          "velocity": 0.6299212598425197,
          "duration": 0.14814800000000616
        },
        {
          "name": "C2",
          "midi": 36,
          "time": 111.29618500000035,
          "velocity": 0.6299212598425197,
          "duration": 0.14814800000000616
        },
        {
          "name": "D2",
          "midi": 38,
          "time": 111.48137000000035,
          "velocity": 0.6299212598425197,
          "duration": 0.14814800000000616
        },
        {
          "name": "E2",
          "midi": 40,
          "time": 111.48137000000035,
          "velocity": 0.6299212598425197,
          "duration": 0.14814800000000616
        },
        {
          "name": "D2",
          "midi": 38,
          "time": 111.66655500000036,
          "velocity": 0.6299212598425197,
          "duration": 0.14814800000000616
        },
        {
          "name": "E2",
          "midi": 40,
          "time": 111.66655500000036,
          "velocity": 0.6299212598425197,
          "duration": 0.14814800000000616
        },
        {
          "name": "D2",
          "midi": 38,
          "time": 111.85174000000036,
          "velocity": 0.6299212598425197,
          "duration": 0.2962959999999981
        },
        {
          "name": "E2",
          "midi": 40,
          "time": 111.85174000000036,
          "velocity": 0.6299212598425197,
          "duration": 0.2962959999999981
        },
        {
          "name": "D2",
          "midi": 38,
          "time": 112.22211000000036,
          "velocity": 0.6299212598425197,
          "duration": 0.34722187500000246
        },
        {
          "name": "E2",
          "midi": 40,
          "time": 112.22211000000036,
          "velocity": 0.6299212598425197,
          "duration": 0.34722187500000246
        }
      ],
      "controlChanges": {
        "7": [
          {
            "number": 7,
            "time": 0,
            "value": 1
          }
        ]
      },
      "id": 11,
      "channelNumber": 9,
      "isPercussion": true
    },
    {
      "startTime": 0,
      "duration": 112.56933187500039,
      "length": 1098,
      "notes": [
        {
          "name": "B1",
          "midi": 35,
          "time": 0,
          "velocity": 0.6299212598425197,
          "duration": 0.14814800000000003
        },
        {
          "name": "C2",
          "midi": 36,
          "time": 0,
          "velocity": 0.6299212598425197,
          "duration": 0.14814800000000003
        },
        {
          "name": "B1",
          "midi": 35,
          "time": 0.18518500000000004,
          "velocity": 0.6299212598425197,
          "duration": 0.14814800000000006
        },
        {
          "name": "C2",
          "midi": 36,
          "time": 0.18518500000000004,
          "velocity": 0.6299212598425197,
          "duration": 0.14814800000000006
        },
        {
          "name": "E2",
          "midi": 40,
          "time": 0.3703700000000001,
          "velocity": 0.6299212598425197,
          "duration": 0.14814800000000006
        },
        {
          "name": "D2",
          "midi": 38,
          "time": 0.3703700000000001,
          "velocity": 0.6299212598425197,
          "duration": 0.14814800000000006
        },
        {
          "name": "B1",
          "midi": 35,
          "time": 0.7407400000000002,
          "velocity": 0.6299212598425197,
          "duration": 0.14814800000000006
        },
        {
          "name": "C2",
          "midi": 36,
          "time": 0.7407400000000002,
          "velocity": 0.6299212598425197,
          "duration": 0.14814800000000006
        },
        {
          "name": "B1",
          "midi": 35,
          "time": 0.9259250000000002,
          "velocity": 0.6299212598425197,
          "duration": 0.14814800000000006
        },
        {
          "name": "B1",
          "midi": 35,
          "time": 0.9259250000000002,
          "velocity": 0.6299212598425197,
          "duration": 0.14814800000000006
        },
        {
          "name": "C2",
          "midi": 36,
          "time": 0.9259250000000002,
          "velocity": 0.6299212598425197,
          "duration": 0.14814800000000006
        },
        {
          "name": "D2",
          "midi": 38,
          "time": 1.1111100000000003,
          "velocity": 0.6299212598425197,
          "duration": 0.14814799999999995
        },
        {
          "name": "E2",
          "midi": 40,
          "time": 1.1111100000000003,
          "velocity": 0.6299212598425197,
          "duration": 0.14814799999999995
        },
        {
          "name": "B1",
          "midi": 35,
          "time": 1.2962950000000002,
          "velocity": 0.6299212598425197,
          "duration": 0.14814799999999995
        },
        {
          "name": "C2",
          "midi": 36,
          "time": 1.2962950000000002,
          "velocity": 0.6299212598425197,
          "duration": 0.14814799999999995
        },
        {
          "name": "C2",
          "midi": 36,
          "time": 1.666665,
          "velocity": 0.6299212598425197,
          "duration": 0.14814799999999995
        },
        {
          "name": "B1",
          "midi": 35,
          "time": 1.666665,
          "velocity": 0.6299212598425197,
          "duration": 0.14814799999999995
        },
        {
          "name": "E2",
          "midi": 40,
          "time": 1.85185,
          "velocity": 0.6299212598425197,
          "duration": 0.14814799999999995
        },
        {
          "name": "D2",
          "midi": 38,
          "time": 1.85185,
          "velocity": 0.6299212598425197,
          "duration": 0.14814799999999995
        },
        {
          "name": "D2",
          "midi": 38,
          "time": 2.037035,
          "velocity": 0.6299212598425197,
          "duration": 0.14814799999999995
        },
        {
          "name": "E2",
          "midi": 40,
          "time": 2.037035,
          "velocity": 0.6299212598425197,
          "duration": 0.14814799999999995
        },
        {
          "name": "A4",
          "midi": 69,
          "time": 2.22222,
          "velocity": 0.6299212598425197,
          "duration": 0.2962959999999999
        },
        {
          "name": "A3",
          "midi": 57,
          "time": 2.22222,
          "velocity": 0.6299212598425197,
          "duration": 0.2962959999999999
        },
        {
          "name": "D2",
          "midi": 38,
          "time": 2.22222,
          "velocity": 0.6299212598425197,
          "duration": 0.2962959999999999
        },
        {
          "name": "E2",
          "midi": 40,
          "time": 2.22222,
          "velocity": 0.6299212598425197,
          "duration": 0.2962959999999999
        },
        {
          "name": "D2",
          "midi": 38,
          "time": 2.59259,
          "velocity": 0.6299212598425197,
          "duration": 0.14814799999999995
        },
        {
          "name": "A3",
          "midi": 57,
          "time": 2.59259,
          "velocity": 0.6299212598425197,
          "duration": 0.14814799999999995
        },
        {
          "name": "A4",
          "midi": 69,
          "time": 2.59259,
          "velocity": 0.6299212598425197,
          "duration": 0.14814799999999995
        },
        {
          "name": "E2",
          "midi": 40,
          "time": 2.59259,
          "velocity": 0.6299212598425197,
          "duration": 0.14814799999999995
        },
        {
          "name": "A4",
          "midi": 69,
          "time": 2.777775,
          "velocity": 0.6299212598425197,
          "duration": 0.14814799999999995
        },
        {
          "name": "D2",
          "midi": 38,
          "time": 2.777775,
          "velocity": 0.6299212598425197,
          "duration": 0.14814799999999995
        },
        {
          "name": "A3",
          "midi": 57,
          "time": 2.777775,
          "velocity": 0.6299212598425197,
          "duration": 0.14814799999999995
        },
        {
          "name": "E2",
          "midi": 40,
          "time": 2.777775,
          "velocity": 0.6299212598425197,
          "duration": 0.14814799999999995
        },
        {
          "name": "B1",
          "midi": 35,
          "time": 3.148145,
          "velocity": 0.6299212598425197,
          "duration": 0.14814799999999995
        },
        {
          "name": "C2",
          "midi": 36,
          "time": 3.148145,
          "velocity": 0.6299212598425197,
          "duration": 0.14814799999999995
        },
        {
          "name": "D2",
          "midi": 38,
          "time": 3.33333,
          "velocity": 0.6299212598425197,
          "duration": 0.14814799999999995
        },
        {
          "name": "E2",
          "midi": 40,
          "time": 3.33333,
          "velocity": 0.6299212598425197,
          "duration": 0.14814799999999995
        },
        {
          "name": "C2",
          "midi": 36,
          "time": 3.7037,
          "velocity": 0.6299212598425197,
          "duration": 0.14814799999999995
        },
        {
          "name": "B1",
          "midi": 35,
          "time": 3.7037,
          "velocity": 0.6299212598425197,
          "duration": 0.14814799999999995
        },
        {
          "name": "C2",
          "midi": 36,
          "time": 3.888885,
          "velocity": 0.6299212598425197,
          "duration": 0.14814799999999995
        },
        {
          "name": "B1",
          "midi": 35,
          "time": 3.888885,
          "velocity": 0.6299212598425197,
          "duration": 0.14814799999999995
        },
        {
          "name": "E2",
          "midi": 40,
          "time": 4.07407,
          "velocity": 0.6299212598425197,
          "duration": 0.14814799999999995
        },
        {
          "name": "D2",
          "midi": 38,
          "time": 4.07407,
          "velocity": 0.6299212598425197,
          "duration": 0.14814799999999995
        },
        {
          "name": "B1",
          "midi": 35,
          "time": 4.259255,
          "velocity": 0.6299212598425197,
          "duration": 0.14814799999999995
        },
        {
          "name": "C2",
          "midi": 36,
          "time": 4.259255,
          "velocity": 0.6299212598425197,
          "duration": 0.14814799999999995
        },
        {
          "name": "B1",
          "midi": 35,
          "time": 4.629625,
          "velocity": 0.6299212598425197,
          "duration": 0.14814799999999995
        },
        {
          "name": "C2",
          "midi": 36,
          "time": 4.629625,
          "velocity": 0.6299212598425197,
          "duration": 0.14814799999999995
        },
        {
          "name": "D2",
          "midi": 38,
          "time": 4.81481,
          "velocity": 0.6299212598425197,
          "duration": 0.14814799999999995
        },
        {
          "name": "E2",
          "midi": 40,
          "time": 4.81481,
          "velocity": 0.6299212598425197,
          "duration": 0.14814799999999995
        },
        {
          "name": "D2",
          "midi": 38,
          "time": 4.999994999999999,
          "velocity": 0.6299212598425197,
          "duration": 0.14814799999999995
        },
        {
          "name": "E2",
          "midi": 40,
          "time": 4.999994999999999,
          "velocity": 0.6299212598425197,
          "duration": 0.14814799999999995
        },
        {
          "name": "A3",
          "midi": 57,
          "time": 5.185179999999999,
          "velocity": 0.6299212598425197,
          "duration": 0.2962959999999999
        },
        {
          "name": "A4",
          "midi": 69,
          "time": 5.185179999999999,
          "velocity": 0.6299212598425197,
          "duration": 0.2962959999999999
        },
        {
          "name": "D2",
          "midi": 38,
          "time": 5.185179999999999,
          "velocity": 0.6299212598425197,
          "duration": 0.2962959999999999
        },
        {
          "name": "E2",
          "midi": 40,
          "time": 5.185179999999999,
          "velocity": 0.6299212598425197,
          "duration": 0.2962959999999999
        },
        {
          "name": "A3",
          "midi": 57,
          "time": 5.555549999999999,
          "velocity": 0.6299212598425197,
          "duration": 0.3472218749999998
        },
        {
          "name": "D2",
          "midi": 38,
          "time": 5.555549999999999,
          "velocity": 0.6299212598425197,
          "duration": 0.3472218749999998
        },
        {
          "name": "E2",
          "midi": 40,
          "time": 5.555549999999999,
          "velocity": 0.6299212598425197,
          "duration": 0.3472218749999998
        },
        {
          "name": "A4",
          "midi": 69,
          "time": 5.555549999999999,
          "velocity": 0.6299212598425197,
          "duration": 0.3472218749999998
        },
        {
          "name": "B1",
          "midi": 35,
          "time": 5.925919999999999,
          "velocity": 0.6299212598425197,
          "duration": 0.14814799999999995
        },
        {
          "name": "C2",
          "midi": 36,
          "time": 5.925919999999999,
          "velocity": 0.6299212598425197,
          "duration": 0.14814799999999995
        },
        {
          "name": "C2",
          "midi": 36,
          "time": 6.1111049999999985,
          "velocity": 0.6299212598425197,
          "duration": 0.14814799999999995
        },
        {
          "name": "B1",
          "midi": 35,
          "time": 6.1111049999999985,
          "velocity": 0.6299212598425197,
          "duration": 0.14814799999999995
        },
        {
          "name": "E2",
          "midi": 40,
          "time": 6.296289999999998,
          "velocity": 0.6299212598425197,
          "duration": 0.14814799999999995
        },
        {
          "name": "D2",
          "midi": 38,
          "time": 6.296289999999998,
          "velocity": 0.6299212598425197,
          "duration": 0.14814799999999995
        },
        {
          "name": "C2",
          "midi": 36,
          "time": 6.6666599999999985,
          "velocity": 0.6299212598425197,
          "duration": 0.14814799999999995
        },
        {
          "name": "B1",
          "midi": 35,
          "time": 6.6666599999999985,
          "velocity": 0.6299212598425197,
          "duration": 0.14814799999999995
        },
        {
          "name": "B1",
          "midi": 35,
          "time": 6.851844999999998,
          "velocity": 0.6299212598425197,
          "duration": 0.14814799999999995
        },
        {
          "name": "C2",
          "midi": 36,
          "time": 6.851844999999998,
          "velocity": 0.6299212598425197,
          "duration": 0.14814799999999995
        },
        {
          "name": "B1",
          "midi": 35,
          "time": 6.851844999999998,
          "velocity": 0.6299212598425197,
          "duration": 0.14814799999999995
        },
        {
          "name": "D2",
          "midi": 38,
          "time": 7.037029999999998,
          "velocity": 0.6299212598425197,
          "duration": 0.14814799999999995
        },
        {
          "name": "E2",
          "midi": 40,
          "time": 7.037029999999998,
          "velocity": 0.6299212598425197,
          "duration": 0.14814799999999995
        },
        {
          "name": "B1",
          "midi": 35,
          "time": 7.222214999999998,
          "velocity": 0.6299212598425197,
          "duration": 0.14814799999999995
        },
        {
          "name": "C2",
          "midi": 36,
          "time": 7.222214999999998,
          "velocity": 0.6299212598425197,
          "duration": 0.14814799999999995
        },
        {
          "name": "B1",
          "midi": 35,
          "time": 7.592584999999998,
          "velocity": 0.6299212598425197,
          "duration": 0.14814799999999995
        },
        {
          "name": "C2",
          "midi": 36,
          "time": 7.592584999999998,
          "velocity": 0.6299212598425197,
          "duration": 0.14814799999999995
        },
        {
          "name": "E2",
          "midi": 40,
          "time": 7.777769999999998,
          "velocity": 0.6299212598425197,
          "duration": 0.14814799999999995
        },
        {
          "name": "D2",
          "midi": 38,
          "time": 7.777769999999998,
          "velocity": 0.6299212598425197,
          "duration": 0.14814799999999995
        },
        {
          "name": "E2",
          "midi": 40,
          "time": 7.962954999999997,
          "velocity": 0.6299212598425197,
          "duration": 0.14814800000000083
        },
        {
          "name": "D2",
          "midi": 38,
          "time": 7.962954999999997,
          "velocity": 0.6299212598425197,
          "duration": 0.14814800000000083
        },
        {
          "name": "E2",
          "midi": 40,
          "time": 8.148139999999998,
          "velocity": 0.6299212598425197,
          "duration": 0.2962959999999999
        },
        {
          "name": "A3",
          "midi": 57,
          "time": 8.148139999999998,
          "velocity": 0.6299212598425197,
          "duration": 0.2962959999999999
        },
        {
          "name": "D2",
          "midi": 38,
          "time": 8.148139999999998,
          "velocity": 0.6299212598425197,
          "duration": 0.2962959999999999
        },
        {
          "name": "A4",
          "midi": 69,
          "time": 8.148139999999998,
          "velocity": 0.6299212598425197,
          "duration": 0.2962959999999999
        },
        {
          "name": "A3",
          "midi": 57,
          "time": 8.518509999999997,
          "velocity": 0.6299212598425197,
          "duration": 0.14814800000000083
        },
        {
          "name": "A4",
          "midi": 69,
          "time": 8.518509999999997,
          "velocity": 0.6299212598425197,
          "duration": 0.14814800000000083
        },
        {
          "name": "E2",
          "midi": 40,
          "time": 8.518509999999997,
          "velocity": 0.6299212598425197,
          "duration": 0.14814800000000083
        },
        {
          "name": "D2",
          "midi": 38,
          "time": 8.518509999999997,
          "velocity": 0.6299212598425197,
          "duration": 0.14814800000000083
        },
        {
          "name": "E2",
          "midi": 40,
          "time": 8.703694999999998,
          "velocity": 0.6299212598425197,
          "duration": 0.14814800000000083
        },
        {
          "name": "D2",
          "midi": 38,
          "time": 8.703694999999998,
          "velocity": 0.6299212598425197,
          "duration": 0.14814800000000083
        },
        {
          "name": "A3",
          "midi": 57,
          "time": 8.703694999999998,
          "velocity": 0.6299212598425197,
          "duration": 0.14814800000000083
        },
        {
          "name": "A4",
          "midi": 69,
          "time": 8.703694999999998,
          "velocity": 0.6299212598425197,
          "duration": 0.14814800000000083
        },
        {
          "name": "C2",
          "midi": 36,
          "time": 9.074065,
          "velocity": 0.6299212598425197,
          "duration": 0.14814800000000083
        },
        {
          "name": "B1",
          "midi": 35,
          "time": 9.074065,
          "velocity": 0.6299212598425197,
          "duration": 0.14814800000000083
        },
        {
          "name": "E2",
          "midi": 40,
          "time": 9.25925,
          "velocity": 0.6299212598425197,
          "duration": 0.14814800000000083
        },
        {
          "name": "D2",
          "midi": 38,
          "time": 9.25925,
          "velocity": 0.6299212598425197,
          "duration": 0.14814800000000083
        },
        {
          "name": "C2",
          "midi": 36,
          "time": 9.629620000000001,
          "velocity": 0.6299212598425197,
          "duration": 0.14814800000000083
        },
        {
          "name": "B1",
          "midi": 35,
          "time": 9.629620000000001,
          "velocity": 0.6299212598425197,
          "duration": 0.14814800000000083
        },
        {
          "name": "C2",
          "midi": 36,
          "time": 9.814805000000002,
          "velocity": 0.6299212598425197,
          "duration": 0.14814800000000083
        },
        {
          "name": "B1",
          "midi": 35,
          "time": 9.814805000000002,
          "velocity": 0.6299212598425197,
          "duration": 0.14814800000000083
        },
        {
          "name": "E2",
          "midi": 40,
          "time": 9.999990000000002,
          "velocity": 0.6299212598425197,
          "duration": 0.14814800000000083
        },
        {
          "name": "D2",
          "midi": 38,
          "time": 9.999990000000002,
          "velocity": 0.6299212598425197,
          "duration": 0.14814800000000083
        },
        {
          "name": "B1",
          "midi": 35,
          "time": 10.185175000000003,
          "velocity": 0.6299212598425197,
          "duration": 0.14814800000000083
        },
        {
          "name": "C2",
          "midi": 36,
          "time": 10.185175000000003,
          "velocity": 0.6299212598425197,
          "duration": 0.14814800000000083
        },
        {
          "name": "C2",
          "midi": 36,
          "time": 10.555545000000004,
          "velocity": 0.6299212598425197,
          "duration": 0.14814800000000083
        },
        {
          "name": "B1",
          "midi": 35,
          "time": 10.555545000000004,
          "velocity": 0.6299212598425197,
          "duration": 0.14814800000000083
        },
        {
          "name": "D2",
          "midi": 38,
          "time": 10.740730000000005,
          "velocity": 0.6299212598425197,
          "duration": 0.14814800000000083
        },
        {
          "name": "E2",
          "midi": 40,
          "time": 10.740730000000005,
          "velocity": 0.6299212598425197,
          "duration": 0.14814800000000083
        },
        {
          "name": "E2",
          "midi": 40,
          "time": 10.925915000000005,
          "velocity": 0.6299212598425197,
          "duration": 0.14814800000000083
        },
        {
          "name": "D2",
          "midi": 38,
          "time": 10.925915000000005,
          "velocity": 0.6299212598425197,
          "duration": 0.14814800000000083
        },
        {
          "name": "A3",
          "midi": 57,
          "time": 11.111100000000006,
          "velocity": 0.6299212598425197,
          "duration": 0.2962959999999999
        },
        {
          "name": "D2",
          "midi": 38,
          "time": 11.111100000000006,
          "velocity": 0.6299212598425197,
          "duration": 0.2962959999999999
        },
        {
          "name": "E2",
          "midi": 40,
          "time": 11.111100000000006,
          "velocity": 0.6299212598425197,
          "duration": 0.2962959999999999
        },
        {
          "name": "A4",
          "midi": 69,
          "time": 11.111100000000006,
          "velocity": 0.6299212598425197,
          "duration": 0.2962959999999999
        },
        {
          "name": "A4",
          "midi": 69,
          "time": 11.481470000000005,
          "velocity": 0.6299212598425197,
          "duration": 0.3472218750000007
        },
        {
          "name": "E2",
          "midi": 40,
          "time": 11.481470000000005,
          "velocity": 0.6299212598425197,
          "duration": 0.3472218750000007
        },
        {
          "name": "D2",
          "midi": 38,
          "time": 11.481470000000005,
          "velocity": 0.6299212598425197,
          "duration": 0.3472218750000007
        },
        {
          "name": "A3",
          "midi": 57,
          "time": 11.481470000000005,
          "velocity": 0.6299212598425197,
          "duration": 0.3472218750000007
        },
        {
          "name": "D3",
          "midi": 50,
          "time": 12.592580000000005,
          "velocity": 0.6299212598425197,
          "duration": 0.14814800000000083
        },
        {
          "name": "D3",
          "midi": 50,
          "time": 12.777765000000006,
          "velocity": 0.6299212598425197,
          "duration": 0.14814800000000083
        },
        {
          "name": "D3",
          "midi": 50,
          "time": 12.962950000000006,
          "velocity": 0.6299212598425197,
          "duration": 0.14814800000000083
        },
        {
          "name": "A3",
          "midi": 57,
          "time": 13.148135000000007,
          "velocity": 0.6299212598425197,
          "duration": 0.14814800000000083
        },
        {
          "name": "A4",
          "midi": 69,
          "time": 13.148135000000007,
          "velocity": 0.6299212598425197,
          "duration": 0.14814800000000083
        },
        {
          "name": "B2",
          "midi": 47,
          "time": 13.148135000000007,
          "velocity": 0.6299212598425197,
          "duration": 0.33333300000000143
        },
        {
          "name": "D3",
          "midi": 50,
          "time": 13.518505000000008,
          "velocity": 0.6299212598425197,
          "duration": 0.14814800000000083
        },
        {
          "name": "C3",
          "midi": 48,
          "time": 13.703690000000009,
          "velocity": 0.6299212598425197,
          "duration": 0.07407399999999953
        },
        {
          "name": "B2",
          "midi": 47,
          "time": 13.796282500000009,
          "velocity": 0.6299212598425197,
          "duration": 0.07407399999999953
        },
        {
          "name": "A4",
          "midi": 69,
          "time": 13.88887500000001,
          "velocity": 0.6299212598425197,
          "duration": 0.2962959999999999
        },
        {
          "name": "A2",
          "midi": 45,
          "time": 13.88887500000001,
          "velocity": 0.6299212598425197,
          "duration": 0.2962959999999999
        },
        {
          "name": "A3",
          "midi": 57,
          "time": 13.88887500000001,
          "velocity": 0.6299212598425197,
          "duration": 0.2962959999999999
        },
        {
          "name": "D2",
          "midi": 38,
          "time": 14.259245000000009,
          "velocity": 0.6299212598425197,
          "duration": 0.14814800000000083
        },
        {
          "name": "A4",
          "midi": 69,
          "time": 14.259245000000009,
          "velocity": 0.6299212598425197,
          "duration": 0.14814800000000083
        },
        {
          "name": "E2",
          "midi": 40,
          "time": 14.259245000000009,
          "velocity": 0.6299212598425197,
          "duration": 0.14814800000000083
        },
        {
          "name": "D2",
          "midi": 38,
          "time": 14.44443000000001,
          "velocity": 0.6299212598425197,
          "duration": 0.14814800000000083
        },
        {
          "name": "A4",
          "midi": 69,
          "time": 14.44443000000001,
          "velocity": 0.6299212598425197,
          "duration": 0.14814800000000083
        },
        {
          "name": "E2",
          "midi": 40,
          "time": 14.44443000000001,
          "velocity": 0.6299212598425197,
          "duration": 0.14814800000000083
        },
        {
          "name": "D2",
          "midi": 38,
          "time": 14.62961500000001,
          "velocity": 0.6299212598425197,
          "duration": 0.14814800000000083
        },
        {
          "name": "E2",
          "midi": 40,
          "time": 14.62961500000001,
          "velocity": 0.6299212598425197,
          "duration": 0.14814800000000083
        },
        {
          "name": "A4",
          "midi": 69,
          "time": 14.62961500000001,
          "velocity": 0.6299212598425197,
          "duration": 0.14814800000000083
        },
        {
          "name": "C2",
          "midi": 36,
          "time": 14.999985000000011,
          "velocity": 0.6299212598425197,
          "duration": 0.14814800000000083
        },
        {
          "name": "B1",
          "midi": 35,
          "time": 14.999985000000011,
          "velocity": 0.6299212598425197,
          "duration": 0.14814800000000083
        },
        {
          "name": "D2",
          "midi": 38,
          "time": 15.185170000000012,
          "velocity": 0.6299212598425197,
          "duration": 0.14814800000000083
        },
        {
          "name": "E2",
          "midi": 40,
          "time": 15.185170000000012,
          "velocity": 0.6299212598425197,
          "duration": 0.14814800000000083
        },
        {
          "name": "C2",
          "midi": 36,
          "time": 15.555540000000013,
          "velocity": 0.6299212598425197,
          "duration": 0.14814800000000083
        },
        {
          "name": "B1",
          "midi": 35,
          "time": 15.555540000000013,
          "velocity": 0.6299212598425197,
          "duration": 0.14814800000000083
        },
        {
          "name": "C2",
          "midi": 36,
          "time": 15.740725000000014,
          "velocity": 0.6299212598425197,
          "duration": 0.14814800000000083
        },
        {
          "name": "B1",
          "midi": 35,
          "time": 15.740725000000014,
          "velocity": 0.6299212598425197,
          "duration": 0.14814800000000083
        },
        {
          "name": "E2",
          "midi": 40,
          "time": 15.925910000000014,
          "velocity": 0.6299212598425197,
          "duration": 0.14814800000000083
        },
        {
          "name": "D2",
          "midi": 38,
          "time": 15.925910000000014,
          "velocity": 0.6299212598425197,
          "duration": 0.14814800000000083
        },
        {
          "name": "C2",
          "midi": 36,
          "time": 16.481465000000014,
          "velocity": 0.6299212598425197,
          "duration": 0.14814799999999906
        },
        {
          "name": "B1",
          "midi": 35,
          "time": 16.481465000000014,
          "velocity": 0.6299212598425197,
          "duration": 0.14814799999999906
        },
        {
          "name": "D2",
          "midi": 38,
          "time": 16.666650000000015,
          "velocity": 0.6299212598425197,
          "duration": 0.14814799999999906
        },
        {
          "name": "E2",
          "midi": 40,
          "time": 16.666650000000015,
          "velocity": 0.6299212598425197,
          "duration": 0.14814799999999906
        },
        {
          "name": "C2",
          "midi": 36,
          "time": 17.037020000000012,
          "velocity": 0.6299212598425197,
          "duration": 0.14814799999999906
        },
        {
          "name": "B1",
          "midi": 35,
          "time": 17.037020000000012,
          "velocity": 0.6299212598425197,
          "duration": 0.14814799999999906
        },
        {
          "name": "B1",
          "midi": 35,
          "time": 17.222205000000013,
          "velocity": 0.6299212598425197,
          "duration": 0.14814799999999906
        },
        {
          "name": "C2",
          "midi": 36,
          "time": 17.222205000000013,
          "velocity": 0.6299212598425197,
          "duration": 0.14814799999999906
        },
        {
          "name": "A3",
          "midi": 57,
          "time": 17.407390000000014,
          "velocity": 0.6299212598425197,
          "duration": 0.14814799999999906
        },
        {
          "name": "D2",
          "midi": 38,
          "time": 17.407390000000014,
          "velocity": 0.6299212598425197,
          "duration": 0.14814799999999906
        },
        {
          "name": "A4",
          "midi": 69,
          "time": 17.407390000000014,
          "velocity": 0.6299212598425197,
          "duration": 0.14814799999999906
        },
        {
          "name": "E2",
          "midi": 40,
          "time": 17.407390000000014,
          "velocity": 0.6299212598425197,
          "duration": 0.14814799999999906
        },
        {
          "name": "B1",
          "midi": 35,
          "time": 17.592575000000014,
          "velocity": 0.6299212598425197,
          "duration": 0.14814799999999906
        },
        {
          "name": "C2",
          "midi": 36,
          "time": 17.592575000000014,
          "velocity": 0.6299212598425197,
          "duration": 0.14814799999999906
        },
        {
          "name": "B1",
          "midi": 35,
          "time": 17.962945000000012,
          "velocity": 0.6299212598425197,
          "duration": 0.14814799999999906
        },
        {
          "name": "C2",
          "midi": 36,
          "time": 17.962945000000012,
          "velocity": 0.6299212598425197,
          "duration": 0.14814799999999906
        },
        {
          "name": "D2",
          "midi": 38,
          "time": 18.148130000000013,
          "velocity": 0.6299212598425197,
          "duration": 0.14814799999999906
        },
        {
          "name": "E2",
          "midi": 40,
          "time": 18.148130000000013,
          "velocity": 0.6299212598425197,
          "duration": 0.14814799999999906
        },
        {
          "name": "A4",
          "midi": 69,
          "time": 18.148130000000013,
          "velocity": 0.6299212598425197,
          "duration": 0.14814799999999906
        },
        {
          "name": "A3",
          "midi": 57,
          "time": 18.148130000000013,
          "velocity": 0.6299212598425197,
          "duration": 0.14814799999999906
        },
        {
          "name": "C2",
          "midi": 36,
          "time": 18.51850000000001,
          "velocity": 0.6299212598425197,
          "duration": 0.14814799999999906
        },
        {
          "name": "B1",
          "midi": 35,
          "time": 18.51850000000001,
          "velocity": 0.6299212598425197,
          "duration": 0.14814799999999906
        },
        {
          "name": "C2",
          "midi": 36,
          "time": 18.70368500000001,
          "velocity": 0.6299212598425197,
          "duration": 0.14814799999999906
        },
        {
          "name": "B1",
          "midi": 35,
          "time": 18.70368500000001,
          "velocity": 0.6299212598425197,
          "duration": 0.14814799999999906
        },
        {
          "name": "E2",
          "midi": 40,
          "time": 18.88887000000001,
          "velocity": 0.6299212598425197,
          "duration": 0.14814799999999906
        },
        {
          "name": "D2",
          "midi": 38,
          "time": 18.88887000000001,
          "velocity": 0.6299212598425197,
          "duration": 0.14814799999999906
        },
        {
          "name": "A4",
          "midi": 69,
          "time": 18.88887000000001,
          "velocity": 0.6299212598425197,
          "duration": 0.14814799999999906
        },
        {
          "name": "A3",
          "midi": 57,
          "time": 18.88887000000001,
          "velocity": 0.6299212598425197,
          "duration": 0.14814799999999906
        },
        {
          "name": "B1",
          "midi": 35,
          "time": 19.074055000000012,
          "velocity": 0.6299212598425197,
          "duration": 0.14814799999999906
        },
        {
          "name": "C2",
          "midi": 36,
          "time": 19.074055000000012,
          "velocity": 0.6299212598425197,
          "duration": 0.14814799999999906
        },
        {
          "name": "C2",
          "midi": 36,
          "time": 19.44442500000001,
          "velocity": 0.6299212598425197,
          "duration": 0.14814799999999906
        },
        {
          "name": "B1",
          "midi": 35,
          "time": 19.44442500000001,
          "velocity": 0.6299212598425197,
          "duration": 0.14814799999999906
        },
        {
          "name": "E2",
          "midi": 40,
          "time": 19.62961000000001,
          "velocity": 0.6299212598425197,
          "duration": 0.14814799999999906
        },
        {
          "name": "D2",
          "midi": 38,
          "time": 19.62961000000001,
          "velocity": 0.6299212598425197,
          "duration": 0.14814799999999906
        },
        {
          "name": "A3",
          "midi": 57,
          "time": 19.999980000000008,
          "velocity": 0.6299212598425197,
          "duration": 0.14814799999999906
        },
        {
          "name": "A4",
          "midi": 69,
          "time": 19.999980000000008,
          "velocity": 0.6299212598425197,
          "duration": 0.14814799999999906
        },
        {
          "name": "E2",
          "midi": 40,
          "time": 19.999980000000008,
          "velocity": 0.6299212598425197,
          "duration": 0.14814799999999906
        },
        {
          "name": "D2",
          "midi": 38,
          "time": 19.999980000000008,
          "velocity": 0.6299212598425197,
          "duration": 0.14814799999999906
        },
        {
          "name": "A3",
          "midi": 57,
          "time": 20.370350000000006,
          "velocity": 0.6299212598425197,
          "duration": 0.14814799999999906
        },
        {
          "name": "A4",
          "midi": 69,
          "time": 20.370350000000006,
          "velocity": 0.6299212598425197,
          "duration": 0.14814799999999906
        },
        {
          "name": "D2",
          "midi": 38,
          "time": 20.370350000000006,
          "velocity": 0.6299212598425197,
          "duration": 0.14814799999999906
        },
        {
          "name": "E2",
          "midi": 40,
          "time": 20.370350000000006,
          "velocity": 0.6299212598425197,
          "duration": 0.14814799999999906
        },
        {
          "name": "A4",
          "midi": 69,
          "time": 20.740720000000003,
          "velocity": 0.6299212598425197,
          "duration": 0.14814799999999906
        },
        {
          "name": "A3",
          "midi": 57,
          "time": 20.740720000000003,
          "velocity": 0.6299212598425197,
          "duration": 0.14814799999999906
        },
        {
          "name": "D2",
          "midi": 38,
          "time": 20.740720000000003,
          "velocity": 0.6299212598425197,
          "duration": 0.14814799999999906
        },
        {
          "name": "E2",
          "midi": 40,
          "time": 20.740720000000003,
          "velocity": 0.6299212598425197,
          "duration": 0.14814799999999906
        },
        {
          "name": "C2",
          "midi": 36,
          "time": 20.925905000000004,
          "velocity": 0.6299212598425197,
          "duration": 0.14814799999999906
        },
        {
          "name": "B1",
          "midi": 35,
          "time": 20.925905000000004,
          "velocity": 0.6299212598425197,
          "duration": 0.14814799999999906
        },
        {
          "name": "E2",
          "midi": 40,
          "time": 21.111090000000004,
          "velocity": 0.6299212598425197,
          "duration": 0.14814799999999906
        },
        {
          "name": "D2",
          "midi": 38,
          "time": 21.111090000000004,
          "velocity": 0.6299212598425197,
          "duration": 0.14814799999999906
        },
        {
          "name": "B1",
          "midi": 35,
          "time": 21.481460000000002,
          "velocity": 0.6299212598425197,
          "duration": 0.14814799999999906
        },
        {
          "name": "C2",
          "midi": 36,
          "time": 21.481460000000002,
          "velocity": 0.6299212598425197,
          "duration": 0.14814799999999906
        },
        {
          "name": "C2",
          "midi": 36,
          "time": 21.666645000000003,
          "velocity": 0.6299212598425197,
          "duration": 0.14814799999999906
        },
        {
          "name": "B1",
          "midi": 35,
          "time": 21.666645000000003,
          "velocity": 0.6299212598425197,
          "duration": 0.14814799999999906
        },
        {
          "name": "D2",
          "midi": 38,
          "time": 21.851830000000003,
          "velocity": 0.6299212598425197,
          "duration": 0.14814799999999906
        },
        {
          "name": "E2",
          "midi": 40,
          "time": 21.851830000000003,
          "velocity": 0.6299212598425197,
          "duration": 0.14814799999999906
        },
        {
          "name": "C2",
          "midi": 36,
          "time": 22.037015000000004,
          "velocity": 0.6299212598425197,
          "duration": 0.14814799999999906
        },
        {
          "name": "B1",
          "midi": 35,
          "time": 22.037015000000004,
          "velocity": 0.6299212598425197,
          "duration": 0.14814799999999906
        },
        {
          "name": "C2",
          "midi": 36,
          "time": 22.407385,
          "velocity": 0.6299212598425197,
          "duration": 0.14814799999999906
        },
        {
          "name": "B1",
          "midi": 35,
          "time": 22.407385,
          "velocity": 0.6299212598425197,
          "duration": 0.14814799999999906
        },
        {
          "name": "D2",
          "midi": 38,
          "time": 22.592570000000002,
          "velocity": 0.6299212598425197,
          "duration": 0.14814799999999906
        },
        {
          "name": "E2",
          "midi": 40,
          "time": 22.592570000000002,
          "velocity": 0.6299212598425197,
          "duration": 0.14814799999999906
        },
        {
          "name": "B1",
          "midi": 35,
          "time": 22.96294,
          "velocity": 0.6299212598425197,
          "duration": 0.14814799999999906
        },
        {
          "name": "C2",
          "midi": 36,
          "time": 22.96294,
          "velocity": 0.6299212598425197,
          "duration": 0.14814799999999906
        },
        {
          "name": "D2",
          "midi": 38,
          "time": 23.148125,
          "velocity": 0.6299212598425197,
          "duration": 0.14814799999999906
        },
        {
          "name": "E2",
          "midi": 40,
          "time": 23.148125,
          "velocity": 0.6299212598425197,
          "duration": 0.14814799999999906
        },
        {
          "name": "A3",
          "midi": 57,
          "time": 23.33331,
          "velocity": 0.6299212598425197,
          "duration": 0.14814799999999906
        },
        {
          "name": "A4",
          "midi": 69,
          "time": 23.33331,
          "velocity": 0.6299212598425197,
          "duration": 0.14814799999999906
        },
        {
          "name": "C2",
          "midi": 36,
          "time": 23.33331,
          "velocity": 0.6299212598425197,
          "duration": 0.14814799999999906
        },
        {
          "name": "B1",
          "midi": 35,
          "time": 23.33331,
          "velocity": 0.6299212598425197,
          "duration": 0.14814799999999906
        },
        {
          "name": "B1",
          "midi": 35,
          "time": 23.518495,
          "velocity": 0.6299212598425197,
          "duration": 0.14814799999999906
        },
        {
          "name": "A4",
          "midi": 69,
          "time": 23.518495,
          "velocity": 0.6299212598425197,
          "duration": 0.14814799999999906
        },
        {
          "name": "C2",
          "midi": 36,
          "time": 23.518495,
          "velocity": 0.6299212598425197,
          "duration": 0.14814799999999906
        },
        {
          "name": "A3",
          "midi": 57,
          "time": 23.518495,
          "velocity": 0.6299212598425197,
          "duration": 0.14814799999999906
        },
        {
          "name": "B1",
          "midi": 35,
          "time": 23.888865,
          "velocity": 0.6299212598425197,
          "duration": 0.14814799999999906
        },
        {
          "name": "C2",
          "midi": 36,
          "time": 23.888865,
          "velocity": 0.6299212598425197,
          "duration": 0.14814799999999906
        },
        {
          "name": "D2",
          "midi": 38,
          "time": 24.07405,
          "velocity": 0.6299212598425197,
          "duration": 0.14814799999999906
        },
        {
          "name": "E2",
          "midi": 40,
          "time": 24.07405,
          "velocity": 0.6299212598425197,
          "duration": 0.14814799999999906
        },
        {
          "name": "C2",
          "midi": 36,
          "time": 24.444419999999997,
          "velocity": 0.6299212598425197,
          "duration": 0.14814799999999906
        },
        {
          "name": "B1",
          "midi": 35,
          "time": 24.444419999999997,
          "velocity": 0.6299212598425197,
          "duration": 0.14814799999999906
        },
        {
          "name": "C2",
          "midi": 36,
          "time": 24.629604999999998,
          "velocity": 0.6299212598425197,
          "duration": 0.14814799999999906
        },
        {
          "name": "B1",
          "midi": 35,
          "time": 24.629604999999998,
          "velocity": 0.6299212598425197,
          "duration": 0.14814799999999906
        },
        {
          "name": "E2",
          "midi": 40,
          "time": 24.81479,
          "velocity": 0.6299212598425197,
          "duration": 0.14814799999999906
        },
        {
          "name": "D2",
          "midi": 38,
          "time": 24.81479,
          "velocity": 0.6299212598425197,
          "duration": 0.14814799999999906
        },
        {
          "name": "B1",
          "midi": 35,
          "time": 24.999975,
          "velocity": 0.6299212598425197,
          "duration": 0.14814799999999906
        },
        {
          "name": "C2",
          "midi": 36,
          "time": 24.999975,
          "velocity": 0.6299212598425197,
          "duration": 0.14814799999999906
        },
        {
          "name": "A4",
          "midi": 69,
          "time": 24.999975,
          "velocity": 0.6299212598425197,
          "duration": 0.14814799999999906
        },
        {
          "name": "A3",
          "midi": 57,
          "time": 24.999975,
          "velocity": 0.6299212598425197,
          "duration": 0.14814799999999906
        },
        {
          "name": "E2",
          "midi": 40,
          "time": 25.370344999999997,
          "velocity": 0.6299212598425197,
          "duration": 0.14814799999999906
        },
        {
          "name": "D2",
          "midi": 38,
          "time": 25.370344999999997,
          "velocity": 0.6299212598425197,
          "duration": 0.14814799999999906
        },
        {
          "name": "E2",
          "midi": 40,
          "time": 25.555529999999997,
          "velocity": 0.6299212598425197,
          "duration": 0.14814799999999906
        },
        {
          "name": "D2",
          "midi": 38,
          "time": 25.555529999999997,
          "velocity": 0.6299212598425197,
          "duration": 0.14814799999999906
        },
        {
          "name": "D2",
          "midi": 38,
          "time": 25.740714999999998,
          "velocity": 0.6299212598425197,
          "duration": 0.14814799999999906
        },
        {
          "name": "E2",
          "midi": 40,
          "time": 25.740714999999998,
          "velocity": 0.6299212598425197,
          "duration": 0.14814799999999906
        },
        {
          "name": "D3",
          "midi": 50,
          "time": 25.9259,
          "velocity": 0.6299212598425197,
          "duration": 0.07407399999999953
        },
        {
          "name": "D3",
          "midi": 50,
          "time": 26.018492499999997,
          "velocity": 0.6299212598425197,
          "duration": 0.07407399999999953
        },
        {
          "name": "C3",
          "midi": 48,
          "time": 26.111084999999996,
          "velocity": 0.6299212598425197,
          "duration": 0.07407399999999953
        },
        {
          "name": "C3",
          "midi": 48,
          "time": 26.203677499999994,
          "velocity": 0.6299212598425197,
          "duration": 0.07407399999999953
        },
        {
          "name": "B2",
          "midi": 47,
          "time": 26.296269999999993,
          "velocity": 0.6299212598425197,
          "duration": 0.07407399999999953
        },
        {
          "name": "A2",
          "midi": 45,
          "time": 26.38886249999999,
          "velocity": 0.6299212598425197,
          "duration": 0.07407399999999953
        },
        {
          "name": "G2",
          "midi": 43,
          "time": 26.48145499999999,
          "velocity": 0.6299212598425197,
          "duration": 0.07407399999999953
        },
        {
          "name": "F2",
          "midi": 41,
          "time": 26.57404749999999,
          "velocity": 0.6299212598425197,
          "duration": 0.07407399999999953
        },
        {
          "name": "C2",
          "midi": 36,
          "time": 26.666639999999987,
          "velocity": 0.6299212598425197,
          "duration": 0.14814799999999906
        },
        {
          "name": "B1",
          "midi": 35,
          "time": 26.666639999999987,
          "velocity": 0.6299212598425197,
          "duration": 0.14814799999999906
        },
        {
          "name": "B1",
          "midi": 35,
          "time": 26.944417499999986,
          "velocity": 0.6299212598425197,
          "duration": 0.07407399999999953
        },
        {
          "name": "C2",
          "midi": 36,
          "time": 26.944417499999986,
          "velocity": 0.6299212598425197,
          "duration": 0.07407399999999953
        },
        {
          "name": "E2",
          "midi": 40,
          "time": 27.037009999999984,
          "velocity": 0.6299212598425197,
          "duration": 0.3472218749999989
        },
        {
          "name": "D2",
          "midi": 38,
          "time": 27.037009999999984,
          "velocity": 0.6299212598425197,
          "duration": 0.3472218749999989
        },
        {
          "name": "B1",
          "midi": 35,
          "time": 27.407379999999982,
          "velocity": 0.6299212598425197,
          "duration": 0.07407399999999953
        },
        {
          "name": "C2",
          "midi": 36,
          "time": 27.407379999999982,
          "velocity": 0.6299212598425197,
          "duration": 0.07407399999999953
        },
        {
          "name": "C2",
          "midi": 36,
          "time": 27.49997249999998,
          "velocity": 0.6299212598425197,
          "duration": 0.07407399999999953
        },
        {
          "name": "B1",
          "midi": 35,
          "time": 27.49997249999998,
          "velocity": 0.6299212598425197,
          "duration": 0.07407399999999953
        },
        {
          "name": "D2",
          "midi": 38,
          "time": 27.77774999999998,
          "velocity": 0.6299212598425197,
          "duration": 0.07407399999999953
        },
        {
          "name": "E2",
          "midi": 40,
          "time": 27.77774999999998,
          "velocity": 0.6299212598425197,
          "duration": 0.07407399999999953
        },
        {
          "name": "B1",
          "midi": 35,
          "time": 28.14811999999998,
          "velocity": 0.6299212598425197,
          "duration": 0.14814799999999906
        },
        {
          "name": "C2",
          "midi": 36,
          "time": 28.14811999999998,
          "velocity": 0.6299212598425197,
          "duration": 0.14814799999999906
        },
        {
          "name": "C2",
          "midi": 36,
          "time": 28.42589749999998,
          "velocity": 0.6299212598425197,
          "duration": 0.07407399999999953
        },
        {
          "name": "B1",
          "midi": 35,
          "time": 28.42589749999998,
          "velocity": 0.6299212598425197,
          "duration": 0.07407399999999953
        },
        {
          "name": "D2",
          "midi": 38,
          "time": 28.51848999999998,
          "velocity": 0.6299212598425197,
          "duration": 0.3472218749999989
        },
        {
          "name": "E2",
          "midi": 40,
          "time": 28.51848999999998,
          "velocity": 0.6299212598425197,
          "duration": 0.3472218749999989
        },
        {
          "name": "A3",
          "midi": 57,
          "time": 28.888859999999976,
          "velocity": 0.6299212598425197,
          "duration": 0.29629600000000167
        },
        {
          "name": "A4",
          "midi": 69,
          "time": 28.888859999999976,
          "velocity": 0.6299212598425197,
          "duration": 0.29629600000000167
        },
        {
          "name": "B1",
          "midi": 35,
          "time": 28.888859999999976,
          "velocity": 0.6299212598425197,
          "duration": 0.29629600000000167
        },
        {
          "name": "C2",
          "midi": 36,
          "time": 28.888859999999976,
          "velocity": 0.6299212598425197,
          "duration": 0.29629600000000167
        },
        {
          "name": "A4",
          "midi": 69,
          "time": 29.259229999999977,
          "velocity": 0.6299212598425197,
          "duration": 0.29629600000000167
        },
        {
          "name": "C2",
          "midi": 36,
          "time": 29.259229999999977,
          "velocity": 0.6299212598425197,
          "duration": 0.29629600000000167
        },
        {
          "name": "B1",
          "midi": 35,
          "time": 29.259229999999977,
          "velocity": 0.6299212598425197,
          "duration": 0.29629600000000167
        },
        {
          "name": "A3",
          "midi": 57,
          "time": 29.259229999999977,
          "velocity": 0.6299212598425197,
          "duration": 0.29629600000000167
        },
        {
          "name": "A4",
          "midi": 69,
          "time": 29.62959999999998,
          "velocity": 0.6299212598425197,
          "duration": 0.14814799999999906
        },
        {
          "name": "B1",
          "midi": 35,
          "time": 29.62959999999998,
          "velocity": 0.6299212598425197,
          "duration": 0.14814799999999906
        },
        {
          "name": "C2",
          "midi": 36,
          "time": 29.62959999999998,
          "velocity": 0.6299212598425197,
          "duration": 0.14814799999999906
        },
        {
          "name": "A3",
          "midi": 57,
          "time": 29.62959999999998,
          "velocity": 0.6299212598425197,
          "duration": 0.14814799999999906
        },
        {
          "name": "C2",
          "midi": 36,
          "time": 29.907377499999978,
          "velocity": 0.6299212598425197,
          "duration": 0.07407399999999953
        },
        {
          "name": "B1",
          "midi": 35,
          "time": 29.907377499999978,
          "velocity": 0.6299212598425197,
          "duration": 0.07407399999999953
        },
        {
          "name": "E2",
          "midi": 40,
          "time": 29.999969999999976,
          "velocity": 0.6299212598425197,
          "duration": 0.3472218749999989
        },
        {
          "name": "D2",
          "midi": 38,
          "time": 29.999969999999976,
          "velocity": 0.6299212598425197,
          "duration": 0.3472218749999989
        },
        {
          "name": "C2",
          "midi": 36,
          "time": 30.370339999999974,
          "velocity": 0.6299212598425197,
          "duration": 0.07407399999999953
        },
        {
          "name": "B1",
          "midi": 35,
          "time": 30.370339999999974,
          "velocity": 0.6299212598425197,
          "duration": 0.07407399999999953
        },
        {
          "name": "B1",
          "midi": 35,
          "time": 30.462932499999972,
          "velocity": 0.6299212598425197,
          "duration": 0.07407399999999953
        },
        {
          "name": "C2",
          "midi": 36,
          "time": 30.462932499999972,
          "velocity": 0.6299212598425197,
          "duration": 0.07407399999999953
        },
        {
          "name": "D2",
          "midi": 38,
          "time": 30.74070999999997,
          "velocity": 0.6299212598425197,
          "duration": 0.07407399999999953
        },
        {
          "name": "E2",
          "midi": 40,
          "time": 30.74070999999997,
          "velocity": 0.6299212598425197,
          "duration": 0.07407399999999953
        },
        {
          "name": "G2",
          "midi": 43,
          "time": 31.111079999999973,
          "velocity": 0.6299212598425197,
          "duration": 0.14814799999999906
        },
        {
          "name": "G2",
          "midi": 43,
          "time": 31.388857499999972,
          "velocity": 0.6299212598425197,
          "duration": 0.03703700000000154
        },
        {
          "name": "G2",
          "midi": 43,
          "time": 31.435153749999973,
          "velocity": 0.6299212598425197,
          "duration": 0.03703700000000154
        },
        {
          "name": "D3",
          "midi": 50,
          "time": 31.481449999999974,
          "velocity": 0.6299212598425197,
          "duration": 0.03703700000000154
        },
        {
          "name": "B1",
          "midi": 35,
          "time": 31.759227499999977,
          "velocity": 0.6299212598425197,
          "duration": 0.07407399999999953
        },
        {
          "name": "C2",
          "midi": 36,
          "time": 31.759227499999977,
          "velocity": 0.6299212598425197,
          "duration": 0.07407399999999953
        },
        {
          "name": "A3",
          "midi": 57,
          "time": 31.759227499999977,
          "velocity": 0.6299212598425197,
          "duration": 0.07407399999999953
        },
        {
          "name": "A4",
          "midi": 69,
          "time": 31.759227499999977,
          "velocity": 0.6299212598425197,
          "duration": 0.07407399999999953
        },
        {
          "name": "A4",
          "midi": 69,
          "time": 31.944412499999977,
          "velocity": 0.6299212598425197,
          "duration": 0.07407400000000308
        },
        {
          "name": "B1",
          "midi": 35,
          "time": 31.944412499999977,
          "velocity": 0.6299212598425197,
          "duration": 0.07407400000000308
        },
        {
          "name": "C2",
          "midi": 36,
          "time": 31.944412499999977,
          "velocity": 0.6299212598425197,
          "duration": 0.07407400000000308
        },
        {
          "name": "A3",
          "midi": 57,
          "time": 31.944412499999977,
          "velocity": 0.6299212598425197,
          "duration": 0.07407400000000308
        },
        {
          "name": "B1",
          "midi": 35,
          "time": 32.12959749999998,
          "velocity": 0.6299212598425197,
          "duration": 0.07407400000000308
        },
        {
          "name": "A4",
          "midi": 69,
          "time": 32.12959749999998,
          "velocity": 0.6299212598425197,
          "duration": 0.07407400000000308
        },
        {
          "name": "C2",
          "midi": 36,
          "time": 32.12959749999998,
          "velocity": 0.6299212598425197,
          "duration": 0.07407400000000308
        },
        {
          "name": "A3",
          "midi": 57,
          "time": 32.12959749999998,
          "velocity": 0.6299212598425197,
          "duration": 0.07407400000000308
        },
        {
          "name": "D3",
          "midi": 50,
          "time": 32.314782499999986,
          "velocity": 0.6299212598425197,
          "duration": 0.03703699999999799
        },
        {
          "name": "C3",
          "midi": 48,
          "time": 32.36107874999998,
          "velocity": 0.6299212598425197,
          "duration": 0.03703699999999799
        },
        {
          "name": "B2",
          "midi": 47,
          "time": 32.40737499999998,
          "velocity": 0.6299212598425197,
          "duration": 0.03703699999999799
        },
        {
          "name": "A2",
          "midi": 45,
          "time": 32.45367124999998,
          "velocity": 0.6299212598425197,
          "duration": 0.03703699999999799
        },
        {
          "name": "G2",
          "midi": 43,
          "time": 32.499967499999975,
          "velocity": 0.6299212598425197,
          "duration": 0.03703699999999799
        },
        {
          "name": "F2",
          "midi": 41,
          "time": 32.54626374999997,
          "velocity": 0.6299212598425197,
          "duration": 0.03703699999999799
        },
        {
          "name": "C2",
          "midi": 36,
          "time": 32.59255999999997,
          "velocity": 0.6299212598425197,
          "duration": 0.14814799999999906
        },
        {
          "name": "B1",
          "midi": 35,
          "time": 32.59255999999997,
          "velocity": 0.6299212598425197,
          "duration": 0.14814799999999906
        },
        {
          "name": "B1",
          "midi": 35,
          "time": 32.77774499999997,
          "velocity": 0.6299212598425197,
          "duration": 0.14814799999999906
        },
        {
          "name": "C2",
          "midi": 36,
          "time": 32.77774499999997,
          "velocity": 0.6299212598425197,
          "duration": 0.14814799999999906
        },
        {
          "name": "E2",
          "midi": 40,
          "time": 32.962929999999965,
          "velocity": 0.6299212598425197,
          "duration": 0.14814799999999906
        },
        {
          "name": "D2",
          "midi": 38,
          "time": 32.962929999999965,
          "velocity": 0.6299212598425197,
          "duration": 0.14814799999999906
        },
        {
          "name": "C2",
          "midi": 36,
          "time": 33.333299999999966,
          "velocity": 0.6299212598425197,
          "duration": 0.14814799999999906
        },
        {
          "name": "B1",
          "midi": 35,
          "time": 33.333299999999966,
          "velocity": 0.6299212598425197,
          "duration": 0.14814799999999906
        },
        {
          "name": "C2",
          "midi": 36,
          "time": 33.51848499999996,
          "velocity": 0.6299212598425197,
          "duration": 0.14814799999999906
        },
        {
          "name": "B1",
          "midi": 35,
          "time": 33.51848499999996,
          "velocity": 0.6299212598425197,
          "duration": 0.14814799999999906
        },
        {
          "name": "B1",
          "midi": 35,
          "time": 33.51848499999996,
          "velocity": 0.6299212598425197,
          "duration": 0.14814799999999906
        },
        {
          "name": "D2",
          "midi": 38,
          "time": 33.70366999999996,
          "velocity": 0.6299212598425197,
          "duration": 0.14814799999999906
        },
        {
          "name": "E2",
          "midi": 40,
          "time": 33.70366999999996,
          "velocity": 0.6299212598425197,
          "duration": 0.14814799999999906
        },
        {
          "name": "C2",
          "midi": 36,
          "time": 33.88885499999996,
          "velocity": 0.6299212598425197,
          "duration": 0.14814799999999906
        },
        {
          "name": "B1",
          "midi": 35,
          "time": 33.88885499999996,
          "velocity": 0.6299212598425197,
          "duration": 0.14814799999999906
        },
        {
          "name": "B1",
          "midi": 35,
          "time": 34.25922499999996,
          "velocity": 0.6299212598425197,
          "duration": 0.14814799999999906
        },
        {
          "name": "C2",
          "midi": 36,
          "time": 34.25922499999996,
          "velocity": 0.6299212598425197,
          "duration": 0.14814799999999906
        },
        {
          "name": "D2",
          "midi": 38,
          "time": 34.444409999999955,
          "velocity": 0.6299212598425197,
          "duration": 0.14814799999999906
        },
        {
          "name": "E2",
          "midi": 40,
          "time": 34.444409999999955,
          "velocity": 0.6299212598425197,
          "duration": 0.14814799999999906
        },
        {
          "name": "E2",
          "midi": 40,
          "time": 34.62959499999995,
          "velocity": 0.6299212598425197,
          "duration": 0.14814799999999906
        },
        {
          "name": "D2",
          "midi": 38,
          "time": 34.62959499999995,
          "velocity": 0.6299212598425197,
          "duration": 0.14814799999999906
        },
        {
          "name": "A3",
          "midi": 57,
          "time": 34.81477999999995,
          "velocity": 0.6299212598425197,
          "duration": 0.2962959999999981
        },
        {
          "name": "D2",
          "midi": 38,
          "time": 34.81477999999995,
          "velocity": 0.6299212598425197,
          "duration": 0.2962959999999981
        },
        {
          "name": "E2",
          "midi": 40,
          "time": 34.81477999999995,
          "velocity": 0.6299212598425197,
          "duration": 0.2962959999999981
        },
        {
          "name": "A4",
          "midi": 69,
          "time": 34.81477999999995,
          "velocity": 0.6299212598425197,
          "duration": 0.2962959999999981
        },
        {
          "name": "A4",
          "midi": 69,
          "time": 35.18514999999995,
          "velocity": 0.6299212598425197,
          "duration": 0.14814799999999906
        },
        {
          "name": "D2",
          "midi": 38,
          "time": 35.18514999999995,
          "velocity": 0.6299212598425197,
          "duration": 0.14814799999999906
        },
        {
          "name": "E2",
          "midi": 40,
          "time": 35.18514999999995,
          "velocity": 0.6299212598425197,
          "duration": 0.14814799999999906
        },
        {
          "name": "A3",
          "midi": 57,
          "time": 35.18514999999995,
          "velocity": 0.6299212598425197,
          "duration": 0.14814799999999906
        },
        {
          "name": "A4",
          "midi": 69,
          "time": 35.37033499999995,
          "velocity": 0.6299212598425197,
          "duration": 0.14814799999999906
        },
        {
          "name": "A3",
          "midi": 57,
          "time": 35.37033499999995,
          "velocity": 0.6299212598425197,
          "duration": 0.14814799999999906
        },
        {
          "name": "E2",
          "midi": 40,
          "time": 35.37033499999995,
          "velocity": 0.6299212598425197,
          "duration": 0.14814799999999906
        },
        {
          "name": "D2",
          "midi": 38,
          "time": 35.37033499999995,
          "velocity": 0.6299212598425197,
          "duration": 0.14814799999999906
        },
        {
          "name": "B1",
          "midi": 35,
          "time": 35.74070499999995,
          "velocity": 0.6299212598425197,
          "duration": 0.14814799999999906
        },
        {
          "name": "C2",
          "midi": 36,
          "time": 35.74070499999995,
          "velocity": 0.6299212598425197,
          "duration": 0.14814799999999906
        },
        {
          "name": "D2",
          "midi": 38,
          "time": 35.925889999999946,
          "velocity": 0.6299212598425197,
          "duration": 0.14814799999999906
        },
        {
          "name": "E2",
          "midi": 40,
          "time": 35.925889999999946,
          "velocity": 0.6299212598425197,
          "duration": 0.14814799999999906
        },
        {
          "name": "C2",
          "midi": 36,
          "time": 36.29625999999995,
          "velocity": 0.6299212598425197,
          "duration": 0.14814799999999906
        },
        {
          "name": "B1",
          "midi": 35,
          "time": 36.29625999999995,
          "velocity": 0.6299212598425197,
          "duration": 0.14814799999999906
        },
        {
          "name": "C2",
          "midi": 36,
          "time": 36.481444999999944,
          "velocity": 0.6299212598425197,
          "duration": 0.14814799999999906
        },
        {
          "name": "B1",
          "midi": 35,
          "time": 36.481444999999944,
          "velocity": 0.6299212598425197,
          "duration": 0.14814799999999906
        },
        {
          "name": "E2",
          "midi": 40,
          "time": 36.66662999999994,
          "velocity": 0.6299212598425197,
          "duration": 0.14814799999999906
        },
        {
          "name": "D2",
          "midi": 38,
          "time": 36.66662999999994,
          "velocity": 0.6299212598425197,
          "duration": 0.14814799999999906
        },
        {
          "name": "B1",
          "midi": 35,
          "time": 36.85181499999994,
          "velocity": 0.6299212598425197,
          "duration": 0.14814799999999906
        },
        {
          "name": "C2",
          "midi": 36,
          "time": 36.85181499999994,
          "velocity": 0.6299212598425197,
          "duration": 0.14814799999999906
        },
        {
          "name": "B1",
          "midi": 35,
          "time": 37.22218499999994,
          "velocity": 0.6299212598425197,
          "duration": 0.14814799999999906
        },
        {
          "name": "C2",
          "midi": 36,
          "time": 37.22218499999994,
          "velocity": 0.6299212598425197,
          "duration": 0.14814799999999906
        },
        {
          "name": "D2",
          "midi": 38,
          "time": 37.407369999999936,
          "velocity": 0.6299212598425197,
          "duration": 0.14814799999999906
        },
        {
          "name": "E2",
          "midi": 40,
          "time": 37.407369999999936,
          "velocity": 0.6299212598425197,
          "duration": 0.14814799999999906
        },
        {
          "name": "E2",
          "midi": 40,
          "time": 37.59255499999993,
          "velocity": 0.6299212598425197,
          "duration": 0.14814799999999906
        },
        {
          "name": "D2",
          "midi": 38,
          "time": 37.59255499999993,
          "velocity": 0.6299212598425197,
          "duration": 0.14814799999999906
        },
        {
          "name": "A4",
          "midi": 69,
          "time": 37.77773999999993,
          "velocity": 0.6299212598425197,
          "duration": 0.2962959999999981
        },
        {
          "name": "A3",
          "midi": 57,
          "time": 37.77773999999993,
          "velocity": 0.6299212598425197,
          "duration": 0.2962959999999981
        },
        {
          "name": "E2",
          "midi": 40,
          "time": 37.77773999999993,
          "velocity": 0.6299212598425197,
          "duration": 0.2962959999999981
        },
        {
          "name": "D2",
          "midi": 38,
          "time": 37.77773999999993,
          "velocity": 0.6299212598425197,
          "duration": 0.2962959999999981
        },
        {
          "name": "A4",
          "midi": 69,
          "time": 38.14810999999993,
          "velocity": 0.6299212598425197,
          "duration": 0.34722187500000246
        },
        {
          "name": "A3",
          "midi": 57,
          "time": 38.14810999999993,
          "velocity": 0.6299212598425197,
          "duration": 0.34722187500000246
        },
        {
          "name": "E2",
          "midi": 40,
          "time": 38.14810999999993,
          "velocity": 0.6299212598425197,
          "duration": 0.34722187500000246
        },
        {
          "name": "D2",
          "midi": 38,
          "time": 38.14810999999993,
          "velocity": 0.6299212598425197,
          "duration": 0.34722187500000246
        },
        {
          "name": "C2",
          "midi": 36,
          "time": 38.51847999999993,
          "velocity": 0.6299212598425197,
          "duration": 0.14814799999999906
        },
        {
          "name": "B1",
          "midi": 35,
          "time": 38.51847999999993,
          "velocity": 0.6299212598425197,
          "duration": 0.14814799999999906
        },
        {
          "name": "C2",
          "midi": 36,
          "time": 38.70366499999993,
          "velocity": 0.6299212598425197,
          "duration": 0.14814799999999906
        },
        {
          "name": "B1",
          "midi": 35,
          "time": 38.70366499999993,
          "velocity": 0.6299212598425197,
          "duration": 0.14814799999999906
        },
        {
          "name": "E2",
          "midi": 40,
          "time": 38.88884999999993,
          "velocity": 0.6299212598425197,
          "duration": 0.14814799999999906
        },
        {
          "name": "D2",
          "midi": 38,
          "time": 38.88884999999993,
          "velocity": 0.6299212598425197,
          "duration": 0.14814799999999906
        },
        {
          "name": "C2",
          "midi": 36,
          "time": 39.25921999999993,
          "velocity": 0.6299212598425197,
          "duration": 0.14814799999999906
        },
        {
          "name": "B1",
          "midi": 35,
          "time": 39.25921999999993,
          "velocity": 0.6299212598425197,
          "duration": 0.14814799999999906
        },
        {
          "name": "B1",
          "midi": 35,
          "time": 39.444404999999925,
          "velocity": 0.6299212598425197,
          "duration": 0.14814799999999906
        },
        {
          "name": "B1",
          "midi": 35,
          "time": 39.444404999999925,
          "velocity": 0.6299212598425197,
          "duration": 0.14814799999999906
        },
        {
          "name": "C2",
          "midi": 36,
          "time": 39.444404999999925,
          "velocity": 0.6299212598425197,
          "duration": 0.14814799999999906
        },
        {
          "name": "D2",
          "midi": 38,
          "time": 39.62958999999992,
          "velocity": 0.6299212598425197,
          "duration": 0.14814799999999906
        },
        {
          "name": "E2",
          "midi": 40,
          "time": 39.62958999999992,
          "velocity": 0.6299212598425197,
          "duration": 0.14814799999999906
        },
        {
          "name": "C2",
          "midi": 36,
          "time": 39.81477499999992,
          "velocity": 0.6299212598425197,
          "duration": 0.14814799999999906
        },
        {
          "name": "B1",
          "midi": 35,
          "time": 39.81477499999992,
          "velocity": 0.6299212598425197,
          "duration": 0.14814799999999906
        },
        {
          "name": "C2",
          "midi": 36,
          "time": 40.18514499999992,
          "velocity": 0.6299212598425197,
          "duration": 0.14814799999999906
        },
        {
          "name": "B1",
          "midi": 35,
          "time": 40.18514499999992,
          "velocity": 0.6299212598425197,
          "duration": 0.14814799999999906
        },
        {
          "name": "D2",
          "midi": 38,
          "time": 40.37032999999992,
          "velocity": 0.6299212598425197,
          "duration": 0.14814799999999906
        },
        {
          "name": "E2",
          "midi": 40,
          "time": 40.37032999999992,
          "velocity": 0.6299212598425197,
          "duration": 0.14814799999999906
        },
        {
          "name": "D2",
          "midi": 38,
          "time": 40.555514999999914,
          "velocity": 0.6299212598425197,
          "duration": 0.14814799999999906
        },
        {
          "name": "E2",
          "midi": 40,
          "time": 40.555514999999914,
          "velocity": 0.6299212598425197,
          "duration": 0.14814799999999906
        },
        {
          "name": "A4",
          "midi": 69,
          "time": 40.74069999999991,
          "velocity": 0.6299212598425197,
          "duration": 0.2962959999999981
        },
        {
          "name": "A3",
          "midi": 57,
          "time": 40.74069999999991,
          "velocity": 0.6299212598425197,
          "duration": 0.2962959999999981
        },
        {
          "name": "D2",
          "midi": 38,
          "time": 40.74069999999991,
          "velocity": 0.6299212598425197,
          "duration": 0.2962959999999981
        },
        {
          "name": "E2",
          "midi": 40,
          "time": 40.74069999999991,
          "velocity": 0.6299212598425197,
          "duration": 0.2962959999999981
        },
        {
          "name": "D2",
          "midi": 38,
          "time": 41.11106999999991,
          "velocity": 0.6299212598425197,
          "duration": 0.14814799999999906
        },
        {
          "name": "A3",
          "midi": 57,
          "time": 41.11106999999991,
          "velocity": 0.6299212598425197,
          "duration": 0.14814799999999906
        },
        {
          "name": "A4",
          "midi": 69,
          "time": 41.11106999999991,
          "velocity": 0.6299212598425197,
          "duration": 0.14814799999999906
        },
        {
          "name": "E2",
          "midi": 40,
          "time": 41.11106999999991,
          "velocity": 0.6299212598425197,
          "duration": 0.14814799999999906
        },
        {
          "name": "A4",
          "midi": 69,
          "time": 41.29625499999991,
          "velocity": 0.6299212598425197,
          "duration": 0.14814799999999906
        },
        {
          "name": "D2",
          "midi": 38,
          "time": 41.29625499999991,
          "velocity": 0.6299212598425197,
          "duration": 0.14814799999999906
        },
        {
          "name": "A3",
          "midi": 57,
          "time": 41.29625499999991,
          "velocity": 0.6299212598425197,
          "duration": 0.14814799999999906
        },
        {
          "name": "E2",
          "midi": 40,
          "time": 41.29625499999991,
          "velocity": 0.6299212598425197,
          "duration": 0.14814799999999906
        },
        {
          "name": "B1",
          "midi": 35,
          "time": 41.66662499999991,
          "velocity": 0.6299212598425197,
          "duration": 0.14814799999999906
        },
        {
          "name": "C2",
          "midi": 36,
          "time": 41.66662499999991,
          "velocity": 0.6299212598425197,
          "duration": 0.14814799999999906
        },
        {
          "name": "E2",
          "midi": 40,
          "time": 41.85180999999991,
          "velocity": 0.6299212598425197,
          "duration": 0.14814799999999906
        },
        {
          "name": "D2",
          "midi": 38,
          "time": 41.85180999999991,
          "velocity": 0.6299212598425197,
          "duration": 0.14814799999999906
        },
        {
          "name": "C2",
          "midi": 36,
          "time": 42.22217999999991,
          "velocity": 0.6299212598425197,
          "duration": 0.14814799999999906
        },
        {
          "name": "B1",
          "midi": 35,
          "time": 42.22217999999991,
          "velocity": 0.6299212598425197,
          "duration": 0.14814799999999906
        },
        {
          "name": "B1",
          "midi": 35,
          "time": 42.407364999999906,
          "velocity": 0.6299212598425197,
          "duration": 0.14814799999999906
        },
        {
          "name": "C2",
          "midi": 36,
          "time": 42.407364999999906,
          "velocity": 0.6299212598425197,
          "duration": 0.14814799999999906
        },
        {
          "name": "E2",
          "midi": 40,
          "time": 42.5925499999999,
          "velocity": 0.6299212598425197,
          "duration": 0.14814799999999906
        },
        {
          "name": "D2",
          "midi": 38,
          "time": 42.5925499999999,
          "velocity": 0.6299212598425197,
          "duration": 0.14814799999999906
        },
        {
          "name": "B1",
          "midi": 35,
          "time": 42.7777349999999,
          "velocity": 0.6299212598425197,
          "duration": 0.14814799999999906
        },
        {
          "name": "C2",
          "midi": 36,
          "time": 42.7777349999999,
          "velocity": 0.6299212598425197,
          "duration": 0.14814799999999906
        },
        {
          "name": "B1",
          "midi": 35,
          "time": 43.1481049999999,
          "velocity": 0.6299212598425197,
          "duration": 0.14814799999999906
        },
        {
          "name": "C2",
          "midi": 36,
          "time": 43.1481049999999,
          "velocity": 0.6299212598425197,
          "duration": 0.14814799999999906
        },
        {
          "name": "E2",
          "midi": 40,
          "time": 43.3332899999999,
          "velocity": 0.6299212598425197,
          "duration": 0.14814799999999906
        },
        {
          "name": "D2",
          "midi": 38,
          "time": 43.3332899999999,
          "velocity": 0.6299212598425197,
          "duration": 0.14814799999999906
        },
        {
          "name": "E2",
          "midi": 40,
          "time": 43.518474999999896,
          "velocity": 0.6299212598425197,
          "duration": 0.14814799999999906
        },
        {
          "name": "D2",
          "midi": 38,
          "time": 43.518474999999896,
          "velocity": 0.6299212598425197,
          "duration": 0.14814799999999906
        },
        {
          "name": "A4",
          "midi": 69,
          "time": 43.70365999999989,
          "velocity": 0.6299212598425197,
          "duration": 0.2962959999999981
        },
        {
          "name": "D2",
          "midi": 38,
          "time": 43.70365999999989,
          "velocity": 0.6299212598425197,
          "duration": 0.2962959999999981
        },
        {
          "name": "E2",
          "midi": 40,
          "time": 43.70365999999989,
          "velocity": 0.6299212598425197,
          "duration": 0.2962959999999981
        },
        {
          "name": "A3",
          "midi": 57,
          "time": 43.70365999999989,
          "velocity": 0.6299212598425197,
          "duration": 0.2962959999999981
        },
        {
          "name": "D2",
          "midi": 38,
          "time": 44.074029999999894,
          "velocity": 0.6299212598425197,
          "duration": 0.34722187500000246
        },
        {
          "name": "A3",
          "midi": 57,
          "time": 44.074029999999894,
          "velocity": 0.6299212598425197,
          "duration": 0.34722187500000246
        },
        {
          "name": "E2",
          "midi": 40,
          "time": 44.074029999999894,
          "velocity": 0.6299212598425197,
          "duration": 0.34722187500000246
        },
        {
          "name": "A4",
          "midi": 69,
          "time": 44.074029999999894,
          "velocity": 0.6299212598425197,
          "duration": 0.34722187500000246
        },
        {
          "name": "B1",
          "midi": 35,
          "time": 44.444399999999895,
          "velocity": 0.6299212598425197,
          "duration": 0.14814799999999906
        },
        {
          "name": "C2",
          "midi": 36,
          "time": 44.444399999999895,
          "velocity": 0.6299212598425197,
          "duration": 0.14814799999999906
        },
        {
          "name": "C2",
          "midi": 36,
          "time": 44.62958499999989,
          "velocity": 0.6299212598425197,
          "duration": 0.14814799999999906
        },
        {
          "name": "B1",
          "midi": 35,
          "time": 44.62958499999989,
          "velocity": 0.6299212598425197,
          "duration": 0.14814799999999906
        },
        {
          "name": "E2",
          "midi": 40,
          "time": 44.81476999999989,
          "velocity": 0.6299212598425197,
          "duration": 0.14814799999999906
        },
        {
          "name": "D2",
          "midi": 38,
          "time": 44.81476999999989,
          "velocity": 0.6299212598425197,
          "duration": 0.14814799999999906
        },
        {
          "name": "C2",
          "midi": 36,
          "time": 45.18513999999989,
          "velocity": 0.6299212598425197,
          "duration": 0.14814799999999906
        },
        {
          "name": "B1",
          "midi": 35,
          "time": 45.18513999999989,
          "velocity": 0.6299212598425197,
          "duration": 0.14814799999999906
        },
        {
          "name": "C2",
          "midi": 36,
          "time": 45.37032499999989,
          "velocity": 0.6299212598425197,
          "duration": 0.14814799999999906
        },
        {
          "name": "B1",
          "midi": 35,
          "time": 45.37032499999989,
          "velocity": 0.6299212598425197,
          "duration": 0.14814799999999906
        },
        {
          "name": "B1",
          "midi": 35,
          "time": 45.37032499999989,
          "velocity": 0.6299212598425197,
          "duration": 0.14814799999999906
        },
        {
          "name": "E2",
          "midi": 40,
          "time": 45.555509999999884,
          "velocity": 0.6299212598425197,
          "duration": 0.14814799999999906
        },
        {
          "name": "D2",
          "midi": 38,
          "time": 45.555509999999884,
          "velocity": 0.6299212598425197,
          "duration": 0.14814799999999906
        },
        {
          "name": "B1",
          "midi": 35,
          "time": 45.74069499999988,
          "velocity": 0.6299212598425197,
          "duration": 0.14814799999999906
        },
        {
          "name": "C2",
          "midi": 36,
          "time": 45.74069499999988,
          "velocity": 0.6299212598425197,
          "duration": 0.14814799999999906
        },
        {
          "name": "B1",
          "midi": 35,
          "time": 46.11106499999988,
          "velocity": 0.6299212598425197,
          "duration": 0.14814799999999906
        },
        {
          "name": "C2",
          "midi": 36,
          "time": 46.11106499999988,
          "velocity": 0.6299212598425197,
          "duration": 0.14814799999999906
        },
        {
          "name": "E2",
          "midi": 40,
          "time": 46.29624999999988,
          "velocity": 0.6299212598425197,
          "duration": 0.14814799999999906
        },
        {
          "name": "D2",
          "midi": 38,
          "time": 46.29624999999988,
          "velocity": 0.6299212598425197,
          "duration": 0.14814799999999906
        },
        {
          "name": "E2",
          "midi": 40,
          "time": 46.48143499999988,
          "velocity": 0.6299212598425197,
          "duration": 0.14814799999999906
        },
        {
          "name": "D2",
          "midi": 38,
          "time": 46.48143499999988,
          "velocity": 0.6299212598425197,
          "duration": 0.14814799999999906
        },
        {
          "name": "E2",
          "midi": 40,
          "time": 46.666619999999874,
          "velocity": 0.6299212598425197,
          "duration": 0.2962959999999981
        },
        {
          "name": "D2",
          "midi": 38,
          "time": 46.666619999999874,
          "velocity": 0.6299212598425197,
          "duration": 0.2962959999999981
        },
        {
          "name": "A3",
          "midi": 57,
          "time": 46.666619999999874,
          "velocity": 0.6299212598425197,
          "duration": 0.2962959999999981
        },
        {
          "name": "A4",
          "midi": 69,
          "time": 46.666619999999874,
          "velocity": 0.6299212598425197,
          "duration": 0.2962959999999981
        },
        {
          "name": "A4",
          "midi": 69,
          "time": 47.036989999999875,
          "velocity": 0.6299212598425197,
          "duration": 0.14814799999999906
        },
        {
          "name": "E2",
          "midi": 40,
          "time": 47.036989999999875,
          "velocity": 0.6299212598425197,
          "duration": 0.14814799999999906
        },
        {
          "name": "D2",
          "midi": 38,
          "time": 47.036989999999875,
          "velocity": 0.6299212598425197,
          "duration": 0.14814799999999906
        },
        {
          "name": "A3",
          "midi": 57,
          "time": 47.036989999999875,
          "velocity": 0.6299212598425197,
          "duration": 0.14814799999999906
        },
        {
          "name": "E2",
          "midi": 40,
          "time": 47.22217499999987,
          "velocity": 0.6299212598425197,
          "duration": 0.14814799999999906
        },
        {
          "name": "A3",
          "midi": 57,
          "time": 47.22217499999987,
          "velocity": 0.6299212598425197,
          "duration": 0.14814799999999906
        },
        {
          "name": "D2",
          "midi": 38,
          "time": 47.22217499999987,
          "velocity": 0.6299212598425197,
          "duration": 0.14814799999999906
        },
        {
          "name": "A4",
          "midi": 69,
          "time": 47.22217499999987,
          "velocity": 0.6299212598425197,
          "duration": 0.14814799999999906
        },
        {
          "name": "C2",
          "midi": 36,
          "time": 47.59254499999987,
          "velocity": 0.6299212598425197,
          "duration": 0.14814799999999906
        },
        {
          "name": "B1",
          "midi": 35,
          "time": 47.59254499999987,
          "velocity": 0.6299212598425197,
          "duration": 0.14814799999999906
        },
        {
          "name": "D2",
          "midi": 38,
          "time": 47.77772999999987,
          "velocity": 0.6299212598425197,
          "duration": 0.14814799999999906
        },
        {
          "name": "E2",
          "midi": 40,
          "time": 47.77772999999987,
          "velocity": 0.6299212598425197,
          "duration": 0.14814799999999906
        },
        {
          "name": "B1",
          "midi": 35,
          "time": 48.14809999999987,
          "velocity": 0.6299212598425197,
          "duration": 0.14814799999999906
        },
        {
          "name": "C2",
          "midi": 36,
          "time": 48.14809999999987,
          "velocity": 0.6299212598425197,
          "duration": 0.14814799999999906
        },
        {
          "name": "C2",
          "midi": 36,
          "time": 48.33328499999987,
          "velocity": 0.6299212598425197,
          "duration": 0.14814799999999906
        },
        {
          "name": "B1",
          "midi": 35,
          "time": 48.33328499999987,
          "velocity": 0.6299212598425197,
          "duration": 0.14814799999999906
        },
        {
          "name": "E2",
          "midi": 40,
          "time": 48.518469999999866,
          "velocity": 0.6299212598425197,
          "duration": 0.14814799999999906
        },
        {
          "name": "D2",
          "midi": 38,
          "time": 48.518469999999866,
          "velocity": 0.6299212598425197,
          "duration": 0.14814799999999906
        },
        {
          "name": "B1",
          "midi": 35,
          "time": 48.70365499999986,
          "velocity": 0.6299212598425197,
          "duration": 0.14814799999999906
        },
        {
          "name": "C2",
          "midi": 36,
          "time": 48.70365499999986,
          "velocity": 0.6299212598425197,
          "duration": 0.14814799999999906
        },
        {
          "name": "C2",
          "midi": 36,
          "time": 49.074024999999864,
          "velocity": 0.6299212598425197,
          "duration": 0.14814799999999906
        },
        {
          "name": "B1",
          "midi": 35,
          "time": 49.074024999999864,
          "velocity": 0.6299212598425197,
          "duration": 0.14814799999999906
        },
        {
          "name": "E2",
          "midi": 40,
          "time": 49.25920999999986,
          "velocity": 0.6299212598425197,
          "duration": 0.14814799999999906
        },
        {
          "name": "D2",
          "midi": 38,
          "time": 49.25920999999986,
          "velocity": 0.6299212598425197,
          "duration": 0.14814799999999906
        },
        {
          "name": "E2",
          "midi": 40,
          "time": 49.44439499999986,
          "velocity": 0.6299212598425197,
          "duration": 0.14814799999999906
        },
        {
          "name": "D2",
          "midi": 38,
          "time": 49.44439499999986,
          "velocity": 0.6299212598425197,
          "duration": 0.14814799999999906
        },
        {
          "name": "A4",
          "midi": 69,
          "time": 49.629579999999855,
          "velocity": 0.6299212598425197,
          "duration": 0.2962959999999981
        },
        {
          "name": "D2",
          "midi": 38,
          "time": 49.629579999999855,
          "velocity": 0.6299212598425197,
          "duration": 0.2962959999999981
        },
        {
          "name": "A3",
          "midi": 57,
          "time": 49.629579999999855,
          "velocity": 0.6299212598425197,
          "duration": 0.2962959999999981
        },
        {
          "name": "E2",
          "midi": 40,
          "time": 49.629579999999855,
          "velocity": 0.6299212598425197,
          "duration": 0.2962959999999981
        },
        {
          "name": "A4",
          "midi": 69,
          "time": 49.999949999999856,
          "velocity": 0.6299212598425197,
          "duration": 0.34722187500000246
        },
        {
          "name": "E2",
          "midi": 40,
          "time": 49.999949999999856,
          "velocity": 0.6299212598425197,
          "duration": 0.34722187500000246
        },
        {
          "name": "D2",
          "midi": 38,
          "time": 49.999949999999856,
          "velocity": 0.6299212598425197,
          "duration": 0.34722187500000246
        },
        {
          "name": "A3",
          "midi": 57,
          "time": 49.999949999999856,
          "velocity": 0.6299212598425197,
          "duration": 0.34722187500000246
        },
        {
          "name": "B1",
          "midi": 35,
          "time": 50.37031999999986,
          "velocity": 0.6299212598425197,
          "duration": 0.14814799999999906
        },
        {
          "name": "C2",
          "midi": 36,
          "time": 50.37031999999986,
          "velocity": 0.6299212598425197,
          "duration": 0.14814799999999906
        },
        {
          "name": "C2",
          "midi": 36,
          "time": 50.555504999999854,
          "velocity": 0.6299212598425197,
          "duration": 0.14814799999999906
        },
        {
          "name": "B1",
          "midi": 35,
          "time": 50.555504999999854,
          "velocity": 0.6299212598425197,
          "duration": 0.14814799999999906
        },
        {
          "name": "E2",
          "midi": 40,
          "time": 50.74068999999985,
          "velocity": 0.6299212598425197,
          "duration": 0.14814799999999906
        },
        {
          "name": "D2",
          "midi": 38,
          "time": 50.74068999999985,
          "velocity": 0.6299212598425197,
          "duration": 0.14814799999999906
        },
        {
          "name": "C2",
          "midi": 36,
          "time": 51.11105999999985,
          "velocity": 0.6299212598425197,
          "duration": 0.14814799999999906
        },
        {
          "name": "B1",
          "midi": 35,
          "time": 51.11105999999985,
          "velocity": 0.6299212598425197,
          "duration": 0.14814799999999906
        },
        {
          "name": "C2",
          "midi": 36,
          "time": 51.29624499999985,
          "velocity": 0.6299212598425197,
          "duration": 0.14814799999999906
        },
        {
          "name": "B1",
          "midi": 35,
          "time": 51.29624499999985,
          "velocity": 0.6299212598425197,
          "duration": 0.14814799999999906
        },
        {
          "name": "B1",
          "midi": 35,
          "time": 51.29624499999985,
          "velocity": 0.6299212598425197,
          "duration": 0.14814799999999906
        },
        {
          "name": "E2",
          "midi": 40,
          "time": 51.48142999999985,
          "velocity": 0.6299212598425197,
          "duration": 0.14814799999999906
        },
        {
          "name": "D2",
          "midi": 38,
          "time": 51.48142999999985,
          "velocity": 0.6299212598425197,
          "duration": 0.14814799999999906
        },
        {
          "name": "C2",
          "midi": 36,
          "time": 51.666614999999844,
          "velocity": 0.6299212598425197,
          "duration": 0.14814799999999906
        },
        {
          "name": "B1",
          "midi": 35,
          "time": 51.666614999999844,
          "velocity": 0.6299212598425197,
          "duration": 0.14814799999999906
        },
        {
          "name": "B1",
          "midi": 35,
          "time": 52.036984999999845,
          "velocity": 0.6299212598425197,
          "duration": 0.14814799999999906
        },
        {
          "name": "C2",
          "midi": 36,
          "time": 52.036984999999845,
          "velocity": 0.6299212598425197,
          "duration": 0.14814799999999906
        },
        {
          "name": "D2",
          "midi": 38,
          "time": 52.22216999999984,
          "velocity": 0.6299212598425197,
          "duration": 0.14814799999999906
        },
        {
          "name": "E2",
          "midi": 40,
          "time": 52.22216999999984,
          "velocity": 0.6299212598425197,
          "duration": 0.14814799999999906
        },
        {
          "name": "E2",
          "midi": 40,
          "time": 52.40735499999984,
          "velocity": 0.6299212598425197,
          "duration": 0.14814799999999906
        },
        {
          "name": "D2",
          "midi": 38,
          "time": 52.40735499999984,
          "velocity": 0.6299212598425197,
          "duration": 0.14814799999999906
        },
        {
          "name": "E2",
          "midi": 40,
          "time": 52.592539999999836,
          "velocity": 0.6299212598425197,
          "duration": 0.2962959999999981
        },
        {
          "name": "D2",
          "midi": 38,
          "time": 52.592539999999836,
          "velocity": 0.6299212598425197,
          "duration": 0.2962959999999981
        },
        {
          "name": "A3",
          "midi": 57,
          "time": 52.592539999999836,
          "velocity": 0.6299212598425197,
          "duration": 0.2962959999999981
        },
        {
          "name": "A4",
          "midi": 69,
          "time": 52.592539999999836,
          "velocity": 0.6299212598425197,
          "duration": 0.2962959999999981
        },
        {
          "name": "A4",
          "midi": 69,
          "time": 52.96290999999984,
          "velocity": 0.6299212598425197,
          "duration": 0.14814799999999906
        },
        {
          "name": "E2",
          "midi": 40,
          "time": 52.96290999999984,
          "velocity": 0.6299212598425197,
          "duration": 0.14814799999999906
        },
        {
          "name": "D2",
          "midi": 38,
          "time": 52.96290999999984,
          "velocity": 0.6299212598425197,
          "duration": 0.14814799999999906
        },
        {
          "name": "A3",
          "midi": 57,
          "time": 52.96290999999984,
          "velocity": 0.6299212598425197,
          "duration": 0.14814799999999906
        },
        {
          "name": "E2",
          "midi": 40,
          "time": 53.148094999999834,
          "velocity": 0.6299212598425197,
          "duration": 0.14814799999999906
        },
        {
          "name": "A3",
          "midi": 57,
          "time": 53.148094999999834,
          "velocity": 0.6299212598425197,
          "duration": 0.14814799999999906
        },
        {
          "name": "D2",
          "midi": 38,
          "time": 53.148094999999834,
          "velocity": 0.6299212598425197,
          "duration": 0.14814799999999906
        },
        {
          "name": "A4",
          "midi": 69,
          "time": 53.148094999999834,
          "velocity": 0.6299212598425197,
          "duration": 0.14814799999999906
        },
        {
          "name": "C2",
          "midi": 36,
          "time": 53.518464999999836,
          "velocity": 0.6299212598425197,
          "duration": 0.14814799999999906
        },
        {
          "name": "B1",
          "midi": 35,
          "time": 53.518464999999836,
          "velocity": 0.6299212598425197,
          "duration": 0.14814799999999906
        },
        {
          "name": "E2",
          "midi": 40,
          "time": 53.70364999999983,
          "velocity": 0.6299212598425197,
          "duration": 0.14814799999999906
        },
        {
          "name": "D2",
          "midi": 38,
          "time": 53.70364999999983,
          "velocity": 0.6299212598425197,
          "duration": 0.14814799999999906
        },
        {
          "name": "B1",
          "midi": 35,
          "time": 54.074019999999834,
          "velocity": 0.6299212598425197,
          "duration": 0.14814799999999906
        },
        {
          "name": "C2",
          "midi": 36,
          "time": 54.074019999999834,
          "velocity": 0.6299212598425197,
          "duration": 0.14814799999999906
        },
        {
          "name": "C2",
          "midi": 36,
          "time": 54.25920499999983,
          "velocity": 0.6299212598425197,
          "duration": 0.14814799999999906
        },
        {
          "name": "B1",
          "midi": 35,
          "time": 54.25920499999983,
          "velocity": 0.6299212598425197,
          "duration": 0.14814799999999906
        },
        {
          "name": "E2",
          "midi": 40,
          "time": 54.44438999999983,
          "velocity": 0.6299212598425197,
          "duration": 0.14814799999999906
        },
        {
          "name": "D2",
          "midi": 38,
          "time": 54.44438999999983,
          "velocity": 0.6299212598425197,
          "duration": 0.14814799999999906
        },
        {
          "name": "B1",
          "midi": 35,
          "time": 54.629574999999825,
          "velocity": 0.6299212598425197,
          "duration": 0.14814799999999906
        },
        {
          "name": "C2",
          "midi": 36,
          "time": 54.629574999999825,
          "velocity": 0.6299212598425197,
          "duration": 0.14814799999999906
        },
        {
          "name": "C2",
          "midi": 36,
          "time": 54.999944999999826,
          "velocity": 0.6299212598425197,
          "duration": 0.14814799999999906
        },
        {
          "name": "B1",
          "midi": 35,
          "time": 54.999944999999826,
          "velocity": 0.6299212598425197,
          "duration": 0.14814799999999906
        },
        {
          "name": "E2",
          "midi": 40,
          "time": 55.18512999999982,
          "velocity": 0.6299212598425197,
          "duration": 0.14814799999999906
        },
        {
          "name": "D2",
          "midi": 38,
          "time": 55.18512999999982,
          "velocity": 0.6299212598425197,
          "duration": 0.14814799999999906
        },
        {
          "name": "E2",
          "midi": 40,
          "time": 55.37031499999982,
          "velocity": 0.6299212598425197,
          "duration": 0.14814799999999906
        },
        {
          "name": "D2",
          "midi": 38,
          "time": 55.37031499999982,
          "velocity": 0.6299212598425197,
          "duration": 0.14814799999999906
        },
        {
          "name": "A3",
          "midi": 57,
          "time": 55.55549999999982,
          "velocity": 0.6299212598425197,
          "duration": 0.2962959999999981
        },
        {
          "name": "E2",
          "midi": 40,
          "time": 55.55549999999982,
          "velocity": 0.6299212598425197,
          "duration": 0.2962959999999981
        },
        {
          "name": "D2",
          "midi": 38,
          "time": 55.55549999999982,
          "velocity": 0.6299212598425197,
          "duration": 0.2962959999999981
        },
        {
          "name": "A4",
          "midi": 69,
          "time": 55.55549999999982,
          "velocity": 0.6299212598425197,
          "duration": 0.2962959999999981
        },
        {
          "name": "A3",
          "midi": 57,
          "time": 55.92586999999982,
          "velocity": 0.6299212598425197,
          "duration": 0.34722187500000246
        },
        {
          "name": "D2",
          "midi": 38,
          "time": 55.92586999999982,
          "velocity": 0.6299212598425197,
          "duration": 0.34722187500000246
        },
        {
          "name": "E2",
          "midi": 40,
          "time": 55.92586999999982,
          "velocity": 0.6299212598425197,
          "duration": 0.34722187500000246
        },
        {
          "name": "A4",
          "midi": 69,
          "time": 55.92586999999982,
          "velocity": 0.6299212598425197,
          "duration": 0.34722187500000246
        },
        {
          "name": "B1",
          "midi": 35,
          "time": 56.29623999999982,
          "velocity": 0.6299212598425197,
          "duration": 0.14814799999999906
        },
        {
          "name": "C2",
          "midi": 36,
          "time": 56.29623999999982,
          "velocity": 0.6299212598425197,
          "duration": 0.14814799999999906
        },
        {
          "name": "C2",
          "midi": 36,
          "time": 56.48142499999982,
          "velocity": 0.6299212598425197,
          "duration": 0.14814799999999906
        },
        {
          "name": "B1",
          "midi": 35,
          "time": 56.48142499999982,
          "velocity": 0.6299212598425197,
          "duration": 0.14814799999999906
        },
        {
          "name": "D2",
          "midi": 38,
          "time": 56.666609999999814,
          "velocity": 0.6299212598425197,
          "duration": 0.14814799999999906
        },
        {
          "name": "E2",
          "midi": 40,
          "time": 56.666609999999814,
          "velocity": 0.6299212598425197,
          "duration": 0.14814799999999906
        },
        {
          "name": "B1",
          "midi": 35,
          "time": 57.036979999999815,
          "velocity": 0.6299212598425197,
          "duration": 0.14814799999999906
        },
        {
          "name": "C2",
          "midi": 36,
          "time": 57.036979999999815,
          "velocity": 0.6299212598425197,
          "duration": 0.14814799999999906
        },
        {
          "name": "B1",
          "midi": 35,
          "time": 57.22216499999981,
          "velocity": 0.6299212598425197,
          "duration": 0.14814799999999906
        },
        {
          "name": "B1",
          "midi": 35,
          "time": 57.22216499999981,
          "velocity": 0.6299212598425197,
          "duration": 0.14814799999999906
        },
        {
          "name": "C2",
          "midi": 36,
          "time": 57.22216499999981,
          "velocity": 0.6299212598425197,
          "duration": 0.14814799999999906
        },
        {
          "name": "D2",
          "midi": 38,
          "time": 57.40734999999981,
          "velocity": 0.6299212598425197,
          "duration": 0.14814799999999906
        },
        {
          "name": "E2",
          "midi": 40,
          "time": 57.40734999999981,
          "velocity": 0.6299212598425197,
          "duration": 0.14814799999999906
        },
        {
          "name": "B1",
          "midi": 35,
          "time": 57.592534999999806,
          "velocity": 0.6299212598425197,
          "duration": 0.14814799999999906
        },
        {
          "name": "C2",
          "midi": 36,
          "time": 57.592534999999806,
          "velocity": 0.6299212598425197,
          "duration": 0.14814799999999906
        },
        {
          "name": "B1",
          "midi": 35,
          "time": 57.96290499999981,
          "velocity": 0.6299212598425197,
          "duration": 0.14814799999999906
        },
        {
          "name": "C2",
          "midi": 36,
          "time": 57.96290499999981,
          "velocity": 0.6299212598425197,
          "duration": 0.14814799999999906
        },
        {
          "name": "D2",
          "midi": 38,
          "time": 58.148089999999804,
          "velocity": 0.6299212598425197,
          "duration": 0.14814799999999906
        },
        {
          "name": "E2",
          "midi": 40,
          "time": 58.148089999999804,
          "velocity": 0.6299212598425197,
          "duration": 0.14814799999999906
        },
        {
          "name": "E2",
          "midi": 40,
          "time": 58.3332749999998,
          "velocity": 0.6299212598425197,
          "duration": 0.14814799999999906
        },
        {
          "name": "D2",
          "midi": 38,
          "time": 58.3332749999998,
          "velocity": 0.6299212598425197,
          "duration": 0.14814799999999906
        },
        {
          "name": "E2",
          "midi": 40,
          "time": 58.5184599999998,
          "velocity": 0.6299212598425197,
          "duration": 0.2962959999999981
        },
        {
          "name": "A4",
          "midi": 69,
          "time": 58.5184599999998,
          "velocity": 0.6299212598425197,
          "duration": 0.2962959999999981
        },
        {
          "name": "A3",
          "midi": 57,
          "time": 58.5184599999998,
          "velocity": 0.6299212598425197,
          "duration": 0.2962959999999981
        },
        {
          "name": "D2",
          "midi": 38,
          "time": 58.5184599999998,
          "velocity": 0.6299212598425197,
          "duration": 0.2962959999999981
        },
        {
          "name": "D2",
          "midi": 38,
          "time": 58.8888299999998,
          "velocity": 0.6299212598425197,
          "duration": 0.14814799999999906
        },
        {
          "name": "A3",
          "midi": 57,
          "time": 58.8888299999998,
          "velocity": 0.6299212598425197,
          "duration": 0.14814799999999906
        },
        {
          "name": "A4",
          "midi": 69,
          "time": 58.8888299999998,
          "velocity": 0.6299212598425197,
          "duration": 0.14814799999999906
        },
        {
          "name": "E2",
          "midi": 40,
          "time": 58.8888299999998,
          "velocity": 0.6299212598425197,
          "duration": 0.14814799999999906
        },
        {
          "name": "E2",
          "midi": 40,
          "time": 59.0740149999998,
          "velocity": 0.6299212598425197,
          "duration": 0.14814799999999906
        },
        {
          "name": "D2",
          "midi": 38,
          "time": 59.0740149999998,
          "velocity": 0.6299212598425197,
          "duration": 0.14814799999999906
        },
        {
          "name": "A4",
          "midi": 69,
          "time": 59.0740149999998,
          "velocity": 0.6299212598425197,
          "duration": 0.14814799999999906
        },
        {
          "name": "A3",
          "midi": 57,
          "time": 59.0740149999998,
          "velocity": 0.6299212598425197,
          "duration": 0.14814799999999906
        },
        {
          "name": "C2",
          "midi": 36,
          "time": 59.4443849999998,
          "velocity": 0.6299212598425197,
          "duration": 0.14814799999999906
        },
        {
          "name": "B1",
          "midi": 35,
          "time": 59.4443849999998,
          "velocity": 0.6299212598425197,
          "duration": 0.14814799999999906
        },
        {
          "name": "E2",
          "midi": 40,
          "time": 59.629569999999795,
          "velocity": 0.6299212598425197,
          "duration": 0.14814799999999906
        },
        {
          "name": "D2",
          "midi": 38,
          "time": 59.629569999999795,
          "velocity": 0.6299212598425197,
          "duration": 0.14814799999999906
        },
        {
          "name": "B1",
          "midi": 35,
          "time": 59.999939999999796,
          "velocity": 0.6299212598425197,
          "duration": 0.14814799999999906
        },
        {
          "name": "C2",
          "midi": 36,
          "time": 59.999939999999796,
          "velocity": 0.6299212598425197,
          "duration": 0.14814799999999906
        },
        {
          "name": "C2",
          "midi": 36,
          "time": 60.18512499999979,
          "velocity": 0.6299212598425197,
          "duration": 0.14814799999999906
        },
        {
          "name": "B1",
          "midi": 35,
          "time": 60.18512499999979,
          "velocity": 0.6299212598425197,
          "duration": 0.14814799999999906
        },
        {
          "name": "E2",
          "midi": 40,
          "time": 60.37030999999979,
          "velocity": 0.6299212598425197,
          "duration": 0.14814799999999906
        },
        {
          "name": "D2",
          "midi": 38,
          "time": 60.37030999999979,
          "velocity": 0.6299212598425197,
          "duration": 0.14814799999999906
        },
        {
          "name": "B1",
          "midi": 35,
          "time": 60.55549499999979,
          "velocity": 0.6299212598425197,
          "duration": 0.14814799999999906
        },
        {
          "name": "C2",
          "midi": 36,
          "time": 60.55549499999979,
          "velocity": 0.6299212598425197,
          "duration": 0.14814799999999906
        },
        {
          "name": "C2",
          "midi": 36,
          "time": 60.92586499999979,
          "velocity": 0.6299212598425197,
          "duration": 0.14814799999999906
        },
        {
          "name": "B1",
          "midi": 35,
          "time": 60.92586499999979,
          "velocity": 0.6299212598425197,
          "duration": 0.14814799999999906
        },
        {
          "name": "E2",
          "midi": 40,
          "time": 61.111049999999786,
          "velocity": 0.6299212598425197,
          "duration": 0.14814799999999906
        },
        {
          "name": "D2",
          "midi": 38,
          "time": 61.111049999999786,
          "velocity": 0.6299212598425197,
          "duration": 0.14814799999999906
        },
        {
          "name": "D2",
          "midi": 38,
          "time": 61.29623499999978,
          "velocity": 0.6299212598425197,
          "duration": 0.14814799999999906
        },
        {
          "name": "E2",
          "midi": 40,
          "time": 61.29623499999978,
          "velocity": 0.6299212598425197,
          "duration": 0.14814799999999906
        },
        {
          "name": "A4",
          "midi": 69,
          "time": 61.48141999999978,
          "velocity": 0.6299212598425197,
          "duration": 0.2962959999999981
        },
        {
          "name": "D2",
          "midi": 38,
          "time": 61.48141999999978,
          "velocity": 0.6299212598425197,
          "duration": 0.2962959999999981
        },
        {
          "name": "E2",
          "midi": 40,
          "time": 61.48141999999978,
          "velocity": 0.6299212598425197,
          "duration": 0.2962959999999981
        },
        {
          "name": "A3",
          "midi": 57,
          "time": 61.48141999999978,
          "velocity": 0.6299212598425197,
          "duration": 0.2962959999999981
        },
        {
          "name": "A4",
          "midi": 69,
          "time": 61.85178999999978,
          "velocity": 0.6299212598425197,
          "duration": 0.34722187500000246
        },
        {
          "name": "A3",
          "midi": 57,
          "time": 61.85178999999978,
          "velocity": 0.6299212598425197,
          "duration": 0.34722187500000246
        },
        {
          "name": "D2",
          "midi": 38,
          "time": 61.85178999999978,
          "velocity": 0.6299212598425197,
          "duration": 0.34722187500000246
        },
        {
          "name": "E2",
          "midi": 40,
          "time": 61.85178999999978,
          "velocity": 0.6299212598425197,
          "duration": 0.34722187500000246
        },
        {
          "name": "B1",
          "midi": 35,
          "time": 62.22215999999978,
          "velocity": 0.6299212598425197,
          "duration": 0.14814799999999906
        },
        {
          "name": "C2",
          "midi": 36,
          "time": 62.22215999999978,
          "velocity": 0.6299212598425197,
          "duration": 0.14814799999999906
        },
        {
          "name": "B1",
          "midi": 35,
          "time": 62.40734499999978,
          "velocity": 0.6299212598425197,
          "duration": 0.14814799999999906
        },
        {
          "name": "C2",
          "midi": 36,
          "time": 62.40734499999978,
          "velocity": 0.6299212598425197,
          "duration": 0.14814799999999906
        },
        {
          "name": "D2",
          "midi": 38,
          "time": 62.592529999999776,
          "velocity": 0.6299212598425197,
          "duration": 0.14814799999999906
        },
        {
          "name": "E2",
          "midi": 40,
          "time": 62.592529999999776,
          "velocity": 0.6299212598425197,
          "duration": 0.14814799999999906
        },
        {
          "name": "B1",
          "midi": 35,
          "time": 62.96289999999978,
          "velocity": 0.6299212598425197,
          "duration": 0.14814799999999906
        },
        {
          "name": "C2",
          "midi": 36,
          "time": 62.96289999999978,
          "velocity": 0.6299212598425197,
          "duration": 0.14814799999999906
        },
        {
          "name": "B1",
          "midi": 35,
          "time": 63.148084999999774,
          "velocity": 0.6299212598425197,
          "duration": 0.14814799999999906
        },
        {
          "name": "C2",
          "midi": 36,
          "time": 63.148084999999774,
          "velocity": 0.6299212598425197,
          "duration": 0.14814799999999906
        },
        {
          "name": "B1",
          "midi": 35,
          "time": 63.148084999999774,
          "velocity": 0.6299212598425197,
          "duration": 0.14814799999999906
        },
        {
          "name": "D2",
          "midi": 38,
          "time": 63.33326999999977,
          "velocity": 0.6299212598425197,
          "duration": 0.14814799999999906
        },
        {
          "name": "E2",
          "midi": 40,
          "time": 63.33326999999977,
          "velocity": 0.6299212598425197,
          "duration": 0.14814799999999906
        },
        {
          "name": "B1",
          "midi": 35,
          "time": 63.51845499999977,
          "velocity": 0.6299212598425197,
          "duration": 0.14814799999999906
        },
        {
          "name": "C2",
          "midi": 36,
          "time": 63.51845499999977,
          "velocity": 0.6299212598425197,
          "duration": 0.14814799999999906
        },
        {
          "name": "C2",
          "midi": 36,
          "time": 63.88882499999977,
          "velocity": 0.6299212598425197,
          "duration": 0.14814800000000616
        },
        {
          "name": "B1",
          "midi": 35,
          "time": 63.88882499999977,
          "velocity": 0.6299212598425197,
          "duration": 0.14814800000000616
        },
        {
          "name": "D2",
          "midi": 38,
          "time": 64.07400999999977,
          "velocity": 0.6299212598425197,
          "duration": 0.14814800000000616
        },
        {
          "name": "E2",
          "midi": 40,
          "time": 64.07400999999977,
          "velocity": 0.6299212598425197,
          "duration": 0.14814800000000616
        },
        {
          "name": "D2",
          "midi": 38,
          "time": 64.25919499999978,
          "velocity": 0.6299212598425197,
          "duration": 0.14814800000000616
        },
        {
          "name": "E2",
          "midi": 40,
          "time": 64.25919499999978,
          "velocity": 0.6299212598425197,
          "duration": 0.14814800000000616
        },
        {
          "name": "A4",
          "midi": 69,
          "time": 64.44437999999978,
          "velocity": 0.6299212598425197,
          "duration": 0.2962959999999981
        },
        {
          "name": "E2",
          "midi": 40,
          "time": 64.44437999999978,
          "velocity": 0.6299212598425197,
          "duration": 0.2962959999999981
        },
        {
          "name": "A3",
          "midi": 57,
          "time": 64.44437999999978,
          "velocity": 0.6299212598425197,
          "duration": 0.2962959999999981
        },
        {
          "name": "D2",
          "midi": 38,
          "time": 64.44437999999978,
          "velocity": 0.6299212598425197,
          "duration": 0.2962959999999981
        },
        {
          "name": "A3",
          "midi": 57,
          "time": 64.81474999999978,
          "velocity": 0.6299212598425197,
          "duration": 0.14814800000000616
        },
        {
          "name": "A4",
          "midi": 69,
          "time": 64.81474999999978,
          "velocity": 0.6299212598425197,
          "duration": 0.14814800000000616
        },
        {
          "name": "E2",
          "midi": 40,
          "time": 64.81474999999978,
          "velocity": 0.6299212598425197,
          "duration": 0.14814800000000616
        },
        {
          "name": "D2",
          "midi": 38,
          "time": 64.81474999999978,
          "velocity": 0.6299212598425197,
          "duration": 0.14814800000000616
        },
        {
          "name": "A4",
          "midi": 69,
          "time": 64.99993499999978,
          "velocity": 0.6299212598425197,
          "duration": 0.14814800000000616
        },
        {
          "name": "D2",
          "midi": 38,
          "time": 64.99993499999978,
          "velocity": 0.6299212598425197,
          "duration": 0.14814800000000616
        },
        {
          "name": "E2",
          "midi": 40,
          "time": 64.99993499999978,
          "velocity": 0.6299212598425197,
          "duration": 0.14814800000000616
        },
        {
          "name": "A3",
          "midi": 57,
          "time": 64.99993499999978,
          "velocity": 0.6299212598425197,
          "duration": 0.14814800000000616
        },
        {
          "name": "B1",
          "midi": 35,
          "time": 65.37030499999979,
          "velocity": 0.6299212598425197,
          "duration": 0.14814800000000616
        },
        {
          "name": "C2",
          "midi": 36,
          "time": 65.37030499999979,
          "velocity": 0.6299212598425197,
          "duration": 0.14814800000000616
        },
        {
          "name": "D2",
          "midi": 38,
          "time": 65.55548999999979,
          "velocity": 0.6299212598425197,
          "duration": 0.14814800000000616
        },
        {
          "name": "E2",
          "midi": 40,
          "time": 65.55548999999979,
          "velocity": 0.6299212598425197,
          "duration": 0.14814800000000616
        },
        {
          "name": "B1",
          "midi": 35,
          "time": 65.9258599999998,
          "velocity": 0.6299212598425197,
          "duration": 0.14814800000000616
        },
        {
          "name": "C2",
          "midi": 36,
          "time": 65.9258599999998,
          "velocity": 0.6299212598425197,
          "duration": 0.14814800000000616
        },
        {
          "name": "C2",
          "midi": 36,
          "time": 66.1110449999998,
          "velocity": 0.6299212598425197,
          "duration": 0.14814800000000616
        },
        {
          "name": "B1",
          "midi": 35,
          "time": 66.1110449999998,
          "velocity": 0.6299212598425197,
          "duration": 0.14814800000000616
        },
        {
          "name": "E2",
          "midi": 40,
          "time": 66.29622999999981,
          "velocity": 0.6299212598425197,
          "duration": 0.14814800000000616
        },
        {
          "name": "D2",
          "midi": 38,
          "time": 66.29622999999981,
          "velocity": 0.6299212598425197,
          "duration": 0.14814800000000616
        },
        {
          "name": "B1",
          "midi": 35,
          "time": 66.48141499999981,
          "velocity": 0.6299212598425197,
          "duration": 0.14814800000000616
        },
        {
          "name": "C2",
          "midi": 36,
          "time": 66.48141499999981,
          "velocity": 0.6299212598425197,
          "duration": 0.14814800000000616
        },
        {
          "name": "B1",
          "midi": 35,
          "time": 66.85178499999982,
          "velocity": 0.6299212598425197,
          "duration": 0.14814800000000616
        },
        {
          "name": "C2",
          "midi": 36,
          "time": 66.85178499999982,
          "velocity": 0.6299212598425197,
          "duration": 0.14814800000000616
        },
        {
          "name": "E2",
          "midi": 40,
          "time": 67.03696999999983,
          "velocity": 0.6299212598425197,
          "duration": 0.14814800000000616
        },
        {
          "name": "D2",
          "midi": 38,
          "time": 67.03696999999983,
          "velocity": 0.6299212598425197,
          "duration": 0.14814800000000616
        },
        {
          "name": "E2",
          "midi": 40,
          "time": 67.22215499999983,
          "velocity": 0.6299212598425197,
          "duration": 0.14814800000000616
        },
        {
          "name": "D2",
          "midi": 38,
          "time": 67.22215499999983,
          "velocity": 0.6299212598425197,
          "duration": 0.14814800000000616
        },
        {
          "name": "D2",
          "midi": 38,
          "time": 67.40733999999983,
          "velocity": 0.6299212598425197,
          "duration": 0.2962959999999981
        },
        {
          "name": "E2",
          "midi": 40,
          "time": 67.40733999999983,
          "velocity": 0.6299212598425197,
          "duration": 0.2962959999999981
        },
        {
          "name": "A4",
          "midi": 69,
          "time": 67.40733999999983,
          "velocity": 0.6299212598425197,
          "duration": 0.2962959999999981
        },
        {
          "name": "A3",
          "midi": 57,
          "time": 67.40733999999983,
          "velocity": 0.6299212598425197,
          "duration": 0.2962959999999981
        },
        {
          "name": "A3",
          "midi": 57,
          "time": 67.77770999999983,
          "velocity": 0.6299212598425197,
          "duration": 0.34722187500000246
        },
        {
          "name": "A4",
          "midi": 69,
          "time": 67.77770999999983,
          "velocity": 0.6299212598425197,
          "duration": 0.34722187500000246
        },
        {
          "name": "E2",
          "midi": 40,
          "time": 67.77770999999983,
          "velocity": 0.6299212598425197,
          "duration": 0.34722187500000246
        },
        {
          "name": "D2",
          "midi": 38,
          "time": 67.77770999999983,
          "velocity": 0.6299212598425197,
          "duration": 0.34722187500000246
        },
        {
          "name": "D3",
          "midi": 50,
          "time": 68.88881999999982,
          "velocity": 0.6299212598425197,
          "duration": 0.14814800000000616
        },
        {
          "name": "D3",
          "midi": 50,
          "time": 69.07400499999983,
          "velocity": 0.6299212598425197,
          "duration": 0.14814800000000616
        },
        {
          "name": "D3",
          "midi": 50,
          "time": 69.25918999999983,
          "velocity": 0.6299212598425197,
          "duration": 0.14814800000000616
        },
        {
          "name": "B2",
          "midi": 47,
          "time": 69.44437499999984,
          "velocity": 0.6299212598425197,
          "duration": 0.3333330000000103
        },
        {
          "name": "A4",
          "midi": 69,
          "time": 69.44437499999984,
          "velocity": 0.6299212598425197,
          "duration": 0.14814800000000616
        },
        {
          "name": "A3",
          "midi": 57,
          "time": 69.44437499999984,
          "velocity": 0.6299212598425197,
          "duration": 0.14814800000000616
        },
        {
          "name": "D3",
          "midi": 50,
          "time": 69.81474499999985,
          "velocity": 0.6299212598425197,
          "duration": 0.14814800000000616
        },
        {
          "name": "C3",
          "midi": 48,
          "time": 69.99992999999985,
          "velocity": 0.6299212598425197,
          "duration": 0.07407399999999598
        },
        {
          "name": "B2",
          "midi": 47,
          "time": 70.09252249999984,
          "velocity": 0.6299212598425197,
          "duration": 0.07407399999999598
        },
        {
          "name": "A3",
          "midi": 57,
          "time": 70.18511499999984,
          "velocity": 0.6299212598425197,
          "duration": 0.2962959999999981
        },
        {
          "name": "A4",
          "midi": 69,
          "time": 70.18511499999984,
          "velocity": 0.6299212598425197,
          "duration": 0.2962959999999981
        },
        {
          "name": "A2",
          "midi": 45,
          "time": 70.18511499999984,
          "velocity": 0.6299212598425197,
          "duration": 0.2962959999999981
        },
        {
          "name": "D2",
          "midi": 38,
          "time": 70.55548499999983,
          "velocity": 0.6299212598425197,
          "duration": 0.14814800000000616
        },
        {
          "name": "A4",
          "midi": 69,
          "time": 70.55548499999983,
          "velocity": 0.6299212598425197,
          "duration": 0.14814800000000616
        },
        {
          "name": "E2",
          "midi": 40,
          "time": 70.55548499999983,
          "velocity": 0.6299212598425197,
          "duration": 0.14814800000000616
        },
        {
          "name": "D2",
          "midi": 38,
          "time": 70.74066999999984,
          "velocity": 0.6299212598425197,
          "duration": 0.14814800000000616
        },
        {
          "name": "A4",
          "midi": 69,
          "time": 70.74066999999984,
          "velocity": 0.6299212598425197,
          "duration": 0.14814800000000616
        },
        {
          "name": "E2",
          "midi": 40,
          "time": 70.74066999999984,
          "velocity": 0.6299212598425197,
          "duration": 0.14814800000000616
        },
        {
          "name": "E2",
          "midi": 40,
          "time": 70.92585499999984,
          "velocity": 0.6299212598425197,
          "duration": 0.14814800000000616
        },
        {
          "name": "D2",
          "midi": 38,
          "time": 70.92585499999984,
          "velocity": 0.6299212598425197,
          "duration": 0.14814800000000616
        },
        {
          "name": "A4",
          "midi": 69,
          "time": 70.92585499999984,
          "velocity": 0.6299212598425197,
          "duration": 0.14814800000000616
        },
        {
          "name": "B1",
          "midi": 35,
          "time": 71.29622499999985,
          "velocity": 0.6299212598425197,
          "duration": 0.14814800000000616
        },
        {
          "name": "C2",
          "midi": 36,
          "time": 71.29622499999985,
          "velocity": 0.6299212598425197,
          "duration": 0.14814800000000616
        },
        {
          "name": "E2",
          "midi": 40,
          "time": 71.48140999999985,
          "velocity": 0.6299212598425197,
          "duration": 0.14814800000000616
        },
        {
          "name": "D2",
          "midi": 38,
          "time": 71.48140999999985,
          "velocity": 0.6299212598425197,
          "duration": 0.14814800000000616
        },
        {
          "name": "B1",
          "midi": 35,
          "time": 71.85177999999986,
          "velocity": 0.6299212598425197,
          "duration": 0.14814800000000616
        },
        {
          "name": "C2",
          "midi": 36,
          "time": 71.85177999999986,
          "velocity": 0.6299212598425197,
          "duration": 0.14814800000000616
        },
        {
          "name": "B1",
          "midi": 35,
          "time": 72.03696499999987,
          "velocity": 0.6299212598425197,
          "duration": 0.14814800000000616
        },
        {
          "name": "C2",
          "midi": 36,
          "time": 72.03696499999987,
          "velocity": 0.6299212598425197,
          "duration": 0.14814800000000616
        },
        {
          "name": "D2",
          "midi": 38,
          "time": 72.22214999999987,
          "velocity": 0.6299212598425197,
          "duration": 0.14814800000000616
        },
        {
          "name": "E2",
          "midi": 40,
          "time": 72.22214999999987,
          "velocity": 0.6299212598425197,
          "duration": 0.14814800000000616
        },
        {
          "name": "B1",
          "midi": 35,
          "time": 72.77770499999988,
          "velocity": 0.6299212598425197,
          "duration": 0.14814800000000616
        },
        {
          "name": "C2",
          "midi": 36,
          "time": 72.77770499999988,
          "velocity": 0.6299212598425197,
          "duration": 0.14814800000000616
        },
        {
          "name": "E2",
          "midi": 40,
          "time": 72.96288999999989,
          "velocity": 0.6299212598425197,
          "duration": 0.14814800000000616
        },
        {
          "name": "D2",
          "midi": 38,
          "time": 72.96288999999989,
          "velocity": 0.6299212598425197,
          "duration": 0.14814800000000616
        },
        {
          "name": "B1",
          "midi": 35,
          "time": 73.3332599999999,
          "velocity": 0.6299212598425197,
          "duration": 0.14814800000000616
        },
        {
          "name": "C2",
          "midi": 36,
          "time": 73.3332599999999,
          "velocity": 0.6299212598425197,
          "duration": 0.14814800000000616
        },
        {
          "name": "C2",
          "midi": 36,
          "time": 73.5184449999999,
          "velocity": 0.6299212598425197,
          "duration": 0.14814800000000616
        },
        {
          "name": "B1",
          "midi": 35,
          "time": 73.5184449999999,
          "velocity": 0.6299212598425197,
          "duration": 0.14814800000000616
        },
        {
          "name": "A3",
          "midi": 57,
          "time": 73.7036299999999,
          "velocity": 0.6299212598425197,
          "duration": 0.14814800000000616
        },
        {
          "name": "D2",
          "midi": 38,
          "time": 73.7036299999999,
          "velocity": 0.6299212598425197,
          "duration": 0.14814800000000616
        },
        {
          "name": "A4",
          "midi": 69,
          "time": 73.7036299999999,
          "velocity": 0.6299212598425197,
          "duration": 0.14814800000000616
        },
        {
          "name": "E2",
          "midi": 40,
          "time": 73.7036299999999,
          "velocity": 0.6299212598425197,
          "duration": 0.14814800000000616
        },
        {
          "name": "B1",
          "midi": 35,
          "time": 73.88881499999991,
          "velocity": 0.6299212598425197,
          "duration": 0.14814800000000616
        },
        {
          "name": "C2",
          "midi": 36,
          "time": 73.88881499999991,
          "velocity": 0.6299212598425197,
          "duration": 0.14814800000000616
        },
        {
          "name": "C2",
          "midi": 36,
          "time": 74.25918499999992,
          "velocity": 0.6299212598425197,
          "duration": 0.14814800000000616
        },
        {
          "name": "B1",
          "midi": 35,
          "time": 74.25918499999992,
          "velocity": 0.6299212598425197,
          "duration": 0.14814800000000616
        },
        {
          "name": "A4",
          "midi": 69,
          "time": 74.44436999999992,
          "velocity": 0.6299212598425197,
          "duration": 0.14814800000000616
        },
        {
          "name": "A3",
          "midi": 57,
          "time": 74.44436999999992,
          "velocity": 0.6299212598425197,
          "duration": 0.14814800000000616
        },
        {
          "name": "D2",
          "midi": 38,
          "time": 74.44436999999992,
          "velocity": 0.6299212598425197,
          "duration": 0.14814800000000616
        },
        {
          "name": "E2",
          "midi": 40,
          "time": 74.44436999999992,
          "velocity": 0.6299212598425197,
          "duration": 0.14814800000000616
        },
        {
          "name": "C2",
          "midi": 36,
          "time": 74.81473999999993,
          "velocity": 0.6299212598425197,
          "duration": 0.14814800000000616
        },
        {
          "name": "B1",
          "midi": 35,
          "time": 74.81473999999993,
          "velocity": 0.6299212598425197,
          "duration": 0.14814800000000616
        },
        {
          "name": "B1",
          "midi": 35,
          "time": 74.99992499999993,
          "velocity": 0.6299212598425197,
          "duration": 0.14814800000000616
        },
        {
          "name": "C2",
          "midi": 36,
          "time": 74.99992499999993,
          "velocity": 0.6299212598425197,
          "duration": 0.14814800000000616
        },
        {
          "name": "E2",
          "midi": 40,
          "time": 75.18510999999994,
          "velocity": 0.6299212598425197,
          "duration": 0.14814800000000616
        },
        {
          "name": "D2",
          "midi": 38,
          "time": 75.18510999999994,
          "velocity": 0.6299212598425197,
          "duration": 0.14814800000000616
        },
        {
          "name": "A3",
          "midi": 57,
          "time": 75.18510999999994,
          "velocity": 0.6299212598425197,
          "duration": 0.14814800000000616
        },
        {
          "name": "A4",
          "midi": 69,
          "time": 75.18510999999994,
          "velocity": 0.6299212598425197,
          "duration": 0.14814800000000616
        },
        {
          "name": "B1",
          "midi": 35,
          "time": 75.37029499999994,
          "velocity": 0.6299212598425197,
          "duration": 0.14814800000000616
        },
        {
          "name": "C2",
          "midi": 36,
          "time": 75.37029499999994,
          "velocity": 0.6299212598425197,
          "duration": 0.14814800000000616
        },
        {
          "name": "B1",
          "midi": 35,
          "time": 75.74066499999995,
          "velocity": 0.6299212598425197,
          "duration": 0.14814800000000616
        },
        {
          "name": "C2",
          "midi": 36,
          "time": 75.74066499999995,
          "velocity": 0.6299212598425197,
          "duration": 0.14814800000000616
        },
        {
          "name": "D2",
          "midi": 38,
          "time": 75.92584999999995,
          "velocity": 0.6299212598425197,
          "duration": 0.14814800000000616
        },
        {
          "name": "E2",
          "midi": 40,
          "time": 75.92584999999995,
          "velocity": 0.6299212598425197,
          "duration": 0.14814800000000616
        },
        {
          "name": "A3",
          "midi": 57,
          "time": 76.29621999999996,
          "velocity": 0.6299212598425197,
          "duration": 0.14814800000000616
        },
        {
          "name": "A4",
          "midi": 69,
          "time": 76.29621999999996,
          "velocity": 0.6299212598425197,
          "duration": 0.14814800000000616
        },
        {
          "name": "E2",
          "midi": 40,
          "time": 76.29621999999996,
          "velocity": 0.6299212598425197,
          "duration": 0.14814800000000616
        },
        {
          "name": "D2",
          "midi": 38,
          "time": 76.29621999999996,
          "velocity": 0.6299212598425197,
          "duration": 0.14814800000000616
        },
        {
          "name": "E2",
          "midi": 40,
          "time": 76.66658999999997,
          "velocity": 0.6299212598425197,
          "duration": 0.14814800000000616
        },
        {
          "name": "A3",
          "midi": 57,
          "time": 76.66658999999997,
          "velocity": 0.6299212598425197,
          "duration": 0.14814800000000616
        },
        {
          "name": "A4",
          "midi": 69,
          "time": 76.66658999999997,
          "velocity": 0.6299212598425197,
          "duration": 0.14814800000000616
        },
        {
          "name": "D2",
          "midi": 38,
          "time": 76.66658999999997,
          "velocity": 0.6299212598425197,
          "duration": 0.14814800000000616
        },
        {
          "name": "A4",
          "midi": 69,
          "time": 77.03695999999998,
          "velocity": 0.6299212598425197,
          "duration": 0.14814800000000616
        },
        {
          "name": "A3",
          "midi": 57,
          "time": 77.03695999999998,
          "velocity": 0.6299212598425197,
          "duration": 0.14814800000000616
        },
        {
          "name": "D2",
          "midi": 38,
          "time": 77.03695999999998,
          "velocity": 0.6299212598425197,
          "duration": 0.14814800000000616
        },
        {
          "name": "E2",
          "midi": 40,
          "time": 77.03695999999998,
          "velocity": 0.6299212598425197,
          "duration": 0.14814800000000616
        },
        {
          "name": "B1",
          "midi": 35,
          "time": 77.22214499999998,
          "velocity": 0.6299212598425197,
          "duration": 0.14814800000000616
        },
        {
          "name": "C2",
          "midi": 36,
          "time": 77.22214499999998,
          "velocity": 0.6299212598425197,
          "duration": 0.14814800000000616
        },
        {
          "name": "E2",
          "midi": 40,
          "time": 77.40732999999999,
          "velocity": 0.6299212598425197,
          "duration": 0.14814800000000616
        },
        {
          "name": "D2",
          "midi": 38,
          "time": 77.40732999999999,
          "velocity": 0.6299212598425197,
          "duration": 0.14814800000000616
        },
        {
          "name": "B1",
          "midi": 35,
          "time": 77.7777,
          "velocity": 0.6299212598425197,
          "duration": 0.14814800000000616
        },
        {
          "name": "C2",
          "midi": 36,
          "time": 77.7777,
          "velocity": 0.6299212598425197,
          "duration": 0.14814800000000616
        },
        {
          "name": "B1",
          "midi": 35,
          "time": 77.962885,
          "velocity": 0.6299212598425197,
          "duration": 0.14814800000000616
        },
        {
          "name": "C2",
          "midi": 36,
          "time": 77.962885,
          "velocity": 0.6299212598425197,
          "duration": 0.14814800000000616
        },
        {
          "name": "D2",
          "midi": 38,
          "time": 78.14807,
          "velocity": 0.6299212598425197,
          "duration": 0.14814800000000616
        },
        {
          "name": "E2",
          "midi": 40,
          "time": 78.14807,
          "velocity": 0.6299212598425197,
          "duration": 0.14814800000000616
        },
        {
          "name": "C2",
          "midi": 36,
          "time": 78.33325500000001,
          "velocity": 0.6299212598425197,
          "duration": 0.14814800000000616
        },
        {
          "name": "B1",
          "midi": 35,
          "time": 78.33325500000001,
          "velocity": 0.6299212598425197,
          "duration": 0.14814800000000616
        },
        {
          "name": "B1",
          "midi": 35,
          "time": 78.70362500000002,
          "velocity": 0.6299212598425197,
          "duration": 0.14814800000000616
        },
        {
          "name": "C2",
          "midi": 36,
          "time": 78.70362500000002,
          "velocity": 0.6299212598425197,
          "duration": 0.14814800000000616
        },
        {
          "name": "E2",
          "midi": 40,
          "time": 78.88881000000002,
          "velocity": 0.6299212598425197,
          "duration": 0.14814800000000616
        },
        {
          "name": "D2",
          "midi": 38,
          "time": 78.88881000000002,
          "velocity": 0.6299212598425197,
          "duration": 0.14814800000000616
        },
        {
          "name": "C2",
          "midi": 36,
          "time": 79.25918000000003,
          "velocity": 0.6299212598425197,
          "duration": 0.14814800000000616
        },
        {
          "name": "B1",
          "midi": 35,
          "time": 79.25918000000003,
          "velocity": 0.6299212598425197,
          "duration": 0.14814800000000616
        },
        {
          "name": "E2",
          "midi": 40,
          "time": 79.44436500000003,
          "velocity": 0.6299212598425197,
          "duration": 0.14814800000000616
        },
        {
          "name": "D2",
          "midi": 38,
          "time": 79.44436500000003,
          "velocity": 0.6299212598425197,
          "duration": 0.14814800000000616
        },
        {
          "name": "A3",
          "midi": 57,
          "time": 79.62955000000004,
          "velocity": 0.6299212598425197,
          "duration": 0.14814800000000616
        },
        {
          "name": "A4",
          "midi": 69,
          "time": 79.62955000000004,
          "velocity": 0.6299212598425197,
          "duration": 0.14814800000000616
        },
        {
          "name": "C2",
          "midi": 36,
          "time": 79.62955000000004,
          "velocity": 0.6299212598425197,
          "duration": 0.14814800000000616
        },
        {
          "name": "B1",
          "midi": 35,
          "time": 79.62955000000004,
          "velocity": 0.6299212598425197,
          "duration": 0.14814800000000616
        },
        {
          "name": "C2",
          "midi": 36,
          "time": 79.81473500000004,
          "velocity": 0.6299212598425197,
          "duration": 0.14814800000000616
        },
        {
          "name": "A4",
          "midi": 69,
          "time": 79.81473500000004,
          "velocity": 0.6299212598425197,
          "duration": 0.14814800000000616
        },
        {
          "name": "B1",
          "midi": 35,
          "time": 79.81473500000004,
          "velocity": 0.6299212598425197,
          "duration": 0.14814800000000616
        },
        {
          "name": "A3",
          "midi": 57,
          "time": 79.81473500000004,
          "velocity": 0.6299212598425197,
          "duration": 0.14814800000000616
        },
        {
          "name": "C2",
          "midi": 36,
          "time": 80.18510500000005,
          "velocity": 0.6299212598425197,
          "duration": 0.14814800000000616
        },
        {
          "name": "B1",
          "midi": 35,
          "time": 80.18510500000005,
          "velocity": 0.6299212598425197,
          "duration": 0.14814800000000616
        },
        {
          "name": "D2",
          "midi": 38,
          "time": 80.37029000000005,
          "velocity": 0.6299212598425197,
          "duration": 0.14814800000000616
        },
        {
          "name": "E2",
          "midi": 40,
          "time": 80.37029000000005,
          "velocity": 0.6299212598425197,
          "duration": 0.14814800000000616
        },
        {
          "name": "B1",
          "midi": 35,
          "time": 80.74066000000006,
          "velocity": 0.6299212598425197,
          "duration": 0.14814800000000616
        },
        {
          "name": "C2",
          "midi": 36,
          "time": 80.74066000000006,
          "velocity": 0.6299212598425197,
          "duration": 0.14814800000000616
        },
        {
          "name": "B1",
          "midi": 35,
          "time": 80.92584500000007,
          "velocity": 0.6299212598425197,
          "duration": 0.14814800000000616
        },
        {
          "name": "C2",
          "midi": 36,
          "time": 80.92584500000007,
          "velocity": 0.6299212598425197,
          "duration": 0.14814800000000616
        },
        {
          "name": "E2",
          "midi": 40,
          "time": 81.11103000000007,
          "velocity": 0.6299212598425197,
          "duration": 0.14814800000000616
        },
        {
          "name": "D2",
          "midi": 38,
          "time": 81.11103000000007,
          "velocity": 0.6299212598425197,
          "duration": 0.14814800000000616
        },
        {
          "name": "A4",
          "midi": 69,
          "time": 81.29621500000007,
          "velocity": 0.6299212598425197,
          "duration": 0.14814800000000616
        },
        {
          "name": "C2",
          "midi": 36,
          "time": 81.29621500000007,
          "velocity": 0.6299212598425197,
          "duration": 0.14814800000000616
        },
        {
          "name": "B1",
          "midi": 35,
          "time": 81.29621500000007,
          "velocity": 0.6299212598425197,
          "duration": 0.14814800000000616
        },
        {
          "name": "A3",
          "midi": 57,
          "time": 81.29621500000007,
          "velocity": 0.6299212598425197,
          "duration": 0.14814800000000616
        },
        {
          "name": "D2",
          "midi": 38,
          "time": 81.66658500000008,
          "velocity": 0.6299212598425197,
          "duration": 0.14814800000000616
        },
        {
          "name": "E2",
          "midi": 40,
          "time": 81.66658500000008,
          "velocity": 0.6299212598425197,
          "duration": 0.14814800000000616
        },
        {
          "name": "D2",
          "midi": 38,
          "time": 81.85177000000009,
          "velocity": 0.6299212598425197,
          "duration": 0.14814800000000616
        },
        {
          "name": "E2",
          "midi": 40,
          "time": 81.85177000000009,
          "velocity": 0.6299212598425197,
          "duration": 0.14814800000000616
        },
        {
          "name": "E2",
          "midi": 40,
          "time": 82.03695500000009,
          "velocity": 0.6299212598425197,
          "duration": 0.14814800000000616
        },
        {
          "name": "D2",
          "midi": 38,
          "time": 82.03695500000009,
          "velocity": 0.6299212598425197,
          "duration": 0.14814800000000616
        },
        {
          "name": "D3",
          "midi": 50,
          "time": 82.2221400000001,
          "velocity": 0.6299212598425197,
          "duration": 0.07407399999999598
        },
        {
          "name": "D3",
          "midi": 50,
          "time": 82.31473250000009,
          "velocity": 0.6299212598425197,
          "duration": 0.07407399999999598
        },
        {
          "name": "C3",
          "midi": 48,
          "time": 82.40732500000009,
          "velocity": 0.6299212598425197,
          "duration": 0.07407399999999598
        },
        {
          "name": "C3",
          "midi": 48,
          "time": 82.49991750000008,
          "velocity": 0.6299212598425197,
          "duration": 0.07407399999999598
        },
        {
          "name": "B2",
          "midi": 47,
          "time": 82.59251000000008,
          "velocity": 0.6299212598425197,
          "duration": 0.07407399999999598
        },
        {
          "name": "A2",
          "midi": 45,
          "time": 82.68510250000007,
          "velocity": 0.6299212598425197,
          "duration": 0.07407399999999598
        },
        {
          "name": "G2",
          "midi": 43,
          "time": 82.77769500000007,
          "velocity": 0.6299212598425197,
          "duration": 0.07407399999999598
        },
        {
          "name": "F2",
          "midi": 41,
          "time": 82.87028750000006,
          "velocity": 0.6299212598425197,
          "duration": 0.07407399999999598
        },
        {
          "name": "C2",
          "midi": 36,
          "time": 82.96288000000006,
          "velocity": 0.6299212598425197,
          "duration": 0.14814800000000616
        },
        {
          "name": "B1",
          "midi": 35,
          "time": 82.96288000000006,
          "velocity": 0.6299212598425197,
          "duration": 0.14814800000000616
        },
        {
          "name": "B1",
          "midi": 35,
          "time": 83.24065750000005,
          "velocity": 0.6299212598425197,
          "duration": 0.07407399999999598
        },
        {
          "name": "C2",
          "midi": 36,
          "time": 83.24065750000005,
          "velocity": 0.6299212598425197,
          "duration": 0.07407399999999598
        },
        {
          "name": "D2",
          "midi": 38,
          "time": 83.33325000000005,
          "velocity": 0.6299212598425197,
          "duration": 0.34722187500000246
        },
        {
          "name": "E2",
          "midi": 40,
          "time": 83.33325000000005,
          "velocity": 0.6299212598425197,
          "duration": 0.34722187500000246
        },
        {
          "name": "B1",
          "midi": 35,
          "time": 83.70362000000006,
          "velocity": 0.6299212598425197,
          "duration": 0.07407399999999598
        },
        {
          "name": "C2",
          "midi": 36,
          "time": 83.70362000000006,
          "velocity": 0.6299212598425197,
          "duration": 0.07407399999999598
        },
        {
          "name": "C2",
          "midi": 36,
          "time": 83.79621250000005,
          "velocity": 0.6299212598425197,
          "duration": 0.07407399999999598
        },
        {
          "name": "B1",
          "midi": 35,
          "time": 83.79621250000005,
          "velocity": 0.6299212598425197,
          "duration": 0.07407399999999598
        },
        {
          "name": "E2",
          "midi": 40,
          "time": 84.07399000000005,
          "velocity": 0.6299212598425197,
          "duration": 0.07407399999999598
        },
        {
          "name": "D2",
          "midi": 38,
          "time": 84.07399000000005,
          "velocity": 0.6299212598425197,
          "duration": 0.07407399999999598
        },
        {
          "name": "B1",
          "midi": 35,
          "time": 84.44436000000005,
          "velocity": 0.6299212598425197,
          "duration": 0.14814800000000616
        },
        {
          "name": "C2",
          "midi": 36,
          "time": 84.44436000000005,
          "velocity": 0.6299212598425197,
          "duration": 0.14814800000000616
        },
        {
          "name": "C2",
          "midi": 36,
          "time": 84.72213750000004,
          "velocity": 0.6299212598425197,
          "duration": 0.07407399999999598
        },
        {
          "name": "B1",
          "midi": 35,
          "time": 84.72213750000004,
          "velocity": 0.6299212598425197,
          "duration": 0.07407399999999598
        },
        {
          "name": "D2",
          "midi": 38,
          "time": 84.81473000000004,
          "velocity": 0.6299212598425197,
          "duration": 0.34722187500000246
        },
        {
          "name": "E2",
          "midi": 40,
          "time": 84.81473000000004,
          "velocity": 0.6299212598425197,
          "duration": 0.34722187500000246
        },
        {
          "name": "A3",
          "midi": 57,
          "time": 85.18510000000005,
          "velocity": 0.6299212598425197,
          "duration": 0.2962959999999981
        },
        {
          "name": "C2",
          "midi": 36,
          "time": 85.18510000000005,
          "velocity": 0.6299212598425197,
          "duration": 0.2962959999999981
        },
        {
          "name": "B1",
          "midi": 35,
          "time": 85.18510000000005,
          "velocity": 0.6299212598425197,
          "duration": 0.2962959999999981
        },
        {
          "name": "A4",
          "midi": 69,
          "time": 85.18510000000005,
          "velocity": 0.6299212598425197,
          "duration": 0.2962959999999981
        },
        {
          "name": "A3",
          "midi": 57,
          "time": 85.55547000000004,
          "velocity": 0.6299212598425197,
          "duration": 0.2962959999999981
        },
        {
          "name": "B1",
          "midi": 35,
          "time": 85.55547000000004,
          "velocity": 0.6299212598425197,
          "duration": 0.2962959999999981
        },
        {
          "name": "C2",
          "midi": 36,
          "time": 85.55547000000004,
          "velocity": 0.6299212598425197,
          "duration": 0.2962959999999981
        },
        {
          "name": "A4",
          "midi": 69,
          "time": 85.55547000000004,
          "velocity": 0.6299212598425197,
          "duration": 0.2962959999999981
        },
        {
          "name": "A4",
          "midi": 69,
          "time": 85.92584000000004,
          "velocity": 0.6299212598425197,
          "duration": 0.14814800000000616
        },
        {
          "name": "A3",
          "midi": 57,
          "time": 85.92584000000004,
          "velocity": 0.6299212598425197,
          "duration": 0.14814800000000616
        },
        {
          "name": "C2",
          "midi": 36,
          "time": 85.92584000000004,
          "velocity": 0.6299212598425197,
          "duration": 0.14814800000000616
        },
        {
          "name": "B1",
          "midi": 35,
          "time": 85.92584000000004,
          "velocity": 0.6299212598425197,
          "duration": 0.14814800000000616
        },
        {
          "name": "C2",
          "midi": 36,
          "time": 86.20361750000004,
          "velocity": 0.6299212598425197,
          "duration": 0.07407399999999598
        },
        {
          "name": "B1",
          "midi": 35,
          "time": 86.20361750000004,
          "velocity": 0.6299212598425197,
          "duration": 0.07407399999999598
        },
        {
          "name": "D2",
          "midi": 38,
          "time": 86.29621000000003,
          "velocity": 0.6299212598425197,
          "duration": 0.34722187500000246
        },
        {
          "name": "E2",
          "midi": 40,
          "time": 86.29621000000003,
          "velocity": 0.6299212598425197,
          "duration": 0.34722187500000246
        },
        {
          "name": "B1",
          "midi": 35,
          "time": 86.66658000000004,
          "velocity": 0.6299212598425197,
          "duration": 0.07407399999999598
        },
        {
          "name": "C2",
          "midi": 36,
          "time": 86.66658000000004,
          "velocity": 0.6299212598425197,
          "duration": 0.07407399999999598
        },
        {
          "name": "C2",
          "midi": 36,
          "time": 86.75917250000003,
          "velocity": 0.6299212598425197,
          "duration": 0.07407399999999598
        },
        {
          "name": "B1",
          "midi": 35,
          "time": 86.75917250000003,
          "velocity": 0.6299212598425197,
          "duration": 0.07407399999999598
        },
        {
          "name": "E2",
          "midi": 40,
          "time": 87.03695000000003,
          "velocity": 0.6299212598425197,
          "duration": 0.07407399999999598
        },
        {
          "name": "D2",
          "midi": 38,
          "time": 87.03695000000003,
          "velocity": 0.6299212598425197,
          "duration": 0.07407399999999598
        },
        {
          "name": "G2",
          "midi": 43,
          "time": 87.40732000000003,
          "velocity": 0.6299212598425197,
          "duration": 0.14814800000000616
        },
        {
          "name": "G2",
          "midi": 43,
          "time": 87.68509750000003,
          "velocity": 0.6299212598425197,
          "duration": 0.03703699999999799
        },
        {
          "name": "G2",
          "midi": 43,
          "time": 87.73139375000002,
          "velocity": 0.6299212598425197,
          "duration": 0.03703699999999799
        },
        {
          "name": "D3",
          "midi": 50,
          "time": 87.77769000000002,
          "velocity": 0.6299212598425197,
          "duration": 0.03703699999999799
        },
        {
          "name": "A3",
          "midi": 57,
          "time": 88.05546750000002,
          "velocity": 0.6299212598425197,
          "duration": 0.07407399999999598
        },
        {
          "name": "C2",
          "midi": 36,
          "time": 88.05546750000002,
          "velocity": 0.6299212598425197,
          "duration": 0.07407399999999598
        },
        {
          "name": "A4",
          "midi": 69,
          "time": 88.05546750000002,
          "velocity": 0.6299212598425197,
          "duration": 0.07407399999999598
        },
        {
          "name": "B1",
          "midi": 35,
          "time": 88.05546750000002,
          "velocity": 0.6299212598425197,
          "duration": 0.07407399999999598
        },
        {
          "name": "A4",
          "midi": 69,
          "time": 88.24065250000001,
          "velocity": 0.6299212598425197,
          "duration": 0.07407399999999598
        },
        {
          "name": "A3",
          "midi": 57,
          "time": 88.24065250000001,
          "velocity": 0.6299212598425197,
          "duration": 0.07407399999999598
        },
        {
          "name": "C2",
          "midi": 36,
          "time": 88.24065250000001,
          "velocity": 0.6299212598425197,
          "duration": 0.07407399999999598
        },
        {
          "name": "B1",
          "midi": 35,
          "time": 88.24065250000001,
          "velocity": 0.6299212598425197,
          "duration": 0.07407399999999598
        },
        {
          "name": "A4",
          "midi": 69,
          "time": 88.4258375,
          "velocity": 0.6299212598425197,
          "duration": 0.07407399999999598
        },
        {
          "name": "C2",
          "midi": 36,
          "time": 88.4258375,
          "velocity": 0.6299212598425197,
          "duration": 0.07407399999999598
        },
        {
          "name": "A3",
          "midi": 57,
          "time": 88.4258375,
          "velocity": 0.6299212598425197,
          "duration": 0.07407399999999598
        },
        {
          "name": "B1",
          "midi": 35,
          "time": 88.4258375,
          "velocity": 0.6299212598425197,
          "duration": 0.07407399999999598
        },
        {
          "name": "D3",
          "midi": 50,
          "time": 88.61102249999999,
          "velocity": 0.6299212598425197,
          "duration": 0.03703699999999799
        },
        {
          "name": "C3",
          "midi": 48,
          "time": 88.65731874999999,
          "velocity": 0.6299212598425197,
          "duration": 0.03703699999999799
        },
        {
          "name": "B2",
          "midi": 47,
          "time": 88.70361499999999,
          "velocity": 0.6299212598425197,
          "duration": 0.03703699999999799
        },
        {
          "name": "A2",
          "midi": 45,
          "time": 88.74991124999998,
          "velocity": 0.6299212598425197,
          "duration": 0.03703699999999799
        },
        {
          "name": "G2",
          "midi": 43,
          "time": 88.79620749999998,
          "velocity": 0.6299212598425197,
          "duration": 0.03703699999999799
        },
        {
          "name": "F2",
          "midi": 41,
          "time": 88.84250374999998,
          "velocity": 0.6299212598425197,
          "duration": 0.03703699999999799
        },
        {
          "name": "C2",
          "midi": 36,
          "time": 88.88879999999997,
          "velocity": 0.6299212598425197,
          "duration": 0.14814800000000616
        },
        {
          "name": "B1",
          "midi": 35,
          "time": 88.88879999999997,
          "velocity": 0.6299212598425197,
          "duration": 0.14814800000000616
        },
        {
          "name": "C2",
          "midi": 36,
          "time": 89.07398499999998,
          "velocity": 0.6299212598425197,
          "duration": 0.14814800000000616
        },
        {
          "name": "B1",
          "midi": 35,
          "time": 89.07398499999998,
          "velocity": 0.6299212598425197,
          "duration": 0.14814800000000616
        },
        {
          "name": "D2",
          "midi": 38,
          "time": 89.25916999999998,
          "velocity": 0.6299212598425197,
          "duration": 0.14814800000000616
        },
        {
          "name": "E2",
          "midi": 40,
          "time": 89.25916999999998,
          "velocity": 0.6299212598425197,
          "duration": 0.14814800000000616
        },
        {
          "name": "C2",
          "midi": 36,
          "time": 89.62953999999999,
          "velocity": 0.6299212598425197,
          "duration": 0.14814800000000616
        },
        {
          "name": "B1",
          "midi": 35,
          "time": 89.62953999999999,
          "velocity": 0.6299212598425197,
          "duration": 0.14814800000000616
        },
        {
          "name": "C2",
          "midi": 36,
          "time": 89.814725,
          "velocity": 0.6299212598425197,
          "duration": 0.14814800000000616
        },
        {
          "name": "B1",
          "midi": 35,
          "time": 89.814725,
          "velocity": 0.6299212598425197,
          "duration": 0.14814800000000616
        },
        {
          "name": "B1",
          "midi": 35,
          "time": 89.814725,
          "velocity": 0.6299212598425197,
          "duration": 0.14814800000000616
        },
        {
          "name": "D2",
          "midi": 38,
          "time": 89.99991,
          "velocity": 0.6299212598425197,
          "duration": 0.14814800000000616
        },
        {
          "name": "E2",
          "midi": 40,
          "time": 89.99991,
          "velocity": 0.6299212598425197,
          "duration": 0.14814800000000616
        },
        {
          "name": "C2",
          "midi": 36,
          "time": 90.185095,
          "velocity": 0.6299212598425197,
          "duration": 0.14814800000000616
        },
        {
          "name": "B1",
          "midi": 35,
          "time": 90.185095,
          "velocity": 0.6299212598425197,
          "duration": 0.14814800000000616
        },
        {
          "name": "C2",
          "midi": 36,
          "time": 90.55546500000001,
          "velocity": 0.6299212598425197,
          "duration": 0.14814800000000616
        },
        {
          "name": "B1",
          "midi": 35,
          "time": 90.55546500000001,
          "velocity": 0.6299212598425197,
          "duration": 0.14814800000000616
        },
        {
          "name": "E2",
          "midi": 40,
          "time": 90.74065000000002,
          "velocity": 0.6299212598425197,
          "duration": 0.14814800000000616
        },
        {
          "name": "D2",
          "midi": 38,
          "time": 90.74065000000002,
          "velocity": 0.6299212598425197,
          "duration": 0.14814800000000616
        },
        {
          "name": "D2",
          "midi": 38,
          "time": 90.92583500000002,
          "velocity": 0.6299212598425197,
          "duration": 0.14814800000000616
        },
        {
          "name": "E2",
          "midi": 40,
          "time": 90.92583500000002,
          "velocity": 0.6299212598425197,
          "duration": 0.14814800000000616
        },
        {
          "name": "A3",
          "midi": 57,
          "time": 91.11102000000002,
          "velocity": 0.6299212598425197,
          "duration": 0.2962959999999981
        },
        {
          "name": "A4",
          "midi": 69,
          "time": 91.11102000000002,
          "velocity": 0.6299212598425197,
          "duration": 0.2962959999999981
        },
        {
          "name": "E2",
          "midi": 40,
          "time": 91.11102000000002,
          "velocity": 0.6299212598425197,
          "duration": 0.2962959999999981
        },
        {
          "name": "D2",
          "midi": 38,
          "time": 91.11102000000002,
          "velocity": 0.6299212598425197,
          "duration": 0.2962959999999981
        },
        {
          "name": "A4",
          "midi": 69,
          "time": 91.48139000000002,
          "velocity": 0.6299212598425197,
          "duration": 0.14814800000000616
        },
        {
          "name": "A3",
          "midi": 57,
          "time": 91.48139000000002,
          "velocity": 0.6299212598425197,
          "duration": 0.14814800000000616
        },
        {
          "name": "E2",
          "midi": 40,
          "time": 91.48139000000002,
          "velocity": 0.6299212598425197,
          "duration": 0.14814800000000616
        },
        {
          "name": "D2",
          "midi": 38,
          "time": 91.48139000000002,
          "velocity": 0.6299212598425197,
          "duration": 0.14814800000000616
        },
        {
          "name": "E2",
          "midi": 40,
          "time": 91.66657500000002,
          "velocity": 0.6299212598425197,
          "duration": 0.14814800000000616
        },
        {
          "name": "A3",
          "midi": 57,
          "time": 91.66657500000002,
          "velocity": 0.6299212598425197,
          "duration": 0.14814800000000616
        },
        {
          "name": "A4",
          "midi": 69,
          "time": 91.66657500000002,
          "velocity": 0.6299212598425197,
          "duration": 0.14814800000000616
        },
        {
          "name": "D2",
          "midi": 38,
          "time": 91.66657500000002,
          "velocity": 0.6299212598425197,
          "duration": 0.14814800000000616
        },
        {
          "name": "C2",
          "midi": 36,
          "time": 92.03694500000003,
          "velocity": 0.6299212598425197,
          "duration": 0.14814800000000616
        },
        {
          "name": "B1",
          "midi": 35,
          "time": 92.03694500000003,
          "velocity": 0.6299212598425197,
          "duration": 0.14814800000000616
        },
        {
          "name": "E2",
          "midi": 40,
          "time": 92.22213000000004,
          "velocity": 0.6299212598425197,
          "duration": 0.14814800000000616
        },
        {
          "name": "D2",
          "midi": 38,
          "time": 92.22213000000004,
          "velocity": 0.6299212598425197,
          "duration": 0.14814800000000616
        },
        {
          "name": "C2",
          "midi": 36,
          "time": 92.59250000000004,
          "velocity": 0.6299212598425197,
          "duration": 0.14814800000000616
        },
        {
          "name": "B1",
          "midi": 35,
          "time": 92.59250000000004,
          "velocity": 0.6299212598425197,
          "duration": 0.14814800000000616
        },
        {
          "name": "C2",
          "midi": 36,
          "time": 92.77768500000005,
          "velocity": 0.6299212598425197,
          "duration": 0.14814800000000616
        },
        {
          "name": "B1",
          "midi": 35,
          "time": 92.77768500000005,
          "velocity": 0.6299212598425197,
          "duration": 0.14814800000000616
        },
        {
          "name": "E2",
          "midi": 40,
          "time": 92.96287000000005,
          "velocity": 0.6299212598425197,
          "duration": 0.14814800000000616
        },
        {
          "name": "D2",
          "midi": 38,
          "time": 92.96287000000005,
          "velocity": 0.6299212598425197,
          "duration": 0.14814800000000616
        },
        {
          "name": "B1",
          "midi": 35,
          "time": 93.14805500000006,
          "velocity": 0.6299212598425197,
          "duration": 0.14814800000000616
        },
        {
          "name": "C2",
          "midi": 36,
          "time": 93.14805500000006,
          "velocity": 0.6299212598425197,
          "duration": 0.14814800000000616
        },
        {
          "name": "C2",
          "midi": 36,
          "time": 93.51842500000006,
          "velocity": 0.6299212598425197,
          "duration": 0.14814800000000616
        },
        {
          "name": "B1",
          "midi": 35,
          "time": 93.51842500000006,
          "velocity": 0.6299212598425197,
          "duration": 0.14814800000000616
        },
        {
          "name": "E2",
          "midi": 40,
          "time": 93.70361000000007,
          "velocity": 0.6299212598425197,
          "duration": 0.14814800000000616
        },
        {
          "name": "D2",
          "midi": 38,
          "time": 93.70361000000007,
          "velocity": 0.6299212598425197,
          "duration": 0.14814800000000616
        },
        {
          "name": "D2",
          "midi": 38,
          "time": 93.88879500000007,
          "velocity": 0.6299212598425197,
          "duration": 0.14814800000000616
        },
        {
          "name": "E2",
          "midi": 40,
          "time": 93.88879500000007,
          "velocity": 0.6299212598425197,
          "duration": 0.14814800000000616
        },
        {
          "name": "A4",
          "midi": 69,
          "time": 94.07398000000008,
          "velocity": 0.6299212598425197,
          "duration": 0.2962959999999981
        },
        {
          "name": "A3",
          "midi": 57,
          "time": 94.07398000000008,
          "velocity": 0.6299212598425197,
          "duration": 0.2962959999999981
        },
        {
          "name": "D2",
          "midi": 38,
          "time": 94.07398000000008,
          "velocity": 0.6299212598425197,
          "duration": 0.2962959999999981
        },
        {
          "name": "E2",
          "midi": 40,
          "time": 94.07398000000008,
          "velocity": 0.6299212598425197,
          "duration": 0.2962959999999981
        },
        {
          "name": "E2",
          "midi": 40,
          "time": 94.44435000000007,
          "velocity": 0.6299212598425197,
          "duration": 0.34722187500000246
        },
        {
          "name": "A3",
          "midi": 57,
          "time": 94.44435000000007,
          "velocity": 0.6299212598425197,
          "duration": 0.34722187500000246
        },
        {
          "name": "A4",
          "midi": 69,
          "time": 94.44435000000007,
          "velocity": 0.6299212598425197,
          "duration": 0.34722187500000246
        },
        {
          "name": "D2",
          "midi": 38,
          "time": 94.44435000000007,
          "velocity": 0.6299212598425197,
          "duration": 0.34722187500000246
        },
        {
          "name": "C2",
          "midi": 36,
          "time": 94.81472000000008,
          "velocity": 0.6299212598425197,
          "duration": 0.14814800000000616
        },
        {
          "name": "B1",
          "midi": 35,
          "time": 94.81472000000008,
          "velocity": 0.6299212598425197,
          "duration": 0.14814800000000616
        },
        {
          "name": "B1",
          "midi": 35,
          "time": 94.99990500000008,
          "velocity": 0.6299212598425197,
          "duration": 0.14814800000000616
        },
        {
          "name": "C2",
          "midi": 36,
          "time": 94.99990500000008,
          "velocity": 0.6299212598425197,
          "duration": 0.14814800000000616
        },
        {
          "name": "D2",
          "midi": 38,
          "time": 95.18509000000009,
          "velocity": 0.6299212598425197,
          "duration": 0.14814800000000616
        },
        {
          "name": "E2",
          "midi": 40,
          "time": 95.18509000000009,
          "velocity": 0.6299212598425197,
          "duration": 0.14814800000000616
        },
        {
          "name": "B1",
          "midi": 35,
          "time": 95.5554600000001,
          "velocity": 0.6299212598425197,
          "duration": 0.14814800000000616
        },
        {
          "name": "C2",
          "midi": 36,
          "time": 95.5554600000001,
          "velocity": 0.6299212598425197,
          "duration": 0.14814800000000616
        },
        {
          "name": "C2",
          "midi": 36,
          "time": 95.7406450000001,
          "velocity": 0.6299212598425197,
          "duration": 0.14814800000000616
        },
        {
          "name": "B1",
          "midi": 35,
          "time": 95.7406450000001,
          "velocity": 0.6299212598425197,
          "duration": 0.14814800000000616
        },
        {
          "name": "B1",
          "midi": 35,
          "time": 95.7406450000001,
          "velocity": 0.6299212598425197,
          "duration": 0.14814800000000616
        },
        {
          "name": "D2",
          "midi": 38,
          "time": 95.9258300000001,
          "velocity": 0.6299212598425197,
          "duration": 0.14814800000000616
        },
        {
          "name": "E2",
          "midi": 40,
          "time": 95.9258300000001,
          "velocity": 0.6299212598425197,
          "duration": 0.14814800000000616
        },
        {
          "name": "C2",
          "midi": 36,
          "time": 96.11101500000011,
          "velocity": 0.6299212598425197,
          "duration": 0.14814800000000616
        },
        {
          "name": "B1",
          "midi": 35,
          "time": 96.11101500000011,
          "velocity": 0.6299212598425197,
          "duration": 0.14814800000000616
        },
        {
          "name": "B1",
          "midi": 35,
          "time": 96.48138500000012,
          "velocity": 0.6299212598425197,
          "duration": 0.14814800000000616
        },
        {
          "name": "C2",
          "midi": 36,
          "time": 96.48138500000012,
          "velocity": 0.6299212598425197,
          "duration": 0.14814800000000616
        },
        {
          "name": "E2",
          "midi": 40,
          "time": 96.66657000000012,
          "velocity": 0.6299212598425197,
          "duration": 0.14814800000000616
        },
        {
          "name": "D2",
          "midi": 38,
          "time": 96.66657000000012,
          "velocity": 0.6299212598425197,
          "duration": 0.14814800000000616
        },
        {
          "name": "D2",
          "midi": 38,
          "time": 96.85175500000013,
          "velocity": 0.6299212598425197,
          "duration": 0.14814800000000616
        },
        {
          "name": "E2",
          "midi": 40,
          "time": 96.85175500000013,
          "velocity": 0.6299212598425197,
          "duration": 0.14814800000000616
        },
        {
          "name": "A4",
          "midi": 69,
          "time": 97.03694000000013,
          "velocity": 0.6299212598425197,
          "duration": 0.2962959999999981
        },
        {
          "name": "A3",
          "midi": 57,
          "time": 97.03694000000013,
          "velocity": 0.6299212598425197,
          "duration": 0.2962959999999981
        },
        {
          "name": "D2",
          "midi": 38,
          "time": 97.03694000000013,
          "velocity": 0.6299212598425197,
          "duration": 0.2962959999999981
        },
        {
          "name": "E2",
          "midi": 40,
          "time": 97.03694000000013,
          "velocity": 0.6299212598425197,
          "duration": 0.2962959999999981
        },
        {
          "name": "D2",
          "midi": 38,
          "time": 97.40731000000012,
          "velocity": 0.6299212598425197,
          "duration": 0.14814800000000616
        },
        {
          "name": "E2",
          "midi": 40,
          "time": 97.40731000000012,
          "velocity": 0.6299212598425197,
          "duration": 0.14814800000000616
        },
        {
          "name": "A4",
          "midi": 69,
          "time": 97.40731000000012,
          "velocity": 0.6299212598425197,
          "duration": 0.14814800000000616
        },
        {
          "name": "A3",
          "midi": 57,
          "time": 97.40731000000012,
          "velocity": 0.6299212598425197,
          "duration": 0.14814800000000616
        },
        {
          "name": "E2",
          "midi": 40,
          "time": 97.59249500000013,
          "velocity": 0.6299212598425197,
          "duration": 0.14814800000000616
        },
        {
          "name": "A4",
          "midi": 69,
          "time": 97.59249500000013,
          "velocity": 0.6299212598425197,
          "duration": 0.14814800000000616
        },
        {
          "name": "D2",
          "midi": 38,
          "time": 97.59249500000013,
          "velocity": 0.6299212598425197,
          "duration": 0.14814800000000616
        },
        {
          "name": "A3",
          "midi": 57,
          "time": 97.59249500000013,
          "velocity": 0.6299212598425197,
          "duration": 0.14814800000000616
        },
        {
          "name": "C2",
          "midi": 36,
          "time": 97.96286500000014,
          "velocity": 0.6299212598425197,
          "duration": 0.14814800000000616
        },
        {
          "name": "B1",
          "midi": 35,
          "time": 97.96286500000014,
          "velocity": 0.6299212598425197,
          "duration": 0.14814800000000616
        },
        {
          "name": "D2",
          "midi": 38,
          "time": 98.14805000000014,
          "velocity": 0.6299212598425197,
          "duration": 0.14814800000000616
        },
        {
          "name": "E2",
          "midi": 40,
          "time": 98.14805000000014,
          "velocity": 0.6299212598425197,
          "duration": 0.14814800000000616
        },
        {
          "name": "C2",
          "midi": 36,
          "time": 98.51842000000015,
          "velocity": 0.6299212598425197,
          "duration": 0.14814800000000616
        },
        {
          "name": "B1",
          "midi": 35,
          "time": 98.51842000000015,
          "velocity": 0.6299212598425197,
          "duration": 0.14814800000000616
        },
        {
          "name": "C2",
          "midi": 36,
          "time": 98.70360500000015,
          "velocity": 0.6299212598425197,
          "duration": 0.14814800000000616
        },
        {
          "name": "B1",
          "midi": 35,
          "time": 98.70360500000015,
          "velocity": 0.6299212598425197,
          "duration": 0.14814800000000616
        },
        {
          "name": "D2",
          "midi": 38,
          "time": 98.88879000000016,
          "velocity": 0.6299212598425197,
          "duration": 0.14814800000000616
        },
        {
          "name": "E2",
          "midi": 40,
          "time": 98.88879000000016,
          "velocity": 0.6299212598425197,
          "duration": 0.14814800000000616
        },
        {
          "name": "C2",
          "midi": 36,
          "time": 99.07397500000016,
          "velocity": 0.6299212598425197,
          "duration": 0.14814800000000616
        },
        {
          "name": "B1",
          "midi": 35,
          "time": 99.07397500000016,
          "velocity": 0.6299212598425197,
          "duration": 0.14814800000000616
        },
        {
          "name": "C2",
          "midi": 36,
          "time": 99.44434500000017,
          "velocity": 0.6299212598425197,
          "duration": 0.14814800000000616
        },
        {
          "name": "B1",
          "midi": 35,
          "time": 99.44434500000017,
          "velocity": 0.6299212598425197,
          "duration": 0.14814800000000616
        },
        {
          "name": "E2",
          "midi": 40,
          "time": 99.62953000000017,
          "velocity": 0.6299212598425197,
          "duration": 0.14814800000000616
        },
        {
          "name": "D2",
          "midi": 38,
          "time": 99.62953000000017,
          "velocity": 0.6299212598425197,
          "duration": 0.14814800000000616
        },
        {
          "name": "D2",
          "midi": 38,
          "time": 99.81471500000018,
          "velocity": 0.6299212598425197,
          "duration": 0.14814800000000616
        },
        {
          "name": "E2",
          "midi": 40,
          "time": 99.81471500000018,
          "velocity": 0.6299212598425197,
          "duration": 0.14814800000000616
        },
        {
          "name": "A4",
          "midi": 69,
          "time": 99.99990000000018,
          "velocity": 0.6299212598425197,
          "duration": 0.2962959999999981
        },
        {
          "name": "D2",
          "midi": 38,
          "time": 99.99990000000018,
          "velocity": 0.6299212598425197,
          "duration": 0.2962959999999981
        },
        {
          "name": "E2",
          "midi": 40,
          "time": 99.99990000000018,
          "velocity": 0.6299212598425197,
          "duration": 0.2962959999999981
        },
        {
          "name": "A3",
          "midi": 57,
          "time": 99.99990000000018,
          "velocity": 0.6299212598425197,
          "duration": 0.2962959999999981
        },
        {
          "name": "E2",
          "midi": 40,
          "time": 100.37027000000018,
          "velocity": 0.6299212598425197,
          "duration": 0.34722187500000246
        },
        {
          "name": "A3",
          "midi": 57,
          "time": 100.37027000000018,
          "velocity": 0.6299212598425197,
          "duration": 0.34722187500000246
        },
        {
          "name": "D2",
          "midi": 38,
          "time": 100.37027000000018,
          "velocity": 0.6299212598425197,
          "duration": 0.34722187500000246
        },
        {
          "name": "A4",
          "midi": 69,
          "time": 100.37027000000018,
          "velocity": 0.6299212598425197,
          "duration": 0.34722187500000246
        },
        {
          "name": "B1",
          "midi": 35,
          "time": 100.74064000000018,
          "velocity": 0.6299212598425197,
          "duration": 0.14814800000000616
        },
        {
          "name": "C2",
          "midi": 36,
          "time": 100.74064000000018,
          "velocity": 0.6299212598425197,
          "duration": 0.14814800000000616
        },
        {
          "name": "B1",
          "midi": 35,
          "time": 100.92582500000019,
          "velocity": 0.6299212598425197,
          "duration": 0.14814800000000616
        },
        {
          "name": "C2",
          "midi": 36,
          "time": 100.92582500000019,
          "velocity": 0.6299212598425197,
          "duration": 0.14814800000000616
        },
        {
          "name": "E2",
          "midi": 40,
          "time": 101.11101000000019,
          "velocity": 0.6299212598425197,
          "duration": 0.14814800000000616
        },
        {
          "name": "D2",
          "midi": 38,
          "time": 101.11101000000019,
          "velocity": 0.6299212598425197,
          "duration": 0.14814800000000616
        },
        {
          "name": "B1",
          "midi": 35,
          "time": 101.4813800000002,
          "velocity": 0.6299212598425197,
          "duration": 0.14814800000000616
        },
        {
          "name": "C2",
          "midi": 36,
          "time": 101.4813800000002,
          "velocity": 0.6299212598425197,
          "duration": 0.14814800000000616
        },
        {
          "name": "B1",
          "midi": 35,
          "time": 101.6665650000002,
          "velocity": 0.6299212598425197,
          "duration": 0.14814800000000616
        },
        {
          "name": "B1",
          "midi": 35,
          "time": 101.6665650000002,
          "velocity": 0.6299212598425197,
          "duration": 0.14814800000000616
        },
        {
          "name": "C2",
          "midi": 36,
          "time": 101.6665650000002,
          "velocity": 0.6299212598425197,
          "duration": 0.14814800000000616
        },
        {
          "name": "E2",
          "midi": 40,
          "time": 101.85175000000021,
          "velocity": 0.6299212598425197,
          "duration": 0.14814800000000616
        },
        {
          "name": "D2",
          "midi": 38,
          "time": 101.85175000000021,
          "velocity": 0.6299212598425197,
          "duration": 0.14814800000000616
        },
        {
          "name": "B1",
          "midi": 35,
          "time": 102.03693500000021,
          "velocity": 0.6299212598425197,
          "duration": 0.14814800000000616
        },
        {
          "name": "C2",
          "midi": 36,
          "time": 102.03693500000021,
          "velocity": 0.6299212598425197,
          "duration": 0.14814800000000616
        },
        {
          "name": "C2",
          "midi": 36,
          "time": 102.40730500000022,
          "velocity": 0.6299212598425197,
          "duration": 0.14814800000000616
        },
        {
          "name": "B1",
          "midi": 35,
          "time": 102.40730500000022,
          "velocity": 0.6299212598425197,
          "duration": 0.14814800000000616
        },
        {
          "name": "E2",
          "midi": 40,
          "time": 102.59249000000023,
          "velocity": 0.6299212598425197,
          "duration": 0.14814800000000616
        },
        {
          "name": "D2",
          "midi": 38,
          "time": 102.59249000000023,
          "velocity": 0.6299212598425197,
          "duration": 0.14814800000000616
        },
        {
          "name": "D2",
          "midi": 38,
          "time": 102.77767500000023,
          "velocity": 0.6299212598425197,
          "duration": 0.14814800000000616
        },
        {
          "name": "E2",
          "midi": 40,
          "time": 102.77767500000023,
          "velocity": 0.6299212598425197,
          "duration": 0.14814800000000616
        },
        {
          "name": "A4",
          "midi": 69,
          "time": 102.96286000000023,
          "velocity": 0.6299212598425197,
          "duration": 0.2962959999999981
        },
        {
          "name": "A3",
          "midi": 57,
          "time": 102.96286000000023,
          "velocity": 0.6299212598425197,
          "duration": 0.2962959999999981
        },
        {
          "name": "D2",
          "midi": 38,
          "time": 102.96286000000023,
          "velocity": 0.6299212598425197,
          "duration": 0.2962959999999981
        },
        {
          "name": "E2",
          "midi": 40,
          "time": 102.96286000000023,
          "velocity": 0.6299212598425197,
          "duration": 0.2962959999999981
        },
        {
          "name": "A4",
          "midi": 69,
          "time": 103.33323000000023,
          "velocity": 0.6299212598425197,
          "duration": 0.14814800000000616
        },
        {
          "name": "E2",
          "midi": 40,
          "time": 103.33323000000023,
          "velocity": 0.6299212598425197,
          "duration": 0.14814800000000616
        },
        {
          "name": "D2",
          "midi": 38,
          "time": 103.33323000000023,
          "velocity": 0.6299212598425197,
          "duration": 0.14814800000000616
        },
        {
          "name": "A3",
          "midi": 57,
          "time": 103.33323000000023,
          "velocity": 0.6299212598425197,
          "duration": 0.14814800000000616
        },
        {
          "name": "D2",
          "midi": 38,
          "time": 103.51841500000023,
          "velocity": 0.6299212598425197,
          "duration": 0.14814800000000616
        },
        {
          "name": "A3",
          "midi": 57,
          "time": 103.51841500000023,
          "velocity": 0.6299212598425197,
          "duration": 0.14814800000000616
        },
        {
          "name": "E2",
          "midi": 40,
          "time": 103.51841500000023,
          "velocity": 0.6299212598425197,
          "duration": 0.14814800000000616
        },
        {
          "name": "A4",
          "midi": 69,
          "time": 103.51841500000023,
          "velocity": 0.6299212598425197,
          "duration": 0.14814800000000616
        },
        {
          "name": "B1",
          "midi": 35,
          "time": 103.88878500000024,
          "velocity": 0.6299212598425197,
          "duration": 0.14814800000000616
        },
        {
          "name": "C2",
          "midi": 36,
          "time": 103.88878500000024,
          "velocity": 0.6299212598425197,
          "duration": 0.14814800000000616
        },
        {
          "name": "D2",
          "midi": 38,
          "time": 104.07397000000024,
          "velocity": 0.6299212598425197,
          "duration": 0.14814800000000616
        },
        {
          "name": "E2",
          "midi": 40,
          "time": 104.07397000000024,
          "velocity": 0.6299212598425197,
          "duration": 0.14814800000000616
        },
        {
          "name": "B1",
          "midi": 35,
          "time": 104.44434000000025,
          "velocity": 0.6299212598425197,
          "duration": 0.14814800000000616
        },
        {
          "name": "C2",
          "midi": 36,
          "time": 104.44434000000025,
          "velocity": 0.6299212598425197,
          "duration": 0.14814800000000616
        },
        {
          "name": "C2",
          "midi": 36,
          "time": 104.62952500000026,
          "velocity": 0.6299212598425197,
          "duration": 0.14814800000000616
        },
        {
          "name": "B1",
          "midi": 35,
          "time": 104.62952500000026,
          "velocity": 0.6299212598425197,
          "duration": 0.14814800000000616
        },
        {
          "name": "E2",
          "midi": 40,
          "time": 104.81471000000026,
          "velocity": 0.6299212598425197,
          "duration": 0.14814800000000616
        },
        {
          "name": "D2",
          "midi": 38,
          "time": 104.81471000000026,
          "velocity": 0.6299212598425197,
          "duration": 0.14814800000000616
        },
        {
          "name": "B1",
          "midi": 35,
          "time": 104.99989500000027,
          "velocity": 0.6299212598425197,
          "duration": 0.14814800000000616
        },
        {
          "name": "C2",
          "midi": 36,
          "time": 104.99989500000027,
          "velocity": 0.6299212598425197,
          "duration": 0.14814800000000616
        },
        {
          "name": "B1",
          "midi": 35,
          "time": 105.37026500000027,
          "velocity": 0.6299212598425197,
          "duration": 0.14814800000000616
        },
        {
          "name": "C2",
          "midi": 36,
          "time": 105.37026500000027,
          "velocity": 0.6299212598425197,
          "duration": 0.14814800000000616
        },
        {
          "name": "D2",
          "midi": 38,
          "time": 105.55545000000028,
          "velocity": 0.6299212598425197,
          "duration": 0.14814800000000616
        },
        {
          "name": "E2",
          "midi": 40,
          "time": 105.55545000000028,
          "velocity": 0.6299212598425197,
          "duration": 0.14814800000000616
        },
        {
          "name": "D2",
          "midi": 38,
          "time": 105.74063500000028,
          "velocity": 0.6299212598425197,
          "duration": 0.14814800000000616
        },
        {
          "name": "E2",
          "midi": 40,
          "time": 105.74063500000028,
          "velocity": 0.6299212598425197,
          "duration": 0.14814800000000616
        },
        {
          "name": "A4",
          "midi": 69,
          "time": 105.92582000000029,
          "velocity": 0.6299212598425197,
          "duration": 0.2962959999999981
        },
        {
          "name": "D2",
          "midi": 38,
          "time": 105.92582000000029,
          "velocity": 0.6299212598425197,
          "duration": 0.2962959999999981
        },
        {
          "name": "E2",
          "midi": 40,
          "time": 105.92582000000029,
          "velocity": 0.6299212598425197,
          "duration": 0.2962959999999981
        },
        {
          "name": "A3",
          "midi": 57,
          "time": 105.92582000000029,
          "velocity": 0.6299212598425197,
          "duration": 0.2962959999999981
        },
        {
          "name": "D2",
          "midi": 38,
          "time": 106.29619000000028,
          "velocity": 0.6299212598425197,
          "duration": 0.34722187500000246
        },
        {
          "name": "E2",
          "midi": 40,
          "time": 106.29619000000028,
          "velocity": 0.6299212598425197,
          "duration": 0.34722187500000246
        },
        {
          "name": "A4",
          "midi": 69,
          "time": 106.29619000000028,
          "velocity": 0.6299212598425197,
          "duration": 0.34722187500000246
        },
        {
          "name": "A3",
          "midi": 57,
          "time": 106.29619000000028,
          "velocity": 0.6299212598425197,
          "duration": 0.34722187500000246
        },
        {
          "name": "B1",
          "midi": 35,
          "time": 106.66656000000029,
          "velocity": 0.6299212598425197,
          "duration": 0.14814800000000616
        },
        {
          "name": "C2",
          "midi": 36,
          "time": 106.66656000000029,
          "velocity": 0.6299212598425197,
          "duration": 0.14814800000000616
        },
        {
          "name": "B1",
          "midi": 35,
          "time": 106.85174500000029,
          "velocity": 0.6299212598425197,
          "duration": 0.14814800000000616
        },
        {
          "name": "C2",
          "midi": 36,
          "time": 106.85174500000029,
          "velocity": 0.6299212598425197,
          "duration": 0.14814800000000616
        },
        {
          "name": "E2",
          "midi": 40,
          "time": 107.0369300000003,
          "velocity": 0.6299212598425197,
          "duration": 0.14814800000000616
        },
        {
          "name": "D2",
          "midi": 38,
          "time": 107.0369300000003,
          "velocity": 0.6299212598425197,
          "duration": 0.14814800000000616
        },
        {
          "name": "B1",
          "midi": 35,
          "time": 107.4073000000003,
          "velocity": 0.6299212598425197,
          "duration": 0.14814800000000616
        },
        {
          "name": "C2",
          "midi": 36,
          "time": 107.4073000000003,
          "velocity": 0.6299212598425197,
          "duration": 0.14814800000000616
        },
        {
          "name": "B1",
          "midi": 35,
          "time": 107.59248500000031,
          "velocity": 0.6299212598425197,
          "duration": 0.14814800000000616
        },
        {
          "name": "C2",
          "midi": 36,
          "time": 107.59248500000031,
          "velocity": 0.6299212598425197,
          "duration": 0.14814800000000616
        },
        {
          "name": "B1",
          "midi": 35,
          "time": 107.59248500000031,
          "velocity": 0.6299212598425197,
          "duration": 0.14814800000000616
        },
        {
          "name": "E2",
          "midi": 40,
          "time": 107.77767000000031,
          "velocity": 0.6299212598425197,
          "duration": 0.14814800000000616
        },
        {
          "name": "D2",
          "midi": 38,
          "time": 107.77767000000031,
          "velocity": 0.6299212598425197,
          "duration": 0.14814800000000616
        },
        {
          "name": "B1",
          "midi": 35,
          "time": 107.96285500000032,
          "velocity": 0.6299212598425197,
          "duration": 0.14814800000000616
        },
        {
          "name": "C2",
          "midi": 36,
          "time": 107.96285500000032,
          "velocity": 0.6299212598425197,
          "duration": 0.14814800000000616
        },
        {
          "name": "C2",
          "midi": 36,
          "time": 108.33322500000033,
          "velocity": 0.6299212598425197,
          "duration": 0.14814800000000616
        },
        {
          "name": "B1",
          "midi": 35,
          "time": 108.33322500000033,
          "velocity": 0.6299212598425197,
          "duration": 0.14814800000000616
        },
        {
          "name": "D2",
          "midi": 38,
          "time": 108.51841000000033,
          "velocity": 0.6299212598425197,
          "duration": 0.14814800000000616
        },
        {
          "name": "E2",
          "midi": 40,
          "time": 108.51841000000033,
          "velocity": 0.6299212598425197,
          "duration": 0.14814800000000616
        },
        {
          "name": "D2",
          "midi": 38,
          "time": 108.70359500000033,
          "velocity": 0.6299212598425197,
          "duration": 0.14814800000000616
        },
        {
          "name": "E2",
          "midi": 40,
          "time": 108.70359500000033,
          "velocity": 0.6299212598425197,
          "duration": 0.14814800000000616
        },
        {
          "name": "A4",
          "midi": 69,
          "time": 108.88878000000034,
          "velocity": 0.6299212598425197,
          "duration": 0.2962959999999981
        },
        {
          "name": "A3",
          "midi": 57,
          "time": 108.88878000000034,
          "velocity": 0.6299212598425197,
          "duration": 0.2962959999999981
        },
        {
          "name": "D2",
          "midi": 38,
          "time": 108.88878000000034,
          "velocity": 0.6299212598425197,
          "duration": 0.2962959999999981
        },
        {
          "name": "E2",
          "midi": 40,
          "time": 108.88878000000034,
          "velocity": 0.6299212598425197,
          "duration": 0.2962959999999981
        },
        {
          "name": "A4",
          "midi": 69,
          "time": 109.25915000000033,
          "velocity": 0.6299212598425197,
          "duration": 0.14814800000000616
        },
        {
          "name": "E2",
          "midi": 40,
          "time": 109.25915000000033,
          "velocity": 0.6299212598425197,
          "duration": 0.14814800000000616
        },
        {
          "name": "D2",
          "midi": 38,
          "time": 109.25915000000033,
          "velocity": 0.6299212598425197,
          "duration": 0.14814800000000616
        },
        {
          "name": "A3",
          "midi": 57,
          "time": 109.25915000000033,
          "velocity": 0.6299212598425197,
          "duration": 0.14814800000000616
        },
        {
          "name": "D2",
          "midi": 38,
          "time": 109.44433500000034,
          "velocity": 0.6299212598425197,
          "duration": 0.14814800000000616
        },
        {
          "name": "A3",
          "midi": 57,
          "time": 109.44433500000034,
          "velocity": 0.6299212598425197,
          "duration": 0.14814800000000616
        },
        {
          "name": "E2",
          "midi": 40,
          "time": 109.44433500000034,
          "velocity": 0.6299212598425197,
          "duration": 0.14814800000000616
        },
        {
          "name": "A4",
          "midi": 69,
          "time": 109.44433500000034,
          "velocity": 0.6299212598425197,
          "duration": 0.14814800000000616
        },
        {
          "name": "B1",
          "midi": 35,
          "time": 109.81470500000034,
          "velocity": 0.6299212598425197,
          "duration": 0.14814800000000616
        },
        {
          "name": "C2",
          "midi": 36,
          "time": 109.81470500000034,
          "velocity": 0.6299212598425197,
          "duration": 0.14814800000000616
        },
        {
          "name": "D2",
          "midi": 38,
          "time": 109.99989000000035,
          "velocity": 0.6299212598425197,
          "duration": 0.14814800000000616
        },
        {
          "name": "E2",
          "midi": 40,
          "time": 109.99989000000035,
          "velocity": 0.6299212598425197,
          "duration": 0.14814800000000616
        },
        {
          "name": "B1",
          "midi": 35,
          "time": 110.37026000000036,
          "velocity": 0.6299212598425197,
          "duration": 0.14814800000000616
        },
        {
          "name": "C2",
          "midi": 36,
          "time": 110.37026000000036,
          "velocity": 0.6299212598425197,
          "duration": 0.14814800000000616
        },
        {
          "name": "C2",
          "midi": 36,
          "time": 110.55544500000036,
          "velocity": 0.6299212598425197,
          "duration": 0.14814800000000616
        },
        {
          "name": "B1",
          "midi": 35,
          "time": 110.55544500000036,
          "velocity": 0.6299212598425197,
          "duration": 0.14814800000000616
        },
        {
          "name": "E2",
          "midi": 40,
          "time": 110.74063000000037,
          "velocity": 0.6299212598425197,
          "duration": 0.14814800000000616
        },
        {
          "name": "D2",
          "midi": 38,
          "time": 110.74063000000037,
          "velocity": 0.6299212598425197,
          "duration": 0.14814800000000616
        },
        {
          "name": "B1",
          "midi": 35,
          "time": 110.92581500000037,
          "velocity": 0.6299212598425197,
          "duration": 0.14814800000000616
        },
        {
          "name": "C2",
          "midi": 36,
          "time": 110.92581500000037,
          "velocity": 0.6299212598425197,
          "duration": 0.14814800000000616
        },
        {
          "name": "B1",
          "midi": 35,
          "time": 111.29618500000038,
          "velocity": 0.6299212598425197,
          "duration": 0.14814800000000616
        },
        {
          "name": "C2",
          "midi": 36,
          "time": 111.29618500000038,
          "velocity": 0.6299212598425197,
          "duration": 0.14814800000000616
        },
        {
          "name": "D2",
          "midi": 38,
          "time": 111.48137000000038,
          "velocity": 0.6299212598425197,
          "duration": 0.14814800000000616
        },
        {
          "name": "E2",
          "midi": 40,
          "time": 111.48137000000038,
          "velocity": 0.6299212598425197,
          "duration": 0.14814800000000616
        },
        {
          "name": "D2",
          "midi": 38,
          "time": 111.66655500000039,
          "velocity": 0.6299212598425197,
          "duration": 0.14814800000000616
        },
        {
          "name": "E2",
          "midi": 40,
          "time": 111.66655500000039,
          "velocity": 0.6299212598425197,
          "duration": 0.14814800000000616
        },
        {
          "name": "A4",
          "midi": 69,
          "time": 111.85174000000039,
          "velocity": 0.6299212598425197,
          "duration": 0.2962959999999981
        },
        {
          "name": "D2",
          "midi": 38,
          "time": 111.85174000000039,
          "velocity": 0.6299212598425197,
          "duration": 0.2962959999999981
        },
        {
          "name": "E2",
          "midi": 40,
          "time": 111.85174000000039,
          "velocity": 0.6299212598425197,
          "duration": 0.2962959999999981
        },
        {
          "name": "A3",
          "midi": 57,
          "time": 111.85174000000039,
          "velocity": 0.6299212598425197,
          "duration": 0.2962959999999981
        },
        {
          "name": "A4",
          "midi": 69,
          "time": 112.22211000000038,
          "velocity": 0.6299212598425197,
          "duration": 0.34722187500000246
        },
        {
          "name": "A3",
          "midi": 57,
          "time": 112.22211000000038,
          "velocity": 0.6299212598425197,
          "duration": 0.34722187500000246
        },
        {
          "name": "D2",
          "midi": 38,
          "time": 112.22211000000038,
          "velocity": 0.6299212598425197,
          "duration": 0.34722187500000246
        },
        {
          "name": "E2",
          "midi": 40,
          "time": 112.22211000000038,
          "velocity": 0.6299212598425197,
          "duration": 0.34722187500000246
        }
      ],
      "controlChanges": {
        "7": [
          {
            "number": 7,
            "time": 0,
            "value": 1
          }
        ]
      },
      "id": 12,
      "channelNumber": 9,
      "isPercussion": true
    }
  ]
}